<svg width="100%" height="100%" viewBox="0 0 640 120" xmlns="http://www.w3.org/2000/svg">
    <g transform="matrix(0.84745,0,0,0.84745,-9.91469,15.6637)">
        <g transform="matrix(68.8339,0,0,68.8339,9.35282,52.3173)">
            <path d="M0.448,-0.509C0.446,-0.535 0.435,-0.556 0.417,-0.57C0.398,-0.585 0.372,-0.592 0.337,-0.592C0.315,-0.592 0.296,-0.589 0.281,-0.583C0.265,-0.577 0.254,-0.569 0.246,-0.559C0.239,-0.548 0.235,-0.537 0.235,-0.523C0.234,-0.513 0.236,-0.503 0.241,-0.495C0.246,-0.486 0.253,-0.479 0.263,-0.473C0.272,-0.467 0.283,-0.461 0.297,-0.456C0.31,-0.452 0.325,-0.447 0.341,-0.444L0.404,-0.43C0.44,-0.422 0.472,-0.411 0.499,-0.398C0.527,-0.385 0.55,-0.37 0.569,-0.352C0.588,-0.334 0.602,-0.313 0.612,-0.29C0.621,-0.266 0.626,-0.24 0.626,-0.211C0.626,-0.165 0.615,-0.126 0.592,-0.093C0.569,-0.06 0.536,-0.035 0.493,-0.017C0.45,0 0.398,0.009 0.337,0.009C0.277,0.009 0.223,0 0.178,-0.018C0.133,-0.036 0.098,-0.064 0.073,-0.101C0.048,-0.138 0.035,-0.185 0.034,-0.242L0.202,-0.242C0.204,-0.219 0.21,-0.199 0.221,-0.184C0.232,-0.168 0.248,-0.156 0.267,-0.148C0.287,-0.14 0.309,-0.136 0.335,-0.136C0.359,-0.136 0.379,-0.139 0.396,-0.146C0.412,-0.152 0.425,-0.161 0.434,-0.172C0.443,-0.184 0.448,-0.197 0.448,-0.211C0.448,-0.225 0.444,-0.237 0.435,-0.247C0.427,-0.256 0.414,-0.265 0.397,-0.272C0.38,-0.279 0.358,-0.286 0.332,-0.292L0.256,-0.31C0.193,-0.324 0.143,-0.348 0.107,-0.38C0.071,-0.412 0.053,-0.456 0.053,-0.511C0.053,-0.556 0.065,-0.596 0.089,-0.63C0.114,-0.663 0.147,-0.69 0.19,-0.709C0.233,-0.728 0.283,-0.737 0.338,-0.737C0.394,-0.737 0.443,-0.728 0.485,-0.709C0.526,-0.69 0.558,-0.663 0.581,-0.629C0.604,-0.594 0.616,-0.554 0.616,-0.509L0.448,-0.509Z"/>
        </g>
        <g transform="matrix(68.8339,0,0,68.8339,52.065,52.3173)">
            <path d="M0.209,0.009C0.174,0.009 0.143,0.003 0.116,-0.008C0.089,-0.02 0.068,-0.038 0.053,-0.062C0.037,-0.085 0.029,-0.115 0.029,-0.151C0.029,-0.182 0.035,-0.207 0.045,-0.228C0.056,-0.249 0.071,-0.266 0.089,-0.279C0.108,-0.292 0.13,-0.302 0.154,-0.308C0.179,-0.315 0.205,-0.32 0.232,-0.322C0.263,-0.325 0.288,-0.328 0.307,-0.331C0.326,-0.334 0.34,-0.339 0.349,-0.345C0.357,-0.351 0.362,-0.36 0.362,-0.371L0.362,-0.373C0.362,-0.391 0.355,-0.405 0.343,-0.415C0.33,-0.425 0.313,-0.43 0.292,-0.43C0.269,-0.43 0.25,-0.425 0.237,-0.415C0.223,-0.405 0.214,-0.391 0.21,-0.374L0.05,-0.379C0.054,-0.412 0.067,-0.442 0.086,-0.468C0.106,-0.494 0.133,-0.515 0.168,-0.53C0.203,-0.545 0.245,-0.553 0.293,-0.553C0.328,-0.553 0.36,-0.548 0.39,-0.54C0.419,-0.532 0.444,-0.52 0.466,-0.505C0.488,-0.489 0.505,-0.47 0.517,-0.448C0.529,-0.425 0.535,-0.4 0.535,-0.371L0.535,-0L0.371,-0L0.371,-0.076L0.367,-0.076C0.357,-0.058 0.345,-0.042 0.33,-0.029C0.315,-0.016 0.297,-0.007 0.277,-0C0.257,0.006 0.234,0.009 0.209,0.009ZM0.262,-0.104C0.281,-0.104 0.298,-0.108 0.313,-0.116C0.328,-0.123 0.34,-0.134 0.349,-0.147C0.358,-0.161 0.363,-0.176 0.363,-0.194L0.363,-0.246C0.358,-0.243 0.352,-0.241 0.345,-0.239C0.338,-0.237 0.33,-0.234 0.322,-0.233C0.313,-0.231 0.305,-0.229 0.296,-0.228C0.287,-0.226 0.279,-0.225 0.271,-0.224C0.255,-0.221 0.241,-0.217 0.229,-0.212C0.218,-0.206 0.209,-0.199 0.203,-0.191C0.197,-0.182 0.194,-0.172 0.194,-0.16C0.194,-0.142 0.2,-0.128 0.213,-0.119C0.226,-0.109 0.243,-0.104 0.262,-0.104Z"/>
        </g>
        <g transform="matrix(68.8339,0,0,68.8339,89.6196,52.3173)">
            <path d="M0.055,-0L0.055,-0.545L0.22,-0.545L0.22,-0.445L0.226,-0.445C0.238,-0.478 0.257,-0.505 0.284,-0.524C0.311,-0.543 0.343,-0.553 0.38,-0.553C0.418,-0.553 0.451,-0.543 0.478,-0.523C0.505,-0.504 0.522,-0.478 0.529,-0.445L0.535,-0.445C0.545,-0.478 0.565,-0.504 0.594,-0.523C0.624,-0.543 0.659,-0.553 0.699,-0.553C0.751,-0.553 0.793,-0.536 0.825,-0.503C0.857,-0.47 0.873,-0.425 0.873,-0.367L0.873,-0L0.7,-0L0.7,-0.327C0.7,-0.355 0.693,-0.375 0.679,-0.39C0.665,-0.404 0.647,-0.411 0.624,-0.411C0.6,-0.411 0.582,-0.403 0.568,-0.388C0.554,-0.372 0.548,-0.352 0.548,-0.326L0.548,-0L0.381,-0L0.381,-0.329C0.381,-0.355 0.374,-0.375 0.36,-0.389C0.346,-0.404 0.328,-0.411 0.306,-0.411C0.291,-0.411 0.277,-0.408 0.266,-0.4C0.254,-0.393 0.245,-0.383 0.238,-0.37C0.232,-0.356 0.229,-0.341 0.229,-0.323L0.229,-0L0.055,-0Z"/>
        </g>
        <g transform="matrix(68.8339,0,0,68.8339,150.616,52.3173)">
            <path d="M0.055,0.205L0.055,-0.545L0.227,-0.545L0.227,-0.452L0.232,-0.452C0.239,-0.469 0.249,-0.485 0.263,-0.5C0.276,-0.515 0.293,-0.528 0.313,-0.538C0.334,-0.548 0.358,-0.553 0.387,-0.553C0.425,-0.553 0.46,-0.543 0.493,-0.523C0.526,-0.503 0.553,-0.472 0.573,-0.431C0.594,-0.389 0.604,-0.337 0.604,-0.272C0.604,-0.211 0.594,-0.159 0.574,-0.117C0.555,-0.076 0.529,-0.044 0.496,-0.023C0.463,-0.003 0.426,0.008 0.386,0.008C0.358,0.008 0.334,0.003 0.314,-0.006C0.294,-0.015 0.277,-0.027 0.264,-0.041C0.25,-0.056 0.24,-0.072 0.232,-0.088L0.229,-0.088L0.229,0.205L0.055,0.205ZM0.225,-0.273C0.225,-0.243 0.229,-0.218 0.237,-0.196C0.245,-0.174 0.256,-0.157 0.271,-0.145C0.287,-0.133 0.305,-0.127 0.326,-0.127C0.347,-0.127 0.365,-0.133 0.38,-0.145C0.395,-0.157 0.406,-0.174 0.414,-0.196C0.422,-0.218 0.425,-0.243 0.425,-0.273C0.425,-0.302 0.422,-0.328 0.414,-0.349C0.406,-0.371 0.395,-0.387 0.38,-0.399C0.365,-0.411 0.347,-0.417 0.326,-0.417C0.304,-0.417 0.286,-0.411 0.271,-0.4C0.256,-0.388 0.245,-0.371 0.237,-0.35C0.229,-0.328 0.225,-0.303 0.225,-0.273Z"/>
        </g>
        <g transform="matrix(68.8339,0,0,68.8339,191.91,52.3173)">
            <rect x="0.055" y="-0.727" width="0.174" height="0.727"/>
        </g>
        <g transform="matrix(68.8339,0,0,68.8339,208.688,52.3173)">
            <path d="M0.31,0.01C0.253,0.01 0.204,-0.001 0.162,-0.024C0.121,-0.046 0.089,-0.079 0.067,-0.121C0.045,-0.163 0.034,-0.213 0.034,-0.271C0.034,-0.327 0.045,-0.376 0.067,-0.419C0.09,-0.461 0.121,-0.494 0.162,-0.517C0.202,-0.541 0.25,-0.553 0.305,-0.553C0.344,-0.553 0.379,-0.547 0.411,-0.534C0.443,-0.522 0.471,-0.504 0.495,-0.481C0.518,-0.457 0.536,-0.428 0.549,-0.393C0.562,-0.359 0.569,-0.319 0.569,-0.274L0.569,-0.231L0.095,-0.231L0.095,-0.332L0.407,-0.332C0.407,-0.35 0.403,-0.367 0.394,-0.381C0.386,-0.395 0.374,-0.407 0.359,-0.415C0.344,-0.423 0.327,-0.427 0.308,-0.427C0.289,-0.427 0.271,-0.423 0.256,-0.414C0.241,-0.406 0.228,-0.394 0.219,-0.379C0.21,-0.364 0.206,-0.348 0.205,-0.329L0.205,-0.226C0.205,-0.204 0.21,-0.184 0.218,-0.168C0.227,-0.151 0.24,-0.138 0.256,-0.129C0.272,-0.12 0.291,-0.115 0.313,-0.115C0.329,-0.115 0.343,-0.117 0.355,-0.121C0.368,-0.126 0.378,-0.132 0.387,-0.14C0.396,-0.149 0.403,-0.159 0.408,-0.171L0.567,-0.166C0.56,-0.13 0.546,-0.099 0.524,-0.073C0.501,-0.047 0.472,-0.026 0.436,-0.012C0.4,0.003 0.358,0.01 0.31,0.01Z"/>
        </g>
        <g transform="matrix(68.8339,0,0,68.8339,260.188,52.3173)">
            <path d="M0.055,-0L0.055,-0.727L0.231,-0.727L0.231,-0.435L0.517,-0.435L0.517,-0.727L0.693,-0.727L0.693,-0L0.517,-0L0.517,-0.292L0.231,-0.292L0.231,-0L0.055,-0Z"/>
        </g>
        <g transform="matrix(68.8339,0,0,68.8339,309.602,52.3173)">
            <path d="M0.31,0.01C0.253,0.01 0.204,-0.001 0.162,-0.024C0.121,-0.046 0.089,-0.079 0.067,-0.121C0.045,-0.163 0.034,-0.213 0.034,-0.271C0.034,-0.327 0.045,-0.376 0.067,-0.419C0.09,-0.461 0.121,-0.494 0.162,-0.517C0.202,-0.541 0.25,-0.553 0.305,-0.553C0.344,-0.553 0.379,-0.547 0.411,-0.534C0.443,-0.522 0.471,-0.504 0.495,-0.481C0.518,-0.457 0.536,-0.428 0.549,-0.393C0.562,-0.359 0.569,-0.319 0.569,-0.274L0.569,-0.231L0.095,-0.231L0.095,-0.332L0.407,-0.332C0.407,-0.35 0.403,-0.367 0.394,-0.381C0.386,-0.395 0.374,-0.407 0.359,-0.415C0.344,-0.423 0.327,-0.427 0.308,-0.427C0.289,-0.427 0.271,-0.423 0.256,-0.414C0.241,-0.406 0.228,-0.394 0.219,-0.379C0.21,-0.364 0.206,-0.348 0.205,-0.329L0.205,-0.226C0.205,-0.204 0.21,-0.184 0.218,-0.168C0.227,-0.151 0.24,-0.138 0.256,-0.129C0.272,-0.12 0.291,-0.115 0.313,-0.115C0.329,-0.115 0.343,-0.117 0.355,-0.121C0.368,-0.126 0.378,-0.132 0.387,-0.14C0.396,-0.149 0.403,-0.159 0.408,-0.171L0.567,-0.166C0.56,-0.13 0.546,-0.099 0.524,-0.073C0.501,-0.047 0.472,-0.026 0.436,-0.012C0.4,0.003 0.358,0.01 0.31,0.01Z"/>
        </g>
        <g transform="matrix(68.8339,0,0,68.8339,349.042,52.3173)">
            <path d="M0.209,0.009C0.174,0.009 0.143,0.003 0.116,-0.008C0.089,-0.02 0.068,-0.038 0.053,-0.062C0.037,-0.085 0.029,-0.115 0.029,-0.151C0.029,-0.182 0.035,-0.207 0.045,-0.228C0.056,-0.249 0.071,-0.266 0.089,-0.279C0.108,-0.292 0.13,-0.302 0.154,-0.308C0.179,-0.315 0.205,-0.32 0.232,-0.322C0.263,-0.325 0.288,-0.328 0.307,-0.331C0.326,-0.334 0.34,-0.339 0.349,-0.345C0.357,-0.351 0.362,-0.36 0.362,-0.371L0.362,-0.373C0.362,-0.391 0.355,-0.405 0.343,-0.415C0.33,-0.425 0.313,-0.43 0.292,-0.43C0.269,-0.43 0.25,-0.425 0.237,-0.415C0.223,-0.405 0.214,-0.391 0.21,-0.374L0.05,-0.379C0.054,-0.412 0.067,-0.442 0.086,-0.468C0.106,-0.494 0.133,-0.515 0.168,-0.53C0.203,-0.545 0.245,-0.553 0.293,-0.553C0.328,-0.553 0.36,-0.548 0.39,-0.54C0.419,-0.532 0.444,-0.52 0.466,-0.505C0.488,-0.489 0.505,-0.47 0.517,-0.448C0.529,-0.425 0.535,-0.4 0.535,-0.371L0.535,-0L0.371,-0L0.371,-0.076L0.367,-0.076C0.357,-0.058 0.345,-0.042 0.33,-0.029C0.315,-0.016 0.297,-0.007 0.277,-0C0.257,0.006 0.234,0.009 0.209,0.009ZM0.262,-0.104C0.281,-0.104 0.298,-0.108 0.313,-0.116C0.328,-0.123 0.34,-0.134 0.349,-0.147C0.358,-0.161 0.363,-0.176 0.363,-0.194L0.363,-0.246C0.358,-0.243 0.352,-0.241 0.345,-0.239C0.338,-0.237 0.33,-0.234 0.322,-0.233C0.313,-0.231 0.305,-0.229 0.296,-0.228C0.287,-0.226 0.279,-0.225 0.271,-0.224C0.255,-0.221 0.241,-0.217 0.229,-0.212C0.218,-0.206 0.209,-0.199 0.203,-0.191C0.197,-0.182 0.194,-0.172 0.194,-0.16C0.194,-0.142 0.2,-0.128 0.213,-0.119C0.226,-0.109 0.243,-0.104 0.262,-0.104Z"/>
        </g>
        <g transform="matrix(68.8339,0,0,68.8339,387.285,52.3173)">
            <path d="M0.254,0.008C0.214,0.008 0.177,-0.003 0.145,-0.023C0.112,-0.044 0.085,-0.076 0.066,-0.117C0.046,-0.159 0.036,-0.211 0.036,-0.272C0.036,-0.337 0.046,-0.389 0.067,-0.431C0.087,-0.472 0.114,-0.503 0.147,-0.523C0.18,-0.543 0.215,-0.553 0.254,-0.553C0.282,-0.553 0.307,-0.548 0.327,-0.538C0.347,-0.528 0.364,-0.515 0.377,-0.5C0.391,-0.485 0.401,-0.469 0.408,-0.452L0.411,-0.452L0.411,-0.727L0.585,-0.727L0.585,-0L0.413,-0L0.413,-0.088L0.408,-0.088C0.4,-0.072 0.39,-0.056 0.376,-0.041C0.363,-0.027 0.346,-0.015 0.326,-0.006C0.306,0.003 0.282,0.008 0.254,0.008ZM0.315,-0.127C0.336,-0.127 0.354,-0.133 0.369,-0.145C0.384,-0.157 0.395,-0.174 0.403,-0.196C0.411,-0.218 0.415,-0.243 0.415,-0.273C0.415,-0.303 0.411,-0.328 0.403,-0.35C0.395,-0.371 0.384,-0.388 0.369,-0.4C0.354,-0.411 0.336,-0.417 0.315,-0.417C0.293,-0.417 0.275,-0.411 0.26,-0.399C0.245,-0.387 0.234,-0.371 0.226,-0.349C0.218,-0.328 0.214,-0.302 0.214,-0.273C0.214,-0.243 0.218,-0.218 0.226,-0.196C0.234,-0.174 0.245,-0.157 0.26,-0.145C0.275,-0.133 0.293,-0.127 0.315,-0.127Z"/>
        </g>
        <g transform="matrix(68.8339,0,0,68.8339,429.268,52.3173)">
            <path d="M0.055,-0L0.055,-0.545L0.229,-0.545L0.229,-0L0.055,-0ZM0.142,-0.609C0.118,-0.609 0.097,-0.617 0.079,-0.633C0.062,-0.65 0.053,-0.669 0.053,-0.692C0.053,-0.715 0.062,-0.734 0.079,-0.751C0.097,-0.767 0.118,-0.775 0.142,-0.775C0.167,-0.775 0.188,-0.767 0.205,-0.751C0.222,-0.734 0.231,-0.715 0.231,-0.692C0.231,-0.669 0.222,-0.65 0.205,-0.633C0.188,-0.617 0.167,-0.609 0.142,-0.609Z"/>
        </g>
        <g transform="matrix(68.8339,0,0,68.8339,446.734,52.3173)">
            <path d="M0.229,-0.311L0.229,-0L0.055,-0L0.055,-0.545L0.22,-0.545L0.22,-0.445L0.226,-0.445C0.238,-0.479 0.259,-0.505 0.288,-0.524C0.317,-0.543 0.352,-0.553 0.392,-0.553C0.43,-0.553 0.464,-0.544 0.492,-0.527C0.52,-0.51 0.542,-0.486 0.558,-0.455C0.574,-0.424 0.582,-0.389 0.581,-0.348L0.581,-0L0.408,-0L0.408,-0.314C0.408,-0.344 0.4,-0.368 0.385,-0.385C0.369,-0.402 0.348,-0.41 0.32,-0.41C0.302,-0.41 0.286,-0.406 0.272,-0.398C0.258,-0.39 0.248,-0.379 0.24,-0.364C0.233,-0.35 0.229,-0.332 0.229,-0.311Z"/>
        </g>
        <g transform="matrix(68.8339,0,0,68.8339,488.325,52.3173)">
            <path d="M0.309,0.216C0.257,0.216 0.213,0.209 0.176,0.194C0.139,0.18 0.11,0.16 0.089,0.135C0.068,0.11 0.055,0.081 0.051,0.05L0.216,0.04C0.219,0.052 0.224,0.061 0.233,0.07C0.241,0.078 0.252,0.084 0.266,0.089C0.279,0.093 0.295,0.096 0.314,0.096C0.343,0.096 0.367,0.088 0.386,0.074C0.405,0.06 0.415,0.036 0.415,0.001L0.415,-0.095L0.409,-0.095C0.402,-0.078 0.391,-0.063 0.377,-0.05C0.364,-0.037 0.346,-0.026 0.325,-0.019C0.305,-0.011 0.281,-0.007 0.254,-0.007C0.214,-0.007 0.178,-0.017 0.145,-0.035C0.112,-0.054 0.086,-0.083 0.066,-0.122C0.046,-0.161 0.036,-0.212 0.036,-0.273C0.036,-0.337 0.046,-0.39 0.067,-0.431C0.087,-0.472 0.114,-0.503 0.147,-0.523C0.18,-0.543 0.215,-0.553 0.254,-0.553C0.282,-0.553 0.307,-0.548 0.327,-0.538C0.348,-0.528 0.365,-0.515 0.378,-0.5C0.391,-0.485 0.401,-0.469 0.408,-0.452L0.413,-0.452L0.413,-0.545L0.586,-0.545L0.586,0.002C0.586,0.048 0.574,0.087 0.551,0.119C0.528,0.151 0.496,0.175 0.454,0.191C0.412,0.208 0.364,0.216 0.309,0.216ZM0.315,-0.134C0.336,-0.134 0.354,-0.139 0.369,-0.151C0.384,-0.162 0.395,-0.178 0.403,-0.199C0.411,-0.219 0.415,-0.244 0.415,-0.273C0.415,-0.303 0.411,-0.329 0.403,-0.35C0.395,-0.371 0.384,-0.388 0.369,-0.4C0.354,-0.411 0.336,-0.417 0.315,-0.417C0.293,-0.417 0.275,-0.411 0.26,-0.399C0.245,-0.387 0.234,-0.371 0.226,-0.349C0.218,-0.328 0.214,-0.303 0.214,-0.273C0.214,-0.244 0.218,-0.219 0.226,-0.199C0.234,-0.178 0.245,-0.162 0.26,-0.151C0.275,-0.139 0.293,-0.134 0.315,-0.134Z"/>
        </g>
    </g>
    <g transform="matrix(1.07244,0,0,1.07244,-16.2292,-11.8851)">
        <g transform="matrix(19.4261,0,0,19.4261,14.0292,101.754)">
            <path d="M0.486,-0.545C0.482,-0.581 0.464,-0.609 0.434,-0.629C0.404,-0.649 0.366,-0.659 0.322,-0.659C0.29,-0.659 0.262,-0.654 0.238,-0.643C0.214,-0.633 0.195,-0.619 0.182,-0.6C0.169,-0.582 0.162,-0.562 0.162,-0.538C0.162,-0.519 0.167,-0.502 0.176,-0.488C0.185,-0.475 0.197,-0.463 0.212,-0.454C0.227,-0.445 0.242,-0.437 0.258,-0.432C0.274,-0.426 0.289,-0.421 0.303,-0.418L0.376,-0.398C0.395,-0.393 0.416,-0.386 0.44,-0.377C0.463,-0.368 0.485,-0.356 0.507,-0.341C0.528,-0.326 0.546,-0.307 0.56,-0.284C0.574,-0.26 0.581,-0.232 0.581,-0.197C0.581,-0.158 0.571,-0.123 0.55,-0.091C0.53,-0.059 0.5,-0.034 0.461,-0.015C0.422,0.003 0.374,0.013 0.318,0.013C0.266,0.013 0.221,0.004 0.183,-0.012C0.145,-0.029 0.115,-0.053 0.094,-0.083C0.072,-0.113 0.06,-0.148 0.057,-0.188L0.148,-0.188C0.15,-0.16 0.159,-0.137 0.176,-0.119C0.192,-0.102 0.212,-0.088 0.237,-0.08C0.262,-0.071 0.289,-0.067 0.318,-0.067C0.352,-0.067 0.382,-0.072 0.409,-0.083C0.435,-0.094 0.457,-0.11 0.472,-0.129C0.488,-0.149 0.496,-0.172 0.496,-0.199C0.496,-0.223 0.489,-0.243 0.475,-0.258C0.462,-0.273 0.444,-0.285 0.422,-0.295C0.4,-0.304 0.376,-0.313 0.351,-0.32L0.261,-0.345C0.205,-0.362 0.16,-0.385 0.126,-0.415C0.093,-0.445 0.077,-0.485 0.077,-0.534C0.077,-0.575 0.088,-0.61 0.11,-0.641C0.132,-0.671 0.162,-0.695 0.199,-0.712C0.237,-0.729 0.279,-0.737 0.325,-0.737C0.372,-0.737 0.414,-0.729 0.45,-0.712C0.487,-0.695 0.516,-0.673 0.537,-0.644C0.559,-0.615 0.57,-0.582 0.571,-0.545L0.486,-0.545Z"/>
        </g>
        <g transform="matrix(19.4261,0,0,19.4261,26.4189,101.754)">
            <path d="M0.237,0.013C0.203,0.013 0.171,0.006 0.143,-0.007C0.115,-0.02 0.093,-0.039 0.076,-0.064C0.059,-0.089 0.051,-0.119 0.051,-0.155C0.051,-0.186 0.057,-0.211 0.07,-0.231C0.082,-0.251 0.098,-0.266 0.119,-0.277C0.14,-0.288 0.162,-0.296 0.187,-0.302C0.212,-0.308 0.237,-0.312 0.263,-0.315C0.296,-0.32 0.323,-0.323 0.344,-0.325C0.364,-0.327 0.379,-0.331 0.389,-0.337C0.399,-0.342 0.403,-0.352 0.403,-0.365L0.403,-0.368C0.403,-0.403 0.394,-0.43 0.375,-0.45C0.356,-0.469 0.327,-0.479 0.288,-0.479C0.248,-0.479 0.217,-0.47 0.194,-0.452C0.172,-0.435 0.156,-0.416 0.146,-0.396L0.067,-0.425C0.081,-0.458 0.1,-0.484 0.124,-0.502C0.148,-0.521 0.174,-0.534 0.202,-0.541C0.23,-0.549 0.258,-0.553 0.286,-0.553C0.303,-0.553 0.323,-0.55 0.346,-0.546C0.369,-0.542 0.391,-0.534 0.412,-0.521C0.434,-0.508 0.452,-0.489 0.466,-0.463C0.48,-0.437 0.487,-0.403 0.487,-0.359L0.487,-0L0.403,-0L0.403,-0.074L0.399,-0.074C0.393,-0.062 0.384,-0.049 0.371,-0.036C0.357,-0.022 0.34,-0.011 0.318,-0.001C0.296,0.008 0.269,0.013 0.237,0.013ZM0.25,-0.063C0.283,-0.063 0.311,-0.069 0.334,-0.082C0.357,-0.095 0.374,-0.112 0.386,-0.132C0.398,-0.153 0.403,-0.175 0.403,-0.197L0.403,-0.274C0.4,-0.27 0.392,-0.266 0.38,-0.263C0.368,-0.259 0.354,-0.256 0.339,-0.254C0.323,-0.251 0.308,-0.249 0.294,-0.247C0.279,-0.246 0.268,-0.244 0.259,-0.243C0.237,-0.24 0.216,-0.235 0.198,-0.229C0.179,-0.223 0.164,-0.214 0.152,-0.201C0.141,-0.189 0.135,-0.172 0.135,-0.151C0.135,-0.121 0.146,-0.099 0.167,-0.085C0.189,-0.07 0.217,-0.063 0.25,-0.063Z"/>
        </g>
        <g transform="matrix(19.4261,0,0,19.4261,37.3737,101.754)">
            <path d="M0.077,-0L0.077,-0.545L0.158,-0.545L0.158,-0.46L0.165,-0.46C0.176,-0.489 0.194,-0.512 0.22,-0.528C0.245,-0.544 0.276,-0.553 0.311,-0.553C0.347,-0.553 0.377,-0.544 0.401,-0.528C0.425,-0.512 0.444,-0.489 0.457,-0.46L0.463,-0.46C0.477,-0.488 0.498,-0.511 0.526,-0.528C0.554,-0.544 0.587,-0.553 0.626,-0.553C0.675,-0.553 0.715,-0.537 0.746,-0.507C0.777,-0.477 0.793,-0.429 0.793,-0.365L0.793,-0L0.709,-0L0.709,-0.365C0.709,-0.405 0.698,-0.434 0.676,-0.451C0.654,-0.469 0.628,-0.477 0.598,-0.477C0.56,-0.477 0.53,-0.466 0.509,-0.443C0.488,-0.42 0.477,-0.39 0.477,-0.355L0.477,-0L0.392,-0L0.392,-0.374C0.392,-0.405 0.382,-0.43 0.362,-0.449C0.342,-0.468 0.316,-0.477 0.284,-0.477C0.262,-0.477 0.242,-0.471 0.223,-0.46C0.204,-0.448 0.189,-0.432 0.178,-0.412C0.166,-0.391 0.161,-0.368 0.161,-0.341L0.161,-0L0.077,-0Z"/>
        </g>
        <g transform="matrix(19.4261,0,0,19.4261,54.2611,101.754)">
            <path d="M0.077,0.205L0.077,-0.545L0.158,-0.545L0.158,-0.459L0.168,-0.459C0.174,-0.468 0.182,-0.48 0.193,-0.495C0.204,-0.51 0.22,-0.523 0.241,-0.535C0.262,-0.547 0.29,-0.553 0.325,-0.553C0.371,-0.553 0.412,-0.541 0.447,-0.518C0.482,-0.495 0.509,-0.463 0.529,-0.42C0.548,-0.378 0.558,-0.329 0.558,-0.271C0.558,-0.214 0.548,-0.164 0.529,-0.121C0.509,-0.079 0.482,-0.046 0.447,-0.023C0.412,-0 0.372,0.011 0.327,0.011C0.292,0.011 0.264,0.006 0.243,-0.006C0.221,-0.018 0.205,-0.031 0.194,-0.046C0.183,-0.061 0.174,-0.074 0.168,-0.084L0.161,-0.084L0.161,0.205L0.077,0.205ZM0.159,-0.273C0.159,-0.232 0.165,-0.195 0.177,-0.164C0.189,-0.133 0.207,-0.108 0.23,-0.09C0.253,-0.073 0.282,-0.064 0.315,-0.064C0.35,-0.064 0.38,-0.073 0.403,-0.092C0.427,-0.11 0.445,-0.135 0.456,-0.167C0.468,-0.199 0.474,-0.234 0.474,-0.273C0.474,-0.311 0.469,-0.346 0.457,-0.377C0.445,-0.407 0.427,-0.432 0.404,-0.45C0.38,-0.468 0.351,-0.477 0.315,-0.477C0.281,-0.477 0.253,-0.469 0.229,-0.452C0.206,-0.434 0.189,-0.41 0.177,-0.38C0.165,-0.349 0.159,-0.313 0.159,-0.273Z"/>
        </g>
        <g transform="matrix(19.4261,0,0,19.4261,66.0989,101.754)">
            <rect x="0.077" y="-0.727" width="0.084" height="0.727"/>
        </g>
        <g transform="matrix(19.4261,0,0,19.4261,70.7071,101.754)">
            <path d="M0.305,0.011C0.253,0.011 0.208,-0 0.17,-0.024C0.132,-0.047 0.102,-0.08 0.082,-0.122C0.061,-0.164 0.051,-0.213 0.051,-0.268C0.051,-0.324 0.061,-0.374 0.082,-0.416C0.102,-0.459 0.131,-0.492 0.168,-0.517C0.205,-0.541 0.248,-0.553 0.297,-0.553C0.325,-0.553 0.353,-0.548 0.381,-0.538C0.409,-0.529 0.434,-0.514 0.457,-0.492C0.479,-0.471 0.498,-0.443 0.511,-0.408C0.525,-0.374 0.531,-0.331 0.531,-0.28L0.531,-0.244L0.111,-0.244L0.111,-0.317L0.446,-0.317C0.446,-0.348 0.44,-0.375 0.428,-0.399C0.416,-0.423 0.398,-0.442 0.376,-0.456C0.354,-0.47 0.327,-0.477 0.297,-0.477C0.263,-0.477 0.235,-0.469 0.21,-0.453C0.186,-0.436 0.167,-0.415 0.154,-0.388C0.141,-0.362 0.135,-0.334 0.135,-0.304L0.135,-0.256C0.135,-0.214 0.142,-0.18 0.156,-0.151C0.171,-0.123 0.191,-0.101 0.216,-0.086C0.242,-0.071 0.272,-0.064 0.305,-0.064C0.327,-0.064 0.347,-0.067 0.365,-0.073C0.383,-0.08 0.399,-0.089 0.412,-0.102C0.425,-0.114 0.435,-0.13 0.442,-0.149L0.523,-0.126C0.514,-0.099 0.5,-0.075 0.48,-0.054C0.46,-0.033 0.435,-0.017 0.405,-0.006C0.376,0.006 0.342,0.011 0.305,0.011Z"/>
        </g>
        <g transform="matrix(19.4261,0,0,19.4261,87.4842,101.754)">
            <path d="M0.314,-0.545L0.314,-0.474L0.031,-0.474L0.031,-0.545L0.314,-0.545ZM0.114,-0.676L0.197,-0.676L0.197,-0.156C0.197,-0.133 0.201,-0.115 0.208,-0.103C0.215,-0.091 0.224,-0.084 0.235,-0.08C0.246,-0.076 0.258,-0.074 0.27,-0.074C0.279,-0.074 0.287,-0.074 0.293,-0.075C0.299,-0.077 0.303,-0.077 0.307,-0.078L0.324,-0.003C0.318,-0.001 0.31,0.001 0.3,0.004C0.29,0.006 0.277,0.007 0.261,0.007C0.238,0.007 0.215,0.002 0.192,-0.008C0.169,-0.018 0.151,-0.034 0.136,-0.055C0.121,-0.076 0.114,-0.102 0.114,-0.134L0.114,-0.676Z"/>
        </g>
        <g transform="matrix(19.4261,0,0,19.4261,94.4378,101.754)">
            <path d="M0.305,0.011C0.253,0.011 0.208,-0 0.17,-0.024C0.132,-0.047 0.102,-0.08 0.082,-0.122C0.061,-0.164 0.051,-0.213 0.051,-0.268C0.051,-0.324 0.061,-0.374 0.082,-0.416C0.102,-0.459 0.131,-0.492 0.168,-0.517C0.205,-0.541 0.248,-0.553 0.297,-0.553C0.325,-0.553 0.353,-0.548 0.381,-0.538C0.409,-0.529 0.434,-0.514 0.457,-0.492C0.479,-0.471 0.498,-0.443 0.511,-0.408C0.525,-0.374 0.531,-0.331 0.531,-0.28L0.531,-0.244L0.111,-0.244L0.111,-0.317L0.446,-0.317C0.446,-0.348 0.44,-0.375 0.428,-0.399C0.416,-0.423 0.398,-0.442 0.376,-0.456C0.354,-0.47 0.327,-0.477 0.297,-0.477C0.263,-0.477 0.235,-0.469 0.21,-0.453C0.186,-0.436 0.167,-0.415 0.154,-0.388C0.141,-0.362 0.135,-0.334 0.135,-0.304L0.135,-0.256C0.135,-0.214 0.142,-0.18 0.156,-0.151C0.171,-0.123 0.191,-0.101 0.216,-0.086C0.242,-0.071 0.272,-0.064 0.305,-0.064C0.327,-0.064 0.347,-0.067 0.365,-0.073C0.383,-0.08 0.399,-0.089 0.412,-0.102C0.425,-0.114 0.435,-0.13 0.442,-0.149L0.523,-0.126C0.514,-0.099 0.5,-0.075 0.48,-0.054C0.46,-0.033 0.435,-0.017 0.405,-0.006C0.376,0.006 0.342,0.011 0.305,0.011Z"/>
        </g>
        <g transform="matrix(19.4261,0,0,19.4261,105.475,101.754)">
            <path d="M0.139,-0.545L0.27,-0.322L0.401,-0.545L0.497,-0.545L0.321,-0.273L0.497,-0L0.401,-0L0.27,-0.212L0.139,-0L0.043,-0L0.216,-0.273L0.043,-0.545L0.139,-0.545Z"/>
        </g>
        <g transform="matrix(19.4261,0,0,19.4261,115.961,101.754)">
            <path d="M0.314,-0.545L0.314,-0.474L0.031,-0.474L0.031,-0.545L0.314,-0.545ZM0.114,-0.676L0.197,-0.676L0.197,-0.156C0.197,-0.133 0.201,-0.115 0.208,-0.103C0.215,-0.091 0.224,-0.084 0.235,-0.08C0.246,-0.076 0.258,-0.074 0.27,-0.074C0.279,-0.074 0.287,-0.074 0.293,-0.075C0.299,-0.077 0.303,-0.077 0.307,-0.078L0.324,-0.003C0.318,-0.001 0.31,0.001 0.3,0.004C0.29,0.006 0.277,0.007 0.261,0.007C0.238,0.007 0.215,0.002 0.192,-0.008C0.169,-0.018 0.151,-0.034 0.136,-0.055C0.121,-0.076 0.114,-0.102 0.114,-0.134L0.114,-0.676Z"/>
        </g>
        <g transform="matrix(19.4261,0,0,19.4261,128.489,101.754)">
            <path d="M0.32,-0.545L0.32,-0.474L0.026,-0.474L0.026,-0.545L0.32,-0.545ZM0.114,-0L0.114,-0.621C0.114,-0.652 0.121,-0.678 0.136,-0.699C0.15,-0.72 0.169,-0.735 0.193,-0.746C0.216,-0.756 0.241,-0.761 0.267,-0.761C0.288,-0.761 0.304,-0.76 0.317,-0.756C0.33,-0.753 0.34,-0.75 0.347,-0.747L0.322,-0.675C0.318,-0.676 0.312,-0.678 0.305,-0.68C0.297,-0.682 0.288,-0.683 0.276,-0.683C0.248,-0.683 0.228,-0.676 0.216,-0.662C0.204,-0.648 0.197,-0.628 0.197,-0.601L0.197,-0L0.114,-0Z"/>
        </g>
        <g transform="matrix(19.4261,0,0,19.4261,135.056,101.754)">
            <path d="M0.298,0.011C0.249,0.011 0.206,-0 0.169,-0.024C0.132,-0.047 0.103,-0.08 0.082,-0.122C0.061,-0.164 0.051,-0.214 0.051,-0.27C0.051,-0.327 0.061,-0.376 0.082,-0.419C0.103,-0.461 0.132,-0.494 0.169,-0.517C0.206,-0.541 0.249,-0.553 0.298,-0.553C0.348,-0.553 0.391,-0.541 0.428,-0.517C0.465,-0.494 0.494,-0.461 0.514,-0.419C0.535,-0.376 0.545,-0.327 0.545,-0.27C0.545,-0.214 0.535,-0.164 0.514,-0.122C0.494,-0.08 0.465,-0.047 0.428,-0.024C0.391,-0 0.348,0.011 0.298,0.011ZM0.298,-0.064C0.336,-0.064 0.366,-0.074 0.391,-0.093C0.415,-0.112 0.433,-0.137 0.444,-0.168C0.456,-0.2 0.462,-0.233 0.462,-0.27C0.462,-0.306 0.456,-0.34 0.444,-0.372C0.433,-0.403 0.415,-0.429 0.391,-0.448C0.366,-0.468 0.336,-0.477 0.298,-0.477C0.261,-0.477 0.23,-0.468 0.206,-0.448C0.182,-0.429 0.164,-0.403 0.152,-0.372C0.141,-0.34 0.135,-0.306 0.135,-0.27C0.135,-0.233 0.141,-0.2 0.152,-0.168C0.164,-0.137 0.182,-0.112 0.206,-0.093C0.23,-0.074 0.261,-0.064 0.298,-0.064Z"/>
        </g>
        <g transform="matrix(19.4261,0,0,19.4261,146.645,101.754)">
            <path d="M0.077,-0L0.077,-0.545L0.158,-0.545L0.158,-0.463L0.163,-0.463C0.173,-0.49 0.191,-0.512 0.217,-0.529C0.243,-0.546 0.273,-0.554 0.305,-0.554C0.312,-0.554 0.319,-0.554 0.328,-0.554C0.338,-0.553 0.345,-0.553 0.349,-0.553L0.349,-0.467C0.347,-0.468 0.34,-0.469 0.33,-0.471C0.32,-0.472 0.309,-0.473 0.298,-0.473C0.272,-0.473 0.248,-0.468 0.227,-0.456C0.207,-0.445 0.19,-0.43 0.178,-0.411C0.166,-0.392 0.161,-0.37 0.161,-0.345L0.161,-0L0.077,-0Z"/>
        </g>
        <g transform="matrix(19.4261,0,0,19.4261,159.339,101.754)">
            <path d="M0.314,-0.545L0.314,-0.474L0.031,-0.474L0.031,-0.545L0.314,-0.545ZM0.114,-0.676L0.197,-0.676L0.197,-0.156C0.197,-0.133 0.201,-0.115 0.208,-0.103C0.215,-0.091 0.224,-0.084 0.235,-0.08C0.246,-0.076 0.258,-0.074 0.27,-0.074C0.279,-0.074 0.287,-0.074 0.293,-0.075C0.299,-0.077 0.303,-0.077 0.307,-0.078L0.324,-0.003C0.318,-0.001 0.31,0.001 0.3,0.004C0.29,0.006 0.277,0.007 0.261,0.007C0.238,0.007 0.215,0.002 0.192,-0.008C0.169,-0.018 0.151,-0.034 0.136,-0.055C0.121,-0.076 0.114,-0.102 0.114,-0.134L0.114,-0.676Z"/>
        </g>
        <g transform="matrix(19.4261,0,0,19.4261,166.623,101.754)">
            <path d="M0.161,-0.328L0.161,-0L0.077,-0L0.077,-0.727L0.161,-0.727L0.161,-0.46L0.168,-0.46C0.18,-0.488 0.2,-0.511 0.225,-0.528C0.251,-0.544 0.285,-0.553 0.328,-0.553C0.365,-0.553 0.398,-0.545 0.426,-0.53C0.454,-0.516 0.475,-0.493 0.491,-0.463C0.506,-0.432 0.514,-0.393 0.514,-0.347L0.514,-0L0.43,-0L0.43,-0.341C0.43,-0.384 0.419,-0.418 0.397,-0.442C0.374,-0.465 0.344,-0.477 0.304,-0.477C0.277,-0.477 0.252,-0.471 0.23,-0.46C0.209,-0.448 0.192,-0.431 0.179,-0.409C0.167,-0.387 0.161,-0.36 0.161,-0.328Z"/>
        </g>
        <g transform="matrix(19.4261,0,0,19.4261,178.103,101.754)">
            <path d="M0.305,0.011C0.253,0.011 0.208,-0 0.17,-0.024C0.132,-0.047 0.102,-0.08 0.082,-0.122C0.061,-0.164 0.051,-0.213 0.051,-0.268C0.051,-0.324 0.061,-0.374 0.082,-0.416C0.102,-0.459 0.131,-0.492 0.168,-0.517C0.205,-0.541 0.248,-0.553 0.297,-0.553C0.325,-0.553 0.353,-0.548 0.381,-0.538C0.409,-0.529 0.434,-0.514 0.457,-0.492C0.479,-0.471 0.498,-0.443 0.511,-0.408C0.525,-0.374 0.531,-0.331 0.531,-0.28L0.531,-0.244L0.111,-0.244L0.111,-0.317L0.446,-0.317C0.446,-0.348 0.44,-0.375 0.428,-0.399C0.416,-0.423 0.398,-0.442 0.376,-0.456C0.354,-0.47 0.327,-0.477 0.297,-0.477C0.263,-0.477 0.235,-0.469 0.21,-0.453C0.186,-0.436 0.167,-0.415 0.154,-0.388C0.141,-0.362 0.135,-0.334 0.135,-0.304L0.135,-0.256C0.135,-0.214 0.142,-0.18 0.156,-0.151C0.171,-0.123 0.191,-0.101 0.216,-0.086C0.242,-0.071 0.272,-0.064 0.305,-0.064C0.327,-0.064 0.347,-0.067 0.365,-0.073C0.383,-0.08 0.399,-0.089 0.412,-0.102C0.425,-0.114 0.435,-0.13 0.442,-0.149L0.523,-0.126C0.514,-0.099 0.5,-0.075 0.48,-0.054C0.46,-0.033 0.435,-0.017 0.405,-0.006C0.376,0.006 0.342,0.011 0.305,0.011Z"/>
        </g>
        <g transform="matrix(19.4261,0,0,19.4261,194.88,101.754)">
            <path d="M0.486,-0.545C0.482,-0.581 0.464,-0.609 0.434,-0.629C0.404,-0.649 0.366,-0.659 0.322,-0.659C0.29,-0.659 0.262,-0.654 0.238,-0.643C0.214,-0.633 0.195,-0.619 0.182,-0.6C0.169,-0.582 0.162,-0.562 0.162,-0.538C0.162,-0.519 0.167,-0.502 0.176,-0.488C0.185,-0.475 0.197,-0.463 0.212,-0.454C0.227,-0.445 0.242,-0.437 0.258,-0.432C0.274,-0.426 0.289,-0.421 0.303,-0.418L0.376,-0.398C0.395,-0.393 0.416,-0.386 0.44,-0.377C0.463,-0.368 0.485,-0.356 0.507,-0.341C0.528,-0.326 0.546,-0.307 0.56,-0.284C0.574,-0.26 0.581,-0.232 0.581,-0.197C0.581,-0.158 0.571,-0.123 0.55,-0.091C0.53,-0.059 0.5,-0.034 0.461,-0.015C0.422,0.003 0.374,0.013 0.318,0.013C0.266,0.013 0.221,0.004 0.183,-0.012C0.145,-0.029 0.115,-0.053 0.094,-0.083C0.072,-0.113 0.06,-0.148 0.057,-0.188L0.148,-0.188C0.15,-0.16 0.159,-0.137 0.176,-0.119C0.192,-0.102 0.212,-0.088 0.237,-0.08C0.262,-0.071 0.289,-0.067 0.318,-0.067C0.352,-0.067 0.382,-0.072 0.409,-0.083C0.435,-0.094 0.457,-0.11 0.472,-0.129C0.488,-0.149 0.496,-0.172 0.496,-0.199C0.496,-0.223 0.489,-0.243 0.475,-0.258C0.462,-0.273 0.444,-0.285 0.422,-0.295C0.4,-0.304 0.376,-0.313 0.351,-0.32L0.261,-0.345C0.205,-0.362 0.16,-0.385 0.126,-0.415C0.093,-0.445 0.077,-0.485 0.077,-0.534C0.077,-0.575 0.088,-0.61 0.11,-0.641C0.132,-0.671 0.162,-0.695 0.199,-0.712C0.237,-0.729 0.279,-0.737 0.325,-0.737C0.372,-0.737 0.414,-0.729 0.45,-0.712C0.487,-0.695 0.516,-0.673 0.537,-0.644C0.559,-0.615 0.57,-0.582 0.571,-0.545L0.486,-0.545Z"/>
        </g>
        <g transform="matrix(19.4261,0,0,19.4261,207.269,101.754)">
            <path d="M0.237,0.013C0.203,0.013 0.171,0.006 0.143,-0.007C0.115,-0.02 0.093,-0.039 0.076,-0.064C0.059,-0.089 0.051,-0.119 0.051,-0.155C0.051,-0.186 0.057,-0.211 0.07,-0.231C0.082,-0.251 0.098,-0.266 0.119,-0.277C0.14,-0.288 0.162,-0.296 0.187,-0.302C0.212,-0.308 0.237,-0.312 0.263,-0.315C0.296,-0.32 0.323,-0.323 0.344,-0.325C0.364,-0.327 0.379,-0.331 0.389,-0.337C0.399,-0.342 0.403,-0.352 0.403,-0.365L0.403,-0.368C0.403,-0.403 0.394,-0.43 0.375,-0.45C0.356,-0.469 0.327,-0.479 0.288,-0.479C0.248,-0.479 0.217,-0.47 0.194,-0.452C0.172,-0.435 0.156,-0.416 0.146,-0.396L0.067,-0.425C0.081,-0.458 0.1,-0.484 0.124,-0.502C0.148,-0.521 0.174,-0.534 0.202,-0.541C0.23,-0.549 0.258,-0.553 0.286,-0.553C0.303,-0.553 0.323,-0.55 0.346,-0.546C0.369,-0.542 0.391,-0.534 0.412,-0.521C0.434,-0.508 0.452,-0.489 0.466,-0.463C0.48,-0.437 0.487,-0.403 0.487,-0.359L0.487,-0L0.403,-0L0.403,-0.074L0.399,-0.074C0.393,-0.062 0.384,-0.049 0.371,-0.036C0.357,-0.022 0.34,-0.011 0.318,-0.001C0.296,0.008 0.269,0.013 0.237,0.013ZM0.25,-0.063C0.283,-0.063 0.311,-0.069 0.334,-0.082C0.357,-0.095 0.374,-0.112 0.386,-0.132C0.398,-0.153 0.403,-0.175 0.403,-0.197L0.403,-0.274C0.4,-0.27 0.392,-0.266 0.38,-0.263C0.368,-0.259 0.354,-0.256 0.339,-0.254C0.323,-0.251 0.308,-0.249 0.294,-0.247C0.279,-0.246 0.268,-0.244 0.259,-0.243C0.237,-0.24 0.216,-0.235 0.198,-0.229C0.179,-0.223 0.164,-0.214 0.152,-0.201C0.141,-0.189 0.135,-0.172 0.135,-0.151C0.135,-0.121 0.146,-0.099 0.167,-0.085C0.189,-0.07 0.217,-0.063 0.25,-0.063Z"/>
        </g>
        <g transform="matrix(19.4261,0,0,19.4261,218.224,101.754)">
            <path d="M0.161,-0.328L0.161,-0L0.077,-0L0.077,-0.545L0.158,-0.545L0.158,-0.46L0.165,-0.46C0.178,-0.488 0.197,-0.51 0.223,-0.527C0.249,-0.544 0.283,-0.553 0.324,-0.553C0.361,-0.553 0.393,-0.545 0.421,-0.53C0.449,-0.515 0.47,-0.492 0.485,-0.462C0.501,-0.431 0.509,-0.393 0.509,-0.347L0.509,-0L0.425,-0L0.425,-0.341C0.425,-0.384 0.414,-0.417 0.391,-0.441C0.369,-0.465 0.339,-0.477 0.3,-0.477C0.273,-0.477 0.249,-0.471 0.228,-0.46C0.207,-0.448 0.191,-0.431 0.179,-0.409C0.167,-0.387 0.161,-0.36 0.161,-0.328Z"/>
        </g>
        <g transform="matrix(19.4261,0,0,19.4261,229.593,101.754)">
            <path d="M0.463,-0.423L0.388,-0.402C0.383,-0.415 0.376,-0.427 0.367,-0.439C0.358,-0.451 0.346,-0.461 0.33,-0.468C0.314,-0.476 0.294,-0.48 0.27,-0.48C0.237,-0.48 0.209,-0.472 0.187,-0.457C0.164,-0.442 0.153,-0.423 0.153,-0.399C0.153,-0.378 0.161,-0.362 0.176,-0.35C0.191,-0.338 0.215,-0.328 0.247,-0.32L0.328,-0.3C0.377,-0.288 0.413,-0.27 0.437,-0.246C0.461,-0.221 0.473,-0.19 0.473,-0.152C0.473,-0.121 0.464,-0.093 0.446,-0.068C0.428,-0.044 0.403,-0.024 0.371,-0.01C0.339,0.004 0.302,0.011 0.26,0.011C0.204,0.011 0.158,-0.001 0.122,-0.025C0.085,-0.049 0.062,-0.084 0.053,-0.131L0.132,-0.151C0.14,-0.121 0.154,-0.099 0.175,-0.085C0.196,-0.07 0.224,-0.063 0.259,-0.063C0.298,-0.063 0.329,-0.071 0.352,-0.088C0.375,-0.104 0.386,-0.124 0.386,-0.148C0.386,-0.167 0.38,-0.183 0.366,-0.195C0.353,-0.208 0.333,-0.218 0.305,-0.224L0.214,-0.246C0.165,-0.258 0.128,-0.276 0.105,-0.301C0.081,-0.326 0.07,-0.357 0.07,-0.395C0.07,-0.426 0.078,-0.453 0.096,-0.477C0.113,-0.5 0.137,-0.519 0.167,-0.532C0.197,-0.546 0.232,-0.553 0.27,-0.553C0.324,-0.553 0.366,-0.541 0.397,-0.517C0.428,-0.493 0.45,-0.462 0.463,-0.423Z"/>
        </g>
        <g transform="matrix(19.4261,0,0,19.4261,245.668,101.754)">
            <path d="M0.486,-0.545C0.482,-0.581 0.464,-0.609 0.434,-0.629C0.404,-0.649 0.366,-0.659 0.322,-0.659C0.29,-0.659 0.262,-0.654 0.238,-0.643C0.214,-0.633 0.195,-0.619 0.182,-0.6C0.169,-0.582 0.162,-0.562 0.162,-0.538C0.162,-0.519 0.167,-0.502 0.176,-0.488C0.185,-0.475 0.197,-0.463 0.212,-0.454C0.227,-0.445 0.242,-0.437 0.258,-0.432C0.274,-0.426 0.289,-0.421 0.303,-0.418L0.376,-0.398C0.395,-0.393 0.416,-0.386 0.44,-0.377C0.463,-0.368 0.485,-0.356 0.507,-0.341C0.528,-0.326 0.546,-0.307 0.56,-0.284C0.574,-0.26 0.581,-0.232 0.581,-0.197C0.581,-0.158 0.571,-0.123 0.55,-0.091C0.53,-0.059 0.5,-0.034 0.461,-0.015C0.422,0.003 0.374,0.013 0.318,0.013C0.266,0.013 0.221,0.004 0.183,-0.012C0.145,-0.029 0.115,-0.053 0.094,-0.083C0.072,-0.113 0.06,-0.148 0.057,-0.188L0.148,-0.188C0.15,-0.16 0.159,-0.137 0.176,-0.119C0.192,-0.102 0.212,-0.088 0.237,-0.08C0.262,-0.071 0.289,-0.067 0.318,-0.067C0.352,-0.067 0.382,-0.072 0.409,-0.083C0.435,-0.094 0.457,-0.11 0.472,-0.129C0.488,-0.149 0.496,-0.172 0.496,-0.199C0.496,-0.223 0.489,-0.243 0.475,-0.258C0.462,-0.273 0.444,-0.285 0.422,-0.295C0.4,-0.304 0.376,-0.313 0.351,-0.32L0.261,-0.345C0.205,-0.362 0.16,-0.385 0.126,-0.415C0.093,-0.445 0.077,-0.485 0.077,-0.534C0.077,-0.575 0.088,-0.61 0.11,-0.641C0.132,-0.671 0.162,-0.695 0.199,-0.712C0.237,-0.729 0.279,-0.737 0.325,-0.737C0.372,-0.737 0.414,-0.729 0.45,-0.712C0.487,-0.695 0.516,-0.673 0.537,-0.644C0.559,-0.615 0.57,-0.582 0.571,-0.545L0.486,-0.545Z"/>
        </g>
        <g transform="matrix(19.4261,0,0,19.4261,258.077,101.754)">
            <path d="M0.305,0.011C0.253,0.011 0.208,-0 0.17,-0.024C0.132,-0.047 0.102,-0.08 0.082,-0.122C0.061,-0.164 0.051,-0.213 0.051,-0.268C0.051,-0.324 0.061,-0.374 0.082,-0.416C0.102,-0.459 0.131,-0.492 0.168,-0.517C0.205,-0.541 0.248,-0.553 0.297,-0.553C0.325,-0.553 0.353,-0.548 0.381,-0.538C0.409,-0.529 0.434,-0.514 0.457,-0.492C0.479,-0.471 0.498,-0.443 0.511,-0.408C0.525,-0.374 0.531,-0.331 0.531,-0.28L0.531,-0.244L0.111,-0.244L0.111,-0.317L0.446,-0.317C0.446,-0.348 0.44,-0.375 0.428,-0.399C0.416,-0.423 0.398,-0.442 0.376,-0.456C0.354,-0.47 0.327,-0.477 0.297,-0.477C0.263,-0.477 0.235,-0.469 0.21,-0.453C0.186,-0.436 0.167,-0.415 0.154,-0.388C0.141,-0.362 0.135,-0.334 0.135,-0.304L0.135,-0.256C0.135,-0.214 0.142,-0.18 0.156,-0.151C0.171,-0.123 0.191,-0.101 0.216,-0.086C0.242,-0.071 0.272,-0.064 0.305,-0.064C0.327,-0.064 0.347,-0.067 0.365,-0.073C0.383,-0.08 0.399,-0.089 0.412,-0.102C0.425,-0.114 0.435,-0.13 0.442,-0.149L0.523,-0.126C0.514,-0.099 0.5,-0.075 0.48,-0.054C0.46,-0.033 0.435,-0.017 0.405,-0.006C0.376,0.006 0.342,0.011 0.305,0.011Z"/>
        </g>
        <g transform="matrix(19.4261,0,0,19.4261,269.391,101.754)">
            <path d="M0.077,-0L0.077,-0.545L0.158,-0.545L0.158,-0.463L0.163,-0.463C0.173,-0.49 0.191,-0.512 0.217,-0.529C0.243,-0.546 0.273,-0.554 0.305,-0.554C0.312,-0.554 0.319,-0.554 0.328,-0.554C0.338,-0.553 0.345,-0.553 0.349,-0.553L0.349,-0.467C0.347,-0.468 0.34,-0.469 0.33,-0.471C0.32,-0.472 0.309,-0.473 0.298,-0.473C0.272,-0.473 0.248,-0.468 0.227,-0.456C0.207,-0.445 0.19,-0.43 0.178,-0.411C0.166,-0.392 0.161,-0.37 0.161,-0.345L0.161,-0L0.077,-0Z"/>
        </g>
        <g transform="matrix(19.4261,0,0,19.4261,276.62,101.754)">
            <path d="M0.077,-0L0.077,-0.545L0.161,-0.545L0.161,-0L0.077,-0ZM0.119,-0.636C0.103,-0.636 0.089,-0.642 0.077,-0.653C0.066,-0.664 0.06,-0.678 0.06,-0.693C0.06,-0.709 0.066,-0.722 0.077,-0.733C0.089,-0.744 0.103,-0.75 0.119,-0.75C0.136,-0.75 0.15,-0.744 0.161,-0.733C0.173,-0.722 0.179,-0.709 0.179,-0.693C0.179,-0.678 0.173,-0.664 0.161,-0.653C0.15,-0.642 0.136,-0.636 0.119,-0.636Z"/>
        </g>
        <g transform="matrix(19.4261,0,0,19.4261,281.229,101.754)">
            <path d="M0.32,-0.545L0.32,-0.474L0.026,-0.474L0.026,-0.545L0.32,-0.545ZM0.114,-0L0.114,-0.621C0.114,-0.652 0.121,-0.678 0.136,-0.699C0.15,-0.72 0.169,-0.735 0.193,-0.746C0.216,-0.756 0.241,-0.761 0.267,-0.761C0.288,-0.761 0.304,-0.76 0.317,-0.756C0.33,-0.753 0.34,-0.75 0.347,-0.747L0.322,-0.675C0.318,-0.676 0.312,-0.678 0.305,-0.68C0.297,-0.682 0.288,-0.683 0.276,-0.683C0.248,-0.683 0.228,-0.676 0.216,-0.662C0.204,-0.648 0.197,-0.628 0.197,-0.601L0.197,-0L0.114,-0Z"/>
        </g>
        <g transform="matrix(19.4261,0,0,19.4261,293.701,101.754)">
            <path d="M0.32,-0.545L0.32,-0.474L0.026,-0.474L0.026,-0.545L0.32,-0.545ZM0.114,-0L0.114,-0.621C0.114,-0.652 0.121,-0.678 0.136,-0.699C0.15,-0.72 0.169,-0.735 0.193,-0.746C0.216,-0.756 0.241,-0.761 0.267,-0.761C0.288,-0.761 0.304,-0.76 0.317,-0.756C0.33,-0.753 0.34,-0.75 0.347,-0.747L0.322,-0.675C0.318,-0.676 0.312,-0.678 0.305,-0.68C0.297,-0.682 0.288,-0.683 0.276,-0.683C0.248,-0.683 0.228,-0.676 0.216,-0.662C0.204,-0.648 0.197,-0.628 0.197,-0.601L0.197,-0L0.114,-0Z"/>
        </g>
        <g transform="matrix(19.4261,0,0,19.4261,300.268,101.754)">
            <path d="M0.298,0.011C0.249,0.011 0.206,-0 0.169,-0.024C0.132,-0.047 0.103,-0.08 0.082,-0.122C0.061,-0.164 0.051,-0.214 0.051,-0.27C0.051,-0.327 0.061,-0.376 0.082,-0.419C0.103,-0.461 0.132,-0.494 0.169,-0.517C0.206,-0.541 0.249,-0.553 0.298,-0.553C0.348,-0.553 0.391,-0.541 0.428,-0.517C0.465,-0.494 0.494,-0.461 0.514,-0.419C0.535,-0.376 0.545,-0.327 0.545,-0.27C0.545,-0.214 0.535,-0.164 0.514,-0.122C0.494,-0.08 0.465,-0.047 0.428,-0.024C0.391,-0 0.348,0.011 0.298,0.011ZM0.298,-0.064C0.336,-0.064 0.366,-0.074 0.391,-0.093C0.415,-0.112 0.433,-0.137 0.444,-0.168C0.456,-0.2 0.462,-0.233 0.462,-0.27C0.462,-0.306 0.456,-0.34 0.444,-0.372C0.433,-0.403 0.415,-0.429 0.391,-0.448C0.366,-0.468 0.336,-0.477 0.298,-0.477C0.261,-0.477 0.23,-0.468 0.206,-0.448C0.182,-0.429 0.164,-0.403 0.152,-0.372C0.141,-0.34 0.135,-0.306 0.135,-0.27C0.135,-0.233 0.141,-0.2 0.152,-0.168C0.164,-0.137 0.182,-0.112 0.206,-0.093C0.23,-0.074 0.261,-0.064 0.298,-0.064Z"/>
        </g>
        <g transform="matrix(19.4261,0,0,19.4261,311.858,101.754)">
            <path d="M0.161,-0.328L0.161,-0L0.077,-0L0.077,-0.545L0.158,-0.545L0.158,-0.46L0.165,-0.46C0.178,-0.488 0.197,-0.51 0.223,-0.527C0.249,-0.544 0.283,-0.553 0.324,-0.553C0.361,-0.553 0.393,-0.545 0.421,-0.53C0.449,-0.515 0.47,-0.492 0.485,-0.462C0.501,-0.431 0.509,-0.393 0.509,-0.347L0.509,-0L0.425,-0L0.425,-0.341C0.425,-0.384 0.414,-0.417 0.391,-0.441C0.369,-0.465 0.339,-0.477 0.3,-0.477C0.273,-0.477 0.249,-0.471 0.228,-0.46C0.207,-0.448 0.191,-0.431 0.179,-0.409C0.167,-0.387 0.161,-0.36 0.161,-0.328Z"/>
        </g>
        <g transform="matrix(19.4261,0,0,19.4261,323.227,101.754)">
            <path d="M0.314,-0.545L0.314,-0.474L0.031,-0.474L0.031,-0.545L0.314,-0.545ZM0.114,-0.676L0.197,-0.676L0.197,-0.156C0.197,-0.133 0.201,-0.115 0.208,-0.103C0.215,-0.091 0.224,-0.084 0.235,-0.08C0.246,-0.076 0.258,-0.074 0.27,-0.074C0.279,-0.074 0.287,-0.074 0.293,-0.075C0.299,-0.077 0.303,-0.077 0.307,-0.078L0.324,-0.003C0.318,-0.001 0.31,0.001 0.3,0.004C0.29,0.006 0.277,0.007 0.261,0.007C0.238,0.007 0.215,0.002 0.192,-0.008C0.169,-0.018 0.151,-0.034 0.136,-0.055C0.121,-0.076 0.114,-0.102 0.114,-0.134L0.114,-0.676Z"/>
        </g>
        <g transform="matrix(19.4261,0,0,19.4261,335.754,101.754)">
            <path d="M0.463,-0.423L0.388,-0.402C0.383,-0.415 0.376,-0.427 0.367,-0.439C0.358,-0.451 0.346,-0.461 0.33,-0.468C0.314,-0.476 0.294,-0.48 0.27,-0.48C0.237,-0.48 0.209,-0.472 0.187,-0.457C0.164,-0.442 0.153,-0.423 0.153,-0.399C0.153,-0.378 0.161,-0.362 0.176,-0.35C0.191,-0.338 0.215,-0.328 0.247,-0.32L0.328,-0.3C0.377,-0.288 0.413,-0.27 0.437,-0.246C0.461,-0.221 0.473,-0.19 0.473,-0.152C0.473,-0.121 0.464,-0.093 0.446,-0.068C0.428,-0.044 0.403,-0.024 0.371,-0.01C0.339,0.004 0.302,0.011 0.26,0.011C0.204,0.011 0.158,-0.001 0.122,-0.025C0.085,-0.049 0.062,-0.084 0.053,-0.131L0.132,-0.151C0.14,-0.121 0.154,-0.099 0.175,-0.085C0.196,-0.07 0.224,-0.063 0.259,-0.063C0.298,-0.063 0.329,-0.071 0.352,-0.088C0.375,-0.104 0.386,-0.124 0.386,-0.148C0.386,-0.167 0.38,-0.183 0.366,-0.195C0.353,-0.208 0.333,-0.218 0.305,-0.224L0.214,-0.246C0.165,-0.258 0.128,-0.276 0.105,-0.301C0.081,-0.326 0.07,-0.357 0.07,-0.395C0.07,-0.426 0.078,-0.453 0.096,-0.477C0.113,-0.5 0.137,-0.519 0.167,-0.532C0.197,-0.546 0.232,-0.553 0.27,-0.553C0.324,-0.553 0.366,-0.541 0.397,-0.517C0.428,-0.493 0.45,-0.462 0.463,-0.423Z"/>
        </g>
        <g transform="matrix(19.4261,0,0,19.4261,345.909,101.754)">
            <path d="M0.298,0.011C0.247,0.011 0.203,-0.001 0.166,-0.025C0.129,-0.049 0.101,-0.082 0.081,-0.125C0.061,-0.167 0.051,-0.215 0.051,-0.27C0.051,-0.325 0.061,-0.374 0.082,-0.417C0.102,-0.459 0.131,-0.492 0.168,-0.517C0.205,-0.541 0.248,-0.553 0.297,-0.553C0.335,-0.553 0.37,-0.545 0.401,-0.531C0.431,-0.517 0.457,-0.497 0.476,-0.472C0.496,-0.446 0.508,-0.416 0.513,-0.382L0.429,-0.382C0.423,-0.407 0.408,-0.429 0.387,-0.448C0.365,-0.468 0.335,-0.477 0.298,-0.477C0.266,-0.477 0.237,-0.469 0.213,-0.452C0.188,-0.435 0.169,-0.411 0.155,-0.381C0.142,-0.35 0.135,-0.314 0.135,-0.273C0.135,-0.231 0.142,-0.194 0.155,-0.163C0.168,-0.131 0.187,-0.107 0.212,-0.09C0.236,-0.073 0.265,-0.064 0.298,-0.064C0.32,-0.064 0.34,-0.068 0.358,-0.075C0.375,-0.083 0.39,-0.094 0.403,-0.108C0.415,-0.122 0.424,-0.139 0.429,-0.159L0.513,-0.159C0.508,-0.127 0.496,-0.098 0.478,-0.072C0.459,-0.047 0.435,-0.026 0.404,-0.011C0.374,0.004 0.339,0.011 0.298,0.011Z"/>
        </g>
        <g transform="matrix(19.4261,0,0,19.4261,356.753,101.754)">
            <path d="M0.161,-0.328L0.161,-0L0.077,-0L0.077,-0.727L0.161,-0.727L0.161,-0.46L0.168,-0.46C0.18,-0.488 0.2,-0.511 0.225,-0.528C0.251,-0.544 0.285,-0.553 0.328,-0.553C0.365,-0.553 0.398,-0.545 0.426,-0.53C0.454,-0.516 0.475,-0.493 0.491,-0.463C0.506,-0.432 0.514,-0.393 0.514,-0.347L0.514,-0L0.43,-0L0.43,-0.341C0.43,-0.384 0.419,-0.418 0.397,-0.442C0.374,-0.465 0.344,-0.477 0.304,-0.477C0.277,-0.477 0.252,-0.471 0.23,-0.46C0.209,-0.448 0.192,-0.431 0.179,-0.409C0.167,-0.387 0.161,-0.36 0.161,-0.328Z"/>
        </g>
        <g transform="matrix(19.4261,0,0,19.4261,368.232,101.754)">
            <path d="M0.305,0.011C0.253,0.011 0.208,-0 0.17,-0.024C0.132,-0.047 0.102,-0.08 0.082,-0.122C0.061,-0.164 0.051,-0.213 0.051,-0.268C0.051,-0.324 0.061,-0.374 0.082,-0.416C0.102,-0.459 0.131,-0.492 0.168,-0.517C0.205,-0.541 0.248,-0.553 0.297,-0.553C0.325,-0.553 0.353,-0.548 0.381,-0.538C0.409,-0.529 0.434,-0.514 0.457,-0.492C0.479,-0.471 0.498,-0.443 0.511,-0.408C0.525,-0.374 0.531,-0.331 0.531,-0.28L0.531,-0.244L0.111,-0.244L0.111,-0.317L0.446,-0.317C0.446,-0.348 0.44,-0.375 0.428,-0.399C0.416,-0.423 0.398,-0.442 0.376,-0.456C0.354,-0.47 0.327,-0.477 0.297,-0.477C0.263,-0.477 0.235,-0.469 0.21,-0.453C0.186,-0.436 0.167,-0.415 0.154,-0.388C0.141,-0.362 0.135,-0.334 0.135,-0.304L0.135,-0.256C0.135,-0.214 0.142,-0.18 0.156,-0.151C0.171,-0.123 0.191,-0.101 0.216,-0.086C0.242,-0.071 0.272,-0.064 0.305,-0.064C0.327,-0.064 0.347,-0.067 0.365,-0.073C0.383,-0.08 0.399,-0.089 0.412,-0.102C0.425,-0.114 0.435,-0.13 0.442,-0.149L0.523,-0.126C0.514,-0.099 0.5,-0.075 0.48,-0.054C0.46,-0.033 0.435,-0.017 0.405,-0.006C0.376,0.006 0.342,0.011 0.305,0.011Z"/>
        </g>
        <g transform="matrix(19.4261,0,0,19.4261,379.546,101.754)">
            <path d="M0.077,-0L0.077,-0.545L0.158,-0.545L0.158,-0.46L0.165,-0.46C0.176,-0.489 0.194,-0.512 0.22,-0.528C0.245,-0.544 0.276,-0.553 0.311,-0.553C0.347,-0.553 0.377,-0.544 0.401,-0.528C0.425,-0.512 0.444,-0.489 0.457,-0.46L0.463,-0.46C0.477,-0.488 0.498,-0.511 0.526,-0.528C0.554,-0.544 0.587,-0.553 0.626,-0.553C0.675,-0.553 0.715,-0.537 0.746,-0.507C0.777,-0.477 0.793,-0.429 0.793,-0.365L0.793,-0L0.709,-0L0.709,-0.365C0.709,-0.405 0.698,-0.434 0.676,-0.451C0.654,-0.469 0.628,-0.477 0.598,-0.477C0.56,-0.477 0.53,-0.466 0.509,-0.443C0.488,-0.42 0.477,-0.39 0.477,-0.355L0.477,-0L0.392,-0L0.392,-0.374C0.392,-0.405 0.382,-0.43 0.362,-0.449C0.342,-0.468 0.316,-0.477 0.284,-0.477C0.262,-0.477 0.242,-0.471 0.223,-0.46C0.204,-0.448 0.189,-0.432 0.178,-0.412C0.166,-0.391 0.161,-0.368 0.161,-0.341L0.161,-0L0.077,-0Z"/>
        </g>
        <g transform="matrix(19.4261,0,0,19.4261,396.433,101.754)">
            <path d="M0.305,0.011C0.253,0.011 0.208,-0 0.17,-0.024C0.132,-0.047 0.102,-0.08 0.082,-0.122C0.061,-0.164 0.051,-0.213 0.051,-0.268C0.051,-0.324 0.061,-0.374 0.082,-0.416C0.102,-0.459 0.131,-0.492 0.168,-0.517C0.205,-0.541 0.248,-0.553 0.297,-0.553C0.325,-0.553 0.353,-0.548 0.381,-0.538C0.409,-0.529 0.434,-0.514 0.457,-0.492C0.479,-0.471 0.498,-0.443 0.511,-0.408C0.525,-0.374 0.531,-0.331 0.531,-0.28L0.531,-0.244L0.111,-0.244L0.111,-0.317L0.446,-0.317C0.446,-0.348 0.44,-0.375 0.428,-0.399C0.416,-0.423 0.398,-0.442 0.376,-0.456C0.354,-0.47 0.327,-0.477 0.297,-0.477C0.263,-0.477 0.235,-0.469 0.21,-0.453C0.186,-0.436 0.167,-0.415 0.154,-0.388C0.141,-0.362 0.135,-0.334 0.135,-0.304L0.135,-0.256C0.135,-0.214 0.142,-0.18 0.156,-0.151C0.171,-0.123 0.191,-0.101 0.216,-0.086C0.242,-0.071 0.272,-0.064 0.305,-0.064C0.327,-0.064 0.347,-0.067 0.365,-0.073C0.383,-0.08 0.399,-0.089 0.412,-0.102C0.425,-0.114 0.435,-0.13 0.442,-0.149L0.523,-0.126C0.514,-0.099 0.5,-0.075 0.48,-0.054C0.46,-0.033 0.435,-0.017 0.405,-0.006C0.376,0.006 0.342,0.011 0.305,0.011Z"/>
        </g>
        <g transform="matrix(19.4261,0,0,19.4261,407.747,101.754)">
            <path d="M0.138,0.006C0.12,0.006 0.105,-0.001 0.093,-0.013C0.08,-0.026 0.074,-0.041 0.074,-0.058C0.074,-0.076 0.08,-0.091 0.093,-0.103C0.105,-0.116 0.12,-0.122 0.138,-0.122C0.155,-0.122 0.17,-0.116 0.183,-0.103C0.195,-0.091 0.202,-0.076 0.202,-0.058C0.202,-0.047 0.199,-0.036 0.193,-0.026C0.187,-0.017 0.18,-0.009 0.17,-0.003C0.16,0.003 0.15,0.006 0.138,0.006Z"/>
        </g>
    </g>
</svg>
