<?xml version="1.0" encoding="UTF-8" standalone="no"?>
<!-- Created with Inkscape (http://www.inkscape.org/) -->

<svg
   xmlns:dc="http://purl.org/dc/elements/1.1/"
   xmlns:cc="http://creativecommons.org/ns#"
   xmlns:rdf="http://www.w3.org/1999/02/22-rdf-syntax-ns#"
   xmlns:svg="http://www.w3.org/2000/svg"
   xmlns="http://www.w3.org/2000/svg"
   xmlns:sodipodi="http://sodipodi.sourceforge.net/DTD/sodipodi-0.dtd"
   xmlns:inkscape="http://www.inkscape.org/namespaces/inkscape"
   width="500"
   height="89.999992"
   viewBox="0 0 499.99999 89.999995"
   version="1.1"
   id="svg2307"
   inkscape:version="0.92.3 (2405546, 2018-03-11)"
   sodipodi:docname="font-preview-sans-serif.svg">
  <defs
     id="defs2301" />
  <sodipodi:namedview
     id="base"
     pagecolor="#ffffff"
     bordercolor="#666666"
     borderopacity="1.0"
     inkscape:pageopacity="0.0"
     inkscape:pageshadow="2"
     inkscape:zoom="0.98994949"
     inkscape:cx="152.662"
     inkscape:cy="-30.924558"
     inkscape:document-units="px"
     inkscape:current-layer="layer1"
     showgrid="false"
     fit-margin-top="0"
     fit-margin-left="0"
     fit-margin-right="0"
     fit-margin-bottom="0"
     showborder="false"
     inkscape:window-width="1366"
     inkscape:window-height="705"
     inkscape:window-x="-8"
     inkscape:window-y="-8"
     inkscape:window-maximized="1" />
  <metadata
     id="metadata2304">
    <rdf:RDF>
      <cc:Work
         rdf:about="">
        <dc:format>image/svg+xml</dc:format>
        <dc:type
           rdf:resource="http://purl.org/dc/dcmitype/StillImage" />
        <dc:title></dc:title>
      </cc:Work>
    </rdf:RDF>
  </metadata>
  <g
     inkscape:label="Layer 1"
     inkscape:groupmode="layer"
     id="layer1"
     transform="translate(527.14289,-320.3768)">
    <rect
       style="opacity:1;fill:none;fill-opacity:1;stroke:#000000;stroke-width:0.13929218;stroke-miterlimit:4;stroke-dasharray:none;stroke-opacity:1"
       id="rect927"
       width="499.86072"
       height="89.860703"
       x="-527.07324"
       y="320.44644" />
    <path
       inkscape:connector-curvature="0"
       style="font-style:normal;font-variant:normal;font-weight:bold;font-stretch:normal;font-size:42.66666794px;line-height:100%;font-family:Inter;-inkscape-font-specification:'Inter Bold';letter-spacing:-1.42999995px;word-spacing:0px;fill:#000000;fill-opacity:1;stroke:none;stroke-width:0.9779619px;stroke-linecap:butt;stroke-linejoin:miter;stroke-opacity:1"
       d="m -256.25022,330.37548 c -0.93845,0 -1.74428,0.31505 -2.41602,0.94726 -0.66185,0.62235 -0.99218,1.36899 -0.99218,2.23828 0,0.87919 0.33033,1.63537 0.99218,2.26758 0.67174,0.62234 1.47757,0.93164 2.41602,0.93164 0.93845,0 1.73854,-0.3093 2.40039,-0.93164 0.67173,-0.63221 1.00781,-1.38839 1.00781,-2.26758 0,-0.86929 -0.33608,-1.61593 -1.00781,-2.23828 -0.66185,-0.63221 -1.46194,-0.94726 -2.40039,-0.94726 z m -245.04295,1.31836 c -2.2128,-1e-5 -4.1892,0.38573 -5.9278,1.15624 -1.7386,0.77052 -3.1078,1.84176 -4.1054,3.21485 -0.988,1.3731 -1.4768,2.97903 -1.4668,4.81641 -0.01,2.2424 0.7272,4.02394 2.209,5.34765 1.4817,1.32371 3.502,2.29758 6.0605,2.91992 l 3.3047,0.83008 c 1.1063,0.26671 2.0382,0.56268 2.7988,0.88867 0.7706,0.32599 1.3549,0.72127 1.75,1.18555 0.405,0.46429 0.6074,1.03714 0.6074,1.71875 0,0.731 -0.2234,1.37833 -0.6679,1.94141 -0.4445,0.56306 -1.0708,1.00225 -1.8809,1.31836 -0.8001,0.3161 -1.7434,0.4746 -2.8301,0.47461 -1.1064,0 -2.0993,-0.16805 -2.9785,-0.50391 -0.8692,-0.34575 -1.5663,-0.85561 -2.0898,-1.52735 -0.5137,-0.6816 -0.8058,-1.53134 -0.875,-2.54882 h -6.207 c 0.049,2.18313 0.5763,4.01628 1.5839,5.49804 1.0175,1.47188 2.4306,2.58323 4.2383,3.33399 1.8177,0.75075 3.9526,1.12695 6.4024,1.12695 2.4696,0 4.5777,-0.37045 6.3261,-1.11133 1.7584,-0.75076 3.1026,-1.80291 4.0313,-3.15625 0.9383,-1.36322 1.4119,-2.97488 1.4219,-4.83203 -0.01,-1.26442 -0.2429,-2.38531 -0.6973,-3.36328 -0.4445,-0.97796 -1.0708,-1.82771 -1.8809,-2.54883 -0.81,-0.72112 -1.7686,-1.32834 -2.875,-1.82226 -1.1063,-0.49392 -2.3208,-0.8892 -3.6445,-1.18555 l -2.7266,-0.65039 c -0.6619,-0.14817 -1.2843,-0.32771 -1.8671,-0.53516 -0.5828,-0.21732 -1.0965,-0.46742 -1.5411,-0.7539 -0.4445,-0.29635 -0.7959,-0.64772 -1.0527,-1.05274 -0.2465,-0.40501 -0.3592,-0.87856 -0.3398,-1.42187 0,-0.65198 0.1871,-1.23633 0.5625,-1.75 0.3852,-0.51368 0.939,-0.91275 1.6601,-1.19922 0.7211,-0.29635 1.6052,-0.44531 2.6524,-0.44531 1.541,0 2.7612,0.33228 3.6601,0.99414 0.8989,0.66185 1.4069,1.58987 1.5254,2.78515 h 6.1504 c -0.03,-1.80774 -0.5147,-3.39838 -1.4531,-4.77148 -0.9385,-1.37309 -2.2522,-2.44432 -3.9414,-3.21485 -1.6793,-0.77051 -3.6442,-1.15624 -5.8965,-1.15624 z m 98.9355,0.41406 v 30.34765 h 6.3125 V 332.1079 Z m 41.8887,0 v 30.34765 h 6.416 v -12.53711 h 13.0235 v 12.53711 h 6.4023 V 332.1079 h -6.4023 v 12.52148 h -13.0235 V 332.1079 Z m 91,0 v 11.41015 h -0.19336 c -0.27659,-0.61246 -0.68141,-1.23496 -1.21484,-1.86718 -0.52356,-0.6421 -1.2148,-1.17485 -2.07422,-1.59961 -0.84955,-0.43466 -1.91124,-0.65235 -3.18555,-0.65235 -1.66945,0 -3.20664,0.43539 -4.60937,1.30469 -1.39285,0.85943 -2.50799,2.15789 -3.34766,3.89648 -0.83967,1.72873 -1.25977,3.89602 -1.25977,6.50391 0,2.53875 0.40482,4.68316 1.21485,6.43164 0.8199,1.7386 1.9255,3.0581 3.31836,3.95703 1.40274,0.88906 2.96855,1.33203 4.69726,1.33203 1.22493,0 2.26179,-0.2024 3.11133,-0.60742 0.85942,-0.40501 1.55641,-0.91293 2.08985,-1.52539 0.54332,-0.62234 0.96341,-1.2506 1.25976,-1.88281 h 0.26758 v 3.64648 h 6.22266 V 332.1079 Z m -207.7148,7.29101 c -1.8176,0 -3.4178,0.27689 -4.8008,0.83008 -1.3731,0.54331 -2.494,1.32237 -3.3633,2.33985 -0.8694,1.00759 -1.4518,2.20296 -1.7481,3.58593 l 5.8379,0.47461 c 0.2174,-0.75076 0.6603,-1.37327 1.3321,-1.86719 0.6716,-0.5038 1.5769,-0.75586 2.7129,-0.75585 1.0768,-1e-5 1.9054,0.25781 2.4882,0.77148 0.5928,0.51368 0.8907,1.23929 0.8907,2.17773 v 0.0898 c 0,0.48404 -0.1834,0.84874 -0.5489,1.0957 -0.3655,0.24696 -0.9536,0.43408 -1.7636,0.5625 -0.81,0.11854 -1.8775,0.24843 -3.2012,0.38672 -1.1261,0.10867 -2.2031,0.29578 -3.2305,0.5625 -1.0174,0.26671 -1.9264,0.66199 -2.7265,1.18555 -0.8002,0.52356 -1.4323,1.21479 -1.8965,2.07421 -0.4643,0.85943 -0.6953,1.92112 -0.6953,3.18555 0,1.50152 0.3265,2.75608 0.9785,3.76367 0.6618,0.99773 1.5592,1.75391 2.6953,2.26758 1.136,0.5038 2.4307,0.75586 3.8828,0.75586 1.1261,0 2.1191,-0.14896 2.9785,-0.44531 0.8594,-0.30623 1.5946,-0.72633 2.2071,-1.25977 0.6124,-0.54331 1.1012,-1.16962 1.4667,-1.88086 h 0.1778 v 3.15625 h 5.9863 v -15.35156 c 0,-1.35335 -0.2616,-2.51434 -0.7851,-3.48242 -0.5236,-0.97797 -1.2396,-1.77806 -2.1485,-2.40039 -0.8989,-0.62234 -1.9301,-1.08255 -3.0957,-1.37891 -1.1559,-0.29635 -2.3664,-0.44336 -3.6308,-0.44336 z m 25.7851,0 c -1.541,0 -2.8662,0.38573 -3.9726,1.15625 -1.1064,0.77052 -1.8969,1.82267 -2.3711,3.15625 h -0.2657 v -4.01562 h -6.0156 v 22.75976 h 6.3125 v -13.66211 c 0,-0.83966 0.1623,-1.57101 0.4883,-2.19336 0.3259,-0.63221 0.7652,-1.12105 1.3184,-1.46679 0.5631,-0.35563 1.1951,-0.53321 1.8964,-0.53321 1.0372,0 1.8717,0.33034 2.5039,0.99219 0.6422,0.66186 0.9649,1.55172 0.9649,2.66797 v 14.19531 h 6.1191 v -13.90039 c 0,-1.18541 0.3209,-2.13825 0.9629,-2.85937 0.6422,-0.731 1.5359,-1.09571 2.6817,-1.09571 1.0076,1e-5 1.8478,0.31505 2.5195,0.94727 0.6717,0.63222 1.0078,1.58127 1.0078,2.8457 v 14.0625 h 6.2969 v -15.30664 c 0,-2.4696 -0.6664,-4.37725 -2,-5.7207 -1.3237,-1.35335 -3.048,-2.0293 -5.1719,-2.0293 -1.6695,0 -3.1169,0.39528 -4.3418,1.18555 -1.2151,0.78039 -2.0533,1.82301 -2.5176,3.12695 h -0.2383 c -0.3655,-1.3237 -1.0968,-2.37206 -2.1933,-3.14257 -1.0965,-0.7804 -2.4236,-1.16993 -3.9844,-1.16993 z m 37.0156,0 c -1.2742,0 -2.3417,0.21769 -3.2011,0.65235 -0.8496,0.42476 -1.5409,0.95751 -2.0743,1.59961 -0.5236,0.63222 -0.9245,1.25472 -1.2011,1.86718 h -0.2813 v -3.82226 h -6.2226 v 31.29492 h 6.3125 v -12.18164 h 0.1914 c 0.2864,0.63221 0.7027,1.26047 1.2461,1.88281 0.5432,0.61246 1.2383,1.12038 2.0879,1.52539 0.8594,0.40502 1.902,0.60742 3.1269,0.60742 1.7288,0 3.2908,-0.44297 4.6836,-1.33203 1.4027,-0.89893 2.5083,-2.21843 3.3184,-3.95703 0.8198,-1.74848 1.2304,-3.89289 1.2304,-6.43164 0,-2.60789 -0.4201,-4.77518 -1.2597,-6.50391 -0.8397,-1.73859 -1.9606,-3.03705 -3.3633,-3.89648 -1.4027,-0.8693 -2.9342,-1.30469 -4.5938,-1.30469 z m 32.0762,0 c -2.2326,0 -4.1783,0.49459 -5.8379,1.48243 -1.6496,0.98783 -2.9291,2.36457 -3.8379,4.13281 -0.9088,1.76824 -1.3633,3.82288 -1.3633,6.16406 0,2.40045 0.4545,4.47992 1.3633,6.23828 0.9088,1.74847 2.2016,3.10234 3.8809,4.06055 1.6893,0.94832 3.7057,1.42187 6.0469,1.42187 1.8768,0 3.5305,-0.28643 4.9629,-0.85937 1.4422,-0.58283 2.6185,-1.39246 3.5273,-2.42969 0.9187,-1.04711 1.5259,-2.27109 1.8223,-3.67383 l -5.8379,-0.38672 c -0.2173,0.57295 -0.5343,1.05799 -0.9492,1.45313 -0.4149,0.39513 -0.9133,0.6911 -1.4961,0.88867 -0.5828,0.19757 -1.2244,0.29688 -1.9258,0.29688 -1.057,0 -1.9717,-0.22345 -2.7422,-0.66797 -0.7705,-0.44452 -1.3682,-1.07657 -1.793,-1.89649 -0.4149,-0.81991 -0.6211,-1.79183 -0.6211,-2.91797 v -0.0156 h 15.4981 v -1.73438 c 0,-1.93616 -0.2711,-3.62415 -0.8145,-5.0664 -0.5433,-1.45213 -1.3033,-2.65703 -2.2812,-3.61524 -0.9681,-0.9582 -2.1043,-1.67427 -3.4082,-2.14843 -1.2942,-0.48404 -2.6919,-0.72657 -4.1934,-0.72657 z m 61.57228,0 c -2.23256,0 -4.17836,0.49459 -5.8379,1.48243 -1.64968,0.98783 -2.9291,2.36457 -3.83789,4.13281 -0.90885,1.76824 -1.36328,3.82288 -1.36328,6.16406 0,2.40045 0.45443,4.47992 1.36328,6.23828 0.90879,1.74847 2.20353,3.10234 3.88282,4.06055 1.68926,0.94832 3.70374,1.42187 6.04492,1.42187 1.8769,0 3.53055,-0.28643 4.96289,-0.85937 1.44225,-0.58283 2.61854,-1.39246 3.52734,-2.42969 0.9187,-1.04711 1.52592,-2.27109 1.82227,-3.67383 l -5.83789,-0.38672 c -0.21733,0.57295 -0.53236,1.05799 -0.94727,1.45313 -0.41485,0.39513 -0.91518,0.6911 -1.49805,0.88867 -0.5828,0.19757 -1.22438,0.29688 -1.92578,0.29688 -1.05698,0 -1.96972,-0.22345 -2.74023,-0.66797 -0.7705,-0.44452 -1.3682,-1.07657 -1.79297,-1.89649 -0.41491,-0.81991 -0.62305,-1.79183 -0.62305,-2.91797 v -0.0156 h 15.5 v -1.73438 c 0,-1.93616 -0.27309,-3.62415 -0.8164,-5.0664 -0.54331,-1.45213 -1.30329,-2.65703 -2.28125,-3.61524 -0.96809,-0.9582 -2.10426,-1.67427 -3.40821,-2.14843 -1.29408,-0.48404 -2.69186,-0.72657 -4.19335,-0.72657 z m 23.06445,0 c -1.81763,0 -3.41781,0.27689 -4.80078,0.83008 -1.3731,0.54331 -2.49398,1.32237 -3.36328,2.33985 -0.8693,1.00759 -1.4517,2.20296 -1.74805,3.58593 l 5.83789,0.47461 c 0.21733,-0.75076 0.66226,-1.37327 1.33398,-1.86719 0.67174,-0.5038 1.57492,-0.75586 2.71094,-0.75585 1.07674,-1e-5 1.90741,0.25781 2.49024,0.77148 0.5927,0.51368 0.88867,1.23929 0.88867,2.17773 v 0.0898 c 0,0.48404 -0.18333,0.84874 -0.54883,1.0957 -0.3655,0.24696 -0.95169,0.43408 -1.76172,0.5625 -0.81003,0.11854 -1.87746,0.24843 -3.20117,0.38672 -1.12613,0.10867 -2.20311,0.29578 -3.23047,0.5625 -1.01747,0.26671 -1.92641,0.66199 -2.72656,1.18555 -0.80015,0.52356 -1.43219,1.21479 -1.89649,2.07421 -0.46428,0.85943 -0.69726,1.92112 -0.69726,3.18555 0,1.50152 0.32654,2.75608 0.97851,3.76367 0.66186,0.99773 1.56125,1.75391 2.69727,2.26758 1.13601,0.5038 2.43068,0.75586 3.88281,0.75586 1.12614,0 2.11714,-0.14896 2.97656,-0.44531 0.85942,-0.30623 1.59653,-0.72633 2.20899,-1.25977 0.61246,-0.54331 1.10129,-1.16962 1.4668,-1.88086 h 0.17773 v 3.15625 h 5.98633 v -15.35156 c 0,-1.35335 -0.26161,-2.51434 -0.78516,-3.48242 -0.52356,-0.97797 -1.23962,-1.77806 -2.14844,-2.40039 -0.89893,-0.62234 -1.932,-1.08255 -3.09765,-1.37891 -1.15578,-0.29635 -2.36643,-0.44336 -3.63086,-0.44336 z m 61.30664,0 c -1.68921,0 -3.12709,0.38953 -4.3125,1.16993 -1.18541,0.77051 -2.0294,1.81887 -2.5332,3.14257 h -0.26758 v -4.01562 h -6.01563 v 22.75976 h 6.3125 v -13.1582 c 0.01,-0.97796 0.19321,-1.81242 0.54883,-2.50391 0.3655,-0.70136 0.86962,-1.23605 1.51172,-1.60156 0.65197,-0.36549 1.40241,-0.54687 2.25195,-0.54687 1.26444,0 2.2574,0.39332 2.97852,1.18359 0.72118,0.78039 1.07634,1.86887 1.0664,3.26172 v 13.36523 h 6.3125 v -14.49218 c 0,-1.76824 -0.32654,-3.29014 -0.97851,-4.56446 -0.65198,-1.28419 -1.56471,-2.2714 -2.74024,-2.96289 -1.17553,-0.69149 -2.55422,-1.03711 -4.13476,-1.03711 z m 19.76172,0 c -1.66946,0 -3.20665,0.42965 -4.60938,1.28907 -1.39286,0.85942 -2.50799,2.15408 -3.34765,3.88281 -0.83967,1.72871 -1.25977,3.88072 -1.25977,6.45898 0,2.519 0.40861,4.60422 1.22852,6.25391 0.82978,1.63981 1.94113,2.86 3.33398,3.66016 1.40273,0.79027 2.959,1.18554 4.66797,1.18554 1.20517,0 2.24203,-0.17757 3.11133,-0.5332 0.8693,-0.35562 1.58157,-0.81584 2.13476,-1.37891 0.55319,-0.56307 0.96755,-1.16075 1.24414,-1.79297 h 0.26758 v 4.16407 c 0,1.56078 -0.45067,2.67213 -1.34961,3.33398 -0.88905,0.67174 -2.01948,1.00781 -3.39258,1.00781 -0.91868,0 -1.69969,-0.12412 -2.34179,-0.37109 -0.63222,-0.23708 -1.14013,-0.55213 -1.52539,-0.94727 -0.38526,-0.39513 -0.66789,-0.82098 -0.84571,-1.27539 l -5.83789,0.78516 c 0.25684,1.19529 0.81636,2.27226 1.67578,3.23047 0.85942,0.9582 2.01468,1.71439 3.4668,2.26758 1.46201,0.56307 3.21494,0.84375 5.25977,0.84375 2.17325,0 4.09422,-0.33034 5.76367,-0.99219 1.67933,-0.65197 2.99309,-1.62965 3.9414,-2.9336 0.94834,-1.30395 1.42383,-2.92516 1.42383,-4.86132 v -22.98047 h -6.26757 v 3.82226 h -0.23829 c -0.28646,-0.61246 -0.69703,-1.23496 -1.23047,-1.86718 -0.52355,-0.6421 -1.21479,-1.17485 -2.07421,-1.59961 -0.85943,-0.43466 -1.92492,-0.65235 -3.19922,-0.65235 z m -42.82031,0.29688 v 22.75976 h 6.3125 v -22.75976 z m -122.78128,4.41406 c 0.9187,0 1.7246,0.20241 2.416,0.60742 0.7014,0.39514 1.2494,0.94513 1.6446,1.64649 0.3951,0.70137 0.5918,1.50525 0.5918,2.41406 h -9.543 c 0.039,-0.81609 0.2408,-1.5628 0.623,-2.23633 0.415,-0.74088 0.9879,-1.32902 1.7188,-1.76367 0.7409,-0.44453 1.5906,-0.66797 2.5488,-0.66797 z m 61.57229,0 c 0.91863,0 1.72453,0.20241 2.41602,0.60742 0.70139,0.39514 1.24939,0.94513 1.64453,1.64649 0.39514,0.70137 0.59179,1.50525 0.59179,2.41406 h -9.54296 c 0.0385,-0.81609 0.24081,-1.5628 0.62304,-2.23633 0.41492,-0.74088 0.98776,-1.32902 1.71875,-1.76367 0.7409,-0.44453 1.59062,-0.66797 2.54883,-0.66797 z m -95.76759,0.3125 c 1.0372,0 1.9118,0.28068 2.6231,0.84375 0.7112,0.56307 1.2497,1.34408 1.6152,2.3418 0.3655,0.99771 0.5469,2.15297 0.5469,3.46679 0,1.32372 -0.1872,2.49426 -0.5625,3.51172 -0.3655,1.0076 -0.904,1.79814 -1.6153,2.3711 -0.7112,0.56306 -1.5801,0.84375 -2.6074,0.84375 -1.0175,0 -1.8825,-0.27493 -2.5937,-0.82813 -0.7112,-0.56306 -1.2535,-1.34983 -1.6289,-2.35742 -0.3754,-1.00761 -0.5625,-2.18768 -0.5625,-3.54102 0,-1.35333 0.1871,-2.52766 0.5625,-3.52539 0.3754,-0.99771 0.9139,-1.76918 1.6152,-2.3125 0.7112,-0.54331 1.58,-0.81445 2.6074,-0.81445 z m 142.2754,0 c 1.01747,0 1.88251,0.27114 2.59375,0.81445 0.71125,0.54332 1.25548,1.31479 1.63086,2.3125 0.37538,0.99773 0.5625,2.17206 0.5625,3.52539 0,1.35334 -0.19286,2.53341 -0.57812,3.54102 -0.37538,1.00759 -0.91766,1.79436 -1.62891,2.35742 -0.70137,0.5532 -1.56261,0.82813 -2.58008,0.82813 -1.03723,0 -1.90984,-0.28069 -2.62109,-0.84375 -0.70137,-0.57296 -1.23985,-1.3635 -1.61523,-2.3711 -0.3655,-1.01746 -0.54883,-2.188 -0.54883,-3.51172 0,-1.31382 0.18333,-2.46908 0.54883,-3.46679 0.3655,-0.99772 0.90398,-1.77873 1.61523,-2.3418 0.71125,-0.56307 1.58386,-0.84375 2.62109,-0.84375 z m 59.53516,0 c 1.01747,0 1.8825,0.27114 2.59375,0.81445 0.71125,0.54332 1.25548,1.30904 1.63086,2.29688 0.37537,0.97796 0.5625,2.13321 0.5625,3.4668 0,1.33358 -0.19288,2.47929 -0.57813,3.4375 -0.37538,0.94832 -0.91766,1.67968 -1.6289,2.19336 -0.70138,0.50379 -1.56261,0.75585 -2.58008,0.75585 -1.03723,0 -1.90985,-0.25585 -2.62109,-0.76953 -0.70137,-0.52355 -1.23986,-1.26065 -1.61524,-2.20898 -0.3655,-0.95821 -0.54883,-2.09438 -0.54883,-3.4082 0,-1.29408 0.18333,-2.43404 0.54883,-3.42188 0.3655,-0.98784 0.90399,-1.75931 1.61524,-2.3125 0.71124,-0.56307 1.58386,-0.84375 2.62109,-0.84375 z m -259.20316,7.48242 v 2.41602 c 0,0.80015 -0.2024,1.51622 -0.6074,2.14844 -0.405,0.63221 -0.9625,1.13633 -1.6738,1.51171 -0.7112,0.3655 -1.5305,0.54688 -2.459,0.54688 -0.9681,0 -1.7682,-0.22149 -2.4004,-0.66602 -0.6223,-0.4544 -0.9336,-1.11128 -0.9336,-1.9707 0,-0.59271 0.1528,-1.08729 0.459,-1.48242 0.3063,-0.40502 0.7359,-0.72581 1.2891,-0.96289 0.5532,-0.23708 1.2004,-0.41087 1.9414,-0.51953 0.3457,-0.0494 0.7295,-0.10285 1.1543,-0.16211 0.4247,-0.0692 0.8506,-0.14363 1.2754,-0.22266 0.4248,-0.0889 0.8047,-0.18247 1.1406,-0.28125 0.3457,-0.10867 0.6169,-0.22705 0.8144,-0.35547 z m 179.51566,0 v 2.41602 c 0,0.80015 -0.2024,1.51622 -0.60742,2.14844 -0.40501,0.63221 -0.96454,1.13633 -1.67578,1.51171 -0.71125,0.3655 -1.53042,0.54688 -2.45899,0.54688 -0.96808,0 -1.76818,-0.22149 -2.40039,-0.66602 -0.62234,-0.4544 -0.93359,-1.11128 -0.93359,-1.9707 0,-0.59271 0.15276,-1.08729 0.45898,-1.48242 0.30623,-0.40502 0.73587,-0.72581 1.28906,-0.96289 0.5532,-0.23708 1.20053,-0.41087 1.94141,-0.51953 0.34575,-0.0494 0.73148,-0.10285 1.15625,-0.16211 0.42477,-0.0692 0.84866,-0.14363 1.27344,-0.22266 0.42476,-0.0889 0.80671,-0.18247 1.14258,-0.28125 0.34574,-0.10867 0.61688,-0.22705 0.81445,-0.35547 z m -92.33206,28.51172 c -0.5968,0 -1.1494,0.11868 -1.6582,0.35352 -0.5088,0.22994 -0.9165,0.57915 -1.2246,1.04883 -0.3083,0.46479 -0.4629,1.04938 -0.4629,1.7539 v 1.30664 h -1.7461 v 1.76172 h 1.7461 v 9.50977 h 2.1934 v -9.50977 h 2.4297 v -1.76172 h -2.4297 v -1.01367 c 0,-0.49904 0.1129,-0.88033 0.3379,-1.14453 0.23,-0.26419 0.6112,-0.39649 1.1445,-0.39649 0.2299,0 0.4264,0.0223 0.5879,0.0664 0.1615,0.0391 0.2937,0.0741 0.3965,0.10352 l 0.5137,-1.77735 c -0.1516,-0.0587 -0.3841,-0.12096 -0.6973,-0.18945 -0.3131,-0.0734 -0.6905,-0.11133 -1.1309,-0.11133 z m 167.54886,0 c -0.59689,0 -1.14938,0.11868 -1.65821,0.35352 -0.50882,0.22994 -0.91833,0.57915 -1.22656,1.04883 -0.30823,0.46479 -0.46289,1.04938 -0.46289,1.7539 v 1.30664 h -1.74609 v 1.76172 h 1.74609 v 9.50977 h 2.19531 v -9.50977 h 2.42969 v -1.76172 h -2.42969 v -1.01367 c 0,-0.49904 0.11284,-0.88033 0.33789,-1.14453 0.22995,-0.26419 0.61125,-0.39649 1.14453,-0.39649 0.22995,0 0.42644,0.0223 0.58789,0.0664 0.16146,0.0391 0.29179,0.0741 0.39454,0.10352 l 0.51367,-1.77735 c -0.15168,-0.0587 -0.3822,-0.12096 -0.69531,-0.18945 -0.31312,-0.0734 -0.69054,-0.11133 -1.13086,-0.11133 z m 13.11718,0 c -0.59689,0 -1.14939,0.11868 -1.6582,0.35352 -0.50882,0.22994 -0.91638,0.57915 -1.22461,1.04883 -0.30823,0.46479 -0.46289,1.04938 -0.46289,1.7539 v 1.30664 h -1.74609 v 1.76172 h 1.74609 v 9.50977 h 2.19336 v -9.50977 h 2.42969 v -1.76172 h -2.42969 v -1.01367 c 0,-0.49904 0.11283,-0.88033 0.33789,-1.14453 0.22995,-0.26419 0.61125,-0.39649 1.14453,-0.39649 0.22995,0 0.42644,0.0223 0.58789,0.0664 0.16146,0.0391 0.29375,0.0741 0.39649,0.10352 l 0.51367,-1.77735 c -0.15167,-0.0587 -0.38415,-0.12096 -0.69727,-0.18945 -0.31312,-0.0734 -0.69054,-0.11133 -1.13086,-0.11133 z m -21.22265,0.10352 c -0.38162,0 -0.71039,0.12936 -0.98438,0.38867 -0.26908,0.25441 -0.40234,0.56373 -0.40234,0.92578 0,0.35715 0.13326,0.66452 0.40234,0.92383 0.27399,0.25441 0.60276,0.38086 0.98438,0.38086 0.38161,0 0.70747,-0.12645 0.97656,-0.38086 0.27398,-0.25931 0.41016,-0.56668 0.41016,-0.92383 0,-0.36205 -0.13618,-0.67137 -0.41016,-0.92578 -0.26909,-0.25931 -0.59495,-0.38867 -0.97656,-0.38867 z m -281.00199,0.39648 c -1.0078,0 -1.9125,0.18092 -2.7148,0.54297 -0.8025,0.35715 -1.4386,0.85809 -1.9082,1.50391 -0.4697,0.64581 -0.7051,1.40159 -0.7051,2.26757 0,1.047 0.3492,1.88937 1.0488,2.5254 0.7046,0.63603 1.6597,1.11751 2.8633,1.44531 l 1.7754,0.48437 c 0.5381,0.14189 1.0197,0.30628 1.4453,0.49219 0.4306,0.18592 0.77,0.42132 1.0196,0.70508 0.2544,0.28377 0.3828,0.64658 0.3828,1.09179 0,0.48926 -0.145,0.91822 -0.4336,1.28516 -0.2886,0.36204 -0.6836,0.64607 -1.1875,0.85156 -0.4991,0.20059 -1.07,0.30078 -1.711,0.30078 -0.5822,0 -1.1181,-0.0866 -1.6074,-0.25781 -0.4843,-0.17613 -0.8822,-0.44167 -1.1953,-0.79883 -0.3083,-0.36204 -0.4853,-0.81435 -0.5293,-1.35742 h -2.2754 c 0.049,0.90512 0.3067,1.68717 0.7715,2.34766 0.4648,0.6556 1.1078,1.16238 1.9297,1.51953 0.8219,0.35715 1.7965,0.53516 2.9219,0.53516 1.1742,0 2.1732,-0.19065 3,-0.57227 0.8317,-0.38161 1.4649,-0.90201 1.9004,-1.5625 0.4403,-0.66049 0.6621,-1.41628 0.6621,-2.26758 0,-0.67517 -0.1352,-1.25587 -0.4043,-1.74023 -0.2642,-0.48436 -0.6125,-0.89096 -1.043,-1.21875 -0.4306,-0.3278 -0.8965,-0.59043 -1.4004,-0.79102 -0.5039,-0.2006 -0.9951,-0.36109 -1.4746,-0.47851 l -1.4688,-0.38086 c -0.2935,-0.0734 -0.5999,-0.16677 -0.9179,-0.2793 -0.318,-0.11741 -0.6157,-0.26039 -0.8946,-0.43164 -0.2739,-0.17613 -0.4967,-0.39499 -0.6679,-0.6543 -0.1664,-0.2593 -0.25,-0.56667 -0.25,-0.92383 0,-0.42565 0.1225,-0.80597 0.3672,-1.13867 0.2495,-0.33757 0.5987,-0.60215 1.0488,-0.79297 0.4501,-0.1957 0.9851,-0.29296 1.6016,-0.29296 0.861,0 1.575,0.19356 2.1425,0.58007 0.5676,0.38161 0.8905,0.9205 0.9688,1.61524 h 2.1855 c -0.02,-0.80727 -0.253,-1.52319 -0.7031,-2.14453 -0.4501,-0.62625 -1.0668,-1.11746 -1.8496,-1.47461 -0.7779,-0.35716 -1.6757,-0.53516 -2.6934,-0.53516 z m 193.82425,0 c -1.00786,0 -1.91247,0.18092 -2.71484,0.54297 -0.80237,0.35715 -1.43852,0.85809 -1.9082,1.50391 -0.46968,0.64581 -0.70508,1.40159 -0.70508,2.26757 0,1.047 0.34919,1.88937 1.04883,2.5254 0.70452,0.63603 1.65972,1.11751 2.86328,1.44531 l 1.77539,0.48437 c 0.53818,0.14189 1.01966,0.30628 1.44531,0.49219 0.43053,0.18592 0.77196,0.42132 1.02148,0.70508 0.25441,0.28377 0.38086,0.64658 0.38086,1.09179 0,0.48926 -0.14494,0.91822 -0.43359,1.28516 -0.28866,0.36204 -0.68357,0.64607 -1.1875,0.85156 -0.49904,0.20059 -1.07001,0.30078 -1.71094,0.30078 -0.5822,0 -1.11817,-0.0866 -1.60742,-0.25781 -0.48436,-0.17613 -0.88219,-0.44167 -1.19531,-0.79883 -0.30819,-0.36204 -0.48523,-0.81435 -0.5293,-1.35742 h -2.27539 c 0.0489,0.90512 0.3067,1.68717 0.77149,2.34766 0.46479,0.6556 1.10774,1.16238 1.92968,1.51953 0.82195,0.35715 1.7966,0.53516 2.92188,0.53516 1.1742,0 2.17316,-0.19065 3,-0.57227 0.83173,-0.38161 1.46691,-0.90201 1.90234,-1.5625 0.44033,-0.66049 0.66016,-1.41628 0.66016,-2.26758 0,-0.67517 -0.13521,-1.25587 -0.4043,-1.74023 -0.26419,-0.48436 -0.61047,-0.89096 -1.04101,-1.21875 -0.43054,-0.3278 -0.89842,-0.59043 -1.40235,-0.79102 -0.50393,-0.2006 -0.99514,-0.36109 -1.47461,-0.47851 l -1.46875,-0.38086 c -0.29355,-0.0734 -0.59995,-0.16677 -0.91797,-0.2793 -0.31802,-0.11741 -0.61565,-0.26039 -0.89453,-0.43164 -0.27398,-0.17613 -0.49673,-0.39499 -0.66797,-0.6543 -0.16635,-0.2593 -0.25,-0.56667 -0.25,-0.92383 0,-0.42565 0.12256,-0.80597 0.36719,-1.13867 0.24953,-0.33757 0.60067,-0.60215 1.05078,-0.79297 0.45011,-0.1957 0.98316,-0.29296 1.59961,-0.29296 0.86109,0 1.57505,0.19356 2.14258,0.58007 0.56753,0.38161 0.89048,0.9205 0.96875,1.61524 h 2.1875 c -0.0196,-0.80727 -0.25496,-1.52319 -0.70508,-2.14453 -0.4501,-0.62625 -1.06679,-1.11746 -1.84961,-1.47461 -0.7779,-0.35716 -1.67572,-0.53516 -2.69336,-0.53516 z m 58.00196,0 c -1.00786,0 -1.91247,0.18092 -2.71485,0.54297 -0.80236,0.35715 -1.43851,0.85809 -1.9082,1.50391 -0.46968,0.64581 -0.70508,1.40159 -0.70508,2.26757 0,1.047 0.3492,1.88937 1.04883,2.5254 0.70453,0.63603 1.65972,1.11751 2.86328,1.44531 l 1.77539,0.48437 c 0.53818,0.14189 1.01967,0.30628 1.44531,0.49219 0.43054,0.18592 0.77197,0.42132 1.02149,0.70508 0.25441,0.28377 0.38086,0.64658 0.38086,1.09179 0,0.48926 -0.14494,0.91822 -0.4336,1.28516 -0.28866,0.36204 -0.68357,0.64607 -1.1875,0.85156 -0.49903,0.20059 -1.07001,0.30078 -1.71093,0.30078 -0.58221,0 -1.11817,-0.0866 -1.60743,-0.25781 -0.48436,-0.17613 -0.88219,-0.44167 -1.19531,-0.79883 -0.30819,-0.36204 -0.48523,-0.81435 -0.52929,-1.35742 h -2.2754 c 0.0489,0.90512 0.3067,1.68717 0.77149,2.34766 0.46479,0.6556 1.10775,1.16238 1.92969,1.51953 0.82194,0.35715 1.79659,0.53516 2.92187,0.53516 1.17421,0 2.17317,-0.19065 3,-0.57227 0.83173,-0.38161 1.46691,-0.90201 1.90235,-1.5625 0.44032,-0.66049 0.66015,-1.41628 0.66015,-2.26758 0,-0.67517 -0.13521,-1.25587 -0.4043,-1.74023 -0.26419,-0.48436 -0.61047,-0.89096 -1.04101,-1.21875 -0.43055,-0.3278 -0.89842,-0.59043 -1.40234,-0.79102 -0.50394,-0.2006 -0.99515,-0.36109 -1.47461,-0.47851 l -1.46875,-0.38086 c -0.29356,-0.0734 -0.59997,-0.16677 -0.91797,-0.2793 -0.31802,-0.11741 -0.61566,-0.26039 -0.89453,-0.43164 -0.27398,-0.17613 -0.49673,-0.39499 -0.66797,-0.6543 -0.16635,-0.2593 -0.25,-0.56667 -0.25,-0.92383 0,-0.42565 0.12256,-0.80597 0.36718,-1.13867 0.24952,-0.33757 0.60067,-0.60215 1.05079,-0.79297 0.45011,-0.1957 0.98315,-0.29296 1.5996,-0.29296 0.86108,0 1.57505,0.19356 2.14258,0.58007 0.56754,0.38161 0.89047,0.9205 0.96875,1.61524 h 2.1875 c -0.0196,-0.80727 -0.25496,-1.52319 -0.70507,-2.14453 -0.45012,-0.62625 -1.06681,-1.11746 -1.84961,-1.47461 -0.77791,-0.35716 -1.67572,-0.53516 -2.69336,-0.53516 z m -201.11521,0.20508 v 15.0293 h 2.1933 v -15.0293 z m 107.7285,0 v 15.0293 h 2.1953 v -6.69141 c 0,-0.59689 0.1138,-1.10659 0.3437,-1.52734 0.2349,-0.42566 0.5569,-0.74859 0.9629,-0.96875 0.411,-0.22017 0.8759,-0.33008 1.3946,-0.33008 0.7583,0 1.3498,0.22955 1.7754,0.68945 0.4256,0.45501 0.6386,1.097 0.6386,1.92383 v 6.9043 h 2.1934 v -7.16993 c 0,-0.93936 -0.1615,-1.72141 -0.4844,-2.34765 -0.318,-0.63114 -0.7674,-1.10582 -1.3496,-1.42383 -0.5773,-0.31801 -1.2524,-0.47656 -2.0254,-0.47656 -0.8757,0 -1.5858,0.178 -2.1289,0.53515 -0.5431,0.35716 -0.9467,0.83864 -1.2109,1.44532 h -0.1387 v -5.5918 z m 207.62889,0 v 15.0293 h 2.19532 v -6.69141 c 0,-0.59689 0.11379,-1.10659 0.34375,-1.52734 0.23484,-0.42566 0.55681,-0.74859 0.96289,-0.96875 0.41096,-0.22017 0.87397,-0.33008 1.39257,-0.33008 0.75834,0 1.3517,0.22955 1.77735,0.68945 0.42565,0.45501 0.63867,1.097 0.63867,1.92383 v 6.9043 h 2.19336 v -7.16993 c 0,-0.93936 -0.16147,-1.72141 -0.48438,-2.34765 -0.31802,-0.63114 -0.7674,-1.10582 -1.3496,-1.42383 -0.57732,-0.31801 -1.25238,-0.47656 -2.0254,-0.47656 -0.87575,0 -1.58583,0.178 -2.1289,0.53515 -0.54307,0.35716 -0.94675,0.83864 -1.21094,1.44532 h -0.13867 v -5.5918 z m -291.83589,1.05664 v 2.70117 h -1.6524 v 1.76172 h 1.6524 v 6.65625 c 0,0.68006 0.1526,1.2452 0.4609,1.69531 0.3082,0.45012 0.7119,0.78278 1.2109,0.99805 0.499,0.21529 1.038,0.31839 1.6153,0.30859 0.3523,-0.005 0.646,-0.036 0.8808,-0.0898 0.2349,-0.0489 0.4158,-0.0976 0.543,-0.14648 l -0.3965,-1.8125 c -0.073,0.0147 -0.1765,0.0341 -0.3086,0.0586 -0.1321,0.0245 -0.2868,0.0371 -0.4629,0.0371 -0.2397,0 -0.4624,-0.036 -0.6679,-0.10938 -0.2006,-0.0783 -0.3631,-0.22321 -0.4903,-0.43359 -0.1272,-0.21527 -0.1914,-0.53529 -0.1914,-0.96094 v -6.20117 h 2.3125 v -1.76172 h -2.3125 v -2.70117 z m 30.8359,0 v 2.70117 h -1.6504 v 1.76172 h 1.6504 v 6.65625 c 0,0.68006 0.1546,1.2452 0.4629,1.69531 0.3083,0.45012 0.7119,0.78278 1.2109,0.99805 0.499,0.21529 1.0379,0.31839 1.6153,0.30859 0.3522,-0.005 0.6459,-0.036 0.8808,-0.0898 0.2348,-0.0489 0.4157,-0.0976 0.543,-0.14648 l -0.3965,-1.8125 c -0.073,0.0147 -0.1765,0.0341 -0.3086,0.0586 -0.1321,0.0245 -0.2868,0.0371 -0.4629,0.0371 -0.2397,0 -0.4624,-0.036 -0.668,-0.10938 -0.2006,-0.0783 -0.3649,-0.22321 -0.4921,-0.43359 -0.1272,-0.21527 -0.1895,-0.53529 -0.1895,-0.96094 v -6.20117 h 2.3106 v -1.76172 h -2.3106 v -2.70117 z m 46.2168,0 v 2.70117 h -1.6524 v 1.76172 h 1.6524 v 6.65625 c 0,0.68006 0.1547,1.2452 0.4629,1.69531 0.3082,0.45012 0.7119,0.78278 1.2109,0.99805 0.4991,0.21529 1.036,0.31839 1.6133,0.30859 0.3522,-0.005 0.646,-0.036 0.8809,-0.0898 0.2348,-0.0489 0.4157,-0.0976 0.5429,-0.14648 l -0.3965,-1.8125 c -0.073,0.0147 -0.1764,0.0341 -0.3085,0.0586 -0.1321,0.0245 -0.2849,0.0371 -0.461,0.0371 -0.2397,0 -0.4624,-0.036 -0.668,-0.10938 -0.2006,-0.0783 -0.365,-0.22321 -0.4921,-0.43359 -0.1272,-0.21527 -0.1915,-0.53529 -0.1915,-0.96094 v -6.20117 h 2.3126 v -1.76172 h -2.3126 v -2.70117 z m 179.57616,0 v 2.70117 h -1.65234 v 1.76172 h 1.65234 v 6.65625 c 0,0.68006 0.15467,1.2452 0.46289,1.69531 0.30824,0.45012 0.7119,0.78278 1.21094,0.99805 0.49903,0.21529 1.03597,0.31839 1.61328,0.30859 0.35227,-0.005 0.64603,-0.036 0.88086,-0.0898 0.23485,-0.0489 0.41576,-0.0976 0.54297,-0.14648 l -0.39648,-1.8125 c -0.0734,0.0147 -0.1765,0.0341 -0.3086,0.0586 -0.1321,0.0245 -0.2848,0.0371 -0.46094,0.0371 -0.23973,0 -0.46248,-0.036 -0.66796,-0.10938 -0.2006,-0.0783 -0.36499,-0.22321 -0.49219,-0.43359 -0.12721,-0.21527 -0.19141,-0.53529 -0.19141,-0.96094 v -6.20117 h 2.3125 v -1.76172 h -2.3125 v -2.70117 z m -188.67186,2.5332 c -0.6605,0 -1.2538,0.17509 -1.7774,0.52735 -0.5186,0.34736 -0.8805,0.82496 -1.0859,1.43164 h -0.1172 v -1.79102 h -2.1211 v 11.27149 h 2.1953 v -6.88282 c 0,-0.48925 0.1168,-0.92502 0.3516,-1.30664 0.2349,-0.3865 0.552,-0.68706 0.9531,-0.90234 0.4062,-0.22016 0.8702,-0.33008 1.3887,-0.33008 0.2251,0 0.4488,0.0166 0.6738,0.0508 0.2251,0.0293 0.3827,0.0556 0.4707,0.0801 v -2.09766 c -0.1076,-0.0147 -0.2564,-0.0273 -0.4472,-0.0371 -0.186,-0.01 -0.3475,-0.0137 -0.4844,-0.0137 z m 134.8535,0 c -0.66048,0 -1.25383,0.17509 -1.77734,0.52735 -0.51861,0.34736 -0.88046,0.82496 -1.08594,1.43164 h -0.11719 v -1.79102 h -2.12109 v 11.27149 h 2.19531 v -6.88282 c 0,-0.48925 0.11673,-0.92502 0.35157,-1.30664 0.23484,-0.3865 0.55193,-0.68706 0.95312,-0.90234 0.40608,-0.22016 0.87007,-0.33008 1.38867,-0.33008 0.22505,0 0.44877,0.0166 0.67383,0.0508 0.22505,0.0293 0.38263,0.0556 0.4707,0.0801 v -2.09766 c -0.10764,-0.0147 -0.25645,-0.0273 -0.44726,-0.0371 -0.18591,-0.01 -0.34738,-0.0137 -0.48438,-0.0137 z m -264.6074,0.0215 c -0.68,0 -1.3288,0.0973 -1.9453,0.29297 -0.6164,0.1908 -1.1621,0.50013 -1.6368,0.92578 -0.4696,0.42076 -0.8257,0.97325 -1.0703,1.6582 l 2.0625,0.46875 c 0.1615,-0.39629 0.4524,-0.75522 0.8731,-1.07812 0.4257,-0.3278 1.0073,-0.49219 1.7461,-0.49219 0.7094,0 1.2425,0.17703 1.5996,0.52929 0.3621,0.35226 0.543,0.84737 0.543,1.48829 v 0.0527 c 0,0.26421 -0.094,0.45485 -0.2852,0.57227 -0.1908,0.11744 -0.4972,0.20206 -0.918,0.25586 -0.4207,0.0489 -0.9693,0.11312 -1.6445,0.1914 -0.5332,0.0636 -1.0565,0.15699 -1.5703,0.2793 -0.5137,0.12231 -0.9787,0.30323 -1.3945,0.54297 -0.4159,0.23973 -0.7457,0.56559 -0.9903,0.97656 -0.2446,0.41097 -0.3672,0.93428 -0.3672,1.57031 0,0.73877 0.1673,1.36227 0.5,1.8711 0.3376,0.50882 0.7938,0.89693 1.3711,1.16601 0.5774,0.2642 1.2233,0.39649 1.9375,0.39649 0.6214,0 1.1544,-0.0905 1.5996,-0.27149 0.4453,-0.18102 0.8101,-0.40765 1.0938,-0.68164 0.2837,-0.27398 0.4968,-0.55412 0.6387,-0.83789 h 0.088 v 1.54102 h 2.1425 v -7.48438 c 0,-0.82194 -0.142,-1.49019 -0.4258,-2.00391 -0.2837,-0.5186 -0.6465,-0.91643 -1.0917,-1.19531 -0.4403,-0.27886 -0.915,-0.46952 -1.4239,-0.57226 -0.5039,-0.10764 -0.9815,-0.16211 -1.4316,-0.16211 z m 12.5898,0 c -0.7436,0 -1.3827,0.17508 -1.916,0.52734 -0.5333,0.34737 -0.9175,0.83177 -1.1523,1.45313 h -0.1387 v -1.83399 h -2.1074 v 11.27149 h 2.1953 v -6.94922 c 0,-0.50882 0.104,-0.95725 0.3144,-1.34375 0.2153,-0.38651 0.4983,-0.68707 0.8457,-0.90235 0.3523,-0.22016 0.7346,-0.33007 1.1504,-0.33007 0.6116,0 1.1087,0.18676 1.4903,0.55859 0.3816,0.37183 0.5722,0.86304 0.5722,1.47461 v 7.49219 h 2.1875 v -7.1836 c 0,-0.68495 0.1975,-1.2462 0.5938,-1.68164 0.3962,-0.44032 0.9517,-0.66015 1.666,-0.66015 0.5773,0 1.0744,0.17119 1.4902,0.51367 0.4159,0.34247 0.6231,0.89497 0.6231,1.6582 v 7.35352 h 2.1953 v -7.5586 c 0,-1.29162 -0.3259,-2.25752 -0.9766,-2.89843 -0.6458,-0.64092 -1.4795,-0.96094 -2.5019,-0.96094 -0.8122,0 -1.5125,0.18093 -2.0996,0.54297 -0.5871,0.35715 -1.0141,0.83571 -1.2832,1.4375 h -0.1172 c -0.2446,-0.61646 -0.625,-1.10086 -1.1387,-1.45313 -0.5088,-0.35226 -1.1391,-0.52734 -1.8926,-0.52734 z m 18.4942,0 c -0.6996,0 -1.2638,0.11672 -1.6895,0.35156 -0.4257,0.22995 -0.7583,0.49841 -0.998,0.80664 -0.2398,0.30823 -0.4217,0.58157 -0.5489,0.81641 h -0.1836 v -1.82813 h -2.1445 v 15.5 h 2.1953 v -5.98243 h 0.1328 c 0.1322,0.23973 0.3199,0.51403 0.5645,0.82227 0.2447,0.30822 0.5812,0.57864 1.0117,0.80859 0.4355,0.22995 0.9967,0.34375 1.6817,0.34375 0.9099,0 1.7203,-0.23247 2.4296,-0.69727 0.7095,-0.46968 1.2658,-1.13793 1.6719,-2.0039 0.4061,-0.87087 0.6094,-1.91458 0.6094,-3.13282 0,-1.21823 -0.2062,-2.26097 -0.6172,-3.12695 -0.406,-0.86597 -0.9654,-1.52838 -1.6797,-1.98828 -0.7143,-0.45989 -1.5255,-0.68945 -2.4355,-0.68945 z m 17.0215,0 c -1.0471,0 -1.9614,0.24609 -2.7442,0.74023 -0.7779,0.49414 -1.3849,1.18185 -1.8203,2.0625 -0.4305,0.88066 -0.6465,1.8981 -0.6465,3.05274 0,1.16931 0.216,2.18968 0.6465,3.06054 0.4354,0.86598 1.0521,1.53811 1.8496,2.01758 0.8023,0.47457 1.7585,0.71289 2.8691,0.71289 0.822,0 1.5524,-0.12548 2.1934,-0.375 0.6458,-0.25441 1.1818,-0.60945 1.6074,-1.06445 0.4306,-0.45989 0.7301,-0.9939 0.8965,-1.60547 l -2.0781,-0.375 c -0.1321,0.35227 -0.3227,0.64894 -0.5723,0.88867 -0.2494,0.23974 -0.5442,0.42066 -0.8867,0.54297 -0.3425,0.11743 -0.7227,0.17578 -1.1387,0.17578 -0.6408,0 -1.2002,-0.13813 -1.6797,-0.41211 -0.4794,-0.27888 -0.8539,-0.68255 -1.123,-1.21093 -0.2454,-0.49085 -0.3712,-1.08253 -0.3887,-1.76758 h 8.0059 v -0.77735 c 0,-1.02253 -0.1362,-1.89116 -0.4102,-2.60547 -0.274,-0.7192 -0.6485,-1.30379 -1.123,-1.7539 -0.4746,-0.45012 -1.0106,-0.78182 -1.6074,-0.99219 -0.5969,-0.21038 -1.2136,-0.31445 -1.8496,-0.31445 z m 25.1874,0 c -1.047,0 -1.9632,0.24609 -2.746,0.74023 -0.778,0.49414 -1.385,1.18185 -1.8204,2.0625 -0.4306,0.88066 -0.6445,1.8981 -0.6445,3.05274 0,1.16931 0.2139,2.18968 0.6445,3.06054 0.4354,0.86598 1.0521,1.53811 1.8497,2.01758 0.8023,0.47457 1.7585,0.71289 2.8691,0.71289 0.8219,0 1.5544,-0.12548 2.1953,-0.375 0.6459,-0.25441 1.1818,-0.60945 1.6074,-1.06445 0.4306,-0.45989 0.7282,-0.9939 0.8946,-1.60547 l -2.0762,-0.375 c -0.1321,0.35227 -0.3227,0.64894 -0.5723,0.88867 -0.2494,0.23974 -0.5462,0.42066 -0.8886,0.54297 -0.3425,0.11743 -0.7208,0.17578 -1.1368,0.17578 -0.6409,0 -1.2022,-0.13813 -1.6816,-0.41211 -0.4795,-0.27888 -0.8539,-0.68255 -1.1231,-1.21093 -0.2454,-0.49085 -0.3712,-1.08253 -0.3886,-1.76758 h 8.0078 v -0.77735 c 0,-1.02253 -0.1382,-1.89116 -0.4121,-2.60547 -0.274,-0.7192 -0.6485,-1.30379 -1.1231,-1.7539 -0.4746,-0.45012 -1.0105,-0.78182 -1.6074,-0.99219 -0.5969,-0.21038 -1.2116,-0.31445 -1.8477,-0.31445 z m 43.6758,0 c -1.0567,0 -1.9798,0.2422 -2.7675,0.72656 -0.7877,0.48436 -1.3986,1.1633 -1.834,2.03906 -0.4354,0.87576 -0.6524,1.89905 -0.6524,3.06836 0,1.16442 0.217,2.18187 0.6524,3.05274 0.4354,0.87086 1.0463,1.54884 1.834,2.0332 0.7877,0.48436 1.7108,0.72656 2.7675,0.72656 1.0568,0 1.9799,-0.2422 2.7676,-0.72656 0.7877,-0.48436 1.3986,-1.16234 1.834,-2.0332 0.4355,-0.87087 0.6523,-1.88832 0.6523,-3.05274 0,-1.16931 -0.2168,-2.1926 -0.6523,-3.06836 -0.4354,-0.87576 -1.0463,-1.5547 -1.834,-2.03906 -0.7877,-0.48436 -1.7108,-0.72656 -2.7676,-0.72656 z m 46.17191,0 c -1.047,0 -1.96134,0.24609 -2.74414,0.74023 -0.77792,0.49414 -1.38488,1.18185 -1.82027,2.0625 -0.4306,0.88066 -0.6465,1.8981 -0.6465,3.05274 0,1.16931 0.2159,2.18968 0.6465,3.06054 0.43539,0.86598 1.05208,1.53811 1.84956,2.01758 0.80238,0.47457 1.75854,0.71289 2.86914,0.71289 0.82195,0 1.55244,-0.12548 2.19336,-0.375 0.64581,-0.25441 1.18177,-0.60945 1.60742,-1.06445 0.43054,-0.45989 0.73014,-0.9939 0.89649,-1.60547 l -2.07813,-0.375 c -0.1321,0.35227 -0.32275,0.64894 -0.57226,0.88867 -0.24953,0.23974 -0.54425,0.42066 -0.88672,0.54297 -0.34247,0.11743 -0.72281,0.17578 -1.13867,0.17578 -0.64092,0 -1.20022,-0.13813 -1.67969,-0.41211 -0.47946,-0.27888 -0.85395,-0.68255 -1.12305,-1.21093 -0.24542,-0.49085 -0.37123,-1.08253 -0.38867,-1.76758 h 8.00586 v -0.77735 c 0,-1.02253 -0.13617,-1.89116 -0.41016,-2.60547 -0.27398,-0.7192 -0.64847,-1.30379 -1.12304,-1.7539 -0.47458,-0.45012 -1.01054,-0.78182 -1.60742,-0.99219 -0.59689,-0.21038 -1.21359,-0.31445 -1.84961,-0.31445 z m 30.68359,0 c -0.68006,0 -1.32885,0.0973 -1.94531,0.29297 -0.61646,0.1908 -1.16215,0.50013 -1.63672,0.92578 -0.46969,0.42076 -0.82569,0.97325 -1.07031,1.6582 l 2.0625,0.46875 c 0.16145,-0.39629 0.45228,-0.75522 0.87304,-1.07812 0.42566,-0.3278 1.00733,-0.49219 1.7461,-0.49219 0.70942,0 1.24245,0.17703 1.59961,0.52929 0.36204,0.35226 0.54296,0.84737 0.54297,1.48829 v 0.0527 c 0,0.26421 -0.0944,0.45485 -0.28516,0.57227 -0.19081,0.11744 -0.49722,0.20206 -0.91797,0.25586 -0.42076,0.0489 -0.96936,0.11312 -1.64453,0.1914 -0.53329,0.0636 -1.05661,0.15699 -1.57031,0.2793 -0.51372,0.12231 -0.97867,0.30323 -1.39453,0.54297 -0.41586,0.23973 -0.74561,0.56559 -0.99024,0.97656 -0.24463,0.41097 -0.36719,0.93428 -0.36719,1.57031 0,0.73877 0.16731,1.36227 0.5,1.8711 0.33759,0.50882 0.79379,0.89693 1.3711,1.16601 0.57732,0.2642 1.22319,0.39649 1.9375,0.39649 0.62135,0 1.15439,-0.0905 1.59961,-0.27149 0.44521,-0.18102 0.80997,-0.40765 1.09375,-0.68164 0.28376,-0.27398 0.49678,-0.55412 0.63867,-0.83789 h 0.0879 v 1.54102 h 2.14258 v -7.48438 c 0,-0.82194 -0.14202,-1.49019 -0.42578,-2.00391 -0.28377,-0.5186 -0.64658,-0.91643 -1.0918,-1.19531 -0.44033,-0.27886 -0.91501,-0.46952 -1.42383,-0.57226 -0.50393,-0.10764 -0.98153,-0.16211 -1.43164,-0.16211 z m 12.8457,0 c -0.8464,0 -1.54772,0.18093 -2.10547,0.54297 -0.55285,0.36205 -0.95944,0.84061 -1.21875,1.4375 h -0.13867 v -1.83399 h -2.10742 v 11.27149 h 2.19531 v -6.69141 c 0,-0.59689 0.11284,-1.10659 0.33789,-1.52734 0.22996,-0.42566 0.54024,-0.74859 0.93164,-0.96875 0.3963,-0.22017 0.84861,-0.33008 1.35743,-0.33008 0.74366,0 1.32825,0.23247 1.7539,0.69726 0.42565,0.4599 0.63867,1.09897 0.63867,1.91602 v 6.9043 h 2.19532 v -7.16993 c 0,-0.92958 -0.16051,-1.70871 -0.47852,-2.33984 -0.31802,-0.63113 -0.76448,-1.10581 -1.3418,-1.42383 -0.5773,-0.3229 -1.25139,-0.48437 -2.01953,-0.48437 z m 10.96485,0 c -0.8464,0 -1.59636,0.14201 -2.25196,0.42578 -0.6556,0.27887 -1.17114,0.66697 -1.54297,1.16601 -0.37183,0.49903 -0.55664,1.08071 -0.55664,1.7461 0,0.80237 0.24901,1.46673 0.74805,1.99023 0.50393,0.5235 1.28209,0.9048 2.33399,1.14453 l 1.9082,0.41797 c 0.53818,0.12232 0.93601,0.30324 1.19531,0.54297 0.26419,0.23973 0.39649,0.53641 0.39649,0.88867 0,0.43544 -0.214,0.80409 -0.64454,1.10742 -0.43054,0.29844 -1.0054,0.44727 -1.7246,0.44727 -0.66049,0 -1.19645,-0.13909 -1.60743,-0.41797 -0.41097,-0.28376 -0.68235,-0.70104 -0.81445,-1.2539 l -2.12109,0.32226 c 0.18102,0.99807 0.66931,1.76943 1.46679,2.3125 0.79748,0.53818 1.82757,0.80664 3.08985,0.80664 0.91,0 1.71054,-0.14882 2.40039,-0.44726 0.69474,-0.29845 1.23458,-0.71089 1.62109,-1.23438 0.3914,-0.5284 0.58789,-1.12953 0.58789,-1.80469 0,-0.79748 -0.25484,-1.44627 -0.76367,-1.94531 -0.50882,-0.49903 -1.28115,-0.86769 -2.31836,-1.10742 l -1.79101,-0.41016 c -0.62135,-0.14677 -1.07074,-0.33646 -1.34961,-0.5664 -0.27888,-0.22995 -0.41993,-0.53344 -0.41993,-0.91016 0,-0.43544 0.20914,-0.78852 0.625,-1.0625 0.41587,-0.27887 0.93334,-0.41992 1.55469,-0.41992 0.45501,0 0.83534,0.0739 1.13867,0.2207 0.30334,0.14678 0.54262,0.33451 0.71875,0.56446 0.18102,0.22994 0.31331,0.47214 0.39649,0.72656 l 1.98828,-0.35156 c -0.22506,-0.88065 -0.68709,-1.58197 -1.38672,-2.10547 -0.69963,-0.5284 -1.65871,-0.79297 -2.87695,-0.79297 z m 34.42578,0 c -1.047,0 -1.96134,0.24609 -2.74414,0.74023 -0.77791,0.49414 -1.38489,1.18185 -1.82031,2.0625 -0.43055,0.88066 -0.64649,1.8981 -0.64649,3.05274 0,1.16931 0.21594,2.18968 0.64649,3.06054 0.43542,0.86598 1.05212,1.53811 1.8496,2.01758 0.80237,0.47457 1.75854,0.71289 2.86914,0.71289 0.82194,0 1.5544,-0.12548 2.19532,-0.375 0.64581,-0.25441 1.18177,-0.60945 1.60742,-1.06445 0.43055,-0.45989 0.72819,-0.9939 0.89453,-1.60547 l -2.07617,-0.375 c -0.13209,0.35227 -0.3247,0.64894 -0.57422,0.88867 -0.24952,0.23974 -0.54425,0.42066 -0.88672,0.54297 -0.34248,0.11743 -0.72282,0.17578 -1.13867,0.17578 -0.64093,0 -1.20022,-0.13813 -1.67969,-0.41211 -0.47946,-0.27888 -0.85396,-0.68255 -1.12304,-1.21093 -0.24543,-0.49085 -0.37124,-1.08253 -0.38868,-1.76758 h 8.00586 v -0.77735 c 0,-1.02253 -0.13617,-1.89116 -0.41015,-2.60547 -0.27398,-0.7192 -0.64847,-1.30379 -1.12305,-1.7539 -0.47457,-0.45012 -1.01054,-0.78182 -1.60742,-0.99219 -0.59688,-0.21038 -1.21358,-0.31445 -1.84961,-0.31445 z m 45.57422,0 c -1.05678,0 -1.97988,0.2422 -2.76758,0.72656 -0.7877,0.48436 -1.39856,1.1633 -1.83399,2.03906 -0.43543,0.87576 -0.65234,1.89905 -0.65234,3.06836 0,1.16442 0.21691,2.18187 0.65234,3.05274 0.43543,0.87086 1.04629,1.54884 1.83399,2.0332 0.7877,0.48436 1.7108,0.72656 2.76758,0.72656 1.05678,0 1.97988,-0.2422 2.76757,-0.72656 0.7877,-0.48436 1.39856,-1.16234 1.83399,-2.0332 0.43543,-0.87087 0.65234,-1.88832 0.65234,-3.05274 0,-1.16931 -0.21691,-2.1926 -0.65234,-3.06836 -0.43543,-0.87576 -1.04629,-1.5547 -1.83399,-2.03906 -0.78769,-0.48436 -1.71079,-0.72656 -2.76757,-0.72656 z m 13.2539,0 c -0.8464,0 -1.54772,0.18093 -2.10547,0.54297 -0.55285,0.36205 -0.95944,0.84061 -1.21875,1.4375 h -0.14062 v -1.83399 h -2.10547 v 11.27149 h 2.19531 v -6.69141 c 0,-0.59689 0.11088,-1.10659 0.33594,-1.52734 0.22995,-0.42566 0.54219,-0.74859 0.93359,-0.96875 0.3963,-0.22017 0.84861,-0.33008 1.35743,-0.33008 0.74366,0 1.32826,0.23247 1.7539,0.69726 0.42566,0.4599 0.63867,1.09897 0.63867,1.91602 v 6.9043 h 2.19336 v -7.16993 c 0,-0.92958 -0.15855,-1.70871 -0.47656,-2.33984 -0.31801,-0.63113 -0.76643,-1.10581 -1.34375,-1.42383 -0.57732,-0.3229 -1.24946,-0.48437 -2.01758,-0.48437 z m 24.12305,0 c -0.8464,0 -1.59831,0.14201 -2.25391,0.42578 -0.65559,0.27887 -1.16918,0.66697 -1.54101,1.16601 -0.37184,0.49903 -0.55664,1.08071 -0.55664,1.7461 0,0.80237 0.249,1.46673 0.74804,1.99023 0.50393,0.5235 1.2821,0.9048 2.33399,1.14453 l 1.9082,0.41797 c 0.53818,0.12232 0.93601,0.30324 1.19531,0.54297 0.2642,0.23973 0.39649,0.53641 0.39649,0.88867 0,0.43544 -0.21594,0.80409 -0.64649,1.10742 -0.43054,0.29844 -1.0054,0.44727 -1.7246,0.44727 -0.66049,0 -1.19645,-0.13909 -1.60743,-0.41797 -0.41096,-0.28376 -0.68236,-0.70104 -0.81445,-1.2539 l -2.12109,0.32226 c 0.18102,0.99807 0.67127,1.76943 1.46875,2.3125 0.79748,0.53818 1.82757,0.80664 3.08984,0.80664 0.91001,0 1.71054,-0.14882 2.40039,-0.44726 0.69474,-0.29845 1.23459,-0.71089 1.62109,-1.23438 0.39141,-0.5284 0.5879,-1.12953 0.5879,-1.80469 -1e-5,-0.79748 -0.25485,-1.44627 -0.76368,-1.94531 -0.50881,-0.49903 -1.28309,-0.86769 -2.32031,-1.10742 l -1.78906,-0.41016 c -0.62135,-0.14677 -1.07269,-0.33646 -1.35156,-0.5664 -0.27888,-0.22995 -0.41797,-0.53344 -0.41797,-0.91016 0,-0.43544 0.20718,-0.78852 0.62304,-1.0625 0.41587,-0.27887 0.9353,-0.41992 1.55664,-0.41992 0.45501,0 0.83339,0.0739 1.13672,0.2207 0.30334,0.14678 0.54458,0.33451 0.72071,0.56446 0.18102,0.22994 0.31331,0.47214 0.39648,0.72656 l 1.98828,-0.35156 c -0.22504,-0.88065 -0.68708,-1.58197 -1.38672,-2.10547 -0.69962,-0.5284 -1.65871,-0.79297 -2.87695,-0.79297 z m 11.60156,0 c -1.06167,0 -1.98282,0.24609 -2.76562,0.74023 -0.78281,0.49414 -1.38977,1.18185 -1.82032,2.0625 -0.43054,0.87576 -0.64648,1.8864 -0.64648,3.03125 0,1.13018 0.2101,2.13401 0.63086,3.00977 0.42075,0.87576 1.02384,1.56151 1.80664,2.06054 0.7877,0.49415 1.72733,0.74219 2.81836,0.74219 0.89044,0 1.66568,-0.16439 2.32617,-0.49219 0.66538,-0.3278 1.19551,-0.77718 1.5918,-1.34961 0.3963,-0.57241 0.63461,-1.22413 0.71289,-1.95312 h -2.13672 c -0.093,0.40608 -0.25735,0.75431 -0.49219,1.04297 -0.22995,0.28866 -0.51494,0.51141 -0.85742,0.66797 -0.33757,0.15167 -0.71499,0.22656 -1.13086,0.22656 -0.62135,0 -1.16119,-0.16243 -1.62109,-0.49023 -0.455,-0.3278 -0.80712,-0.79178 -1.05664,-1.38868 -0.24952,-0.59688 -0.375,-1.305 -0.375,-2.12695 0,-0.80237 0.12644,-1.49688 0.38086,-2.08398 0.25441,-0.592 0.60944,-1.04722 1.06445,-1.36524 0.45989,-0.3229 0.99586,-0.48437 1.60742,-0.48437 0.69963,0 1.25796,0.19064 1.67383,0.57226 0.42075,0.38162 0.68922,0.83684 0.80664,1.36524 h 2.13672 c -0.0783,-0.75834 -0.32632,-1.4227 -0.74219,-1.99024 -0.41097,-0.56753 -0.95082,-1.00719 -1.62109,-1.32031 -0.67028,-0.31801 -1.43483,-0.47656 -2.29102,-0.47656 z m 24.15625,0 c -1.047,0 -1.96134,0.24609 -2.74414,0.74023 -0.77791,0.49414 -1.38488,1.18185 -1.82031,2.0625 -0.43053,0.88066 -0.64649,1.8981 -0.64648,3.05274 -1e-5,1.16931 0.21595,2.18968 0.64648,3.06054 0.43543,0.86598 1.05213,1.53811 1.84961,2.01758 0.80238,0.47457 1.75855,0.71289 2.86914,0.71289 0.82195,0 1.55244,-0.12548 2.19336,-0.375 0.64581,-0.25441 1.18177,-0.60945 1.60742,-1.06445 0.43053,-0.45989 0.73014,-0.9939 0.89649,-1.60547 l -2.07813,-0.375 c -0.1321,0.35227 -0.32275,0.64894 -0.57227,0.88867 -0.24951,0.23974 -0.54423,0.42066 -0.88671,0.54297 -0.34248,0.11743 -0.72281,0.17578 -1.13868,0.17578 -0.64091,0 -1.20021,-0.13813 -1.67968,-0.41211 -0.47947,-0.27888 -0.85396,-0.68255 -1.12305,-1.21093 -0.24542,-0.49085 -0.37123,-1.08253 -0.38867,-1.76758 h 8.00586 v -0.77735 c 0,-1.02253 -0.13618,-1.89116 -0.41016,-2.60547 -0.27399,-0.7192 -0.64848,-1.30379 -1.12305,-1.7539 -0.47457,-0.45012 -1.01052,-0.78182 -1.60742,-0.99219 -0.59688,-0.21038 -1.21358,-0.31445 -1.84961,-0.31445 z m 12.75781,0 c -0.74366,0 -1.38078,0.17508 -1.91406,0.52734 -0.53328,0.34737 -0.91749,0.83177 -1.15234,1.45313 h -0.14063 v -1.83399 h -2.10547 v 11.27149 h 2.19336 v -6.94922 c 0,-0.50882 0.10603,-0.95725 0.31641,-1.34375 0.21527,-0.38651 0.49638,-0.68707 0.84375,-0.90235 0.35227,-0.22016 0.73649,-0.33007 1.15234,-0.33007 0.61157,0 1.10862,0.18676 1.49024,0.55859 0.38161,0.37183 0.57226,0.86304 0.57226,1.47461 v 7.49219 h 2.1875 v -7.1836 c 0,-0.68495 0.19746,-1.2462 0.59375,-1.68164 0.3963,-0.44032 0.95171,-0.66015 1.66602,-0.66015 0.57732,0 1.07437,0.17119 1.49023,0.51367 0.41587,0.34247 0.62305,0.89497 0.62305,1.6582 v 7.35352 h 2.19336 v -7.5586 c 0,-1.29162 -0.32391,-2.25752 -0.97461,-2.89843 -0.64581,-0.64092 -1.48137,-0.96094 -2.5039,-0.96094 -0.81216,0 -1.51056,0.18093 -2.09766,0.54297 -0.58711,0.35715 -1.01607,0.83571 -1.28516,1.4375 h -0.11718 c -0.24463,-0.61646 -0.62301,-1.10086 -1.13672,-1.45313 -0.50883,-0.35226 -1.1411,-0.52734 -1.89454,-0.52734 z m 17.634768,0 c -1.047,0 -1.96134,0.24609 -2.74414,0.74023 -0.77791,0.49414 -1.38488,1.18185 -1.82031,2.0625 -0.43054,0.88066 -0.64453,1.8981 -0.64453,3.05274 0,1.16931 0.21399,2.18968 0.64453,3.06054 0.43543,0.86598 1.05213,1.53811 1.84961,2.01758 0.80238,0.47457 1.75854,0.71289 2.86914,0.71289 0.82194,0 1.55438,-0.12548 2.19531,-0.375 0.64581,-0.25441 1.18177,-0.60945 1.60742,-1.06445 0.43054,-0.45989 0.72819,-0.9939 0.89453,-1.60547 l -2.07617,-0.375 c -0.1321,0.35227 -0.32275,0.64894 -0.57226,0.88867 -0.24952,0.23974 -0.5462,0.42066 -0.88868,0.54297 -0.34247,0.11743 -0.72085,0.17578 -1.13672,0.17578 -0.64091,0 -1.20216,-0.13813 -1.68164,-0.41211 -0.47946,-0.27888 -0.85395,-0.68255 -1.12304,-1.21093 -0.24542,-0.49085 -0.37124,-1.08253 -0.38867,-1.76758 h 8.00585 v -0.77735 c 0,-1.02253 -0.13617,-1.89116 -0.41015,-2.60547 -0.27399,-0.7192 -0.64848,-1.30379 -1.12305,-1.7539 -0.47457,-0.45012 -1.01053,-0.78182 -1.60742,-0.99219 -0.59689,-0.21038 -1.21358,-0.31445 -1.84961,-0.31445 z m -321.341788,0.14648 3.4629,5.63672 -3.5078,5.63477 h 2.4082 l 2.5312,-4.21094 2.5391,4.21094 h 2.4004 l -3.5449,-5.63477 3.5156,-5.63672 h -2.4004 l -2.5098,4.38867 -2.4883,-4.38867 z m 187.63671,0 v 11.27149 h 2.19531 v -11.27149 z m -219.33591,1.66602 c 0.5674,0 1.0615,0.12936 1.4824,0.38867 0.4256,0.2593 0.7554,0.61435 0.9902,1.06445 0.2348,0.44522 0.3516,0.95589 0.3516,1.53321 h -5.8398 c 0.027,-0.48245 0.1299,-0.93848 0.3437,-1.35743 0.2495,-0.48436 0.6016,-0.87538 1.0566,-1.17382 0.4599,-0.30334 0.9988,-0.45508 1.6153,-0.45508 z m 25.1855,0 c 0.5675,0 1.0616,0.12936 1.4824,0.38867 0.4257,0.2593 0.7555,0.61435 0.9903,1.06445 0.2348,0.44522 0.3535,0.95589 0.3535,1.53321 h -5.8418 c 0.027,-0.48245 0.13,-0.93848 0.3437,-1.35743 0.2495,-0.48436 0.6017,-0.87538 1.0567,-1.17382 0.4599,-0.30334 0.9988,-0.45508 1.6152,-0.45508 z m 89.84963,0 c 0.56753,0 1.06167,0.12936 1.48242,0.38867 0.42566,0.2593 0.7554,0.61435 0.99024,1.06445 0.23484,0.44522 0.35156,0.95589 0.35156,1.53321 h -5.83984 c 0.027,-0.48245 0.13,-0.93848 0.34375,-1.35743 0.24951,-0.48436 0.60164,-0.87538 1.05664,-1.17382 0.4599,-0.30334 0.99878,-0.45508 1.61523,-0.45508 z m 88.91992,0 c 0.56754,0 1.06167,0.12936 1.48243,0.38867 0.42564,0.2593 0.75538,0.61435 0.99023,1.06445 0.23484,0.44522 0.35156,0.95589 0.35156,1.53321 h -5.83984 c 0.027,-0.48245 0.13,-0.93848 0.34375,-1.35743 0.24952,-0.48436 0.60164,-0.87538 1.05664,-1.17382 0.4599,-0.30334 0.99877,-0.45508 1.61523,-0.45508 z m 118.70703,0 c 0.56754,0 1.06167,0.12936 1.48243,0.38867 0.42565,0.2593 0.75734,0.61435 0.99218,1.06445 0.23484,0.44522 0.35157,0.95589 0.35157,1.53321 h -5.83985 c 0.027,-0.48245 0.13,-0.93848 0.34375,-1.35743 0.24952,-0.48436 0.60164,-0.87538 1.05664,-1.17382 0.4599,-0.30334 0.99683,-0.45508 1.61328,-0.45508 z m 30.394538,0 c 0.56753,0 1.06166,0.12936 1.48242,0.38867 0.42564,0.2593 0.75539,0.61435 0.99023,1.06445 0.23484,0.44522 0.35352,0.95589 0.35352,1.53321 h -5.8418 c 0.027,-0.48245 0.13,-0.93848 0.34375,-1.35743 0.24951,-0.48436 0.60163,-0.87538 1.05664,-1.17382 0.4599,-0.30334 0.99878,-0.45508 1.61524,-0.45508 z m -284.199218,0.0215 c 0.6849,0 1.253,0.18385 1.7031,0.55078 0.4502,0.36694 0.7828,0.85427 0.9981,1.46094 0.2201,0.60178 0.33,1.26126 0.33,1.98047 0,0.72409 -0.1099,1.38845 -0.33,1.99023 -0.2153,0.60178 -0.5479,1.08328 -0.9981,1.44532 -0.4501,0.36204 -1.0182,0.54296 -1.7031,0.54296 -0.6899,0 -1.2618,-0.18092 -1.7168,-0.54296 -0.4501,-0.36204 -0.7857,-0.84354 -1.0059,-1.44532 -0.2152,-0.60178 -0.3222,-1.26614 -0.3222,-1.99023 0,-0.71921 0.107,-1.37869 0.3222,-1.98047 0.2202,-0.60667 0.5558,-1.094 1.0059,-1.46094 0.455,-0.36693 1.0269,-0.55078 1.7168,-0.55078 z m 180.66406,0 c 0.68495,0 1.25301,0.18385 1.70312,0.55078 0.45012,0.36694 0.78278,0.85427 0.99805,1.46094 0.22016,0.60178 0.33008,1.26126 0.33008,1.98047 0,0.72409 -0.10992,1.38845 -0.33008,1.99023 -0.21527,0.60178 -0.54793,1.08328 -0.99805,1.44532 -0.45011,0.36204 -1.01817,0.54296 -1.70312,0.54296 -0.68985,0 -1.26179,-0.18092 -1.7168,-0.54296 -0.45011,-0.36204 -0.7857,-0.84354 -1.00586,-1.44532 -0.21527,-0.60178 -0.32226,-1.26614 -0.32226,-1.99023 0,-0.71921 0.10699,-1.37869 0.32226,-1.98047 0.22016,-0.60667 0.55575,-1.094 1.00586,-1.46094 0.45501,-0.36693 1.02695,-0.55078 1.7168,-0.55078 z m -267.02926,0.0293 c 0.6604,0 1.2101,0.1712 1.6504,0.51367 0.4452,0.34248 0.7798,0.81035 1,1.40234 0.225,0.592 0.3359,1.26025 0.3359,2.00391 0,0.75345 -0.1138,1.43142 -0.3438,2.0332 -0.225,0.60178 -0.5577,1.07744 -0.998,1.42969 -0.4404,0.34737 -0.989,0.52149 -1.6445,0.52149 -0.6312,0 -1.1642,-0.16731 -1.5996,-0.5 -0.4355,-0.33759 -0.7682,-0.80352 -0.9981,-1.4004 -0.2299,-0.59688 -0.3457,-1.29139 -0.3457,-2.08398 0,-0.7828 0.1128,-1.46758 0.3379,-2.05469 0.2251,-0.5871 0.5548,-1.04525 0.9902,-1.37304 0.4404,-0.3278 0.9792,-0.49219 1.6153,-0.49219 z m 193.87692,2.2539 v 1.9004 h 6.6621 v -1.9004 z m -222.31052,1.78321 v 1.45312 c 0,0.44522 -0.1159,0.86251 -0.3457,1.25391 -0.2251,0.38651 -0.5548,0.69972 -0.9903,0.93945 -0.4305,0.23974 -0.9499,0.35938 -1.5566,0.35938 -0.6214,0 -1.132,-0.13618 -1.5332,-0.41016 -0.4011,-0.27888 -0.6016,-0.68935 -0.6016,-1.23242 0,-0.3914 0.1032,-0.70461 0.3086,-0.93945 0.2104,-0.23973 0.4886,-0.42358 0.836,-0.55078 0.3522,-0.12722 0.7423,-0.21769 1.1679,-0.27149 0.1811,-0.0245 0.4048,-0.0537 0.6739,-0.0879 0.269,-0.0391 0.5463,-0.0809 0.83,-0.125 0.2838,-0.0489 0.5358,-0.10437 0.7559,-0.16797 0.2251,-0.0685 0.3768,-0.14242 0.4551,-0.2207 z m 193.82419,0 v 1.45312 c 0,0.44522 -0.11575,0.86251 -0.34571,1.25391 -0.22505,0.38651 -0.5548,0.69972 -0.99023,0.93945 -0.43055,0.23974 -0.94802,0.35938 -1.55469,0.35938 -0.62135,0 -1.13397,-0.13618 -1.53515,-0.41016 -0.4012,-0.27888 -0.60157,-0.68935 -0.60157,-1.23242 0,-0.3914 0.1031,-0.70461 0.3086,-0.93945 0.21037,-0.23973 0.48857,-0.42358 0.83594,-0.55078 0.35226,-0.12722 0.74232,-0.21769 1.16796,-0.27149 0.18102,-0.0245 0.40474,-0.0537 0.67383,-0.0879 0.26908,-0.0391 0.54631,-0.0809 0.83008,-0.125 0.28376,-0.0489 0.53569,-0.10437 0.75586,-0.16797 0.22506,-0.0685 0.3768,-0.14242 0.45508,-0.2207 z m 214.050778,2.73047 c -0.40119,0 -0.7465,0.14298 -1.03516,0.43164 -0.28866,0.28376 -0.43359,0.62615 -0.43359,1.02734 0,0.40608 0.14493,0.75431 0.43359,1.04297 0.28866,0.28377 0.63397,0.42578 1.03516,0.42578 0.26909,0 0.51225,-0.0671 0.73242,-0.19922 0.22016,-0.13209 0.3972,-0.30718 0.5293,-0.52734 0.13699,-0.22506 0.20508,-0.4731 0.20508,-0.74219 0,-0.40119 -0.14494,-0.74358 -0.4336,-1.02734 -0.28866,-0.28866 -0.63201,-0.43164 -1.0332,-0.43164 z"
       id="path1144" />
  </g>
</svg>
