<svg id="font-preview-modern" width="100%" height="100%" viewBox="0 0 640 120" xmlns="http://www.w3.org/2000/svg"><g transform="matrix(0.738505,0,0,1,-5.92656,-1.84399)"><path d="M17.8,98.431C16.083,98.431 14.531,98.267 13.145,97.939C11.759,97.61 10.559,97.133 9.546,96.506L10.446,94.994C11.501,95.59 12.607,96.033 13.766,96.323C14.924,96.613 16.269,96.759 17.8,96.759C19.662,96.759 21.043,96.503 21.943,95.991C22.842,95.479 23.292,94.803 23.292,93.963C23.292,93.29 22.967,92.756 22.315,92.359C21.663,91.961 20.572,91.648 19.041,91.419L15.814,90.938C13.869,90.632 12.416,90.132 11.454,89.437C10.492,88.742 10.011,87.813 10.011,86.652C10.011,85.69 10.347,84.85 11.02,84.131C11.692,83.413 12.628,82.856 13.828,82.459C15.028,82.061 16.414,81.863 17.986,81.863C19.455,81.863 20.82,82.035 22.082,82.378C23.344,82.722 24.41,83.215 25.278,83.856L24.378,85.323C23.448,84.697 22.465,84.242 21.431,83.96C20.396,83.677 19.238,83.536 17.955,83.536C16.321,83.536 15.017,83.814 14.045,84.372C13.073,84.93 12.587,85.667 12.587,86.584C12.587,87.317 12.892,87.897 13.502,88.325C14.112,88.753 15.111,89.066 16.497,89.265L19.724,89.769C21.813,90.09 23.36,90.575 24.363,91.224C25.366,91.873 25.868,92.756 25.868,93.871C25.868,94.772 25.542,95.567 24.891,96.254C24.239,96.942 23.308,97.477 22.098,97.859C20.887,98.24 19.455,98.431 17.8,98.431Z"/></g><g transform="matrix(0.738505,0,0,1,-5.92656,-1.84399)"><path d="M34.215,98.431C33.181,98.431 32.255,98.283 31.438,97.985C30.621,97.687 29.974,97.278 29.499,96.759C29.023,96.239 28.785,95.659 28.785,95.017C28.785,94.207 29.069,93.565 29.638,93.092C30.207,92.618 31.148,92.278 32.462,92.072C33.776,91.866 35.57,91.763 37.846,91.763L38.839,91.763L38.839,91.052C38.839,90.105 38.575,89.421 38.048,89.001C37.52,88.581 36.677,88.371 35.519,88.371C34.608,88.371 33.729,88.467 32.881,88.658C32.033,88.848 31.164,89.158 30.274,89.586L29.406,88.234C30.192,87.821 31.148,87.493 32.276,87.248C33.403,87.004 34.484,86.881 35.519,86.881C37.463,86.881 38.906,87.233 39.848,87.936C40.789,88.638 41.259,89.731 41.259,91.213L41.259,98.225L38.901,98.225L38.901,96.3C38.508,96.957 37.903,97.477 37.086,97.859C36.269,98.24 35.312,98.431 34.215,98.431ZM34.619,97.034C35.86,97.034 36.874,96.717 37.66,96.083C38.446,95.448 38.839,94.643 38.839,93.665L38.839,92.977L37.877,92.977C36.201,92.977 34.883,93.035 33.921,93.149C32.959,93.264 32.286,93.462 31.904,93.745C31.521,94.028 31.329,94.413 31.329,94.902C31.329,95.529 31.624,96.04 32.214,96.438C32.803,96.835 33.605,97.034 34.619,97.034Z"/></g><g transform="matrix(0.738505,0,0,1,-5.92656,-1.84399)"><path d="M45.976,98.225L45.976,87.088L48.428,87.088L48.428,88.967C48.883,88.295 49.514,87.779 50.321,87.42C51.127,87.061 52.069,86.881 53.144,86.881C55.503,86.881 57.013,87.638 57.675,89.15C58.13,88.447 58.802,87.894 59.692,87.489C60.582,87.084 61.606,86.881 62.764,86.881C66.115,86.881 67.791,88.348 67.791,91.281L67.791,98.225L65.278,98.225L65.278,91.373C65.278,90.35 65.034,89.597 64.548,89.116C64.062,88.635 63.261,88.394 62.143,88.394C60.923,88.394 59.951,88.715 59.226,89.356C58.502,89.998 58.14,90.854 58.14,91.923L58.14,98.225L55.627,98.225L55.627,91.373C55.627,90.35 55.384,89.597 54.898,89.116C54.411,88.635 53.61,88.394 52.493,88.394C51.251,88.394 50.274,88.715 49.56,89.356C48.847,89.998 48.49,90.854 48.49,91.923L48.49,98.225L45.976,98.225Z"/></g><g transform="matrix(0.738505,0,0,1,-5.92656,-1.84399)"><path d="M72.477,102.35L72.477,87.088L74.928,87.088L74.928,89.081C75.383,88.394 76.061,87.855 76.961,87.466C77.861,87.076 78.911,86.881 80.11,86.881C81.455,86.881 82.629,87.114 83.633,87.58C84.636,88.046 85.412,88.711 85.96,89.574C86.508,90.437 86.782,91.465 86.782,92.656C86.782,93.833 86.508,94.853 85.96,95.716C85.412,96.579 84.636,97.247 83.633,97.721C82.629,98.195 81.455,98.431 80.11,98.431C78.952,98.431 77.918,98.24 77.007,97.859C76.097,97.477 75.425,96.95 74.99,96.277L74.99,102.35L72.477,102.35ZM79.583,96.942C80.99,96.942 82.117,96.571 82.965,95.83C83.814,95.089 84.238,94.031 84.238,92.656C84.238,91.266 83.814,90.204 82.965,89.471C82.117,88.738 80.99,88.371 79.583,88.371C78.176,88.371 77.049,88.738 76.201,89.471C75.352,90.204 74.928,91.266 74.928,92.656C74.928,94.031 75.352,95.089 76.201,95.83C77.049,96.571 78.176,96.942 79.583,96.942Z"/></g><g transform="matrix(0.738505,0,0,1,-5.92656,-1.84399)"><path d="M95.192,98.431C93.661,98.431 92.507,98.099 91.732,97.435C90.956,96.77 90.568,95.804 90.568,94.536L90.568,82.069L93.081,82.069L93.081,94.398C93.081,96.033 93.961,96.85 95.719,96.85C96.236,96.85 96.702,96.804 97.116,96.713L97.053,98.271C96.412,98.378 95.792,98.431 95.192,98.431Z"/></g><g transform="matrix(0.738505,0,0,1,-5.92656,-1.84399)"><path d="M106.394,98.431C104.015,98.431 102.132,97.916 100.746,96.885C99.36,95.853 98.667,94.452 98.667,92.679C98.667,91.534 98.977,90.521 99.598,89.643C100.219,88.764 101.072,88.085 102.158,87.603C103.244,87.122 104.501,86.881 105.928,86.881C107.976,86.881 109.58,87.367 110.738,88.337C111.897,89.307 112.476,90.64 112.476,92.336L112.476,93.046L101.119,93.046C101.201,94.314 101.698,95.28 102.608,95.945C103.518,96.61 104.78,96.942 106.394,96.942C107.304,96.942 108.173,96.839 109,96.633C109.828,96.426 110.614,96.086 111.359,95.613L112.228,96.919C111.545,97.393 110.676,97.763 109.621,98.03C108.566,98.298 107.49,98.431 106.394,98.431ZM105.99,88.256C104.563,88.256 103.436,88.585 102.608,89.242C101.781,89.899 101.294,90.762 101.15,91.831L110.304,91.831C110.242,90.701 109.843,89.822 109.109,89.196C108.375,88.57 107.335,88.256 105.99,88.256Z"/></g><g transform="matrix(0.738505,0,0,1,-5.92656,-1.84399)"><path d="M130.133,98.431C128.354,98.431 127.019,98.084 126.13,97.389C125.24,96.694 124.795,95.689 124.795,94.375L124.795,88.531L121.847,88.531L121.847,87.088L124.795,87.088L124.795,83.673L127.309,83.673L127.309,87.088L132.088,87.088L132.088,88.531L127.309,88.531L127.309,94.192C127.309,95.063 127.557,95.723 128.054,96.174C128.55,96.625 129.357,96.85 130.474,96.85C130.805,96.85 131.136,96.82 131.467,96.759C131.798,96.697 132.098,96.636 132.367,96.575L132.801,97.996C132.532,98.103 132.139,98.202 131.622,98.294C131.105,98.386 130.609,98.431 130.133,98.431Z"/></g><g transform="matrix(0.738505,0,0,1,-5.92656,-1.84399)"><path d="M141.583,98.431C139.204,98.431 137.322,97.916 135.936,96.885C134.549,95.853 133.856,94.452 133.856,92.679C133.856,91.534 134.167,90.521 134.787,89.643C135.408,88.764 136.261,88.085 137.347,87.603C138.434,87.122 139.69,86.881 141.118,86.881C143.166,86.881 144.769,87.367 145.928,88.337C147.086,89.307 147.665,90.64 147.665,92.336L147.665,93.046L136.308,93.046C136.391,94.314 136.887,95.28 137.797,95.945C138.708,96.61 139.97,96.942 141.583,96.942C142.493,96.942 143.362,96.839 144.19,96.633C145.017,96.426 145.803,96.086 146.548,95.613L147.417,96.919C146.734,97.393 145.866,97.763 144.81,98.03C143.755,98.298 142.68,98.431 141.583,98.431ZM141.18,88.256C139.752,88.256 138.625,88.585 137.797,89.242C136.97,89.899 136.484,90.762 136.339,91.831L145.493,91.831C145.431,90.701 145.033,89.822 144.298,89.196C143.564,88.57 142.524,88.256 141.18,88.256Z"/></g><g transform="matrix(0.738505,0,0,1,-5.92656,-1.84399)"><path d="M149.248,98.225L155.516,92.473L149.62,87.088L152.599,87.088L156.975,91.19L161.381,87.088L164.329,87.088L158.433,92.473L164.701,98.225L161.722,98.225L156.944,93.802L152.227,98.225L149.248,98.225Z"/></g><g transform="matrix(0.738505,0,0,1,-5.92656,-1.84399)"><path d="M173.514,98.431C171.735,98.431 170.401,98.084 169.511,97.389C168.622,96.694 168.177,95.689 168.177,94.375L168.177,88.531L165.229,88.531L165.229,87.088L168.177,87.088L168.177,83.673L170.69,83.673L170.69,87.088L175.469,87.088L175.469,88.531L170.69,88.531L170.69,94.192C170.69,95.063 170.939,95.723 171.435,96.174C171.932,96.625 172.738,96.85 173.856,96.85C174.187,96.85 174.518,96.82 174.849,96.759C175.18,96.697 175.48,96.636 175.749,96.575L176.183,97.996C175.914,98.103 175.521,98.202 175.004,98.294C174.487,98.386 173.99,98.431 173.514,98.431Z"/></g><g transform="matrix(0.738505,0,0,1,-5.92656,-1.84399)"><path d="M187.106,98.225L187.106,88.531L184.127,88.531L184.127,87.088L187.106,87.088L187.106,86.698C187.106,85.216 187.608,84.093 188.611,83.329C189.614,82.565 191.161,82.138 193.25,82.046L194.46,82L194.678,83.421L193.25,83.49C191.967,83.566 191.042,83.849 190.473,84.338C189.904,84.827 189.619,85.537 189.619,86.469L189.619,87.088L193.964,87.088L193.964,88.531L189.619,88.531L189.619,98.225L187.106,98.225Z"/></g><g transform="matrix(0.738505,0,0,1,-5.92656,-1.84399)"><path d="M202.466,98.431C200.998,98.431 199.725,98.195 198.65,97.721C197.574,97.247 196.741,96.579 196.152,95.716C195.562,94.853 195.267,93.833 195.267,92.656C195.267,91.48 195.562,90.46 196.152,89.597C196.741,88.734 197.574,88.065 198.65,87.592C199.725,87.118 200.998,86.881 202.466,86.881C203.914,86.881 205.182,87.118 206.268,87.592C207.354,88.065 208.192,88.734 208.781,89.597C209.371,90.46 209.666,91.48 209.666,92.656C209.666,93.833 209.371,94.853 208.781,95.716C208.192,96.579 207.354,97.247 206.268,97.721C205.182,98.195 203.914,98.431 202.466,98.431ZM202.466,96.942C203.873,96.942 205.001,96.571 205.849,95.83C206.697,95.089 207.121,94.031 207.121,92.656C207.121,91.266 206.697,90.204 205.849,89.471C205.001,88.738 203.873,88.371 202.466,88.371C201.039,88.371 199.906,88.738 199.068,89.471C198.231,90.204 197.812,91.266 197.812,92.656C197.812,94.031 198.231,95.089 199.068,95.83C199.906,96.571 201.039,96.942 202.466,96.942Z"/></g><g transform="matrix(0.738505,0,0,1,-5.92656,-1.84399)"><path d="M213.451,98.225L213.451,87.088L215.903,87.088L215.903,89.081C216.71,87.737 218.365,86.996 220.868,86.859L221.768,86.79L221.954,88.394L220.371,88.531C218.944,88.623 217.858,88.955 217.113,89.528C216.368,90.101 215.996,90.884 215.996,91.877L215.996,98.225L213.451,98.225Z"/></g><g transform="matrix(0.738505,0,0,1,-5.92656,-1.84399)"><path d="M238.587,98.431C236.808,98.431 235.473,98.084 234.584,97.389C233.694,96.694 233.249,95.689 233.249,94.375L233.249,88.531L230.301,88.531L230.301,87.088L233.249,87.088L233.249,83.673L235.763,83.673L235.763,87.088L240.542,87.088L240.542,88.531L235.763,88.531L235.763,94.192C235.763,95.063 236.011,95.723 236.508,96.174C237.004,96.625 237.811,96.85 238.928,96.85C239.259,96.85 239.59,96.82 239.921,96.759C240.252,96.697 240.552,96.636 240.821,96.575L241.255,97.996C240.986,98.103 240.593,98.202 240.076,98.294C239.559,98.386 239.062,98.431 238.587,98.431Z"/></g><g transform="matrix(0.738505,0,0,1,-5.92656,-1.84399)"><path d="M243.396,98.225L243.396,82.069L245.91,82.069L245.91,88.921C246.406,88.249 247.105,87.741 248.005,87.397C248.904,87.053 249.913,86.881 251.03,86.881C254.609,86.881 256.399,88.348 256.399,91.281L256.399,98.225L253.885,98.225L253.885,91.396C253.885,90.357 253.611,89.597 253.063,89.116C252.514,88.635 251.64,88.394 250.441,88.394C249.054,88.394 247.953,88.711 247.136,89.345C246.319,89.979 245.91,90.823 245.91,91.877L245.91,98.225L243.396,98.225Z"/></g><g transform="matrix(0.738505,0,0,1,-5.92656,-1.84399)"><path d="M267.818,98.431C265.439,98.431 263.556,97.916 262.17,96.885C260.784,95.853 260.091,94.452 260.091,92.679C260.091,91.534 260.402,90.521 261.022,89.643C261.643,88.764 262.496,88.085 263.582,87.603C264.668,87.122 265.925,86.881 267.353,86.881C269.401,86.881 271.004,87.367 272.162,88.337C273.321,89.307 273.9,90.64 273.9,92.336L273.9,93.046L262.543,93.046C262.625,94.314 263.122,95.28 264.032,95.945C264.942,96.61 266.204,96.942 267.818,96.942C268.728,96.942 269.597,96.839 270.425,96.633C271.252,96.426 272.038,96.086 272.783,95.613L273.652,96.919C272.969,97.393 272.1,97.763 271.045,98.03C269.99,98.298 268.914,98.431 267.818,98.431ZM267.415,88.256C265.987,88.256 264.86,88.585 264.032,89.242C263.205,89.899 262.719,90.762 262.574,91.831L271.728,91.831C271.666,90.701 271.268,89.822 270.533,89.196C269.799,88.57 268.759,88.256 267.415,88.256Z"/></g><g transform="matrix(0.738505,0,0,1,-5.92656,-1.84399)"><path d="M285.909,98.225L285.909,82.069L288.05,82.069L296.46,93.734L304.807,82.069L306.948,82.069L306.948,98.225L304.59,98.225L304.59,85.598L297.298,95.727L295.622,95.727L288.236,85.621L288.236,98.225L285.909,98.225Z"/></g><g transform="matrix(0.738505,0,0,1,-5.92656,-1.84399)"><path d="M318.306,98.431C316.837,98.431 315.565,98.195 314.489,97.721C313.413,97.247 312.58,96.579 311.991,95.716C311.401,94.853 311.106,93.833 311.106,92.656C311.106,91.48 311.401,90.46 311.991,89.597C312.58,88.734 313.413,88.065 314.489,87.592C315.565,87.118 316.837,86.881 318.306,86.881C319.754,86.881 321.021,87.118 322.107,87.592C323.193,88.065 324.031,88.734 324.621,89.597C325.21,90.46 325.505,91.48 325.505,92.656C325.505,93.833 325.21,94.853 324.621,95.716C324.031,96.579 323.193,97.247 322.107,97.721C321.021,98.195 319.754,98.431 318.306,98.431ZM318.306,96.942C319.712,96.942 320.84,96.571 321.688,95.83C322.536,95.089 322.96,94.031 322.96,92.656C322.96,91.266 322.536,90.204 321.688,89.471C320.84,88.738 319.712,88.371 318.306,88.371C316.878,88.371 315.746,88.738 314.908,89.471C314.07,90.204 313.651,91.266 313.651,92.656C313.651,94.031 314.07,95.089 314.908,95.83C315.746,96.571 316.878,96.942 318.306,96.942Z"/></g><g transform="matrix(0.738505,0,0,1,-5.92656,-1.84399)"><path d="M335.031,98.431C333.687,98.431 332.513,98.195 331.509,97.721C330.506,97.247 329.73,96.579 329.182,95.716C328.634,94.853 328.36,93.833 328.36,92.656C328.36,91.465 328.634,90.437 329.182,89.574C329.73,88.711 330.506,88.046 331.509,87.58C332.513,87.114 333.687,86.881 335.031,86.881C336.211,86.881 337.25,87.072 338.15,87.454C339.05,87.836 339.717,88.363 340.152,89.036L340.152,82.069L342.665,82.069L342.665,98.225L340.214,98.225L340.214,96.186C339.779,96.888 339.107,97.438 338.197,97.836C337.286,98.233 336.231,98.431 335.031,98.431ZM335.559,96.942C336.966,96.942 338.093,96.571 338.941,95.83C339.79,95.089 340.214,94.031 340.214,92.656C340.214,91.266 339.79,90.204 338.941,89.471C338.093,88.738 336.966,88.371 335.559,88.371C334.132,88.371 332.999,88.738 332.161,89.471C331.323,90.204 330.904,91.266 330.904,92.656C330.904,94.031 331.323,95.089 332.161,95.83C332.999,96.571 334.132,96.942 335.559,96.942Z"/></g><g transform="matrix(0.738505,0,0,1,-5.92656,-1.84399)"><path d="M354.178,98.431C351.799,98.431 349.916,97.916 348.53,96.885C347.144,95.853 346.451,94.452 346.451,92.679C346.451,91.534 346.761,90.521 347.382,89.643C348.003,88.764 348.856,88.085 349.942,87.603C351.028,87.122 352.285,86.881 353.712,86.881C355.76,86.881 357.364,87.367 358.522,88.337C359.681,89.307 360.26,90.64 360.26,92.336L360.26,93.046L348.902,93.046C348.985,94.314 349.482,95.28 350.392,95.945C351.302,96.61 352.564,96.942 354.178,96.942C355.088,96.942 355.957,96.839 356.784,96.633C357.612,96.426 358.398,96.086 359.143,95.613L360.012,96.919C359.329,97.393 358.46,97.763 357.405,98.03C356.35,98.298 355.274,98.431 354.178,98.431ZM353.774,88.256C352.347,88.256 351.219,88.585 350.392,89.242C349.564,89.899 349.078,90.762 348.933,91.831L358.088,91.831C358.026,90.701 357.627,89.822 356.893,89.196C356.159,88.57 355.119,88.256 353.774,88.256Z"/></g><g transform="matrix(0.738505,0,0,1,-5.92656,-1.84399)"><path d="M363.89,98.225L363.89,87.088L366.342,87.088L366.342,89.081C367.149,87.737 368.804,86.996 371.307,86.859L372.207,86.79L372.393,88.394L370.81,88.531C369.383,88.623 368.297,88.955 367.552,89.528C366.807,90.101 366.435,90.884 366.435,91.877L366.435,98.225L363.89,98.225Z"/></g><g transform="matrix(0.738505,0,0,1,-5.92656,-1.84399)"><path d="M375,98.225L375,87.088L377.451,87.088L377.451,88.99C377.948,88.287 378.651,87.76 379.561,87.409C380.471,87.057 381.495,86.881 382.633,86.881C386.212,86.881 388.002,88.348 388.002,91.281L388.002,98.225L385.488,98.225L385.488,91.396C385.488,90.357 385.214,89.597 384.666,89.116C384.118,88.635 383.244,88.394 382.044,88.394C380.658,88.394 379.556,88.711 378.739,89.345C377.922,89.979 377.513,90.823 377.513,91.877L377.513,98.225L375,98.225Z"/></g><g transform="matrix(0.738505,0,0,1,-5.92656,-1.84399)"><path d="M401.407,98.225L401.407,88.531L398.428,88.531L398.428,87.088L401.407,87.088L401.407,86.698C401.407,85.216 401.909,84.093 402.912,83.329C403.916,82.565 405.462,82.138 407.551,82.046L408.762,82L408.979,83.421L407.551,83.49C406.269,83.566 405.343,83.849 404.774,84.338C404.205,84.827 403.921,85.537 403.921,86.469L403.921,87.088L408.265,87.088L408.265,88.531L403.921,88.531L403.921,98.225L401.407,98.225Z"/></g><g transform="matrix(0.738505,0,0,1,-5.92656,-1.84399)"><path d="M416.768,98.431C415.299,98.431 414.026,98.195 412.951,97.721C411.875,97.247 411.042,96.579 410.453,95.716C409.863,94.853 409.568,93.833 409.568,92.656C409.568,91.48 409.863,90.46 410.453,89.597C411.042,88.734 411.875,88.065 412.951,87.592C414.026,87.118 415.299,86.881 416.768,86.881C418.216,86.881 419.483,87.118 420.569,87.592C421.655,88.065 422.493,88.734 423.082,89.597C423.672,90.46 423.967,91.48 423.967,92.656C423.967,93.833 423.672,94.853 423.082,95.716C422.493,96.579 421.655,97.247 420.569,97.721C419.483,98.195 418.216,98.431 416.768,98.431ZM416.768,96.942C418.174,96.942 419.302,96.571 420.15,95.83C420.998,95.089 421.422,94.031 421.422,92.656C421.422,91.266 420.998,90.204 420.15,89.471C419.302,88.738 418.174,88.371 416.768,88.371C415.34,88.371 414.208,88.738 413.37,89.471C412.532,90.204 412.113,91.266 412.113,92.656C412.113,94.031 412.532,95.089 413.37,95.83C414.208,96.571 415.34,96.942 416.768,96.942Z"/></g><g transform="matrix(0.738505,0,0,1,-5.92656,-1.84399)"><path d="M427.753,98.225L427.753,87.088L430.204,87.088L430.204,88.99C430.701,88.287 431.404,87.76 432.314,87.409C433.224,87.057 434.248,86.881 435.386,86.881C438.965,86.881 440.755,88.348 440.755,91.281L440.755,98.225L438.241,98.225L438.241,91.396C438.241,90.357 437.967,89.597 437.419,89.116C436.871,88.635 435.997,88.394 434.797,88.394C433.411,88.394 432.309,88.711 431.492,89.345C430.675,89.979 430.266,90.823 430.266,91.877L430.266,98.225L427.753,98.225Z"/></g><g transform="matrix(0.738505,0,0,1,-5.92656,-1.84399)"><path d="M451.429,98.431C449.65,98.431 448.316,98.084 447.426,97.389C446.537,96.694 446.092,95.689 446.092,94.375L446.092,88.531L443.144,88.531L443.144,87.088L446.092,87.088L446.092,83.673L448.606,83.673L448.606,87.088L453.384,87.088L453.384,88.531L448.606,88.531L448.606,94.192C448.606,95.063 448.854,95.723 449.35,96.174C449.847,96.625 450.654,96.85 451.771,96.85C452.102,96.85 452.433,96.82 452.764,96.759C453.095,96.697 453.395,96.636 453.664,96.575L454.098,97.996C453.829,98.103 453.436,98.202 452.919,98.294C452.402,98.386 451.905,98.431 451.429,98.431Z"/></g><g transform="matrix(0.738505,0,0,1,-5.92656,-1.84399)"><path d="M469.303,98.431C468.124,98.431 467.007,98.309 465.952,98.065C464.897,97.82 464.028,97.477 463.345,97.034L464.152,95.727C464.897,96.17 465.719,96.495 466.619,96.701C467.519,96.908 468.434,97.011 469.365,97.011C470.545,97.011 471.434,96.85 472.034,96.529C472.634,96.209 472.934,95.773 472.934,95.223C472.934,94.795 472.737,94.455 472.344,94.203C471.951,93.951 471.331,93.756 470.483,93.619L467.659,93.161C465.093,92.748 463.811,91.77 463.811,90.227C463.811,89.219 464.354,88.409 465.44,87.798C466.526,87.187 467.948,86.881 469.707,86.881C470.741,86.881 471.729,87 472.67,87.237C473.611,87.473 474.392,87.821 475.013,88.279L474.175,89.586C473.575,89.173 472.877,88.856 472.081,88.635C471.284,88.413 470.493,88.302 469.707,88.302C468.548,88.302 467.669,88.47 467.069,88.806C466.469,89.143 466.169,89.586 466.169,90.136C466.169,90.991 466.935,91.541 468.465,91.786L471.289,92.221C472.613,92.435 473.617,92.775 474.299,93.241C474.982,93.707 475.323,94.337 475.323,95.131C475.323,96.155 474.775,96.961 473.679,97.549C472.582,98.137 471.124,98.431 469.303,98.431Z"/></g><g transform="matrix(0.738505,0,0,1,-5.92656,-1.84399)"><path d="M485.533,98.431C484.022,98.431 482.719,98.191 481.623,97.71C480.526,97.228 479.683,96.548 479.094,95.67C478.504,94.792 478.209,93.764 478.209,92.588C478.209,90.815 478.861,89.421 480.164,88.405C481.468,87.389 483.257,86.881 485.533,86.881C486.464,86.881 487.384,87.004 488.294,87.248C489.205,87.493 489.96,87.836 490.56,88.279L489.691,89.631C489.091,89.204 488.434,88.89 487.72,88.692C487.007,88.493 486.329,88.394 485.688,88.394C484.116,88.394 482.905,88.757 482.057,89.483C481.209,90.208 480.785,91.251 480.785,92.611C480.785,93.94 481.209,94.99 482.057,95.762C482.905,96.533 484.116,96.919 485.688,96.919C486.329,96.919 487.007,96.82 487.72,96.621C488.434,96.422 489.091,96.102 489.691,95.659L490.56,97.011C489.96,97.454 489.199,97.801 488.279,98.053C487.358,98.305 486.443,98.431 485.533,98.431Z"/></g><g transform="matrix(0.738505,0,0,1,-5.92656,-1.84399)"><path d="M493.508,98.225L493.508,82.069L496.021,82.069L496.021,88.921C496.518,88.249 497.216,87.741 498.116,87.397C499.016,87.053 500.024,86.881 501.141,86.881C504.72,86.881 506.51,88.348 506.51,91.281L506.51,98.225L503.996,98.225L503.996,91.396C503.996,90.357 503.722,89.597 503.174,89.116C502.626,88.635 501.752,88.394 500.552,88.394C499.166,88.394 498.064,88.711 497.247,89.345C496.43,89.979 496.021,90.823 496.021,91.877L496.021,98.225L493.508,98.225Z"/></g><g transform="matrix(0.738505,0,0,1,-5.92656,-1.84399)"><path d="M517.929,98.431C515.55,98.431 513.668,97.916 512.282,96.885C510.895,95.853 510.202,94.452 510.202,92.679C510.202,91.534 510.513,90.521 511.133,89.643C511.754,88.764 512.607,88.085 513.693,87.603C514.78,87.122 516.036,86.881 517.464,86.881C519.512,86.881 521.115,87.367 522.274,88.337C523.432,89.307 524.011,90.64 524.011,92.336L524.011,93.046L512.654,93.046C512.737,94.314 513.233,95.28 514.143,95.945C515.054,96.61 516.316,96.942 517.929,96.942C518.839,96.942 519.708,96.839 520.536,96.633C521.363,96.426 522.149,96.086 522.894,95.613L523.763,96.919C523.08,97.393 522.211,97.763 521.156,98.03C520.101,98.298 519.026,98.431 517.929,98.431ZM517.526,88.256C516.098,88.256 514.971,88.585 514.143,89.242C513.316,89.899 512.83,90.762 512.685,91.831L521.839,91.831C521.777,90.701 521.379,89.822 520.644,89.196C519.91,88.57 518.87,88.256 517.526,88.256Z"/></g><g transform="matrix(0.738505,0,0,1,-5.92656,-1.84399)"><path d="M527.704,98.225L527.704,87.088L530.155,87.088L530.155,88.967C530.611,88.295 531.242,87.779 532.048,87.42C532.855,87.061 533.796,86.881 534.872,86.881C537.231,86.881 538.741,87.638 539.403,89.15C539.858,88.447 540.53,87.894 541.42,87.489C542.309,87.084 543.333,86.881 544.492,86.881C547.843,86.881 549.519,88.348 549.519,91.281L549.519,98.225L547.005,98.225L547.005,91.373C547.005,90.35 546.762,89.597 546.276,89.116C545.79,88.635 544.988,88.394 543.871,88.394C542.651,88.394 541.678,88.715 540.954,89.356C540.23,89.998 539.868,90.854 539.868,91.923L539.868,98.225L537.355,98.225L537.355,91.373C537.355,90.35 537.112,89.597 536.625,89.116C536.139,88.635 535.338,88.394 534.221,88.394C532.979,88.394 532.002,88.715 531.288,89.356C530.574,89.998 530.218,90.854 530.218,91.923L530.218,98.225L527.704,98.225Z"/></g><g transform="matrix(0.738505,0,0,1,-5.92656,-1.84399)"><path d="M561,98.431C558.621,98.431 556.739,97.916 555.353,96.885C553.967,95.853 553.274,94.452 553.274,92.679C553.274,91.534 553.584,90.521 554.205,89.643C554.825,88.764 555.679,88.085 556.765,87.603C557.851,87.122 559.108,86.881 560.535,86.881C562.583,86.881 564.186,87.367 565.345,88.337C566.503,89.307 567.083,90.64 567.083,92.336L567.083,93.046L555.725,93.046C555.808,94.314 556.304,95.28 557.215,95.945C558.125,96.61 559.387,96.942 561,96.942C561.911,96.942 562.78,96.839 563.607,96.633C564.435,96.426 565.221,96.086 565.965,95.613L566.834,96.919C566.152,97.393 565.283,97.763 564.228,98.03C563.173,98.298 562.097,98.431 561,98.431ZM560.597,88.256C559.17,88.256 558.042,88.585 557.215,89.242C556.387,89.899 555.901,90.762 555.756,91.831L564.91,91.831C564.848,90.701 564.45,89.822 563.716,89.196C562.981,88.57 561.942,88.256 560.597,88.256Z"/></g><g transform="matrix(0.738505,0,0,1,-5.92656,-1.84399)"><rect x="570.31" y="95.888" width="3.165" height="2.338"/></g><g transform="matrix(1,0,0,0.791209,-6.02708,12.0203)"><path d="M23.996,61.326C21.035,61.326 18.2,60.789 15.492,59.717C12.783,58.644 10.635,57.264 9.046,55.575L11.483,48.66C13,50.167 14.878,51.422 17.117,52.426C19.356,53.43 21.649,53.932 23.996,53.932C25.982,53.932 27.589,53.658 28.817,53.11C30.044,52.563 30.947,51.821 31.525,50.885C32.103,49.95 32.392,48.889 32.392,47.702C32.392,46.242 31.976,45.066 31.146,44.176C30.315,43.286 29.241,42.579 27.923,42.054C26.605,41.529 25.142,41.038 23.535,40.582C21.928,40.126 20.322,39.589 18.715,38.973C17.108,38.357 15.645,37.558 14.327,36.577C13.009,35.596 11.935,34.284 11.104,32.641C10.274,30.998 9.858,28.898 9.858,26.342C9.858,23.741 10.409,21.356 11.51,19.188C12.612,17.02 14.291,15.286 16.548,13.985C18.805,12.684 21.667,12.034 25.133,12.034C27.408,12.034 29.665,12.399 31.904,13.129C34.143,13.86 36.093,14.909 37.754,16.279L35.533,23.193C33.836,21.915 32.085,20.968 30.279,20.352C28.474,19.736 26.74,19.428 25.079,19.428C23.129,19.428 21.549,19.724 20.34,20.318C19.13,20.911 18.245,21.687 17.685,22.645C17.126,23.604 16.846,24.699 16.846,25.932C16.846,27.392 17.252,28.567 18.065,29.457C18.877,30.347 19.942,31.043 21.26,31.545C22.578,32.047 24.05,32.538 25.675,33.017C27.3,33.496 28.916,34.033 30.523,34.626C32.13,35.219 33.592,35.995 34.91,36.954C36.228,37.912 37.294,39.213 38.106,40.856C38.919,42.499 39.325,44.576 39.325,47.086C39.325,49.642 38.774,52.004 37.673,54.172C36.572,56.339 34.883,58.074 32.608,59.375C30.333,60.675 27.462,61.326 23.996,61.326Z"/></g><g transform="matrix(1,0,0,0.791209,-6.02708,12.0203)"><path d="M40.95,60.641L55.033,21.482L61.804,21.482L75.833,60.641L69.063,60.641L57.254,25.863L59.529,25.863L47.613,60.641L40.95,60.641ZM47.938,52.152L49.779,45.58L65.921,45.58L67.763,52.152L47.938,52.152Z"/></g><g transform="matrix(1,0,0,0.791209,-6.02708,12.0203)"><path d="M80.275,60.641L80.275,21.482L86.125,21.482L99.287,48.866L96.525,48.866L109.471,21.482L115.321,21.482L115.375,60.641L108.875,60.641L108.821,34.421L109.85,34.421L99.342,56.26L96.254,56.26L85.421,34.421L86.775,34.421L86.775,60.641L80.275,60.641Z"/></g><g transform="matrix(1,0,0,0.791209,-6.02708,12.0203)"><path d="M124.8,60.641L124.8,21.482L138.179,21.482C140.96,21.482 143.361,22.041 145.383,23.159C147.406,24.277 148.967,25.886 150.069,27.985C151.17,30.085 151.721,32.618 151.721,35.584C151.721,38.551 151.17,41.096 150.069,43.218C148.967,45.34 147.406,46.96 145.383,48.079C143.361,49.197 140.96,49.756 138.179,49.756L128.592,49.756L131.625,45.785L131.625,60.641L124.8,60.641ZM131.625,46.812L129.133,42.773L137.692,42.773C140.075,42.773 141.863,42.145 143.054,40.89C144.246,39.635 144.842,37.866 144.842,35.584C144.842,33.302 144.246,31.545 143.054,30.313C141.863,29.081 140.075,28.465 137.692,28.465L129.133,28.465L131.625,24.494L131.625,46.812Z"/></g><g transform="matrix(1,0,0,0.791209,-6.02708,12.0203)"><path d="M158.871,60.641L158.871,21.482L165.696,21.482L165.696,53.658L181.621,53.658L181.621,60.641L158.871,60.641Z"/></g><g transform="matrix(1,0,0,0.791209,-6.02708,12.0203)"><path d="M192.671,37.433L208.379,37.433L208.379,44.142L192.671,44.142L192.671,37.433ZM193.592,53.727L210.817,53.727L210.817,60.641L186.767,60.641L186.767,21.482L210.221,21.482L210.221,28.465L193.592,28.465L193.592,53.727Z"/></g><g transform="matrix(1,0,0,0.791209,-6.02708,12.0203)"><path d="M259.838,12.719L266.879,12.719L266.879,60.641L259.838,60.641L259.838,12.719ZM240.229,60.641L233.188,60.641L233.188,12.719L240.229,12.719L240.229,60.641ZM260.379,40.103L239.633,40.103L239.633,32.504L260.379,32.504L260.379,40.103Z"/></g><g transform="matrix(1,0,0,0.791209,-6.02708,12.0203)"><path d="M282.588,37.433L298.296,37.433L298.296,44.142L282.588,44.142L282.588,37.433ZM283.508,53.727L300.733,53.727L300.733,60.641L276.683,60.641L276.683,21.482L300.138,21.482L300.138,28.465L283.508,28.465L283.508,53.727Z"/></g><g transform="matrix(1,0,0,0.791209,-6.02708,12.0203)"><path d="M302.792,60.641L316.875,21.482L323.646,21.482L337.675,60.641L330.904,60.641L319.096,25.863L321.371,25.863L309.454,60.641L302.792,60.641ZM309.779,52.152L311.621,45.58L327.763,45.58L329.604,52.152L309.779,52.152Z"/></g><g transform="matrix(1,0,0,0.791209,-6.02708,12.0203)"><path d="M342.117,60.641L342.117,21.482L356.146,21.482C359.685,21.482 362.745,22.28 365.327,23.878C367.909,25.475 369.913,27.746 371.34,30.69C372.766,33.633 373.479,37.091 373.479,41.061C373.479,45.078 372.766,48.546 371.34,51.467C369.913,54.388 367.909,56.648 365.327,58.245C362.745,59.842 359.685,60.641 356.146,60.641L342.117,60.641ZM348.942,53.658L355.929,53.658C358.132,53.658 360.028,53.156 361.617,52.152C363.206,51.148 364.433,49.71 365.3,47.839C366.167,45.968 366.6,43.708 366.6,41.061C366.6,38.414 366.167,36.155 365.3,34.284C364.433,32.412 363.206,30.986 361.617,30.005C360.028,29.024 358.132,28.533 355.929,28.533L348.942,28.533L348.942,53.658Z"/></g><g transform="matrix(1,0,0,0.791209,-6.02708,12.0203)"><rect x="380.358" y="21.482" width="6.825" height="39.159"/></g><g transform="matrix(1,0,0,0.791209,-6.02708,12.0203)"><path d="M396.608,60.641L396.608,21.482L402.242,21.482L420.929,50.098L418.383,50.098L418.383,21.482L425.154,21.482L425.154,60.641L419.521,60.641L400.833,32.025L403.433,32.025L403.433,60.641L396.608,60.641Z"/></g><g transform="matrix(1,0,0,0.791209,-6.02708,12.0203)"><path d="M461.663,56.328C460.615,57.378 459.415,58.279 458.06,59.032C456.706,59.785 455.289,60.356 453.808,60.744C452.328,61.132 450.829,61.326 449.313,61.326C445.99,61.326 443.02,60.447 440.402,58.69C437.784,56.933 435.735,54.525 434.254,51.467C432.774,48.409 432.033,44.941 432.033,41.061C432.033,37.182 432.774,33.725 434.254,30.69C435.735,27.654 437.766,25.258 440.348,23.501C442.93,21.744 445.864,20.865 449.15,20.865C452.039,20.865 454.567,21.402 456.733,22.474C458.9,23.547 460.706,25.201 462.15,27.438L457.708,32.846C456.589,31.249 455.325,30.073 453.917,29.32C452.508,28.567 450.956,28.191 449.258,28.191C447.272,28.191 445.494,28.738 443.923,29.834C442.352,30.929 441.124,32.447 440.24,34.386C439.355,36.326 438.913,38.551 438.913,41.061C438.913,43.572 439.364,45.808 440.267,47.77C441.169,49.733 442.415,51.262 444.004,52.357C445.593,53.453 447.417,54 449.475,54C451.1,54 452.59,53.681 453.944,53.042C455.298,52.403 456.571,51.445 457.763,50.167L461.663,56.328ZM455.217,56.397L455.217,40.719L461.663,40.719L461.663,56.328L455.217,56.397Z"/></g></svg>