<?xml version="1.0" encoding="UTF-8" standalone="no"?>
<!-- Created with Inkscape (http://www.inkscape.org/) -->

<svg
   xmlns:dc="http://purl.org/dc/elements/1.1/"
   xmlns:cc="http://creativecommons.org/ns#"
   xmlns:rdf="http://www.w3.org/1999/02/22-rdf-syntax-ns#"
   xmlns:svg="http://www.w3.org/2000/svg"
   xmlns="http://www.w3.org/2000/svg"
   xmlns:sodipodi="http://sodipodi.sourceforge.net/DTD/sodipodi-0.dtd"
   xmlns:inkscape="http://www.inkscape.org/namespaces/inkscape"
   width="500"
   height="89.999992"
   viewBox="0 0 499.99999 89.999995"
   version="1.1"
   id="svg5152"
   inkscape:version="0.92.3 (2405546, 2018-03-11)"
   sodipodi:docname="font-preview-code.svg">
  <defs
     id="defs5146" />
  <sodipodi:namedview
     id="base"
     pagecolor="#ffffff"
     bordercolor="#666666"
     borderopacity="1.0"
     inkscape:pageopacity="0.0"
     inkscape:pageshadow="2"
     inkscape:zoom="0.35"
     inkscape:cx="480"
     inkscape:cy="-80.714274"
     inkscape:document-units="px"
     inkscape:current-layer="layer1"
     showgrid="false"
     fit-margin-top="0"
     fit-margin-left="0"
     fit-margin-right="0"
     fit-margin-bottom="0"
     showborder="false"
     inkscape:window-width="1366"
     inkscape:window-height="705"
     inkscape:window-x="-8"
     inkscape:window-y="-8"
     inkscape:window-maximized="1" />
  <metadata
     id="metadata5149">
    <rdf:RDF>
      <cc:Work
         rdf:about="">
        <dc:format>image/svg+xml</dc:format>
        <dc:type
           rdf:resource="http://purl.org/dc/dcmitype/StillImage" />
        <dc:title></dc:title>
      </cc:Work>
    </rdf:RDF>
  </metadata>
  <g
     inkscape:label="Layer 1"
     inkscape:groupmode="layer"
     id="layer1"
     transform="translate(544.28571,-391.80538)">
    <rect
       y="391.87503"
       x="-544.21606"
       height="89.860703"
       width="499.86072"
       id="rect933"
       style="opacity:1;fill:none;fill-opacity:1;stroke:#000000;stroke-width:0.13929218;stroke-miterlimit:4;stroke-dasharray:none;stroke-opacity:1" />
    <path
       style="font-style:normal;font-variant:normal;font-weight:600;font-stretch:normal;font-size:34.19520569px;line-height:100%;font-family:'Source Code Pro';-inkscape-font-specification:'Source Code Pro Semi-Bold';letter-spacing:0px;word-spacing:0px;fill:#000000;fill-opacity:1;stroke:none;stroke-width:1.16975462px;stroke-linecap:butt;stroke-linejoin:miter;stroke-opacity:1"
       d="m -255.69187,404.23896 c -0.93334,0 -1.72133,0.2942 -2.36133,0.88086 -0.61334,0.56 -0.91992,1.30495 -0.91992,2.23828 0,0.93334 0.30658,1.68024 0.91992,2.24024 0.64,0.56 1.42799,0.83984 2.36133,0.83984 0.96,0 1.74604,-0.27984 2.35937,-0.83984 0.61333,-0.56 0.91992,-1.3069 0.91992,-2.24024 0,-0.93333 -0.30659,-1.67828 -0.91992,-2.23828 -0.61333,-0.58666 -1.39937,-0.88086 -2.35937,-0.88086 z m -179.09176,1.19922 v 3.64063 h 6.4003 v 17.43945 c 0,2.4 0.5865,4.28063 1.7598,5.64062 1.2,1.33334 2.9345,2 5.2012,2 1.1734,0 2.159,-0.10698 2.959,-0.32031 0.8266,-0.21333 1.7073,-0.47883 2.6406,-0.79883 l -1.0801,-3.40039 c -0.6666,0.26667 -1.2674,0.46628 -1.8008,0.59961 -0.5333,0.10667 -1.0519,0.16016 -1.5586,0.16016 -0.9866,0 -1.8281,-0.26746 -2.5214,-0.80078 -0.6667,-0.56 -1,-1.50651 -1,-2.83985 v -21.32031 z m 157.34762,0 v 7.12109 l 0.23828,3.32032 h -0.11914 c -0.74668,-0.74666 -1.55946,-1.32071 -2.43946,-1.72071 -0.85333,-0.4 -1.84093,-0.59961 -2.96093,-0.59961 -1.46666,0 -2.86589,0.41357 -4.19922,1.24024 -1.33334,0.82667 -2.41356,2.01193 -3.24024,3.55859 -0.82666,1.54668 -1.24023,3.38816 -1.24023,5.52149 0,3.22666 0.77364,5.74525 2.32031,7.55859 1.54667,1.81333 3.57341,2.7207 6.08008,2.7207 1.11999,0 2.20023,-0.26745 3.24023,-0.80078 1.04,-0.56 1.93302,-1.21231 2.67969,-1.95898 h 0.11914 l 0.36133,2.2793 h 3.79883 v -28.24024 z m -243.36522,1.60156 c -1.76,0 -3.332,0.33334 -4.7188,1 -1.3599,0.64001 -2.4278,1.51867 -3.2011,2.63868 -0.7734,1.09333 -1.1602,2.33404 -1.1602,3.7207 0,1.28 0.2675,2.37263 0.8008,3.2793 0.56,0.90665 1.2658,1.65356 2.1191,2.24023 0.88,0.58666 1.775,1.06611 2.6817,1.43945 l 3.5586,1.56055 c 0.88,0.34667 1.6412,0.68 2.2812,1 0.6667,0.31999 1.1853,0.72117 1.5586,1.20117 0.3733,0.45333 0.5605,1.06652 0.5606,1.83984 -10e-5,0.90667 -0.3993,1.66597 -1.1993,2.2793 -0.8,0.58668 -1.9605,0.88086 -3.4804,0.88086 -1.3868,0 -2.7077,-0.26744 -3.961,-0.80078 -1.2533,-0.56 -2.3727,-1.28016 -3.3593,-2.16016 l -2.7208,3.16016 c 1.3067,1.22667 2.8005,2.17318 4.4805,2.83984 1.68,0.66667 3.4413,1 5.2813,1 2.0267,0 3.7592,-0.34573 5.1992,-1.03906 1.4399,-0.72 2.5469,-1.66651 3.3203,-2.83984 0.7733,-1.17334 1.1602,-2.46752 1.1602,-3.88086 0,-1.28 -0.2408,-2.36024 -0.7207,-3.24024 -0.4801,-0.90666 -1.1468,-1.66596 -2,-2.27929 -0.8534,-0.61334 -1.8391,-1.13388 -2.959,-1.56055 l -3.4414,-1.48047 c -0.7734,-0.29334 -1.5059,-0.59993 -2.1993,-0.91992 -0.6666,-0.32001 -1.214,-0.69247 -1.6406,-1.11914 -0.4267,-0.42666 -0.6387,-0.97396 -0.6387,-1.64063 0,-0.98666 0.3849,-1.74595 1.1582,-2.27929 0.7734,-0.53333 1.7734,-0.80078 3,-0.80078 1.3334,0 2.4815,0.1996 3.4415,0.59961 0.9866,0.37333 1.9188,0.92062 2.7988,1.64062 l 2.4004,-2.96094 c -1.0934,-1.01332 -2.3731,-1.81176 -3.8399,-2.39844 -1.4399,-0.61333 -2.9605,-0.91992 -4.5605,-0.91992 z m 158.1719,0.47852 v 26.16016 h 4.6796 v -11.59961 h 8.95903 v 11.59961 h 4.68164 v -26.16016 h -4.68164 v 10.52148 h -8.95903 v -10.52148 z m -134.1875,6.04101 c -1.12,0 -2.2127,0.13375 -3.2793,0.40039 -1.0667,0.24001 -2.0792,0.57334 -3.0391,1 -0.96,0.4 -1.8406,0.84032 -2.6406,1.32032 l 1.6797,3.07812 c 0.6934,-0.37333 1.3867,-0.71906 2.08,-1.03906 0.72,-0.31999 1.4402,-0.57309 2.1602,-0.75977 0.7201,-0.18666 1.4526,-0.27929 2.1992,-0.27929 1.0667,0 1.933,0.17286 2.5996,0.51953 0.6667,0.32 1.1605,0.7727 1.4805,1.35937 0.3467,0.58666 0.5463,1.24094 0.5996,1.96094 -4.8533,0.34667 -8.3327,1.10596 -10.4395,2.2793 -2.08,1.14666 -3.1191,2.81333 -3.1191,5 0,1.14667 0.2799,2.14667 0.8399,3 0.5597,0.85334 1.3336,1.53239 2.3203,2.03906 0.9866,0.47999 2.1184,0.7207 3.3984,0.7207 1.3334,0 2.6275,-0.27984 3.8809,-0.83984 1.2799,-0.58666 2.4404,-1.28007 3.4804,-2.08008 h 0.1192 l 0.3613,2.43946 h 3.7598 v -11.63868 c 0,-1.81333 -0.3334,-3.34823 -1,-4.60156 -0.64,-1.28 -1.5865,-2.2389 -2.8399,-2.87891 -1.2267,-0.66666 -2.7615,-1 -4.6015,-1 z m 21.666,0 c -1.1467,0 -2.0541,0.27985 -2.7207,0.83985 -0.6667,0.56 -1.214,1.26581 -1.6407,2.11914 h -0.1191 l -0.3613,-2.47852 h -3.5586 v 19.63868 h 4.4805 v -13.71876 c 0.3731,-0.85332 0.7458,-1.48085 1.1191,-1.88085 0.3733,-0.40001 0.8136,-0.59961 1.3203,-0.59961 0.56,0 0.9593,0.22634 1.1992,0.67968 0.2401,0.42666 0.3612,1.06659 0.3614,1.91993 v 13.59961 h 3.8398 v -13.71876 c 0.4,-0.85332 0.7724,-1.48085 1.1191,-1.88085 0.3733,-0.40001 0.8261,-0.59961 1.3594,-0.59961 1.04,0 1.5606,0.86627 1.5606,2.59961 v 13.59961 h 4.4394 v -13.91993 c 0,-1.97334 -0.3868,-3.49192 -1.1601,-4.55859 -0.7466,-1.09333 -1.8125,-1.64063 -3.1993,-1.64063 -1.1466,0 -2.0664,0.30659 -2.7597,0.91993 -0.6933,0.61333 -1.2674,1.39936 -1.7207,2.35937 -0.2401,-1.09334 -0.666,-1.90612 -1.2793,-2.43945 -0.6134,-0.56 -1.3727,-0.83985 -2.2793,-0.83985 z m 27.584,0 c -1.12,0 -2.2414,0.2531 -3.3614,0.75977 -1.0933,0.50667 -2.0666,1.16094 -2.9199,1.96094 h -0.1191 l -0.3594,-2.24024 h -3.8008 v 27.39844 h 4.6406 v -6.1582 l -0.2402,-3.44141 h 0.1191 c 0.8,0.74667 1.6663,1.3207 2.5996,1.7207 0.9603,0.4 1.8818,0.59961 2.7618,0.59961 1.52,0 2.9317,-0.41356 4.2382,-1.24023 1.3335,-0.85333 2.4136,-2.06535 3.2403,-3.63867 0.8267,-1.57334 1.2402,-3.4807 1.2402,-5.72071 0,-2.02666 -0.3189,-3.78595 -0.959,-5.27929 -0.64,-1.49334 -1.5473,-2.6538 -2.7207,-3.48047 -1.1733,-0.82667 -2.626,-1.24024 -4.3593,-1.24024 z m 46.7285,0 c -1.7601,0 -3.4144,0.41357 -4.961,1.24024 -1.5466,0.82667 -2.7997,2.01193 -3.7597,3.55859 -0.96,1.52 -1.4395,3.34713 -1.4395,5.48047 0,2.18666 0.4795,4.05294 1.4395,5.59961 0.96,1.51999 2.2542,2.69484 3.8808,3.52148 1.6267,0.8 3.4395,1.19922 5.4395,1.19922 1.4667,0 2.8535,-0.21396 4.1601,-0.64062 1.3067,-0.45334 2.4796,-1.01302 3.5196,-1.67969 l -1.5606,-2.87891 c -0.8799,0.50667 -1.7586,0.90589 -2.6387,1.19922 -0.8797,0.29334 -1.8408,0.43946 -2.8808,0.43946 -1.3601,0 -2.5596,-0.2531 -3.5996,-0.75977 -1.0133,-0.50667 -1.8137,-1.25357 -2.4004,-2.24023 -0.3816,-0.6724 -0.6226,-1.47837 -0.7442,-2.39844 h 14.4239 c 0.053,-0.26667 0.094,-0.6 0.1211,-1 0.053,-0.42667 0.08,-0.86698 0.08,-1.32031 0,-1.81333 -0.36,-3.41412 -1.08,-4.80078 -0.6933,-1.41334 -1.72,-2.52032 -3.0801,-3.32032 -1.3333,-0.8 -2.9733,-1.19922 -4.9199,-1.19922 z m 71.9531,0 c -1.76002,0 -3.41429,0.41357 -4.96094,1.24024 -1.54665,0.82667 -2.79971,2.01193 -3.75977,3.55859 -0.95998,1.52 -1.43945,3.34713 -1.43945,5.48047 0,2.18666 0.47947,4.05294 1.43945,5.59961 0.96006,1.51999 2.2542,2.69484 3.88086,3.52148 1.62666,0.8 3.43948,1.19922 5.43946,1.19922 1.46672,0 2.85354,-0.21396 4.16015,-0.64062 1.3067,-0.45334 2.47954,-1.01302 3.51953,-1.67969 l -1.55859,-2.87891 c -0.88005,0.50667 -1.76067,0.90589 -2.64062,1.19922 -0.87997,0.29334 -1.8408,0.43946 -2.88086,0.43946 -1.35996,0 -2.55962,-0.2531 -3.59961,-0.75977 -1.01332,-0.50667 -1.81373,-1.25357 -2.40039,-2.24023 -0.38164,-0.6724 -0.6226,-1.47837 -0.74414,-2.39844 h 14.42578 c 0.0535,-0.26667 0.0926,-0.6 0.11914,-1 0.0531,-0.42667 0.0801,-0.86698 0.0801,-1.32031 0,-1.81333 -0.36006,-3.41412 -1.08008,-4.80078 -0.69328,-1.41334 -1.72005,-2.52032 -3.08008,-3.32032 -1.33337,-0.8 -2.9733,-1.19922 -4.91992,-1.19922 z m 23.94336,0 c -1.12,0 -2.21264,0.13375 -3.2793,0.40039 -1.06674,0.24001 -2.08104,0.57334 -3.04102,1 -0.95998,0.4 -1.83863,0.84032 -2.63867,1.32032 l 1.67969,3.07812 c 0.69335,-0.37333 1.38672,-0.71906 2.08008,-1.03906 0.72002,-0.31999 1.44021,-0.57309 2.16015,-0.75977 0.72003,-0.18666 1.45253,-0.27929 2.19922,-0.27929 1.06666,0 1.93487,0.17286 2.60157,0.51953 0.6666,0.32 1.15847,0.7727 1.47851,1.35937 0.34698,0.58666 0.54661,1.24094 0.59961,1.96094 -4.85331,0.34667 -8.33281,1.10596 -10.43945,2.2793 -2.08006,1.14666 -3.11914,2.81333 -3.11914,5 0,1.14667 0.27984,2.14667 0.83984,3 0.56,0.85334 1.33366,1.53239 2.32031,2.03906 0.98673,0.47999 2.11849,0.7207 3.39844,0.7207 1.33336,0 2.62751,-0.27984 3.88086,-0.83984 1.27995,-0.58666 2.4404,-1.28007 3.48047,-2.08008 h 0.11914 l 0.36133,2.43946 h 3.75976 v -11.63868 c 0,-1.81333 -0.33332,-3.34823 -1,-4.60156 -0.64001,-1.28 -1.58649,-2.2389 -2.83984,-2.87891 -1.22668,-0.66666 -2.76162,-1 -4.60156,-1 z m 74.07422,0 c -1.52,0 -2.85335,0.33334 -4,1 -1.12001,0.66667 -2.14675,1.47945 -3.08008,2.43946 h -0.16016 l -0.35937,-2.95899 h -3.80079 v 19.63868 h 4.64063 v -13.39844 c 0.90667,-0.93334 1.73185,-1.62675 2.47851,-2.08008 0.74667,-0.45333 1.60055,-0.68164 2.56055,-0.68164 1.33334,0 2.27985,0.37443 2.83985,1.12109 0.55999,0.74668 0.83984,1.90714 0.83984,3.48047 v 11.5586 h 4.64062 v -12.16016 c 0,-2.53334 -0.53295,-4.49224 -1.5996,-5.87891 -1.06668,-1.38666 -2.73334,-2.08008 -5,-2.08008 z m 20.82421,0 c -1.44,0 -2.77333,0.27985 -4,0.83985 -1.22666,0.53333 -2.21427,1.33372 -2.96093,2.40039 -0.74667,1.04 -1.11914,2.31984 -1.11914,3.83984 0,1.14668 0.2407,2.15903 0.7207,3.03907 0.50667,0.85332 1.1055,1.53434 1.79883,2.04101 v 0.16016 c -0.72,0.48 -1.29209,1.05208 -1.71875,1.71875 -0.42667,0.66666 -0.64063,1.32094 -0.64063,1.96093 0,0.82667 0.19962,1.50573 0.59961,2.03907 0.42667,0.50666 0.89373,0.92024 1.40039,1.24023 v 0.16016 c -1.01333,0.53333 -1.78698,1.16086 -2.32031,1.88086 -0.53333,0.72 -0.80078,1.4669 -0.80078,2.24023 0,1.17333 0.37443,2.14659 1.12109,2.91992 0.74667,0.77334 1.78582,1.34543 3.11914,1.71875 1.33334,0.40001 2.90737,0.59961 4.72071,0.59961 2.32,0 4.32,-0.30659 6,-0.91992 1.70666,-0.61333 3.01325,-1.45286 3.91992,-2.51953 0.93333,-1.06667 1.40039,-2.23953 1.40039,-3.51953 0,-1.73334 -0.65427,-2.95969 -1.96094,-3.67969 -1.28,-0.74666 -3.19973,-1.12109 -5.75977,-1.12109 h -4 c -1.22666,0 -2.15882,-0.14612 -2.79882,-0.43946 -0.61334,-0.31999 -0.92188,-0.78705 -0.92188,-1.40039 0,-0.4 0.0946,-0.74573 0.28125,-1.03906 0.21334,-0.29333 0.51992,-0.56078 0.91992,-0.80078 0.50667,0.18667 1.01287,0.33279 1.51953,0.43945 0.53337,0.08 1.02714,0.1211 1.48047,0.1211 1.49334,0 2.82667,-0.2531 4,-0.75977 1.17334,-0.50667 2.10551,-1.25357 2.79883,-2.24023 0.72,-1.01334 1.08008,-2.23969 1.08008,-3.67969 0,-0.63999 -0.13178,-1.24078 -0.39844,-1.80078 -0.24,-0.58668 -0.5342,-1.06612 -0.88086,-1.43946 h 4.51953 v -3.51953 h -8.03906 c -0.88,-0.32 -1.90674,-0.48047 -3.08008,-0.48047 z m -56.1289,0.48047 v 3.63868 h 8.51953 v 16 h 4.59961 v -19.63868 z m 56.1289,2.71875 c 0.69334,0 1.31891,0.16047 1.87891,0.48047 0.56,0.32 1.00032,0.7727 1.32031,1.35938 0.34668,0.56 0.52149,1.24102 0.52149,2.04101 0,0.82667 -0.17481,1.53247 -0.52149,2.11914 -0.31999,0.58666 -0.76031,1.04133 -1.32031,1.36133 -0.56,0.29333 -1.18557,0.43945 -1.87891,0.43945 -0.66666,0 -1.27984,-0.14612 -1.83984,-0.43945 -0.56,-0.32 -1.01466,-0.77467 -1.36133,-1.36133 -0.34666,-0.58667 -0.51953,-1.29247 -0.51953,-2.11914 0,-0.79999 0.17287,-1.48101 0.51953,-2.04101 0.34667,-0.58668 0.80133,-1.03938 1.36133,-1.35938 0.56,-0.32 1.17318,-0.48047 1.83984,-0.48047 z m -190.67579,0.36133 c 1.5467,0 2.7482,0.49184 3.6016,1.47852 0.7124,0.77725 1.1202,1.89627 1.2558,3.32031 h -10.4433 c 0.1263,-0.65156 0.3195,-1.24094 0.5859,-1.75977 0.5067,-1.01334 1.1877,-1.77263 2.041,-2.27929 0.88,-0.50667 1.8657,-0.75977 2.959,-0.75977 z m 71.95314,0 c 1.54665,0 2.74827,0.49184 3.60156,1.47852 0.71252,0.77724 1.12022,1.89629 1.25586,3.32031 h -10.44141 c 0.12633,-0.65156 0.31756,-1.24094 0.58399,-1.75977 0.50666,-1.01334 1.18771,-1.77263 2.04101,-2.27929 0.88005,-0.50667 1.86566,-0.75977 2.95899,-0.75977 z m -120.08204,0.23828 c 1.0933,0 1.9616,0.25505 2.6016,0.76172 0.6666,0.48001 1.1585,1.18582 1.4785,2.11914 0.32,0.93334 0.4805,2.0527 0.4805,3.35938 0,1.49333 -0.214,2.74643 -0.6407,3.75976 -0.4266,0.98667 -1.0131,1.73357 -1.7597,2.24024 -0.7468,0.50666 -1.5863,0.75976 -2.5196,0.75976 -0.5866,0 -1.2657,-0.13175 -2.039,-0.39844 -0.7734,-0.29331 -1.5203,-0.76038 -2.2403,-1.40039 v -8.83984 c 0.8,-0.82667 1.5861,-1.42745 2.3594,-1.80078 0.7734,-0.37334 1.5326,-0.56055 2.2793,-0.56055 z m 167.21094,0 c 0.72,0 1.42776,0.13372 2.1211,0.40039 0.69333,0.26667 1.38674,0.73373 2.08008,1.40039 v 8.83985 c -0.66667,0.8 -1.37443,1.40079 -2.1211,1.80078 -0.74666,0.37334 -1.52031,0.55859 -2.32031,0.55859 -1.49333,0 -2.6662,-0.55969 -3.51953,-1.67968 -0.82667,-1.12001 -1.24024,-2.73319 -1.24024,-4.83985 0,-1.38667 0.22636,-2.55952 0.67969,-3.51953 0.45333,-0.96 1.05412,-1.69255 1.80078,-2.19922 0.77334,-0.50667 1.61287,-0.76172 2.51953,-0.76172 z m -211.33984,6.64063 v 4.16015 c -0.9067,0.72 -1.8264,1.30644 -2.7598,1.75977 -0.9066,0.42667 -1.8531,0.64062 -2.8398,0.64062 -0.6666,0 -1.2655,-0.0802 -1.7988,-0.24023 -0.5067,-0.18667 -0.9202,-0.46651 -1.2403,-0.83984 -0.3199,-0.37333 -0.4804,-0.85278 -0.4804,-1.43946 0,-0.69333 0.2674,-1.32086 0.8007,-1.88086 0.5334,-0.56 1.4656,-1.0127 2.7989,-1.35937 1.3334,-0.37333 3.1728,-0.64079 5.5195,-0.80078 z m 191.875,0 v 4.16015 c -0.90664,0.72 -1.82639,1.30644 -2.75977,1.75977 -0.90664,0.42667 -1.85319,0.64062 -2.83984,0.64062 -0.66668,0 -1.2655,-0.0802 -1.79883,-0.24023 -0.50666,-0.18667 -0.92019,-0.46651 -1.24023,-0.83984 -0.31997,-0.37333 -0.48047,-0.85278 -0.48047,-1.43946 0,-0.69333 0.26745,-1.32086 0.80078,-1.88086 0.53333,-0.56 1.46546,-1.0127 2.79883,-1.35937 1.33329,-0.37333 3.17285,-0.64079 5.51953,-0.80078 z m 87.7793,9.96093 c 0.4,0.08 0.83836,0.14589 1.31836,0.19922 0.48,0.0533 1.04164,0.0801 1.68164,0.0801 h 3.11914 c 1.33333,0 2.31898,0.11937 2.95898,0.35938 0.66667,0.26666 1,0.78721 1,1.56054 0,0.56 -0.26549,1.08055 -0.79883,1.56055 -0.50666,0.48001 -1.24117,0.86682 -2.20117,1.16016 -0.93333,0.29332 -2.03836,0.43945 -3.31836,0.43945 -1.81333,0 -3.2145,-0.2531 -4.20117,-0.75977 -0.98667,-0.48 -1.48047,-1.16101 -1.48047,-2.04101 0,-0.45333 0.14807,-0.8917 0.44141,-1.31836 0.29334,-0.42667 0.78714,-0.84023 1.48047,-1.24024 z m -153.2559,15.5918 c -0.9657,0 -1.759,0.17767 -2.3789,0.5332 -0.6198,0.34134 -1.0872,0.83266 -1.4043,1.47266 -0.3027,0.6258 -0.455,1.3582 -0.455,2.19727 v 0.87695 l -3.0039,0.10547 v 1.32226 h 3.0039 v 8.9375 h 1.7519 v -8.9375 h 4.4121 v -1.42968 h -4.4121 v -0.93946 c 0,-0.83906 0.209,-1.49882 0.627,-1.98242 0.418,-0.48353 1.0962,-0.72656 2.0332,-0.72656 0.4612,0 0.872,0.0363 1.2324,0.10742 0.3747,0.0569 0.7785,0.18368 1.2109,0.38281 l 0.4102,-1.32226 c -0.5046,-0.21334 -1.0092,-0.36193 -1.5137,-0.44727 -0.4901,-0.0995 -0.9947,-0.15039 -1.5137,-0.15039 z m 165.52933,0 c -0.96576,0 -1.75908,0.17767 -2.3789,0.5332 -0.61983,0.34134 -1.08719,0.83266 -1.4043,1.47266 -0.3027,0.6258 -0.45508,1.3582 -0.45508,2.19727 v 0.87695 l -3.00586,0.10547 v 1.32226 h 3.00586 v 8.9375 h 1.75196 v -8.9375 h 4.41015 v -1.42968 h -4.41015 v -0.93946 c 0,-0.83906 0.20893,-1.49882 0.62695,-1.98242 0.41801,-0.48353 1.09626,-0.72656 2.0332,-0.72656 0.46126,0 0.87206,0.0363 1.23242,0.10742 0.37478,0.0569 0.77656,0.18368 1.20899,0.38281 l 0.41211,-1.32226 c -0.50451,-0.21334 -1.00917,-0.36193 -1.51367,-0.44727 -0.4901,-0.0995 -0.99476,-0.15039 -1.51368,-0.15039 z m -275.11133,0.25781 v 1.42774 h 3.5899 v 10.2832 c -10e-5,1.22307 0.2937,2.15492 0.8847,2.79492 0.591,0.6258 1.4428,0.93946 2.5527,0.93946 0.5766,0 1.0742,-0.0654 1.4922,-0.19336 0.418,-0.1138 0.8642,-0.25512 1.3399,-0.42578 l -0.4531,-1.32227 c -0.3892,0.17067 -0.7434,0.29748 -1.0606,0.38281 -0.3171,0.0711 -0.627,0.10743 -0.9297,0.10743 -0.6198,0 -1.1174,-0.17039 -1.4922,-0.51172 -0.3748,-0.34134 -0.5625,-0.88885 -0.5625,-1.64258 v -11.83985 z m 165.78712,0 v 15.1875 h 1.77343 v -7.23046 c 0.61982,-0.6258 1.17593,-1.09534 1.66602,-1.40821 0.49009,-0.31286 1.04425,-0.4707 1.66406,-0.4707 0.86487,0 1.4846,0.24303 1.85938,0.72656 0.37477,0.46934 0.5625,1.19445 0.5625,2.17578 v 6.20703 h 1.77343 v -6.4414 c 0,-1.36534 -0.29572,-2.40417 -0.88672,-3.11524 -0.59098,-0.71113 -1.50645,-1.0664 -2.74609,-1.0664 -0.82162,0 -1.54935,0.19945 -2.18359,0.59765 -0.63423,0.384 -1.21862,0.86076 -1.75196,1.42969 h -0.0644 l 0.10742,-2.45508 v -4.13672 z m 70.84375,0 v 3.98829 l 0.0859,1.91992 h -0.0644 c -0.44685,-0.42667 -0.92835,-0.75294 -1.44727,-0.98047 -0.5045,-0.2418 -1.06767,-0.36328 -1.6875,-0.36328 -0.82162,0 -1.6008,0.22124 -2.33593,0.66211 -0.72072,0.44093 -1.31023,1.07357 -1.77149,1.89843 -0.44684,0.81067 -0.66992,1.77686 -0.66992,2.90039 0,1.72094 0.41787,3.05886 1.25391,4.01172 0.83603,0.93867 1.93726,1.40821 3.30664,1.40821 0.66306,0 1.28986,-0.15784 1.88086,-0.47071 0.6054,-0.32713 1.11713,-0.71147 1.53515,-1.15234 h 0.0664 l 0.15039,1.36523 h 1.4707 v -15.1875 z m 120.15234,0 v 15.1875 h 1.77148 v -7.23046 c 0.61982,-0.6258 1.17593,-1.09534 1.66602,-1.40821 0.49009,-0.31286 1.04424,-0.4707 1.66406,-0.4707 0.86487,0 1.4846,0.24303 1.85938,0.72656 0.37478,0.46934 0.5625,1.19445 0.5625,2.17578 v 6.20703 h 1.77343 v -6.4414 c 0,-1.36534 -0.29572,-2.40417 -0.88671,-3.11524 -0.59099,-0.71113 -1.50646,-1.0664 -2.7461,-1.0664 -0.82162,0 -1.54936,0.19945 -2.18359,0.59765 -0.63423,0.384 -1.21862,0.86076 -1.75196,1.42969 h -0.0644 l 0.10742,-2.45508 v -4.13672 z m -402.69921,0.9375 c -0.8937,0 -1.6941,0.16311 -2.4004,0.49024 -0.7063,0.31287 -1.2605,0.75528 -1.6641,1.32422 -0.3892,0.55466 -0.5839,1.18737 -0.5839,1.89843 0,0.68267 0.1575,1.25723 0.4746,1.72657 0.3172,0.45513 0.7067,0.83219 1.1679,1.13086 0.4757,0.29866 0.9521,0.54891 1.4278,0.74804 l 2.0332,0.87305 c 0.49,0.19913 0.922,0.39852 1.2968,0.59766 0.3892,0.19906 0.692,0.44938 0.9082,0.74804 0.2306,0.29867 0.3458,0.69556 0.3458,1.19336 0,0.6542 -0.2746,1.18715 -0.8223,1.59961 -0.5333,0.41247 -1.2893,0.61914 -2.2695,0.61914 -0.8072,0 -1.5723,-0.15581 -2.293,-0.46875 -0.7063,-0.32706 -1.3261,-0.75498 -1.8594,-1.28125 l -1.0801,1.23828 c 0.6486,0.62574 1.4047,1.12968 2.2696,1.51368 0.8792,0.3698 1.839,0.55664 2.8769,0.55664 1.0378,0 1.9302,-0.17963 2.6797,-0.53516 0.7496,-0.3556 1.3269,-0.8304 1.7305,-1.42773 0.4036,-0.61154 0.6054,-1.28781 0.6054,-2.02735 0,-0.68266 -0.1382,-1.25918 -0.4121,-1.72851 -0.2738,-0.46934 -0.6473,-0.8609 -1.123,-1.17383 -0.4757,-0.32707 -1.0086,-0.60443 -1.5996,-0.83203 l -1.9903,-0.85156 c -0.4035,-0.17067 -0.8002,-0.34834 -1.1894,-0.53321 -0.3892,-0.18493 -0.7132,-0.42068 -0.9727,-0.70508 -0.245,-0.28446 -0.3672,-0.64702 -0.3672,-1.08789 0,-0.64 0.2514,-1.13854 0.7559,-1.49414 0.5045,-0.36973 1.1686,-0.55468 1.9902,-0.55468 0.7352,-1e-5 1.3831,0.12154 1.9454,0.36328 0.5621,0.2276 1.0739,0.54853 1.5351,0.96093 l 0.9512,-1.15234 c -0.519,-0.512 -1.1528,-0.92541 -1.9024,-1.23828 -0.7496,-0.32713 -1.5712,-0.49024 -2.4648,-0.49024 z m 255.65429,0 c -1.23964,0 -2.33576,0.29187 -3.28711,0.875 -0.95136,0.58314 -1.7003,1.42252 -2.24805,2.51758 -0.54775,1.08094 -0.82226,2.368 -0.82226,3.86133 0,1.13773 0.15237,2.162 0.45507,3.07227 0.31712,0.896 0.7562,1.65551 1.31836,2.28125 0.56217,0.6116 1.21725,1.08113 1.9668,1.4082 0.74955,0.32713 1.56408,0.49219 2.44336,0.49219 0.93694,0 1.76561,-0.17963 2.48633,-0.53516 0.72072,-0.3556 1.35654,-0.85219 1.90429,-1.49219 l -1.01757,-1.08789 c -0.44685,0.4978 -0.92835,0.88215 -1.44727,1.15235 -0.51892,0.27026 -1.10331,0.40429 -1.75195,0.40429 -0.90812,0 -1.70144,-0.23379 -2.37891,-0.70312 -0.66307,-0.46934 -1.18187,-1.13104 -1.55664,-1.98438 -0.37477,-0.85333 -0.5625,-1.87031 -0.5625,-3.05078 0,-1.1662 0.18773,-2.16868 0.5625,-3.00781 0.37477,-0.83913 0.89357,-1.48634 1.55664,-1.94141 0.67747,-0.46933 1.47079,-0.70507 2.37891,-0.70507 0.59098,0 1.12393,0.11426 1.59961,0.34179 0.47568,0.22754 0.89354,0.54119 1.2539,0.93945 l 1.01758,-1.13085 c -0.4036,-0.44087 -0.9385,-0.8325 -1.60156,-1.17383 -0.66307,-0.3556 -1.41909,-0.53321 -2.26953,-0.53321 z m -168.53319,0.55469 -0.2383,3.32813 -3.0273,0.10742 v 1.32226 h 2.9628 v 4.90625 c 10e-5,0.85334 0.1222,1.60024 0.3672,2.24024 0.2595,0.64 0.6844,1.14387 1.2754,1.51367 0.591,0.35553 1.3984,0.53516 2.4219,0.53516 0.6631,0 1.2526,-0.0654 1.7715,-0.19336 0.5334,-0.1138 1.038,-0.25512 1.5137,-0.42578 l -0.3887,-1.28125 c -0.3748,0.14226 -0.7644,0.25646 -1.168,0.34179 -0.4036,0.0853 -0.8568,0.12891 -1.3613,0.12891 -0.6775,0 -1.2104,-0.10698 -1.5996,-0.32031 -0.3892,-0.21334 -0.6637,-0.53427 -0.8223,-0.96094 -0.1585,-0.42667 -0.2383,-0.94504 -0.2383,-1.55664 v -4.92774 h 5.168 v -1.42968 h -5.168 v -3.32813 z m 38.1972,0 -0.2363,3.32813 -3.0273,0.10742 v 1.32226 h 2.9609 v 4.90625 c 0,0.85334 0.1242,1.60024 0.3692,2.24024 0.2594,0.64 0.6843,1.14387 1.2753,1.51367 0.5911,0.35553 1.3986,0.53516 2.4219,0.53516 0.6632,0 1.2526,-0.0654 1.7715,-0.19336 0.5333,-0.1138 1.038,-0.25512 1.5137,-0.42578 l -0.3887,-1.28125 c -0.3747,0.14226 -0.7644,0.25646 -1.168,0.34179 -0.4036,0.0853 -0.8568,0.12891 -1.3613,0.12891 -0.6775,0 -1.2104,-0.10698 -1.5996,-0.32031 -0.3892,-0.21334 -0.6637,-0.53427 -0.8223,-0.96094 -0.1585,-0.42667 -0.2382,-0.94504 -0.2382,-1.55664 v -4.92774 h 5.1679 v -1.42968 h -5.1679 v -3.32813 z m 76.39849,0 -0.23828,3.32813 -3.02735,0.10742 v 1.32226 h 2.96289 v 4.90625 c 0,0.85334 0.12214,1.60024 0.36719,2.24024 0.25946,0.64 0.6844,1.14387 1.27539,1.51367 0.59099,0.35553 1.39846,0.53516 2.42188,0.53516 0.66306,0 1.25451,-0.0654 1.77343,-0.19336 0.53334,-0.1138 1.038,-0.25512 1.51368,-0.42578 l -0.38868,-1.28125 c -0.37477,0.14226 -0.76437,0.25646 -1.16796,0.34179 -0.40362,0.0853 -0.85879,0.12891 -1.36329,0.12891 -0.67747,0 -1.21041,-0.10698 -1.59961,-0.32031 -0.38918,-0.21334 -0.66175,-0.53427 -0.82031,-0.96094 -0.15855,-0.42667 -0.23828,-0.94504 -0.23828,-1.55664 v -4.92774 h 5.16797 v -1.42968 h -5.16797 v -3.32813 z m 152.79492,0 -0.23633,3.32813 -3.02734,0.10742 v 1.32226 h 2.96094 v 4.90625 c -1e-5,0.85334 0.1241,1.60024 0.36914,2.24024 0.25946,0.64 0.68439,1.14387 1.27539,1.51367 0.59098,0.35553 1.39845,0.53516 2.42187,0.53516 0.66307,0 1.25257,-0.0654 1.77149,-0.19336 0.53333,-0.1138 1.03799,-0.25512 1.51367,-0.42578 l -0.38867,-1.28125 c -0.37478,0.14226 -0.76437,0.25646 -1.16797,0.34179 -0.40361,0.0853 -0.85682,0.12891 -1.36133,0.12891 -0.67748,0 -1.21042,-0.10698 -1.59961,-0.32031 -0.38919,-0.21334 -0.66371,-0.53427 -0.82227,-0.96094 -0.15856,-0.42667 -0.23828,-0.94504 -0.23828,-1.55664 v -4.92774 h 5.16797 v -1.42968 h -5.16797 v -3.32813 z m -341.66991,3.07227 c -0.6198,0 -1.2184,0.0779 -1.7949,0.23437 -0.5767,0.1422 -1.1167,0.33437 -1.6211,0.57617 -0.4902,0.22754 -0.908,0.45606 -1.2539,0.6836 l 0.6914,1.19336 c 0.3316,-0.19914 0.6908,-0.39131 1.08,-0.57617 0.4036,-0.19914 0.8215,-0.35502 1.254,-0.46875 0.4468,-0.128 0.8948,-0.19141 1.3418,-0.19141 0.6774,0 1.2174,0.11959 1.621,0.36133 0.4036,0.2276 0.6923,0.54125 0.8653,0.93945 0.1878,0.3982 0.2887,0.83145 0.3027,1.30078 -2.7099,0.21334 -4.6559,0.62668 -5.8379,1.23828 -1.182,0.59734 -1.7734,1.47833 -1.7734,2.64453 0,0.61154 0.1594,1.1372 0.4765,1.57813 0.3171,0.44087 0.7491,0.78359 1.2969,1.02539 0.5478,0.22753 1.1463,0.3418 1.7949,0.3418 0.7496,0 1.4845,-0.16506 2.2051,-0.49219 0.7208,-0.32707 1.3687,-0.71674 1.9453,-1.17188 h 0.064 l 0.1523,1.40625 h 1.4493 v -6.35742 c 0,-0.8676 -0.1595,-1.61255 -0.4766,-2.23828 -0.3027,-0.64 -0.772,-1.13854 -1.4063,-1.49414 -0.6198,-0.35553 -1.4111,-0.5332 -2.3769,-0.5332 z m 11.1328,0 c -0.6054,0 -1.0889,0.1486 -1.4492,0.44726 -0.3604,0.29867 -0.6773,0.6903 -0.9512,1.17383 h -0.043 l -0.1523,-1.36523 h -1.4258 v 10.36718 h 1.7735 v -7.50781 c 0.2594,-0.54046 0.5178,-0.93931 0.7773,-1.19531 0.2739,-0.2702 0.5908,-0.40625 0.9512,-0.40625 0.3892,0 0.6636,0.15784 0.8222,0.4707 0.173,0.29867 0.2598,0.74642 0.2598,1.34375 v 7.29492 h 1.6426 v -7.50781 c 0.2883,-0.54046 0.5487,-0.93931 0.7793,-1.19531 0.245,-0.2702 0.5478,-0.40625 0.9082,-0.40625 0.7495,0 1.123,0.60559 1.123,1.81445 v 7.29492 h 1.7735 v -7.42382 c 0,-1.0382 -0.209,-1.82672 -0.627,-2.36719 -0.4036,-0.55467 -0.9719,-0.83203 -1.707,-0.83203 -0.6054,0 -1.0959,0.1631 -1.4707,0.49023 -0.3604,0.31287 -0.6915,0.74612 -0.9942,1.30078 -0.1442,-0.59733 -0.3833,-1.04508 -0.7148,-1.34375 -0.3315,-0.29866 -0.7565,-0.44726 -1.2754,-0.44726 z m 14.7871,0 c -0.6487,0 -1.2966,0.1486 -1.9453,0.44726 -0.6343,0.29867 -1.1974,0.67573 -1.6875,1.13086 h -0.064 l -0.1523,-1.32226 h -1.4688 v 14.74218 h 1.7715 v -3.5 l -0.086,-1.96289 h 0.064 c 0.4757,0.42667 0.9945,0.76211 1.5567,1.00391 0.5765,0.22753 1.1024,0.3418 1.5781,0.3418 0.8505,0 1.6368,-0.22125 2.3574,-0.66211 0.7208,-0.44094 1.3052,-1.08086 1.752,-1.91992 0.4469,-0.83914 0.6699,-1.84162 0.6699,-3.00782 0,-1.08093 -0.1665,-2.01272 -0.498,-2.79492 -0.3316,-0.79647 -0.8201,-1.40732 -1.4688,-1.83398 -0.6342,-0.44087 -1.4276,-0.66211 -2.3789,-0.66211 z m 24.9688,0 c -0.937,0 -1.8171,0.22124 -2.6387,0.66211 -0.8071,0.42666 -1.4623,1.0448 -1.9668,1.85547 -0.5045,0.81066 -0.7578,1.77679 -0.7578,2.90039 0,1.152 0.2533,2.14193 0.7578,2.96679 0.5045,0.81067 1.1808,1.42881 2.0312,1.85547 0.8649,0.42667 1.8247,0.64063 2.877,0.64063 0.8504,0 1.6064,-0.12148 2.2695,-0.36328 0.6774,-0.24174 1.276,-0.53367 1.7949,-0.875 l -0.6484,-1.15235 c -0.4757,0.29867 -0.9732,0.5417 -1.4922,0.72656 -0.5044,0.17067 -1.0727,0.25586 -1.707,0.25586 -0.7784,0 -1.4779,-0.15055 -2.0977,-0.44922 -0.6198,-0.31286 -1.1103,-0.7679 -1.4707,-1.36523 -0.2888,-0.47878 -0.4563,-1.05786 -0.5136,-1.72851 h 8.2753 c 0.029,-0.14227 0.053,-0.30537 0.067,-0.49024 0.014,-0.18487 0.019,-0.37704 0.019,-0.57617 0,-0.98133 -0.1948,-1.83326 -0.584,-2.55859 -0.3748,-0.72534 -0.9219,-1.28735 -1.6426,-1.68555 -0.7063,-0.41247 -1.5632,-0.61914 -2.5722,-0.61914 z m 38.1992,0 c -0.9369,0 -1.817,0.22124 -2.6387,0.66211 -0.8072,0.42666 -1.4623,1.0448 -1.9668,1.85547 -0.5045,0.81066 -0.7578,1.77679 -0.7578,2.90039 0,1.152 0.2533,2.14193 0.7578,2.96679 0.5045,0.81067 1.1808,1.42881 2.0313,1.85547 0.8648,0.42667 1.8247,0.64063 2.8769,0.64063 0.8505,0 1.6065,-0.12148 2.2695,-0.36328 0.6776,-0.24174 1.2761,-0.53367 1.795,-0.875 l -0.6485,-1.15235 c -0.4756,0.29867 -0.9732,0.5417 -1.4922,0.72656 -0.5045,0.17067 -1.0747,0.25586 -1.7089,0.25586 -0.7784,0 -1.4759,-0.15055 -2.0957,-0.44922 -0.6198,-0.31286 -1.1103,-0.7679 -1.4707,-1.36523 -0.2889,-0.47878 -0.4583,-1.05785 -0.5157,-1.72851 h 8.2774 c 0.029,-0.14227 0.05,-0.30537 0.064,-0.49024 0.014,-0.18487 0.021,-0.37704 0.021,-0.57617 0,-0.98133 -0.1948,-1.83326 -0.584,-2.55859 -0.3747,-0.72534 -0.9218,-1.28735 -1.6426,-1.68555 -0.7062,-0.41247 -1.5632,-0.61914 -2.5722,-0.61914 z m 63.3183,0 c -0.9224,0 -1.7813,0.21396 -2.5742,0.64062 -0.7783,0.42667 -1.4123,1.0448 -1.9023,1.85547 -0.4758,0.81067 -0.7129,1.79864 -0.7129,2.96484 0,1.13781 0.2371,2.11317 0.7129,2.92383 0.49,0.81067 1.124,1.42881 1.9023,1.85547 0.7929,0.42667 1.6518,0.64063 2.5742,0.64063 0.9226,0 1.7725,-0.21396 2.5508,-0.64063 0.79286,-0.42666 1.42669,-1.0448 1.90236,-1.85547 0.49008,-0.81066 0.73633,-1.78603 0.73633,-2.92383 0,-1.1662 -0.24625,-2.15417 -0.73633,-2.96484 -0.47567,-0.81067 -1.1095,-1.4288 -1.90236,-1.85547 -0.7783,-0.42666 -1.6282,-0.64062 -2.5508,-0.64062 z m 15.78129,0 c -0.96577,0 -1.85296,0.24107 -2.66016,0.72461 -0.80721,0.4836 -1.4835,1.14531 -2.03125,1.98437 h -0.0645 l -0.15235,-2.45312 h -1.4707 v 10.36718 l 1.77344,0.002 v -6.08008 c 0.63423,-1.08087 1.31248,-1.84227 2.0332,-2.2832 0.73514,-0.45507 1.49822,-0.6836 2.29102,-0.6836 0.41802,0 0.75616,0.0293 1.01562,0.0859 0.25946,0.0569 0.56934,0.14934 0.92969,0.27734 l 0.41211,-1.51562 c -0.31712,-0.15667 -0.64819,-0.26169 -0.99414,-0.31836 -0.33153,-0.0711 -0.69284,-0.10742 -1.08203,-0.10742 z m 48.22851,0 c -0.93693,0 -1.8151,0.22124 -2.63672,0.66211 -0.80721,0.42666 -1.46424,1.0448 -1.96875,1.85547 -0.5045,0.81066 -0.75585,1.77679 -0.75585,2.90039 0,1.152 0.25135,2.14193 0.75585,2.96679 0.50451,0.81067 1.18275,1.42881 2.03321,1.85547 0.86486,0.42667 1.82275,0.64063 2.875,0.64063 0.85045,0 1.60842,-0.12148 2.27148,-0.36328 0.67748,-0.24174 1.276,-0.53367 1.79492,-0.875 l -0.65039,-1.15235 c -0.47567,0.29867 -0.97131,0.5417 -1.49023,0.72656 -0.50451,0.17067 -1.07475,0.25586 -1.70899,0.25586 -0.77837,0 -1.47783,-0.15055 -2.09765,-0.44922 -0.61982,-0.31286 -1.11034,-0.7679 -1.4707,-1.36523 -0.28885,-0.47878 -0.45635,-1.05785 -0.51368,-1.72851 h 8.27735 c 0.0289,-0.14227 0.05,-0.30537 0.0644,-0.49024 0.0144,-0.18487 0.0215,-0.37704 0.0215,-0.57617 0,-0.98133 -0.19479,-1.83326 -0.58398,-2.55859 -0.37477,-0.72534 -0.92185,-1.28735 -1.64258,-1.68555 -0.7063,-0.41247 -1.5652,-0.61914 -2.57422,-0.61914 z m 37.85352,0 c -0.92252,0 -1.77947,0.21396 -2.57227,0.64062 -0.77837,0.42667 -1.41225,1.0448 -1.90234,1.85547 -0.47568,0.81067 -0.71484,1.79864 -0.71484,2.96484 0,1.13781 0.23916,2.11317 0.71484,2.92383 0.49009,0.81067 1.12397,1.42881 1.90234,1.85547 0.7928,0.42667 1.64975,0.64063 2.57227,0.64063 0.92253,0 1.7724,-0.21396 2.55078,-0.64063 0.79279,-0.42666 1.42862,-1.0448 1.9043,-1.85547 0.49009,-0.81066 0.73437,-1.78603 0.73437,-2.92383 0,-1.1662 -0.24428,-2.15417 -0.73437,-2.96484 -0.47568,-0.81067 -1.11151,-1.4288 -1.9043,-1.85547 -0.77838,-0.42666 -1.62825,-0.64062 -2.55078,-0.64062 z m 25.8125,0 c -0.93693,0 -1.81705,0.22124 -2.63867,0.66211 -0.80721,0.42666 -1.46229,1.0448 -1.9668,1.85547 -0.5045,0.81066 -0.75781,1.77679 -0.75781,2.90039 0,1.152 0.25331,2.14193 0.75781,2.96679 0.50451,0.81067 1.1808,1.42881 2.03125,1.85547 0.86486,0.42667 1.8247,0.64063 2.87695,0.64063 0.85046,0 1.60647,-0.12148 2.26953,-0.36328 0.67748,-0.24174 1.27601,-0.53367 1.79493,-0.875 l -0.64844,-1.15235 c -0.47568,0.29867 -0.97327,0.5417 -1.49219,0.72656 -0.50451,0.17067 -1.07475,0.25586 -1.70898,0.25586 -0.77838,0 -1.47589,-0.15055 -2.09571,-0.44922 -0.61982,-0.31286 -1.11033,-0.7679 -1.4707,-1.36523 -0.28884,-0.47878 -0.4583,-1.05785 -0.51562,-1.72851 h 8.27734 c 0.0289,-0.14227 0.0501,-0.30537 0.0644,-0.49024 0.0144,-0.18487 0.0215,-0.37704 0.0215,-0.57617 0,-0.98133 -0.19285,-1.83326 -0.58203,-2.55859 -0.37478,-0.72534 -0.92382,-1.28735 -1.64454,-1.68555 -0.7063,-0.41247 -1.56325,-0.61914 -2.57226,-0.61914 z m 37.85351,0 c -0.92252,0 -1.78142,0.21396 -2.57421,0.64062 -0.77838,0.42667 -1.41225,1.0448 -1.90235,1.85547 -0.47567,0.81067 -0.71289,1.79864 -0.71289,2.96484 0,1.13781 0.23722,2.11317 0.71289,2.92383 0.4901,0.81067 1.12397,1.42881 1.90235,1.85547 0.79279,0.42667 1.65169,0.64063 2.57421,0.64063 0.92252,0 1.77241,-0.21396 2.55079,-0.64063 0.79279,-0.42666 1.42667,-1.0448 1.90234,-1.85547 0.49009,-0.81066 0.73437,-1.78603 0.73437,-2.92383 0,-1.1662 -0.24428,-2.15417 -0.73437,-2.96484 -0.47567,-0.81067 -1.10955,-1.4288 -1.90234,-1.85547 -0.77838,-0.42666 -1.62827,-0.64062 -2.55079,-0.64062 z m 13.92188,0 c -0.82162,0 -1.54935,0.19217 -2.18359,0.57617 -0.63423,0.384 -1.22569,0.86804 -1.77344,1.45117 h -0.0859 l -0.15234,-1.77148 h -1.47071 v 10.36718 h 1.77344 v -7.23046 c 0.61982,-0.6258 1.17397,-1.09534 1.66406,-1.40821 0.49009,-0.31286 1.04621,-0.4707 1.66602,-0.4707 0.86487,0 1.48459,0.24303 1.85937,0.72656 0.37478,0.46934 0.5625,1.19445 0.5625,2.17578 v 6.20703 h 1.77149 v -6.4414 c 0,-1.36534 -0.29377,-2.40417 -0.88477,-3.11524 -0.59098,-0.71113 -1.50645,-1.0664 -2.74609,-1.0664 z m 37.07422,0 c -1.44144,0 -2.53049,0.28465 -3.26563,0.85351 -0.73514,0.55467 -1.10156,1.25071 -1.10156,2.08985 0,0.768 0.33815,1.39342 1.01563,1.87695 0.69189,0.4836 1.72243,0.86794 3.09179,1.15234 0.72072,0.14227 1.29804,0.28554 1.73047,0.42774 0.43243,0.1422 0.75644,0.2908 0.97266,0.44726 0.23063,0.15647 0.38105,0.31957 0.45312,0.49024 0.0865,0.17066 0.13086,0.35562 0.13086,0.55469 0,0.42666 -0.22307,0.80372 -0.66992,1.13085 -0.43243,0.32714 -1.09654,0.49024 -1.99023,0.49024 -0.96577,0 -1.81565,-0.12681 -2.55079,-0.38281 -0.73513,-0.256 -1.40631,-0.59677 -2.01171,-1.02344 l -0.82032,1.15039 c 0.63424,0.42667 1.39733,0.80379 2.29102,1.13086 0.8937,0.32713 1.85157,0.49219 2.875,0.49219 1.009,0 1.86084,-0.14327 2.55273,-0.42774 0.6919,-0.2844 1.21777,-0.65424 1.57813,-1.10937 0.36036,-0.46934 0.54101,-0.98778 0.54101,-1.55664 0,-0.52627 -0.12409,-0.98124 -0.36914,-1.36524 -0.23062,-0.384 -0.66264,-0.72672 -1.29687,-1.02539 -0.61982,-0.29866 -1.51408,-0.56881 -2.68164,-0.81055 -1.06667,-0.21333 -1.8439,-0.43984 -2.33399,-0.68164 -0.47568,-0.256 -0.71289,-0.60405 -0.71289,-1.04492 0,-0.27026 0.0707,-0.52051 0.21485,-0.74804 0.15856,-0.22754 0.41187,-0.40521 0.75781,-0.53321 0.36036,-0.14226 0.84186,-0.21289 1.44726,-0.21289 0.66306,0 1.29889,0.0997 1.9043,0.29883 0.60541,0.18487 1.14542,0.44773 1.6211,0.78906 l 0.86523,-1.13086 c -0.51892,-0.3556 -1.15474,-0.66197 -1.9043,-0.91797 -0.74954,-0.2702 -1.52678,-0.40429 -2.33398,-0.40429 z m 13.77148,0 c -1.06666,0 -2.04771,0.21396 -2.9414,0.64062 -0.87928,0.42667 -1.58581,1.0448 -2.11914,1.85547 -0.53334,0.81067 -0.80079,1.79864 -0.80079,2.96484 0,1.13781 0.24625,2.11317 0.73633,2.92383 0.50451,0.81067 1.18982,1.42881 2.05469,1.85547 0.87928,0.42667 1.86544,0.64063 2.96094,0.64063 0.77838,0 1.52025,-0.14327 2.22656,-0.42774 0.72072,-0.2844 1.37069,-0.68331 1.94727,-1.19531 l -0.80079,-1.13086 c -0.43242,0.35553 -0.92295,0.66197 -1.4707,0.91797 -0.53333,0.256 -1.12283,0.38477 -1.77148,0.38477 -0.80721,0 -1.52081,-0.16317 -2.14063,-0.49024 -0.6054,-0.34133 -1.07471,-0.81087 -1.40625,-1.4082 -0.33153,-0.59734 -0.49805,-1.28805 -0.49804,-2.07032 -1e-5,-0.7964 0.16651,-1.49251 0.49804,-2.08984 0.34595,-0.6116 0.82939,-1.08114 1.44922,-1.4082 0.61982,-0.34134 1.33342,-0.51172 2.14063,-0.51172 0.56216,0 1.07389,0.10698 1.53515,0.32031 0.46126,0.21334 0.90741,0.50332 1.33985,0.87305 l 0.88671,-1.13086 c -0.43243,-0.41247 -0.96537,-0.76774 -1.5996,-1.06641 -0.61983,-0.29866 -1.3617,-0.44726 -2.22657,-0.44726 z m 24.70899,0 c -0.93694,0 -1.81705,0.22124 -2.63868,0.66211 -0.8072,0.42666 -1.46229,1.0448 -1.96679,1.85547 -0.5045,0.81066 -0.75781,1.77679 -0.75781,2.90039 0,1.152 0.25331,2.14193 0.75781,2.96679 0.5045,0.81067 1.18079,1.42881 2.03125,1.85547 0.86486,0.42667 1.8247,0.64063 2.87695,0.64063 0.85045,0 1.606471,-0.12148 2.269531,-0.36328 0.67748,-0.24174 1.276,-0.53367 1.79492,-0.875 l -0.64843,-1.15235 c -0.47568,0.29867 -0.97328,0.5417 -1.49219,0.72656 -0.504511,0.17067 -1.074751,0.25586 -1.708981,0.25586 -0.77838,0 -1.47785,-0.15055 -2.09766,-0.44922 -0.61982,-0.31286 -1.10839,-0.7679 -1.46875,-1.36523 -0.28884,-0.47878 -0.4583,-1.05785 -0.51563,-1.72851 h 8.277351 c 0.0289,-0.14227 0.05,-0.30537 0.0644,-0.49024 0.0144,-0.18487 0.0215,-0.37704 0.0215,-0.57617 1e-5,-0.98133 -0.19479,-1.83326 -0.58398,-2.55859 -0.37477,-0.72534 -0.92186,-1.28735 -1.64258,-1.68555 -0.7063,-0.41247 -1.563251,-0.61914 -2.572261,-0.61914 z m 11.175781,0 c -0.60541,0 -1.08886,0.1486 -1.44922,0.44726 -0.36036,0.29867 -0.6773,0.6903 -0.95117,1.17383 h -0.043 l -0.15234,-1.36523 h -1.42579 v 10.36718 h 1.77344 v -7.50781 c 0.25946,-0.54046 0.51789,-0.93931 0.77735,-1.19531 0.27387,-0.2702 0.59081,-0.40625 0.95117,-0.40625 0.38918,0 0.6637,0.15784 0.82226,0.4707 0.17298,0.29867 0.25977,0.74642 0.25977,1.34375 v 7.29492 h 1.64258 v -7.50781 c 0.28829,-0.54046 0.54867,-0.93931 0.77929,-1.19531 0.24505,-0.2702 0.54785,-0.40625 0.90821,-0.40625 0.74955,0 1.12304,0.60559 1.12304,1.81445 v 7.29492 h 1.77344 v -7.42382 c 0,-1.0382 -0.20893,-1.82672 -0.62695,-2.36719 -0.40361,-0.55467 -0.97385,-0.83203 -1.70899,-0.83203 -0.6054,0 -1.09397,0.1631 -1.46875,0.49023 -0.36036,0.31287 -0.69339,0.74612 -0.99609,1.30078 -0.14415,-0.59733 -0.38136,-1.04508 -0.71289,-1.34375 -0.33153,-0.29866 -0.75648,-0.44726 -1.27539,-0.44726 z m 14.28906,0 c -0.93694,0 -1.8151,0.22124 -2.63672,0.66211 -0.8072,0.42666 -1.46425,1.0448 -1.96875,1.85547 -0.5045,0.81066 -0.75586,1.77679 -0.75586,2.90039 0,1.152 0.25136,2.14193 0.75586,2.96679 0.5045,0.81067 1.18275,1.42881 2.03321,1.85547 0.86485,0.42667 1.82274,0.64063 2.875,0.64063 0.85045,0 1.60842,-0.12148 2.27148,-0.36328 0.67748,-0.24174 1.27405,-0.53367 1.79297,-0.875 l -0.64844,-1.15235 c -0.47568,0.29867 -0.97327,0.5417 -1.49219,0.72656 -0.5045,0.17067 -1.0728,0.25586 -1.70703,0.25586 -0.77838,0 -1.47783,-0.15055 -2.09765,-0.44922 -0.61982,-0.31286 -1.11035,-0.7679 -1.47071,-1.36523 -0.28884,-0.47878 -0.45634,-1.05785 -0.51367,-1.72851 h 8.27734 c 0.0289,-0.14227 0.0501,-0.30537 0.0645,-0.49024 0.0144,-0.18487 0.0215,-0.37704 0.0215,-0.57617 0,-0.98133 -0.1948,-1.83326 -0.58398,-2.55859 -0.37478,-0.72534 -0.92186,-1.28735 -1.64258,-1.68555 -0.70631,-0.41247 -1.56521,-0.61914 -2.57422,-0.61914 z m -336.203141,0.25586 3.6973,4.99218 -4,5.375 h 1.9023 l 1.7305,-2.38867 c 0.2163,-0.32713 0.4322,-0.64612 0.6484,-0.95898 0.2162,-0.31294 0.4323,-0.6193 0.6485,-0.91797 h 0.086 c 0.2306,0.29867 0.4608,0.61037 0.6914,0.9375 0.2451,0.32713 0.4772,0.64079 0.6934,0.93945 l 1.8379,2.38867 h 1.9453 l -4.0215,-5.22656 3.7402,-5.14062 h -1.8808 l -1.5782,2.24023 c -0.1874,0.28447 -0.3892,0.58362 -0.6054,0.89649 -0.2018,0.29866 -0.3966,0.59586 -0.584,0.89453 h -0.086 c -0.2019,-0.29867 -0.4108,-0.59587 -0.627,-0.89453 -0.2163,-0.29867 -0.4181,-0.58332 -0.6055,-0.85352 l -1.664,-2.2832 z m -45.7422,1.13086 c 0.9658,0 1.7309,0.30643 2.293,0.91797 0.4942,0.52418 0.7634,1.28623 0.834,2.25976 h -6.6914 c 0.075,-0.50295 0.214,-0.95517 0.4297,-1.34375 0.3315,-0.59733 0.7705,-1.05237 1.3183,-1.36523 0.5622,-0.31287 1.1678,-0.46875 1.8164,-0.46875 z m 38.1992,0 c 0.9658,0 1.7289,0.30643 2.2911,0.91797 0.4943,0.52418 0.7653,1.28623 0.8359,2.25976 h -6.6914 c 0.075,-0.50295 0.214,-0.95517 0.4297,-1.34375 0.3314,-0.59733 0.7705,-1.05237 1.3183,-1.36523 0.5622,-0.31287 1.1678,-0.46875 1.8164,-0.46875 z m 127.33012,0 c 0.96577,0 1.72886,0.30643 2.29102,0.91797 0.49421,0.52417 0.76338,1.28625 0.83398,2.25976 h -6.68945 c 0.0754,-0.5029 0.21208,-0.9552 0.42774,-1.34375 0.33152,-0.59733 0.77256,-1.05237 1.32031,-1.36523 0.56216,-0.31287 1.16776,-0.46875 1.8164,-0.46875 z m 63.66407,0 c 0.96576,0 1.72885,0.30643 2.29101,0.91797 0.49422,0.52418 0.76535,1.28623 0.83594,2.25976 h -6.69141 c 0.0754,-0.50295 0.21402,-0.95517 0.42969,-1.34375 0.33153,-0.59733 0.77061,-1.05237 1.31836,-1.36523 0.56217,-0.31287 1.16776,-0.46875 1.81641,-0.46875 z m 127.33008,0 c 0.96576,0 1.72884,0.30643 2.291011,0.91797 0.49421,0.52417 0.76338,1.28625 0.83399,2.25976 h -6.689461 c 0.0754,-0.50295 0.21402,-0.95517 0.42969,-1.34375 0.33153,-0.59733 0.77061,-1.05237 1.31836,-1.36523 0.56217,-0.31287 1.16776,-0.46875 1.81641,-0.46875 z m 25.464841,0 c 0.96577,0 1.7308,0.30643 2.29297,0.91797 0.4942,0.52417 0.76338,1.28625 0.83398,2.25976 h -6.6914 c 0.0754,-0.50295 0.21401,-0.95517 0.42968,-1.34375 0.33154,-0.59733 0.77062,-1.05237 1.31836,-1.36523 0.56216,-0.31287 1.16776,-0.46875 1.81641,-0.46875 z m -280.513711,0.0644 c 0.6776,0 1.269,0.17038 1.7735,0.51172 0.5045,0.32706 0.89214,0.7966 1.16599,1.4082 0.27392,0.59733 0.41211,1.29345 0.41211,2.08984 0,0.78227 -0.13819,1.47298 -0.41211,2.07032 -0.27385,0.59733 -0.66149,1.06687 -1.16599,1.4082 -0.5045,0.32707 -1.0959,0.49024 -1.7735,0.49024 -0.6774,-10e-6 -1.2689,-0.16317 -1.7734,-0.49024 -0.4901,-0.34133 -0.8797,-0.81087 -1.168,-1.4082 -0.2739,-0.59734 -0.4101,-1.28805 -0.4101,-2.07032 0,-0.79639 0.1362,-1.49251 0.4101,-2.08984 0.2883,-0.6116 0.6779,-1.08114 1.168,-1.4082 0.5045,-0.34134 1.096,-0.51172 1.7734,-0.51172 z m 101.86332,0 c 0.67748,0 1.26893,0.17038 1.77344,0.51172 0.5045,0.32706 0.89409,0.7966 1.16796,1.4082 0.27387,0.59733 0.41016,1.29345 0.41016,2.08984 0,0.78227 -0.13629,1.47298 -0.41016,2.07032 -0.27387,0.59733 -0.66346,1.06687 -1.16796,1.4082 -0.50451,0.32707 -1.09596,0.49024 -1.77344,0.49024 -0.67747,-10e-6 -1.26893,-0.16317 -1.77344,-0.49024 -0.49009,-0.34133 -0.87772,-0.81087 -1.16601,-1.4082 -0.27387,-0.59734 -0.41211,-1.28805 -0.41211,-2.07032 0,-0.79639 0.13824,-1.49251 0.41211,-2.08984 0.28829,-0.6116 0.67592,-1.08114 1.16601,-1.4082 0.50451,-0.34134 1.09597,-0.51172 1.77344,-0.51172 z m 63.66601,0 c 0.67748,0 1.26698,0.17038 1.77149,0.51172 0.50451,0.32706 0.8941,0.7966 1.16797,1.4082 0.27387,0.59733 0.41015,1.29345 0.41015,2.08984 0,0.78227 -0.13628,1.47298 -0.41015,2.07032 -0.27387,0.59733 -0.66346,1.06687 -1.16797,1.4082 -0.50451,0.32707 -1.09401,0.49024 -1.77149,0.49024 -0.67748,-10e-6 -1.26893,-0.16317 -1.77343,-0.49024 -0.49009,-0.34133 -0.87968,-0.81087 -1.16797,-1.4082 -0.27388,-0.59734 -0.41016,-1.28805 -0.41016,-2.07032 0,-0.79639 0.13628,-1.49251 0.41016,-2.08984 0.28829,-0.6116 0.67788,-1.08114 1.16797,-1.4082 0.5045,-0.34134 1.09595,-0.51172 1.77343,-0.51172 z m -292.47073,0.0215 c 0.7064,0 1.2766,0.1631 1.709,0.49024 0.4324,0.31286 0.7493,0.76061 0.9512,1.34375 0.2017,0.56886 0.3027,1.23057 0.3027,1.98437 0,0.85334 -0.1434,1.59302 -0.4316,2.21875 -0.274,0.6116 -0.6564,1.08114 -1.1465,1.40821 -0.4901,0.32713 -1.0462,0.49023 -1.666,0.49023 -0.346,0 -0.778,-0.0925 -1.2969,-0.27734 -0.5045,-0.18494 -1.0091,-0.49859 -1.5137,-0.93946 v -5.16211 c 0.5334,-0.5404 1.0593,-0.93202 1.5782,-1.17382 0.5334,-0.256 1.038,-0.38282 1.5136,-0.38282 z m 241.47269,0 c 0.46125,0 0.91643,0.0925 1.36328,0.27735 0.46125,0.18493 0.92862,0.49663 1.4043,0.9375 v 5.16406 c -0.47568,0.512 -0.95914,0.90167 -1.44922,1.17187 -0.49009,0.25601 -0.9928,0.38477 -1.51172,0.38477 -0.96577,0 -1.72374,-0.34805 -2.27149,-1.04492 -0.54774,-0.71113 -0.82031,-1.6865 -0.82031,-2.92383 0,-0.79647 0.14336,-1.48529 0.43164,-2.06836 0.30271,-0.59733 0.69937,-1.05958 1.18945,-1.38672 0.50451,-0.34133 1.05866,-0.51172 1.66407,-0.51172 z m -264.45119,3.73243 v 2.73046 c -0.591,0.48354 -1.1824,0.8606 -1.7734,1.13086 -0.591,0.2702 -1.1895,0.40625 -1.7949,0.40625 -0.4037,0 -0.7862,-0.0581 -1.1465,-0.17187 -0.346,-0.11373 -0.6256,-0.2914 -0.8418,-0.5332 -0.2163,-0.256 -0.3242,-0.57499 -0.3242,-0.95899 0,-0.45513 0.1716,-0.85398 0.5175,-1.19531 0.3604,-0.35553 0.966,-0.64747 1.8164,-0.875 0.8649,-0.2276 2.0478,-0.4052 3.5469,-0.5332 z m 442.777361,2.07031 c -0.47568,0 -0.88648,0.17038 -1.23242,0.51172 -0.34595,0.32706 -0.51758,0.76031 -0.51758,1.30078 0,0.5262 0.17163,0.95945 0.51758,1.30078 0.34594,0.32713 0.75674,0.49219 1.23242,0.49219 0.49009,0 0.90089,-0.16506 1.23242,-0.49219 0.34595,-0.34133 0.51953,-0.77458 0.51953,-1.30078 0,-0.54047 -0.17358,-0.97372 -0.51953,-1.30078 -0.33153,-0.34134 -0.74233,-0.51172 -1.23242,-0.51172 z"
       id="path2134"
       inkscape:connector-curvature="0" />
  </g>
</svg>
