<svg id="font-preview-slab" width="100%" height="100%" viewBox="0 0 640 120" xmlns="http://www.w3.org/2000/svg"><g transform="matrix(0.797714,0,0,0.989362,-8.00215,11.7281)"><path d="M36.022,26.083C41.705,26.936 45.814,28.239 48.349,29.991C50.884,31.743 52.152,34.393 52.152,37.942C52.152,40.143 51.525,42.12 50.271,43.872C49.018,45.624 47.221,46.994 44.881,47.982C42.541,48.971 39.755,49.465 36.524,49.465C33.627,49.465 30.897,49.004 28.334,48.083C25.771,47.162 23.765,45.893 22.316,44.276L22.316,48.791L15.547,48.791L15.547,35.853L21.731,35.853C22.344,38.459 23.876,40.581 26.328,42.221C28.779,43.861 31.844,44.681 35.521,44.681C38.028,44.681 40.006,44.198 41.454,43.232C42.903,42.266 43.627,40.907 43.627,39.155C43.627,37.762 43.307,36.651 42.666,35.82C42.026,34.989 40.995,34.337 39.574,33.865C38.153,33.394 36.134,32.978 33.515,32.619L30.339,32.147C20.255,30.62 15.213,26.779 15.213,20.625C15.213,17.255 16.592,14.605 19.35,12.673C22.108,10.742 25.799,9.776 30.423,9.776C33.209,9.776 35.716,10.146 37.944,10.888C40.173,11.629 41.984,12.673 43.377,14.021L43.377,10.517L49.895,10.517L49.895,21.433L43.878,21.433C43.265,19.502 42.039,17.873 40.201,16.548C38.362,15.223 35.604,14.56 31.927,14.56C29.476,14.56 27.554,15.021 26.161,15.941C24.768,16.862 24.071,18.109 24.071,19.681C24.071,21.343 24.851,22.646 26.411,23.589C27.971,24.533 30.395,25.252 33.682,25.746L36.022,26.083Z"/></g><g transform="matrix(0.797714,0,0,0.989362,-8.00215,11.7281)"><path d="M92.517,44.411L92.517,48.791L80.733,48.791L80.148,46.365C78.421,47.443 76.68,48.241 74.925,48.757C73.17,49.274 71.206,49.532 69.033,49.532C65.69,49.532 62.988,48.791 60.927,47.308C58.865,45.826 57.835,43.939 57.835,41.648C57.835,38.773 59.06,36.662 61.512,35.314C63.963,33.967 67.139,33.293 71.039,33.293C73.825,33.293 76.666,33.585 79.563,34.169L79.563,31.945C79.563,30.013 78.937,28.565 77.683,27.599C76.429,26.633 74.633,26.15 72.293,26.15C70.677,26.15 68.88,26.352 66.902,26.757C64.924,27.161 62.988,27.745 61.094,28.508L58.921,24.465C61.094,23.477 63.462,22.725 66.025,22.208C68.588,21.692 71.039,21.433 73.379,21.433C77.892,21.433 81.416,22.332 83.951,24.129C86.486,25.925 87.753,28.351 87.753,31.406L87.753,44.411L92.517,44.411ZM65.44,41.244C65.44,42.502 65.941,43.524 66.944,44.31C67.947,45.096 69.34,45.489 71.123,45.489C73.964,45.489 76.778,44.681 79.563,43.063L79.563,37.471C77,36.976 74.605,36.729 72.376,36.729C70.37,36.729 68.713,37.089 67.404,37.807C66.094,38.526 65.44,39.672 65.44,41.244Z"/></g><g transform="matrix(0.797714,0,0,0.989362,-8.00215,11.7281)"><path d="M159.124,44.411L159.124,48.791L140.571,48.791L140.571,44.411L145.418,44.411L145.418,31.676C145.418,30.013 144.917,28.711 143.914,27.767C142.911,26.824 141.518,26.352 139.735,26.352C136.894,26.352 133.857,27.206 130.626,28.913C130.737,29.632 130.793,30.193 130.793,30.597L130.793,44.411L136.225,44.411L136.225,48.791L117.756,48.791L117.756,44.411L122.603,44.411L122.603,31.676C122.603,30.013 122.102,28.711 121.099,27.767C120.096,26.824 118.703,26.352 116.92,26.352C114.58,26.352 111.766,27.071 108.479,28.508L108.479,44.411L113.577,44.411L113.577,48.791L94.523,48.791L94.523,44.411L100.206,44.411L100.206,26.487L94.523,26.487L94.523,22.107L108.145,22.107L108.229,24.668C112.351,22.511 116.224,21.433 119.845,21.433C122.074,21.433 123.996,21.804 125.612,22.545C127.227,23.286 128.453,24.308 129.289,25.611C131.629,24.263 133.857,23.23 135.975,22.511C138.092,21.793 140.32,21.433 142.66,21.433C145.892,21.433 148.538,22.253 150.6,23.893C152.661,25.532 153.692,27.745 153.692,30.53L153.692,44.411L159.124,44.411Z"/></g><g transform="matrix(0.797714,0,0,0.989362,-8.00215,11.7281)"><path d="M184.196,21.433C187.26,21.433 189.976,21.984 192.344,23.084C194.712,24.185 196.564,25.768 197.901,27.835C199.239,29.901 199.907,32.327 199.907,35.112C199.907,38.032 199.169,40.581 197.693,42.76C196.216,44.939 194.238,46.601 191.759,47.746C189.28,48.892 186.508,49.465 183.443,49.465C181.493,49.465 179.655,49.229 177.928,48.757C176.201,48.286 174.78,47.668 173.666,46.904L173.666,55.192L179.683,55.192L179.683,59.572L160.043,59.572L160.043,55.192L165.392,55.192L165.392,26.487L160.127,26.487L160.127,22.107L173.081,22.107L173.248,24.465C176.535,22.444 180.184,21.433 184.196,21.433ZM181.187,44.478C184.196,44.478 186.633,43.692 188.5,42.12C190.366,40.548 191.299,38.324 191.299,35.449C191.299,32.709 190.394,30.541 188.583,28.946C186.772,27.352 184.418,26.554 181.521,26.554C180.351,26.554 179.042,26.745 177.593,27.127C176.145,27.509 174.836,28.059 173.666,28.778L173.666,42.457C175.95,43.805 178.457,44.478 181.187,44.478Z"/></g><g transform="matrix(0.797714,0,0,0.989362,-8.00215,11.7281)"><path d="M203.083,48.791L203.083,44.411L208.599,44.411L208.599,14.156L203.25,14.156L203.25,9.843L216.872,9.843L216.872,44.411L221.803,44.411L221.803,48.791L203.083,48.791Z"/></g><g transform="matrix(0.797714,0,0,0.989362,-8.00215,11.7281)"><path d="M258.491,36.729L232.751,36.729C233.141,39.155 234.311,41.053 236.261,42.423C238.211,43.793 240.663,44.478 243.615,44.478C245.844,44.478 247.975,44.141 250.009,43.468C252.042,42.794 253.839,41.873 255.399,40.705L257.99,44.748C256.263,46.185 254.145,47.342 251.638,48.218C249.131,49.094 246.345,49.532 243.281,49.532C239.66,49.532 236.428,48.959 233.587,47.814C230.745,46.668 228.517,45.029 226.901,42.895C225.285,40.761 224.477,38.279 224.477,35.449C224.477,32.664 225.243,30.216 226.776,28.104C228.308,25.993 230.411,24.353 233.085,23.185C235.76,22.017 238.768,21.433 242.111,21.433C247.181,21.433 251.179,22.691 254.104,25.207C257.029,27.722 258.491,31.047 258.491,35.179L258.491,36.729ZM250.552,33.158C250.552,30.957 249.772,29.216 248.212,27.936C246.652,26.655 244.59,26.015 242.028,26.015C239.52,26.015 237.431,26.655 235.76,27.936C234.088,29.216 233.085,30.957 232.751,33.158L250.552,33.158Z"/></g><g transform="matrix(0.797714,0,0,0.989362,-8.00215,11.7281)"><path d="M288.577,48.791L288.577,44.074L294.511,44.074L294.511,15.234L288.577,15.234L288.577,10.517L309.721,10.517L309.721,15.234L303.787,15.234L303.787,26.824L326.101,26.824L326.101,15.234L320.084,15.234L320.084,10.517L341.311,10.517L341.311,15.234L335.378,15.234L335.378,44.074L341.311,44.074L341.311,48.791L320.084,48.791L320.084,44.074L326.101,44.074L326.101,31.541L303.787,31.541L303.787,44.074L309.721,44.074L309.721,48.791L288.577,48.791Z"/></g><g transform="matrix(0.797714,0,0,0.989362,-8.00215,11.7281)"><path d="M379.838,36.729L354.098,36.729C354.488,39.155 355.658,41.053 357.608,42.423C359.558,43.793 362.009,44.478 364.962,44.478C367.191,44.478 369.322,44.141 371.355,43.468C373.389,42.794 375.186,41.873 376.746,40.705L379.337,44.748C377.609,46.185 375.492,47.342 372.985,48.218C370.478,49.094 367.692,49.532 364.628,49.532C361.006,49.532 357.775,48.959 354.933,47.814C352.092,46.668 349.863,45.029 348.248,42.895C346.632,40.761 345.824,38.279 345.824,35.449C345.824,32.664 346.59,30.216 348.122,28.104C349.654,25.993 351.758,24.353 354.432,23.185C357.106,22.017 360.115,21.433 363.458,21.433C368.528,21.433 372.525,22.691 375.45,25.207C378.375,27.722 379.838,31.047 379.838,35.179L379.838,36.729ZM371.899,33.158C371.899,30.957 371.119,29.216 369.559,27.936C367.999,26.655 365.937,26.015 363.374,26.015C360.867,26.015 358.778,26.655 357.106,27.936C355.435,29.216 354.432,30.957 354.098,33.158L371.899,33.158Z"/></g><g transform="matrix(0.797714,0,0,0.989362,-8.00215,11.7281)"><path d="M419.117,44.411L419.117,48.791L407.333,48.791L406.748,46.365C405.021,47.443 403.28,48.241 401.525,48.757C399.77,49.274 397.806,49.532 395.633,49.532C392.29,49.532 389.588,48.791 387.527,47.308C385.465,45.826 384.434,43.939 384.434,41.648C384.434,38.773 385.66,36.662 388.112,35.314C390.563,33.967 393.739,33.293 397.639,33.293C400.425,33.293 403.266,33.585 406.163,34.169L406.163,31.945C406.163,30.013 405.536,28.565 404.283,27.599C403.029,26.633 401.232,26.15 398.892,26.15C397.277,26.15 395.48,26.352 393.502,26.757C391.524,27.161 389.588,27.745 387.694,28.508L385.521,24.465C387.694,23.477 390.062,22.725 392.624,22.208C395.187,21.692 397.639,21.433 399.979,21.433C404.492,21.433 408.016,22.332 410.551,24.129C413.086,25.925 414.353,28.351 414.353,31.406L414.353,44.411L419.117,44.411ZM392.039,41.244C392.039,42.502 392.541,43.524 393.544,44.31C394.547,45.096 395.939,45.489 397.722,45.489C400.564,45.489 403.377,44.681 406.163,43.063L406.163,37.471C403.6,36.976 401.205,36.729 398.976,36.729C396.97,36.729 395.313,37.089 394.003,37.807C392.694,38.526 392.039,39.672 392.039,41.244Z"/></g><g transform="matrix(0.797714,0,0,0.989362,-8.00215,11.7281)"><path d="M461.237,44.411L461.237,48.791L448.367,48.791L448.283,46.904C445.331,48.656 441.876,49.532 437.921,49.532C434.856,49.532 432.084,48.959 429.605,47.814C427.126,46.668 425.162,45.029 423.713,42.895C422.265,40.761 421.54,38.257 421.54,35.382C421.54,32.552 422.237,30.081 423.63,27.969C425.023,25.858 426.931,24.241 429.354,23.118C431.778,21.995 434.466,21.433 437.419,21.433C441.319,21.433 444.885,22.377 448.116,24.263L448.116,14.156L442.433,14.156L442.433,9.843L456.39,9.843L456.39,44.411L461.237,44.411ZM430.148,35.719C430.148,38.459 431.109,40.604 433.032,42.154C434.954,43.703 437.391,44.478 440.344,44.478C443.074,44.478 445.665,43.805 448.116,42.457L448.116,28.711C445.386,27.228 442.628,26.487 439.843,26.487C436.946,26.487 434.606,27.296 432.823,28.913C431.04,30.53 430.148,32.799 430.148,35.719Z"/></g><g transform="matrix(0.797714,0,0,0.989362,-8.00215,11.7281)"><path d="M472.603,16.649C471.043,16.649 469.748,16.256 468.717,15.47C467.686,14.684 467.171,13.684 467.171,12.471C467.171,11.258 467.686,10.259 468.717,9.473C469.748,8.687 471.043,8.293 472.603,8.293C474.163,8.293 475.458,8.687 476.489,9.473C477.52,10.259 478.035,11.258 478.035,12.471C478.035,13.684 477.52,14.684 476.489,15.47C475.458,16.256 474.163,16.649 472.603,16.649ZM463.661,48.791L463.661,44.411L469.344,44.411L469.344,26.487L463.744,26.487L463.744,22.107L477.617,22.107L477.617,44.411L482.966,44.411L482.966,48.791L463.661,48.791Z"/></g><g transform="matrix(0.797714,0,0,0.989362,-8.00215,11.7281)"><path d="M527.51,44.411L527.51,48.791L508.957,48.791L508.957,44.411L513.72,44.411L513.72,31.676C513.72,30.013 513.219,28.711 512.216,27.767C511.213,26.824 509.82,26.352 508.038,26.352C505.475,26.352 502.633,27.116 499.513,28.643L499.513,44.411L504.611,44.411L504.611,48.791L485.557,48.791L485.557,44.411L491.24,44.411L491.24,26.487L485.557,26.487L485.557,22.107L499.179,22.107L499.262,24.668C503.385,22.511 507.285,21.433 510.963,21.433C514.25,21.433 516.91,22.253 518.944,23.893C520.977,25.532 521.994,27.745 521.994,30.53L521.994,44.411L527.51,44.411Z"/></g><g transform="matrix(0.797714,0,0,0.989362,-8.00215,11.7281)"><path d="M569.63,22.107L569.63,26.487L564.532,26.487L564.532,48.724C564.532,53.036 562.972,56.259 559.852,58.393C556.732,60.527 552.498,61.594 547.149,61.594C542.971,61.594 538.569,60.987 533.945,59.774L535.366,55.125C539.544,56.158 543.166,56.675 546.23,56.675C549.461,56.675 551.941,56.068 553.668,54.855C555.395,53.643 556.259,51.823 556.259,49.397L556.259,46.365C553.194,48.207 549.712,49.128 545.812,49.128C542.636,49.128 539.809,48.566 537.33,47.443C534.85,46.32 532.9,44.725 531.48,42.659C530.059,40.593 529.348,38.144 529.348,35.314C529.348,32.484 530.045,30.025 531.438,27.936C532.831,25.847 534.753,24.252 537.204,23.152C539.656,22.051 542.469,21.501 545.645,21.501C547.539,21.501 549.461,21.781 551.411,22.343C553.361,22.904 555.033,23.634 556.426,24.533L556.426,22.107L569.63,22.107ZM537.956,35.516C537.956,38.257 538.904,40.39 540.798,41.918C542.692,43.445 545.116,44.209 548.069,44.209C550.966,44.209 553.696,43.49 556.259,42.053L556.175,28.711C553.334,27.138 550.464,26.352 547.567,26.352C544.67,26.352 542.344,27.161 540.589,28.778C538.834,30.395 537.956,32.641 537.956,35.516Z"/></g><g transform="matrix(1,0,0,1,-10.0313,-2.5518)"><path d="M17.325,98.574C15.223,98.574 13.651,98.102 12.61,97.16C11.569,96.217 11.021,95.007 10.967,93.528L12.869,93.528C12.971,94.64 13.434,95.463 14.258,95.995C15.082,96.527 16.077,96.794 17.244,96.794C18.349,96.794 19.239,96.566 19.914,96.112C20.589,95.658 20.926,95.04 20.926,94.261C20.926,93.44 20.577,92.843 19.878,92.47C19.18,92.097 17.978,91.729 16.272,91.366C14.567,91.004 13.343,90.5 12.6,89.856C11.857,89.212 11.486,88.354 11.486,87.282C11.486,86.075 11.969,85.085 12.936,84.312C13.902,83.539 15.185,83.152 16.786,83.152C18.468,83.152 19.824,83.542 20.855,84.322C21.886,85.102 22.432,86.204 22.493,87.628L20.57,87.628C20.373,85.824 19.139,84.922 16.867,84.922C15.769,84.922 14.918,85.129 14.314,85.543C13.71,85.956 13.409,86.506 13.409,87.191C13.409,87.815 13.651,88.283 14.136,88.594C14.621,88.906 15.526,89.208 16.852,89.5C18.178,89.791 19.231,90.08 20.011,90.364C20.79,90.649 21.458,91.092 22.015,91.692C22.571,92.292 22.849,93.098 22.849,94.108C22.849,95.39 22.338,96.454 21.318,97.302C20.297,98.15 18.966,98.574 17.325,98.574Z"/></g><g transform="matrix(1,0,0,1,-10.0313,-2.5518)"><path d="M32.177,95.481L32.177,93.091L30.865,93.091C28.084,93.091 26.694,93.847 26.694,95.359C26.694,95.909 26.897,96.331 27.304,96.626C27.711,96.921 28.261,97.068 28.952,97.068C29.583,97.068 30.193,96.926 30.783,96.641C31.373,96.356 31.838,95.97 32.177,95.481ZM32.177,97.211C31.2,98.119 29.942,98.574 28.403,98.574C27.331,98.574 26.45,98.284 25.758,97.704C25.066,97.124 24.72,96.376 24.72,95.461C24.72,92.938 26.894,91.677 31.241,91.677L32.177,91.677C32.177,90.904 32.136,90.342 32.055,89.993C31.973,89.644 31.746,89.354 31.373,89.123C31,88.893 30.407,88.778 29.593,88.778C27.884,88.778 27.003,89.388 26.948,90.609L25.036,90.609C25.178,88.391 26.731,87.282 29.695,87.282C31.078,87.282 32.157,87.557 32.93,88.106C33.703,88.656 34.089,89.734 34.089,91.341L34.089,98.319L32.177,98.319L32.177,97.211Z"/></g><g transform="matrix(1,0,0,1,-10.0313,-2.5518)"><path d="M51.515,98.319L49.592,98.319L49.592,91.341C49.592,90.446 49.463,89.808 49.206,89.429C48.948,89.049 48.517,88.859 47.914,88.859C46.985,88.859 46.073,89.435 45.177,90.588L45.177,98.319L43.265,98.319L43.265,91.341C43.265,90.446 43.136,89.808 42.878,89.429C42.621,89.049 42.187,88.859 41.576,88.859C40.647,88.859 39.739,89.435 38.85,90.588L38.85,98.319L36.928,98.319L36.928,87.526L38.85,87.526L38.85,88.9C39.759,87.821 40.766,87.282 41.871,87.282C43.451,87.282 44.459,87.933 44.893,89.235C45.611,88.388 46.222,87.85 46.724,87.623C47.225,87.396 47.717,87.282 48.199,87.282C50.409,87.282 51.515,88.608 51.515,91.26L51.515,98.319Z"/></g><g transform="matrix(1,0,0,1,-10.0313,-2.5518)"><path d="M56.204,88.818C57.059,87.794 58.086,87.282 59.287,87.282C60.697,87.282 61.789,87.782 62.562,88.783C63.335,89.783 63.722,91.134 63.722,92.836C63.722,94.606 63.29,96.005 62.425,97.033C61.56,98.06 60.47,98.574 59.154,98.574C57.988,98.574 57.005,98.211 56.204,97.485L56.204,102.47L54.282,102.47L54.282,87.526L56.204,87.526L56.204,88.818ZM56.204,95.756C57.025,96.631 57.968,97.068 59.032,97.068C59.86,97.068 60.518,96.714 61.006,96.005C61.494,95.296 61.738,94.24 61.738,92.836C61.738,91.507 61.508,90.498 61.047,89.81C60.585,89.122 59.941,88.778 59.114,88.778C58.049,88.778 57.079,89.395 56.204,90.629L56.204,95.756Z"/></g><g transform="matrix(1,0,0,1,-10.0313,-2.5518)"><rect x="65.868" y="83.406" width="1.923" height="14.913"/></g><g transform="matrix(1,0,0,1,-10.0313,-2.5518)"><path d="M75.207,98.574C73.62,98.574 72.345,98.077 71.382,97.083C70.419,96.09 69.937,94.705 69.937,92.928C69.937,91.165 70.404,89.783 71.336,88.783C72.269,87.782 73.488,87.282 74.993,87.282C76.533,87.282 77.762,87.774 78.681,88.757C79.6,89.741 80.059,91.131 80.059,92.928L80.059,93.386L71.931,93.386C72.013,94.634 72.357,95.559 72.964,96.163C73.571,96.766 74.318,97.068 75.207,97.068C75.878,97.068 76.483,96.897 77.023,96.554C77.562,96.212 77.845,95.725 77.872,95.095L79.856,95.095C79.706,96.207 79.203,97.065 78.345,97.668C77.487,98.272 76.441,98.574 75.207,98.574ZM78.035,91.88C77.879,90.843 77.529,90.066 76.987,89.551C76.444,89.035 75.78,88.778 74.993,88.778C74.227,88.778 73.569,89.034 73.02,89.546C72.47,90.058 72.121,90.836 71.972,91.88L78.035,91.88Z"/></g><g transform="matrix(1,0,0,1,-10.0313,-2.5518)"><path d="M91.93,98.34C91.51,98.421 91.052,98.462 90.557,98.462C89.77,98.462 89.194,98.321 88.828,98.04C88.462,97.758 88.234,97.397 88.146,96.956C88.058,96.515 88.014,95.915 88.014,95.156L88.014,89.032L86.681,89.032L86.681,87.526L88.014,87.526L88.014,84.841L89.926,84.841L89.926,87.526L91.676,87.526L91.676,89.032L89.926,89.032L89.926,95.257C89.926,95.997 90.02,96.466 90.206,96.666C90.393,96.866 90.649,96.966 90.974,96.966C91.306,96.966 91.625,96.939 91.93,96.885L91.93,98.34Z"/></g><g transform="matrix(1,0,0,1,-10.0313,-2.5518)"><path d="M98.115,98.574C96.528,98.574 95.253,98.077 94.29,97.083C93.327,96.09 92.846,94.705 92.846,92.928C92.846,91.165 93.312,89.783 94.245,88.783C95.177,87.782 96.396,87.282 97.902,87.282C99.441,87.282 100.67,87.774 101.589,88.757C102.508,89.741 102.968,91.131 102.968,92.928L102.968,93.386L94.84,93.386C94.921,94.634 95.265,95.559 95.872,96.163C96.479,96.766 97.227,97.068 98.115,97.068C98.787,97.068 99.392,96.897 99.931,96.554C100.47,96.212 100.753,95.725 100.78,95.095L102.764,95.095C102.615,96.207 102.111,97.065 101.253,97.668C100.396,98.272 99.35,98.574 98.115,98.574ZM100.943,91.88C100.787,90.843 100.438,90.066 99.895,89.551C99.353,89.035 98.688,88.778 97.902,88.778C97.135,88.778 96.477,89.034 95.928,89.546C95.379,90.058 95.03,90.836 94.88,91.88L100.943,91.88Z"/></g><g transform="matrix(1,0,0,1,-10.0313,-2.5518)"><path d="M113.974,98.319L111.594,98.319L108.908,94.108L106.223,98.319L103.842,98.319L107.83,92.714L104.158,87.526L106.538,87.526L108.908,91.3L111.278,87.526L113.659,87.526L109.987,92.694L113.974,98.319Z"/></g><g transform="matrix(1,0,0,1,-10.0313,-2.5518)"><path d="M119.722,98.34C119.301,98.421 118.843,98.462 118.348,98.462C117.562,98.462 116.985,98.321 116.619,98.04C116.253,97.758 116.026,97.397 115.938,96.956C115.849,96.515 115.805,95.915 115.805,95.156L115.805,89.032L114.473,89.032L114.473,87.526L115.805,87.526L115.805,84.841L117.718,84.841L117.718,87.526L119.467,87.526L119.467,89.032L117.718,89.032L117.718,95.257C117.718,95.997 117.811,96.466 117.997,96.666C118.184,96.866 118.44,96.966 118.765,96.966C119.098,96.966 119.417,96.939 119.722,96.885L119.722,98.34Z"/></g><g transform="matrix(1,0,0,1,-10.0313,-2.5518)"><path d="M129.101,89.032L129.101,98.319L127.188,98.319L127.188,89.032L125.601,89.032L125.601,87.526L127.188,87.526L127.188,86.57C127.188,84.291 128.195,83.152 130.21,83.152C130.827,83.152 131.305,83.193 131.644,83.274L131.644,84.943C131.264,84.875 130.878,84.841 130.484,84.841C130.016,84.841 129.669,84.971 129.442,85.232C129.214,85.494 129.101,85.946 129.101,86.59L129.101,87.526L131.145,87.526L131.145,89.032L129.101,89.032Z"/></g><g transform="matrix(1,0,0,1,-10.0313,-2.5518)"><path d="M137.015,87.282C138.554,87.282 139.784,87.774 140.703,88.757C141.621,89.741 142.081,91.131 142.081,92.928C142.081,94.718 141.621,96.107 140.703,97.094C139.784,98.08 138.554,98.574 137.015,98.574C135.482,98.574 134.257,98.08 133.338,97.094C132.419,96.107 131.959,94.718 131.959,92.928C131.959,91.131 132.419,89.741 133.338,88.757C134.257,87.774 135.482,87.282 137.015,87.282ZM137.015,97.068C137.931,97.068 138.673,96.721 139.243,96.025C139.812,95.33 140.097,94.298 140.097,92.928C140.097,91.551 139.812,90.515 139.243,89.82C138.673,89.125 137.931,88.778 137.015,88.778C136.099,88.778 135.357,89.125 134.787,89.82C134.218,90.515 133.933,91.551 133.933,92.928C133.933,94.298 134.218,95.33 134.787,96.025C135.357,96.721 136.099,97.068 137.015,97.068Z"/></g><g transform="matrix(1,0,0,1,-10.0313,-2.5518)"><path d="M149.832,89.276C149.561,89.195 149.171,89.154 148.663,89.154C147.686,89.154 146.848,89.666 146.15,90.69L146.15,98.319L144.227,98.319L144.227,87.526L146.15,87.526L146.15,89.032C146.957,87.865 147.893,87.282 148.958,87.282C149.229,87.282 149.52,87.309 149.832,87.364L149.832,89.276Z"/></g><g transform="matrix(1,0,0,1,-10.0313,-2.5518)"><path d="M160.89,98.34C160.469,98.421 160.012,98.462 159.517,98.462C158.73,98.462 158.153,98.321 157.787,98.04C157.421,97.758 157.194,97.397 157.106,96.956C157.018,96.515 156.973,95.915 156.973,95.156L156.973,89.032L155.641,89.032L155.641,87.526L156.973,87.526L156.973,84.841L158.886,84.841L158.886,87.526L160.636,87.526L160.636,89.032L158.886,89.032L158.886,95.257C158.886,95.997 158.979,96.466 159.166,96.666C159.352,96.866 159.608,96.966 159.934,96.966C160.266,96.966 160.585,96.939 160.89,96.885L160.89,98.34Z"/></g><g transform="matrix(1,0,0,1,-10.0313,-2.5518)"><path d="M164.41,88.9C165.366,87.821 166.441,87.282 167.634,87.282C170.069,87.282 171.286,88.608 171.286,91.26L171.286,98.319L169.364,98.319L169.364,91.341C169.364,90.459 169.206,89.825 168.891,89.439C168.575,89.052 168.058,88.859 167.339,88.859C166.363,88.859 165.386,89.435 164.41,90.588L164.41,98.319L162.487,98.319L162.487,83.406L164.41,83.406L164.41,88.9Z"/></g><g transform="matrix(1,0,0,1,-10.0313,-2.5518)"><path d="M178.661,98.574C177.074,98.574 175.799,98.077 174.836,97.083C173.873,96.09 173.392,94.705 173.392,92.928C173.392,91.165 173.858,89.783 174.791,88.783C175.723,87.782 176.942,87.282 178.448,87.282C179.987,87.282 181.216,87.774 182.135,88.757C183.054,89.741 183.514,91.131 183.514,92.928L183.514,93.386L175.386,93.386C175.467,94.634 175.811,95.559 176.418,96.163C177.025,96.766 177.773,97.068 178.661,97.068C179.333,97.068 179.938,96.897 180.477,96.554C181.016,96.212 181.299,95.725 181.327,95.095L183.31,95.095C183.161,96.207 182.657,97.065 181.8,97.668C180.942,98.272 179.896,98.574 178.661,98.574ZM181.489,91.88C181.333,90.843 180.984,90.066 180.442,89.551C179.899,89.035 179.234,88.778 178.448,88.778C177.681,88.778 177.024,89.034 176.474,89.546C175.925,90.058 175.576,90.836 175.426,91.88L181.489,91.88Z"/></g><g transform="matrix(1,0,0,1,-10.0313,-2.5518)"><path d="M197.074,98.574C194.971,98.574 193.4,98.102 192.359,97.16C191.318,96.217 190.77,95.007 190.716,93.528L192.618,93.528C192.72,94.64 193.183,95.463 194.007,95.995C194.831,96.527 195.826,96.794 196.992,96.794C198.098,96.794 198.988,96.566 199.662,96.112C200.337,95.658 200.675,95.04 200.675,94.261C200.675,93.44 200.325,92.843 199.627,92.47C198.928,92.097 197.726,91.729 196.021,91.366C194.315,91.004 193.091,90.5 192.348,89.856C191.606,89.212 191.235,88.354 191.235,87.282C191.235,86.075 191.718,85.085 192.684,84.312C193.651,83.539 194.934,83.152 196.534,83.152C198.216,83.152 199.573,83.542 200.603,84.322C201.634,85.102 202.18,86.204 202.241,87.628L200.319,87.628C200.122,85.824 198.888,84.922 196.616,84.922C195.517,84.922 194.666,85.129 194.063,85.543C193.459,85.956 193.157,86.506 193.157,87.191C193.157,87.815 193.4,88.283 193.884,88.594C194.369,88.906 195.275,89.208 196.601,89.5C197.926,89.791 198.979,90.08 199.759,90.364C200.539,90.649 201.207,91.092 201.763,91.692C202.319,92.292 202.597,93.098 202.597,94.108C202.597,95.39 202.087,96.454 201.066,97.302C200.046,98.15 198.715,98.574 197.074,98.574Z"/></g><g transform="matrix(1,0,0,1,-10.0313,-2.5518)"><rect x="205.09" y="83.406" width="1.923" height="14.913"/></g><g transform="matrix(1,0,0,1,-10.0313,-2.5518)"><path d="M216.676,95.481L216.676,93.091L215.364,93.091C212.583,93.091 211.193,93.847 211.193,95.359C211.193,95.909 211.397,96.331 211.803,96.626C212.21,96.921 212.76,97.068 213.451,97.068C214.082,97.068 214.692,96.926 215.282,96.641C215.872,96.356 216.337,95.97 216.676,95.481ZM216.676,97.211C215.699,98.119 214.441,98.574 212.902,98.574C211.831,98.574 210.949,98.284 210.257,97.704C209.565,97.124 209.22,96.376 209.22,95.461C209.22,92.938 211.393,91.677 215.74,91.677L216.676,91.677C216.676,90.904 216.635,90.342 216.554,89.993C216.473,89.644 216.245,89.354 215.872,89.123C215.499,88.893 214.906,88.778 214.092,88.778C212.383,88.778 211.502,89.388 211.447,90.609L209.535,90.609C209.677,88.391 211.23,87.282 214.194,87.282C215.577,87.282 216.656,87.557 217.429,88.106C218.202,88.656 218.588,89.734 218.588,91.341L218.588,98.319L216.676,98.319L216.676,97.211Z"/></g><g transform="matrix(1,0,0,1,-10.0313,-2.5518)"><path d="M223.349,88.818C224.204,87.794 225.231,87.282 226.431,87.282C227.842,87.282 228.934,87.782 229.707,88.783C230.48,89.783 230.867,91.134 230.867,92.836C230.867,94.606 230.434,96.005 229.57,97.033C228.705,98.06 227.615,98.574 226.299,98.574C225.133,98.574 224.149,98.211 223.349,97.485L223.349,98.319L221.427,98.319L221.427,83.406L223.349,83.406L223.349,88.818ZM223.349,95.756C224.17,96.631 225.112,97.068 226.177,97.068C227.005,97.068 227.662,96.714 228.151,96.005C228.639,95.296 228.883,94.24 228.883,92.836C228.883,91.507 228.652,90.498 228.191,89.81C227.73,89.122 227.086,88.778 226.259,88.778C225.194,88.778 224.224,89.395 223.349,90.629L223.349,95.756Z"/></g><g transform="matrix(1,0,0,1,-10.0313,-2.5518)"><path d="M244.427,98.574C242.324,98.574 240.753,98.102 239.712,97.16C238.671,96.217 238.123,95.007 238.069,93.528L239.971,93.528C240.073,94.64 240.536,95.463 241.36,95.995C242.184,96.527 243.179,96.794 244.345,96.794C245.451,96.794 246.341,96.566 247.016,96.112C247.69,95.658 248.028,95.04 248.028,94.261C248.028,93.44 247.679,92.843 246.98,92.47C246.281,92.097 245.079,91.729 243.374,91.366C241.668,91.004 240.444,90.5 239.702,89.856C238.959,89.212 238.588,88.354 238.588,87.282C238.588,86.075 239.071,85.085 240.037,84.312C241.004,83.539 242.287,83.152 243.888,83.152C245.569,83.152 246.926,83.542 247.957,84.322C248.987,85.102 249.533,86.204 249.594,87.628L247.672,87.628C247.475,85.824 246.241,84.922 243.969,84.922C242.87,84.922 242.019,85.129 241.416,85.543C240.812,85.956 240.51,86.506 240.51,87.191C240.51,87.815 240.753,88.283 241.238,88.594C241.722,88.906 242.628,89.208 243.954,89.5C245.279,89.791 246.332,90.08 247.112,90.364C247.892,90.649 248.56,91.092 249.116,91.692C249.672,92.292 249.95,93.098 249.95,94.108C249.95,95.39 249.44,96.454 248.419,97.302C247.399,98.15 246.068,98.574 244.427,98.574Z"/></g><g transform="matrix(1,0,0,1,-10.0313,-2.5518)"><path d="M257.03,98.574C255.444,98.574 254.169,98.077 253.206,97.083C252.243,96.09 251.761,94.705 251.761,92.928C251.761,91.165 252.227,89.783 253.16,88.783C254.092,87.782 255.311,87.282 256.817,87.282C258.356,87.282 259.585,87.774 260.504,88.757C261.423,89.741 261.883,91.131 261.883,92.928L261.883,93.386L253.755,93.386C253.836,94.634 254.18,95.559 254.787,96.163C255.394,96.766 256.142,97.068 257.03,97.068C257.702,97.068 258.307,96.897 258.846,96.554C259.385,96.212 259.669,95.725 259.696,95.095L261.679,95.095C261.53,96.207 261.027,97.065 260.169,97.668C259.311,98.272 258.265,98.574 257.03,98.574ZM259.858,91.88C259.702,90.843 259.353,90.066 258.811,89.551C258.268,89.035 257.604,88.778 256.817,88.778C256.05,88.778 255.393,89.034 254.843,89.546C254.294,90.058 253.945,90.836 253.796,91.88L259.858,91.88Z"/></g><g transform="matrix(1,0,0,1,-10.0313,-2.5518)"><path d="M269.634,89.276C269.363,89.195 268.973,89.154 268.464,89.154C267.488,89.154 266.65,89.666 265.952,90.69L265.952,98.319L264.029,98.319L264.029,87.526L265.952,87.526L265.952,89.032C266.759,87.865 267.695,87.282 268.759,87.282C269.031,87.282 269.322,87.309 269.634,87.364L269.634,89.276Z"/></g><g transform="matrix(1,0,0,1,-10.0313,-2.5518)"><path d="M272.889,98.319L270.967,98.319L270.967,87.526L272.889,87.526L272.889,98.319ZM272.889,85.482L270.967,85.482L270.967,83.406L272.889,83.406L272.889,85.482Z"/></g><g transform="matrix(1,0,0,1,-10.0313,-2.5518)"><path d="M277.966,89.032L277.966,98.319L276.053,98.319L276.053,89.032L274.466,89.032L274.466,87.526L276.053,87.526L276.053,86.57C276.053,84.291 277.06,83.152 279.074,83.152C279.691,83.152 280.17,83.193 280.509,83.274L280.509,84.943C280.129,84.875 279.742,84.841 279.349,84.841C278.881,84.841 278.533,84.971 278.306,85.232C278.079,85.494 277.966,85.946 277.966,86.59L277.966,87.526L280.01,87.526L280.01,89.032L277.966,89.032Z"/></g><g transform="matrix(1,0,0,1,-10.0313,-2.5518)"><path d="M289.288,89.032L289.288,98.319L287.375,98.319L287.375,89.032L285.788,89.032L285.788,87.526L287.375,87.526L287.375,86.57C287.375,84.291 288.382,83.152 290.396,83.152C291.013,83.152 291.492,83.193 291.831,83.274L291.831,84.943C291.451,84.875 291.064,84.841 290.671,84.841C290.203,84.841 289.855,84.971 289.628,85.232C289.401,85.494 289.288,85.946 289.288,86.59L289.288,87.526L291.332,87.526L291.332,89.032L289.288,89.032Z"/></g><g transform="matrix(1,0,0,1,-10.0313,-2.5518)"><path d="M297.202,87.282C298.741,87.282 299.97,87.774 300.889,88.757C301.808,89.741 302.268,91.131 302.268,92.928C302.268,94.718 301.808,96.107 300.889,97.094C299.97,98.08 298.741,98.574 297.202,98.574C295.669,98.574 294.443,98.08 293.524,97.094C292.605,96.107 292.146,94.718 292.146,92.928C292.146,91.131 292.605,89.741 293.524,88.757C294.443,87.774 295.669,87.282 297.202,87.282ZM297.202,97.068C298.117,97.068 298.86,96.721 299.43,96.025C299.999,95.33 300.284,94.298 300.284,92.928C300.284,91.551 299.999,90.515 299.43,89.82C298.86,89.125 298.117,88.778 297.202,88.778C296.286,88.778 295.544,89.125 294.974,89.82C294.404,90.515 294.119,91.551 294.119,92.928C294.119,94.298 294.404,95.33 294.974,96.025C295.544,96.721 296.286,97.068 297.202,97.068Z"/></g><g transform="matrix(1,0,0,1,-10.0313,-2.5518)"><path d="M306.337,88.9C307.293,87.821 308.368,87.282 309.561,87.282C311.996,87.282 313.213,88.608 313.213,91.26L313.213,98.319L311.291,98.319L311.291,91.341C311.291,90.459 311.133,89.825 310.818,89.439C310.502,89.052 309.985,88.859 309.266,88.859C308.29,88.859 307.313,89.435 306.337,90.588L306.337,98.319L304.414,98.319L304.414,87.526L306.337,87.526L306.337,88.9Z"/></g><g transform="matrix(1,0,0,1,-10.0313,-2.5518)"><path d="M320.192,98.34C319.771,98.421 319.313,98.462 318.818,98.462C318.032,98.462 317.455,98.321 317.089,98.04C316.723,97.758 316.496,97.397 316.407,96.956C316.319,96.515 316.275,95.915 316.275,95.156L316.275,89.032L314.943,89.032L314.943,87.526L316.275,87.526L316.275,84.841L318.188,84.841L318.188,87.526L319.937,87.526L319.937,89.032L318.188,89.032L318.188,95.257C318.188,95.997 318.281,96.466 318.467,96.666C318.654,96.866 318.91,96.966 319.235,96.966C319.568,96.966 319.886,96.939 320.192,96.885L320.192,98.34Z"/></g><g transform="matrix(1,0,0,1,-10.0313,-2.5518)"><path d="M331.178,98.574C328.228,98.574 326.685,97.414 326.549,95.095L328.472,95.095C328.486,96.41 329.381,97.068 331.158,97.068C331.951,97.068 332.556,96.904 332.973,96.575C333.391,96.246 333.599,95.834 333.599,95.339C333.599,94.851 333.396,94.506 332.989,94.306C332.582,94.106 331.743,93.847 330.471,93.528C329.199,93.209 328.27,92.853 327.684,92.46C327.097,92.067 326.804,91.375 326.804,90.385C326.804,89.49 327.168,88.749 327.897,88.162C328.626,87.576 329.601,87.282 330.822,87.282C333.65,87.282 335.094,88.289 335.155,90.303L333.243,90.303C333.175,89.286 332.412,88.778 330.954,88.778C330.31,88.778 329.776,88.9 329.352,89.144C328.928,89.388 328.716,89.744 328.716,90.212C328.716,90.632 328.879,90.936 329.205,91.122C329.53,91.309 330.346,91.56 331.651,91.875C332.956,92.19 333.926,92.558 334.56,92.979C335.194,93.399 335.511,94.125 335.511,95.156C335.511,96.139 335.12,96.955 334.337,97.602C333.553,98.25 332.5,98.574 331.178,98.574Z"/></g><g transform="matrix(1,0,0,1,-10.0313,-2.5518)"><path d="M342.113,98.574C340.581,98.574 339.355,98.08 338.436,97.094C337.517,96.107 337.058,94.718 337.058,92.928C337.058,91.131 337.517,89.741 338.436,88.757C339.355,87.774 340.581,87.282 342.113,87.282C343.293,87.282 344.279,87.581 345.069,88.177C345.859,88.774 346.325,89.635 346.467,90.761L344.494,90.761C344.467,90.117 344.224,89.625 343.766,89.286C343.309,88.947 342.758,88.778 342.113,88.778C341.198,88.778 340.455,89.125 339.886,89.82C339.316,90.515 339.031,91.551 339.031,92.928C339.031,94.298 339.316,95.33 339.886,96.025C340.455,96.721 341.198,97.068 342.113,97.068C342.758,97.068 343.309,96.899 343.766,96.56C344.224,96.22 344.467,95.732 344.494,95.095L346.467,95.095C346.325,96.22 345.859,97.082 345.069,97.679C344.279,98.275 343.293,98.574 342.113,98.574Z"/></g><g transform="matrix(1,0,0,1,-10.0313,-2.5518)"><path d="M350.079,88.9C351.035,87.821 352.11,87.282 353.303,87.282C355.738,87.282 356.955,88.608 356.955,91.26L356.955,98.319L355.033,98.319L355.033,91.341C355.033,90.459 354.875,89.825 354.56,89.439C354.244,89.052 353.727,88.859 353.008,88.859C352.032,88.859 351.055,89.435 350.079,90.588L350.079,98.319L348.156,98.319L348.156,83.406L350.079,83.406L350.079,88.9Z"/></g><g transform="matrix(1,0,0,1,-10.0313,-2.5518)"><path d="M364.33,98.574C362.743,98.574 361.468,98.077 360.505,97.083C359.542,96.09 359.061,94.705 359.061,92.928C359.061,91.165 359.527,89.783 360.46,88.783C361.392,87.782 362.611,87.282 364.117,87.282C365.656,87.282 366.885,87.774 367.804,88.757C368.723,89.741 369.183,91.131 369.183,92.928L369.183,93.386L361.055,93.386C361.136,94.634 361.48,95.559 362.087,96.163C362.694,96.766 363.442,97.068 364.33,97.068C365.002,97.068 365.607,96.897 366.146,96.554C366.685,96.212 366.968,95.725 366.995,95.095L368.979,95.095C368.83,96.207 368.326,97.065 367.468,97.668C366.611,98.272 365.565,98.574 364.33,98.574ZM367.158,91.88C367.002,90.843 366.653,90.066 366.11,89.551C365.568,89.035 364.903,88.778 364.117,88.778C363.35,88.778 362.692,89.034 362.143,89.546C361.594,90.058 361.245,90.836 361.095,91.88L367.158,91.88Z"/></g><g transform="matrix(1,0,0,1,-10.0313,-2.5518)"><path d="M385.916,98.319L383.994,98.319L383.994,91.341C383.994,90.446 383.865,89.808 383.607,89.429C383.349,89.049 382.919,88.859 382.315,88.859C381.386,88.859 380.474,89.435 379.579,90.588L379.579,98.319L377.666,98.319L377.666,91.341C377.666,90.446 377.538,89.808 377.28,89.429C377.022,89.049 376.588,88.859 375.978,88.859C375.049,88.859 374.14,89.435 373.252,90.588L373.252,98.319L371.329,98.319L371.329,87.526L373.252,87.526L373.252,88.9C374.16,87.821 375.167,87.282 376.273,87.282C377.853,87.282 378.86,87.933 379.294,89.235C380.013,88.388 380.623,87.85 381.125,87.623C381.627,87.396 382.119,87.282 382.6,87.282C384.811,87.282 385.916,88.608 385.916,91.26L385.916,98.319Z"/></g><g transform="matrix(1,0,0,1,-10.0313,-2.5518)"><path d="M393.271,98.574C391.684,98.574 390.409,98.077 389.446,97.083C388.483,96.09 388.002,94.705 388.002,92.928C388.002,91.165 388.468,89.783 389.4,88.783C390.333,87.782 391.552,87.282 393.057,87.282C394.597,87.282 395.826,87.774 396.745,88.757C397.664,89.741 398.123,91.131 398.123,92.928L398.123,93.386L389.996,93.386C390.077,94.634 390.421,95.559 391.028,96.163C391.635,96.766 392.383,97.068 393.271,97.068C393.942,97.068 394.548,96.897 395.087,96.554C395.626,96.212 395.909,95.725 395.936,95.095L397.92,95.095C397.771,96.207 397.267,97.065 396.409,97.668C395.551,98.272 394.505,98.574 393.271,98.574ZM396.099,91.88C395.943,90.843 395.594,90.066 395.051,89.551C394.509,89.035 393.844,88.778 393.057,88.778C392.291,88.778 391.633,89.034 391.084,89.546C390.535,90.058 390.185,90.836 390.036,91.88L396.099,91.88Z"/></g><g transform="matrix(1,0,0,1,-10.0313,-2.5518)"><rect x="400.707" y="96.234" width="2.085" height="2.085"/></g></svg>