<?xml version="1.0" encoding="UTF-8" standalone="no"?>
<!-- Created with Inkscape (http://www.inkscape.org/) -->

<svg
   xmlns:dc="http://purl.org/dc/elements/1.1/"
   xmlns:cc="http://creativecommons.org/ns#"
   xmlns:rdf="http://www.w3.org/1999/02/22-rdf-syntax-ns#"
   xmlns:svg="http://www.w3.org/2000/svg"
   xmlns="http://www.w3.org/2000/svg"
   xmlns:sodipodi="http://sodipodi.sourceforge.net/DTD/sodipodi-0.dtd"
   xmlns:inkscape="http://www.inkscape.org/namespaces/inkscape"
   width="500"
   height="89.999992"
   viewBox="0 0 499.99999 89.999995"
   version="1.1"
   id="svg2876"
   inkscape:version="0.92.3 (2405546, 2018-03-11)"
   sodipodi:docname="font-preview-serif.svg">
  <defs
     id="defs2870" />
  <sodipodi:namedview
     id="base"
     pagecolor="#ffffff"
     bordercolor="#666666"
     borderopacity="1.0"
     inkscape:pageopacity="0.0"
     inkscape:pageshadow="2"
     inkscape:zoom="0.35"
     inkscape:cx="868.57141"
     inkscape:cy="-269.28572"
     inkscape:document-units="px"
     inkscape:current-layer="layer1"
     showgrid="false"
     fit-margin-top="0"
     fit-margin-left="0"
     fit-margin-right="0"
     fit-margin-bottom="0"
     showborder="false"
     inkscape:window-width="1366"
     inkscape:window-height="705"
     inkscape:window-x="-8"
     inkscape:window-y="-8"
     inkscape:window-maximized="1" />
  <metadata
     id="metadata2873">
    <rdf:RDF>
      <cc:Work
         rdf:about="">
        <dc:format>image/svg+xml</dc:format>
        <dc:type
           rdf:resource="http://purl.org/dc/dcmitype/StillImage" />
        <dc:title></dc:title>
      </cc:Work>
    </rdf:RDF>
  </metadata>
  <g
     inkscape:label="Layer 1"
     inkscape:groupmode="layer"
     id="layer1"
     transform="translate(932.85712,-203.23394)">
    <rect
       y="203.30359"
       x="-932.78748"
       height="89.860703"
       width="499.86072"
       id="rect925"
       style="opacity:1;fill:none;fill-opacity:1;stroke:#000000;stroke-width:0.13929218;stroke-miterlimit:4;stroke-dasharray:none;stroke-opacity:1" />
    <path
       inkscape:connector-curvature="0"
       style="font-style:normal;font-variant:normal;font-weight:600;font-stretch:normal;font-size:49.33333588px;line-height:100%;font-family:'Crimson Pro';-inkscape-font-specification:'Crimson Pro Semi-Bold';letter-spacing:-1.42999995px;word-spacing:0px;fill:#000000;fill-opacity:1;stroke:none;stroke-width:0.99681836px;stroke-linecap:butt;stroke-linejoin:miter;stroke-opacity:1"
       d="m -803.01136,211.21316 -8.4043,2.20899 0.098,1.87304 3.5528,0.48047 c 0.032,0.44822 0.064,1.08946 0.096,1.92188 0.032,0.8004 0.049,1.72863 0.049,2.78515 0.032,1.05652 0.047,2.17674 0.047,3.36133 0.032,1.15257 0.049,2.2896 0.049,3.41016 v 6.05078 c 0,1.31265 -0.017,2.57637 -0.049,3.79297 -0.032,1.18458 -0.064,2.19297 -0.096,3.02539 -0.032,0.83241 -0.081,1.39349 -0.1446,1.68164 l -3.1211,0.7207 0.1446,2.11328 h 11.959 l 0.096,-2.11328 -3.1231,-0.7207 c -0.064,-0.28815 -0.1274,-1.21638 -0.1914,-2.78516 -0.032,-1.60079 -0.047,-3.45726 -0.047,-5.57031 l 0.047,-7.30078 v -5.85742 c 0.032,-1.6008 0.064,-3.04164 0.096,-4.32227 0.064,-1.31265 0.1125,-2.64166 0.1445,-3.98633 z m 128.89255,0 -8.45312,2.20899 0.0957,1.92187 3.65039,0.57617 c 0.032,0.32016 0.0488,0.81595 0.0488,1.48828 0.032,0.67233 0.0469,1.4254 0.0469,2.25782 0.032,0.83241 0.0488,1.66368 0.0488,2.49609 0.032,0.80039 0.0469,1.49012 0.0469,2.06641 -0.48024,-0.28814 -1.08785,-0.49694 -1.82422,-0.625 -0.73636,-0.16008 -1.45581,-0.24024 -2.16016,-0.24024 -1.37668,0 -2.73736,0.27214 -4.08203,0.81641 -1.34466,0.51226 -2.57866,1.26532 -3.69922,2.25781 -1.08854,0.99249 -1.95147,2.20968 -2.59179,3.65039 -0.64032,1.4087 -0.96094,3.0079 -0.96094,4.80078 0,2.01701 0.41563,3.79527 1.24805,5.33203 0.86442,1.50474 2.01631,2.6883 3.45703,3.55274 1.44071,0.86442 3.027,1.29687 4.75586,1.29687 1.05652,0 2.07977,-0.27213 3.07226,-0.8164 1.02451,-0.54427 1.96956,-1.48932 2.83399,-2.83399 l 0.14453,0.0488 -0.0488,3.07422 1.10547,0.67187 7.53906,-1.96875 v -0.23437 l 0.11133,1.62695 h 12.10156 l 0.14453,-2.11328 -3.21679,-0.7207 c -0.0961,-0.25613 -0.17624,-0.86374 -0.24024,-1.82422 -0.032,-0.96048 -0.0488,-2.03416 -0.0488,-3.21875 v -6.05078 c 0,-1.31266 0.0168,-2.46454 0.0488,-3.45703 0.064,-1.02451 0.14419,-2.0329 0.24024,-3.02539 l -1.10547,-0.81641 -8.21094,2.06445 v 1.96875 l 3.2168,0.67188 c 0.16004,0.73636 0.27187,1.53792 0.33593,2.40234 0.0641,0.83242 0.0957,1.74384 0.0957,2.73633 l -0.0469,3.65039 c 0,0.92847 -0.0168,1.74487 -0.0488,2.44922 -0.0321,0.67233 -0.0637,1.21661 -0.0957,1.63281 -0.032,0.41621 -0.0637,0.68834 -0.0957,0.81641 l -3.18555,0.71289 v -1.19336 l -3.12109,-0.7207 c -0.064,-0.54427 -0.14418,-1.34387 -0.24024,-2.40039 -0.096,-1.05653 -0.14453,-2.4004 -0.14453,-4.03321 l 0.0488,-11.09375 c 0,-1.92094 0.0316,-3.74574 0.0957,-5.47461 0.064,-1.76087 0.14419,-3.63416 0.24024,-5.61914 z m 10.48438,0.7207 c -1.12056,0 -2.01713,0.3523 -2.68945,1.05664 -0.67234,0.70436 -1.00782,1.52077 -1.00782,2.44922 0,0.96048 0.33548,1.7937 1.00782,2.49805 0.67232,0.67233 1.56889,1.00781 2.68945,1.00781 1.12056,0 2.00031,-0.33548 2.64062,-1.00781 0.64032,-0.70435 0.96094,-1.53757 0.96094,-2.49805 0,-0.92845 -0.32062,-1.74486 -0.96094,-2.44922 -0.64031,-0.70434 -1.52006,-1.05664 -2.64062,-1.05664 z m -243.55272,3.98633 c -2.2091,0 -4.1625,0.3523 -5.8594,1.05664 -1.6967,0.70435 -3.0258,1.69593 -3.9863,2.97657 -0.9285,1.24862 -1.3926,2.70627 -1.3926,4.37109 0,1.56877 0.3374,2.86611 1.0098,3.89062 0.6723,1.02451 1.5352,1.87259 2.5918,2.54493 1.0564,0.67233 2.1786,1.24827 3.3633,1.72851 1.1845,0.48024 2.3048,0.97604 3.3613,1.48828 1.0565,0.51226 1.9194,1.12182 2.5918,1.82617 0.6723,0.70436 1.0097,1.61579 1.0097,2.73633 0,1.12056 -0.4156,2.01712 -1.248,2.68946 -0.8004,0.64031 -1.9543,0.96093 -3.459,0.96093 -0.8324,0 -1.6972,-0.11183 -2.5937,-0.33593 -0.8964,-0.25613 -1.7129,-0.62523 -2.4493,-1.10547 l -1.5351,-4.70703 -2.7383,0.19336 0.2402,6.81835 c 1.0886,0.60831 2.4176,1.10605 3.9864,1.49024 1.5688,0.35218 3.0413,0.52734 4.4179,0.52734 2.2732,0 4.275,-0.35228 6.0039,-1.05664 1.7288,-0.73636 3.0728,-1.72794 4.0333,-2.97656 0.9605,-1.28063 1.4414,-2.72147 1.4414,-4.32227 0,-1.50474 -0.3374,-2.7536 -1.0098,-3.74609 -0.6723,-0.99249 -1.5521,-1.8089 -2.6406,-2.44922 -1.0565,-0.67233 -2.1935,-1.24827 -3.4102,-1.72851 -1.1845,-0.51226 -2.3215,-1.02486 -3.4101,-1.53711 -1.0565,-0.54427 -1.9195,-1.1687 -2.5918,-1.87305 -0.6724,-0.73636 -1.0098,-1.64974 -1.0098,-2.73828 0,-1.21661 0.4325,-2.17651 1.2969,-2.88086 0.8964,-0.70435 2.0651,-1.05664 3.5058,-1.05664 1.3446,0 2.545,0.28895 3.6016,0.86523 l 1.4414,4.46485 2.7363,-0.19141 -0.4804,-6.67578 c -0.5764,-0.25613 -1.2473,-0.47978 -2.0157,-0.67188 -0.7684,-0.19209 -1.5699,-0.33559 -2.4023,-0.43164 -0.8324,-0.096 -1.6319,-0.14453 -2.4004,-0.14453 z m 138.75189,0.52735 -0.1445,2.21093 3.0254,0.71875 c 0.064,0.096 0.1125,0.48001 0.1445,1.15235 0.032,0.64032 0.064,1.49035 0.096,2.54687 0.032,1.05653 0.047,2.27176 0.047,3.64844 v 7.68359 c 0,1.31265 -0.015,2.49816 -0.047,3.55469 -0.032,1.05652 -0.064,1.9046 -0.096,2.54492 -0.032,0.64032 -0.081,1.0411 -0.1445,1.20118 l -3.0254,0.7207 0.1445,2.20898 h 11.9571 l 0.1445,-2.20898 -2.9785,-0.7207 c -0.064,-0.16009 -0.1274,-0.56086 -0.1914,-1.20118 -0.032,-0.64032 -0.064,-1.47159 -0.096,-2.49609 v -3.60352 -2.54492 c 0.5229,-0.0351 1.0051,-0.0746 1.6816,-0.0957 1.0565,-0.032 2.4321,-0.0469 4.1289,-0.0469 1.6648,0 3.0087,0.0149 4.0332,0.0469 0.6765,0.0211 1.1587,0.0606 1.6817,0.0957 v 2.54492 c 0,1.34467 -0.017,2.54699 -0.049,3.60352 0,1.0245 -0.032,1.85577 -0.096,2.49609 -0.032,0.64032 -0.078,1.0411 -0.1425,1.20118 l -2.9785,0.7207 0.1445,2.20898 h 12.00584 l 0.14453,-2.20898 -2.97851,-0.7207 c -0.0643,-0.16009 -0.12761,-0.57572 -0.19141,-1.24805 -0.0319,-0.67234 -0.0638,-1.53723 -0.0957,-2.59375 -0.0319,-1.05652 -0.0488,-2.21037 -0.0488,-3.45899 v -7.68359 c 0,-1.31265 0.0169,-2.49621 0.0488,-3.55273 0.0319,-1.05653 0.0638,-1.92142 0.0957,-2.59375 0.0643,-0.67234 0.12761,-1.07312 0.19141,-1.20118 l 2.97851,-0.71875 -0.14453,-2.21093 h -12.00584 l -0.1445,2.21093 2.9785,0.71875 c 0.064,0.12806 0.1105,0.51203 0.1425,1.15235 0.064,0.64032 0.096,1.49035 0.096,2.54687 0.032,1.02451 0.049,2.23974 0.049,3.64844 v 1.86523 c -0.5297,0.0463 -1.1051,0.0832 -1.7774,0.10352 -1.0245,0.032 -2.3367,0.0488 -3.9375,0.0488 -1.6008,0 -2.9446,-0.0168 -4.0332,-0.0488 -0.6722,-0.0204 -1.2476,-0.0572 -1.7773,-0.10352 v -1.86523 -3.64844 c 0.032,-1.05652 0.064,-1.90655 0.096,-2.54687 0.064,-0.64032 0.1274,-1.02429 0.1914,-1.15235 l 2.9785,-0.71875 -0.1445,-2.21093 z m 148.00395,6.82031 c -1.79288,0 -3.40889,0.35229 -4.84961,1.05664 -1.4087,0.70435 -2.52892,1.66425 -3.36132,2.88086 -0.83242,1.18459 -1.25,2.56208 -1.25,4.13086 0,1.47272 0.38396,2.78492 1.15234,3.9375 0.74964,1.04949 1.77731,1.87957 3.06055,2.50781 -0.9238,0.42706 -1.71456,0.91576 -2.33985,1.47852 -0.96047,0.86443 -1.43945,1.77585 -1.43945,2.73632 0,0.9925 0.43245,1.79405 1.29687,2.40235 0.6151,0.41739 1.37531,0.67955 2.26172,0.81055 -1.59475,0.63464 -2.86037,1.339 -3.75195,2.11914 -1.02451,0.92846 -1.53711,1.93685 -1.53711,3.02539 0,1.60078 0.91338,2.8645 2.73828,3.79297 1.85692,0.96047 4.40117,1.4414 7.63477,1.4414 2.24111,0 4.24303,-0.35229 6.0039,-1.05664 1.76088,-0.70435 3.15322,-1.66426 4.17774,-2.88086 1.0245,-1.21661 1.53711,-2.56242 1.53711,-4.03516 0,-1.66482 -0.59276,-2.99384 -1.77735,-3.98632 -1.15256,-0.9925 -2.91207,-1.60012 -5.28125,-1.82422 l -6.91601,-0.67188 c -0.54428,-0.064 -0.95991,-0.20753 -1.24805,-0.43164 -0.28815,-0.25612 -0.43359,-0.57674 -0.43359,-0.96094 0,-0.28814 0.11182,-0.57708 0.33593,-0.86523 0.13145,-0.14788 0.29062,-0.29548 0.47266,-0.44336 1.04191,0.28674 2.17534,0.44336 3.41797,0.44336 1.79289,0 3.37722,-0.32062 4.75391,-0.96094 1.40869,-0.67234 2.51405,-1.58376 3.31445,-2.73633 0.80039,-1.18458 1.20117,-2.5136 1.20117,-3.98632 0,-1.50475 -0.40078,-2.84861 -1.20117,-4.03321 -0.0316,-0.0467 -0.0711,-0.0868 -0.10352,-0.13281 l 4.04102,0.37305 v -3.60352 l -6.78516,0.77344 c -0.14039,-0.0807 -0.271,-0.16895 -0.41797,-0.24414 -1.37668,-0.70435 -2.94615,-1.05664 -4.70703,-1.05664 z m -267.24214,0.0488 c -0.8004,0.096 -1.6821,0.33456 -2.6426,0.71875 -0.9605,0.38419 -1.8887,0.8483 -2.7852,1.39257 -0.8644,0.54427 -1.5839,1.12217 -2.1601,1.73047 -0.5764,0.60831 -0.8653,1.19911 -0.8653,1.77539 0,0.92846 0.4642,1.60138 1.3926,2.01758 0.9605,0.38422 2.1608,0.41586 3.6016,0.0957 l 0.1933,-2.5918 c 0.064,-0.8004 0.2076,-1.32981 0.4317,-1.58594 0.2561,-0.28814 0.6885,-0.43164 1.2969,-0.43164 0.8644,0 1.664,0.19199 2.4003,0.57617 0.7364,0.3842 1.3292,0.87998 1.7774,1.48828 0.4483,0.60831 0.6719,1.26441 0.6719,1.96875 v 1.96875 l -7.4922,2.30664 c -1.5368,0.48024 -2.657,1.10467 -3.3613,1.87305 -0.7044,0.73637 -1.0567,1.6646 -1.0567,2.78516 0,0.8004 0.2721,1.63166 0.8164,2.49609 0.5443,0.86443 1.3291,1.60068 2.3535,2.20899 1.0566,0.6083 2.3054,0.91211 3.7461,0.91211 0.9925,0 2.0009,-0.31868 3.0254,-0.95899 0.815,-0.53485 1.6194,-1.23865 2.4141,-2.09766 l 0.4199,1.23243 c 0.4482,1.2166 1.2478,1.82422 2.4004,1.82422 0.3841,0 0.7998,-0.0633 1.248,-0.19141 0.4482,-0.0961 0.946,-0.25636 1.4903,-0.48047 l 2.832,-1.20117 v -1.82422 l -3.1211,-0.57617 c -0.128,-0.32016 -0.2231,-0.73579 -0.2871,-1.24805 -0.032,-0.54427 -0.049,-1.21719 -0.049,-2.01758 l 0.1445,-7.10742 c -0.032,-2.14507 -0.8484,-3.85804 -2.4492,-5.13867 -1.5688,-1.28063 -3.6974,-1.91992 -6.3867,-1.91992 z m 27.4355,0 c -1.1846,0 -2.3216,0.287 -3.4101,0.86328 -1.0886,0.57629 -2.1435,1.50452 -3.168,2.78515 l -0.1445,-0.0469 0.2871,-2.68945 -1.1524,-0.81641 -7.8281,2.06445 v 1.96875 l 3.0742,0.67188 c 0.096,0.48023 0.1762,1.00965 0.2403,1.58594 0.064,0.54426 0.1125,1.12021 0.1445,1.72851 0.032,0.57629 0.047,1.18391 0.047,1.82422 l -0.047,3.65039 c 0,0.92847 -0.017,1.74487 -0.049,2.44922 -0.032,0.67233 -0.064,1.21661 -0.096,1.63281 -0.032,0.41621 -0.064,0.68834 -0.096,0.81641 l -2.9785,0.76758 0.1446,2.0664 h 11.3339 l 0.1446,-2.0664 -2.7383,-0.76758 c -0.096,-0.25613 -0.1762,-0.86374 -0.2402,-1.82422 -0.032,-0.96048 -0.049,-2.03416 -0.049,-3.21875 v -7.10742 c 0.5443,-0.76838 1.2023,-1.34433 1.9707,-1.72852 0.7684,-0.4162 1.5511,-0.625 2.3516,-0.625 0.7363,0 1.4093,0.16031 2.0176,0.48047 0.6083,0.32016 1.0893,0.84958 1.4414,1.58594 0.3842,0.73636 0.5762,1.71308 0.5762,2.92969 l 0.047,4.7539 c 0,0.67234 -0.015,1.32844 -0.047,1.96875 0,0.64032 -0.017,1.2014 -0.049,1.68164 -0.032,0.48024 -0.081,0.84739 -0.1445,1.10352 l -2.5449,0.76758 0.1445,2.0664 h 10.8047 l 0.1445,-2.0664 -2.7363,-0.76758 c -0.096,-0.28815 -0.1614,-0.89576 -0.1934,-1.82422 -0.032,-0.96048 -0.047,-1.98568 -0.047,-3.07422 l -0.096,-4.99414 c 0,-0.88852 -0.082,-1.69477 -0.2207,-2.4375 0.5282,-0.68734 1.127,-1.21004 1.8046,-1.54883 0.8004,-0.4162 1.6486,-0.625 2.545,-0.625 0.7363,0 1.426,0.17713 2.0664,0.5293 0.6402,0.35218 1.1509,0.91131 1.5351,1.67969 0.4162,0.76838 0.625,1.79358 0.625,3.07422 l 0.049,4.46679 c 0,0.67234 -0.017,1.32844 -0.049,1.96875 0,0.64032 -0.017,1.2014 -0.049,1.68164 -0.032,0.48024 -0.079,0.84739 -0.1426,1.10352 l -2.5937,0.76758 0.1445,2.0664 h 11.0918 l 0.1445,-2.0664 -2.9765,-0.76758 c -0.096,-0.28815 -0.1763,-0.89576 -0.2403,-1.82422 -0.032,-0.96048 -0.049,-1.98568 -0.049,-3.07422 l -0.047,-5.08984 c 0,-1.72886 -0.3206,-3.21818 -0.9609,-4.4668 -0.6083,-1.28063 -1.488,-2.27221 -2.6406,-2.97656 -1.1206,-0.70435 -2.4348,-1.05664 -3.9395,-1.05664 -1.4727,0 -2.8483,0.38396 -4.1289,1.15234 -1.0519,0.63115 -2.0463,1.51278 -2.9902,2.61914 -0.6709,-1.26927 -1.5467,-2.20775 -2.6289,-2.8125 -1.0566,-0.64032 -2.1936,-0.95898 -3.4102,-0.95898 z m 39.25199,0 c -1.2807,0 -2.483,0.33548 -3.6035,1.00781 -1.1206,0.67233 -2.0805,1.58375 -2.8809,2.73633 l -0.1445,-0.0469 0.3359,-2.78515 -1.1523,-0.81641 -7.82819,2.06445 v 1.96875 l 3.0742,0.67188 c 0.1602,0.73636 0.272,1.52111 0.33599,2.35351 0.064,0.83242 0.096,1.72898 0.096,2.68946 l -0.096,10.27734 c 0,1.24861 -0.015,2.38564 -0.047,3.41016 -0.032,1.0245 -0.066,1.92107 -0.098,2.68945 0,0.76838 -0.015,1.39281 -0.047,1.87305 -0.032,0.48024 -0.049,0.7989 -0.049,0.95898 l -2.9766,0.76953 0.1445,2.06446 h 12.4844 l 0.1445,-2.11329 -3.9375,-0.7207 c -0.032,-0.25613 -0.081,-0.84693 -0.1445,-1.77539 -0.032,-0.92846 -0.047,-1.95366 -0.047,-3.07422 v -3.2168 c 0.5764,0.22412 1.2007,0.38247 1.8731,0.47852 0.6722,0.12806 1.3116,0.19336 1.9199,0.19336 2.3052,0 4.322,-0.52942 6.0508,-1.58594 1.7288,-1.05652 3.0747,-2.44887 4.0351,-4.17773 0.9605,-1.76088 1.4395,-3.6975 1.4395,-5.81055 0,-2.08103 -0.4157,-3.87416 -1.2481,-5.3789 -0.8003,-1.50474 -1.8721,-2.65664 -3.2168,-3.45704 -1.3447,-0.83241 -2.8172,-1.24804 -4.4179,-1.24804 z m 33.9824,0 c -1.8249,-0.032 -3.5379,0.4321 -5.1387,1.39258 -1.6008,0.92846 -2.8981,2.24065 -3.8906,3.9375 -0.9925,1.66482 -1.4883,3.61826 -1.4883,5.85937 0,2.04901 0.4492,3.87382 1.3457,5.47461 0.8964,1.56877 2.1285,2.80082 3.6973,3.69726 1.6008,0.89645 3.394,1.34376 5.3789,1.34376 1.889,-1e-5 3.6019,-0.46412 5.1387,-1.39258 1.5688,-0.92846 2.8008,-2.32082 3.6972,-4.17774 l -1.3926,-1.24804 c -0.8644,0.99248 -1.7442,1.69706 -2.6406,2.11328 -0.8644,0.38418 -1.8412,0.57617 -2.9297,0.57617 -2.049,0 -3.6986,-0.70459 -4.9472,-2.11328 -1.0985,-1.27196 -1.6961,-2.93911 -1.8028,-4.99414 h 13.5215 v -1.05664 c 0,-2.78538 -0.7363,-5.04263 -2.209,-6.77149 -1.4407,-1.7288 -3.5544,-2.60856 -6.3398,-2.64062 z m 60.65233,0 c -1.82491,-0.032 -3.53791,0.4321 -5.13867,1.39258 -1.60082,0.92846 -2.89813,2.24065 -3.89063,3.9375 -0.9925,1.66482 -1.48828,3.61826 -1.48828,5.85937 0,2.04901 0.44728,3.87382 1.34375,5.47461 0.89648,1.56877 2.1305,2.80082 3.69922,3.69726 1.60082,0.89645 3.39391,1.34376 5.37891,1.34376 1.8889,-1e-5 3.6019,-0.46412 5.13867,-1.39258 1.56879,-0.92846 2.80083,-2.32082 3.69727,-4.17774 l -1.39258,-1.24804 c -0.86444,0.99248 -1.74617,1.69706 -2.64258,2.11328 -0.86444,0.38418 -1.83921,0.57617 -2.92773,0.57617 -2.04906,0 -3.69866,-0.70459 -4.94727,-2.11328 -1.0985,-1.27196 -1.69611,-2.93911 -1.80273,-4.99414 h 13.51953 v -1.05664 c 0,-2.78538 -0.73625,-5.04263 -2.20899,-6.77149 -1.44073,-1.7288 -3.55251,-2.60856 -6.33789,-2.64062 z m 19.36914,0 c -0.80039,0.096 -1.6821,0.33456 -2.64258,0.71875 -0.96047,0.38419 -1.88871,0.8483 -2.78515,1.39257 -0.86443,0.54427 -1.58387,1.12217 -2.16016,1.73047 -0.57628,0.60831 -0.86523,1.19911 -0.86523,1.77539 0,0.92846 0.46412,1.60138 1.39257,2.01758 0.96049,0.38422 2.16085,0.41586 3.60157,0.0957 l 0.19336,-2.5918 c 0.064,-0.8004 0.20753,-1.32981 0.43164,-1.58594 0.25612,-0.28814 0.68857,-0.43164 1.29687,-0.43164 0.86443,0 1.66403,0.19199 2.40039,0.57617 0.73637,0.3842 1.32913,0.87998 1.77735,1.48828 0.44822,0.60831 0.67187,1.26441 0.67187,1.96875 v 1.96875 l -7.49219,2.30664 c -1.53676,0.48024 -2.65698,1.10467 -3.36132,1.87305 -0.70435,0.73637 -1.05664,1.6646 -1.05664,2.78516 0,0.8004 0.27214,1.63166 0.8164,2.49609 0.54428,0.86443 1.32902,1.60068 2.35352,2.20899 1.05652,0.6083 2.30538,0.91211 3.74609,0.91211 0.99249,0 2.00089,-0.31868 3.02539,-0.95899 0.815,-0.53485 1.61933,-1.23865 2.41406,-2.09766 l 0.41993,1.23243 c 0.44822,1.2166 1.24782,1.82422 2.40039,1.82422 0.38419,0 0.79982,-0.0633 1.24804,-0.19141 0.44822,-0.0961 0.94597,-0.25636 1.49024,-0.48047 l 2.83203,-1.20117 v -1.82422 l -3.12109,-0.57617 c -0.12804,-0.32016 -0.22305,-0.73579 -0.28711,-1.24805 -0.032,-0.54427 -0.0488,-1.21719 -0.0488,-2.01758 l 0.14453,-7.10742 c -0.032,-2.14507 -0.84843,-3.85804 -2.44922,-5.13867 -1.56878,-1.28063 -3.69738,-1.91992 -6.38672,-1.91992 z m 65.21289,0 c -1.31265,0 -2.5615,0.30381 -3.74609,0.91211 -1.15257,0.6083 -2.24112,1.51972 -3.26563,2.73632 l -0.14257,-0.0469 0.28711,-2.68945 -1.15235,-0.81641 -7.82812,2.06445 v 1.96875 l 3.07421,0.67188 c 0.16005,0.73636 0.27188,1.52111 0.33594,2.35351 0.0641,0.83242 0.0957,1.76066 0.0957,2.78516 l -0.0469,3.65039 c 0,0.96048 -0.0168,1.7937 -0.0488,2.49805 -0.0321,0.67234 -0.0637,1.21661 -0.0957,1.63281 -0.0321,0.38419 -0.0637,0.63951 -0.0957,0.76758 l -2.97852,0.76758 0.14453,2.0664 h 11.57422 l 0.14258,-2.0664 -2.97656,-0.76758 c -0.096,-0.25613 -0.17617,-0.84888 -0.24024,-1.77735 -0.032,-0.96047 -0.0488,-2.04901 -0.0488,-3.26562 v -7.10742 c 0.57629,-0.76838 1.2492,-1.34433 2.01758,-1.72852 0.76838,-0.4162 1.6016,-0.625 2.49805,-0.625 0.76838,0 1.47101,0.19199 2.11133,0.57617 0.64031,0.35218 1.15291,0.93008 1.53711,1.73047 0.4162,0.76838 0.625,1.77677 0.625,3.02539 v 4.41797 c 0,0.67234 -0.0168,1.32844 -0.0488,1.96875 0,0.64032 -0.0149,1.2014 -0.0469,1.68164 -0.032,0.48024 -0.0805,0.84739 -0.14453,1.10352 l -2.78515,0.76758 0.14453,2.0664 h 11.28515 l 0.14453,-2.0664 -2.97851,-0.76758 c -0.0961,-0.28815 -0.15941,-0.89576 -0.19141,-1.82422 -0.032,-0.96048 -0.0488,-1.98568 -0.0488,-3.07422 v -4.99414 c 0,-1.85693 -0.31867,-3.4264 -0.95898,-4.70703 -0.64031,-1.28063 -1.50521,-2.24054 -2.59375,-2.88086 -1.05652,-0.67233 -2.24203,-1.00781 -3.55469,-1.00781 z m -145.61916,2.44922 c 1.2806,0 2.2741,0.46412 2.9785,1.39257 0.7363,0.92847 1.1036,2.19219 1.1036,3.79297 v 0.43164 h -8.6582 c 0.069,-1.06026 0.2625,-1.97655 0.5917,-2.73632 0.4162,-0.96048 0.9754,-1.68187 1.6797,-2.16211 0.7044,-0.48024 1.4723,-0.71875 2.3047,-0.71875 z m 60.65237,0 c 1.28064,0 2.27416,0.46412 2.97851,1.39257 0.73639,0.92847 1.10352,2.19219 1.10352,3.79297 v 0.43164 h -8.65821 c 0.0688,-1.06026 0.26061,-1.97655 0.58985,-2.73632 0.4162,-0.96048 0.97728,-1.68187 1.68164,-2.16211 0.70434,-0.48024 1.47227,-0.71875 2.30469,-0.71875 z m 106.25781,0 c 1.15257,0 2.08081,0.51065 2.78515,1.53515 0.70436,1.02451 1.05665,2.38519 1.05665,4.08203 0,1.53676 -0.32062,2.75395 -0.96094,3.65039 -0.64032,0.89644 -1.50521,1.34571 -2.59375,1.34571 -1.1846,0 -2.1445,-0.49774 -2.88086,-1.49024 -0.70436,-0.99248 -1.05664,-2.28788 -1.05664,-3.88867 0,-1.56878 0.33548,-2.83445 1.00781,-3.79492 0.67233,-0.96047 1.55404,-1.43945 2.64258,-1.43945 z m -62.04492,0.24023 c 0.70435,0 1.40893,0.15836 2.11328,0.47852 0.70434,0.32016 1.31196,0.86442 1.82422,1.63281 v 10.51758 c -0.6083,0.8324 -1.26441,1.42516 -1.96875,1.77734 -0.70436,0.35217 -1.37726,0.52734 -2.01758,0.52734 -1.53676,0 -2.84896,-0.65609 -3.9375,-1.96875 -1.08854,-1.31264 -1.63281,-3.18398 -1.63281,-5.61718 0,-2.27314 0.51259,-4.06626 1.5371,-5.37891 1.05652,-1.31265 2.41721,-1.96875 4.08204,-1.96875 z m -140.76956,1.43945 c 0.9925,0 1.8891,0.27214 2.6895,0.81641 0.8003,0.54427 1.4416,1.36068 1.9219,2.44922 0.5122,1.05652 0.7527,2.38553 0.7207,3.98633 0,1.60078 -0.2405,2.94466 -0.7207,4.0332 -0.4803,1.05653 -1.1364,1.85807 -1.9688,2.40234 -0.8003,0.51225 -1.7622,0.76758 -2.8828,0.76758 -0.7043,0 -1.407,-0.095 -2.1113,-0.28711 -0.6724,-0.2241 -1.265,-0.51305 -1.7774,-0.86523 v -11.14063 c 0.5444,-0.70434 1.1687,-1.23375 1.8731,-1.58593 0.7042,-0.38419 1.4554,-0.57618 2.2558,-0.57618 z m -61.06829,7.54102 v 4.80078 c -0.4162,0.48023 -0.8803,0.83253 -1.3926,1.05664 -0.4802,0.22411 -0.9929,0.33594 -1.5371,0.33594 -0.8965,0 -1.6644,-0.30381 -2.3047,-0.91211 -0.6083,-0.6083 -0.9121,-1.29607 -0.9121,-2.06445 0,-0.64032 0.1602,-1.15293 0.4804,-1.53711 0.3522,-0.3842 0.9113,-0.65634 1.6797,-0.81641 z m 180.69136,0 v 4.80078 c -0.4162,0.48023 -0.88032,0.83253 -1.39258,1.05664 -0.48024,0.22411 -0.99283,0.33594 -1.53711,0.33594 -0.89644,0 -1.66436,-0.30381 -2.30468,-0.91211 -0.6083,-0.6083 -0.91211,-1.29607 -0.91211,-2.06445 0,-0.64032 0.16031,-1.15293 0.48047,-1.53711 0.35216,-0.3842 0.9113,-0.65634 1.67968,-0.81641 z m 79.99219,10.59766 5.26367,0.44726 c 1.60079,0.12807 2.72101,0.41506 3.36133,0.86328 0.67233,0.44823 1.00781,1.12115 1.00781,2.01758 0,1.21661 -0.60761,2.22499 -1.82422,3.02539 -1.18458,0.8004 -2.70558,1.20117 -4.5625,1.20117 -1.76086,0 -3.12155,-0.32062 -4.08203,-0.96094 -0.96047,-0.64032 -1.43945,-1.52007 -1.43945,-2.64062 0,-0.83241 0.23852,-1.61715 0.71875,-2.35352 0.40629,-0.58403 0.92881,-1.11627 1.55664,-1.5996 z m -172.60156,18.66992 c -1.2293,0 -2.2543,0.49116 -3.0762,1.47461 -0.8148,0.97641 -1.2226,2.2554 -1.2226,3.83593 v 0.66407 h -2.0547 v 1.01171 h 2.0547 v 7.56446 c 0,0.25288 -0.048,0.45953 -0.1465,0.62109 -0.091,0.1545 -0.235,0.26486 -0.4317,0.32813 -0.1264,0.0422 -0.2775,0.0699 -0.4531,0.084 -0.1686,0.014 -0.3345,0.0269 -0.4961,0.041 v 0.69726 h 5.4785 v -0.69726 c -0.2036,-0.014 -0.4455,-0.0371 -0.7265,-0.0723 -0.281,-0.0421 -0.5053,-0.0949 -0.6739,-0.1582 -0.2038,-0.0773 -0.3548,-0.19311 -0.4531,-0.34766 -0.091,-0.15454 -0.1367,-0.3557 -0.1367,-0.60156 v -7.45899 h 2.6758 v -1.01171 h -2.6758 v -1.06446 c 0,-1.39087 0.126,-2.40294 0.3789,-3.03515 0.2599,-0.63925 0.6251,-0.96917 1.0957,-0.99024 0.084,0.11943 0.1853,0.27793 0.3047,0.47461 0.1194,0.19669 0.2501,0.37281 0.3906,0.52735 0.1405,0.15454 0.2916,0.27586 0.4532,0.36718 0.1686,0.0913 0.3623,0.13867 0.58,0.13868 0.3442,0 0.601,-0.11037 0.7696,-0.32813 0.1686,-0.21777 0.2519,-0.48468 0.2519,-0.80078 0,-0.35123 -0.1585,-0.64867 -0.4746,-0.89453 -0.3161,-0.24586 -0.7869,-0.36914 -1.4121,-0.36914 z m 106.16992,0 c -1.22931,0 -2.2543,0.49116 -3.07617,1.47461 -0.81486,0.97641 -1.22266,2.2554 -1.22266,3.83593 v 0.66407 h -2.05469 v 1.01171 h 2.05469 v 7.56446 c 0,0.25288 -0.0481,0.45953 -0.14648,0.62109 -0.0913,0.1545 -0.23691,0.26486 -0.4336,0.32813 -0.12644,0.0422 -0.2775,0.0699 -0.45312,0.084 -0.16859,0.014 -0.33258,0.0269 -0.49414,0.041 v 0.69726 h 5.47851 v -0.69726 c -0.20371,-0.014 -0.44557,-0.0371 -0.72656,-0.0723 -0.28098,-0.0421 -0.50524,-0.0949 -0.67383,-0.1582 -0.20372,-0.0773 -0.35478,-0.19311 -0.45312,-0.34766 -0.0913,-0.15454 -0.13672,-0.3557 -0.13672,-0.60156 v -7.45899 h 2.67578 v -1.01171 h -2.67578 v -1.06446 c 0,-1.39087 0.12602,-2.40294 0.3789,-3.03515 0.25991,-0.63925 0.62506,-0.96917 1.09571,-0.99024 0.0843,0.11943 0.18527,0.27793 0.30468,0.47461 0.11942,0.19669 0.25014,0.37281 0.39063,0.52735 0.14049,0.15454 0.29156,0.27586 0.45313,0.36718 0.16859,0.0913 0.36231,0.13867 0.58007,0.13868 0.3442,0 0.59899,-0.11037 0.76758,-0.32813 0.16859,-0.21777 0.25391,-0.48468 0.25391,-0.80078 0,-0.35123 -0.15851,-0.64867 -0.47461,-0.89453 -0.31611,-0.24586 -0.78692,-0.36914 -1.41211,-0.36914 z m 12.26562,0 c -1.2293,0 -2.25429,0.49116 -3.07617,1.47461 -0.81485,0.97641 -1.22265,2.2554 -1.22265,3.83593 v 0.66407 h -2.05469 v 1.01171 h 2.05469 v 7.56446 c 0,0.25288 -0.0501,0.45953 -0.14844,0.62109 -0.0913,0.1545 -0.23495,0.26486 -0.43164,0.32813 -0.12644,0.0422 -0.27751,0.0699 -0.45313,0.084 -0.16858,0.014 -0.33257,0.0269 -0.49414,0.041 v 0.69726 h 5.47852 v -0.69726 c -0.20372,-0.014 -0.44559,-0.0371 -0.72657,-0.0723 -0.28098,-0.0421 -0.50719,-0.0949 -0.67578,-0.1582 -0.20372,-0.0773 -0.35478,-0.19311 -0.45312,-0.34766 -0.0913,-0.15454 -0.13672,-0.3557 -0.13672,-0.60156 v -7.45899 h 2.67773 v -1.01171 h -2.67773 v -1.06446 c 0,-1.39087 0.12602,-2.40294 0.37891,-3.03515 0.2599,-0.63925 0.62505,-0.96917 1.0957,-0.99024 0.0843,0.11943 0.18723,0.27793 0.30664,0.47461 0.11942,0.19669 0.25013,0.37281 0.39063,0.52735 0.14049,0.15454 0.29156,0.27586 0.45312,0.36718 0.16859,0.0913 0.36036,0.13867 0.57812,0.13868 0.34421,0 0.60094,-0.11037 0.76954,-0.32813 0.16858,-0.21777 0.2539,-0.48468 0.2539,-0.80078 0,-0.35123 -0.15851,-0.64867 -0.47461,-0.89453 -0.3161,-0.24586 -0.78692,-0.36914 -1.41211,-0.36914 z m -184.50193,0.01 -3.9082,0.24219 v 0.67578 c 0.2037,0.014 0.4733,0.0548 0.8105,0.125 0.3372,0.0703 0.5689,0.14813 0.6953,0.23242 0.1756,0.12645 0.3166,0.30257 0.4219,0.52735 0.1124,0.21776 0.1699,0.45219 0.1699,0.70508 v 12.0332 c 0,0.25288 -0.05,0.46148 -0.1484,0.62304 -0.098,0.15457 -0.2468,0.26298 -0.4434,0.32618 -0.1194,0.0351 -0.2704,0.0629 -0.4531,0.084 -0.1826,0.014 -0.3541,0.0289 -0.5156,0.043 v 0.69531 h 5.0684 v -0.69531 c -0.1897,-0.014 -0.3611,-0.0391 -0.5157,-0.0742 -0.1475,-0.0351 -0.2986,-0.088 -0.4531,-0.1582 -0.2037,-0.0843 -0.352,-0.20483 -0.4434,-0.35938 -0.091,-0.16156 -0.1367,-0.36351 -0.1367,-0.60937 v -14.25781 z m 103.57809,0 -3.8457,0.24219 v 0.67578 c 0.1967,0.014 0.4534,0.0419 0.7695,0.084 0.3232,0.0351 0.5475,0.0981 0.6739,0.18945 0.1756,0.11941 0.3164,0.29827 0.4218,0.53711 0.1124,0.23884 0.168,0.47796 0.168,0.7168 v 12.0957 c 0,0.25288 -0.048,0.46148 -0.1465,0.62304 -0.098,0.1545 -0.2466,0.26291 -0.4433,0.32618 -0.1194,0.0352 -0.2658,0.0629 -0.4414,0.084 -0.1757,0.014 -0.3444,0.0289 -0.5059,0.043 v 0.69531 h 5.0996 v -0.69531 c -0.1966,-0.014 -0.3801,-0.0391 -0.5488,-0.0742 -0.1615,-0.0351 -0.3201,-0.088 -0.4746,-0.1582 -0.1967,-0.0843 -0.3431,-0.20483 -0.4414,-0.35938 -0.091,-0.15453 -0.1367,-0.351 -0.1367,-0.58984 v -5.9749 c 0.07,-0.11942 0.1685,-0.26579 0.2949,-0.44141 0.1264,-0.17561 0.308,-0.35173 0.5468,-0.52734 0.2459,-0.16859 0.5249,-0.30948 0.834,-0.42187 0.3161,-0.11942 0.6563,-0.17774 1.0215,-0.17774 0.4988,0 0.9196,0.19921 1.2637,0.59961 0.3513,0.4004 0.5273,0.96944 0.5273,1.70703 v 5.3418 c 0,0.25288 -0.05,0.46148 -0.1484,0.62304 -0.091,0.15457 -0.2349,0.26298 -0.4316,0.32618 -0.1264,0.0421 -0.2878,0.0699 -0.4844,0.084 -0.1968,0.014 -0.3756,0.0289 -0.5371,0.043 v 0.69531 h 5.0996 v -0.69531 c -0.2108,-0.0141 -0.3822,-0.0364 -0.5156,-0.0645 -0.1265,-0.0351 -0.2721,-0.0833 -0.4336,-0.14649 -0.2037,-0.0843 -0.3501,-0.20014 -0.4414,-0.34765 -0.084,-0.15455 -0.127,-0.35571 -0.127,-0.60157 v -5.40429 c 0,-1.10286 -0.2493,-1.94625 -0.748,-2.5293 -0.4988,-0.59006 -1.2114,-0.88477 -2.1387,-0.88477 -0.4496,0 -0.8574,0.0556 -1.2227,0.16797 -0.3582,0.1124 -0.6705,0.25329 -0.9375,0.42188 -0.309,0.19668 -0.5584,0.38572 -0.748,0.56836 -0.1898,0.17562 -0.401,0.37951 -0.6328,0.61133 h -0.041 v -7.25 z m 141.49025,0 -3.8457,0.24219 v 0.67578 c 0.19668,0.014 0.45148,0.0419 0.76757,0.084 0.32314,0.0351 0.54934,0.0981 0.67579,0.18945 0.17561,0.11941 0.31455,0.29827 0.41992,0.53711 0.11239,0.23884 0.16992,0.47796 0.16992,0.7168 v 12.0957 c 0,0.25288 -0.0501,0.46148 -0.14844,0.62304 -0.0983,0.1545 -0.24472,0.26291 -0.4414,0.32618 -0.11943,0.0352 -0.26776,0.0629 -0.44336,0.084 -0.17562,0.014 -0.3443,0.0289 -0.50586,0.043 v 0.69531 h 5.09961 v -0.69531 c -0.1967,-0.014 -0.37828,-0.0391 -0.54688,-0.0742 -0.16156,-0.0351 -0.32007,-0.088 -0.47461,-0.1582 -0.19668,-0.0843 -0.345,-0.20483 -0.44336,-0.35938 -0.0913,-0.15453 -0.13672,-0.351 -0.13672,-0.58984 v -5.9749 c 0.0702,-0.11942 0.16848,-0.26579 0.29493,-0.44141 0.12643,-0.17561 0.30998,-0.35173 0.54882,-0.52734 0.24587,-0.16859 0.52296,-0.30948 0.83204,-0.42187 0.31611,-0.11942 0.65621,-0.17774 1.02148,-0.17774 0.49875,0 0.92142,0.19921 1.26562,0.59961 0.35123,0.4004 0.5254,0.96944 0.5254,1.70703 v 5.3418 c 0,0.25288 -0.0481,0.46148 -0.14649,0.62304 -0.0913,0.15457 -0.23495,0.26298 -0.43164,0.32618 -0.12644,0.0421 -0.28768,0.0699 -0.48437,0.084 -0.19669,0.014 -0.37751,0.0289 -0.53907,0.043 v 0.69531 h 5.10157 l -0.002,-0.69531 c -0.21073,-0.0141 -0.38216,-0.0364 -0.51562,-0.0645 -0.12645,-0.0351 -0.27008,-0.0833 -0.43164,-0.14649 -0.20372,-0.0843 -0.35204,-0.20014 -0.44336,-0.34765 -0.0843,-0.15455 -0.125,-0.35571 -0.125,-0.60157 v -5.40429 c 0,-1.10286 -0.24931,-1.94625 -0.74805,-2.5293 -0.49875,-0.59006 -1.21338,-0.88477 -2.14062,-0.88477 -0.44958,0 -0.85543,0.0556 -1.22071,0.16797 -0.35826,0.1124 -0.67251,0.25329 -0.93945,0.42188 -0.30907,0.19668 -0.55838,0.38572 -0.74805,0.56836 -0.18966,0.17562 -0.39905,0.37951 -0.63086,0.61133 h -0.043 v -7.25 z m -82.65234,0.34766 c -0.35826,0 -0.67057,0.14558 -0.9375,0.43359 -0.25991,0.28801 -0.39063,0.62342 -0.39063,1.00977 0,0.36528 0.13072,0.69246 0.39063,0.98047 0.26693,0.28098 0.57924,0.42187 0.9375,0.42187 0.38634,0 0.71079,-0.14833 0.9707,-0.44336 0.26693,-0.30206 0.40039,-0.65234 0.40039,-1.05273 0,-0.35826 -0.13072,-0.67058 -0.39062,-0.9375 -0.25288,-0.27397 -0.58007,-0.41211 -0.98047,-0.41211 z m -214.7402,0.67578 c -0.6042,0 -1.1853,0.10371 -1.7403,0.31445 -0.5549,0.20372 -1.0359,0.48824 -1.4433,0.85352 -0.4285,0.38635 -0.7585,0.82664 -0.9903,1.31836 -0.2318,0.49172 -0.3476,1.02086 -0.3476,1.58984 0,0.99047 0.2316,1.7959 0.6953,2.41406 0.4707,0.61114 1.1278,1.10701 1.9707,1.48633 0.4285,0.19669 0.9372,0.40607 1.5273,0.63086 0.59,0.21776 1.1137,0.41892 1.5704,0.60156 0.6672,0.26694 1.1705,0.65987 1.5078,1.17969 0.3371,0.51279 0.5058,1.06697 0.5058,1.66406 0,0.40744 -0.058,0.76984 -0.1699,1.08594 -0.1053,0.30909 -0.2693,0.57874 -0.4941,0.81055 -0.2248,0.23181 -0.5214,0.41262 -0.8867,0.53906 -0.3582,0.12645 -0.7791,0.18945 -1.2637,0.18945 -0.6463,0 -1.2153,-0.12328 -1.7071,-0.36914 -0.4847,-0.24586 -0.9101,-0.57578 -1.2753,-0.99023 -0.3864,-0.44255 -0.6987,-0.91806 -0.9375,-1.42383 -0.2319,-0.51279 -0.4358,-1.08458 -0.6114,-1.7168 h -0.8535 l 0.1485,5.1211 h 0.8417 l 0.4532,-0.76953 c 0.4846,0.29503 1.0612,0.54903 1.7285,0.75976 0.6673,0.20372 1.3346,0.30469 2.0019,0.30469 1.4471,0 2.6584,-0.42816 3.6348,-1.28516 0.9765,-0.857 1.4649,-1.94695 1.4649,-3.26757 0,-0.55495 -0.076,-1.03868 -0.2305,-1.45313 -0.1476,-0.42148 -0.3792,-0.80697 -0.6953,-1.1582 v 0 c -0.288,-0.30908 -0.6281,-0.58069 -1.0215,-0.8125 -0.3863,-0.23182 -0.7894,-0.43846 -1.2109,-0.6211 -0.4637,-0.20371 -0.9446,-0.3947 -1.4434,-0.57031 -0.4917,-0.18264 -0.995,-0.39672 -1.5078,-0.64258 -0.576,-0.27395 -1.0144,-0.62149 -1.3164,-1.04297 -0.3021,-0.4285 -0.4531,-0.96506 -0.4531,-1.61132 0,-0.61817 0.2344,-1.14182 0.7051,-1.57032 0.4706,-0.4285 1.0397,-0.64257 1.707,-0.64257 0.6323,0 1.1661,0.12328 1.6016,0.36914 0.4355,0.23883 0.8053,0.56131 1.1074,0.96875 0.3091,0.42147 0.5583,0.89229 0.748,1.41211 0.1966,0.51982 0.3709,1.06381 0.5254,1.63281 h 0.8535 l -0.084,-4.96289 h -0.8418 l -0.4317,0.71679 c -0.4496,-0.28098 -0.9481,-0.52754 -1.4961,-0.73828 -0.5408,-0.21074 -1.1553,-0.31445 -1.8437,-0.31445 z m 186.16402,0 c -0.60411,0 -1.18334,0.10371 -1.73828,0.31445 -0.55494,0.20372 -1.03592,0.48824 -1.44336,0.85352 -0.42849,0.38635 -0.75842,0.82664 -0.99023,1.31836 -0.23181,0.49172 -0.34766,1.02086 -0.34766,1.58984 0,0.99047 0.23169,1.7959 0.69532,2.41406 0.47064,0.61114 1.12775,1.10701 1.9707,1.48633 0.4285,0.19669 0.93728,0.40607 1.52734,0.63086 0.59006,0.21776 1.11371,0.41892 1.57032,0.60156 0.66733,0.26694 1.16867,0.65987 1.50585,1.17969 0.33718,0.51279 0.50586,1.06697 0.50586,1.66406 0,0.40744 -0.0556,0.76984 -0.16797,1.08594 -0.10537,0.30909 -0.27131,0.57874 -0.49609,0.81055 -0.22479,0.23181 -0.51948,0.41262 -0.88476,0.53906 -0.35825,0.12645 -0.77898,0.18945 -1.26368,0.18945 -0.64626,0 -1.21531,-0.12328 -1.70703,-0.36914 -0.48469,-0.24586 -0.9101,-0.57578 -1.27539,-0.99023 -0.38634,-0.44255 -0.69866,-0.91806 -0.9375,-1.42383 -0.2318,-0.51279 -0.43571,-1.08458 -0.61133,-1.7168 h -0.85351 l 0.14844,5.1211 h 0.84179 l 0.45313,-0.76953 c 0.4847,0.29503 1.06118,0.54903 1.72851,0.75976 0.66734,0.20372 1.33462,0.30469 2.00196,0.30469 1.44706,0 2.65834,-0.42816 3.63476,-1.28516 0.97642,-0.857 1.46485,-1.94695 1.46485,-3.26757 0,-0.55495 -0.0779,-1.03868 -0.23243,-1.45313 -0.14751,-0.42148 -0.3792,-0.80697 -0.69531,-1.1582 -0.28801,-0.30908 -0.62811,-0.58069 -1.02148,-0.8125 -0.38636,-0.23182 -0.78947,-0.43846 -1.21094,-0.6211 -0.46363,-0.20371 -0.94462,-0.3947 -1.44336,-0.57031 -0.49173,-0.18264 -0.99503,-0.39672 -1.50781,-0.64258 -0.57602,-0.27395 -1.01435,-0.62149 -1.31641,-1.04297 -0.30205,-0.4285 -0.45312,-0.96506 -0.45312,-1.61132 0,-0.61817 0.23443,-1.14182 0.70507,-1.57032 0.47065,-0.4285 1.0397,-0.64257 1.70704,-0.64257 0.6322,0 1.16603,0.12328 1.60156,0.36914 0.43552,0.23883 0.80536,0.56131 1.10742,0.96875 0.30908,0.42147 0.55838,0.89229 0.74805,1.41211 0.19668,0.51982 0.37085,1.06381 0.52539,1.63281 h 0.85351 l -0.084,-4.96289 h -0.8418 l -0.43359,0.71679 c -0.44958,-0.28098 -0.94818,-0.52754 -1.4961,-0.73828 -0.54088,-0.21074 -1.15533,-0.31445 -1.84375,-0.31445 z m -113.83982,1.70703 v 3.23438 h -1.918 v 1.01171 h 1.875 v 7.03711 c 0,0.8008 0.1761,1.42269 0.5274,1.86524 0.3582,0.43553 0.9726,0.6543 1.8437,0.6543 0.5901,0 1.0887,-0.0677 1.4961,-0.20118 0.4074,-0.12644 0.8402,-0.28299 1.2969,-0.47265 V 279.354 c -0.1405,0.0492 -0.3824,0.0918 -0.7266,0.12695 -0.3372,0.0281 -0.5939,0.041 -0.7695,0.041 -0.3793,0 -0.6815,-0.0528 -0.9063,-0.15821 -0.2247,-0.10536 -0.3934,-0.25918 -0.5058,-0.46289 -0.1192,-0.21776 -0.1971,-0.47176 -0.2324,-0.75976 -0.028,-0.29504 -0.041,-0.66018 -0.041,-1.09571 v -5.80469 h 2.961 v -1.01171 h -2.9824 v -3.23438 z m 28.82809,0 v 3.23438 h -1.916 v 1.01171 h 1.875 v 7.03711 c 0,0.8008 0.1761,1.42269 0.5273,1.86524 0.3583,0.43553 0.9728,0.6543 1.8438,0.6543 0.5901,0 1.0887,-0.0677 1.4961,-0.20118 0.4074,-0.12644 0.8382,-0.28299 1.2949,-0.47265 V 279.354 c -0.1405,0.0492 -0.3823,0.0918 -0.7266,0.12695 -0.3372,0.0281 -0.5939,0.041 -0.7695,0.041 -0.3793,0 -0.6814,-0.0528 -0.9062,-0.15821 -0.2248,-0.10536 -0.3935,-0.25918 -0.5059,-0.46289 -0.1192,-0.21776 -0.1951,-0.47176 -0.2305,-0.75976 -0.028,-0.29504 -0.043,-0.66018 -0.043,-1.09571 v -5.80469 h 2.9609 v -1.01171 h -2.9824 v -3.23438 z m 45.4356,0 v 3.23438 h -1.918 v 1.01171 h 1.8769 v 7.03711 c 0,0.8008 0.1742,1.42269 0.5254,1.86524 0.3583,0.43553 0.9727,0.6543 1.8438,0.6543 0.5901,0 1.0887,-0.0677 1.4961,-0.20118 0.4074,-0.12644 0.8402,-0.28299 1.2969,-0.47265 V 279.354 c -0.1405,0.0492 -0.3823,0.0918 -0.7266,0.12695 -0.3372,0.0281 -0.5939,0.041 -0.7695,0.041 -0.3794,0 -0.6815,-0.0528 -0.9063,-0.15821 -0.2247,-0.10536 -0.3934,-0.25918 -0.5058,-0.46289 -0.1192,-0.21776 -0.1971,-0.47176 -0.2325,-0.75976 -0.028,-0.29504 -0.041,-0.66018 -0.041,-1.09571 v -5.80469 h 2.961 v -1.01171 h -2.9825 v -3.23438 z m 117.12887,0 v 3.23438 h -1.91797 v 1.01171 h 1.875 v 7.03711 c 0,0.8008 0.17611,1.42269 0.52734,1.86524 0.35826,0.43553 0.97271,0.6543 1.84375,0.6543 0.59007,0 1.08868,-0.0677 1.4961,-0.20118 0.40743,-0.12644 0.84028,-0.28299 1.29687,-0.47265 l -0.002,-0.76953 c -0.14049,0.0492 -0.38236,0.0918 -0.72656,0.12695 -0.33718,0.0281 -0.59392,0.041 -0.76953,0.041 -0.37933,0 -0.68147,-0.0528 -0.90625,-0.15821 -0.2248,-0.10536 -0.39152,-0.25918 -0.50391,-0.46289 -0.11947,-0.21776 -0.19736,-0.47176 -0.23242,-0.75976 -0.0281,-0.29504 -0.043,-0.66018 -0.043,-1.09571 v -5.80469 h 2.96094 v -1.01171 h -2.98243 v -3.23438 z m 17.69141,2.88672 -0.24219,0.54687 c -0.26694,-0.14751 -0.61642,-0.27353 -1.04492,-0.3789 -0.42148,-0.10537 -0.83477,-0.1582 -1.24219,-0.1582 -1.06072,0 -1.90685,0.29469 -2.53906,0.88476 -0.63222,0.59007 -0.94922,1.31019 -0.94922,2.16016 0,0.4847 0.0982,0.90738 0.29492,1.26562 0.19669,0.35826 0.45068,0.66039 0.75976,0.90625 0.28801,0.23182 0.63085,0.43572 1.03125,0.61133 0.40744,0.16859 0.77727,0.30204 1.10743,0.40039 0.41445,0.12644 0.78977,0.25521 1.12695,0.38867 0.33718,0.12644 0.6217,0.27008 0.85351,0.43164 0.22479,0.16157 0.39347,0.35256 0.50586,0.57032 0.11942,0.21074 0.17969,0.46278 0.17969,0.75781 0,0.56899 -0.18355,1.00732 -0.54883,1.31641 -0.36528,0.30205 -0.88424,0.45312 -1.55859,0.45312 -0.47767,0 -0.91052,-0.10371 -1.29687,-0.31445 -0.37933,-0.21074 -0.70651,-0.47217 -0.98047,-0.78125 -0.25992,-0.29504 -0.47948,-0.62496 -0.66211,-0.99024 -0.18271,-0.36528 -0.30324,-0.68502 -0.35938,-0.95898 h -0.72656 l 0.10547,3.61523 h 0.78906 l 0.21094,-0.68554 c 0.21776,0.18264 0.58016,0.38379 1.08594,0.60156 0.51279,0.21775 1.07167,0.32617 1.67578,0.32617 1.14501,0 2.0745,-0.30683 2.79101,-0.91797 0.72353,-0.61114 1.08594,-1.39701 1.08594,-2.35937 0,-0.47767 -0.0779,-0.88078 -0.23242,-1.21094 -0.15454,-0.33015 -0.3741,-0.62211 -0.66211,-0.875 -0.26693,-0.23883 -0.60899,-0.45761 -1.02344,-0.6543 -0.40743,-0.19668 -0.84302,-0.3681 -1.30664,-0.51562 -0.47065,-0.15455 -0.86632,-0.29075 -1.18945,-0.41016 -0.31611,-0.12645 -0.58028,-0.2599 -0.79102,-0.40039 -0.21776,-0.14752 -0.3837,-0.32833 -0.49609,-0.53906 -0.10537,-0.21074 -0.15625,-0.47296 -0.15625,-0.78907 0,-0.40743 0.16399,-0.75496 0.49414,-1.04296 0.33016,-0.28801 0.78336,-0.43164 1.35937,-0.43164 0.70246,0 1.29655,0.23443 1.78125,0.70507 0.49172,0.46363 0.81147,1.0679 0.95899,1.8125 h 0.72656 l -0.1582,-3.33984 z m -270.19727,0.01 c -0.4285,0 -0.8668,0.0704 -1.3164,0.21093 -0.4495,0.13347 -0.8323,0.29941 -1.1484,0.4961 -0.3654,0.23181 -0.6648,0.49403 -0.8965,0.78906 -0.2248,0.29503 -0.3379,0.6046 -0.3379,0.92773 0,0.30908 0.081,0.59086 0.2422,0.84375 0.1686,0.24586 0.43,0.36719 0.7812,0.36719 0.3934,0 0.6982,-0.10097 0.916,-0.30469 0.2248,-0.20371 0.3379,-0.42796 0.3379,-0.67382 0,-0.23181 -0.035,-0.48581 -0.1054,-0.75977 -0.063,-0.27396 -0.096,-0.48061 -0.096,-0.62109 0.1123,-0.11943 0.306,-0.23253 0.58,-0.33789 0.281,-0.11239 0.5832,-0.16797 0.9063,-0.16797 0.4707,0 0.831,0.0982 1.084,0.29492 0.2598,0.18966 0.461,0.41392 0.6015,0.67383 0.1262,0.23181 0.2069,0.47837 0.2422,0.73828 0.042,0.25991 0.062,0.43602 0.062,0.52734 v 1.04297 c -0.3371,0.18264 -0.9895,0.43468 -1.959,0.75781 -0.9623,0.32314 -1.6019,0.54465 -1.9179,0.66407 -0.2529,0.0983 -0.5225,0.23179 -0.8106,0.40039 -0.288,0.16156 -0.5197,0.34785 -0.6953,0.55859 -0.2248,0.25288 -0.3934,0.5374 -0.5058,0.85352 -0.1124,0.3161 -0.17,0.67381 -0.17,1.07421 0,0.7727 0.2493,1.39928 0.7481,1.87696 0.5058,0.47767 1.1499,0.71484 1.9297,0.71484 0.7376,0 1.3649,-0.13345 1.8847,-0.40039 0.5269,-0.26693 1.0181,-0.65243 1.4746,-1.1582 h 0.065 c 0.091,0.49172 0.2979,0.86704 0.6211,1.12695 0.3301,0.25288 0.7685,0.37891 1.3164,0.37891 0.3161,0 0.5979,-0.038 0.8437,-0.11524 0.2529,-0.0702 0.5448,-0.16574 0.875,-0.28515 v -0.67383 c -0.2389,0 -0.4753,-0.003 -0.707,-0.01 -0.2248,-0.007 -0.3888,-0.0422 -0.4942,-0.10547 -0.1966,-0.1124 -0.345,-0.25055 -0.4433,-0.41211 -0.091,-0.16156 -0.1368,-0.37838 -0.1368,-0.65234 0,-0.92022 0.011,-1.76636 0.031,-2.53906 0.021,-0.77973 0.031,-1.67127 0.031,-2.67578 0,-0.70246 -0.095,-1.27621 -0.2851,-1.71875 -0.1826,-0.44958 -0.4523,-0.80455 -0.8106,-1.06446 -0.3582,-0.26693 -0.7586,-0.43835 -1.2011,-0.51562 -0.4356,-0.0843 -0.949,-0.12695 -1.5391,-0.12695 z m 48.8906,0 c -0.7376,0 -1.4049,0.15576 -2.0019,0.46484 -0.5902,0.30206 -1.086,0.70242 -1.4863,1.20117 -0.4145,0.51982 -0.7295,1.10648 -0.9473,1.75977 -0.2107,0.64626 -0.3164,1.30611 -0.3164,1.98047 0,0.75162 0.098,1.46431 0.2949,2.13867 0.2037,0.67436 0.5086,1.26376 0.916,1.76953 0.4074,0.50577 0.9236,0.90614 1.5488,1.20117 0.6322,0.29503 1.3672,0.44336 2.2032,0.44336 0.9482,0 1.787,-0.24657 2.5176,-0.73828 0.7305,-0.49173 1.3144,-1.15157 1.75,-1.98047 l -0.7383,-0.45313 c -0.4214,0.75866 -0.8598,1.28505 -1.3164,1.58008 -0.4496,0.28801 -0.9881,0.43164 -1.6133,0.43164 -0.6112,0 -1.1376,-0.11584 -1.5801,-0.34765 -0.4425,-0.23884 -0.8002,-0.56132 -1.0742,-0.96875 -0.281,-0.42147 -0.4896,-0.9099 -0.6231,-1.46485 -0.1264,-0.55494 -0.1894,-1.17213 -0.1894,-1.85351 h 6.8808 v -0.69531 c 0,-0.62519 -0.081,-1.20637 -0.2421,-1.74024 -0.1546,-0.53387 -0.3937,-0.99725 -0.7168,-1.39062 -0.3372,-0.41446 -0.7756,-0.73969 -1.3164,-0.97852 -0.5409,-0.23884 -1.1906,-0.35937 -1.9493,-0.35937 z m 23.13869,0 c -0.7376,0 -1.4048,0.15576 -2.00189,0.46484 -0.59,0.30206 -1.086,0.70242 -1.4864,1.20117 -0.4145,0.51982 -0.7295,1.10648 -0.9472,1.75977 -0.2108,0.64626 -0.3164,1.30611 -0.3164,1.98047 0,0.75162 0.098,1.46431 0.2949,2.13867 0.2036,0.67436 0.5086,1.26376 0.916,1.76953 0.4075,0.50577 0.9237,0.90614 1.5488,1.20117 0.63229,0.29503 1.36719,0.44336 2.20309,0.44336 0.9484,0 1.7871,-0.24657 2.5176,-0.73828 0.7306,-0.49173 1.3144,-1.15157 1.75,-1.98047 l -0.7383,-0.45313 c -0.4214,0.75866 -0.8597,1.28505 -1.3164,1.58008 -0.4495,0.28801 -0.988,0.43164 -1.6132,0.43164 -0.6112,0 -1.1376,-0.11584 -1.5801,-0.34765 -0.4426,-0.23884 -0.80029,-0.56132 -1.07419,-0.96875 -0.281,-0.42147 -0.4877,-0.9099 -0.6211,-1.46485 -0.1264,-0.55494 -0.1895,-1.17213 -0.1895,-1.85351 h 6.87889 v -0.69531 c 0,-0.62519 -0.081,-1.20637 -0.2422,-1.74024 -0.1545,-0.53387 -0.3936,-0.99725 -0.7168,-1.39062 -0.3371,-0.41446 -0.7755,-0.73969 -1.3164,-0.97852 -0.5409,-0.23884 -1.1906,-0.35937 -1.9492,-0.35937 z m 41.4531,0 c -1.5314,0 -2.7724,0.51621 -3.7207,1.54882 -0.9412,1.03262 -1.4121,2.35975 -1.4121,3.98243 0,0.84295 0.1335,1.60573 0.4004,2.28711 0.2739,0.67436 0.6391,1.2481 1.0957,1.71874 0.4636,0.47768 0.9947,0.84281 1.5918,1.09571 0.5971,0.24586 1.2265,0.36719 1.8867,0.36719 0.7939,0 1.5093,-0.1362 2.1485,-0.41016 0.6392,-0.27397 1.2008,-0.69194 1.6855,-1.25391 0.4285,-0.49172 0.7584,-1.08855 0.9902,-1.79101 0.2319,-0.70948 0.3497,-1.4296 0.3497,-2.16016 0,-1.6297 -0.4755,-2.93374 -1.4239,-3.91016 -0.9413,-0.98343 -2.1377,-1.4746 -3.5918,-1.4746 z m 45.3711,0 c -0.7375,0 -1.4048,0.15576 -2.0019,0.46484 -0.5901,0.30206 -1.086,0.70242 -1.4864,1.20117 -0.4144,0.51982 -0.7295,1.10648 -0.9472,1.75977 -0.2108,0.64626 -0.3164,1.30611 -0.3164,1.98047 0,0.75162 0.098,1.46431 0.2949,2.13867 0.2037,0.67436 0.5086,1.26376 0.916,1.76953 0.4075,0.50577 0.9237,0.90614 1.5488,1.20117 0.6323,0.29503 1.3672,0.44336 2.2032,0.44336 0.9482,0 1.78696,-0.24657 2.51754,-0.73828 0.73056,-0.49173 1.31447,-1.15157 1.75,-1.98047 l -0.73828,-0.45313 c -0.42147,0.75866 -0.85981,1.28505 -1.31641,1.58008 -0.4496,0.28801 -0.98815,0.43164 -1.61325,0.43164 -0.6112,0 -1.1375,-0.11584 -1.5801,-0.34765 -0.4425,-0.23884 -0.8003,-0.56132 -1.0742,-0.96875 -0.281,-0.42147 -0.4896,-0.9099 -0.6231,-1.46485 -0.1264,-0.55494 -0.1894,-1.17213 -0.1894,-1.85351 h 6.88083 v -0.69531 c 0,-0.62519 -0.0806,-1.20637 -0.24218,-1.74024 -0.15454,-0.53387 -0.39367,-0.99725 -0.7168,-1.39062 -0.33718,-0.41446 -0.77551,-0.73969 -1.31641,-0.97852 -0.54084,-0.23884 -1.19054,-0.35937 -1.94924,-0.35937 z m 27.77542,0 c -0.73759,0 -1.40487,0.15576 -2.00196,0.46484 -0.59006,0.30206 -1.08593,0.70242 -1.48633,1.20117 -0.41445,0.51982 -0.7295,1.10648 -0.94726,1.75977 -0.21074,0.64626 -0.31641,1.30611 -0.31641,1.98047 0,0.75162 0.0982,1.46431 0.29492,2.13867 0.20372,0.67436 0.5086,1.26376 0.91602,1.76953 0.40743,0.50577 0.92363,0.90614 1.54883,1.20117 0.6322,0.29503 1.3672,0.44336 2.20312,0.44336 0.94832,0 1.78702,-0.24657 2.51758,-0.73828 0.73055,-0.49173 1.31448,-1.15157 1.75,-1.98047 l -0.73828,-0.45313 c -0.42148,0.75866 -0.85981,1.28505 -1.31641,1.58008 -0.44958,0.28801 -0.98809,0.43164 -1.61328,0.43164 -0.61114,0 -1.13753,-0.11584 -1.58008,-0.34765 -0.44254,-0.23884 -0.80025,-0.56132 -1.07421,-0.96875 -0.28099,-0.42147 -0.48958,-0.9099 -0.62305,-1.46485 -0.12644,-0.55494 -0.18945,-1.17213 -0.18945,-1.85351 h 6.88085 v -0.69531 c 10e-6,-0.62519 -0.0806,-1.20637 -0.24218,-1.74024 -0.15455,-0.53387 -0.39367,-0.99725 -0.7168,-1.39062 -0.33719,-0.41446 -0.77552,-0.73969 -1.31641,-0.97852 -0.54089,-0.23884 -1.19056,-0.35937 -1.94921,-0.35937 z m 45.2871,0 c -1.53136,0 -2.77043,0.51621 -3.71874,1.54882 -0.9413,1.03262 -1.41211,2.35975 -1.41211,3.98243 0,0.84295 0.13345,1.60573 0.40039,2.28711 0.27396,0.67436 0.63911,1.2481 1.0957,1.71874 0.46363,0.47768 0.99275,0.84281 1.58984,1.09571 0.59709,0.24586 1.22641,0.36719 1.88672,0.36719 0.79378,0 1.51116,-0.1362 2.15039,-0.41016 0.63924,-0.27397 1.20084,-0.69194 1.68555,-1.25391 0.4285,-0.49172 0.75843,-1.08855 0.99023,-1.79101 0.23182,-0.70948 0.34766,-1.4296 0.34766,-2.16016 0,-1.6297 -0.47356,-2.93374 -1.42187,-3.91016 -0.94129,-0.98343 -2.13966,-1.4746 -3.59376,-1.4746 z m 46.23633,0 c -0.73758,0 -1.41973,0.15576 -2.04492,0.46484 -0.62519,0.30206 -1.14414,0.70242 -1.55859,1.20117 -0.43552,0.51982 -0.77014,1.09905 -1.00196,1.73828 -0.22478,0.63222 -0.33593,1.31241 -0.33593,2.04297 0,1.67887 0.42346,3.01813 1.27343,4.01563 0.84998,0.99748 2.02799,1.49609 3.53125,1.49609 0.80783,0 1.59096,-0.24187 2.34961,-0.72656 0.75866,-0.4847 1.36841,-1.1418 1.83204,-1.97071 l -0.67383,-0.44335 c -0.39338,0.66031 -0.82153,1.15616 -1.28516,1.48632 -0.4566,0.33016 -1.02564,0.49414 -1.70703,0.49414 -0.94129,0 -1.70407,-0.41054 -2.28711,-1.23242 -0.57601,-0.8289 -0.86328,-1.89655 -0.86328,-3.20312 0,-0.8289 0.0806,-1.54159 0.24219,-2.13868 0.16157,-0.59709 0.3729,-1.07064 0.63281,-1.42187 0.28801,-0.38635 0.58271,-0.65052 0.88476,-0.79102 0.30909,-0.14751 0.63157,-0.2207 0.96875,-0.2207 0.28801,0 0.55493,0.038 0.80079,0.11524 0.25288,0.0702 0.44387,0.21387 0.57031,0.43164 -0.014,0.15454 -0.0641,0.4011 -0.14844,0.73828 -0.0843,0.33015 -0.12695,0.65265 -0.12695,0.96875 0,0.25991 0.1131,0.49629 0.33789,0.70703 0.23181,0.21074 0.55429,0.31641 0.96875,0.31641 0.38635,-10e-6 0.66344,-0.13346 0.83203,-0.4004 0.16859,-0.27396 0.25391,-0.58822 0.25391,-0.93945 0,-0.84295 -0.31975,-1.50554 -0.95899,-1.99023 -0.63924,-0.49172 -1.46777,-0.73828 -2.48633,-0.73828 z m 22.18946,0 c -0.73758,0 -1.40486,0.15576 -2.00196,0.46484 -0.59006,0.30206 -1.08397,0.70242 -1.48437,1.20117 -0.41445,0.51982 -0.73146,1.10648 -0.94922,1.75977 -0.21073,0.64626 -0.31641,1.30611 -0.31641,1.98047 0,0.75162 0.0982,1.46431 0.29493,2.13867 0.2037,0.67436 0.51053,1.26376 0.91796,1.76953 0.40742,0.50577 0.92365,0.90614 1.54883,1.20117 0.63222,0.29503 1.36525,0.44336 2.20117,0.44336 0.94832,0 1.78898,-0.24657 2.51954,-0.73828 0.73056,-0.49173 1.31252,-1.15157 1.74804,-1.98047 l -0.73633,-0.45313 c -0.42146,0.75866 -0.86176,1.28505 -1.31836,1.58008 -0.44958,0.28801 -0.98614,0.43164 -1.61132,0.43164 -0.61114,0 -1.13753,-0.11584 -1.58008,-0.34765 -0.44255,-0.23884 -0.80221,-0.56132 -1.07617,-0.96875 -0.28099,-0.42147 -0.48764,-0.9099 -0.6211,-1.46485 -0.12644,-0.55494 -0.18945,-1.17213 -0.18945,-1.85351 h 6.88086 v -0.69531 c 0,-0.62519 -0.0806,-1.20637 -0.24219,-1.74024 -0.15455,-0.53387 -0.39367,-0.99725 -0.7168,-1.39062 -0.33718,-0.41446 -0.77746,-0.73969 -1.31836,-0.97852 -0.54088,-0.23884 -1.19055,-0.35937 -1.94921,-0.35937 z m 29.46093,0 c -0.73758,0 -1.40486,0.15576 -2.00195,0.46484 -0.59007,0.30206 -1.08397,0.70242 -1.48437,1.20117 -0.41446,0.51982 -0.73146,1.10648 -0.94922,1.75977 -0.21074,0.64626 -0.31641,1.30611 -0.31641,1.98047 0,0.75162 0.0982,1.46431 0.29492,2.13867 0.20372,0.67436 0.51055,1.26376 0.91797,1.76953 0.40743,0.50577 0.92364,0.90614 1.54883,1.20117 0.63221,0.29503 1.36524,0.44336 2.20117,0.44336 0.94832,0 1.78898,-0.24657 2.51953,-0.73828 0.73056,-0.49173 1.31253,-1.15157 1.74805,-1.98047 l -0.73633,-0.45313 c -0.42148,0.75866 -0.86176,1.28505 -1.31836,1.58008 -0.44958,0.28801 -0.98614,0.43164 -1.61133,0.43164 -0.61114,0 -1.13753,-0.11584 -1.58007,-0.34765 -0.44255,-0.23884 -0.80222,-0.56132 -1.07618,-0.96875 -0.28098,-0.42147 -0.48762,-0.9099 -0.62109,-1.46485 -0.12643,-0.55494 -0.18945,-1.17213 -0.18945,-1.85351 h 6.88086 v -0.69531 c 0,-0.62519 -0.0806,-1.20637 -0.24219,-1.74024 -0.15455,-0.53387 -0.39367,-0.99725 -0.7168,-1.39062 -0.33718,-0.41446 -0.77552,-0.73969 -1.3164,-0.97852 -0.5409,-0.23884 -1.19252,-0.35937 -1.95118,-0.35937 z m -316.21093,0.0117 c -0.4285,0 -0.8289,0.0556 -1.2012,0.16797 -0.3652,0.1124 -0.6701,0.25329 -0.916,0.42188 -0.2178,0.14752 -0.4541,0.33929 -0.707,0.57812 -0.2529,0.23884 -0.467,0.44743 -0.6426,0.62305 h -0.074 v -1.48633 l -0.1465,-0.14648 -3.4766,0.23047 v 0.68554 c 0.2108,0.0141 0.4128,0.0493 0.6094,0.10547 0.1967,0.0492 0.3626,0.11493 0.4961,0.19922 0.1827,0.12644 0.3236,0.2822 0.4219,0.46484 0.1054,0.17561 0.1582,0.37483 0.1582,0.59961 v 6.45899 c 0,0.25288 -0.05,0.46148 -0.1484,0.62304 -0.091,0.15457 -0.235,0.26298 -0.4317,0.32618 -0.1264,0.0421 -0.2774,0.0699 -0.4531,0.084 -0.1686,0.014 -0.3346,0.0289 -0.4961,0.043 v 0.69531 h 5.0488 v -0.69531 c -0.1897,-0.014 -0.363,-0.0391 -0.5176,-0.0742 -0.1545,-0.0351 -0.3056,-0.088 -0.4531,-0.1582 -0.1967,-0.0843 -0.3431,-0.20758 -0.4414,-0.36914 -0.098,-0.16157 -0.1484,-0.36078 -0.1484,-0.59961 v -5.95558 c 0.07,-0.0983 0.1758,-0.24198 0.3164,-0.43164 0.1404,-0.19669 0.3119,-0.37281 0.5156,-0.52734 0.2529,-0.18967 0.5319,-0.33604 0.834,-0.44141 0.3021,-0.11239 0.6245,-0.16797 0.9687,-0.16797 0.4988,0 0.912,0.19921 1.2422,0.59961 0.3372,0.39337 0.5059,0.95499 0.5059,1.68555 v 5.36328 c 0,0.25288 -0.048,0.46148 -0.1465,0.62304 -0.091,0.1545 -0.2349,0.26291 -0.4316,0.32618 -0.1265,0.0421 -0.2674,0.0699 -0.4219,0.084 -0.1475,0.014 -0.3013,0.0289 -0.4629,0.043 v 0.69531 h 4.9629 v -0.69531 c -0.2107,-0.0141 -0.3841,-0.0364 -0.5176,-0.0645 -0.1264,-0.0351 -0.27,-0.0833 -0.4316,-0.14649 -0.2037,-0.0843 -0.3473,-0.20484 -0.4317,-0.35937 -0.084,-0.16158 -0.1269,-0.36547 -0.1269,-0.61133 v -5.99414 c 0.07,-0.11942 0.1731,-0.26775 0.3066,-0.44336 0.1405,-0.18264 0.3119,-0.35132 0.5156,-0.50586 0.2529,-0.18967 0.53,-0.33604 0.8321,-0.44141 0.302,-0.10536 0.6245,-0.1582 0.9687,-0.1582 0.4988,0 0.914,0.19921 1.2442,0.59961 0.3372,0.39337 0.5058,0.95499 0.5058,1.68555 v 5.36328 c 0,0.25288 -0.05,0.46148 -0.1484,0.62304 -0.091,0.15457 -0.235,0.26298 -0.4317,0.32618 -0.1264,0.0421 -0.2728,0.0699 -0.4414,0.084 -0.1616,0.014 -0.3248,0.0289 -0.4863,0.043 v 0.69531 h 5.0684 v -0.69531 c -0.1966,-0.0141 -0.3774,-0.0364 -0.539,-0.0645 -0.1546,-0.0351 -0.3111,-0.0832 -0.4727,-0.14649 -0.2037,-0.0843 -0.3493,-0.20483 -0.4336,-0.35937 -0.084,-0.16158 -0.125,-0.36547 -0.125,-0.61133 v -5.2793 c 0,-1.19417 -0.2567,-2.07827 -0.7695,-2.65429 -0.5128,-0.57602 -1.2078,-0.86329 -2.086,-0.86329 -0.4424,0 -0.8475,0.0556 -1.2128,0.16797 -0.3583,0.1124 -0.6706,0.25877 -0.9376,0.44141 -0.316,0.21073 -0.5727,0.4119 -0.7695,0.60156 -0.1896,0.18264 -0.4111,0.39672 -0.664,0.64258 -0.2108,-0.51279 -0.5583,-0.94839 -1.043,-1.30664 -0.4847,-0.36528 -1.0639,-0.54688 -1.7383,-0.54688 z m 18.334,0 c -0.5339,0 -1.0705,0.13895 -1.6113,0.41993 -0.541,0.28098 -0.9941,0.6332 -1.3594,1.05468 l -0.084,-0.0215 v -1.16992 l -0.1484,-0.12696 -3.5391,0.23243 v 0.68554 c 0.2107,0.0141 0.4275,0.0446 0.6523,0.0937 0.2248,0.0421 0.4009,0.10516 0.5274,0.18946 0.1686,0.11941 0.3048,0.27791 0.4101,0.47461 0.1054,0.19668 0.1582,0.40059 0.1582,0.61132 v 11.05274 c 0,0.23884 -0.043,0.44744 -0.1269,0.62305 -0.084,0.17562 -0.2307,0.29889 -0.4414,0.36914 -0.1615,0.0492 -0.345,0.0824 -0.5488,0.10351 -0.2037,0.0211 -0.4132,0.0387 -0.6309,0.0527 v 0.70703 h 5.8047 v -0.70703 c -0.2037,-0.007 -0.4632,-0.0403 -0.7793,-0.10352 -0.3091,-0.0562 -0.5481,-0.11649 -0.7168,-0.17969 -0.2037,-0.0773 -0.3548,-0.20055 -0.4531,-0.36914 -0.098,-0.16859 -0.1465,-0.37992 -0.1465,-0.63281 v -3.11914 h 0.084 c 0.2528,0.18967 0.5781,0.3556 0.9785,0.49609 0.4004,0.14049 0.9139,0.21094 1.5391,0.21094 0.6462,0 1.2579,-0.13072 1.8339,-0.39062 0.576,-0.25992 1.0997,-0.6325 1.5703,-1.11719 0.4496,-0.47768 0.8101,-1.05221 1.084,-1.72657 0.274,-0.68138 0.4121,-1.43397 0.4121,-2.25585 0,-0.83593 -0.1158,-1.5764 -0.3476,-2.22266 -0.2248,-0.65329 -0.5445,-1.22703 -0.959,-1.71875 -0.3863,-0.46363 -0.8498,-0.83152 -1.3906,-1.10547 -0.5339,-0.27396 -1.1252,-0.41016 -1.7715,-0.41016 z m 213.541,0 c -0.44958,0 -0.85465,0.0556 -1.21289,0.16797 -0.35826,0.1124 -0.66588,0.25329 -0.92579,0.42188 -0.22478,0.14751 -0.46391,0.33928 -0.71679,0.57812 -0.25289,0.23182 -0.46422,0.43297 -0.63282,0.60157 h -0.0527 v -1.46485 l -0.14648,-0.14844 -3.45703,0.23243 v 0.68554 c 0.21073,0.014 0.4072,0.0418 0.58984,0.084 0.18264,0.0351 0.34114,0.0954 0.47461,0.17968 0.18264,0.12644 0.32353,0.29043 0.42187,0.49415 0.10537,0.19668 0.15821,0.41546 0.15821,0.65429 v 6.41602 c 0,0.25288 -0.0501,0.46148 -0.14844,0.62304 -0.0913,0.1545 -0.23496,0.26291 -0.43164,0.32618 -0.12645,0.0422 -0.27752,0.0699 -0.45313,0.084 -0.16859,0.014 -0.33453,0.0289 -0.49609,0.043 v 0.69531 h 5.08984 v -0.69531 c -0.18264,-0.014 -0.36149,-0.0391 -0.53711,-0.0742 -0.16858,-0.0351 -0.32709,-0.088 -0.47461,-0.1582 -0.19668,-0.0843 -0.34305,-0.20483 -0.4414,-0.35938 -0.0983,-0.15453 -0.14844,-0.351 -0.14844,-0.58984 v -5.97512 c 0.0632,-0.11239 0.16145,-0.25877 0.29492,-0.44141 0.14048,-0.18966 0.32678,-0.36578 0.5586,-0.52734 0.23884,-0.16859 0.51318,-0.30948 0.82226,-0.42187 0.30908,-0.11942 0.64918,-0.17774 1.02149,-0.17774 0.49874,0 0.92141,0.19921 1.26562,0.59961 0.35123,0.4004 0.52539,0.96944 0.52539,1.70703 v 5.3418 c 0,0.25288 -0.0481,0.46148 -0.14648,0.62304 -0.0913,0.15457 -0.23496,0.26298 -0.43164,0.32618 -0.12645,0.0421 -0.28964,0.0699 -0.48633,0.084 -0.18966,0.014 -0.36383,0.0289 -0.52539,0.043 v 0.69531 h 5.08789 v -0.69531 c -0.21776,-0.0141 -0.38919,-0.0364 -0.51563,-0.0645 -0.11942,-0.0281 -0.26306,-0.0762 -0.43164,-0.14649 -0.20371,-0.0843 -0.34734,-0.20014 -0.43164,-0.34765 -0.0843,-0.15455 -0.12695,-0.35571 -0.12695,-0.60157 v -5.40429 c 0,-1.03262 -0.24187,-1.8584 -0.72656,-2.47657 -0.47768,-0.62518 -1.2154,-0.9375 -2.21289,-0.9375 z m 67.58398,0 c -0.4285,0 -0.82887,0.0556 -1.20117,0.16797 -0.36528,0.1124 -0.67211,0.25329 -0.91797,0.42188 -0.21777,0.14752 -0.45219,0.33929 -0.70508,0.57812 -0.25288,0.23884 -0.46696,0.44743 -0.64258,0.62305 h -0.0742 v -1.48633 l -0.14844,-0.14648 -3.47656,0.23047 v 0.68554 c 0.21073,0.0141 0.41464,0.0493 0.61132,0.10547 0.19669,0.0492 0.36263,0.11493 0.4961,0.19922 0.18264,0.12644 0.32157,0.2822 0.41992,0.46484 0.10537,0.17561 0.1582,0.37483 0.1582,0.59961 v 6.45899 c 0,0.25288 -0.0481,0.46148 -0.14648,0.62304 -0.0913,0.15457 -0.23495,0.26298 -0.43164,0.32618 -0.12644,0.0421 -0.27751,0.0699 -0.45313,0.084 -0.16858,0.014 -0.33453,0.0289 -0.49609,0.043 v 0.69531 h 5.04687 v -0.69531 c -0.18966,-0.014 -0.36108,-0.0391 -0.51562,-0.0742 -0.15454,-0.0351 -0.30561,-0.088 -0.45313,-0.1582 -0.19669,-0.0843 -0.34501,-0.20758 -0.44336,-0.36914 -0.0983,-0.16157 -0.14648,-0.36078 -0.14648,-0.59961 v -5.95558 c 0.0702,-0.0983 0.17591,-0.24198 0.31641,-0.43164 0.14049,-0.19669 0.31191,-0.37281 0.51562,-0.52734 0.25289,-0.18967 0.52997,-0.33604 0.83203,-0.44141 0.30206,-0.11239 0.62455,-0.16797 0.96875,-0.16797 0.49875,0 0.91398,0.19921 1.24414,0.59961 0.33718,0.39337 0.50586,0.95499 0.50586,1.68555 v 5.36328 c 0,0.25288 -0.0501,0.46148 -0.14844,0.62304 -0.0913,0.1545 -0.23494,0.26291 -0.43164,0.32618 -0.12644,0.0421 -0.26733,0.0699 -0.42187,0.084 -0.14752,0.014 -0.30133,0.0289 -0.46289,0.043 v 0.69531 h 4.96289 v -0.69531 c -0.21074,-0.0141 -0.38216,-0.0364 -0.51563,-0.0645 -0.12644,-0.0351 -0.27006,-0.0833 -0.43164,-0.14649 -0.2037,-0.0843 -0.34929,-0.20484 -0.43359,-0.35937 -0.0843,-0.16158 -0.125,-0.36547 -0.125,-0.61133 v -5.99414 c 0.0702,-0.11942 0.17122,-0.26775 0.30469,-0.44336 0.14049,-0.18264 0.31191,-0.35132 0.51562,-0.50586 0.25288,-0.18967 0.53192,-0.33604 0.83399,-0.44141 0.30205,-0.10536 0.62455,-0.1582 0.96875,-0.1582 0.49875,0 0.91398,0.19921 1.24414,0.59961 0.33718,0.39337 0.5039,0.95499 0.5039,1.68555 v 5.36328 c 0,0.25288 -0.0481,0.46148 -0.14648,0.62304 -0.0913,0.15457 -0.23495,0.26298 -0.43164,0.32618 -0.12644,0.0421 -0.27477,0.0699 -0.44336,0.084 -0.16157,0.014 -0.32282,0.0289 -0.48438,0.043 v 0.69531 h 5.06836 v -0.69531 c -0.19668,-0.0141 -0.37554,-0.0364 -0.53711,-0.0645 -0.15454,-0.0351 -0.31304,-0.0832 -0.47461,-0.14649 -0.20371,-0.0843 -0.34734,-0.20483 -0.43164,-0.35937 -0.0843,-0.16158 -0.12695,-0.36547 -0.12695,-0.61133 v -5.2793 c 0,-1.19417 -0.25674,-2.07827 -0.76953,-2.65429 -0.5128,-0.57602 -1.20787,-0.86329 -2.08594,-0.86329 -0.44255,0 -0.84566,0.0556 -1.21094,0.16797 -0.35826,0.1124 -0.67056,0.25877 -0.9375,0.44141 -0.3161,0.21073 -0.57284,0.4119 -0.76953,0.60156 -0.18966,0.18264 -0.41117,0.39672 -0.66406,0.64258 -0.21073,-0.51279 -0.55827,-0.94839 -1.04297,-1.30664 -0.48469,-0.36528 -1.06392,-0.54688 -1.73828,-0.54688 z m -186.58789,0.0312 c -0.4426,0 -0.931,0.14637 -1.4648,0.44141 -0.5339,0.29503 -1.0177,0.72788 -1.4532,1.29688 h -0.053 v -1.46485 l -0.1484,-0.14844 -3.4571,0.23243 v 0.68554 c 0.2108,0.014 0.4092,0.0418 0.5918,0.084 0.1827,0.0351 0.3392,0.0954 0.4727,0.17968 0.1826,0.12644 0.3235,0.29512 0.4219,0.50586 0.1053,0.21074 0.1582,0.42482 0.1582,0.64258 v 6.41602 c 0,0.25288 -0.048,0.45953 -0.1465,0.62109 -0.091,0.1545 -0.237,0.26486 -0.4336,0.32813 -0.1265,0.0422 -0.2775,0.0699 -0.4531,0.084 -0.1686,0.014 -0.3327,0.0269 -0.4942,0.041 v 0.69726 h 5.4785 v -0.69726 c -0.2037,-0.014 -0.4456,-0.0371 -0.7265,-0.0723 -0.274,-0.0351 -0.4983,-0.088 -0.6739,-0.1582 -0.2038,-0.0773 -0.3548,-0.19311 -0.4531,-0.34766 -0.091,-0.15454 -0.1367,-0.3557 -0.1367,-0.60156 v -6.04688 c 0.3091,-0.49172 0.6844,-0.87173 1.127,-1.13867 0.4425,-0.26693 0.828,-0.40039 1.1582,-0.40039 -0.021,0.12645 -0.046,0.25247 -0.074,0.37891 -0.021,0.12644 -0.031,0.26733 -0.031,0.42187 0,0.24586 0.103,0.47011 0.3066,0.67383 0.2108,0.20371 0.5129,0.30664 0.9063,0.30664 0.3653,0 0.6349,-0.13815 0.8105,-0.41211 0.1756,-0.28098 0.2637,-0.60073 0.2637,-0.95898 0,-0.4847 -0.1409,-0.87019 -0.4219,-1.15821 -0.2739,-0.28801 -0.6317,-0.43164 -1.0742,-0.43164 z m 72.32422,0 c -0.44255,0 -0.92902,0.14637 -1.46289,0.44141 -0.53387,0.29503 -1.01955,0.72788 -1.45508,1.29688 h -0.0527 v -1.46485 l -0.14649,-0.14844 -3.45703,0.23243 v 0.68554 c 0.21074,0.014 0.4072,0.0418 0.58984,0.084 0.18264,0.0351 0.34115,0.0954 0.47461,0.17968 0.18264,0.12644 0.32354,0.29512 0.42188,0.50586 0.10537,0.21074 0.1582,0.42482 0.1582,0.64258 v 6.41602 c 0,0.25288 -0.0501,0.45953 -0.14844,0.62109 -0.0913,0.1545 -0.23495,0.26486 -0.43164,0.32813 -0.12644,0.0422 -0.27752,0.0699 -0.45312,0.084 -0.1686,0.014 -0.33453,0.0269 -0.4961,0.041 v 0.69726 h 5.48047 v -0.69726 c -0.2037,-0.014 -0.44753,-0.0371 -0.72851,-0.0723 -0.27396,-0.0351 -0.49821,-0.088 -0.67383,-0.1582 -0.20371,-0.0773 -0.35478,-0.19311 -0.45313,-0.34766 -0.0913,-0.15454 -0.13671,-0.3557 -0.13671,-0.60156 v -6.04688 c 0.30908,-0.49172 0.6844,-0.87173 1.12695,-1.13867 0.44255,-0.26693 0.83,-0.40039 1.16015,-0.40039 -0.0211,0.12645 -0.0462,0.25247 -0.0742,0.37891 -0.0211,0.12644 -0.0312,0.26733 -0.0312,0.42187 0,0.24586 0.10097,0.47011 0.30468,0.67383 0.21074,0.20371 0.51288,0.30664 0.90625,0.30664 0.36528,0 0.63689,-0.13815 0.8125,-0.41211 0.17562,-0.28098 0.26368,-0.60073 0.26368,-0.95898 h -0.002 c 0,-0.4847 -0.13894,-0.87019 -0.41992,-1.15821 -0.27396,-0.28801 -0.63362,-0.43164 -1.07617,-0.43164 z m 5.7539,0.12696 -3.66601,0.23047 v 0.68554 c 0.21074,0.014 0.44243,0.052 0.69531,0.11524 0.25289,0.0562 0.44466,0.12664 0.57813,0.21093 0.18264,0.12644 0.32353,0.28495 0.42187,0.47461 0.10537,0.18264 0.1582,0.38655 0.1582,0.61133 v 6.41602 c 0,0.25288 -0.0481,0.46148 -0.14648,0.62304 -0.0913,0.15457 -0.23691,0.26298 -0.43359,0.32618 -0.12645,0.0421 -0.27752,0.0699 -0.45313,0.084 -0.16859,0.014 -0.33257,0.0289 -0.49414,0.043 v 0.69531 h 5.02539 v -0.69531 c -0.18264,-0.014 -0.34663,-0.0391 -0.49414,-0.0742 -0.14752,-0.0421 -0.29858,-0.0949 -0.45312,-0.1582 -0.20372,-0.0773 -0.35478,-0.1978 -0.45313,-0.35938 -0.0913,-0.16156 -0.13672,-0.36351 -0.13672,-0.60937 v -8.47266 z m -127.27542,0.125 v 0.69531 c 0.4286,0 0.7585,0.0853 0.9903,0.25391 0.2388,0.16156 0.4501,0.37564 0.6328,0.64257 0.3371,0.49173 0.7626,1.10892 1.2754,1.85352 0.5198,0.73759 0.9581,1.36417 1.3164,1.87695 -0.6182,0.84296 -1.1243,1.51024 -1.5176,2.00196 -0.3863,0.49172 -0.6885,0.87721 -0.9063,1.1582 -0.2458,0.29503 -0.5154,0.54433 -0.8105,0.74805 -0.288,0.19668 -0.6708,0.36536 -1.1484,0.50586 v 0.65429 h 3.8457 v -0.67578 c -0.4004,-0.0351 -0.7026,-0.10088 -0.9063,-0.19922 -0.1967,-0.10537 -0.2949,-0.23608 -0.2949,-0.39062 0,-0.0632 0.025,-0.14659 0.074,-0.25196 0.056,-0.10537 0.1089,-0.19342 0.1582,-0.26367 0.3372,-0.48469 0.6597,-0.94064 0.9688,-1.36914 0.3091,-0.43552 0.6465,-0.88324 1.0117,-1.33984 0.4426,0.63924 0.8151,1.19067 1.1172,1.65429 0.3091,0.4566 0.551,0.82175 0.7265,1.09571 0.07,0.11239 0.1407,0.23567 0.211,0.36914 0.07,0.13342 0.1054,0.23165 0.1054,0.29492 0,0.14751 -0.113,0.24026 -0.3378,0.27539 -0.2178,0.0351 -0.4848,0.0703 -0.8008,0.10547 v 0.69531 h 4.7636 v -0.69531 c -0.4355,-0.0281 -0.7783,-0.13102 -1.0313,-0.30664 -0.2458,-0.18264 -0.472,-0.4292 -0.6757,-0.73828 -0.4074,-0.61114 -0.8106,-1.20329 -1.211,-1.7793 -0.4004,-0.57601 -0.9193,-1.31374 -1.5586,-2.21289 0.5761,-0.75865 1.0219,-1.35001 1.3379,-1.77148 0.3232,-0.42148 0.6003,-0.7745 0.832,-1.0625 0.2109,-0.25289 0.4676,-0.47441 0.7696,-0.66407 0.3021,-0.19668 0.7228,-0.36536 1.2637,-0.50586 v -0.65429 h -3.836 v 0.67383 c 0.2178,0.0351 0.4467,0.10008 0.6856,0.1914 0.2458,0.0843 0.3691,0.20014 0.3691,0.34766 0,0.0702 -0.015,0.14343 -0.043,0.2207 -0.028,0.0703 -0.056,0.13056 -0.084,0.17969 -0.2739,0.40742 -0.576,0.83558 -0.9062,1.28516 -0.3231,0.44957 -0.6076,0.8425 -0.8535,1.17968 -0.3793,-0.55494 -0.7323,-1.08134 -1.0625,-1.58008 -0.3231,-0.49875 -0.5623,-0.86858 -0.7168,-1.10742 -0.063,-0.0913 -0.1162,-0.17468 -0.1582,-0.25195 -0.042,-0.0773 -0.062,-0.14774 -0.062,-0.21094 0,-0.0984 0.1085,-0.16138 0.3262,-0.18945 0.2178,-0.0281 0.4392,-0.043 0.664,-0.043 v -0.69531 z m -28.39639,0.49609 c 0.4425,0 0.805,0.10098 1.0859,0.30469 0.281,0.20371 0.5024,0.46788 0.6641,0.79101 0.1474,0.30206 0.253,0.67738 0.3164,1.12696 0.07,0.44956 0.1035,0.87028 0.1035,1.26367 h -4.8047 c 0.042,-1.09584 0.3063,-1.94745 0.791,-2.55859 0.4917,-0.61816 1.1062,-0.92774 1.8438,-0.92774 z m 23.13859,0 c 0.4426,0 0.805,0.10098 1.086,0.30469 0.2809,0.20371 0.5025,0.46788 0.664,0.79101 0.1475,0.30206 0.2531,0.67738 0.3164,1.12696 0.07,0.44956 0.1055,0.87028 0.1055,1.26367 h -4.80469 c 0.042,-1.09584 0.3043,-1.94745 0.7891,-2.55859 0.49169,-0.61816 1.10619,-0.92774 1.84369,-0.92774 z m 86.8242,0 c 0.4426,0 0.805,0.10098 1.086,0.30469 0.281,0.20371 0.5024,0.46788 0.664,0.79101 0.14756,0.30206 0.25325,0.67738 0.31645,1.12696 0.0702,0.44956 0.10351,0.87028 0.10351,1.26367 h -4.80466 c 0.042,-1.09584 0.3063,-1.94745 0.791,-2.55859 0.4917,-0.61816 1.1062,-0.92774 1.8437,-0.92774 z m 27.77543,0 c 0.44255,0 0.80496,0.10098 1.08594,0.30469 0.28099,0.20371 0.5025,0.46788 0.66406,0.79101 0.14754,0.30206 0.25125,0.67738 0.31445,1.12696 0.0702,0.44956 0.10547,0.87028 0.10547,1.26367 h -4.80468 c 0.0421,-1.09584 0.30632,-1.94745 0.79101,-2.55859 0.49172,-0.61816 1.10616,-0.92774 1.84375,-0.92774 z m 113.71485,0 c 0.44254,0 0.80299,0.10098 1.08398,0.30469 0.28099,0.20371 0.5025,0.46788 0.66406,0.79101 0.14754,0.30206 0.25321,0.67738 0.31641,1.12696 0.0702,0.44956 0.10547,0.87028 0.10547,1.26367 h -4.80469 c 0.0421,-1.09584 0.30436,-1.94745 0.78906,-2.55859 0.49172,-0.61816 1.10812,-0.92774 1.84571,-0.92774 z m 29.46093,0 c 0.44255,0 0.80301,0.10098 1.08399,0.30469 0.28098,0.20371 0.5025,0.46788 0.66406,0.79101 0.14754,0.30206 0.25321,0.67738 0.31641,1.12696 0.0702,0.44956 0.10546,0.87028 0.10546,1.26367 h -4.80468 c 0.0421,-1.09584 0.30632,-1.94745 0.79101,-2.55859 0.49172,-0.61816 1.10617,-0.92774 1.84375,-0.92774 z m -216.32231,0.01 c 0.5269,0 0.9727,0.13345 1.3379,0.40039 0.3654,0.2599 0.66,0.60745 0.8848,1.04297 0.2107,0.40743 0.3692,0.90603 0.4746,1.49609 0.1054,0.58304 0.1582,1.13918 0.1582,1.66602 0,1.49624 -0.2567,2.66955 -0.7695,3.51953 -0.5128,0.84996 -1.2078,1.27343 -2.086,1.27343 -0.5338,0 -0.9843,-0.12602 -1.3496,-0.3789 -0.3582,-0.25991 -0.6557,-0.61487 -0.8945,-1.06445 -0.2388,-0.44957 -0.4149,-0.95836 -0.5273,-1.52735 -0.1054,-0.57601 -0.1582,-1.20064 -0.1582,-1.875 0,-0.5128 0.045,-1.04388 0.1367,-1.5918 0.091,-0.54791 0.2498,-1.03634 0.4746,-1.46484 0.2389,-0.46363 0.5484,-0.82878 0.9277,-1.0957 0.3864,-0.26694 0.8498,-0.40039 1.3906,-0.40039 z m 118.43364,0 c 0.52684,0 0.9726,0.13345 1.33789,0.40039 0.36527,0.2599 0.66193,0.60745 0.88672,1.04297 0.21073,0.40743 0.36728,0.90603 0.47266,1.49609 0.10536,0.58304 0.1582,1.13918 0.1582,1.66602 0,1.49624 -0.25674,2.66955 -0.76953,3.51953 -0.5128,0.84996 -1.20787,1.27343 -2.08594,1.27343 -0.53387,0 -0.98238,-0.12602 -1.34766,-0.3789 -0.35826,-0.25991 -0.65765,-0.61487 -0.89648,-1.06445 -0.23884,-0.44957 -0.41496,-0.95836 -0.52734,-1.52735 -0.10537,-0.57601 -0.15821,-1.20064 -0.15821,-1.875 0,-0.5128 0.0474,-1.04388 0.13867,-1.5918 0.0913,-0.54791 0.24788,-1.03634 0.47266,-1.46484 0.23883,-0.46363 0.5484,-0.82878 0.92774,-1.0957 0.38635,-0.26694 0.84973,-0.40039 1.39062,-0.40039 z m -200.72653,0.3789 c 0.5409,0 1.0043,0.12798 1.3906,0.38086 0.3863,0.25289 0.6986,0.58282 0.9375,0.99024 0.2389,0.4004 0.4149,0.87122 0.5273,1.41211 0.1124,0.5409 0.168,1.07003 0.168,1.58984 0,0.70949 -0.066,1.35367 -0.1992,1.92969 -0.1335,0.57602 -0.342,1.0801 -0.623,1.51562 -0.2459,0.37933 -0.5509,0.67599 -0.9161,0.88672 -0.3653,0.20371 -0.7453,0.30469 -1.1386,0.30469 -0.3654,0 -0.6749,-0.0528 -0.9278,-0.1582 -0.2528,-0.1124 -0.4872,-0.25603 -0.7051,-0.43165 -0.1756,-0.14751 -0.3368,-0.32363 -0.4843,-0.52734 -0.1404,-0.20372 -0.2433,-0.40018 -0.3067,-0.58984 v -6.14258 c 0.267,-0.31611 0.5839,-0.58771 0.9493,-0.8125 0.3652,-0.23181 0.8083,-0.34766 1.3281,-0.34766 z m -29.293,3.75196 -0.062,3.63476 c -0.2599,0.33016 -0.5796,0.61938 -0.959,0.86524 -0.3793,0.23883 -0.8196,0.35742 -1.3183,0.35742 -0.4707,0 -0.861,-0.1362 -1.17,-0.41016 -0.3021,-0.27396 -0.4531,-0.70407 -0.4531,-1.28711 0,-0.44956 0.1029,-0.83507 0.3067,-1.1582 0.2036,-0.33015 0.4807,-0.61468 0.832,-0.85352 0.3863,-0.25288 0.8043,-0.46422 1.2539,-0.63281 0.4496,-0.16859 0.9732,-0.34001 1.5703,-0.51562 z m 335.79883,3.09765 c -0.39339,0 -0.73348,0.14364 -1.02149,0.43164 -0.28098,0.28099 -0.42187,0.61835 -0.42187,1.01172 0,0.39338 0.14089,0.73074 0.42187,1.01172 0.28801,0.27396 0.6281,0.41016 1.02149,0.41016 0.39337,0 0.73074,-0.1362 1.01172,-0.41016 0.28801,-0.28098 0.43359,-0.61834 0.43359,-1.01172 0,-0.39337 -0.14558,-0.73073 -0.43359,-1.01172 -0.28098,-0.288 -0.61835,-0.43164 -1.01172,-0.43164 z"
       id="path1236" />
  </g>
</svg>
