<?xml version="1.0" encoding="UTF-8" standalone="no"?>
<!-- Created with Inkscape (http://www.inkscape.org/) -->

<svg
   xmlns:dc="http://purl.org/dc/elements/1.1/"
   xmlns:cc="http://creativecommons.org/ns#"
   xmlns:rdf="http://www.w3.org/1999/02/22-rdf-syntax-ns#"
   xmlns:svg="http://www.w3.org/2000/svg"
   xmlns="http://www.w3.org/2000/svg"
   xmlns:sodipodi="http://sodipodi.sourceforge.net/DTD/sodipodi-0.dtd"
   xmlns:inkscape="http://www.inkscape.org/namespaces/inkscape"
   width="500"
   height="89.999992"
   viewBox="0 0 499.99999 89.999995"
   version="1.1"
   id="svg3445"
   inkscape:version="0.92.3 (2405546, 2018-03-11)"
   sodipodi:docname="font-preview-cosmo.svg">
  <defs
     id="defs3439" />
  <sodipodi:namedview
     id="base"
     pagecolor="#ffffff"
     bordercolor="#666666"
     borderopacity="1.0"
     inkscape:pageopacity="0.0"
     inkscape:pageshadow="2"
     inkscape:zoom="0.35"
     inkscape:cx="1062.8572"
     inkscape:cy="-246.42857"
     inkscape:document-units="px"
     inkscape:current-layer="layer1"
     showgrid="false"
     fit-margin-top="0"
     fit-margin-left="0"
     fit-margin-right="0"
     fit-margin-bottom="0"
     showborder="false"
     inkscape:window-width="1366"
     inkscape:window-height="705"
     inkscape:window-x="-8"
     inkscape:window-y="-8"
     inkscape:window-maximized="1" />
  <metadata
     id="metadata3442">
    <rdf:RDF>
      <cc:Work
         rdf:about="">
        <dc:format>image/svg+xml</dc:format>
        <dc:type
           rdf:resource="http://purl.org/dc/dcmitype/StillImage" />
        <dc:title></dc:title>
      </cc:Work>
    </rdf:RDF>
  </metadata>
  <g
     inkscape:label="Layer 1"
     inkscape:groupmode="layer"
     id="layer1"
     transform="translate(1127.1429,-226.09109)">
    <rect
       style="opacity:1;fill:none;fill-opacity:1;stroke:#000000;stroke-width:0.13929218;stroke-miterlimit:4;stroke-dasharray:none;stroke-opacity:1"
       id="rect913"
       width="499.86072"
       height="89.860703"
       x="-1127.0732"
       y="226.16074" />
    <path
       inkscape:connector-curvature="0"
       style="font-style:normal;font-variant:normal;font-weight:500;font-stretch:normal;font-size:42.66666794px;line-height:100%;font-family:'Playfair Display';-inkscape-font-specification:'Playfair Display Medium';letter-spacing:0px;word-spacing:0px;fill:#000000;fill-opacity:1;stroke:none;stroke-width:0.99567682px;stroke-linecap:butt;stroke-linejoin:miter;stroke-opacity:1"
       d="m -998.22677,233.56646 c -0.7081,0.19826 -1.4863,0.35352 -2.33603,0.4668 -0.8496,0.085 -1.7411,0.12695 -2.6757,0.12695 -0.8496,0 -1.7285,-0.042 -2.6348,-0.12695 v 0.89258 c 1.1895,0 1.997,0.31051 2.4219,0.93359 0.4248,0.59475 0.6367,1.53022 0.6367,2.80469 v 24.25781 c 0,1.1895 -0.2411,1.9951 -0.7227,2.41992 -0.453,0.42483 -1.2314,0.63867 -2.3359,0.63867 v 0.89258 c 0.5097,-0.0283 1.2753,-0.0576 2.2949,-0.0859 1.0479,-0.0566 2.0801,-0.084 3.0996,-0.084 1.01963,0 2.03903,0.0274 3.05863,0.084 1.0196,0.0283 1.7704,0.0576 2.252,0.0859 v -0.89258 c -1.1046,0 -1.8974,-0.21384 -2.3789,-0.63867 -0.4531,-0.42482 -0.6797,-1.23042 -0.6797,-2.41992 z m 131.47264,0 c -0.70804,0.19826 -1.48629,0.35352 -2.33593,0.4668 -0.84965,0.085 -1.74118,0.12695 -2.67579,0.12695 -0.84964,0 -1.72847,-0.042 -2.63476,-0.12695 v 0.89258 c 1.16118,0 1.95409,0.31051 2.37891,0.93359 0.45314,0.59475 0.67968,1.53022 0.67968,2.80469 v 7.93555 c -0.40956,-0.61345 -0.92296,-1.10313 -1.57031,-1.43555 -1.01957,-0.53812 -2.15425,-0.80664 -3.40039,-0.80664 -1.75593,0 -3.35443,0.42379 -4.79883,1.27343 -1.44439,0.84965 -2.60641,2.13763 -3.48437,3.86524 -0.84965,1.69929 -1.27539,3.83876 -1.27539,6.41602 0,2.60557 0.35446,4.77238 1.0625,6.5 0.70804,1.69928 1.71479,2.97261 3.01757,3.82226 1.33111,0.82132 2.86028,1.23242 4.58789,1.23242 1.81258,0 3.25582,-0.50972 4.33204,-1.52929 0.66891,-0.65131 1.16673,-1.49194 1.52929,-2.48243 v 3.88477 c 0.70804,-0.22657 1.47361,-0.38183 2.29493,-0.4668 0.84964,-0.085 1.75581,-0.1289 2.71874,-0.1289 0.87796,0 1.75484,0.0439 2.63282,0.1289 v -0.89258 c -1.16118,0 -1.96678,-0.29782 -2.41992,-0.89257 -0.42482,-0.62308 -0.63868,-1.57124 -0.63868,-2.84571 z m 10.19141,0.67969 c -0.87797,0 -1.61424,0.28318 -2.20898,0.84961 -0.59476,0.53811 -0.89258,1.21774 -0.89258,2.03906 0,0.82132 0.29782,1.5156 0.89258,2.08203 0.59474,0.53811 1.33101,0.80664 2.20898,0.80664 0.87797,0 1.61423,-0.26853 2.20898,-0.80664 0.59475,-0.56643 0.89258,-1.26071 0.89258,-2.08203 0,-0.82132 -0.29783,-1.50095 -0.89258,-2.03906 -0.59475,-0.56643 -1.33101,-0.84961 -2.20898,-0.84961 z m -246.97658,2.03906 c -1.4719,2.4e-4 -2.8599,0.26878 -4.1621,0.80664 -1.2745,0.53811 -2.3213,1.36031 -3.1426,2.46485 -0.793,1.10453 -1.1895,2.52043 -1.1895,4.24804 0,1.55768 0.3398,2.9023 1.0196,4.03516 0.708,1.13286 1.6416,2.12496 2.8027,2.97461 1.1611,0.84964 2.4071,1.69918 3.7383,2.54883 1.3027,0.793 2.4355,1.57125 3.3984,2.33593 0.9913,0.73636 1.7568,1.54391 2.295,2.42188 0.5664,0.87796 0.8496,1.89741 0.8496,3.05859 0,1.24614 -0.2559,2.26559 -0.7657,3.0586 -0.5098,0.793 -1.1748,1.374 -1.9961,1.74218 -0.8213,0.36818 -1.7128,0.55274 -2.6757,0.55274 -1.8126,0 -3.2705,-0.45504 -4.375,-1.36133 -1.0762,-0.93461 -1.8838,-2.16595 -2.4219,-3.69531 -0.5098,-1.52936 -0.8224,-3.17181 -0.9356,-4.92774 h -0.9765 c 0,2.06747 -0.014,3.7812 -0.043,5.14063 0,1.35943 -0.014,2.46285 -0.043,3.3125 0,0.82132 -0.029,1.54489 -0.086,2.16797 h 0.9785 c 0.085,-0.62308 0.1836,-1.09081 0.2969,-1.40235 0.1416,-0.31154 0.3535,-0.46679 0.6367,-0.46679 0.3399,0 0.8223,0.19724 1.4453,0.59375 0.6514,0.36817 1.4443,0.72264 2.3789,1.0625 0.9346,0.33986 2.1953,0.50976 3.7813,0.50976 1.7276,0 3.3134,-0.29782 4.7578,-0.89258 1.4444,-0.59474 2.5918,-1.48628 3.4414,-2.67578 0.8779,-1.21782 1.3164,-2.74699 1.3164,-4.58789 0,-1.52936 -0.3252,-2.83199 -0.9766,-3.9082 -0.6513,-1.07622 -1.5448,-2.05367 -2.6777,-2.93164 -1.1329,-0.90629 -2.4063,-1.81246 -3.8223,-2.71875 -1.3878,-0.87797 -2.6337,-1.67087 -3.7382,-2.37891 -1.0762,-0.73636 -1.9258,-1.51461 -2.5489,-2.33593 -0.623,-0.84964 -0.9355,-1.89839 -0.9355,-3.14454 0,-1.41607 0.4677,-2.54879 1.4023,-3.39843 0.963,-0.87796 2.167,-1.31641 3.6114,-1.31641 1.5576,0 2.831,0.40915 3.8222,1.23047 1.0196,0.82132 1.7851,1.88471 2.2949,3.1875 0.5382,1.30279 0.8487,2.64741 0.9336,4.03515 h 0.9786 v -4.46093 c 0.028,-1.13286 0.055,-2.03903 0.084,-2.71875 0.056,-0.70804 0.098,-1.31639 0.127,-1.82617 h -0.9766 c -0.085,0.62307 -0.1982,1.09081 -0.3398,1.40234 -0.1133,0.31153 -0.3106,0.4668 -0.5938,0.4668 -0.1982,0 -0.412,-0.042 -0.6386,-0.12696 -0.1983,-0.11328 -0.4668,-0.27049 -0.8067,-0.46875 -0.5947,-0.3965 -1.289,-0.76366 -2.082,-1.10351 -0.7926,-0.33971 -1.9394,-0.50961 -3.4395,-0.50977 z m 142.40623,0.50977 v 0.84961 c 0.9346,0.0283 1.6435,0.14159 2.125,0.33984 0.5098,0.16993 0.8351,0.50975 0.9766,1.01953 0.1699,0.48147 0.2539,1.24508 0.2539,2.29297 v 21.07227 c 0,1.01957 -0.084,1.78318 -0.2539,2.29297 -0.1415,0.50978 -0.454,0.85155 -0.9355,1.02148 -0.4815,0.16997 -1.2031,0.28324 -2.1661,0.33984 v 0.84961 c 0.6515,-0.0566 1.4864,-0.0859 2.5059,-0.0859 1.0479,-0.0283 2.1679,-0.043 3.3574,-0.043 1.0762,0 2.123,0.0146 3.1426,0.043 1.0479,-10e-6 1.9121,0.0293 2.5918,0.0859 v -0.84961 c -0.9346,-0.0566 -1.6416,-0.16991 -2.1231,-0.33984 -0.4814,-0.16993 -0.8085,-0.5117 -0.9785,-1.02148 -0.1699,-0.50979 -0.2539,-1.2734 -0.2539,-2.29297 v -10.19532 h 12.9571 v 10.19532 c 0,1.01957 -0.086,1.78318 -0.2559,2.29297 -0.1416,0.50978 -0.4521,0.85155 -0.9336,1.02148 -0.4815,0.16997 -1.205,0.28324 -2.168,0.33984 v 0.84961 c 0.708,-0.0566 1.5869,-0.0859 2.6348,-0.0859 1.0762,-0.0283 2.1376,-0.043 3.1855,-0.043 1.18953,0 2.29493,0.0146 3.3145,0.043 1.01957,-10e-6 1.8398,0.0293 2.46289,0.0859 v -0.84961 c -0.93461,-0.0566 -1.64153,-0.16991 -2.12305,-0.33984 -0.48144,-0.16993 -0.80663,-0.5117 -0.97656,-1.02148 -0.16993,-0.50979 -0.25586,-1.2734 -0.25586,-2.29297 v -21.07227 c 0,-1.04789 0.0859,-1.8115 0.25586,-2.29297 0.16993,-0.50978 0.49512,-0.8496 0.97656,-1.01953 0.48152,-0.19823 1.18844,-0.31151 2.12305,-0.33984 v -0.84961 c -0.62309,0.0283 -1.44332,0.0557 -2.46289,0.084 -1.01957,0.0283 -2.12497,0.043 -3.3145,0.043 -1.0479,0 -2.1093,-0.0146 -3.1855,-0.043 -1.0479,-0.0283 -1.9268,-0.0557 -2.6348,-0.084 v 0.84961 c 0.9346,0.0283 1.6436,0.14159 2.125,0.33984 0.5098,0.16993 0.835,0.50975 0.9766,1.01953 0.1699,0.48147 0.2559,1.24508 0.2559,2.29297 v 10.02734 h -12.9571 v -10.02734 c 0,-1.04789 0.084,-1.8115 0.2539,-2.29297 0.17,-0.50978 0.4971,-0.8496 0.9785,-1.01953 0.4815,-0.19823 1.1885,-0.31151 2.1231,-0.33984 v -0.84961 c -0.6797,0.0283 -1.5439,0.0557 -2.5918,0.084 -1.0196,0.0283 -2.0664,0.043 -3.1426,0.043 -1.1895,0 -2.3095,-0.0146 -3.3574,-0.043 -1.0195,-0.0283 -1.8544,-0.0557 -2.5059,-0.084 z m 156.29496,7.13672 c -1.04789,0 -2.05465,0.36911 -3.01758,1.10547 -0.58273,0.44561 -1.04658,0.94345 -1.42187,1.48242 -0.58951,-0.62825 -1.30282,-1.11218 -2.14649,-1.44141 -1.16118,-0.48147 -2.49115,-0.7207 -3.99219,-0.7207 -1.4444,0 -2.76167,0.23923 -3.95117,0.7207 -1.1895,0.45314 -2.12497,1.18941 -2.80468,2.20899 -0.67972,0.99125 -1.01954,2.26653 -1.01954,3.82421 0,1.55768 0.33982,2.83297 1.01954,3.82422 0.67971,0.99126 1.61518,1.72753 2.80468,2.20899 0.77386,0.2948 1.60655,0.48292 2.48828,0.58593 -1.32055,0.67379 -2.308,1.35667 -2.95507,2.04688 -0.84965,0.90629 -1.27539,1.8691 -1.27539,2.88867 -10e-6,0.90629 0.25583,1.61521 0.76562,2.125 0.53811,0.48147 1.23044,0.80664 2.08008,0.97656 0.84965,0.16993 1.77046,0.25586 2.76172,0.25586 h 2.97461 c 1.92586,0 3.21384,0.29587 3.86523,0.89063 0.6514,0.62306 0.97656,1.38863 0.97656,2.29492 0,1.16118 -0.36715,2.10935 -1.10351,2.8457 -0.70804,0.73636 -1.64351,1.26073 -2.80469,1.57227 -1.13286,0.33985 -2.33686,0.50976 -3.61133,0.50976 -1.89754,0 -3.42671,-0.33981 -4.58789,-1.01953 -1.16118,-0.67971 -1.74023,-1.64252 -1.74023,-2.88867 0,-0.67971 0.15526,-1.30271 0.46679,-1.86914 0.33986,-0.56643 0.8076,-0.97753 1.40235,-1.23242 l -0.29883,-0.67969 c -1.44439,0.36818 -2.56246,0.9072 -3.35547,1.61524 -0.793,0.70803 -1.18945,1.52828 -1.18945,2.46289 0,0.99125 0.39645,1.7988 1.18945,2.42187 0.82133,0.65139 1.8974,1.13182 3.22852,1.44336 1.35942,0.31153 2.83196,0.46875 4.41797,0.46875 2.60557,0 4.77239,-0.36911 6.5,-1.10547 1.72761,-0.70804 3.01558,-1.6562 3.86523,-2.8457 0.87797,-1.16118 1.31836,-2.40718 1.31836,-3.73828 0,-1.24615 -0.32712,-2.2529 -0.97852,-3.01758 -0.65139,-0.76468 -1.51363,-1.31639 -2.58984,-1.65625 -1.07622,-0.36817 -2.28022,-0.55274 -3.61133,-0.55274 h -5.05664 c -1.30279,1e-5 -1.95312,-0.45308 -1.95312,-1.35937 0,-0.67971 0.31052,-1.24608 0.93359,-1.69922 0.49454,-0.36553 1.054,-0.71916 1.64648,-1.06836 0.0614,8.3e-4 0.11979,0.008 0.18164,0.008 1.50104,0 2.83101,-0.22654 3.99219,-0.67968 1.16118,-0.48146 2.082,-1.21773 2.76172,-2.20899 0.67971,-0.99125 1.01953,-2.26654 1.01953,-3.82422 0,-1.55768 -0.33982,-2.83296 -1.01953,-3.82421 -0.0139,-0.0209 -0.0308,-0.038 -0.0449,-0.0586 0.30914,-0.48881 0.63151,-0.92824 0.98047,-1.25781 0.42736,-0.40487 1.04906,-0.79101 1.85156,-1.16016 -0.33973,0.84243 -0.49922,1.55966 -0.45117,2.13672 0.0566,0.65139 0.27048,1.13377 0.63867,1.44531 0.39649,0.31154 0.82029,0.4668 1.27344,0.4668 0.50978,0 0.99216,-0.18455 1.44531,-0.55273 0.48147,-0.36818 0.7207,-0.99118 0.7207,-1.86914 0,-0.79301 -0.23923,-1.40136 -0.7207,-1.82618 -0.45315,-0.45314 -1.07614,-0.67968 -1.86914,-0.67968 z m -275.60359,0.42578 c -1.3028,0 -2.4921,0.15525 -3.5683,0.46679 -1.0479,0.31154 -1.9121,0.69334 -2.5918,1.14649 -0.6231,0.42482 -1.1328,0.87791 -1.5293,1.35937 -0.3682,0.48147 -0.5527,1.10446 -0.5527,1.86914 0,0.73636 0.2138,1.38866 0.6386,1.95508 0.4248,0.53812 1.0752,0.80664 1.9532,0.80664 0.793,0 1.4452,-0.22654 1.955,-0.67968 0.5381,-0.45315 0.8067,-1.07614 0.8067,-1.86914 0,-0.73637 -0.2119,-1.34472 -0.6367,-1.82618 -0.3965,-0.50978 -0.9063,-0.84959 -1.5293,-1.01953 0.4248,-0.5381 1.0038,-0.89256 1.7402,-1.0625 0.7363,-0.19824 1.4306,-0.29687 2.082,-0.29687 0.7647,0 1.417,0.12596 1.9551,0.38086 0.5664,0.25489 1.0048,0.69529 1.3164,1.31836 0.3399,0.59474 0.5098,1.40034 0.5098,2.41992 v 2.88867 c 0,0.65139 -0.2978,1.17576 -0.8926,1.57227 -0.5665,0.3965 -1.3027,0.75096 -2.209,1.0625 -0.8779,0.28322 -1.8261,0.59568 -2.8457,0.93554 -0.9913,0.31154 -1.9395,0.708 -2.8457,1.18946 -0.878,0.48147 -1.6016,1.11715 -2.168,1.91015 -0.5665,0.76468 -0.8496,1.77144 -0.8496,3.01758 0,1.01957 0.2138,1.92574 0.6387,2.71875 0.4248,0.79299 1.0605,1.41599 1.9102,1.86914 0.8496,0.45315 1.869,0.67969 3.0585,0.67969 1.3594,0 2.5508,-0.31248 3.5704,-0.93555 1.0196,-0.62307 1.8964,-1.52925 2.6328,-2.71875 0,0.793 0.1279,1.45993 0.3828,1.99805 0.2832,0.5381 0.707,0.94725 1.2734,1.23047 0.5664,0.28321 1.3027,0.42578 2.209,0.42578 0.9346,0 1.7002,-0.14257 2.2949,-0.42578 0.6232,-0.28322 1.2315,-0.66503 1.8262,-1.14649 l -0.4238,-0.72265 c -0.3682,0.28321 -0.6953,0.49705 -0.9785,0.63867 -0.255,0.1416 -0.5235,0.21093 -0.8067,0.21094 -0.4248,0 -0.7353,-0.14062 -0.9336,-0.42383 -0.1699,-0.31154 -0.2558,-0.82126 -0.2558,-1.5293 v -11.72656 c 0,-1.38776 -0.1133,-2.56247 -0.3399,-3.52539 -0.2265,-0.99126 -0.6943,-1.81151 -1.4023,-2.46289 -0.5948,-0.59476 -1.3438,-1.0205 -2.25,-1.27539 -0.878,-0.28322 -1.9268,-0.42383 -3.1446,-0.42383 z m 26.334,0 c -1.3594,0 -2.664,0.36715 -3.9101,1.10351 -1.2179,0.73636 -2.1934,1.95501 -2.9297,3.6543 v -4.63086 c -0.7081,0.19825 -1.4882,0.35351 -2.3379,0.4668 -0.8213,0.085 -1.7129,0.12695 -2.6758,0.12695 -0.8497,0 -1.7285,-0.042 -2.6348,-0.12695 v 0.89258 c 1.1896,0 1.9971,0.31052 2.4219,0.93359 0.4248,0.59475 0.6387,1.53022 0.6387,2.80469 v 13.33984 c 0,1.1895 -0.2412,1.9951 -0.7227,2.41992 -0.4531,0.42483 -1.2333,0.63867 -2.3379,0.63867 v 0.89258 c 0.5098,-0.0283 1.2901,-0.0576 2.3379,-0.0859 1.0479,-0.0566 2.0527,-0.084 3.0157,-0.084 0.9628,0 1.8983,0.0274 2.8046,0.084 0.9063,0.0283 1.586,0.0576 2.0391,0.0859 v -0.89258 c -0.9063,0 -1.5586,-0.21384 -1.9551,-0.63867 -0.3964,-0.42482 -0.5937,-1.23042 -0.5937,-2.41992 v -10.23828 c 0,-1.27447 0.2266,-2.42183 0.6797,-3.44141 0.4815,-1.04789 1.1044,-1.87009 1.8691,-2.46484 0.793,-0.59475 1.6845,-0.89063 2.6758,-0.89063 0.8779,0 1.5156,0.2119 1.9121,0.63672 0.4248,0.39651 0.6934,0.93357 0.8066,1.61328 0.1134,0.6514 0.17,1.38767 0.17,2.20899 v 12.57617 c 0,1.1895 -0.1973,1.9951 -0.5938,2.41992 -0.3682,0.42483 -1.0205,0.63867 -1.9551,0.63867 v 0.89258 c 0.4815,-0.0283 1.1757,-0.0576 2.0821,-0.0859 0.9346,-0.0566 1.8828,-0.084 2.8457,-0.084 0.963,0 1.9404,0.0274 2.9316,0.084 1.0196,0.0283 1.7705,0.0576 2.252,0.0859 v -0.89258 c -1.0763,0 -1.8419,-0.21384 -2.295,-0.63867 -0.4532,-0.42482 -0.6796,-1.23042 -0.6796,-2.41992 v -10.19726 c 0,-1.27447 0.2264,-2.41988 0.6796,-3.43946 0.4815,-1.0479 1.1045,-1.8701 1.8692,-2.46484 0.793,-0.62308 1.6865,-0.9336 2.6777,-0.9336 0.9063,0 1.5713,0.2119 1.9961,0.63672 0.4248,0.39651 0.6933,0.93357 0.8067,1.61328 0.1132,0.6514 0.1699,1.38767 0.1699,2.20899 v 12.57617 c 0,1.1895 -0.1972,1.9951 -0.5938,2.41992 -0.3681,0.42483 -1.0205,0.63867 -1.9551,0.63867 v 0.89258 c 0.4815,-0.0283 1.1758,-0.0576 2.0821,-0.0859 0.9346,-0.0566 1.8827,-0.084 2.8457,-0.084 0.9912,0 1.9961,0.0274 3.0156,0.084 1.0196,0.0283 1.7705,0.0576 2.252,0.0859 v -0.89258 c -1.1046,0 -1.8975,-0.21384 -2.3789,-0.63867 -0.4532,-0.42482 -0.6797,-1.23042 -0.6797,-2.41992 v -11.38672 c 0,-1.35942 -0.099,-2.47749 -0.2969,-3.35547 -0.1983,-0.90628 -0.5527,-1.6279 -1.0625,-2.16601 -0.4531,-0.50979 -1.0468,-0.90625 -1.7832,-1.18946 -0.7363,-0.31154 -1.6426,-0.46679 -2.7188,-0.46679 -1.3878,0 -2.7343,0.33981 -4.0371,1.01953 -1.2581,0.67101 -2.266,1.92561 -3.0273,3.75586 -0.044,-0.34051 -0.093,-0.66461 -0.1582,-0.95313 -0.1982,-0.90628 -0.5527,-1.6279 -1.0625,-2.16601 -0.4532,-0.50979 -1.0469,-0.90625 -1.7832,-1.18946 -0.7364,-0.31154 -1.6426,-0.46679 -2.7188,-0.46679 z m 37.6602,0 c -1.8693,0 -3.4824,0.59369 -4.8418,1.7832 -0.8208,0.716 -1.4575,1.6171 -1.9121,2.69922 v -4.35547 c -0.7081,0.19825 -1.4863,0.35351 -2.336,0.4668 -0.8496,0.085 -1.7431,0.12695 -2.6777,0.12695 -0.8497,0 -1.7265,-0.042 -2.6328,-0.12695 v 0.89258 c 1.1895,0 1.9971,0.31052 2.4219,0.93359 0.4248,0.59475 0.6367,1.53022 0.6367,2.80469 v 21.36914 c 0,1.04789 -0.2119,1.75487 -0.6367,2.12304 -0.3965,0.39651 -1.0908,0.59571 -2.0821,0.59571 v 0.89062 c 0.4815,-0.0284 1.1758,-0.0703 2.0821,-0.12695 0.9063,-0.0283 1.8251,-0.043 2.7597,-0.043 1.3311,0 2.579,0.0146 3.7403,0.043 1.1611,0.0566 2.0673,0.0986 2.7187,0.12695 v -0.89062 c -1.2461,0 -2.2236,-0.21385 -2.9316,-0.63867 -0.708,-0.42483 -1.0625,-1.25972 -1.0625,-2.50586 v -5.07032 c 0.3767,0.45672 0.849,0.86289 1.4433,1.20508 0.963,0.5381 2.0684,0.80664 3.3145,0.80664 1.6711,0 3.1162,-0.32517 4.334,-0.97656 1.2178,-0.67971 2.2226,-1.58589 3.0156,-2.71875 0.8213,-1.16118 1.4297,-2.49311 1.8262,-3.99414 0.3965,-1.52936 0.5957,-3.1425 0.5957,-4.8418 0,-2.32236 -0.3398,-4.26263 -1.0196,-5.82031 -0.6796,-1.55769 -1.6151,-2.73435 -2.8046,-3.52734 -1.1612,-0.82134 -2.4785,-1.23047 -3.9512,-1.23047 z m 33.47853,0 c -1.9542,0 -3.6826,0.48042 -5.1836,1.44336 -1.4727,0.93461 -2.6201,2.29387 -3.4414,4.07812 -0.8213,1.78426 -1.2305,3.93643 -1.2305,6.45703 0,2.29405 0.3965,4.27631 1.1895,5.94727 0.7931,1.67097 1.9258,2.96089 3.3984,3.86719 1.4728,0.87796 3.1991,1.3164 5.1817,1.3164 1.4726,0 2.7626,-0.28318 3.8671,-0.84961 1.1046,-0.59475 2.0107,-1.36031 2.7188,-2.29492 0.7081,-0.93461 1.2324,-1.88277 1.5723,-2.8457 l -0.8516,-0.33985 c -0.5098,1.01957 -1.0888,1.82713 -1.7402,2.42188 -0.6514,0.56643 -1.3457,0.97753 -2.0821,1.23242 -0.708,0.22658 -1.4443,0.33984 -2.2089,0.33984 -0.9914,1e-5 -1.9688,-0.32711 -2.9317,-0.97851 -0.963,-0.67971 -1.7412,-1.68452 -2.3359,-3.01563 -0.5948,-1.33111 -0.8926,-2.97354 -0.8926,-4.92773 0,-0.45314 0.014,-0.90623 0.043,-1.35937 0.023,-0.4036 0.046,-0.75962 0.07,-1.10352 h 12.8437 c 0,-3.25697 -0.707,-5.63764 -2.123,-7.13867 -1.4161,-1.50105 -3.371,-2.25 -5.8633,-2.25 z m 63.88867,0 c -1.95336,3.3e-4 -3.68107,0.48075 -5.18164,1.44336 -1.47267,0.93461 -2.62004,2.29387 -3.44141,4.07812 -0.82129,1.78426 -1.23242,3.93643 -1.23242,6.45703 0,2.29405 0.39644,4.27631 1.18946,5.94727 0.79296,1.67097 1.9257,2.96089 3.39843,3.86719 1.47274,0.87796 3.20114,1.3164 5.1836,1.3164 1.47274,0 2.76069,-0.28318 3.86523,-0.84961 1.10454,-0.59475 2.01072,-1.36031 2.71875,-2.29492 0.70804,-0.93461 1.23241,-1.88277 1.57227,-2.8457 l -0.84961,-0.33985 c -0.50979,1.01957 -1.09083,1.82713 -1.74219,2.42188 -0.65144,0.56643 -1.34374,0.97753 -2.08008,1.23242 -0.70806,0.22658 -1.4443,0.33984 -2.20898,0.33984 -0.99124,1e-5 -1.96869,-0.32711 -2.93164,-0.97851 -0.96288,-0.67971 -1.74119,-1.68452 -2.33594,-3.01563 -0.59475,-1.33111 -0.89258,-2.97354 -0.89258,-4.92773 0,-0.45314 0.0144,-0.90623 0.043,-1.35937 0.0234,-0.4036 0.0465,-0.75962 0.0703,-1.10352 h 12.84375 c 0,-3.25697 -0.70895,-5.63764 -2.125,-7.13867 -1.41574,-1.50065 -3.37003,-2.2496 -5.86133,-2.25 z m 20.59961,0 c -1.30279,0 -2.49409,0.15525 -3.57031,0.46679 -1.04789,0.31154 -1.91012,0.69334 -2.58985,1.14649 -0.62307,0.42482 -1.13279,0.87791 -1.52929,1.35937 -0.36818,0.48147 -0.55274,1.10446 -0.55274,1.86914 0,0.73636 0.2119,1.38866 0.63672,1.95508 0.42482,0.53812 1.07711,0.80664 1.95508,0.80664 0.793,0 1.44334,-0.22654 1.95313,-0.67968 0.5381,-0.45315 0.80664,-1.07614 0.80664,-1.86914 0,-0.73637 -0.2119,-1.34472 -0.63672,-1.82618 -0.3965,-0.50978 -0.90623,-0.84959 -1.5293,-1.01953 0.42482,-0.5381 1.00583,-0.89256 1.74219,-1.0625 0.73636,-0.19824 1.43064,-0.29687 2.08203,-0.29687 0.76468,0 1.41502,0.12596 1.95312,0.38086 0.56643,0.25489 1.00683,0.69529 1.31836,1.31836 0.33986,0.59474 0.50977,1.40034 0.50977,2.41992 v 2.88867 c 0,0.65139 -0.29783,1.17576 -0.89258,1.57227 -0.56643,0.3965 -1.3027,0.75096 -2.20898,1.0625 -0.87798,0.28322 -1.82809,0.59568 -2.84766,0.93554 -0.99125,0.31154 -1.93941,0.708 -2.8457,1.18946 -0.87796,0.48147 -1.59958,1.11715 -2.16602,1.91015 -0.56642,0.76468 -0.84961,1.77144 -0.84961,3.01758 0,1.01957 0.2119,1.92574 0.63672,2.71875 0.42483,0.79299 1.06247,1.41599 1.91211,1.86914 0.84965,0.45315 1.86909,0.67969 3.05859,0.67969 1.35944,0 2.54879,-0.31248 3.56836,-0.93555 1.01958,-0.62307 1.89842,-1.52925 2.63477,-2.71875 0,0.793 0.12597,1.45993 0.38086,1.99805 0.28322,0.5381 0.70896,0.94725 1.27539,1.23047 0.56643,0.28321 1.3027,0.42578 2.20898,0.42578 0.93461,0 1.69823,-0.14257 2.29297,-0.42578 0.62308,-0.28322 1.23338,-0.66503 1.82813,-1.14649 l -0.42578,-0.72265 c -0.36818,0.28321 -0.69335,0.49705 -0.97657,0.63867 -0.25489,0.1416 -0.52342,0.21093 -0.80664,0.21094 -0.42482,0 -0.73729,-0.14062 -0.93554,-0.42383 -0.16993,-0.31154 -0.25391,-0.82126 -0.25391,-1.5293 v -11.72656 c 0,-1.38776 -0.11328,-2.56247 -0.33984,-3.52539 -0.22658,-0.99126 -0.69431,-1.81151 -1.40235,-2.46289 -0.59474,-0.59476 -1.34566,-1.0205 -2.25195,-1.27539 -0.87797,-0.28322 -1.92475,-0.42383 -3.14258,-0.42383 z m 64.38281,0 c -1.44439,0 -2.8183,0.3525 -4.12109,1.06054 -1.27447,0.70804 -2.27927,1.94134 -3.01562,3.69727 v -4.63086 c -0.70805,0.19825 -1.48825,0.35351 -2.3379,0.4668 -0.82132,0.085 -1.71284,0.12695 -2.67578,0.12695 -0.84964,0 -1.72848,-0.042 -2.63476,-0.12695 v 0.89258 c 1.1895,0 1.99705,0.31052 2.42187,0.93359 0.42482,0.59475 0.63672,1.53022 0.63672,2.80469 v 13.33984 c 0,1.1895 -0.23924,1.9951 -0.7207,2.41992 -0.45314,0.42483 -1.23335,0.63867 -2.33789,0.63867 v 0.89258 c 0.50978,-0.0283 1.28999,-0.0576 2.33789,-0.0859 1.04789,-0.0566 2.05269,-0.084 3.01562,-0.084 0.99125,0 1.93942,0.0274 2.84571,0.084 0.9346,0.0283 1.62888,0.0576 2.08203,0.0859 v -0.89258 c -0.93461,0 -1.61424,-0.21384 -2.03907,-0.63867 -0.3965,-0.42482 -0.59375,-1.23042 -0.59374,-2.41992 v -10.23828 c 0,-1.27447 0.22654,-2.42183 0.67968,-3.44141 0.48147,-1.04789 1.11716,-1.87009 1.91016,-2.46484 0.82133,-0.59475 1.7568,-0.89063 2.80469,-0.89063 0.90629,0 1.58592,0.2119 2.03906,0.63672 0.45315,0.39651 0.75097,0.93357 0.89258,1.61328 0.1416,0.6514 0.21093,1.38767 0.21093,2.20899 v 12.57617 c 0,1.1895 -0.19725,1.9951 -0.59375,2.41992 -0.3965,0.42483 -1.07612,0.63867 -2.03906,0.63867 v 0.89258 c 0.48147,-0.0283 1.18844,-0.0576 2.12305,-0.0859 0.96293,-0.0566 1.9277,-0.084 2.89062,-0.084 0.99126,0 1.99606,0.0274 3.01563,0.084 1.01957,0.0283 1.77049,0.0576 2.25195,0.0859 v -0.89258 c -1.10453,0 -1.89743,-0.21384 -2.3789,-0.63867 -0.45314,-0.42482 -0.67969,-1.23042 -0.67969,-2.41992 v -11.38672 c 0,-1.44439 -0.11327,-2.5898 -0.33985,-3.43945 -0.19824,-0.84964 -0.55271,-1.54392 -1.0625,-2.08203 -0.48147,-0.50979 -1.08981,-0.90625 -1.82617,-1.18946 -0.70804,-0.31154 -1.62886,-0.46679 -2.76172,-0.46679 z m -19.91601,0.12695 c -0.70804,0.19825 -1.48629,0.35351 -2.33594,0.4668 -0.82133,0.085 -1.71286,0.12695 -2.67578,0.12695 -0.84965,0 -1.72847,-0.042 -2.63477,-0.12695 v 0.89258 c 1.1895,0 1.99705,0.31052 2.42188,0.93359 0.42482,0.59475 0.63672,1.53022 0.63672,2.80469 v 13.33984 c 0,1.1895 -0.2412,1.9951 -0.72266,2.41992 -0.45315,0.42483 -1.2314,0.63867 -2.33594,0.63867 v 0.89258 c 0.50979,-0.0283 1.28804,-0.0576 2.33594,-0.0859 1.04789,-0.0566 2.06734,-0.084 3.05859,-0.084 1.0479,0 2.06931,0.0274 3.06055,0.084 1.01958,0.0283 1.76854,0.0576 2.25,0.0859 v -0.89258 c -1.10454,0 -1.89744,-0.21384 -2.3789,-0.63867 -0.45315,-0.42482 -0.67969,-1.23042 -0.67969,-2.41992 z m 38.59765,0.63672 c 0.99126,0 1.75487,0.43843 2.29297,1.31641 0.53811,0.84964 0.80664,2.4081 0.80664,4.67382 0,2.26572 -0.26853,3.82419 -0.80664,4.67383 -0.5381,0.84964 -1.30171,1.27344 -2.29297,1.27344 -0.93461,0 -1.68552,-0.4238 -2.25195,-1.27344 -0.56643,-0.84964 -0.84961,-2.40811 -0.84961,-4.67383 0,-2.26572 0.28318,-3.82418 0.84961,-4.67382 0.56643,-0.87798 1.31734,-1.31641 2.25195,-1.31641 z m -167.72263,0.0859 c 0.8779,0 1.5868,0.35252 2.125,1.06054 0.538,0.70804 0.9345,1.65815 1.1894,2.84766 0.2553,1.16117 0.3685,2.43451 0.3399,3.82227 h -8.4141 c 0.22,-2.62346 0.7388,-4.56453 1.5742,-5.77735 0.9064,-1.30278 1.9678,-1.95312 3.1856,-1.95312 z m 63.8906,0 c 0.87799,0 1.58498,0.35252 2.12305,1.06054 0.53813,0.70804 0.93456,1.65815 1.18945,2.84766 0.25509,1.16117 0.36838,2.43451 0.33985,3.82227 h -8.41211 c 0.21991,-2.62344 0.73675,-4.56453 1.57226,-5.77735 0.90627,-1.30278 1.96966,-1.95312 3.1875,-1.95312 z m 43.70118,0.21093 c 0.96293,0 1.82711,0.24119 2.59179,0.72266 0.6906,0.40925 1.22299,1.06236 1.61328,1.93359 v 13.32032 c -0.24281,1.35677 -0.72811,2.44465 -1.48633,3.22656 -0.87796,0.93461 -1.87006,1.40234 -2.9746,1.40234 -1.10454,0 -2.0527,-0.35446 -2.84571,-1.0625 -0.76468,-0.70803 -1.34569,-1.79877 -1.74219,-3.27148 -0.3965,-1.50105 -0.59374,-3.42667 -0.59374,-5.77734 -0.0283,-3.56851 0.46675,-6.20306 1.48632,-7.90235 1.01958,-1.72761 2.33685,-2.5918 3.95118,-2.5918 z m -142.51371,0.42579 c 0.9629,0 1.7832,0.33981 2.4629,1.01953 0.6797,0.65139 1.1895,1.69818 1.5293,3.14257 0.3399,1.41608 0.5098,3.28702 0.5098,5.60938 0,2.06747 -0.1699,3.92181 -0.5098,5.56445 -0.3398,1.61433 -0.9335,2.90231 -1.7832,3.86524 -0.8213,0.9346 -1.9687,1.40234 -3.4414,1.40234 -0.9912,0 -1.8261,-0.22655 -2.5059,-0.67969 -0.5831,-0.40565 -1.0462,-0.91938 -1.4023,-1.52929 v -13.52731 c 0.3124,-1.42084 0.8589,-2.54056 1.6562,-3.33789 1.0479,-1.01957 2.2099,-1.52929 3.4844,-1.52929 z m -59.832,8.11328 v 8.45508 c -0.5948,0.90628 -1.2452,1.58591 -1.9532,2.03906 -0.6797,0.45314 -1.4178,0.67969 -2.2109,0.67968 -0.9629,10e-6 -1.7265,-0.31246 -2.293,-0.93554 -0.5664,-0.65139 -0.8496,-1.52827 -0.8496,-2.63281 0,-1.0479 0.1973,-1.91208 0.5938,-2.5918 0.3965,-0.67971 0.8935,-1.23143 1.4883,-1.65625 0.623,-0.45315 1.2734,-0.84959 1.9531,-1.18945 0.6797,-0.33986 1.3173,-0.66699 1.9121,-0.97852 0.5947,-0.33985 1.0478,-0.73631 1.3594,-1.18945 z m 181.96094,0 v 8.45508 c -0.59475,0.90628 -1.24705,1.58591 -1.95508,2.03906 -0.67972,0.45314 -1.41598,0.67969 -2.20898,0.67968 -0.96294,10e-6 -1.7285,-0.31246 -2.29493,-0.93554 -0.56642,-0.65139 -0.8496,-1.52827 -0.8496,-2.63281 0,-1.0479 0.19921,-1.91208 0.5957,-2.5918 0.3965,-0.67971 0.89157,-1.23143 1.48633,-1.65625 0.62307,-0.45315 1.27536,-0.84959 1.95507,-1.18945 0.67972,-0.33986 1.31737,-0.66699 1.91211,-0.97852 0.59476,-0.33985 1.04785,-0.73631 1.35938,-1.18945 z m -87.68361,34.32812 c -0.6969,0 -1.3024,0.17765 -1.8144,0.5332 -0.512,0.35556 -0.9109,0.86867 -1.1953,1.53711 -0.2703,0.65422 -0.4043,1.43548 -0.4043,2.34571 v 0.23437 h -1.5157 v 1.47266 h 1.5157 v 9.66406 h 1.8769 v -9.66406 h 2.9648 v -1.47266 h -2.9648 v -0.29883 c 0,-0.88178 0.1632,-1.55605 0.4902,-2.02539 0.3414,-0.48355 0.8181,-0.72656 1.4297,-0.72656 0.2844,0 0.5691,0.0436 0.8535,0.12891 0.2987,0.0853 0.547,0.19957 0.7461,0.34179 l 0.4707,-1.38671 c -0.3413,-0.21334 -0.7256,-0.37842 -1.1523,-0.49219 -0.4267,-0.128 -0.8599,-0.19141 -1.3008,-0.19141 z m 215.33205,0 c -0.69689,0 -1.3005,0.17765 -1.8125,0.5332 -0.512,0.35556 -0.91087,0.86867 -1.19532,1.53711 -0.27022,0.65422 -0.40429,1.43548 -0.40429,2.34571 v 0.23437 h -1.51563 v 1.47266 h 1.51563 v 9.66406 h 1.87695 v -9.66406 h 2.96484 v -1.47266 h -2.96484 v -0.29883 c 0,-0.88178 0.16312,-1.55605 0.49023,-2.02539 0.34134,-0.48355 0.81814,-0.72656 1.42969,-0.72656 0.28445,0 0.56908,0.0436 0.85352,0.12891 0.29866,0.0853 0.54698,0.19957 0.74609,0.34179 l 0.46875,-1.38671 c -0.34133,-0.21334 -0.72568,-0.37842 -1.15234,-0.49219 -0.42667,-0.128 -0.8599,-0.19141 -1.30078,-0.19141 z m -286.84178,0.21289 v 13.37696 c 0,0.73955 0.2047,1.31606 0.6171,1.72851 0.4267,0.41245 1.0032,0.61719 1.7286,0.61719 0.327,0 0.7041,-0.0416 1.1308,-0.12695 0.4267,-0.0853 0.7965,-0.19232 1.1094,-0.32032 l -0.2988,-1.53515 c -0.1849,0.0711 -0.4134,0.14177 -0.6836,0.21289 -0.2702,0.0569 -0.5529,0.084 -0.8516,0.084 -0.2418,0 -0.4485,-0.0707 -0.6191,-0.21289 -0.1707,-0.14222 -0.2559,-0.5193 -0.2559,-1.13086 v -12.69336 z m 107.53903,0 v 15.57422 h 1.8789 v -6.7207 c 0.1707,-0.56889 0.4408,-1.06552 0.8106,-1.49219 0.3697,-0.44089 0.7957,-0.79087 1.2793,-1.04687 0.4977,-0.256 0.989,-0.38282 1.4726,-0.38282 0.7538,0 1.3283,0.28463 1.7266,0.85352 0.4124,0.56889 0.6191,1.42081 0.6191,2.55859 v 6.23047 h 1.877 v -6.65625 c 0,-0.66844 -0.063,-1.27932 -0.1914,-1.83398 -0.1138,-0.5689 -0.306,-1.06748 -0.5762,-1.49414 -0.2703,-0.42667 -0.6328,-0.75292 -1.0879,-0.98047 -0.4409,-0.24178 -0.9957,-0.36328 -1.6641,-0.36328 -0.8818,0 -1.7066,0.23379 -2.4746,0.70312 -0.7538,0.45511 -1.3501,1.08246 -1.791,1.87891 v -6.82813 z m 127.00197,0 v 13.37696 c 0,0.73955 0.2067,1.31606 0.61914,1.72851 0.42666,0.41245 1.00123,0.61719 1.72656,0.61719 0.32711,0 0.70419,-0.0416 1.13086,-0.12695 0.42666,-0.0853 0.79649,-0.19232 1.10937,-0.32032 l -0.29882,-1.53515 c -0.1849,0.0711 -0.41143,0.14177 -0.68165,0.21289 -0.27022,0.0569 -0.55484,0.084 -0.85351,0.084 -0.24178,0 -0.44848,-0.0707 -0.61914,-0.21289 -0.17067,-0.14222 -0.25586,-0.5193 -0.25586,-1.13086 v -12.69336 z m 6.04101,0 v 2.34766 h 1.87695 v -2.34766 z m 109.75,0 v 15.57422 h 1.87695 v -6.7207 c 0.17067,-0.56889 0.44078,-1.06552 0.81055,-1.49219 0.36978,-0.44089 0.79574,-0.79087 1.2793,-1.04687 0.49778,-0.256 0.9891,-0.38282 1.47265,-0.38282 0.75378,0 1.3303,0.28463 1.72852,0.85352 0.41245,0.56889 0.61719,1.42081 0.61719,2.55859 v 6.23047 h 1.8789 v -6.65625 c 0,-0.66844 -0.0654,-1.27932 -0.19336,-1.83398 -0.11377,-0.5689 -0.30594,-1.06748 -0.57617,-1.49414 -0.27022,-0.42667 -0.63277,-0.75292 -1.08789,-0.98047 -0.44088,-0.24178 -0.99561,-0.36328 -1.66406,-0.36328 -0.88177,0 -1.70661,0.23379 -2.47461,0.70312 -0.75378,0.45511 -1.35013,1.08246 -1.79102,1.87891 v -6.82813 z m -403.08991,0.32031 c -1.0382,10e-6 -1.968,0.17039 -2.7929,0.51172 -0.8249,0.34134 -1.4721,0.84718 -1.9414,1.51563 -0.4694,0.66844 -0.7051,1.48601 -0.7051,2.45312 0,0.79645 0.1704,1.44364 0.5117,1.94141 0.3555,0.49778 0.8831,0.90196 1.5801,1.21484 0.6968,0.29867 1.5561,0.57604 2.5801,0.83204 0.9386,0.22755 1.7364,0.45604 2.3906,0.68359 0.6543,0.22755 1.1436,0.51218 1.4707,0.85351 0.3413,0.34134 0.5117,0.79635 0.5117,1.36524 0,0.75377 -0.2972,1.33029 -0.8945,1.72851 -0.5974,0.384 -1.4367,0.57618 -2.5176,0.57618 -0.5689,0 -1.1236,-0.0581 -1.6641,-0.17188 -0.5404,-0.128 -1.0463,-0.29112 -1.5156,-0.49023 -0.4551,-0.19911 -0.8665,-0.41307 -1.2363,-0.64063 -0.3556,-0.24177 -0.6474,-0.48283 -0.875,-0.72461 l -0.918,1.6211 c 0.5689,0.46933 1.1817,0.86093 1.8359,1.17382 0.6542,0.31289 1.3431,0.55395 2.0684,0.72461 0.7395,0.15645 1.4937,0.23438 2.2617,0.23438 0.7823,0 1.5074,-0.0779 2.1758,-0.23438 0.6685,-0.17066 1.2522,-0.42624 1.75,-0.76757 0.4977,-0.35556 0.8821,-0.79604 1.1524,-1.32227 0.2844,-0.54044 0.4257,-1.1731 0.4257,-1.89844 0,-0.91022 -0.2067,-1.63534 -0.6191,-2.17578 -0.4125,-0.55467 -1.0015,-0.9971 -1.7695,-1.32422 -0.768,-0.32711 -1.678,-0.60448 -2.7305,-0.83203 -0.9102,-0.21333 -1.6644,-0.41807 -2.2617,-0.61719 -0.5832,-0.1991 -1.0184,-0.45663 -1.3028,-0.76953 -0.2844,-0.31288 -0.4257,-0.73885 -0.4257,-1.27929 0,-0.768 0.2773,-1.37162 0.832,-1.8125 0.5547,-0.44089 1.4158,-0.66211 2.582,-0.66211 0.4552,0 0.8883,0.0489 1.3008,0.14843 0.4267,0.0853 0.8183,0.20684 1.1738,0.36329 0.3556,0.14221 0.6745,0.30534 0.959,0.49023 0.2845,0.18489 0.5129,0.37706 0.6836,0.57617 l 0.8945,-1.55664 c -0.4266,-0.35555 -0.8942,-0.66197 -1.4062,-0.91797 -0.512,-0.256 -1.0667,-0.45543 -1.6641,-0.59765 -0.5831,-0.14222 -1.2177,-0.2129 -1.9004,-0.2129 z m 197.45124,0.0215 c -1.13778,0 -2.15478,0.22122 -3.05078,0.66211 -0.896,0.42667 -1.65743,1.00849 -2.28321,1.74805 -0.61156,0.72533 -1.08109,1.53759 -1.4082,2.43359 -0.31289,0.88178 -0.46875,1.78454 -0.46875,2.70898 0,0.9529 0.17039,1.89727 0.51172,2.83594 0.35556,0.92444 0.84688,1.7638 1.47266,2.51758 0.64,0.73955 1.3922,1.33785 2.25976,1.79297 0.86756,0.44088 1.82116,0.66015 2.85938,0.66015 0.78222,0 1.5727,-0.13407 2.36914,-0.40429 0.81066,-0.27022 1.54304,-0.66909 2.19726,-1.19531 0.65422,-0.52622 1.13634,-1.16615 1.44922,-1.91993 l -1.59961,-0.875 c -0.28444,0.62578 -0.66878,1.13889 -1.15234,1.53711 -0.48355,0.384 -1.00197,0.66863 -1.55664,0.85352 -0.55467,0.18488 -1.09487,0.27734 -1.6211,0.27734 -0.75378,0 -1.45179,-0.16508 -2.09179,-0.49219 -0.64,-0.32711 -1.19473,-0.76759 -1.66406,-1.32226 -0.46934,-0.55467 -0.83916,-1.19459 -1.10938,-1.91992 -0.256,-0.72534 -0.38281,-1.4795 -0.38281,-2.26172 0,-0.71112 0.10698,-1.41444 0.32031,-2.11133 0.22755,-0.71111 0.56107,-1.35104 1.00195,-1.91992 0.4409,-0.5689 0.9811,-1.0239 1.6211,-1.36524 0.65422,-0.34133 1.40112,-0.51172 2.24023,-0.51172 0.512,0 1.03042,0.0779 1.55664,0.23438 0.54045,0.15645 1.03904,0.42655 1.49414,0.81055 0.46934,0.36977 0.85368,0.87562 1.15235,1.51562 l 1.51367,-0.98242 c -0.46933,-0.96711 -1.18718,-1.75563 -2.1543,-2.36719 -0.9671,-0.62578 -2.12545,-0.93945 -3.47656,-0.93945 z m -120.07814,0.38477 v 3.71093 h -1.5156 v 1.47266 h 1.5156 v 7.48828 c 0,0.52623 0.1142,0.96671 0.3418,1.32227 0.2275,0.34133 0.532,0.59691 0.916,0.76757 0.384,0.15645 0.8046,0.23438 1.2598,0.23438 0.3982,0 0.7752,-0.0416 1.1308,-0.12695 0.3556,-0.0853 0.6673,-0.18505 0.9375,-0.29883 0.2703,-0.11378 0.4842,-0.20624 0.6406,-0.27735 l -0.4492,-1.49414 c -0.1,0.0569 -0.3043,0.14935 -0.6172,0.27735 -0.3129,0.128 -0.6556,0.19336 -1.0253,0.19336 -0.3272,0 -0.6118,-0.0924 -0.8536,-0.27735 -0.2415,-0.1991 -0.3756,-0.49826 -0.4043,-0.89648 v -6.91211 h 2.4961 v -1.47266 h -2.4961 v -3.71093 z m 30.5,0 v 3.71093 h -1.5156 v 1.47266 h 1.5156 v 7.48828 c 0,0.52623 0.11423,0.96671 0.34183,1.32227 0.2275,0.34133 0.532,0.59691 0.916,0.76757 0.384,0.15645 0.8046,0.23438 1.2598,0.23438 0.3982,0 0.7752,-0.0416 1.1308,-0.12695 0.3556,-0.0853 0.6673,-0.18505 0.9375,-0.29883 0.2703,-0.11378 0.4842,-0.20624 0.6406,-0.27735 l -0.4492,-1.49414 c -0.1,0.0569 -0.3043,0.14935 -0.6172,0.27735 -0.3129,0.128 -0.6556,0.19336 -1.0253,0.19336 -0.3272,0 -0.6118,-0.0924 -0.8536,-0.27735 -0.2415,-0.1991 -0.3756,-0.49826 -0.4043,-0.89648 v -6.91211 h 2.4961 v -1.47266 h -2.4961 v -3.71093 z m 45.45703,0 v 3.71093 h -1.5137 v 1.47266 h 1.5137 v 7.48828 c 0,0.52623 0.1143,0.96671 0.3418,1.32227 0.2276,0.34133 0.534,0.59691 0.918,0.76757 0.384,0.15645 0.8027,0.23438 1.2578,0.23438 0.3983,0 0.7753,-0.0416 1.1309,-0.12695 0.3555,-0.0853 0.6691,-0.18505 0.9394,-0.29883 0.2702,-0.11378 0.4842,-0.20624 0.6406,-0.27735 l -0.4492,-1.49414 c -0.1,0.0569 -0.3063,0.14935 -0.6191,0.27735 -0.3129,0.128 -0.6537,0.19336 -1.0235,0.19336 -0.3271,0 -0.6117,-0.0924 -0.8535,-0.27735 -0.2416,-0.1991 -0.3756,-0.49826 -0.4043,-0.89648 v -6.91211 h 2.4961 v -1.47266 h -2.4961 v -3.71093 z m 145.459,0 v 3.71093 h -1.51367 v 1.47266 h 1.51367 v 7.48828 c 0,0.52623 0.11424,0.96671 0.3418,1.32227 0.22755,0.34133 0.53397,0.59691 0.91797,0.76757 0.384,0.15645 0.80269,0.23438 1.25781,0.23438 0.39822,0 0.7753,-0.0416 1.13086,-0.12695 0.35556,-0.0853 0.66728,-0.18505 0.9375,-0.29883 0.27022,-0.11378 0.48418,-0.20624 0.64062,-0.27735 l -0.44726,-1.49414 c -0.0996,0.0569 -0.30625,0.14935 -0.61914,0.27735 -0.31289,0.128 -0.65366,0.19336 -1.02344,0.19336 -0.32711,0 -0.61174,-0.0924 -0.85352,-0.27735 -0.24175,-0.1991 -0.37778,-0.49826 -0.40625,-0.89648 v -6.91211 h 2.4961 v -1.47266 h -2.4961 v -3.71093 z m 69.66602,0 v 3.71093 h -1.51368 v 1.47266 h 1.51368 v 7.48828 c 0,0.52623 0.11424,0.96671 0.34179,1.32227 0.22756,0.34133 0.53397,0.59691 0.91797,0.76757 0.384,0.15645 0.80271,0.23438 1.25781,0.23438 0.39823,0 0.77531,-0.0416 1.13086,-0.12695 0.35556,-0.0853 0.66923,-0.18505 0.93946,-0.29883 0.27022,-0.11378 0.48417,-0.20624 0.64062,-0.27735 l -0.44922,-1.49414 c -0.0996,0.0569 -0.30625,0.14935 -0.61914,0.27735 -0.31288,0.128 -0.65366,0.19336 -1.02344,0.19336 -0.32711,0 -0.61174,-0.0924 -0.85351,-0.27735 -0.24176,-0.1991 -0.37583,-0.49826 -0.4043,-0.89648 v -6.91211 h 2.4961 v -1.47266 h -2.4961 v -3.71093 z m -356.37115,3.51953 c -0.7822,0 -1.5364,0.12876 -2.2617,0.38476 -0.7253,0.24178 -1.4504,0.6116 -2.1758,1.10938 l 0.6817,1.32226 c 0.6258,-0.41244 1.2168,-0.72612 1.7714,-0.93945 0.5689,-0.22756 1.16,-0.3418 1.7715,-0.3418 0.9387,0 1.6638,0.25027 2.1758,0.74805 0.512,0.48355 0.7676,1.15057 0.7676,2.00391 v 0.81054 c -0.4267,-0.15644 -0.918,-0.26873 -1.4727,-0.33984 -0.5546,-0.0853 -1.0804,-0.12891 -1.5781,-0.12891 -0.9387,0 -1.7635,0.1433 -2.4746,0.42774 -0.7111,0.28444 -1.2731,0.68862 -1.6855,1.21484 -0.3983,0.512 -0.5977,1.12482 -0.5977,1.83594 0,0.64 0.1631,1.22183 0.4902,1.74805 0.3272,0.512 0.7822,0.92538 1.3653,1.23828 0.5831,0.29866 1.2448,0.44726 1.9843,0.44726 0.768,0 1.5439,-0.17038 2.3262,-0.51172 0.7822,-0.34133 1.4149,-0.82539 1.8984,-1.45117 l 0.043,0.70508 c 0.028,0.27022 0.15,0.5258 0.3633,0.76758 0.2275,0.24178 0.5611,0.36328 1.002,0.36328 0.085,0 0.1923,-0.007 0.3203,-0.0215 0.1422,-0.0142 0.3053,-0.036 0.4902,-0.0644 v -1.45117 c -0.2133,-0.0142 -0.3692,-0.0704 -0.4688,-0.16992 -0.085,-0.11378 -0.1289,-0.28417 -0.1289,-0.51172 v -4.71484 c 0,-1.40801 -0.4114,-2.50294 -1.2363,-3.28516 -0.8249,-0.79645 -1.9489,-1.19531 -3.3711,-1.19531 z m 13.5606,0 c -0.9102,0 -1.7278,0.22652 -2.4532,0.68164 -0.7253,0.44088 -1.3144,1.07549 -1.7695,1.90039 v -2.39063 h -1.707 v 11.13672 h 1.8769 v -6.7207 c 0.256,-0.88178 0.6893,-1.5851 1.3008,-2.11133 0.6258,-0.54044 1.3093,-0.81055 2.0488,-0.81055 0.7396,0 1.2943,0.27737 1.6641,0.83203 0.3698,0.54044 0.5547,1.39964 0.5547,2.58008 v 6.23047 h 1.8769 v -6.69922 c 0.256,-0.86756 0.6893,-1.57089 1.3008,-2.11133 0.6116,-0.55466 1.2951,-0.83203 2.0489,-0.83203 0.7396,0 1.2943,0.27737 1.664,0.83203 0.384,0.55467 0.5762,1.41386 0.5762,2.58008 v 6.23047 h 1.8769 v -6.65625 c 0,-0.66844 -0.058,-1.28657 -0.1718,-1.85547 -0.1138,-0.56888 -0.2987,-1.06021 -0.5547,-1.47265 -0.256,-0.42667 -0.6041,-0.75292 -1.0449,-0.98047 -0.4267,-0.24178 -0.9596,-0.36328 -1.5996,-0.36328 -0.9102,0 -1.7206,0.23379 -2.4317,0.70312 -0.7111,0.45511 -1.3167,1.12408 -1.8144,2.00586 -0.128,-0.79645 -0.4688,-1.44363 -1.0235,-1.94141 -0.5546,-0.512 -1.2943,-0.76757 -2.2187,-0.76757 z m 19.4961,0 c -0.8392,0 -1.6151,0.21395 -2.3262,0.64062 -0.7111,0.41245 -1.2877,0.95991 -1.7285,1.64258 v -2.0918 h -1.6641 v 15.67969 h 1.8789 v -6.74023 c 0.4125,0.69688 0.9725,1.2734 1.6836,1.72851 0.7111,0.45511 1.5234,0.68164 2.4336,0.68164 0.9813,0 1.8478,-0.25558 2.6016,-0.76758 0.7538,-0.52622 1.3376,-1.22955 1.75,-2.11132 0.4266,-0.88178 0.6406,-1.8499 0.6406,-2.90235 0,-0.75377 -0.1361,-1.47163 -0.4063,-2.15429 -0.256,-0.6969 -0.6185,-1.31503 -1.0878,-1.85547 -0.4694,-0.54045 -1.0241,-0.96837 -1.6641,-1.28125 -0.64,-0.3129 -1.3433,-0.46875 -2.1113,-0.46875 z m 18.6054,0 c -1.1093,0 -2.0973,0.26283 -2.9648,0.78906 -0.8533,0.52622 -1.5223,1.22229 -2.0059,2.08984 -0.4835,0.86756 -0.7246,1.82842 -0.7246,2.88086 0,0.78223 0.1361,1.52187 0.4063,2.21875 0.2844,0.69689 0.674,1.31502 1.1718,1.85547 0.512,0.52622 1.1103,0.94687 1.793,1.25977 0.6969,0.29866 1.4656,0.44726 2.3047,0.44726 0.7537,0 1.4498,-0.1215 2.0898,-0.36328 0.6543,-0.24178 1.2163,-0.57529 1.6856,-1.00195 0.4835,-0.42667 0.8461,-0.91073 1.0879,-1.45117 l -1.6211,-0.44727 c -0.2275,0.55467 -0.6463,1.00242 -1.2578,1.34375 -0.5974,0.34133 -1.2373,0.51172 -1.9199,0.51172 -0.64,0 -1.2383,-0.15586 -1.793,-0.46875 -0.5547,-0.32711 -1.0096,-0.7676 -1.3652,-1.32227 -0.3416,-0.56889 -0.541,-1.21607 -0.5977,-1.9414 h 9.2383 c 0.014,-0.0711 0.022,-0.17083 0.022,-0.29883 0.014,-0.14223 0.019,-0.28552 0.019,-0.42774 0,-0.99555 -0.2338,-1.9201 -0.7031,-2.77343 -0.4552,-0.86756 -1.1024,-1.56363 -1.9414,-2.08985 -0.825,-0.54044 -1.8003,-0.81054 -2.9239,-0.81054 z m 25.375,0 c -1.1093,0 -2.0973,0.26283 -2.9648,0.78906 -0.8533,0.52622 -1.5223,1.22229 -2.0059,2.08984 -0.4835,0.86756 -0.7246,1.82842 -0.7246,2.88086 0,0.78223 0.1361,1.52187 0.4063,2.21875 0.2844,0.69689 0.674,1.31502 1.1718,1.85547 0.512,0.52622 1.1103,0.94687 1.793,1.25977 0.6969,0.29866 1.4656,0.44726 2.3047,0.44726 0.7537,0 1.4498,-0.1215 2.0898,-0.36328 0.6543,-0.24178 1.2163,-0.57529 1.6856,-1.00195 0.4835,-0.42667 0.8461,-0.91073 1.0879,-1.45117 l -1.6211,-0.44727 c -0.2275,0.55467 -0.6463,1.00242 -1.2578,1.34375 -0.5974,0.34133 -1.2373,0.51172 -1.9199,0.51172 -0.64,0 -1.2383,-0.15586 -1.793,-0.46875 -0.5547,-0.32711 -1.0096,-0.7676 -1.3652,-1.32227 -0.3416,-0.56889 -0.541,-1.21607 -0.5977,-1.9414 h 9.2383 c 0.014,-0.0711 0.022,-0.17083 0.022,-0.29883 0.014,-0.14223 0.019,-0.28552 0.019,-0.42774 0,-0.99555 -0.2338,-1.9201 -0.7031,-2.77343 -0.4552,-0.86756 -1.1024,-1.56363 -1.9414,-2.08985 -0.825,-0.54044 -1.8003,-0.81054 -2.9239,-0.81054 z m 43.10353,0 c -0.8391,0 -1.6078,0.15585 -2.3046,0.46875 -0.6827,0.29866 -1.2718,0.71932 -1.7696,1.25976 -0.4978,0.52623 -0.8821,1.1371 -1.1523,1.83399 -0.2702,0.69688 -0.4063,1.43652 -0.4063,2.21875 0,0.768 0.1361,1.50038 0.4063,2.19726 0.2702,0.69689 0.6545,1.31502 1.1523,1.85547 0.4978,0.52622 1.0869,0.94687 1.7696,1.25977 0.6826,0.29866 1.4441,0.44726 2.2832,0.44726 0.8391,0 1.6005,-0.1486 2.2832,-0.44726 0.6968,-0.3129 1.2932,-0.73355 1.791,-1.25977 0.4978,-0.54045 0.8821,-1.15858 1.1523,-1.85547 0.2702,-0.69688 0.4063,-1.42926 0.4063,-2.19726 0,-0.78223 -0.1361,-1.52187 -0.4063,-2.21875 -0.2702,-0.69689 -0.6618,-1.30776 -1.1738,-1.83399 -0.4978,-0.54044 -1.0869,-0.9611 -1.7695,-1.25976 -0.6827,-0.3129 -1.4369,-0.46875 -2.2618,-0.46875 z m 45.60552,0 c -1.10934,0 -2.09729,0.26283 -2.96485,0.78906 -0.85333,0.52622 -1.5223,1.22229 -2.00586,2.08984 -0.48356,0.86756 -0.72461,1.82842 -0.72461,2.88086 0,0.78223 0.13407,1.52187 0.4043,2.21875 0.28444,0.69689 0.67605,1.31502 1.17383,1.85547 0.512,0.52622 1.1103,0.94687 1.79297,1.25977 0.69688,0.29866 1.46362,0.44726 2.30273,0.44726 0.75378,0 1.4518,-0.1215 2.0918,-0.36328 0.65422,-0.24178 1.21621,-0.57529 1.68555,-1.00195 0.48355,-0.42667 0.84611,-0.91073 1.08789,-1.45117 l -1.62305,-0.44727 c -0.22756,0.55467 -0.64626,1.00242 -1.25781,1.34375 -0.59734,0.34133 -1.23726,0.51172 -1.91993,0.51172 -0.64,0 -1.2383,-0.15586 -1.79296,-0.46875 -0.55467,-0.32711 -1.00969,-0.7676 -1.36524,-1.32227 -0.34136,-0.56889 -0.53884,-1.21607 -0.5957,-1.9414 h 9.23633 c 0.0142,-0.0711 0.0215,-0.17083 0.0215,-0.29883 0.0142,-0.14223 0.0215,-0.28552 0.0215,-0.42774 0,-0.99555 -0.23575,-1.9201 -0.70508,-2.77343 -0.45511,-0.86756 -1.10034,-1.56363 -1.93946,-2.08985 -0.82488,-0.54044 -1.80026,-0.81054 -2.92382,-0.81054 z m 32.51953,0 c -0.83912,0 -1.6078,0.15585 -2.30469,0.46875 -0.68267,0.29866 -1.27175,0.71932 -1.76953,1.25976 -0.49778,0.52623 -0.88213,1.1371 -1.15235,1.83399 -0.27022,0.69688 -0.40625,1.43652 -0.40625,2.21875 0,0.768 0.13603,1.50038 0.40625,2.19726 0.27022,0.69689 0.65457,1.31502 1.15235,1.85547 0.49778,0.52622 1.08686,0.94687 1.76953,1.25977 0.68267,0.29866 1.4441,0.44726 2.2832,0.44726 0.83912,0 1.60054,-0.1486 2.28321,-0.44726 0.69688,-0.3129 1.29323,-0.73355 1.79101,-1.25977 0.49778,-0.54045 0.88212,-1.15858 1.15234,-1.85547 0.27022,-0.69688 0.40626,-1.42926 0.40626,-2.19726 0,-0.78223 -0.13604,-1.52187 -0.40626,-2.21875 -0.27021,-0.69689 -0.66182,-1.30776 -1.17382,-1.83399 -0.49778,-0.54044 -1.08687,-0.9611 -1.76953,-1.25976 -0.68267,-0.3129 -1.43684,-0.46875 -2.26172,-0.46875 z m 11.9375,0 c -0.82489,0 -1.56453,0.12876 -2.21875,0.38476 -0.64,0.256 -1.1439,0.63113 -1.51368,1.12891 -0.36978,0.48355 -0.55468,1.08185 -0.55468,1.79297 0,0.58311 0.13603,1.06717 0.40625,1.45117 0.27022,0.384 0.66714,0.70298 1.19336,0.95898 0.52622,0.256 1.1734,0.49901 1.9414,0.72657 0.62578,0.17066 1.16598,0.32653 1.6211,0.46875 0.4551,0.128 0.80314,0.29112 1.04492,0.49023 0.256,0.19911 0.38476,0.50553 0.38476,0.91797 0,0.56889 -0.24105,1.00211 -0.72461,1.30078 -0.48356,0.28444 -1.10895,0.42578 -1.87695,0.42578 -0.66844,0 -1.32289,-0.12681 -1.96289,-0.38281 -0.64,-0.256 -1.27992,-0.68196 -1.91992,-1.2793 l -0.72656,1.32227 c 0.58311,0.61155 1.28113,1.07382 2.09179,1.38672 0.81067,0.29866 1.67712,0.44726 2.60157,0.44726 1.30844,0 2.36175,-0.29188 3.1582,-0.875 0.79645,-0.59733 1.19336,-1.42216 1.19336,-2.47461 0,-0.68266 -0.17039,-1.21561 -0.51172,-1.59961 -0.34133,-0.384 -0.82344,-0.69768 -1.44922,-0.93945 -0.61155,-0.24178 -1.33862,-0.48283 -2.17773,-0.72461 -0.54045,-0.17067 -1.00272,-0.32653 -1.38672,-0.46875 -0.36978,-0.14222 -0.65245,-0.3126 -0.85156,-0.51172 -0.18489,-0.21333 -0.27735,-0.49796 -0.27735,-0.85351 0,-0.42667 0.11956,-0.75487 0.36133,-0.98243 0.24178,-0.24177 0.54819,-0.4049 0.91797,-0.49023 0.36977,-0.0996 0.74686,-0.14844 1.13086,-0.14844 0.65422,0 1.24331,0.11229 1.76953,0.33985 0.52622,0.21333 1.01028,0.5488 1.45117,1.0039 l 0.85352,-1.30273 c -0.48356,-0.49778 -1.06007,-0.87291 -1.72852,-1.12891 -0.66845,-0.256 -1.41535,-0.38476 -2.24023,-0.38476 z m 12.3164,0 c -0.91022,0 -1.72779,0.22652 -2.45312,0.68164 -0.72534,0.44088 -1.31638,1.07549 -1.77149,1.90039 v -2.39063 h -1.70703 v 11.13672 h 1.87891 v -6.7207 c 0.256,-0.88178 0.68922,-1.5851 1.30078,-2.11133 0.62577,-0.54044 1.30732,-0.81055 2.04688,-0.81055 0.73955,0 1.29428,0.27737 1.66406,0.83203 0.36977,0.54044 0.55468,1.39964 0.55468,2.58008 v 6.23047 h 1.87891 v -6.69922 c 0.256,-0.86756 0.68923,-1.57089 1.30078,-2.11133 0.61156,-0.55466 1.2931,-0.83203 2.04688,-0.83203 0.73955,0 1.29428,0.27737 1.66406,0.83203 0.384,0.55467 0.57617,1.41386 0.57617,2.58008 v 6.23047 h 1.87891 v -6.65625 c 0,-0.66844 -0.0581,-1.28657 -0.17188,-1.85547 -0.11378,-0.56888 -0.29868,-1.06021 -0.55468,-1.47265 -0.256,-0.42667 -0.60404,-0.75292 -1.04493,-0.98047 -0.42666,-0.24178 -0.95961,-0.36328 -1.59961,-0.36328 -0.91022,0 -1.72053,0.23379 -2.43164,0.70312 -0.71111,0.45511 -1.31667,1.12408 -1.81445,2.00586 -0.128,-0.79645 -0.46877,-1.44363 -1.02344,-1.94141 -0.55466,-0.512 -1.29431,-0.76757 -2.21875,-0.76757 z m 18.66211,0 c -0.8391,0 -1.60584,0.15585 -2.30273,0.46875 -0.68267,0.29866 -1.27371,0.71932 -1.77149,1.25976 -0.49778,0.52623 -0.88212,1.1371 -1.15234,1.83399 -0.27023,0.69688 -0.4043,1.43652 -0.4043,2.21875 0,0.768 0.13407,1.50038 0.4043,2.19726 0.27022,0.69689 0.65456,1.31502 1.15234,1.85547 0.49778,0.52622 1.08882,0.94687 1.77149,1.25977 0.68266,0.29866 1.44213,0.44726 2.28125,0.44726 0.83911,0 1.60053,-0.1486 2.2832,-0.44726 0.69689,-0.3129 1.29519,-0.73355 1.79297,-1.25977 0.49777,-0.54045 0.88016,-1.15858 1.15039,-1.85547 0.27022,-0.69688 0.40625,-1.42926 0.40625,-2.19726 0,-0.78223 -0.13603,-1.52187 -0.40625,-2.21875 -0.27023,-0.69689 -0.65987,-1.30776 -1.17187,-1.83399 -0.49778,-0.54044 -1.08882,-0.9611 -1.77149,-1.25976 -0.68267,-0.3129 -1.43682,-0.46875 -2.26172,-0.46875 z m 13.625,0 c -0.83911,0 -1.61506,0.21395 -2.32617,0.64062 -0.71111,0.41245 -1.28763,0.95991 -1.72851,1.64258 v -2.0918 h -1.66407 v 15.67969 h 1.87891 v -6.74023 c 0.41245,0.69688 0.97249,1.2734 1.68359,1.72851 0.71112,0.45511 1.52338,0.68164 2.4336,0.68164 0.98133,0 1.84778,-0.25558 2.60156,-0.76758 0.75378,-0.52622 1.33756,-1.22955 1.75,-2.11132 0.42667,-0.88178 0.64062,-1.8499 0.64062,-2.90235 0,-0.75377 -0.13603,-1.47163 -0.40625,-2.15429 -0.256,-0.6969 -0.61855,-1.31503 -1.08789,-1.85547 -0.46933,-0.54045 -1.02406,-0.96837 -1.66406,-1.28125 -0.64,-0.3129 -1.34333,-0.46875 -2.11133,-0.46875 z m 12.45899,0 c -0.83912,0 -1.6078,0.15585 -2.30469,0.46875 -0.68267,0.29866 -1.27175,0.71932 -1.76953,1.25976 -0.49778,0.52623 -0.88213,1.1371 -1.15235,1.83399 -0.27022,0.69688 -0.40625,1.43652 -0.40625,2.21875 0,0.768 0.13603,1.50038 0.40625,2.19726 0.27022,0.69689 0.65457,1.31502 1.15235,1.85547 0.49778,0.52622 1.08686,0.94687 1.76953,1.25977 0.68267,0.29866 1.4441,0.44726 2.2832,0.44726 0.83912,0 1.60054,-0.1486 2.28321,-0.44726 0.69688,-0.3129 1.29323,-0.73355 1.79101,-1.25977 0.49778,-0.54045 0.88212,-1.15858 1.15234,-1.85547 0.27022,-0.69688 0.40626,-1.42926 0.40626,-2.19726 0,-0.78223 -0.13604,-1.52187 -0.40626,-2.21875 -0.27021,-0.69689 -0.66182,-1.30776 -1.17382,-1.83399 -0.49778,-0.54044 -1.08687,-0.9611 -1.76953,-1.25976 -0.68267,-0.3129 -1.43684,-0.46875 -2.26172,-0.46875 z m 30.60937,0 c -0.78222,0 -1.53638,0.12876 -2.26172,0.38476 -0.72533,0.24178 -1.45044,0.6116 -2.17578,1.10938 l 0.68164,1.32226 c 0.62578,-0.41244 1.21682,-0.72612 1.77149,-0.93945 0.56888,-0.22756 1.15993,-0.3418 1.77148,-0.3418 0.93867,0 1.66378,0.25027 2.17578,0.74805 0.512,0.48355 0.76758,1.15057 0.76758,2.00391 v 0.81054 c -0.42667,-0.15644 -0.91799,-0.26873 -1.47266,-0.33984 -0.55466,-0.0853 -1.08035,-0.12891 -1.57812,-0.12891 -0.93867,0 -1.7635,0.1433 -2.47461,0.42774 -0.71111,0.28444 -1.27311,0.68862 -1.68555,1.21484 -0.39822,0.512 -0.59765,1.12482 -0.59765,1.83594 0,0.64 0.16312,1.22183 0.49023,1.74805 0.32711,0.512 0.78213,0.92538 1.36524,1.23828 0.58311,0.29866 1.24482,0.44726 1.98437,0.44726 0.768,0 1.54395,-0.17038 2.32617,-0.51172 0.78222,-0.34133 1.41489,-0.82539 1.89844,-1.45117 l 0.043,0.70508 c 0.0285,0.27022 0.14995,0.5258 0.36328,0.76758 0.22755,0.24178 0.56107,0.36328 1.00195,0.36328 0.0853,0 0.19232,-0.007 0.32032,-0.0215 0.14222,-0.0142 0.30534,-0.036 0.49023,-0.0644 v -1.45117 c -0.21333,-0.0142 -0.3692,-0.0704 -0.46875,-0.16992 -0.0853,-0.11378 -0.12891,-0.28417 -0.12891,-0.51172 v -4.71484 c 0,-1.40801 -0.41143,-2.50294 -1.23632,-3.28516 -0.82489,-0.79645 -1.94888,-1.19531 -3.3711,-1.19531 z m 13.9668,0 c -0.65422,0 -1.27962,0.10698 -1.87695,0.32031 -0.59734,0.21333 -1.13223,0.51248 -1.60157,0.89648 -0.46933,0.384 -0.85172,0.83901 -1.15039,1.36524 v -2.39063 h -1.70703 v 11.13672 h 1.87695 v -6.7207 c 0.17067,-0.56889 0.44804,-1.06552 0.83204,-1.49219 0.39822,-0.44089 0.84597,-0.79087 1.34375,-1.04687 0.512,-0.256 1.02315,-0.38282 1.53515,-0.38282 0.73956,0 1.28898,0.27737 1.64453,0.83203 0.36978,0.54044 0.55274,1.39964 0.55274,2.58008 v 6.23047 h 1.8789 v -6.65625 c 0,-0.66844 -0.0581,-1.28657 -0.17187,-1.85547 -0.0996,-0.56888 -0.2772,-1.06021 -0.5332,-1.47265 -0.24178,-0.42667 -0.58255,-0.75292 -1.02344,-0.98047 -0.42667,-0.24178 -0.95961,-0.36328 -1.59961,-0.36328 z m 23.63281,0 c -0.83911,0 -1.6078,0.15585 -2.30469,0.46875 -0.68266,0.29866 -1.2737,0.71932 -1.77148,1.25976 -0.49777,0.52623 -0.88016,1.1371 -1.15039,1.83399 -0.27022,0.69688 -0.40625,1.43652 -0.40625,2.21875 0,0.768 0.13603,1.50038 0.40625,2.19726 0.27023,0.69689 0.65262,1.31502 1.15039,1.85547 0.49778,0.52622 1.08882,0.94687 1.77148,1.25977 0.68267,0.29866 1.44409,0.44726 2.28321,0.44726 0.8391,0 1.59858,-0.1486 2.28125,-0.44726 0.69689,-0.3129 1.29519,-0.73355 1.79297,-1.25977 0.49778,-0.54045 0.88212,-1.15858 1.15234,-1.85547 0.27023,-0.69688 0.4043,-1.42926 0.4043,-2.19726 0,-0.78223 -0.13407,-1.52187 -0.4043,-2.21875 -0.27022,-0.69689 -0.66183,-1.30776 -1.17383,-1.83399 -0.49778,-0.54044 -1.08882,-0.9611 -1.77148,-1.25976 -0.68267,-0.3129 -1.43488,-0.46875 -2.25977,-0.46875 z m 14.24219,0 c -0.65422,0 -1.27962,0.10698 -1.87695,0.32031 -0.59734,0.21333 -1.13223,0.51248 -1.60157,0.89648 -0.46933,0.384 -0.85172,0.83901 -1.15039,1.36524 v -2.39063 h -1.70703 v 11.13672 h 1.87695 v -6.7207 c 0.17067,-0.56889 0.44804,-1.06552 0.83204,-1.49219 0.39822,-0.44089 0.84597,-0.79087 1.34375,-1.04687 0.512,-0.256 1.02315,-0.38282 1.53515,-0.38282 0.73956,0 1.28898,0.27737 1.64453,0.83203 0.36978,0.54044 0.55274,1.39964 0.55274,2.58008 v 6.23047 h 1.8789 v -6.65625 c 0,-0.66844 -0.0581,-1.28657 -0.17187,-1.85547 -0.0996,-0.56888 -0.2772,-1.06021 -0.5332,-1.47265 -0.24178,-0.42667 -0.58255,-0.75292 -1.02344,-0.98047 -0.42667,-0.24178 -0.95961,-0.36328 -1.59961,-0.36328 z m 23.07031,0 c -0.82489,0 -1.56453,0.12876 -2.21875,0.38476 -0.64,0.256 -1.14389,0.63113 -1.51367,1.12891 -0.36978,0.48355 -0.55469,1.08185 -0.55469,1.79297 0,0.58311 0.13407,1.06717 0.4043,1.45117 0.27022,0.384 0.66909,0.70298 1.19531,0.95898 0.52623,0.256 1.17341,0.49901 1.94141,0.72657 0.62577,0.17066 1.16598,0.32653 1.62109,0.46875 0.45511,0.128 0.80315,0.29112 1.04492,0.49023 0.256,0.19911 0.38477,0.50553 0.38477,0.91797 0,0.56889 -0.24301,1.00211 -0.72656,1.30078 -0.48356,0.28444 -1.10896,0.42578 -1.87696,0.42578 -0.66844,0 -1.32289,-0.12681 -1.96289,-0.38281 -0.64,-0.256 -1.27992,-0.68196 -1.91992,-1.2793 l -0.72461,1.32227 c 0.58311,0.61155 1.27918,1.07382 2.08984,1.38672 0.81067,0.29866 1.67907,0.44726 2.60352,0.44726 1.30845,0 2.35981,-0.29188 3.15625,-0.875 0.79645,-0.59733 1.19531,-1.42216 1.19531,-2.47461 0,-0.68266 -0.17038,-1.21561 -0.51172,-1.59961 -0.34133,-0.384 -0.82539,-0.69768 -1.45117,-0.93945 -0.61155,-0.24178 -1.33667,-0.48283 -2.17578,-0.72461 -0.54044,-0.17067 -1.00272,-0.32653 -1.38672,-0.46875 -0.36978,-0.14222 -0.6544,-0.3126 -0.85351,-0.51172 -0.18489,-0.21333 -0.27735,-0.49796 -0.27735,-0.85351 0,-0.42667 0.1215,-0.75487 0.36328,-0.98243 0.24178,-0.24177 0.54819,-0.4049 0.91797,-0.49023 0.36978,-0.0996 0.74491,-0.14844 1.12891,-0.14844 0.65422,0 1.24526,0.11229 1.77148,0.33985 0.52623,0.21333 1.01029,0.5488 1.45118,1.0039 l 0.85351,-1.30273 c -0.48355,-0.49778 -1.06007,-0.87291 -1.72851,-1.12891 -0.66844,-0.256 -1.41535,-0.38476 -2.24024,-0.38476 z m 11.29102,0 c -1.12356,0 -2.11151,0.26283 -2.96485,0.78906 -0.85333,0.512 -1.51504,1.20276 -1.98437,2.07031 -0.46934,0.86755 -0.70313,1.82646 -0.70313,2.87891 0,0.78222 0.13407,1.52185 0.4043,2.21875 0.28444,0.69688 0.67605,1.31502 1.17383,1.85547 0.512,0.54044 1.1103,0.96835 1.79297,1.28125 0.69688,0.29866 1.46362,0.44726 2.30273,0.44726 0.75378,0 1.44454,-0.1215 2.07031,-0.36328 0.64,-0.24178 1.18747,-0.56803 1.64258,-0.98047 0.46934,-0.42666 0.81737,-0.91072 1.04492,-1.45117 l -1.83398,-0.55469 c -0.11378,0.3129 -0.32774,0.60478 -0.64063,0.875 -0.29866,0.256 -0.65396,0.4627 -1.0664,0.61914 -0.39822,0.15644 -0.81887,0.23438 -1.25977,0.23438 -0.68266,0 -1.30806,-0.18492 -1.87695,-0.55469 -0.55467,-0.36978 -1.00242,-0.86836 -1.34375,-1.49414 -0.32711,-0.64 -0.49023,-1.35059 -0.49024,-2.13281 0,-0.79645 0.16313,-1.49978 0.49024,-2.11133 0.32711,-0.62578 0.7676,-1.1171 1.32226,-1.47266 0.56889,-0.35555 1.19429,-0.5332 1.87696,-0.5332 0.62578,0 1.19503,0.1486 1.70703,0.44727 0.512,0.28444 0.91087,0.69057 1.19531,1.21679 l 1.83399,-0.57617 c -0.39822,-0.82489 -1.00909,-1.47934 -1.83399,-1.96289 -0.81066,-0.49778 -1.76427,-0.74609 -2.85937,-0.74609 z m 24.45898,0 c -1.10933,0 -2.09729,0.26283 -2.96484,0.78906 -0.85334,0.52622 -1.5223,1.22229 -2.00586,2.08984 -0.48356,0.86756 -0.72461,1.82842 -0.72461,2.88086 0,0.78223 0.13603,1.52187 0.40625,2.21875 0.28445,0.69689 0.67409,1.31502 1.17187,1.85547 0.512,0.52622 1.11031,0.94687 1.79297,1.25977 0.69689,0.29866 1.46558,0.44726 2.30469,0.44726 0.75377,0 1.44984,-0.1215 2.08984,-0.36328 0.65423,-0.24178 1.21622,-0.57529 1.68555,-1.00195 0.48355,-0.42667 0.84611,-0.91073 1.08789,-1.45117 l -1.62109,-0.44727 c -0.22756,0.55467 -0.64821,1.00242 -1.25977,1.34375 -0.59733,0.34133 -1.23725,0.51172 -1.91992,0.51172 -0.64,0 -1.23635,-0.15586 -1.79102,-0.46875 -0.55466,-0.32711 -1.00967,-0.7676 -1.36523,-1.32227 -0.34135,-0.56889 -0.54079,-1.21607 -0.59766,-1.9414 h 9.23633 c 0.0142,-0.0711 0.0215,-0.17083 0.0215,-0.29883 0.0142,-0.14223 0.0215,-0.28552 0.0215,-0.42774 0,-0.99555 -0.23379,-1.9201 -0.70312,-2.77343 -0.45512,-0.86756 -1.1023,-1.56363 -1.94141,-2.08985 -0.82489,-0.54044 -1.80028,-0.81054 -2.92383,-0.81054 z m 13.60742,0 c -0.91022,0 -1.72779,0.22652 -2.45312,0.68164 -0.72534,0.44088 -1.31637,1.07549 -1.77149,1.90039 v -2.39063 h -1.70703 v 11.13672 h 1.87891 v -6.7207 c 0.256,-0.88178 0.68923,-1.5851 1.30078,-2.11133 0.62578,-0.54044 1.30732,-0.81055 2.04688,-0.81055 0.73955,0 1.29428,0.27737 1.66406,0.83203 0.36978,0.54044 0.55468,1.39964 0.55468,2.58008 v 6.23047 h 1.87891 v -6.69922 c 0.256,-0.86756 0.68922,-1.57089 1.30078,-2.11133 0.61156,-0.55466 1.2931,-0.83203 2.04688,-0.83203 0.73955,0 1.29428,0.27737 1.66406,0.83203 0.384,0.55467 0.57617,1.41386 0.57617,2.58008 v 6.23047 h 1.87891 v -6.65625 c 0,-0.66844 -0.0581,-1.28657 -0.17188,-1.85547 -0.11377,-0.56888 -0.29868,-1.06021 -0.55468,-1.47265 -0.256,-0.42667 -0.60403,-0.75292 -1.04493,-0.98047 -0.42666,-0.24178 -0.95961,-0.36328 -1.59961,-0.36328 -0.91022,0 -1.72052,0.23379 -2.43164,0.70312 -0.7111,0.45511 -1.31667,1.12408 -1.81445,2.00586 -0.128,-0.79645 -0.46877,-1.44363 -1.02344,-1.94141 -0.55466,-0.512 -1.2943,-0.76757 -2.21875,-0.76757 z m 18.72657,0 c -1.10934,0 -2.09729,0.26283 -2.96485,0.78906 -0.85333,0.52622 -1.5223,1.22229 -2.00586,2.08984 -0.48356,0.86756 -0.72461,1.82842 -0.72461,2.88086 0,0.78223 0.13407,1.52187 0.4043,2.21875 0.28444,0.69689 0.67605,1.31502 1.17383,1.85547 0.512,0.52622 1.1103,0.94687 1.79297,1.25977 0.69688,0.29866 1.46362,0.44726 2.30273,0.44726 0.75378,0 1.4518,-0.1215 2.0918,-0.36328 0.65422,-0.24178 1.21621,-0.57529 1.68555,-1.00195 0.48355,-0.42667 0.84611,-0.91073 1.08789,-1.45117 l -1.62305,-0.44727 c -0.22756,0.55467 -0.64626,1.00242 -1.25781,1.34375 -0.59734,0.34133 -1.23726,0.51172 -1.91993,0.51172 -0.64,0 -1.2383,-0.15586 -1.79296,-0.46875 -0.55467,-0.32711 -1.00969,-0.7676 -1.36524,-1.32227 -0.34136,-0.56889 -0.53884,-1.21607 -0.5957,-1.9414 h 9.23633 c 0.0142,-0.0711 0.0215,-0.17083 0.0215,-0.29883 0.0142,-0.14223 0.0215,-0.28552 0.0215,-0.42774 0,-0.99555 -0.23575,-1.9201 -0.70508,-2.77343 -0.45511,-0.86756 -1.10034,-1.56363 -1.93946,-2.08985 -0.82488,-0.54044 -1.80026,-0.81054 -2.92382,-0.81054 z m -307.55472,0.10742 c -0.6968,0.0569 -1.3658,0.32699 -2.0058,0.81055 -0.6258,0.46933 -1.1297,1.08746 -1.5137,1.85546 v -2.58203 h -1.75 v 11.13672 h 1.877 v -6.86914 c 0.2986,-0.81067 0.8044,-1.44332 1.5156,-1.89844 0.7253,-0.46935 1.5574,-0.71236 2.4961,-0.72656 v -1.70703 c -0.071,-0.0142 -0.1564,-0.0195 -0.2559,-0.0195 z m -50.25583,0.084 4.1172,5.58985 -4.1387,5.54687 h 2.0898 l 2.9434,-4.07422 0.1719,-0.32031 0.1914,0.32031 2.9433,4.07422 h 2.0918 l -4.1386,-5.54687 4.1171,-5.58985 h -2.0918 l -2.9218,4.09571 -0.1914,0.34179 -0.1719,-0.34179 -2.9434,-4.09571 z m 198.19531,0 v 11.13672 h 1.87695 v -11.13672 z m -229.59381,1.2168 c 0.6685,0 1.2813,0.15586 1.836,0.46875 0.5546,0.31289 1.0097,0.74611 1.3652,1.30078 0.3558,0.55467 0.5625,1.19459 0.6191,1.91992 h -7.5957 c 0.057,-0.72533 0.2564,-1.36525 0.5977,-1.91992 0.3556,-0.55467 0.8106,-0.98789 1.3652,-1.30078 0.5547,-0.31289 1.1583,-0.46875 1.8125,-0.46875 z m 25.375,0 c 0.6685,0 1.2813,0.15586 1.836,0.46875 0.5546,0.31289 1.0097,0.74611 1.3652,1.30078 0.3558,0.55467 0.5625,1.19459 0.6191,1.91992 h -7.5957 c 0.057,-0.72533 0.2564,-1.36525 0.5977,-1.91992 0.3556,-0.55467 0.8106,-0.98789 1.3652,-1.30078 0.5547,-0.31289 1.1583,-0.46875 1.8125,-0.46875 z m 88.70905,0 c 0.66844,0 1.27931,0.15586 1.83398,0.46875 0.55467,0.31289 1.01163,0.74611 1.36719,1.30078 0.35558,0.55467 0.56032,1.19459 0.61719,1.91992 h -7.59376 c 0.0569,-0.72533 0.25633,-1.36525 0.59766,-1.91992 0.35555,-0.55467 0.81057,-0.98789 1.36524,-1.30078 0.55466,-0.31289 1.15828,-0.46875 1.8125,-0.46875 z m 242.79101,0 c 0.66845,0 1.28127,0.15586 1.83594,0.46875 0.55467,0.31289 1.00968,0.74611 1.36523,1.30078 0.35558,0.55467 0.56228,1.19459 0.61914,1.91992 h -7.5957 c 0.0569,-0.72533 0.25632,-1.36525 0.59766,-1.91992 0.35556,-0.55467 0.81056,-0.98789 1.36523,-1.30078 0.55467,-0.31289 1.15828,-0.46875 1.8125,-0.46875 z m 32.33399,0 c 0.66844,0 1.27931,0.15586 1.83398,0.46875 0.55467,0.31289 1.01163,0.74611 1.36719,1.30078 0.35558,0.55467 0.56032,1.19459 0.61719,1.91992 h -7.59376 c 0.0569,-0.72533 0.25633,-1.36525 0.59766,-1.91992 0.35555,-0.55467 0.81057,-0.98789 1.36524,-1.30078 0.55466,-0.31289 1.15828,-0.46875 1.8125,-0.46875 z m -408.28515,0.21289 c 0.5404,0 1.039,0.11424 1.4941,0.3418 0.4693,0.21333 0.8755,0.51248 1.2168,0.89648 0.3555,0.384 0.6256,0.82449 0.8105,1.32227 0.1991,0.49777 0.2989,1.02346 0.2989,1.57812 0,0.52623 -0.087,1.03738 -0.2578,1.53516 -0.1707,0.49778 -0.4191,0.94748 -0.7461,1.3457 -0.313,0.384 -0.6973,0.69572 -1.1524,0.9375 -0.4409,0.22755 -0.9375,0.3418 -1.4922,0.3418 -0.4977,0 -0.9818,-0.11425 -1.4511,-0.3418 -0.4694,-0.24178 -0.8827,-0.56076 -1.2383,-0.95898 -0.3556,-0.39822 -0.6382,-0.84066 -0.8516,-1.32422 v -3.17774 c 0.071,-0.34133 0.2198,-0.66227 0.4473,-0.96093 0.2275,-0.29867 0.5049,-0.56151 0.832,-0.78907 0.3271,-0.24177 0.6679,-0.42668 1.0235,-0.55468 0.3698,-0.128 0.725,-0.19141 1.0664,-0.19141 z m 87.53323,0 c 0.6826,0 1.3008,0.18491 1.8554,0.55469 0.569,0.36978 1.0167,0.86836 1.3438,1.49414 0.3413,0.62577 0.5137,1.32184 0.5137,2.08984 0,0.768 -0.1724,1.47133 -0.5137,2.11133 -0.3271,0.62578 -0.7748,1.12436 -1.3438,1.49414 -0.5546,0.36977 -1.1728,0.55469 -1.8554,0.55469 -0.6827,0 -1.3008,-0.17765 -1.8555,-0.53321 -0.5547,-0.36978 -1.0024,-0.86836 -1.3438,-1.49414 -0.327,-0.62578 -0.4921,-1.32184 -0.4921,-2.08984 0,-0.78222 0.1651,-1.48555 0.4921,-2.11133 0.3414,-0.62578 0.7891,-1.12436 1.3438,-1.49414 0.5547,-0.384 1.1728,-0.57617 1.8555,-0.57617 z m 78.12496,0 c 0.68267,0 1.3008,0.18491 1.85547,0.55469 0.56889,0.36978 1.01664,0.86836 1.34375,1.49414 0.34133,0.62577 0.51367,1.32184 0.51367,2.08984 0,0.768 -0.17234,1.47133 -0.51367,2.11133 -0.32711,0.62578 -0.77486,1.12436 -1.34375,1.49414 -0.55467,0.36977 -1.1728,0.55469 -1.85547,0.55469 -0.68266,0 -1.3008,-0.17765 -1.85547,-0.53321 -0.55466,-0.36978 -1.00241,-0.86836 -1.34375,-1.49414 -0.3271,-0.62578 -0.49218,-1.32184 -0.49218,-2.08984 0,-0.78222 0.16508,-1.48555 0.49218,-2.11133 0.34134,-0.62578 0.78909,-1.12436 1.34375,-1.49414 0.55467,-0.384 1.17281,-0.57617 1.85547,-0.57617 z m 42.91602,0 c 0.68266,0 1.30275,0.18491 1.85742,0.55469 0.56889,0.36978 1.01664,0.86836 1.34375,1.49414 0.34133,0.62577 0.51172,1.32184 0.51172,2.08984 0,0.768 -0.17039,1.47133 -0.51172,2.11133 -0.32711,0.62578 -0.77486,1.12436 -1.34375,1.49414 -0.55467,0.36977 -1.17476,0.55469 -1.85742,0.55469 -0.68267,0 -1.3008,-0.17765 -1.85547,-0.53321 -0.55467,-0.36978 -1.00242,-0.86836 -1.34375,-1.49414 -0.32711,-0.62578 -0.49024,-1.32184 -0.49024,-2.08984 0,-0.78222 0.16313,-1.48555 0.49024,-2.11133 0.34133,-0.62578 0.78908,-1.12436 1.34375,-1.49414 0.55467,-0.384 1.1728,-0.57617 1.85547,-0.57617 z m 13.17578,0 c 0.54044,0 1.03903,0.11424 1.49414,0.3418 0.46933,0.21333 0.87546,0.51248 1.2168,0.89648 0.35555,0.384 0.62565,0.82449 0.81054,1.32227 0.19911,0.49777 0.29883,1.02346 0.29883,1.57812 0,0.52623 -0.0871,1.03738 -0.25781,1.53516 -0.17067,0.49778 -0.41899,0.94748 -0.74609,1.3457 -0.3129,0.384 -0.69724,0.69572 -1.15235,0.9375 -0.44089,0.22755 -0.93752,0.3418 -1.49219,0.3418 -0.49777,0 -0.98183,-0.11425 -1.45117,-0.3418 -0.46933,-0.24178 -0.88272,-0.56076 -1.23828,-0.95898 -0.35555,-0.39822 -0.63823,-0.84066 -0.85156,-1.32422 v -3.17774 c 0.0711,-0.34133 0.21971,-0.66227 0.44726,-0.96093 0.22756,-0.29867 0.50492,-0.56151 0.83204,-0.78907 0.32711,-0.24177 0.66788,-0.42668 1.02343,-0.55468 0.36978,-0.128 0.72508,-0.19141 1.06641,-0.19141 z m 12.9082,0 c 0.68267,0 1.3008,0.18491 1.85547,0.55469 0.56889,0.36978 1.01664,0.86836 1.34375,1.49414 0.34133,0.62577 0.51367,1.32184 0.51367,2.08984 0,0.768 -0.17234,1.47133 -0.51367,2.11133 -0.32711,0.62578 -0.77486,1.12436 -1.34375,1.49414 -0.55467,0.36977 -1.1728,0.55469 -1.85547,0.55469 -0.68266,0 -1.3008,-0.17765 -1.85547,-0.53321 -0.55466,-0.36978 -1.00241,-0.86836 -1.34375,-1.49414 -0.3271,-0.62578 -0.49218,-1.32184 -0.49218,-2.08984 0,-0.78222 0.16508,-1.48555 0.49218,-2.11133 0.34134,-0.62578 0.78909,-1.12436 1.34375,-1.49414 0.55467,-0.384 1.17281,-0.57617 1.85547,-0.57617 z m 68.20899,0 c 0.68266,0 1.3008,0.18491 1.85547,0.55469 0.56888,0.36978 1.01663,0.86836 1.34375,1.49414 0.34133,0.62577 0.51171,1.32184 0.51171,2.08984 0,0.768 -0.17038,1.47133 -0.51171,2.11133 -0.32712,0.62578 -0.77487,1.12436 -1.34375,1.49414 -0.55467,0.36977 -1.17281,0.55469 -1.85547,0.55469 -0.68267,0 -1.30276,-0.17765 -1.85743,-0.53321 -0.55466,-0.36978 -1.00241,-0.86836 -1.34374,-1.49414 -0.32712,-0.62578 -0.49024,-1.32184 -0.49024,-2.08984 0,-0.78222 0.16312,-1.48555 0.49024,-2.11133 0.34133,-0.62578 0.78908,-1.12436 1.34374,-1.49414 0.55467,-0.384 1.17476,-0.57617 1.85743,-0.57617 z m -335.53908,4.22461 c 0.4693,0 0.9461,0.0489 1.4297,0.14844 0.4835,0.0853 0.9458,0.2141 1.3867,0.38476 v 1.38672 c 0,0.14222 -0.051,0.31987 -0.1504,0.5332 -0.1,0.19912 -0.2336,0.39855 -0.4043,0.59766 -0.3129,0.35556 -0.7336,0.65276 -1.2598,0.89453 -0.5262,0.22756 -1.0789,0.3418 -1.6621,0.3418 -0.5546,0 -1.0242,-0.10698 -1.4082,-0.32031 -0.3698,-0.21334 -0.6544,-0.48344 -0.8535,-0.81055 -0.1849,-0.34133 -0.2773,-0.68937 -0.2773,-1.04492 0,-0.65423 0.2918,-1.16539 0.875,-1.53516 0.5973,-0.384 1.3713,-0.57617 2.3242,-0.57617 z m 297.87501,0 c 0.46934,0 0.94613,0.0489 1.42969,0.14844 0.48356,0.0853 0.94583,0.2141 1.38672,0.38476 v 1.38672 c 0,0.14222 -0.0508,0.31987 -0.15039,0.5332 -0.0996,0.19912 -0.23363,0.39855 -0.4043,0.59766 -0.31289,0.35556 -0.73354,0.65276 -1.25976,0.89453 -0.52622,0.22756 -1.079,0.3418 -1.66211,0.3418 -0.55467,0 -1.0242,-0.10698 -1.40821,-0.32031 -0.36977,-0.21334 -0.6544,-0.48344 -0.85351,-0.81055 -0.18489,-0.34133 -0.27734,-0.68937 -0.27734,-1.04492 0,-0.65423 0.29188,-1.16539 0.875,-1.53516 0.59733,-0.384 1.37133,-0.57617 2.32421,-0.57617 z m 150.60938,3.09375 v 2.38867 h 1.57812 v -2.38867 z"
       id="path1342" />
  </g>
</svg>
