<?xml version="1.0" encoding="UTF-8" standalone="no"?>
<!-- Created with Inkscape (http://www.inkscape.org/) -->

<svg
   xmlns:dc="http://purl.org/dc/elements/1.1/"
   xmlns:cc="http://creativecommons.org/ns#"
   xmlns:rdf="http://www.w3.org/1999/02/22-rdf-syntax-ns#"
   xmlns:svg="http://www.w3.org/2000/svg"
   xmlns="http://www.w3.org/2000/svg"
   xmlns:sodipodi="http://sodipodi.sourceforge.net/DTD/sodipodi-0.dtd"
   xmlns:inkscape="http://www.inkscape.org/namespaces/inkscape"
   width="500"
   height="89.999992"
   viewBox="0 0 499.99999 89.999995"
   version="1.1"
   id="svg4583"
   inkscape:version="0.92.3 (2405546, 2018-03-11)"
   sodipodi:docname="font-preview-slab.svg">
  <defs
     id="defs4577" />
  <sodipodi:namedview
     id="base"
     pagecolor="#ffffff"
     bordercolor="#666666"
     borderopacity="1.0"
     inkscape:pageopacity="0.0"
     inkscape:pageshadow="2"
     inkscape:zoom="0.35"
     inkscape:cx="780"
     inkscape:cy="-257.85714"
     inkscape:document-units="px"
     inkscape:current-layer="layer1"
     showgrid="false"
     fit-margin-top="0"
     fit-margin-left="0"
     fit-margin-right="0"
     fit-margin-bottom="0"
     showborder="false"
     inkscape:window-width="1366"
     inkscape:window-height="705"
     inkscape:window-x="-8"
     inkscape:window-y="-8"
     inkscape:window-maximized="1" />
  <metadata
     id="metadata4580">
    <rdf:RDF>
      <cc:Work
         rdf:about="">
        <dc:format>image/svg+xml</dc:format>
        <dc:type
           rdf:resource="http://purl.org/dc/dcmitype/StillImage" />
        <dc:title></dc:title>
      </cc:Work>
    </rdf:RDF>
  </metadata>
  <g
     inkscape:label="Layer 1"
     inkscape:groupmode="layer"
     id="layer1"
     transform="translate(844.28571,-214.66252)">
    <rect
       style="opacity:1;fill:none;fill-opacity:1;stroke:#000000;stroke-width:0.13929218;stroke-miterlimit:4;stroke-dasharray:none;stroke-opacity:1"
       id="rect931"
       width="499.86072"
       height="89.860703"
       x="-844.21606"
       y="214.73216" />
    <path
       inkscape:connector-curvature="0"
       style="font-style:normal;font-variant:normal;font-weight:600;font-stretch:normal;font-size:39.17754745px;line-height:100%;font-family:Rokkitt;-inkscape-font-specification:'Rokkitt Semi-Bold';letter-spacing:0px;word-spacing:0px;fill:#000000;fill-opacity:1;stroke:none;stroke-width:1.16975462px;stroke-linecap:butt;stroke-linejoin:miter;stroke-opacity:1"
       d="m -574.39894,226.91856 c -0.85547,0 -1.57381,0.27623 -2.1543,0.82617 -0.54993,0.51939 -0.82421,1.19072 -0.82421,2.01563 0,0.8249 0.27428,1.51256 0.82421,2.0625 0.58049,0.51938 1.29883,0.77929 2.1543,0.77929 0.85545,0 1.55749,-0.25991 2.10742,-0.77929 0.5805,-0.54994 0.8711,-1.2376 0.8711,-2.0625 0,-0.82491 -0.2906,-1.49624 -0.8711,-2.01563 -0.54993,-0.54994 -1.25197,-0.82617 -2.10742,-0.82617 z m -247.58789,1.00977 c -2.5358,-10e-6 -4.5681,0.65501 -6.0957,1.96874 -1.4971,1.31375 -2.2461,3.11681 -2.2461,5.40821 0,4.18564 2.765,6.79913 8.2949,7.83789 l 1.7422,0.32031 c 1.4359,0.24441 2.535,0.53502 3.2988,0.87109 0.7944,0.30553 1.3594,0.74764 1.6954,1.32813 0.3666,0.54994 0.5507,1.29899 0.5507,2.24609 0,1.19154 -0.397,2.12278 -1.1914,2.79493 -0.7943,0.64159 -1.879,0.96289 -3.2539,0.96289 -2.0164,0 -3.6967,-0.55052 -5.041,-1.65039 -1.3443,-1.13043 -2.1854,-2.5815 -2.5215,-4.35352 h -3.3906 v 8.79883 h 3.7129 v -3.07031 c 0.7943,1.09987 1.8933,1.97168 3.2988,2.61328 1.4053,0.61104 2.9035,0.91601 4.4922,0.91601 1.7721,0 3.2989,-0.33567 4.582,-1.00781 1.2832,-0.67215 2.2615,-1.60534 2.9336,-2.79687 0.7028,-1.19154 1.0528,-2.53615 1.0528,-4.03321 0,-2.4136 -0.7021,-4.21471 -2.1075,-5.40625 -1.3748,-1.19153 -3.62,-2.07771 -6.7363,-2.6582 l -1.2832,-0.22852 c -1.8026,-0.33608 -3.1329,-0.82521 -3.9883,-1.46679 -0.8554,-0.6416 -1.2832,-1.52778 -1.2832,-2.65821 0,-1.06932 0.3828,-1.91044 1.1465,-2.52148 0.7639,-0.64159 1.8179,-0.96289 3.1621,-0.96289 2.0165,0 3.5289,0.45844 4.5371,1.375 1.0082,0.88601 1.6795,1.98705 2.0157,3.30078 h 3.3007 v -7.42383 h -3.5742 v 2.38281 c -0.7638,-0.91655 -1.7584,-1.62054 -2.9805,-2.10937 -1.222,-0.51939 -2.5953,-0.77734 -4.123,-0.77734 z m 96.6562,0.0449 v 2.93359 h 2.9336 v 20.57617 h -3.0253 v 2.97852 h 10.2656 v -2.97852 h -2.7031 v -23.50974 z m 133.90435,0 v 2.93359 h 3.11718 v 6.87305 c -1.77202,-1.2832 -3.72854,-1.92383 -5.86718,-1.92383 -1.61923,0 -3.10104,0.38072 -4.44532,1.14453 -1.31379,0.7638 -2.35146,1.86483 -3.11523,3.30078 -0.76377,1.43595 -1.14648,3.11624 -1.14648,5.04102 0,1.95533 0.39706,3.66631 1.1914,5.13281 0.79434,1.43595 1.86471,2.55135 3.20899,3.3457 1.37485,0.7638 2.90168,1.14453 4.58203,1.14453 2.16919,0 4.06433,-0.59558 5.68359,-1.7871 l 0.0449,1.2832 h 7.05664 v -2.97852 h -2.65625 v -23.50974 z m -85.77535,0.45898 v 3.20703 h 3.2539 v 19.61524 h -3.2539 v 3.20703 h 11.5957 v -3.20703 h -3.2539 v -8.52539 h 12.2363 v 8.52539 h -3.3008 v 3.20703 h 11.64062 v -3.20703 h -3.2539 v -19.61524 h 3.2539 v -3.20703 h -11.64062 v 3.20703 h 3.3008 v 7.88281 h -12.2363 v -7.88281 h 3.2539 v -3.20703 z m -120.7325,7.42383 c -1.2831,0 -2.6258,0.1822 -4.0312,0.54883 -1.4054,0.33608 -2.705,0.84153 -3.8965,1.51367 l 1.1914,2.75 c 1.0388,-0.51939 2.0928,-0.91839 3.1621,-1.19336 1.0999,-0.27497 2.0925,-0.41211 2.9785,-0.41211 1.2832,0 2.2615,0.33566 2.9336,1.00781 0.7028,0.6416 1.0547,1.61986 1.0547,2.9336 v 1.51172 c -1.5887,-0.39718 -3.1481,-0.59571 -4.6758,-0.59571 -2.1386,0 -3.8784,0.45844 -5.2226,1.375 -1.3444,0.91657 -2.0176,2.35326 -2.0176,4.3086 0,1.55814 0.5648,2.84139 1.6953,3.84961 1.1304,1.00822 2.6122,1.51171 4.4453,1.51171 1.1916,0 2.2619,-0.16784 3.209,-0.5039 0.9777,-0.36663 1.9397,-0.91715 2.8867,-1.65039 l 0.3203,1.65039 h 6.4629 v -2.97852 h -2.6133 v -8.8457 c 0,-2.07754 -0.7019,-3.72714 -2.1074,-4.94922 -1.3748,-1.22209 -3.3006,-1.83203 -5.7754,-1.83203 z m 25.9317,0 c -1.986,0 -4.1084,0.73271 -6.3692,2.19922 l -0.047,-1.74219 h -7.4707 v 2.98047 h 3.1171 v 12.18945 h -3.1171 v 2.97852 h 10.4492 v -2.97852 h -2.7949 v -10.81445 c 1.8026,-0.97766 3.3457,-1.4668 4.6289,-1.4668 0.9776,0 1.7411,0.31935 2.291,0.96094 0.5499,0.64159 0.8242,1.52778 0.8242,2.6582 v 8.66211 h -2.6582 v 2.97852 h 10.1289 v -2.97852 h -2.9785 v -9.39453 c 0,-0.27497 -0.031,-0.65765 -0.092,-1.14648 1.772,-1.16098 3.4379,-1.74024 4.9961,-1.74024 0.9776,0 1.7411,0.31935 2.291,0.96094 0.5499,0.64159 0.8242,1.52778 0.8242,2.6582 v 8.66211 h -2.6582 v 2.97852 h 10.1738 v -2.97852 h -2.9785 v -9.4414 c 0,-1.89422 -0.5648,-3.39035 -1.6953,-4.49024 -1.1303,-1.13042 -2.5815,-1.69531 -4.3535,-1.69531 -1.2833,0 -2.5051,0.24358 -3.666,0.73242 -1.161,0.48883 -2.3828,1.19282 -3.666,2.10938 -0.4582,-0.88602 -1.1315,-1.57367 -2.0176,-2.0625 -0.8859,-0.51939 -1.94,-0.7793 -3.1621,-0.7793 z m 35.7402,0 c -2.1997,0 -4.2013,0.68765 -6.0039,2.0625 l -0.09,-1.60547 h -7.1036 v 2.98047 h 2.8868 v 19.52148 h -2.9336 v 2.97852 h 10.7695 v -2.97852 h -3.2988 v -5.63671 c 0.611,0.51938 1.3907,0.94712 2.3379,1.2832 0.947,0.30551 1.9541,0.45898 3.0234,0.45898 1.6803,0 3.1928,-0.38269 4.5371,-1.14648 1.3749,-0.79436 2.4595,-1.92413 3.2539,-3.39063 0.8248,-1.49705 1.2363,-3.23872 1.2363,-5.22461 0,-1.89423 -0.3664,-3.54382 -1.0996,-4.94922 -0.7332,-1.40539 -1.7565,-2.47573 -3.0703,-3.20898 -1.2832,-0.76381 -2.765,-1.14453 -4.4453,-1.14453 z m 32.6836,0 c -1.8331,0 -3.4827,0.39705 -4.9492,1.19141 -1.4665,0.79435 -2.6289,1.90975 -3.4844,3.3457 -0.8249,1.43595 -1.2363,3.09992 -1.2363,4.99414 0,1.92479 0.4421,3.62139 1.3281,5.08789 0.886,1.43595 2.1098,2.55135 3.668,3.3457 1.5581,0.7638 3.3286,1.14453 5.3144,1.14453 1.6804,0 3.2091,-0.2906 4.584,-0.87109 1.3749,-0.61104 2.5354,-1.40515 3.4824,-2.38281 l -1.4199,-2.74805 c -0.8555,0.79435 -1.8501,1.42063 -2.9805,1.87891 -1.0998,0.45828 -2.2602,0.68554 -3.4824,0.68554 -1.6192,0 -2.9638,-0.45648 -4.0332,-1.37304 -1.0694,-0.94711 -1.71,-2.24667 -1.9238,-3.89649 h 14.1152 v -1.05468 c 0,-2.81079 -0.8105,-5.07034 -2.4297,-6.78125 -1.5888,-1.71093 -3.7725,-2.56641 -6.5527,-2.56641 z m 67.93555,0 c -1.83309,0 -3.48274,0.39705 -4.94922,1.19141 -1.46656,0.79435 -2.62701,1.90975 -3.48242,3.3457 -0.82491,1.43595 -1.23828,3.09992 -1.23828,4.99414 0,1.92479 0.4441,3.62139 1.33008,5.08789 0.88604,1.43595 2.1079,2.55135 3.66601,3.3457 1.5582,0.7638 3.33055,1.14453 5.31641,1.14453 1.68039,0 3.20718,-0.2906 4.58203,-0.87109 1.37485,-0.61104 2.53726,-1.40515 3.48437,-2.38281 l -1.42187,-2.74805 c -0.85548,0.79435 -1.84806,1.42063 -2.97852,1.87891 -1.09988,0.45828 -2.26034,0.68554 -3.48242,0.68554 -1.61925,0 -2.96389,-0.45648 -4.0332,-1.37304 -1.06931,-0.94711 -1.71196,-2.24667 -1.92578,-3.89649 h 14.11523 v -1.05468 c 0,-2.81079 -0.80848,-5.07034 -2.42773,-6.78125 -1.58868,-1.71093 -3.77442,-2.56641 -6.55469,-2.56641 z m 20.48437,0 c -1.28322,0 -2.6259,0.1822 -4.03124,0.54883 -1.40542,0.33608 -2.70498,0.84153 -3.89649,1.51367 l 1.19141,2.75 c 1.03874,-0.51939 2.0928,-0.91839 3.16211,-1.19336 1.09988,-0.27497 2.09246,-0.41211 2.97851,-0.41211 1.28314,0 2.26145,0.33566 2.9336,1.00781 0.7027,0.6416 1.05468,1.61986 1.05468,2.9336 v 1.51172 c -1.58868,-0.39718 -3.14816,-0.59571 -4.67578,-0.59571 -2.13862,0 -3.87837,0.45844 -5.22265,1.375 -1.34429,0.91657 -2.01758,2.35326 -2.01758,4.3086 0,1.55814 0.56494,2.84139 1.69531,3.84961 1.13045,1.00822 2.61215,1.51171 4.44531,1.51171 1.19152,0 2.26187,-0.16784 3.20899,-0.5039 0.97768,-0.36663 1.9396,-0.91715 2.88672,-1.65039 l 0.32031,1.65039 h 6.46289 v -2.97852 h -2.61328 v -8.8457 c 0,-2.07754 -0.70208,-3.72714 -2.10742,-4.94922 -1.37485,-1.22209 -3.30066,-1.83203 -5.7754,-1.83203 z m 62.22852,0 c -2.01644,0 -4.15516,0.73271 -6.41602,2.19922 l -0.0449,-1.74219 h -7.4707 v 2.98047 h 3.11719 v 12.18945 h -3.11719 v 2.97852 h 10.44922 v -2.97852 h -2.79492 v -10.72461 c 1.71092,-1.03876 3.26843,-1.55664 4.67382,-1.55664 0.97767,0 1.74108,0.31935 2.29102,0.96094 0.54993,0.64159 0.82617,1.52778 0.82617,2.6582 v 8.66211 h -2.61328 v 2.97852 h 10.17383 v -2.97852 h -3.02539 v -9.4414 c 0,-1.89422 -0.56489,-3.39035 -1.69531,-4.49024 -1.09988,-1.13042 -2.55095,-1.69531 -4.35352,-1.69531 z m 19.44922,0.0449 c -1.74147,0 -3.28461,0.38268 -4.62891,1.14649 -1.34428,0.73324 -2.3983,1.81795 -3.16211,3.2539 -0.7638,1.4054 -1.14453,3.06936 -1.14453,4.99414 0,1.92478 0.38073,3.5907 1.14453,4.9961 0.79436,1.4054 1.8647,2.4901 3.20899,3.2539 1.37484,0.76381 2.93236,1.14649 4.67383,1.14649 2.13864,0 4.04815,-0.62823 5.72851,-1.88086 v 2.0625 c 0,1.6498 -0.47281,2.88797 -1.41992,3.71289 -0.94711,0.8249 -2.30806,1.23633 -4.08008,1.23633 -1.68037,0 -3.66563,-0.35004 -5.95703,-1.05274 l -0.7793,3.16211 c 2.53582,0.8249 4.94883,1.23633 7.24024,1.23633 2.933,0 5.25588,-0.73273 6.9668,-2.19922 1.71091,-1.43595 2.5664,-3.61973 2.5664,-6.55273 v -15.12305 h 2.79492 v -2.98047 h -7.24023 v 1.65039 c -0.7638,-0.61104 -1.68068,-1.10017 -2.75,-1.4668 -1.06933,-0.39718 -2.12334,-0.5957 -3.16211,-0.5957 z m -45.77734,0.41211 v 2.98047 h 3.07226 v 12.18945 h -3.11719 v 2.97852 h 10.58594 v -2.97852 h -2.93164 v -15.16992 z m -124.36722,2.6582 c 1.4054,0 2.5372,0.44407 3.3926,1.33008 0.8555,0.85546 1.2832,2.03225 1.2832,3.5293 h -9.7617 c 0.1833,-1.49705 0.7338,-2.67384 1.6504,-3.5293 0.9165,-0.88601 2.0607,-1.33008 3.4355,-1.33008 z m 67.93753,0 c 1.40534,0 2.53514,0.44407 3.39062,1.33008 0.85548,0.85546 1.28321,2.03225 1.28321,3.5293 h -9.76172 c 0.18326,-1.49705 0.73385,-2.67384 1.65039,-3.5293 0.91662,-0.88601 2.06264,-1.33008 3.4375,-1.33008 z m 103.26172,0.23047 c 1.5887,0 3.16254,0.5342 4.7207,1.60352 l 0.0449,9.07422 c -1.40538,0.97767 -2.90152,1.46679 -4.49023,1.46679 -1.61926,0 -2.94952,-0.51982 -3.98828,-1.55859 -1.03878,-1.03877 -1.5586,-2.48984 -1.5586,-4.35352 0,-1.95532 0.47476,-3.48411 1.42188,-4.58398 0.97767,-1.09987 2.2609,-1.64844 3.84961,-1.64844 z m -60.41993,0.0918 c 1.52761,0 3.04006,0.5035 4.53711,1.51172 v 9.34961 c -1.34428,0.91656 -2.76661,1.37304 -4.26367,1.37304 -1.61926,0 -2.96193,-0.51786 -4.03125,-1.55664 -1.03882,-1.06932 -1.55859,-2.53671 -1.55859,-4.40039 0,-1.98588 0.48912,-3.52903 1.4668,-4.6289 0.97768,-1.09988 2.2609,-1.64844 3.8496,-1.64844 z m -144.88282,0.0449 c 1.5887,0 2.8719,0.55052 3.8496,1.65039 1.0082,1.06932 1.5137,2.53477 1.5137,4.39844 0,1.95534 -0.5198,3.46779 -1.5586,4.53711 -1.0081,1.06933 -2.3365,1.60351 -3.9863,1.60351 -1.4971,0 -2.8724,-0.45648 -4.125,-1.37304 v -9.30469 c 0.6415,-0.48883 1.3599,-0.85519 2.1543,-1.09961 0.7944,-0.27497 1.5108,-0.41211 2.1523,-0.41211 z m -60.7539,6.91992 c 1.2221,0 2.536,0.16784 3.9414,0.50391 v 3.80469 c -1.5276,1.09987 -3.0707,1.64843 -4.6289,1.64843 -0.9777,0 -1.741,-0.25795 -2.291,-0.77734 -0.5499,-0.54994 -0.8262,-1.25391 -0.8262,-2.10937 0,-1.06932 0.352,-1.84711 1.0547,-2.33594 0.7333,-0.48884 1.6501,-0.73438 2.75,-0.73438 z m 182.7754,0 c 1.22208,0 2.53606,0.16784 3.9414,0.50391 v 3.80469 c -1.52754,1.09987 -3.07071,1.64843 -4.6289,1.64843 -0.97768,0 -1.74108,-0.25795 -2.29102,-0.77734 -0.54994,-0.54994 -0.82617,-1.25391 -0.82617,-2.10937 0,-1.06932 0.35198,-1.84711 1.05469,-2.33594 0.73328,-0.48884 1.65012,-0.73438 2.75,-0.73438 z m -155.6973,26.14649 v 15.70312 h 1.8575 v -15.70312 z m 76.3789,0 c -1.2714,0 -2.1998,0.2906 -2.7851,0.86914 -0.5852,0.57182 -0.8789,1.48615 -0.8789,2.74414 v 0.78711 h -1.7754 v 1.44336 h 1.7754 v 9.85937 h 1.8672 v -9.85937 h 3.0566 v -1.44336 h -3.0566 v -0.99805 c 0,-0.69963 0.1272,-1.18404 0.3828,-1.45312 0.2623,-0.2691 0.7265,-0.4043 1.3926,-0.4043 h 1.7753 v -1.54492 z m 39.0703,0 v 15.70312 h 1.86724 v -6.38867 c 0,-1.10326 0.28865,-1.97419 0.86718,-2.61328 0.57855,-0.63909 1.36875,-0.95899 2.3711,-0.95899 0.83417,10e-6 1.45987,0.26543 1.87695,0.79688 0.41709,0.53145 0.62696,1.33272 0.62695,2.40234 v 6.76172 h 1.85547 v -6.82226 c 0,-1.56072 -0.33205,-2.74049 -0.99804,-3.54102 -0.666,-0.80727 -1.64892,-1.21094 -2.94727,-1.21094 -0.78709,0 -1.48244,0.16755 -2.08789,0.50391 -0.59872,0.33636 -1.12046,0.84398 -1.56445,1.52344 v -6.15625 z m 45.60161,0 v 15.70312 h 1.85547 v -15.70312 z m 18.33399,0 v 15.70312 h 1.86718 v -1.69531 c 0.39019,0.67272 0.88067,1.17232 1.47266,1.50195 0.59873,0.32291 1.31318,0.48438 2.14063,0.48438 1.37235,0 2.48549,-0.54496 3.33984,-1.63477 0.86109,-1.0898 1.29101,-2.52284 1.29101,-4.29883 1e-5,-1.77598 -0.42992,-3.20706 -1.29101,-4.29687 -0.85435,-1.08981 -1.96749,-1.63477 -3.33984,-1.63477 -0.82745,0 -1.5419,0.16451 -2.14063,0.49414 -0.59199,0.32291 -1.08247,0.81947 -1.47266,1.49219 v -6.11523 z m 55.00586,0 v 2.35156 h 1.85546 v -2.35156 z m 9.69726,0 c -1.27144,0 -2.19988,0.2906 -2.78515,0.86914 -0.58527,0.57182 -0.87891,1.48615 -0.87891,2.74414 v 0.78711 h -1.77539 v 1.44336 h 1.77539 v 9.85937 h 1.86719 v -9.85937 h 3.05859 v -1.44336 h -3.05859 v -0.99805 c 0,-0.69963 0.12718,-1.18404 0.38281,-1.45312 0.26236,-0.2691 0.72658,-0.4043 1.39258,-0.4043 h 1.77734 v -1.54492 z m 13.84375,0 c -1.27144,0 -2.19989,0.2906 -2.78515,0.86914 -0.58527,0.57182 -0.87696,1.48615 -0.87696,2.74414 v 0.78711 h -1.77734 v 1.44336 h 1.77734 v 9.85937 h 1.86719 v -9.85937 h 3.05664 v -1.44336 h -3.05664 v -0.99805 c 0,-0.69963 0.12718,-1.18404 0.38281,-1.45312 0.26236,-0.2691 0.72658,-0.4043 1.39258,-0.4043 h 1.77539 v -1.54492 z m 65.83203,0 v 15.70312 h 1.86719 v -6.38867 c 0,-1.10326 0.2906,-1.97419 0.86914,-2.61328 0.57853,-0.63909 1.36873,-0.95899 2.37109,-0.95899 0.83418,10e-6 1.45987,0.26543 1.87696,0.79688 0.41708,0.53145 0.625,1.33272 0.625,2.40234 v 6.76172 h 1.85742 v -6.82226 c 0,-1.56072 -0.33401,-2.74049 -1,-3.54102 -0.66599,-0.80727 -1.64891,-1.21094 -2.94727,-1.21094 -0.78708,0 -1.48243,0.16755 -2.08789,0.50391 -0.59872,0.33636 -1.12046,0.84398 -1.56445,1.52344 v -6.15625 z m -378.1113,0.36328 c -1.6482,0 -2.9449,0.38348 -3.8867,1.15039 -0.9351,0.7669 -1.4024,1.81645 -1.4024,3.14844 0,1.15035 0.3401,2.0495 1.0195,2.69531 0.6794,0.64581 1.7804,1.11915 3.3008,1.42187 l 1.2403,0.24219 c 1.0359,0.20854 1.7797,0.52237 2.2304,0.93946 0.4575,0.41708 0.6856,0.99437 0.6856,1.73437 0,0.84763 -0.3168,1.50154 -0.9492,1.95898 -0.6324,0.45745 -1.5296,0.68555 -2.6934,0.68555 -0.7669,0 -1.5479,-0.11807 -2.3418,-0.35351 -0.7938,-0.23546 -1.6042,-0.58466 -2.4316,-1.04883 v 2.09961 c 0.861,0.31618 1.6916,0.55339 2.4921,0.71484 0.8073,0.16145 1.5682,0.24219 2.2813,0.24219 1.8903,0 3.3234,-0.37546 4.2988,-1.12891 0.9822,-0.75345 1.4727,-1.86051 1.4727,-3.32031 0,-1.22435 -0.3633,-2.19924 -1.0899,-2.92578 -0.7198,-0.73326 -1.839,-1.24588 -3.3593,-1.53516 l -1.2305,-0.25195 c -1.1167,-0.20854 -1.8777,-0.48004 -2.2813,-0.81641 -0.3968,-0.34308 -0.5957,-0.84768 -0.5957,-1.51367 0,-0.79381 0.2998,-1.40734 0.8985,-1.83789 0.6054,-0.43054 1.4622,-0.64453 2.5722,-0.64453 0.6391,0 1.3021,0.0899 1.9883,0.27148 0.6862,0.18164 1.4159,0.45813 2.1895,0.82813 v -1.98828 c -0.767,-0.25564 -1.5168,-0.44641 -2.25,-0.57422 -0.7332,-0.12782 -1.4518,-0.19336 -2.1582,-0.19336 z m 206.9824,0 c -1.64817,0 -2.94296,0.38348 -3.88477,1.15039 -0.93509,0.7669 -1.40234,1.81645 -1.40234,3.14844 0,1.15035 0.33812,2.0495 1.01758,2.69531 0.67944,0.64581 1.78042,1.11915 3.30078,1.42187 l 1.24023,0.24219 c 1.03599,0.20854 1.77975,0.52237 2.23047,0.93946 0.45745,0.41708 0.68555,0.99437 0.68555,1.73437 0,0.84763 -0.31492,1.50154 -0.94727,1.95898 -0.63236,0.45745 -1.5315,0.68555 -2.69531,0.68555 -0.76691,0 -1.54603,-0.11807 -2.33984,-0.35351 -0.79381,-0.23546 -1.60419,-0.58466 -2.43165,-1.04883 v 2.09961 c 0.8611,0.31618 1.69166,0.55339 2.49219,0.71484 0.80727,0.16145 1.56621,0.24219 2.2793,0.24219 1.89034,0 3.32337,-0.37546 4.29883,-1.12891 0.98216,-0.75345 1.47461,-1.86051 1.47461,-3.32031 0,-1.22435 -0.36331,-2.19924 -1.08985,-2.92578 -0.7198,-0.73326 -1.84097,-1.24588 -3.36133,-1.53516 l -1.23046,-0.25195 c -1.11672,-0.20854 -1.87762,-0.48004 -2.28125,-0.81641 -0.39691,-0.34308 -0.59571,-0.84768 -0.59571,-1.51367 0,-0.79381 0.29972,-1.40734 0.89844,-1.83789 0.60545,-0.43054 1.46423,-0.64453 2.57422,-0.64453 0.63908,0 1.30015,0.0899 1.98633,0.27148 0.68617,0.18164 1.41777,0.45813 2.1914,0.82813 v -1.98828 c -0.7669,-0.25564 -1.51868,-0.44641 -2.25195,-0.57422 -0.73326,-0.12782 -1.45184,-0.19336 -2.1582,-0.19336 z m 52.10937,0 c -1.64816,0 -2.9449,0.38348 -3.88672,1.15039 -0.93508,0.7669 -1.40234,1.81645 -1.40234,3.14844 0,1.15035 0.34008,2.0495 1.01953,2.69531 0.67945,0.64581 1.78043,1.11915 3.30078,1.42187 l 1.24024,0.24219 c 1.03599,0.20854 1.77974,0.52237 2.23046,0.93946 0.45746,0.41708 0.68555,0.99437 0.68555,1.73437 0,0.84763 -0.3149,1.50154 -0.94726,1.95898 -0.63236,0.45745 -1.53151,0.68555 -2.69532,0.68555 -0.7669,0 -1.54798,-0.11807 -2.34179,-0.35351 -0.79381,-0.23546 -1.6042,-0.58466 -2.43164,-1.04883 v 2.09961 c 0.86108,0.31618 1.69165,0.55339 2.49218,0.71484 0.80727,0.16145 1.56817,0.24219 2.28125,0.24219 1.89035,0 3.32339,-0.37546 4.29883,-1.12891 0.98217,-0.75345 1.47266,-1.86051 1.47266,-3.32031 0,-1.22435 -0.36331,-2.19924 -1.08985,-2.92578 -0.71981,-0.73326 -1.83902,-1.24588 -3.35937,-1.53516 l -1.23047,-0.25195 c -1.11672,-0.20854 -1.87762,-0.48004 -2.28125,-0.81641 -0.39691,-0.34308 -0.5957,-0.84768 -0.5957,-1.51367 0,-0.79381 0.29971,-1.40734 0.89844,-1.83789 0.60545,-0.43054 1.46227,-0.64453 2.57226,-0.64453 0.63909,0 1.30211,0.0899 1.98828,0.27148 0.68618,0.18164 1.41583,0.45813 2.18946,0.82813 v -1.98828 c -0.76691,-0.25564 -1.51675,-0.44641 -2.25,-0.57422 -0.73328,-0.12782 -1.45185,-0.19336 -2.15821,-0.19336 z m -179.74807,0.82812 v 3.20899 h -1.3633 v 1.44336 h 1.3633 v 6.13476 c 0,1.41272 0.2716,2.3876 0.8164,2.92578 0.545,0.53144 1.534,0.79883 2.9668,0.79883 h 1.9082 v -1.55468 h -1.9082 c -0.7736,-10e-6 -1.2873,-0.13218 -1.5429,-0.39454 -0.249,-0.26236 -0.375,-0.85375 -0.375,-1.77539 v -6.13476 h 3.8261 v -1.44336 h -3.8261 v -3.20899 z m 32.6934,0 v 3.20899 h -1.3613 v 1.44336 h 1.3613 v 6.13476 c 0,1.41272 0.2735,2.3876 0.8183,2.92578 0.545,0.53144 1.534,0.79883 2.9668,0.79883 h 1.9063 v -1.55468 h -1.9063 c -0.7736,-10e-6 -1.2892,-0.13218 -1.5449,-0.39454 -0.2489,-0.26236 -0.373,-0.85375 -0.373,-1.77539 v -6.13476 h 3.8242 v -1.44336 h -3.8242 v -3.20899 z m 49.6875,0 v 3.20899 h -1.3613 v 1.44336 h 1.3613 v 6.13476 c 0,1.41272 0.2734,2.3876 0.8183,2.92578 0.5449,0.53144 1.532,0.79883 2.9649,0.79883 h 1.9082 v -1.55468 h -1.9082 c -0.7736,-10e-6 -1.2873,-0.13218 -1.543,-0.39454 -0.2489,-0.26236 -0.373,-0.85375 -0.373,-1.77539 v -6.13476 h 3.8242 v -1.44336 h -3.8242 v -3.20899 z m 179.57616,0 v 3.20899 h -1.36133 v 1.44336 h 1.36133 v 6.13476 c 0,1.41272 0.27345,2.3876 0.81836,2.92578 0.5449,0.53144 1.53194,0.79883 2.96484,0.79883 h 1.9082 v -1.55468 h -1.9082 c -0.77363,-10e-6 -1.28733,-0.13218 -1.54297,-0.39454 -0.2489,-0.26236 -0.37305,-0.85375 -0.37305,-1.77539 v -6.13476 h 3.82422 v -1.44336 h -3.82422 v -3.20899 z m -328.91996,2.9375 c -0.6054,0 -1.228,0.0666 -1.8672,0.20118 -0.639,0.12781 -1.299,0.32357 -1.9785,0.58593 v 1.71485 c 0.5651,-0.30946 1.1554,-0.54255 1.7676,-0.69727 0.6121,-0.15473 1.2409,-0.23047 1.8867,-0.23047 1.0159,0 1.8031,0.23418 2.3614,0.70508 0.565,0.46418 0.8476,1.12416 0.8476,1.97852 v 0.18164 h -2.6035 c -1.6885,0 -2.9601,0.32293 -3.8145,0.96875 -0.8476,0.64581 -1.2714,1.60356 -1.2714,2.875 0,1.0898 0.34,1.96073 1.0195,2.61328 0.6862,0.6458 1.6066,0.96875 2.7637,0.96875 0.9149,0 1.6879,-0.16147 2.3203,-0.48438 0.6324,-0.32963 1.1622,-0.83726 1.5859,-1.52343 v 1.71679 h 1.8555 v -6.44922 c 0,-1.72216 -0.4037,-3.00589 -1.211,-3.85351 -0.8072,-0.84764 -2.0274,-1.27149 -3.6621,-1.27149 z m 14.1368,0 c -0.814,0 -1.5174,0.16451 -2.1094,0.49414 -0.592,0.32964 -1.0997,0.8403 -1.5235,1.53321 v -1.75586 h -1.8671 v 11.30273 h 1.8671 v -6.38867 c 0,-1.09653 0.2796,-1.96443 0.8379,-2.60351 0.5584,-0.64582 1.3113,-0.96876 2.2598,-0.96876 0.8005,0 1.3938,0.26239 1.7773,0.78711 0.3834,0.518 0.5743,1.32231 0.5743,2.41211 v 6.76172 h 1.8671 v -6.38867 c 0,-1.10326 0.2795,-1.97419 0.8379,-2.61328 0.5584,-0.63909 1.3174,-0.95899 2.2793,-0.95899 0.7872,0 1.3725,0.26239 1.7559,0.78711 0.3835,0.52472 0.5762,1.32903 0.5762,2.41211 v 6.76172 h 1.8672 v -6.82226 c 0,-1.52036 -0.3199,-2.691 -0.959,-3.51172 -0.6391,-0.82745 -1.5474,-1.24024 -2.7246,-1.24024 -0.8746,0 -1.6355,0.19685 -2.2813,0.59375 -0.6459,0.3969 -1.1999,1.01348 -1.6641,1.84766 -0.2758,-0.79381 -0.7027,-1.39932 -1.2812,-1.81641 -0.5719,-0.41708 -1.2691,-0.625 -2.0898,-0.625 z m 20.121,0 c -0.8274,0 -1.5399,0.16451 -2.1386,0.49414 -0.592,0.32291 -1.0825,0.81947 -1.4727,1.49219 v -1.71484 h -1.8672 v 15.59961 h 1.8672 v -5.99219 c 0.3902,0.67272 0.8807,1.17232 1.4727,1.50195 0.5987,0.32291 1.3112,0.48438 2.1386,0.48438 1.3724,0 2.4855,-0.54496 3.3399,-1.63477 0.8611,-1.0898 1.293,-2.52284 1.293,-4.29883 0,-1.77598 -0.4319,-3.20706 -1.293,-4.29687 -0.8544,-1.08981 -1.9675,-1.63477 -3.3399,-1.63477 z m 18.1739,0 c -1.6952,0 -3.0445,0.54496 -4.0469,1.63477 -0.9957,1.08307 -1.4922,2.54845 -1.4922,4.39844 0,1.78944 0.5248,3.20836 1.5742,4.25781 1.0562,1.04944 2.4843,1.57422 4.2871,1.57422 0.7199,0 1.4293,-0.0727 2.1289,-0.2207 0.6996,-0.14801 1.3829,-0.36395 2.0489,-0.64649 v -1.75586 c -0.6592,0.34982 -1.3253,0.6122 -1.9981,0.78711 -0.666,0.17491 -1.3553,0.26172 -2.0683,0.26172 -1.2311,0 -2.1938,-0.33205 -2.8867,-0.99805 -0.6862,-0.67272 -1.0678,-1.64761 -1.1485,-2.92578 h 8.5352 v -0.9082 c 0,-1.6818 -0.4441,-3.01088 -1.3321,-3.98633 -0.8812,-0.98217 -2.0812,-1.47266 -3.6015,-1.47266 z m 27.4062,0 c -1.6952,0 -3.0444,0.54496 -4.0469,1.63477 -0.9955,1.08307 -1.4921,2.54845 -1.4921,4.39844 0,1.78944 0.5247,3.20836 1.5742,4.25781 1.0561,1.04944 2.4861,1.57422 4.289,1.57422 0.7198,0 1.4293,-0.0727 2.1289,-0.2207 0.6997,-0.14801 1.3809,-0.36395 2.0469,-0.64649 v -1.75586 c -0.6593,0.34982 -1.3254,0.6122 -1.998,0.78711 -0.666,0.17491 -1.3552,0.26172 -2.0684,0.26172 -1.231,0 -2.1918,-0.33205 -2.8847,-0.99805 -0.6862,-0.67272 -1.0697,-1.64761 -1.1504,-2.92578 h 8.5371 v -0.9082 c 0,-1.6818 -0.4441,-3.01088 -1.3321,-3.98633 -0.8812,-0.98217 -2.0831,-1.47266 -3.6035,-1.47266 z m 46.1856,0 c -1.6212,0 -2.8928,0.52478 -3.8145,1.57422 -0.9149,1.04945 -1.3711,2.50072 -1.3711,4.35742 0,1.84998 0.4562,3.3032 1.3711,4.35938 0.9217,1.04944 2.1933,1.57422 3.8145,1.57422 1.6145,0 2.883,-0.52478 3.8047,-1.57422 0.9216,-1.05618 1.3828,-2.5094 1.3828,-4.35938 0,-1.8567 -0.4612,-3.30797 -1.3828,-4.35742 -0.9217,-1.04944 -2.1902,-1.57422 -3.8047,-1.57422 z m 13.8554,0 c -0.8946,0 -1.6555,0.16755 -2.2812,0.50391 -0.6256,0.32963 -1.1332,0.83726 -1.5234,1.52344 v -1.75586 h -1.8672 v 11.30273 h 1.8672 v -5.95508 c 0,-1.27817 0.2795,-2.2561 0.8378,-2.93554 0.5652,-0.68618 1.3725,-1.0293 2.4219,-1.0293 0.296,0 0.5645,0.0293 0.8067,0.0898 0.2488,0.0538 0.4789,0.14258 0.6875,0.26368 l -0.012,-1.90821 c -0.1882,-0.0337 -0.3589,-0.0569 -0.5136,-0.0703 -0.1548,-0.0201 -0.2961,-0.0293 -0.4239,-0.0293 z m 35.45902,0 c -1.69525,0 -3.04451,0.54496 -4.04687,1.63477 -0.99563,1.08307 -1.49219,2.54845 -1.49219,4.39844 0,1.78944 0.52282,3.20836 1.57227,4.25781 1.05616,1.04944 2.48617,1.57422 4.28906,1.57422 0.71981,0 1.42927,-0.0727 2.12891,-0.2207 0.69962,-0.14801 1.38283,-0.36395 2.04882,-0.64649 v -1.75586 c -0.65926,0.34982 -1.32532,0.6122 -1.99804,0.78711 -0.666,0.17491 -1.35527,0.26172 -2.06836,0.26172 -1.23108,0 -2.19382,-0.33205 -2.88672,-0.99805 -0.68617,-0.67272 -1.06966,-1.64761 -1.15039,-2.92578 h 8.53711 v -0.9082 c 0,-1.6818 -0.44404,-3.01088 -1.33203,-3.98633 -0.88127,-0.98217 -2.08122,-1.47266 -3.60157,-1.47266 z m 37.37696,0 c -0.60545,0 -1.22811,0.0666 -1.86719,0.20118 -0.63909,0.12781 -1.29907,0.32357 -1.97851,0.58593 v 1.71485 c 0.56508,-0.30946 1.15344,-0.54255 1.76562,-0.69727 0.61217,-0.15473 1.24091,-0.23047 1.88672,-0.23047 1.01581,0 1.80297,0.23418 2.36133,0.70508 0.56508,0.46418 0.84765,1.12416 0.84765,1.97852 v 0.18164 h -2.60351 c -1.68853,0 -2.95815,0.32293 -3.8125,0.96875 -0.84764,0.64581 -1.27149,1.60356 -1.27149,2.875 0,1.0898 0.33813,1.96073 1.01758,2.61328 0.68618,0.6458 1.60855,0.96875 2.76563,0.96875 0.9149,0 1.68795,-0.16147 2.32031,-0.48438 0.63235,-0.32963 1.16016,-0.83726 1.58398,-1.52343 v 1.71679 h 1.85742 v -6.44922 c 0,-1.72216 -0.40367,-3.00589 -1.21093,-3.85351 -0.80727,-0.84764 -2.0274,-1.27149 -3.66211,-1.27149 z m 47.14453,0 c -1.69526,0 -3.04452,0.54496 -4.04688,1.63477 -0.99562,1.08307 -1.49414,2.54845 -1.49414,4.39844 0,1.78944 0.52478,3.20836 1.57422,4.25781 1.05618,1.04944 2.48617,1.57422 4.28907,1.57422 0.7198,0 1.42927,-0.0727 2.1289,-0.2207 0.69963,-0.14801 1.38284,-0.36395 2.04883,-0.64649 v -1.75586 c -0.65927,0.34982 -1.32532,0.6122 -1.99805,0.78711 -0.66599,0.17491 -1.35527,0.26172 -2.06836,0.26172 -1.23108,0 -2.19382,-0.33205 -2.88672,-0.99805 -0.68618,-0.67272 -1.06966,-1.64761 -1.15039,-2.92578 h 8.53711 v -0.9082 c 0,-1.6818 -0.44404,-3.01088 -1.33203,-3.98633 -0.88127,-0.98217 -2.08122,-1.47266 -3.60156,-1.47266 z m 13.58203,0 c -0.89472,0 -1.65562,0.16755 -2.28125,0.50391 -0.62563,0.32963 -1.13326,0.83726 -1.52344,1.52344 v -1.75586 h -1.86718 v 11.30273 h 1.86718 v -5.95508 c 0,-1.27817 0.27954,-2.2561 0.83789,-2.93554 0.56509,-0.68618 1.37243,-1.0293 2.42188,-1.0293 0.29599,0 0.56446,0.0293 0.80664,0.0898 0.24891,0.0538 0.477,0.14258 0.68555,0.26368 l -0.01,-1.90821 c -0.18837,-0.0337 -0.35895,-0.0569 -0.51367,-0.0703 -0.15473,-0.0201 -0.29601,-0.0293 -0.42383,-0.0293 z m 34.13672,0 c -1.62125,0 -2.89282,0.52478 -3.81445,1.57422 -0.9149,1.04945 -1.37305,2.50072 -1.37305,4.35742 0,1.84998 0.45815,3.3032 1.37305,4.35938 0.92163,1.04944 2.1932,1.57422 3.81445,1.57422 1.61453,0 2.88305,-0.52478 3.80469,-1.57422 0.92162,-1.05618 1.38086,-2.5094 1.38086,-4.35938 0,-1.8567 -0.45924,-3.30797 -1.38086,-4.35742 -0.92164,-1.04944 -2.19016,-1.57422 -3.80469,-1.57422 z m 13.70312,0 c -0.78708,0 -1.48244,0.16755 -2.08789,0.50391 -0.59872,0.33636 -1.12046,0.84398 -1.56445,1.52344 v -1.75586 h -1.86719 v 11.30273 h 1.86719 v -6.38867 c 0,-1.10326 0.28865,-1.97419 0.86719,-2.61328 0.57854,-0.63909 1.36874,-0.95899 2.37109,-0.95899 0.83418,10e-6 1.45987,0.26543 1.87696,0.79688 0.41709,0.53145 0.62499,1.33272 0.625,2.40234 v 6.76172 h 1.85742 v -6.82226 c 0,-1.56072 -0.33206,-2.74049 -0.99805,-3.54102 -0.66599,-0.80727 -1.64892,-1.21094 -2.94727,-1.21094 z m 25.95313,0 c -1.3858,0 -2.45553,0.28865 -3.20899,0.86719 -0.75344,0.57854 -1.1289,1.39999 -1.1289,2.46289 0,0.87454 0.25436,1.56382 0.76562,2.06836 0.51128,0.49782 1.34184,0.8672 2.49219,1.10938 l 0.64649,0.15039 c 1.15034,0.2489 1.8941,0.50825 2.23046,0.77734 0.34309,0.26909 0.51368,0.65562 0.51368,1.16016 0,0.5449 -0.23418,0.96876 -0.70508,1.27148 -0.4709,0.29599 -1.14499,0.44531 -2.01953,0.44531 -0.65254,0 -1.31057,-0.0888 -1.97657,-0.26367 -0.66599,-0.18164 -1.34312,-0.45009 -2.02929,-0.80664 v 1.91797 c 0.72653,0.23545 1.41581,0.40907 2.06836,0.52344 0.65926,0.12108 1.29298,0.18164 1.89843,0.18164 1.45308,0 2.59248,-0.3058 3.41993,-0.91797 0.83418,-0.61218 1.25195,-1.44274 1.25195,-2.49219 0,-0.92162 -0.27953,-1.63717 -0.83789,-2.14844 -0.55163,-0.51799 -1.48616,-0.91862 -2.80469,-1.20117 l -0.63672,-0.14258 c -0.99562,-0.22199 -1.65865,-0.45313 -1.98828,-0.69531 -0.32963,-0.2489 -0.49414,-0.58898 -0.49414,-1.01953 0,-0.56509 0.23005,-0.98894 0.6875,-1.27148 0.46418,-0.28255 1.1565,-0.42383 2.07813,-0.42383 0.60544,0 1.19077,0.0686 1.75585,0.20312 0.56509,0.13454 1.11005,0.33639 1.63477,0.60547 v -1.75586 c -0.51127,-0.20181 -1.07033,-0.35417 -1.67578,-0.45508 -0.60545,-0.10091 -1.25132,-0.15039 -1.9375,-0.15039 z m 12.05859,0 c -1.76252,0 -3.15216,0.52782 -4.16797,1.58399 -1.00908,1.05618 -1.51367,2.5044 -1.51367,4.34765 0,1.81635 0.50156,3.26046 1.50391,4.33008 1.00235,1.06963 2.35465,1.60352 4.05664,1.60352 0.62563,0 1.21399,-0.0606 1.76562,-0.18164 0.55836,-0.1211 1.09725,-0.30275 1.61524,-0.54492 v -1.71485 c -0.52472,0.28928 -1.05254,0.50825 -1.58399,0.65625 -0.52472,0.14128 -1.05557,0.21094 -1.59375,0.21094 -1.20417,0 -2.14064,-0.37849 -2.80664,-1.13867 -0.66599,-0.76691 -0.99804,-1.84163 -0.99804,-3.22071 0,-1.37908 0.33205,-2.44685 0.99804,-3.20703 0.666,-0.7669 1.60247,-1.15039 2.80664,-1.15039 0.53818,0 1.06903,0.0727 1.59375,0.22071 0.53145,0.14127 1.05927,0.35721 1.58399,0.64648 v -1.73633 c -0.51126,-0.23544 -1.03908,-0.40908 -1.58399,-0.52344 -0.5449,-0.12109 -1.10396,-0.18164 -1.67578,-0.18164 z m 24.35938,0 c -1.69526,0 -3.04452,0.54496 -4.04688,1.63477 -0.99563,1.08307 -1.49218,2.54845 -1.49218,4.39844 0,1.78944 0.52477,3.20836 1.57421,4.25781 1.05618,1.04944 2.48422,1.57422 4.28711,1.57422 0.71982,0 1.43124,-0.0727 2.13086,-0.2207 0.69964,-0.14801 1.38088,-0.36395 2.04688,-0.64649 v -1.75586 c -0.65927,0.34982 -1.32533,0.6122 -1.99805,0.78711 -0.66599,0.17491 -1.35527,0.26172 -2.06836,0.26172 -1.23108,0 -2.19186,-0.33205 -2.88476,-0.99805 -0.68618,-0.67272 -1.06967,-1.64761 -1.15039,-2.92578 h 8.5371 v -0.9082 c 10e-6,-1.6818 -0.44403,-3.01088 -1.33203,-3.98633 -0.88126,-0.98217 -2.08316,-1.47266 -3.60351,-1.47266 z m 13.41015,0 c -0.81398,0 -1.51542,0.16451 -2.10742,0.49414 -0.59199,0.32964 -1.10157,0.8403 -1.52539,1.53321 v -1.75586 h -1.86523 v 11.30273 h 1.86523 v -6.38867 c 0,-1.09653 0.27953,-1.96443 0.83789,-2.60351 0.55836,-0.64582 1.31318,-0.96876 2.26172,-0.96876 0.80053,0 1.39194,0.26239 1.77539,0.78711 0.38346,0.518 0.57422,1.32231 0.57422,2.41211 v 6.76172 h 1.86719 v -6.38867 c 0,-1.10326 0.27953,-1.97419 0.83789,-2.61328 0.55835,-0.63909 1.31925,-0.95899 2.28125,-0.95899 0.78708,0 1.3724,0.26239 1.75586,0.78711 0.38344,0.52472 0.57422,1.32903 0.57422,2.41211 v 6.76172 h 1.86718 v -6.82226 c 0,-1.52036 -0.3199,-2.691 -0.95898,-3.51172 -0.63909,-0.82745 -1.54736,-1.24024 -2.72461,-1.24024 -0.87454,0 -1.63544,0.19685 -2.28125,0.59375 -0.64581,0.3969 -1.19988,1.01348 -1.66406,1.84766 -0.27582,-0.79381 -0.70271,-1.39932 -1.28125,-1.81641 -0.57182,-0.41708 -1.26913,-0.625 -2.08985,-0.625 z m 19.44532,0 c -1.69526,0 -3.04452,0.54496 -4.04688,1.63477 -0.99562,1.08307 -1.49219,2.54845 -1.49219,4.39844 0,1.78944 0.52478,3.20836 1.57422,4.25781 1.05618,1.04944 2.48618,1.57422 4.28907,1.57422 0.71981,0 1.42928,-0.0727 2.1289,-0.2207 0.69964,-0.14801 1.38088,-0.36395 2.04688,-0.64649 v -1.75586 c -0.65927,0.34982 -1.32338,0.6122 -1.9961,0.78711 -0.666,0.17491 -1.35723,0.26172 -2.07031,0.26172 -1.23108,0 -2.19186,-0.33205 -2.88476,-0.99805 -0.68618,-0.67272 -1.06967,-1.64761 -1.1504,-2.92578 h 8.53711 v -0.9082 c 0,-1.6818 -0.44403,-3.01088 -1.33203,-3.98633 -0.88126,-0.98217 -2.08317,-1.47266 -3.60351,-1.47266 z m -330.02925,0.27149 4.0156,5.38867 -4.3887,5.91406 h 2.1895 l 3.289,-4.4414 3.2891,4.4414 h 2.1894 l -4.2988,-5.80273 4.0879,-5.5 h -2.1895 l -2.998,4.02734 -2.9961,-4.02734 z m 189.87886,0 v 11.30273 h 1.85546 v -11.30273 z m -242.55276,1.28125 c 0.9822,0 1.7522,0.39151 2.3106,1.17187 0.5651,0.77363 0.8476,1.84141 0.8476,3.20703 0,1.36563 -0.2825,2.44035 -0.8476,3.22071 -0.5584,0.77362 -1.3284,1.16015 -2.3106,1.16015 -0.9822,0 -1.7572,-0.38653 -2.3222,-1.16015 -0.5584,-0.78036 -0.836,-1.85508 -0.836,-3.22071 0,-1.36562 0.2776,-2.4334 0.836,-3.20703 0.565,-0.78036 1.34,-1.17187 2.3222,-1.17187 z m 192.57229,0 c 0.98217,0 1.75219,0.39151 2.31054,1.17187 0.56509,0.77363 0.84766,1.84141 0.84766,3.20703 0,1.36563 -0.28257,2.44035 -0.84766,3.22071 -0.55835,0.77362 -1.32837,1.16015 -2.31054,1.16015 -0.98218,0 -1.75523,-0.38653 -2.32031,-1.16015 -0.55836,-0.78036 -0.8379,-1.85508 -0.8379,-3.22071 0,-1.36562 0.27954,-2.4334 0.8379,-3.20703 0.56508,-0.78036 1.33813,-1.17187 2.32031,-1.17187 z m -173.92579,0.0215 c 0.9149,0 1.6496,0.30276 2.2012,0.90821 0.5584,0.60545 0.8441,1.41584 0.8574,2.43164 l -6.6191,0.01 c 0.094,-1.0629 0.4494,-1.88739 1.0683,-2.47265 0.6256,-0.58527 1.4562,-0.87696 2.4922,-0.87696 z m 27.4082,0 c 0.9149,0 1.6476,0.30276 2.1992,0.90821 0.5585,0.60545 0.8441,1.41584 0.8574,2.43164 l -6.6191,0.01 c 0.094,-1.0629 0.4495,-1.88739 1.0684,-2.47265 0.6256,-0.58527 1.4581,-0.87696 2.4941,-0.87696 z m 46.1641,0 c 0.9889,0 1.773,0.3926 2.3515,1.17969 0.5786,0.78035 0.8672,1.83902 0.8672,3.17773 0,1.34544 -0.2886,2.4091 -0.8672,3.18946 -0.5785,0.78036 -1.3626,1.16992 -2.3515,1.16992 -1.0024,0 -1.7926,-0.38652 -2.3711,-1.16016 -0.5718,-0.78035 -0.8574,-1.84704 -0.8574,-3.19922 0,-1.35216 0.2886,-2.41386 0.8671,-3.1875 0.5786,-0.78035 1.3658,-1.16992 2.3614,-1.16992 z m 49.33396,0 c 0.9149,0 1.64954,0.30276 2.20117,0.90821 0.55835,0.60545 0.84395,1.41584 0.85742,2.43164 l -6.62109,0.01 c 0.0942,-1.0629 0.45141,-1.88739 1.07031,-2.47265 0.62563,-0.58527 1.45619,-0.87696 2.49219,-0.87696 z m 84.52148,0 c 0.91491,0 1.64759,0.30276 2.19922,0.90821 0.55841,0.60545 0.84402,1.41584 0.85742,2.43164 l -6.61914,0.01 c 0.0942,-1.0629 0.45141,-1.88739 1.07031,-2.47265 0.62563,-0.58527 1.4562,-0.87696 2.49219,-0.87696 z m 47.69922,0 c 0.9889,0 1.77302,0.3926 2.35156,1.17969 0.57854,0.78035 0.86719,1.83902 0.86719,3.17773 0,1.34544 -0.28865,2.4091 -0.86719,3.18946 -0.57854,0.78036 -1.36266,1.16992 -2.35156,1.16992 -1.00235,0 -1.79256,-0.38652 -2.37109,-1.16016 -0.57182,-0.78035 -0.85743,-1.84704 -0.85743,-3.19922 0,-1.35216 0.28865,-2.41386 0.86719,-3.1875 0.57855,-0.78035 1.36571,-1.16992 2.36133,-1.16992 z m 76.09375,0 c 0.91489,0 1.64953,0.30276 2.20117,0.90821 0.55841,0.60545 0.84402,1.41584 0.85742,2.43164 l -6.61914,0.01 c 0.0942,-1.0629 0.44946,-1.88739 1.06836,-2.47265 0.62563,-0.58527 1.4562,-0.87696 2.49219,-0.87696 z m 32.85742,0 c 0.91491,0 1.64759,0.30276 2.19922,0.90821 0.55841,0.60545 0.84402,1.41584 0.85742,2.43164 l -6.61914,0.01 c 0.0942,-1.0629 0.44945,-1.88739 1.06836,-2.47265 0.62563,-0.58527 1.45816,-0.87696 2.49414,-0.87696 z m -182.92773,3.50977 v 1.65625 h 5.43945 v -1.65625 z m -232.4316,0.80859 h 1.8476 v 0.41406 c 0,1.2109 -0.3138,2.18275 -0.9394,2.91602 -0.6189,0.72653 -1.4434,1.08984 -2.4727,1.08984 -0.7467,0 -1.3381,-0.19272 -1.7754,-0.57617 -0.4305,-0.39018 -0.6465,-0.91495 -0.6465,-1.57422 0,-0.82744 0.2906,-1.41277 0.8692,-1.75586 0.5785,-0.34308 1.617,-0.51367 3.1172,-0.51367 z m 212.7148,0 h 1.8457 v 0.41406 c 0,1.2109 -0.31186,2.18275 -0.9375,2.91602 -0.6189,0.72653 -1.44339,1.08984 -2.47265,1.08984 -0.74672,0 -1.33813,-0.19272 -1.77539,-0.57617 -0.43054,-0.39018 -0.64649,-0.91495 -0.64649,-1.57422 0,-0.82744 0.28866,-1.41277 0.86719,-1.75586 0.57855,-0.34308 1.61897,-0.51367 3.11914,-0.51367 z m 210.86719,3.11719 v 2.56445 h 2.1289 v -2.56445 z"
       id="path1538" />
  </g>
</svg>
