<?xml version="1.0" encoding="UTF-8" standalone="no"?>
<!-- Created with Inkscape (http://www.inkscape.org/) -->

<svg
   xmlns:dc="http://purl.org/dc/elements/1.1/"
   xmlns:cc="http://creativecommons.org/ns#"
   xmlns:rdf="http://www.w3.org/1999/02/22-rdf-syntax-ns#"
   xmlns:svg="http://www.w3.org/2000/svg"
   xmlns="http://www.w3.org/2000/svg"
   xmlns:sodipodi="http://sodipodi.sourceforge.net/DTD/sodipodi-0.dtd"
   xmlns:inkscape="http://www.inkscape.org/namespaces/inkscape"
   width="500"
   height="89.999992"
   viewBox="0 0 499.99999 89.999995"
   version="1.1"
   id="svg4014"
   inkscape:version="0.92.3 (2405546, 2018-03-11)"
   sodipodi:docname="font-preview-modern.svg">
  <defs
     id="defs4008" />
  <sodipodi:namedview
     id="base"
     pagecolor="#ffffff"
     bordercolor="#666666"
     borderopacity="1.0"
     inkscape:pageopacity="0.0"
     inkscape:pageshadow="2"
     inkscape:zoom="0.35"
     inkscape:cx="1122.8572"
     inkscape:cy="-189.28572"
     inkscape:document-units="px"
     inkscape:current-layer="layer1"
     showgrid="false"
     fit-margin-top="0"
     fit-margin-left="0"
     fit-margin-right="0"
     fit-margin-bottom="0"
     showborder="false"
     inkscape:window-width="1366"
     inkscape:window-height="705"
     inkscape:window-x="-8"
     inkscape:window-y="-8"
     inkscape:window-maximized="1" />
  <metadata
     id="metadata4011">
    <rdf:RDF>
      <cc:Work
         rdf:about="">
        <dc:format>image/svg+xml</dc:format>
        <dc:type
           rdf:resource="http://purl.org/dc/dcmitype/StillImage" />
        <dc:title></dc:title>
      </cc:Work>
    </rdf:RDF>
  </metadata>
  <g
     inkscape:label="Layer 1"
     inkscape:groupmode="layer"
     id="layer1"
     transform="translate(1187.1429,-283.23394)">
    <rect
       y="283.30359"
       x="-1187.0732"
       height="89.860703"
       width="499.86072"
       id="rect929"
       style="opacity:1;fill:none;fill-opacity:1;stroke:#000000;stroke-width:0.13929218;stroke-miterlimit:4;stroke-dasharray:none;stroke-opacity:1" />
    <path
       inkscape:connector-curvature="0"
       style="font-style:normal;font-variant:normal;font-weight:600;font-stretch:normal;font-size:42.66666794px;line-height:100%;font-family:Montserrat;-inkscape-font-specification:'Montserrat Semi-Bold';letter-spacing:0.0125px;word-spacing:0px;fill:#000000;fill-opacity:1;stroke:none;stroke-width:0.86183453px;stroke-linecap:butt;stroke-linejoin:miter;stroke-opacity:1"
       d="m -916.74436,294.80201 c -0.85801,0 -1.56898,0.27122 -2.13281,0.81054 -0.53932,0.5148 -0.8086,1.16281 -0.8086,1.94727 0,0.75994 0.26928,1.4099 0.8086,1.94922 0.56383,0.53932 1.2748,0.81054 2.13281,0.81054 0.88252,0 1.5935,-0.27122 2.13281,-0.81054 0.53932,-0.56383 0.8086,-1.24962 0.8086,-2.0586 0,-0.75995 -0.28187,-1.38472 -0.84571,-1.875 -0.53932,-0.5148 -1.2377,-0.77343 -2.0957,-0.77343 z m -145.74414,1.10351 v 27.28516 h 4.5957 v -27.28516 z m 132.77148,0 v 10.08789 c -0.55677,-0.63267 -1.18765,-1.16024 -1.91211,-1.55664 -1.29926,-0.73543 -2.76964,-1.10351 -4.41211,-1.10351 -1.8876,0 -3.59142,0.41651 -5.11132,1.25 -1.49538,0.83348 -2.67325,1.99876 -3.53125,3.49414 -0.85801,1.49538 -1.28711,3.26022 -1.28711,5.29492 0,2.03469 0.4291,3.79954 1.28711,5.29492 0.858,1.49538 2.03587,2.67325 3.53125,3.53125 1.5199,0.83349 3.22372,1.25 5.11132,1.25 1.6915,0 3.18707,-0.36808 4.48633,-1.10352 0.77987,-0.44143 1.44476,-1.03188 2.02149,-1.73828 v 2.58399 h 4.375 v -27.28516 z m -233.00198,1.17774 c -2.3534,0 -4.3033,0.35548 -5.8477,1.0664 -1.5198,0.6864 -2.6599,1.61823 -3.4199,2.79492 -0.7354,1.15218 -1.1035,2.4269 -1.1035,3.82422 0,1.37281 0.2819,2.5003 0.8457,3.38281 0.5639,0.88252 1.2874,1.5935 2.1699,2.13282 0.907,0.5148 1.8999,0.94391 2.9785,1.28711 1.1032,0.31869 2.1949,0.60056 3.2735,0.8457 1.1031,0.24515 2.096,0.51442 2.9785,0.80859 0.9071,0.26966 1.6413,0.64838 2.2051,1.13868 0.5638,0.46577 0.8457,1.09249 0.8457,1.87695 0,0.63737 -0.1957,1.21371 -0.5879,1.72851 -0.3922,0.4903 -1.0044,0.88161 -1.8379,1.17579 -0.8335,0.29417 -1.9252,0.4414 -3.2734,0.4414 -1.5935,0 -3.15,-0.26927 -4.67,-0.80859 -1.5198,-0.53932 -2.7946,-1.21447 -3.8242,-2.02344 l -1.6543,3.71484 c 1.0786,0.90703 2.5364,1.65385 4.375,2.24219 1.8386,0.56384 3.7633,0.84571 5.7735,0.84571 2.3533,-10e-6 4.3032,-0.3429 5.8476,-1.0293 1.5445,-0.71092 2.6845,-1.64274 3.4199,-2.79492 0.76,-1.1767 1.1387,-2.45142 1.1387,-3.82422 0,-1.3483 -0.2818,-2.46319 -0.8457,-3.34571 -0.5393,-0.88252 -1.261,-1.5809 -2.168,-2.0957 -0.8825,-0.51481 -1.8753,-0.93131 -2.9785,-1.25 -1.0786,-0.31869 -2.1703,-0.60056 -3.2734,-0.8457 -1.1031,-0.26966 -2.1086,-0.54089 -3.0156,-0.81055 -0.8826,-0.26966 -1.6062,-0.63579 -2.17,-1.10156 -0.5393,-0.49029 -0.8086,-1.12765 -0.8086,-1.91211 0,-0.66189 0.185,-1.25082 0.5528,-1.76563 0.3922,-0.5148 0.9918,-0.93131 1.8008,-1.25 0.8334,-0.31869 1.9125,-0.47851 3.2363,-0.47851 1.1277,0 2.3036,0.17242 3.5293,0.51562 1.2258,0.31869 2.4143,0.82142 3.5664,1.50782 l 1.5078,-3.71485 c -1.1276,-0.73542 -2.4508,-1.29917 -3.9707,-1.6914 -1.5199,-0.39224 -3.0513,-0.58789 -4.5957,-0.58789 z m 144.2988,0.36718 v 25.74024 h 4.7793 v -11.03125 h 13.3125 v 11.03125 h 4.77935 v -25.74024 h -4.77935 v 10.62696 h -13.3125 v -10.62696 z m -122.8535,5.88282 c -1.5689,0 -3.0897,0.20826 -4.5605,0.625 -1.4464,0.39223 -2.6959,0.99376 -3.75,1.80273 l 1.8007,3.3457 c 0.7354,-0.61285 1.6315,-1.09038 2.6856,-1.43359 1.0787,-0.3432 2.1683,-0.51563 3.2715,-0.51563 1.6424,0 2.8687,0.38068 3.6777,1.14063 0.809,0.73543 1.2129,1.77671 1.2129,3.125 v 0.29492 h -5.0742 c -1.9857,0 -3.5781,0.25668 -4.7793,0.77149 -1.2012,0.5148 -2.072,1.21318 -2.6113,2.0957 -0.5148,0.88252 -0.7735,1.87537 -0.7735,2.97851 0,1.12767 0.2945,2.14571 0.8828,3.05274 0.6129,0.88252 1.4711,1.5809 2.5743,2.0957 1.1032,0.4903 2.3904,0.73633 3.8613,0.73633 1.7404,0 3.175,-0.31965 4.3027,-0.95703 0.8007,-0.44293 1.4176,-1.01744 1.875,-1.70899 v 2.40821 h 4.3399 v -11.50977 c 0,-2.84366 -0.7846,-4.93881 -2.3536,-6.28711 -1.5444,-1.3728 -3.7384,-2.06054 -6.582,-2.06054 z m 25.6563,0 c -1.618,0 -3.0651,0.33225 -4.3399,0.99414 -0.8333,0.44117 -1.5237,1.03068 -2.0957,1.74414 v -2.51758 h -4.3769 v 19.63672 h 4.5976 v -9.96485 c 0,-1.32378 0.2083,-2.41543 0.625,-3.27343 0.4412,-0.85802 1.0408,-1.50797 1.8008,-1.94922 0.7845,-0.44126 1.6805,-0.66211 2.6855,-0.66211 1.4218,0 2.5115,0.4291 3.2715,1.28711 0.76,0.858 1.1407,2.15792 1.1407,3.89843 v 10.66407 h 4.5957 v -9.96485 c 0,-1.32378 0.2083,-2.41543 0.625,-3.27343 0.4412,-0.85802 1.0427,-1.50797 1.8027,-1.94922 0.7844,-0.44126 1.6785,-0.66211 2.6836,-0.66211 1.4218,0 2.5134,0.4291 3.2734,1.28711 0.7599,0.858 1.1406,2.15792 1.1406,3.89843 v 10.66407 h 4.5958 v -11.25196 c 0,-1.98566 -0.3429,-3.60328 -1.0293,-4.85351 -0.6864,-1.27475 -1.6435,-2.21917 -2.8692,-2.83203 -1.2012,-0.61286 -2.5854,-0.91992 -4.1543,-0.91992 -1.9366,0 -3.6404,0.4417 -5.1113,1.32421 -0.9086,0.54518 -1.6399,1.21664 -2.2305,1.98633 -0.4753,-0.79214 -1.0884,-1.44497 -1.8515,-1.94922 -1.3483,-0.90702 -2.9407,-1.36132 -4.7793,-1.36132 z m 38.7949,0 c -1.667,0 -3.15,0.36808 -4.4492,1.10351 -0.7904,0.43245 -1.4698,1.02267 -2.0606,1.73633 v -2.61914 h -4.375 v 26.76953 h 4.5957 v -9.54883 c 0.5614,0.63215 1.1932,1.16336 1.9121,1.57031 1.3238,0.73544 2.7835,1.10352 4.377,1.10352 1.9366,0 3.6404,-0.41651 5.1113,-1.25 1.4954,-0.83349 2.6713,-1.99877 3.5293,-3.49414 0.8825,-1.51989 1.3242,-3.29734 1.3242,-5.33203 0,-2.0347 -0.4417,-3.79954 -1.3242,-5.29492 -0.858,-1.49538 -2.0339,-2.66066 -3.5293,-3.49414 -1.4709,-0.83349 -3.1747,-1.25 -5.1113,-1.25 z m 33.5058,0 c -1.9611,0 -3.7153,0.42911 -5.2597,1.28711 -1.52,0.858 -2.721,2.04845 -3.6035,3.56835 -0.858,1.49538 -1.2871,3.22244 -1.2871,5.1836 0,1.93664 0.4416,3.66566 1.3242,5.18555 0.907,1.51989 2.1691,2.72099 3.7871,3.60351 1.6424,0.85801 3.5545,1.28711 5.7363,1.28711 1.7159,0 3.2368,-0.26927 4.5606,-0.80859 1.3483,-0.56383 2.4631,-1.36102 3.3457,-2.39063 l -2.4629,-2.83203 c -0.6864,0.73543 -1.471,1.27398 -2.3535,1.61719 -0.8826,0.3432 -1.8754,0.51562 -2.9786,0.51562 -1.2748,0 -2.4022,-0.24409 -3.3828,-0.73437 -0.9806,-0.4903 -1.7419,-1.19063 -2.2812,-2.09766 -0.3389,-0.56991 -0.5577,-1.19863 -0.6836,-1.875 h 15.3926 c 0.025,-0.22063 0.037,-0.45408 0.037,-0.69922 0.025,-0.24514 0.037,-0.46404 0.037,-0.66015 0,-2.05921 -0.4292,-3.84924 -1.2871,-5.36914 -0.8581,-1.5199 -2.034,-2.69777 -3.5293,-3.53125 -1.4954,-0.83349 -3.1992,-1.25 -5.1114,-1.25 z m 62.80281,0 c -1.96116,0 -3.71536,0.42911 -5.25977,1.28711 -1.51989,0.858 -2.72099,2.04845 -3.60351,3.56835 -0.858,1.49538 -1.28711,3.22244 -1.28711,5.1836 0,1.93664 0.4417,3.66566 1.32422,5.18555 0.90702,1.51989 2.16915,2.72099 3.78711,3.60351 1.64246,0.85801 3.55454,1.28711 5.73632,1.28711 1.71602,0 3.23677,-0.26927 4.56055,-0.80859 1.34829,-0.56383 2.46319,-1.36102 3.3457,-2.39063 l -2.46289,-2.83203 c -0.6864,0.73543 -1.47099,1.27398 -2.35351,1.61719 -0.88252,0.3432 -1.87537,0.51562 -2.97852,0.51562 -1.27474,0 -2.40223,-0.24409 -3.38281,-0.73437 -0.98057,-0.4903 -1.74194,-1.19063 -2.28125,-2.09766 -0.33887,-0.56991 -0.55765,-1.19863 -0.68359,-1.875 h 15.39257 c 0.0245,-0.22063 0.0371,-0.45408 0.0371,-0.69922 0.0245,-0.24514 0.0371,-0.46404 0.0371,-0.66015 0,-2.05921 -0.4291,-3.84924 -1.28711,-5.36914 -0.858,-1.5199 -2.03391,-2.69777 -3.52929,-3.53125 -1.49538,-0.83349 -3.19921,-1.25 -5.11133,-1.25 z m 21.24414,0 c -1.56893,0 -3.08774,0.20826 -4.5586,0.625 -1.44634,0.39223 -2.69782,0.99376 -3.75195,1.80273 l 1.80274,3.3457 c 0.73542,-0.61285 1.62946,-1.09038 2.68359,-1.43359 1.07863,-0.3432 2.17028,-0.51563 3.27344,-0.51563 1.64246,0 2.86876,0.38068 3.67773,1.14063 0.80898,0.73543 1.21289,1.77671 1.21289,3.125 v 0.29492 h -5.07422 c -1.98566,0 -3.58004,0.25668 -4.78125,0.77149 -1.2012,0.5148 -2.07201,1.21318 -2.61132,2.0957 -0.51481,0.88252 -0.77149,1.87537 -0.77149,2.97851 0,1.12767 0.29447,2.14571 0.88281,3.05274 0.61286,0.88252 1.47108,1.5809 2.57422,2.0957 1.10315,0.4903 2.39046,0.73633 3.86133,0.73633 1.74053,0 3.17312,-0.31965 4.30078,-0.95703 0.80069,-0.44293 1.41959,-1.01744 1.87696,-1.70899 v 2.40821 h 4.33789 v -11.50977 c 0,-2.84366 -0.78459,-4.93881 -2.35352,-6.28711 -1.54441,-1.3728 -3.73836,-2.06054 -6.58203,-2.06054 z m 61.99023,0 c -1.716,0 -3.23482,0.34289 -4.55859,1.02929 -0.87996,0.44828 -1.60819,1.04357 -2.20703,1.76172 v -2.57031 h -4.375 v 19.63672 h 4.5957 v -9.92774 c 0,-1.32378 0.22085,-2.41543 0.66211,-3.27343 0.46577,-0.88252 1.11573,-1.54508 1.94922,-1.98633 0.83349,-0.44126 1.78855,-0.66211 2.86719,-0.66211 1.47086,0 2.61095,0.4291 3.41992,1.28711 0.83349,0.858 1.25,2.15792 1.25,3.89843 v 10.66407 h 4.59765 v -11.25196 c 0,-1.98566 -0.35549,-3.60328 -1.0664,-4.85351 -0.71093,-1.27475 -1.69313,-2.21917 -2.94336,-2.83203 -1.22572,-0.61286 -2.62249,-0.91992 -4.19141,-0.91992 z m 22.46094,0 c -1.86309,0 -3.55628,0.39327 -5.07617,1.17773 -1.49537,0.78445 -2.68389,1.88675 -3.56641,3.30859 -0.858,1.42184 -1.28711,3.07724 -1.28711,4.96485 0,1.91212 0.42911,3.57816 1.28711,5 0.88252,1.42183 2.07104,2.53867 3.56641,3.34765 1.51989,0.78446 3.21308,1.17579 5.07617,1.17579 1.66698,0 3.16255,-0.3303 4.48633,-0.99219 0.80151,-0.4156 1.4919,-0.97809 2.0957,-1.6543 v 1.06641 c 0,1.98566 -0.50272,3.46864 -1.50781,4.44922 -1.00509,1.00508 -2.58687,1.50781 -4.74414,1.50781 -1.34829,0 -2.68403,-0.22085 -4.00781,-0.66211 -1.29927,-0.41674 -2.37833,-0.98049 -3.23633,-1.69141 l -2.0586,3.45508 c 1.10316,0.90703 2.51252,1.59477 4.22852,2.06055 1.74053,0.49028 3.51796,0.73437 5.33203,0.73437 3.43201,0 6.05508,-0.84561 7.86914,-2.53711 1.81407,-1.66698 2.7207,-4.27743 2.7207,-7.83203 v -16.6582 h -4.375 v 2.64648 c -0.65074,-0.79003 -1.41632,-1.42301 -2.3164,-1.87304 -1.32378,-0.66189 -2.81935,-0.99414 -4.48633,-0.99414 z m -44.24219,0.2207 v 19.63672 h 4.59571 v -19.63672 z m -124.25783,3.45703 c 1.1031,0 2.0727,0.24603 2.9062,0.73633 0.858,0.49028 1.5313,1.16348 2.0215,2.02148 0.3464,0.60598 0.559,1.28296 0.6485,2.02344 h -11.1602 c 0.1009,-0.73453 0.303,-1.40042 0.6211,-1.98633 0.4903,-0.88252 1.1508,-1.56831 1.9844,-2.05859 0.858,-0.4903 1.8508,-0.73633 2.9785,-0.73633 z m 62.80471,0 c 1.10314,0 2.07081,0.24603 2.9043,0.73633 0.858,0.49028 1.53119,1.16348 2.02148,2.02148 0.34628,0.60598 0.55896,1.28296 0.64844,2.02344 h -11.15821 c 0.10087,-0.73453 0.30108,-1.40042 0.61914,-1.98633 0.49029,-0.88252 1.15284,-1.56831 1.98633,-2.05859 0.858,-0.4903 1.85085,-0.73633 2.97852,-0.73633 z m -96.82421,0.2207 c 1.1031,0 2.0834,0.24604 2.9414,0.73633 0.8825,0.49029 1.5809,1.20127 2.0957,2.13281 0.5148,0.90704 0.7734,1.99673 0.7734,3.27149 0,1.25023 -0.2586,2.34189 -0.7734,3.27344 -0.5148,0.93154 -1.2132,1.64252 -2.0957,2.13281 -0.858,0.49028 -1.8383,0.73437 -2.9414,0.73437 -1.1032,0 -2.096,-0.24409 -2.9786,-0.73437 -0.8825,-0.49029 -1.5809,-1.20127 -2.0957,-2.13281 -0.5148,-0.93155 -0.7714,-2.02321 -0.7714,-3.27344 0,-1.27476 0.2566,-2.36445 0.7714,-3.27149 0.5148,-0.93154 1.2132,-1.64252 2.0957,-2.13281 0.8826,-0.49029 1.8754,-0.73633 2.9786,-0.73633 z m 141.84765,0 c 1.10314,0 2.0834,0.24604 2.9414,0.73633 0.88252,0.49029 1.5809,1.20127 2.0957,2.13281 0.53933,0.90704 0.81055,1.99673 0.81055,3.27149 0,1.25023 -0.27123,2.34189 -0.81055,3.27344 -0.5148,0.93154 -1.21318,1.64252 -2.0957,2.13281 -0.858,0.49028 -1.83826,0.73437 -2.9414,0.73437 -1.10315,0 -2.096,-0.24409 -2.97852,-0.73437 -0.858,-0.49029 -1.55638,-1.20127 -2.0957,-2.13281 -0.5148,-0.93155 -0.77149,-2.02321 -0.77149,-3.27344 0,-1.27476 0.25669,-2.36445 0.77149,-3.27149 0.53932,-0.93154 1.2377,-1.64252 2.0957,-2.13281 0.88252,-0.49029 1.87537,-0.73633 2.97852,-0.73633 z m 61.36914,0 c 1.15217,0 2.1828,0.23345 3.08984,0.69922 0.90703,0.44126 1.60542,1.09121 2.0957,1.94922 0.5148,0.83349 0.77149,1.80114 0.77149,2.9043 0,1.10314 -0.25669,2.0834 -0.77149,2.9414 -0.49028,0.83349 -1.18867,1.49604 -2.0957,1.98633 -0.90704,0.46577 -1.93767,0.69727 -3.08984,0.69727 -1.15218,0 -2.19345,-0.2315 -3.125,-0.69727 -0.90703,-0.49029 -1.61802,-1.15284 -2.13282,-1.98633 -0.49029,-0.858 -0.73437,-1.83826 -0.73437,-2.9414 0,-1.10316 0.24408,-2.07081 0.73437,-2.9043 0.5148,-0.85801 1.22579,-1.50796 2.13282,-1.94922 0.93155,-0.46577 1.97282,-0.69922 3.125,-0.69922 z m -267.55859,7.53907 h 4.7441 v 2.27929 c -0.3922,1.00509 -1.0421,1.76449 -1.9492,2.2793 -0.8825,0.5148 -1.886,0.77148 -3.0137,0.77148 -1.1767,0 -2.0978,-0.24408 -2.7598,-0.73437 -0.6618,-0.49029 -0.9921,-1.15284 -0.9921,-1.98633 0,-0.73543 0.2692,-1.3476 0.8086,-1.83789 0.5393,-0.51481 1.5932,-0.77148 3.1621,-0.77148 z m 182.00585,0 h 4.74414 v 2.27929 c -0.39223,1.00509 -1.04218,1.76449 -1.94922,2.2793 -0.88252,0.5148 -1.88797,0.77148 -3.01562,0.77148 -1.17669,0 -2.09592,-0.24408 -2.75781,-0.73437 -0.66189,-0.49029 -0.99219,-1.15284 -0.99219,-1.98633 0,-0.73543 0.26928,-1.3476 0.80859,-1.83789 0.53932,-0.51481 1.59319,-0.77148 3.16211,-0.77148 z m -208.09765,26.99804 c -1.1217,0 -2.1108,0.19243 -2.9668,0.57617 -0.8561,0.38375 -1.5286,0.92155 -2.0157,1.61524 -0.4722,0.6937 -0.7089,1.5057 -0.7089,2.43555 0,1.12171 0.3406,2.02223 1.0195,2.70117 0.6937,0.66418 1.7338,1.14427 3.1211,1.43945 l 2.3027,0.46484 c 1.0922,0.22139 1.8666,0.52445 2.3242,0.90821 0.4723,0.38374 0.709,0.89941 0.709,1.54883 0,0.81177 -0.3253,1.46888 -0.9746,1.9707 -0.6347,0.48706 -1.615,0.73047 -2.9433,0.73047 -1.0922,0 -2.0524,-0.1395 -2.879,-0.41992 -0.8265,-0.28044 -1.6164,-0.70954 -2.3691,-1.28516 l -0.6426,1.46094 c 0.7232,0.60514 1.5795,1.06982 2.5684,1.39453 0.9889,0.30994 2.0973,0.46484 3.3223,0.46484 1.1808,0 2.1986,-0.18375 3.0546,-0.55273 0.8708,-0.36898 1.5347,-0.88465 1.9922,-1.54883 0.4724,-0.66417 0.709,-1.43192 0.709,-2.30273 0,-1.07744 -0.3627,-1.92698 -1.0859,-2.54688 -0.7085,-0.63466 -1.8081,-1.10606 -3.2989,-1.41602 l -2.3007,-0.48828 c -0.9889,-0.19186 -1.7057,-0.49297 -2.1485,-0.90625 -0.428,-0.41326 -0.6425,-0.97514 -0.6425,-1.68359 -10e-5,-0.88557 0.3472,-1.59365 1.041,-2.125 0.6936,-0.54609 1.623,-0.82031 2.789,-0.82031 0.9152,0 1.7426,0.14145 2.4805,0.42187 0.738,0.26567 1.4394,0.7015 2.1035,1.30664 l 0.6406,-1.41797 c -0.6198,-0.6199 -1.3789,-1.09131 -2.2793,-1.41601 -0.9003,-0.33947 -1.8739,-0.50977 -2.9218,-0.50977 z m 125.8828,0.13281 -0.8633,0.0449 c -1.4907,0.0885 -2.5991,0.5003 -3.3223,1.23828 -0.7084,0.73797 -1.0625,1.82418 -1.0625,3.25586 v 0.375 h -2.125 v 1.39648 h 2.125 v 9.36328 h 1.793 v -9.36328 h 3.0996 v -1.39648 h -3.0996 v -0.59766 c 0,-0.90033 0.1991,-1.58629 0.5977,-2.05859 0.4132,-0.4723 1.079,-0.74456 1.9941,-0.81836 l 1.0176,-0.0664 z m 152.98438,0 -0.86328,0.0449 c -1.49071,0.0885 -2.5971,0.5003 -3.32031,1.23828 -0.70846,0.73797 -1.0625,1.82418 -1.0625,3.25586 v 0.375 h -2.12695 v 1.39648 h 2.12695 v 9.36328 h 1.79297 v -9.36328 h 3.09961 v -1.39648 h -3.09961 v -0.59766 c 0,-0.90033 0.19915,-1.58629 0.59765,-2.05859 0.41326,-0.4723 1.0771,-0.74456 1.99219,-0.81836 l 1.01758,-0.0664 z m -227.08398,0.0664 v 12.04298 c 0,1.22503 0.2723,2.16308 0.8183,2.8125 0.5606,0.63425 1.3894,0.95077 2.4805,0.95117 0.4275,-1.5e-4 0.8694,-0.0511 1.3262,-0.15429 l 0.045,-1.50586 c -0.2953,0.0886 -0.6272,0.13281 -0.9961,0.13281 -1.2545,0 -1.8809,-0.78988 -1.8809,-2.36914 v -11.91016 z m 109.0527,0 v 15.60742 h 1.793 v -6.13281 c 0,-1.0184 0.2876,-1.82845 0.8633,-2.43359 0.5903,-0.6199 1.3802,-0.92969 2.3691,-0.92969 0.856,0 1.4756,0.23472 1.8594,0.70703 0.39843,0.45754 0.59763,1.18776 0.59763,2.19141 v 6.59765 h 1.793 v -6.70703 c 0,-2.83382 -1.2767,-4.25195 -3.83013,-4.25195 -0.797,0 -1.5204,0.17029 -2.1699,0.50976 -0.6346,0.32471 -1.1282,0.81152 -1.4824,1.46094 v -6.61914 z m 30.33988,0 v 15.60742 h 1.66015 v -12.17578 l 5.26953,9.76367 h 1.19532 l 5.20312,-9.78515 v 12.19726 h 1.68164 v -15.60742 h -1.52734 l -5.95508,11.26953 -6,-11.26953 z m 38.72265,0 v 6.73047 c -0.30995,-0.64942 -0.78808,-1.15836 -1.4375,-1.52734 -0.63466,-0.369 -1.37355,-0.55469 -2.21484,-0.55469 -0.95936,0 -1.80022,0.22995 -2.52344,0.6875 -0.70845,0.44278 -1.26165,1.08449 -1.66015,1.92578 -0.38374,0.82652 -0.57618,1.81556 -0.57618,2.9668 0,1.13648 0.19244,2.1255 0.57618,2.96679 0.3985,0.82654 0.9517,1.46824 1.66015,1.92578 0.72322,0.45755 1.56408,0.68555 2.52344,0.68555 0.85605,0 1.6084,-0.19048 2.25781,-0.57422 0.64942,-0.38374 1.1295,-0.91481 1.43945,-1.59375 v 1.96875 h 1.75 v -15.60742 z m 109.47657,0 v 15.60742 h 1.79492 v -6.13281 c 0,-1.0184 0.28766,-1.82845 0.86328,-2.43359 0.59037,-0.6199 1.38026,-0.92969 2.36914,-0.92969 0.85605,0 1.47563,0.23472 1.85937,0.70703 0.39851,0.45754 0.59766,1.18776 0.59766,2.19141 v 6.59765 h 1.79297 v -6.70703 c 0,-2.83382 -1.2767,-4.25195 -3.83008,-4.25195 -0.79701,0 -1.5205,0.17029 -2.16992,0.50976 -0.63465,0.32471 -1.1282,0.81152 -1.48242,1.46094 v -6.61914 z m -263.1719,1.54883 v 3.29883 h -2.1035 v 1.39648 h 2.1035 v 5.64453 c 0,1.26932 0.3185,2.24294 0.9531,2.92188 0.6347,0.66417 1.5862,0.99609 2.8555,0.99609 0.3395,0 0.6936,-0.0443 1.0625,-0.13281 0.3691,-0.0886 0.6499,-0.1838 0.8418,-0.28711 l -0.3106,-1.37305 c -0.1918,0.0591 -0.4064,0.11874 -0.6425,0.17774 -0.2362,0.059 -0.4709,0.0879 -0.7071,0.0879 -0.797,0 -1.3723,-0.21261 -1.7265,-0.64063 -0.3543,-0.44278 -0.5332,-1.08644 -0.5332,-1.92773 v -5.4668 h 3.4101 v -1.39648 h -3.4101 v -3.29883 z m 30.918,0 v 3.29883 h -2.1036 v 1.39648 h 2.1036 v 5.64453 c 0,1.26932 0.3165,2.24294 0.9511,2.92188 0.6346,0.66417 1.5881,0.99609 2.8575,0.99609 0.3395,0 0.6935,-0.0443 1.0625,-0.13281 0.369,-0.0886 0.6479,-0.1838 0.8398,-0.28711 l -0.3086,-1.37305 c -0.1919,0.0591 -0.4064,0.11874 -0.6426,0.17774 -0.2361,0.059 -0.4728,0.0879 -0.709,0.0879 -0.797,0 -1.3723,-0.21261 -1.7265,-0.64063 -0.3543,-0.44278 -0.5313,-1.08644 -0.5313,-1.92773 v -5.4668 h 3.4102 v -1.39648 h -3.4102 v -3.29883 z m 46.4824,0 v 3.29883 h -2.1016 v 1.39648 h 2.1016 v 5.64453 c 0,1.26932 0.3184,2.24294 0.9531,2.92188 0.6347,0.66417 1.5861,0.99609 2.8555,0.99609 0.3394,0 0.6935,-0.0443 1.0625,-0.13281 0.369,-0.0886 0.6499,-0.1838 0.8418,-0.28711 l -0.3106,-1.37305 c -0.1919,0.0591 -0.4045,0.11874 -0.6406,0.17774 -0.2361,0.059 -0.4728,0.0879 -0.709,0.0879 -0.797,0 -1.3723,-0.21261 -1.7265,-0.64063 -0.3543,-0.44278 -0.5313,-1.08644 -0.5313,-1.92773 v -5.4668 h 3.4082 v -1.39648 h -3.4082 v -3.29883 z m 151.94923,0 v 3.29883 h -2.10352 v 1.39648 h 2.10352 v 5.64453 c 0,1.26932 0.31652,2.24294 0.95117,2.92188 0.63466,0.66417 1.58616,0.99609 2.85547,0.99609 0.33947,0 0.69351,-0.0443 1.0625,-0.13281 0.36899,-0.0886 0.64992,-0.1838 0.8418,-0.28711 l -0.31055,-1.37305 c -0.19187,0.0591 -0.40448,0.11874 -0.64062,0.17774 -0.23616,0.059 -0.47284,0.0879 -0.70899,0.0879 -0.79701,0 -1.37233,-0.21261 -1.72656,-0.64063 -0.35423,-0.44278 -0.53125,-1.08644 -0.53125,-1.92773 v -5.4668 h 3.4082 v -1.39648 h -3.4082 v -3.29883 z m -160.14453,3.01172 -0.6426,0.0664 c -1.7859,0.13284 -2.9674,0.84961 -3.543,2.14844 v -1.92773 h -1.748 v 10.75976 h 1.8144 v -6.13086 c 0,-0.95936 0.2675,-1.71366 0.7989,-2.25976 0.5313,-0.56086 1.3058,-0.8841 2.3242,-0.97266 l 1.1289,-0.13281 z m 107.36523,0 -0.64062,0.0664 c -1.7859,0.13284 -2.96736,0.84961 -3.54297,2.14844 v -1.92773 h -1.74805 v 10.75976 h 1.81446 v -6.13086 c 0,-0.95936 0.26553,-1.71366 0.79687,-2.25976 0.53135,-0.56086 1.30582,-0.8841 2.32422,-0.97266 l 1.12891,-0.13281 z m -240.25983,0.0879 c -0.738,0 -1.5124,0.11931 -2.3242,0.35547 -0.797,0.23614 -1.4762,0.55266 -2.0371,0.95117 l 0.6192,1.30664 c 0.6347,-0.41327 1.2543,-0.70765 1.8593,-0.88477 0.6052,-0.19186 1.2334,-0.28906 1.8828,-0.28906 0.8265,0 1.4239,0.20784 1.793,0.6211 0.3837,0.3985 0.5762,1.05366 0.5762,1.96875 v 0.6875 h -0.709 c -1.6236,0 -2.907,0.1039 -3.8516,0.31054 -0.9298,0.19187 -1.6023,0.51511 -2.0156,0.97266 -0.3985,0.45755 -0.5977,1.07712 -0.5977,1.85937 10e-5,0.6199 0.1703,1.18178 0.5098,1.6836 0.3395,0.50182 0.7955,0.90012 1.3711,1.19531 0.5904,0.28043 1.2561,0.41992 1.9941,0.41992 0.7823,0 1.4596,-0.18375 2.0352,-0.55273 0.5904,-0.36898 1.0262,-0.8712 1.3066,-1.50586 v 1.85937 h 1.6836 v -6.77343 c 0,-1.43167 -0.3406,-2.48709 -1.0195,-3.16602 -0.6641,-0.67894 -1.6888,-1.01953 -3.0762,-1.01953 z m 12.5586,0 c -0.7674,0 -1.438,0.17702 -2.0136,0.53125 -0.5757,0.33947 -1.0269,0.83495 -1.3516,1.48437 v -1.8164 h -1.7481 v 10.75976 h 1.793 v -6.08789 c 0,-1.03316 0.2502,-1.85862 0.752,-2.47851 0.5166,-0.6199 1.2179,-0.92969 2.1035,-0.92969 0.797,0 1.3656,0.23472 1.7051,0.70703 0.3542,0.45754 0.5312,1.18104 0.5312,2.16992 v 6.61914 h 1.793 v -6.08789 c 0,-1.03316 0.2588,-1.85862 0.7754,-2.47851 0.5166,-0.6199 1.2092,-0.92969 2.0801,-0.92969 0.797,0 1.3656,0.23472 1.705,0.70703 0.3543,0.45754 0.5313,1.18104 0.5313,2.16992 v 6.61914 h 1.793 v -6.70703 c 0,-2.83382 -1.1949,-4.25195 -3.586,-4.25195 -0.8265,0 -1.5567,0.19915 -2.1914,0.59765 -0.6346,0.38375 -1.1147,0.91677 -1.4394,1.59571 -0.4723,-1.46119 -1.5499,-2.19336 -3.2325,-2.19336 z m 19.2285,0 c -0.856,0 -1.6103,0.19242 -2.2597,0.57617 -0.6347,0.36898 -1.1129,0.8866 -1.4375,1.55078 v -1.92773 h -1.75 v 14.74609 h 1.793 v -5.86719 c 0.3099,0.64942 0.7899,1.15837 1.4394,1.52735 0.6494,0.36898 1.3883,0.55273 2.2148,0.55273 0.9594,0 1.7916,-0.22801 2.5,-0.68555 0.7232,-0.45753 1.2784,-1.09924 1.6622,-1.92578 0.3984,-0.84129 0.5976,-1.83031 0.5976,-2.96679 0,-1.15124 -0.1992,-2.14028 -0.5976,-2.9668 -0.3838,-0.84129 -0.939,-1.483 -1.6622,-1.92578 -0.7084,-0.45755 -1.5406,-0.6875 -2.5,-0.6875 z m 18.4415,0 c -1.0184,0 -1.919,0.23668 -2.7012,0.70898 -0.7675,0.45754 -1.3736,1.11465 -1.8164,1.97071 -0.4428,0.84129 -0.6641,1.81491 -0.6641,2.92187 0,1.71209 0.4955,3.07057 1.4844,4.07422 0.9889,0.98888 2.332,1.48242 4.0293,1.48242 0.7823,0 1.55,-0.12409 2.3027,-0.375 0.7528,-0.26566 1.3723,-0.62838 1.8594,-1.08594 l -0.6211,-1.26171 c -0.5313,0.45754 -1.0912,0.78946 -1.6816,0.99609 -0.5904,0.19188 -1.2099,0.28906 -1.8594,0.28906 -1.1512,0 -2.0517,-0.31846 -2.7012,-0.95312 -0.6498,-0.64942 -1.0038,-1.58551 -1.0625,-2.81055 h 8.1035 v -0.6875 c 0,-1.6383 -0.4137,-2.92172 -1.2402,-3.85156 -0.8266,-0.94462 -1.9704,-1.41797 -3.4316,-1.41797 z m 25.08,0 c -1.0184,0 -1.9189,0.23668 -2.7011,0.70898 -0.7675,0.45754 -1.3736,1.11465 -1.8164,1.97071 -0.4428,0.84129 -0.6641,1.81491 -0.6641,2.92187 0,1.71209 0.4955,3.07057 1.4844,4.07422 0.9888,0.98888 2.3319,1.48242 4.0293,1.48242 0.7822,0 1.548,-0.12409 2.3007,-0.375 0.7528,-0.26566 1.3743,-0.62838 1.8614,-1.08594 l -0.6211,-1.26171 c -0.5314,0.45754 -1.0913,0.78946 -1.6817,0.99609 -0.5904,0.19188 -1.2099,0.28906 -1.8593,0.28906 -1.1512,0 -2.0517,-0.31846 -2.7012,-0.95312 -0.6498,-0.64942 -1.0038,-1.58551 -1.0625,-2.81055 h 8.1016 v -0.6875 c 0,-1.6383 -0.4137,-2.92172 -1.2403,-3.85156 -0.8264,-0.94462 -1.9685,-1.41797 -3.4297,-1.41797 z m 43.8008,0 c -1.0479,0 -1.9552,0.22995 -2.7226,0.6875 -0.7675,0.45754 -1.3649,1.10598 -1.793,1.94726 -0.4132,0.82654 -0.6211,1.80884 -0.6211,2.94532 0,1.13648 0.2079,2.1255 0.6211,2.96679 0.4281,0.82654 1.0255,1.46824 1.793,1.92578 0.7674,0.45755 1.6747,0.68555 2.7226,0.68555 1.0331,0 1.9337,-0.22801 2.7012,-0.68555 0.7822,-0.45753 1.3796,-1.09924 1.793,-1.92578 0.428,-0.84129 0.6425,-1.83031 0.6425,-2.96679 0,-1.13648 -0.2145,-2.11878 -0.6425,-2.94532 -0.4134,-0.84128 -1.0108,-1.48972 -1.793,-1.94726 -0.7675,-0.45755 -1.6681,-0.6875 -2.7012,-0.6875 z m 46.31254,0 c -1.0184,0 -1.9189,0.23668 -2.70117,0.70898 -0.76747,0.45754 -1.37362,1.11465 -1.81641,1.97071 -0.44278,0.84129 -0.66406,1.81491 -0.66406,2.92187 0,1.71209 0.49552,3.07057 1.48438,4.07422 0.98892,0.98888 2.33197,1.48242 4.02929,1.48242 0.78226,0 1.55,-0.12409 2.30274,-0.375 0.75273,-0.26566 1.37231,-0.62838 1.85937,-1.08594 l -0.62109,-1.26171 c -0.53134,0.45754 -1.09127,0.78946 -1.68164,0.99609 -0.59038,0.19188 -1.20996,0.28906 -1.85938,0.28906 -1.15124,0 -2.05173,-0.31846 -2.70117,-0.95312 -0.64965,-0.64942 -1.0037,-1.58551 -1.0625,-2.81055 h 8.10156 v -0.6875 c 0,-1.6383 -0.41175,-2.92172 -1.23828,-3.85156 -0.82653,-0.94462 -1.97045,-1.41797 -3.43164,-1.41797 z m 36.36328,0 c -1.04792,0 -1.95517,0.22995 -2.72265,0.6875 -0.7675,0.45754 -1.36494,1.10598 -1.79297,1.94726 -0.41326,0.82654 -0.6211,1.80884 -0.62109,2.94532 0,1.13648 0.20783,2.1255 0.62109,2.96679 0.42803,0.82654 1.02547,1.46824 1.79297,1.92578 0.76748,0.45755 1.67473,0.68555 2.72265,0.68555 1.03316,0 1.93368,-0.22801 2.70118,-0.68555 0.78225,-0.45753 1.3797,-1.09924 1.79296,-1.92578 0.42802,-0.84129 0.64258,-1.83031 0.64258,-2.96679 0,-1.13648 -0.21456,-2.11878 -0.64258,-2.94532 -0.41326,-0.84128 -1.01071,-1.48972 -1.79296,-1.94726 -0.7675,-0.45755 -1.66802,-0.6875 -2.70118,-0.6875 z m 25.29688,0 c -1.0184,0 -1.91892,0.23668 -2.70117,0.70898 -0.7675,0.45754 -1.37168,1.11465 -1.81446,1.97071 -0.44278,0.84129 -0.66406,1.81491 -0.66406,2.92187 0,1.71209 0.49354,3.07057 1.48242,4.07422 0.98889,0.98888 2.33196,1.48242 4.0293,1.48242 0.78225,0 1.55,-0.12409 2.30273,-0.375 0.75274,-0.26566 1.37232,-0.62838 1.85938,-1.08594 l -0.61914,-1.26171 c -0.53134,0.45754 -1.09321,0.78946 -1.68359,0.99609 -0.59038,0.19188 -1.20997,0.28906 -1.85938,0.28906 -1.15124,0 -2.05175,-0.31846 -2.70117,-0.95312 -0.64946,-0.64942 -1.0035,-1.58551 -1.0625,-2.81055 h 8.10351 v -0.6875 c 0,-1.6383 -0.4137,-2.92172 -1.24023,-3.85156 -0.82653,-0.94462 -1.97045,-1.41797 -3.43164,-1.41797 z m 20.60547,0 c -0.81177,0 -1.54394,0.17029 -2.19336,0.50976 -0.64942,0.33947 -1.14968,0.84841 -1.50391,1.52735 v -1.83789 h -1.75 v 10.75976 h 1.79297 v -6.13281 c 0,-1.0184 0.28766,-1.82845 0.86328,-2.43359 0.59038,-0.6199 1.38026,-0.92969 2.36914,-0.92969 0.85605,0 1.47563,0.23472 1.85938,0.70703 0.3985,0.45754 0.59765,1.18776 0.59765,2.19141 v 6.59765 h 1.79493 v -6.70703 c 0,-2.83382 -1.2767,-4.25195 -3.83008,-4.25195 z m 24.4082,0 c -1.04793,0 -1.95712,0.22995 -2.72461,0.6875 -0.76749,0.45754 -1.36495,1.10598 -1.79297,1.94726 -0.41327,0.82654 -0.61914,1.80884 -0.61914,2.94532 0,1.13648 0.20587,2.1255 0.61914,2.96679 0.42802,0.82654 1.02548,1.46824 1.79297,1.92578 0.76749,0.45755 1.67668,0.68555 2.72461,0.68555 1.03316,0 1.93173,-0.22801 2.69922,-0.68555 0.78225,-0.45753 1.38165,-1.09924 1.79492,-1.92578 0.42803,-0.84129 0.64063,-1.83031 0.64063,-2.96679 0,-1.13648 -0.2126,-2.11878 -0.64063,-2.94532 -0.41327,-0.84128 -1.01267,-1.48972 -1.79492,-1.94726 -0.76749,-0.45755 -1.66606,-0.6875 -2.69922,-0.6875 z m 13.29688,0 c -0.81177,0 -1.54199,0.17029 -2.19141,0.50976 -0.64941,0.33947 -1.15163,0.84841 -1.50586,1.52735 v -1.83789 h -1.75 v 10.75976 h 1.79492 v -6.13281 c 0,-1.0184 0.28766,-1.82845 0.86328,-2.43359 0.59039,-0.6199 1.38026,-0.92969 2.36914,-0.92969 0.85605,0 1.47563,0.23472 1.85938,0.70703 0.39851,0.45754 0.59765,1.18776 0.59765,2.19141 v 6.59765 h 1.79297 v -6.70703 c 0,-2.83382 -1.27668,-4.25195 -3.83007,-4.25195 z m 24.5039,0 c -1.25456,0 -2.27439,0.29633 -3.05664,0.88672 -0.7675,0.59037 -1.15039,1.37157 -1.15039,2.3457 0,1.49071 0.91396,2.43548 2.74414,2.83399 l 2.01563,0.44335 c 0.60514,0.13284 1.04769,0.32526 1.32812,0.57618 0.28043,0.23615 0.41992,0.55939 0.41992,0.97265 0,0.53134 -0.2126,0.95373 -0.64062,1.26367 -0.42803,0.30996 -1.06301,0.46485 -1.9043,0.46485 -0.66417,0 -1.32128,-0.0972 -1.9707,-0.28906 -0.63466,-0.20663 -1.21671,-0.52315 -1.74805,-0.95118 l -0.57617,1.26172 c 0.48706,0.42803 1.10664,0.75994 1.85937,0.9961 0.75274,0.23614 1.54934,0.35351 2.39063,0.35351 1.29884,0 2.33885,-0.27899 3.12109,-0.83984 0.78226,-0.57562 1.17383,-1.35877 1.17383,-2.34766 0,-0.76749 -0.24341,-1.37166 -0.73047,-1.81445 -0.48706,-0.45754 -1.20188,-0.78946 -2.14648,-0.9961 l -2.01563,-0.42187 c -1.09219,-0.23615 -1.63867,-0.76722 -1.63867,-1.59375 0,-0.53134 0.21456,-0.95849 0.64258,-1.2832 0.42803,-0.32471 1.05628,-0.48828 1.88281,-0.48828 0.56086,0 1.12078,0.11063 1.68164,0.33203 0.57562,0.20663 1.07784,0.50969 1.50586,0.9082 l 0.59766,-1.26172 c -0.44278,-0.44278 -1.00466,-0.7747 -1.6836,-0.99609 -0.66418,-0.23616 -1.36359,-0.35547 -2.10156,-0.35547 z m 11.2793,0 c -1.62353,0 -2.90023,0.49548 -3.83008,1.48437 -0.92985,0.97412 -1.39648,2.31721 -1.39648,4.0293 0,1.13649 0.20783,2.13224 0.62109,2.98828 0.42803,0.84129 1.03221,1.4984 1.81445,1.9707 0.78226,0.45755 1.71358,0.68555 2.79102,0.68555 0.64942,0 1.29784,-0.11737 1.94726,-0.35351 0.66418,-0.25092 1.21066,-0.58956 1.63868,-1.01758 l -0.6211,-1.30664 c -0.42802,0.42802 -0.89943,0.73781 -1.41601,0.92968 -0.50183,0.19187 -0.98192,0.28711 -1.43946,0.28711 -1.12171,0 -1.9847,-0.36945 -2.58984,-1.10742 -0.60514,-0.75273 -0.9082,-1.77061 -0.9082,-3.05469 0,-1.31359 0.30306,-2.31606 0.9082,-3.00976 0.60514,-0.70845 1.46813,-1.0625 2.58984,-1.0625 0.45754,0 0.93763,0.0952 1.43946,0.28711 0.51658,0.19187 0.98799,0.49494 1.41601,0.9082 l 0.6211,-1.30664 c -0.42802,-0.42803 -0.96778,-0.75995 -1.61719,-0.99609 -0.64942,-0.23616 -1.30457,-0.35547 -1.96875,-0.35547 z m 22.78516,0 c -1.01841,0 -1.91892,0.23668 -2.70118,0.70898 -0.76749,0.45754 -1.37166,1.11465 -1.81445,1.97071 -0.44278,0.84129 -0.66406,1.81491 -0.66406,2.92187 0,1.71209 0.49354,3.07057 1.48242,4.07422 0.98888,0.98888 2.33195,1.48242 4.0293,1.48242 0.78224,0 1.55,-0.12409 2.30273,-0.375 0.75273,-0.26566 1.37232,-0.62838 1.85938,-1.08594 l -0.61914,-1.26171 c -0.53135,0.45754 -1.09127,0.78946 -1.68165,0.99609 -0.59038,0.19188 -1.21191,0.28906 -1.86132,0.28906 -1.15124,0 -2.05176,-0.31846 -2.70118,-0.95312 -0.64945,-0.64942 -1.0035,-1.58551 -1.0625,-2.81055 h 8.10352 v -0.6875 c 0,-1.6383 -0.4137,-2.92172 -1.24023,-3.85156 -0.82653,-0.94462 -1.97046,-1.41797 -3.43164,-1.41797 z m 12.40429,0 c -0.7675,0 -1.44,0.17702 -2.01562,0.53125 -0.57562,0.33947 -1.02491,0.83495 -1.34961,1.48437 v -1.8164 h -1.74805 v 10.75976 h 1.79297 v -6.08789 c 0,-1.03316 0.25013,-1.85862 0.75195,-2.47851 0.51658,-0.6199 1.21794,-0.92969 2.10352,-0.92969 0.797,0 1.36561,0.23472 1.70508,0.70703 0.35422,0.45754 0.53125,1.18104 0.53125,2.16992 v 6.61914 h 1.79296 v -6.08789 c 0,-1.03316 0.25881,-1.85862 0.7754,-2.47851 0.51658,-0.6199 1.20927,-0.92969 2.08007,-0.92969 0.79702,0 1.36562,0.23472 1.70508,0.70703 0.35423,0.45754 0.53125,1.18104 0.53125,2.16992 v 6.61914 h 1.79297 v -6.70703 c 0,-2.83382 -1.1949,-4.25195 -3.58594,-4.25195 -0.82653,0 -1.55675,0.19915 -2.1914,0.59765 -0.63466,0.38375 -1.11475,0.91677 -1.43946,1.59571 -0.4723,-1.46119 -1.54984,-2.19336 -3.23242,-2.19336 z m 18.29688,0 c -1.0184,0 -1.91892,0.23668 -2.70117,0.70898 -0.7675,0.45754 -1.37168,1.11465 -1.81446,1.97071 -0.44278,0.84129 -0.66406,1.81491 -0.66406,2.92187 0,1.71209 0.49354,3.07057 1.48242,4.07422 0.98889,0.98888 2.33196,1.48242 4.0293,1.48242 0.78225,0 1.55,-0.12409 2.30273,-0.375 0.75274,-0.26566 1.37232,-0.62838 1.85938,-1.08594 l -0.61914,-1.26171 c -0.53134,0.45754 -1.09322,0.78946 -1.6836,0.99609 -0.59037,0.19188 -1.20995,0.28906 -1.85937,0.28906 -1.15124,0 -2.05175,-0.31846 -2.70117,-0.95312 -0.64946,-0.64942 -1.0035,-1.58551 -1.0625,-2.81055 h 8.10351 v -0.6875 c 0,-1.6383 -0.41371,-2.92172 -1.24023,-3.85156 -0.82654,-0.94462 -1.97046,-1.41797 -3.43164,-1.41797 z m -293.30278,0.19922 4.207,5.20312 -4.4726,5.55664 h 2.125 l 3.3652,-4.27148 3.4102,4.27148 h 2.125 l -4.4727,-5.55664 4.2071,-5.20312 h -2.1036 l -3.1445,3.96289 -3.1211,-3.96289 z m -31.0859,1.13086 c 0.9592,0 1.6963,0.30111 2.2129,0.90625 0.5316,0.60514 0.8192,1.45468 0.8632,2.54687 h -6.5312 c 0.1033,-1.03316 0.4507,-1.8673 1.041,-2.50195 0.5905,-0.63466 1.3957,-0.95117 2.4141,-0.95117 z m 25.0781,0 c 0.9594,0 1.6982,0.30111 2.2148,0.90625 0.531,0.60514 0.8187,1.45468 0.8633,2.54687 h -6.5312 c 0.1034,-1.03316 0.4507,-1.8673 1.041,-2.50195 0.5903,-0.63466 1.3937,-0.95117 2.4121,-0.95117 z m 90.11331,0 c 0.95936,0 1.69826,0.30111 2.21484,0.90625 0.53136,0.60514 0.81902,1.45468 0.86329,2.54687 h -6.53125 c 0.10329,-1.03316 0.45066,-1.8673 1.04101,-2.50195 0.59043,-0.63466 1.39373,-0.95117 2.41211,-0.95117 z m 61.66211,0 c 0.95937,0 1.69631,0.30111 2.21289,0.90625 0.53135,0.60514 0.81902,1.45468 0.86328,2.54687 h -6.53125 c 0.10332,-1.03316 0.45064,-1.8673 1.04102,-2.50195 0.59038,-0.63466 1.39566,-0.95117 2.41406,-0.95117 z m 116.87891,0 c 0.95936,0 1.69825,0.30111 2.21484,0.90625 0.53135,0.60514 0.81902,1.45468 0.86328,2.54687 h -6.53125 c 0.10332,-1.03316 0.44869,-1.8673 1.03906,-2.50195 0.59038,-0.63466 1.39567,-0.95117 2.41407,-0.95117 z m 30.70117,0 c 0.95937,0 1.69631,0.30111 2.21289,0.90625 0.53135,0.60514 0.81901,1.45468 0.86328,2.54687 h -6.5293 c 0.10332,-1.03316 0.44869,-1.8673 1.03907,-2.50195 0.59038,-0.63466 1.39566,-0.95117 2.41406,-0.95117 z m -343.2969,0.10937 c 1.0036,0 1.807,0.35405 2.4121,1.0625 0.6051,0.70846 0.9082,1.73502 0.9082,3.07813 0,1.32835 -0.3031,2.35295 -0.9082,3.07617 -0.6051,0.70845 -1.4085,1.06445 -2.4121,1.06445 -1.0037,0 -1.8089,-0.356 -2.4141,-1.06445 -0.605,-0.72322 -0.9062,-1.74782 -0.9062,-3.07617 0,-1.34311 0.3012,-2.36967 0.9062,-3.07813 0.6052,-0.70845 1.4104,-1.0625 2.4141,-1.0625 z m 87.6992,0 c 1.0037,0 1.8089,0.35405 2.4141,1.0625 0.6051,0.70846 0.9062,1.73502 0.9062,3.07813 0,1.32835 -0.3011,2.35295 -0.9062,3.07617 -0.6052,0.70845 -1.4104,1.06445 -2.4141,1.06445 -1.0184,0 -1.8304,-0.356 -2.4355,-1.06445 -0.5904,-0.72322 -0.8848,-1.74782 -0.8848,-3.07617 0,-1.34311 0.2944,-2.36967 0.8848,-3.07813 0.6051,-0.70845 1.4171,-1.0625 2.4355,-1.0625 z m 82.67582,0 c 1.00365,0 1.80893,0.35405 2.41407,1.0625 0.60514,0.70846 0.90625,1.73502 0.90625,3.07813 0,1.32835 -0.30111,2.35295 -0.90625,3.07617 -0.60514,0.70845 -1.41042,1.06445 -2.41407,1.06445 -1.0184,0 -1.8304,-0.356 -2.43554,-1.06445 -0.59038,-0.72322 -0.88477,-1.74782 -0.88477,-3.07617 0,-1.34311 0.29439,-2.36967 0.88477,-3.07813 0.60514,-0.70845 1.41714,-1.0625 2.43554,-1.0625 z m 12.32422,0 c 1.00365,0 1.80698,0.35405 2.41211,1.0625 0.60514,0.70846 0.9082,1.73502 0.9082,3.07813 10e-6,1.32835 -0.30306,2.35295 -0.9082,3.07617 -0.60513,0.70845 -1.40846,1.06445 -2.41211,1.06445 -1.0184,0 -1.8304,-0.356 -2.43554,-1.06445 -0.59038,-0.72322 -0.88477,-1.74782 -0.88477,-3.07617 0,-1.34311 0.29439,-2.36967 0.88477,-3.07813 0.60514,-0.70845 1.41714,-1.0625 2.43554,-1.0625 z m 57.98633,0 c 1.00363,0 1.80696,0.35405 2.41211,1.0625 0.60514,0.70846 0.9082,1.73502 0.9082,3.07813 0,1.32835 -0.30306,2.35295 -0.9082,3.07617 -0.60515,0.70845 -1.40848,1.06445 -2.41211,1.06445 -1.01841,0 -1.83041,-0.356 -2.43555,-1.06445 -0.59037,-0.72322 -0.88671,-1.74782 -0.88671,-3.07617 -10e-6,-1.34311 0.29634,-2.36967 0.88671,-3.07813 0.60514,-0.70845 1.41714,-1.0625 2.43555,-1.0625 z m -270.41407,4.45117 h 0.6875 v 0.66407 c 0,0.9446 -0.281,1.72581 -0.8418,2.3457 -0.5609,0.60514 -1.2844,0.9082 -2.1699,0.9082 -0.7232,0 -1.2985,-0.19242 -1.7266,-0.57617 -0.4133,-0.38374 -0.6211,-0.87728 -0.6211,-1.48242 0,-0.47231 0.1328,-0.84175 0.3984,-1.10742 0.2804,-0.28043 0.7606,-0.47286 1.4395,-0.57617 0.6937,-0.11809 1.6384,-0.17579 2.834,-0.17579 z m 379.93751,2.81055 v 2.25781 h 2.25976 v -2.25781 z"
       id="path1436" />
  </g>
</svg>
