<svg width="100%" height="100%" viewBox="0 0 640 120" xmlns="http://www.w3.org/2000/svg">
    <g transform="matrix(1.33249,0,0,1,-359.833,-0.600734)">
        <path d="M281.233,59.085C279.832,59.085 278.334,58.836 276.738,58.337C275.142,57.838 273.79,57.176 272.683,56.351L272.438,47.106L275.223,46.846L276.787,53.226C277.536,53.877 278.367,54.365 279.279,54.691C280.191,55.016 281.07,55.179 281.917,55.179C283.448,55.179 284.629,54.734 285.459,53.845C286.29,52.955 286.705,51.75 286.705,50.231C286.705,48.712 286.363,47.475 285.679,46.52C284.995,45.566 284.116,44.741 283.041,44.046C281.966,43.352 280.826,42.679 279.621,42.028C278.416,41.377 277.276,40.596 276.201,39.684C275.126,38.773 274.246,37.623 273.562,36.234C272.878,34.845 272.536,33.087 272.536,30.96C272.536,28.704 273.017,26.718 273.978,25.003C274.938,23.289 276.282,21.954 278.008,21C279.735,20.045 281.722,19.567 283.969,19.567C284.751,19.567 285.565,19.632 286.412,19.763C287.259,19.893 288.073,20.088 288.855,20.349C289.637,20.609 290.321,20.913 290.907,21.26L291.396,30.309L288.611,30.57L287.145,24.515C286.07,23.734 284.849,23.343 283.481,23.343C282.015,23.343 280.834,23.821 279.938,24.776C279.043,25.73 278.595,27.033 278.595,28.682C278.595,30.158 278.937,31.384 279.621,32.36C280.305,33.337 281.192,34.183 282.284,34.899C283.375,35.615 284.531,36.31 285.753,36.983C286.974,37.655 288.13,38.437 289.221,39.326C290.313,40.216 291.2,41.334 291.884,42.679C292.568,44.025 292.91,45.717 292.91,47.757C292.91,49.927 292.422,51.87 291.445,53.584C290.467,55.299 289.099,56.644 287.34,57.621C285.582,58.597 283.546,59.085 281.233,59.085Z"/>
    </g>
    <g transform="matrix(1.33249,0,0,1,-359.833,-0.600734)">
        <path d="M302.512,59.02C301.046,59.02 299.784,58.608 298.726,57.783C297.667,56.959 296.861,55.96 296.307,54.789C295.753,53.617 295.476,52.488 295.476,51.403C295.476,49.884 295.835,48.615 296.551,47.595C297.268,46.575 298.408,45.739 299.971,45.088L307.593,41.963L307.593,39.294C307.593,38.339 307.365,37.449 306.909,36.625C306.453,35.8 305.851,35.127 305.102,34.606C304.352,34.085 303.538,33.825 302.659,33.825C302.04,33.825 301.608,34.01 301.364,34.378C301.12,34.747 300.965,35.474 300.9,36.559L300.704,40.075C299.239,40.509 298.025,40.455 297.064,39.912C296.103,39.37 295.623,38.469 295.623,37.21C295.623,36.429 295.916,35.626 296.502,34.802C297.089,33.977 297.83,33.196 298.726,32.458C299.621,31.72 300.558,31.091 301.535,30.57C302.512,30.049 303.408,29.724 304.222,29.593C306.958,29.593 309.132,30.461 310.745,32.197C312.357,33.934 313.18,36.256 313.212,39.164L313.066,48.799C313.066,49.884 313.09,50.785 313.139,51.501C313.188,52.217 313.277,52.792 313.408,53.226L316.583,54.007L316.583,56.481L313.701,58.109C313.147,58.413 312.642,58.641 312.186,58.793C311.73,58.944 311.307,59.02 310.916,59.02C309.743,59.02 308.929,58.196 308.473,56.546L307.74,53.682L308.668,53.942C307.659,55.548 306.633,56.796 305.59,57.686C304.548,58.575 303.522,59.02 302.512,59.02ZM304.613,53.812C305.167,53.812 305.696,53.66 306.201,53.356C306.706,53.052 307.17,52.575 307.593,51.924L307.593,45.414L303.538,46.585C302.756,46.802 302.195,47.171 301.852,47.692C301.51,48.213 301.339,48.908 301.339,49.776C301.339,50.817 301.657,51.75 302.292,52.575C302.927,53.4 303.701,53.812 304.613,53.812Z"/>
    </g>
    <g transform="matrix(1.33249,0,0,1,-359.833,-0.600734)">
        <path d="M317.244,58.5L317.097,55.7L320.127,54.658C320.159,54.485 320.192,54.116 320.224,53.552C320.257,52.987 320.29,52.239 320.322,51.306C320.355,50.372 320.371,49.276 320.371,48.018L320.42,43.07C320.42,42.202 320.404,41.366 320.371,40.563C320.338,39.76 320.29,38.979 320.224,38.22C320.159,37.46 320.078,36.755 319.98,36.104L316.853,35.192L316.853,32.523L324.817,29.724L325.99,30.83L325.697,34.476L325.843,34.541C326.886,32.805 327.96,31.546 329.068,30.765C330.175,29.984 331.332,29.593 332.537,29.593C333.775,29.593 334.939,30.016 336.03,30.863C337.121,31.709 338.009,32.99 338.693,34.704C339.377,36.418 339.719,38.599 339.719,41.247L339.817,48.018C339.817,49.493 339.833,50.872 339.866,52.152C339.898,53.432 339.963,54.268 340.061,54.658L342.846,55.7L342.699,58.5L331.706,58.5L331.56,55.7L334.149,54.658C334.214,54.311 334.263,53.812 334.296,53.161C334.328,52.51 334.353,51.75 334.369,50.882C334.385,50.014 334.393,49.125 334.393,48.213L334.345,41.768C334.345,40.118 334.157,38.795 333.783,37.796C333.408,36.798 332.911,36.082 332.293,35.648C331.674,35.214 330.99,34.997 330.24,34.997C329.426,34.997 328.628,35.268 327.846,35.811C327.065,36.353 326.397,37.145 325.843,38.187L325.843,47.822C325.843,49.428 325.868,50.882 325.916,52.184C325.965,53.487 326.039,54.311 326.136,54.658L328.921,55.7L328.775,58.5L317.244,58.5ZM345.533,58.5L345.387,55.7L348.025,54.658C348.09,54.311 348.139,53.812 348.172,53.161C348.204,52.51 348.229,51.75 348.245,50.882C348.261,50.014 348.269,49.125 348.269,48.213L348.221,42.158C348.221,40.422 348.017,39.033 347.61,37.992C347.203,36.95 346.673,36.191 346.022,35.713C345.37,35.236 344.67,34.997 343.921,34.997C343.009,34.997 342.154,35.268 341.356,35.811C340.558,36.353 339.866,37.189 339.279,38.317L338.058,35.713C339.198,33.717 340.419,32.197 341.722,31.156C343.025,30.114 344.426,29.593 345.924,29.593C347.455,29.593 348.799,30.071 349.955,31.026C351.111,31.98 352.007,33.315 352.642,35.029C353.277,36.744 353.595,38.773 353.595,41.117L353.644,48.018C353.644,49.493 353.668,50.872 353.717,52.152C353.766,53.432 353.839,54.268 353.937,54.658L356.966,55.7L356.82,58.5L345.533,58.5Z"/>
    </g>
    <g transform="matrix(1.33249,0,0,1,-359.833,-0.600734)">
        <path d="M357.676,72.822L357.529,70.023L360.558,68.981C360.558,68.764 360.575,68.33 360.607,67.679C360.64,67.028 360.664,66.182 360.681,65.14C360.697,64.099 360.721,62.883 360.754,61.494C360.786,60.105 360.803,58.565 360.803,56.872L360.9,42.94C360.9,41.638 360.868,40.422 360.803,39.294C360.738,38.165 360.624,37.102 360.461,36.104L357.334,35.192L357.334,32.523L365.298,29.724L366.47,30.83L366.128,34.606L366.275,34.671C367.089,33.109 368.066,31.872 369.206,30.96C370.346,30.049 371.568,29.593 372.871,29.593C374.499,29.593 375.998,30.147 377.366,31.253C378.734,32.36 379.833,33.934 380.664,35.974C381.494,38.013 381.91,40.444 381.91,43.265C381.91,46.13 381.421,48.745 380.444,51.11C379.467,53.476 378.099,55.375 376.34,56.807C374.581,58.239 372.529,58.955 370.184,58.955C369.565,58.955 368.913,58.879 368.229,58.727C367.545,58.575 366.91,58.348 366.324,58.044L366.324,62.406C366.324,63.925 366.348,65.314 366.397,66.572C366.446,67.831 366.487,68.634 366.519,68.981L370.526,69.958L370.379,72.822L357.676,72.822ZM370.281,54.789C371.421,54.789 372.407,54.431 373.237,53.714C374.068,52.998 374.727,51.913 375.216,50.459C375.705,49.005 375.949,47.193 375.949,45.023C375.982,42.853 375.745,41.041 375.24,39.587C374.736,38.133 374.076,37.037 373.262,36.299C372.447,35.561 371.535,35.192 370.526,35.192C369.711,35.192 368.946,35.442 368.229,35.941C367.513,36.44 366.877,37.167 366.324,38.122L366.324,53.226C366.845,53.704 367.456,54.083 368.156,54.365C368.856,54.648 369.565,54.789 370.281,54.789Z"/>
    </g>
    <g transform="matrix(1.33249,0,0,1,-359.833,-0.600734)">
        <path d="M383.694,58.5L383.547,55.635L386.723,54.658C386.788,54.268 386.837,53.508 386.87,52.38C386.902,51.251 386.935,49.873 386.968,48.246C387,46.618 387.016,44.914 387.016,43.135L387.016,34.932C387.016,33.413 387.008,31.861 386.992,30.277C386.976,28.693 386.959,27.184 386.943,25.752C386.927,24.32 386.902,23.05 386.87,21.944C386.837,20.837 386.805,19.98 386.772,19.372L383.157,18.721L383.059,16.182L391.609,13.187L392.831,14.229C392.798,16.052 392.757,17.842 392.709,19.6C392.66,21.358 392.627,23.322 392.611,25.492C392.595,27.662 392.586,30.309 392.586,33.434L392.538,43.33C392.538,46.195 392.562,48.701 392.611,50.85C392.66,52.998 392.717,54.268 392.782,54.658L395.958,55.635L395.86,58.5L383.694,58.5Z"/>
    </g>
    <g transform="matrix(1.33249,0,0,1,-359.833,-0.600734)">
        <path d="M408.198,59.02C406.178,59.02 404.362,58.413 402.75,57.197C401.138,55.982 399.875,54.3 398.963,52.152C398.051,50.003 397.595,47.54 397.595,44.763C397.595,41.724 398.1,39.066 399.11,36.787C400.12,34.509 401.439,32.729 403.068,31.449C404.696,30.168 406.439,29.55 408.295,29.593C411.129,29.637 413.287,30.83 414.769,33.174C416.251,35.518 416.992,38.578 416.992,42.354L416.992,43.786L402.53,43.786L402.53,40.531L412.742,40.531L412.058,41.898L412.058,39.945C412.058,37.775 411.691,36.06 410.958,34.802C410.225,33.543 409.208,32.914 407.905,32.914C407.058,32.914 406.276,33.239 405.559,33.89C404.843,34.541 404.273,35.518 403.849,36.82C403.426,38.122 403.214,39.75 403.214,41.703L403.214,42.875C403.214,46.086 403.841,48.647 405.095,50.557C406.349,52.467 408.019,53.421 410.103,53.421C411.211,53.421 412.212,53.15 413.108,52.608C414.004,52.065 414.891,51.121 415.771,49.776L417.188,51.468C416.276,53.986 415.03,55.874 413.45,57.132C411.87,58.391 410.12,59.02 408.198,59.02Z"/>
    </g>
    <g transform="matrix(1.33249,0,0,1,-359.833,-0.600734)">
        <path d="M445.577,58.5L445.43,55.505L448.459,54.528C448.525,54.311 448.582,53.769 448.63,52.901C448.679,52.033 448.712,50.893 448.728,49.483C448.744,48.072 448.753,46.455 448.753,44.632L448.753,34.216C448.753,32.306 448.744,30.646 448.728,29.235C448.712,27.825 448.679,26.685 448.63,25.817C448.582,24.949 448.525,24.428 448.459,24.255L445.43,23.278L445.577,20.283L457.791,20.283L457.938,23.278L454.909,24.255C454.844,24.428 454.787,24.971 454.738,25.882C454.689,26.794 454.648,27.966 454.616,29.398C454.583,30.83 454.567,32.436 454.567,34.216L454.567,44.632C454.567,46.325 454.583,47.888 454.616,49.32C454.648,50.752 454.689,51.924 454.738,52.835C454.787,53.747 454.844,54.311 454.909,54.528L457.938,55.505L457.791,58.5L445.577,58.5ZM428.036,58.5L427.89,55.505L430.968,54.528C431.033,54.311 431.082,53.769 431.115,52.901C431.147,52.033 431.18,50.882 431.212,49.45C431.245,48.018 431.261,46.412 431.261,44.632L431.261,34.216C431.261,32.349 431.245,30.7 431.212,29.268C431.18,27.835 431.147,26.674 431.115,25.785C431.082,24.895 431.033,24.385 430.968,24.255L427.89,23.278L428.036,20.283L440.202,20.283L440.349,23.278L437.32,24.255C437.254,24.428 437.197,24.949 437.149,25.817C437.1,26.685 437.067,27.825 437.051,29.235C437.035,30.646 437.026,32.306 437.026,34.216L437.026,44.632C437.026,46.455 437.035,48.072 437.051,49.483C437.067,50.893 437.1,52.033 437.149,52.901C437.197,53.769 437.254,54.311 437.32,54.528L440.349,55.505L440.202,58.5L428.036,58.5ZM436.147,41.247L436.147,36.625C436.864,36.755 437.767,36.842 438.859,36.885C439.95,36.928 441.31,36.95 442.938,36.95C444.567,36.95 445.911,36.928 446.969,36.885C448.028,36.842 448.915,36.755 449.632,36.625L449.632,41.247C448.948,41.16 448.085,41.095 447.043,41.052C446,41.008 444.632,40.987 442.938,40.987C441.212,40.987 439.82,41.008 438.761,41.052C437.702,41.095 436.831,41.16 436.147,41.247Z"/>
    </g>
    <g transform="matrix(1.33249,0,0,1,-359.833,-0.600734)">
        <path d="M471.155,59.02C469.136,59.02 467.32,58.413 465.708,57.197C464.095,55.982 462.833,54.3 461.921,52.152C461.009,50.003 460.553,47.54 460.553,44.763C460.553,41.724 461.058,39.066 462.068,36.787C463.077,34.509 464.397,32.729 466.025,31.449C467.654,30.168 469.396,29.55 471.253,29.593C474.087,29.637 476.245,30.83 477.727,33.174C479.209,35.518 479.95,38.578 479.95,42.354L479.95,43.786L465.488,43.786L465.488,40.531L475.699,40.531L475.015,41.898L475.015,39.945C475.015,37.775 474.649,36.06 473.916,34.802C473.183,33.543 472.165,32.914 470.862,32.914C470.015,32.914 469.234,33.239 468.517,33.89C467.8,34.541 467.23,35.518 466.807,36.82C466.383,38.122 466.172,39.75 466.172,41.703L466.172,42.875C466.172,46.086 466.799,48.647 468.053,50.557C469.307,52.467 470.976,53.421 473.061,53.421C474.168,53.421 475.17,53.15 476.066,52.608C476.961,52.065 477.849,51.121 478.728,49.776L480.145,51.468C479.233,53.986 477.987,55.874 476.408,57.132C474.828,58.391 473.077,59.02 471.155,59.02Z"/>
    </g>
    <g transform="matrix(1.33249,0,0,1,-359.833,-0.600734)">
        <path d="M489.698,59.02C488.233,59.02 486.97,58.608 485.912,57.783C484.853,56.959 484.047,55.96 483.493,54.789C482.939,53.617 482.663,52.488 482.663,51.403C482.663,49.884 483.021,48.615 483.737,47.595C484.454,46.575 485.594,45.739 487.158,45.088L494.78,41.963L494.78,39.294C494.78,38.339 494.552,37.449 494.096,36.625C493.64,35.8 493.037,35.127 492.288,34.606C491.539,34.085 490.724,33.825 489.845,33.825C489.226,33.825 488.794,34.01 488.55,34.378C488.306,34.747 488.151,35.474 488.086,36.559L487.89,40.075C486.425,40.509 485.211,40.455 484.251,39.912C483.29,39.37 482.809,38.469 482.809,37.21C482.809,36.429 483.102,35.626 483.689,34.802C484.275,33.977 485.016,33.196 485.912,32.458C486.807,31.72 487.744,31.091 488.721,30.57C489.698,30.049 490.594,29.724 491.408,29.593C494.144,29.593 496.319,30.461 497.931,32.197C499.543,33.934 500.366,36.256 500.398,39.164L500.252,48.799C500.252,49.884 500.276,50.785 500.325,51.501C500.374,52.217 500.464,52.792 500.594,53.226L503.77,54.007L503.77,56.481L500.887,58.109C500.333,58.413 499.828,58.641 499.372,58.793C498.916,58.944 498.493,59.02 498.102,59.02C496.929,59.02 496.115,58.196 495.659,56.546L494.926,53.682L495.854,53.942C494.845,55.548 493.819,56.796 492.776,57.686C491.734,58.575 490.708,59.02 489.698,59.02ZM491.799,53.812C492.353,53.812 492.882,53.66 493.387,53.356C493.892,53.052 494.356,52.575 494.78,51.924L494.78,45.414L490.724,46.585C489.943,46.802 489.381,47.171 489.039,47.692C488.697,48.213 488.526,48.908 488.526,49.776C488.526,50.817 488.843,51.75 489.478,52.575C490.114,53.4 490.887,53.812 491.799,53.812Z"/>
    </g>
    <g transform="matrix(1.33249,0,0,1,-359.833,-0.600734)">
        <path d="M521.922,59.281L520.798,58.369L520.847,54.203L520.7,54.138C519.821,55.96 518.868,57.241 517.842,57.979C516.816,58.717 515.765,59.085 514.691,59.085C512.932,59.085 511.319,58.5 509.854,57.328C508.388,56.156 507.223,54.539 506.36,52.477C505.497,50.416 505.065,48.018 505.065,45.283C505.065,42.853 505.391,40.672 506.043,38.74C506.694,36.809 507.582,35.171 508.705,33.825C509.829,32.48 511.075,31.449 512.443,30.733C513.811,30.016 515.195,29.658 516.596,29.658C517.313,29.658 518.046,29.756 518.795,29.951C519.544,30.147 520.163,30.44 520.651,30.83C520.651,30.049 520.643,29.105 520.627,27.998C520.611,26.891 520.594,25.774 520.578,24.645C520.562,23.517 520.545,22.497 520.529,21.585C520.513,20.674 520.488,20.001 520.456,19.567L516.743,18.786L516.645,16.182L525.244,13.187L526.417,14.229C526.319,16.92 526.238,19.448 526.172,21.813C526.107,24.179 526.075,26.664 526.075,29.268L526.026,44.307C526.026,46.52 526.075,48.343 526.172,49.776C526.27,51.208 526.352,52.293 526.417,53.031L529.593,54.007L529.593,56.612L521.922,59.281ZM516.645,53.487C517.296,53.487 517.98,53.248 518.697,52.77C519.414,52.293 520.081,51.49 520.7,50.362L520.7,36.104C520.179,35.062 519.56,34.324 518.844,33.89C518.127,33.456 517.41,33.239 516.694,33.239C515,33.239 513.624,34.129 512.565,35.908C511.507,37.688 510.977,40.118 510.977,43.2C510.977,46.499 511.531,49.038 512.638,50.817C513.746,52.597 515.081,53.487 516.645,53.487Z"/>
    </g>
    <g transform="matrix(1.33249,0,0,1,-359.833,-0.600734)">
        <path d="M530.155,58.5L530.009,55.635L533.282,54.658C533.315,54.485 533.347,54.116 533.38,53.552C533.413,52.987 533.445,52.239 533.478,51.306C533.51,50.372 533.527,49.276 533.527,48.018L533.575,43.07C533.575,41.724 533.543,40.477 533.478,39.326C533.413,38.176 533.299,37.102 533.136,36.104L529.862,35.192L529.862,32.523L538.217,29.724L539.341,30.83C539.243,32.176 539.17,33.532 539.121,34.899C539.072,36.266 539.048,37.84 539.048,39.619L539.048,47.822C539.048,49.428 539.072,50.882 539.121,52.184C539.17,53.487 539.243,54.311 539.341,54.658L542.614,55.635L542.468,58.5L530.155,58.5ZM536.36,23.669C535.22,23.669 534.308,23.202 533.624,22.269C532.94,21.336 532.598,20.218 532.598,18.916C532.598,17.658 532.94,16.551 533.624,15.596C534.308,14.641 535.22,14.164 536.36,14.164C537.5,14.164 538.396,14.641 539.048,15.596C539.699,16.551 540.025,17.658 540.025,18.916C540.025,20.218 539.699,21.336 539.048,22.269C538.396,23.202 537.5,23.669 536.36,23.669Z"/>
    </g>
    <g transform="matrix(1.33249,0,0,1,-359.833,-0.600734)">
        <path d="M543.324,58.5L543.177,55.7L546.206,54.658C546.239,54.485 546.272,54.127 546.304,53.584C546.337,53.042 546.369,52.304 546.402,51.371C546.435,50.437 546.451,49.32 546.451,48.018L546.5,43.07C546.5,41.681 546.467,40.422 546.402,39.294C546.337,38.165 546.223,37.102 546.06,36.104L542.933,35.192L542.933,32.523L550.897,29.724L552.07,30.83L551.776,34.476L551.923,34.541C552.965,32.892 554.081,31.655 555.27,30.83C556.459,30.006 557.721,29.593 559.056,29.593C560.392,29.593 561.605,30.038 562.696,30.928C563.788,31.818 564.659,33.131 565.31,34.867C565.962,36.603 566.287,38.73 566.287,41.247L566.287,48.018C566.287,49.493 566.304,50.872 566.336,52.152C566.369,53.432 566.434,54.268 566.532,54.658L569.561,55.7L569.414,58.5L557.933,58.5L557.786,55.7L560.62,54.658C560.685,54.311 560.734,53.812 560.766,53.161C560.799,52.51 560.823,51.75 560.84,50.882C560.856,50.014 560.864,49.125 560.864,48.213L560.864,42.224C560.864,40.531 560.661,39.153 560.253,38.089C559.846,37.026 559.317,36.245 558.666,35.746C558.014,35.247 557.297,34.997 556.516,34.997C555.604,34.997 554.757,35.268 553.975,35.811C553.193,36.353 552.509,37.145 551.923,38.187L551.923,47.822C551.923,49.472 551.947,50.937 551.996,52.217C552.045,53.497 552.118,54.311 552.216,54.658L555.245,55.7L555.099,58.5L543.324,58.5Z"/>
    </g>
    <g transform="matrix(1.33249,0,0,1,-359.833,-0.600734)">
        <path d="M580.824,73.343C577.534,73.343 574.953,72.703 573.08,71.423C571.207,70.142 570.27,68.417 570.27,66.247C570.27,64.771 570.792,63.415 571.834,62.178C572.876,60.941 574.391,59.845 576.378,58.89L578.43,59.281C577.55,60.062 576.858,60.952 576.353,61.95C575.849,62.948 575.596,64.012 575.596,65.14C575.596,66.659 576.085,67.853 577.062,68.721C578.039,69.589 579.423,70.023 581.215,70.023C583.104,70.023 584.659,69.48 585.881,68.395C587.102,67.31 587.713,65.943 587.713,64.294C587.713,63.079 587.379,62.167 586.711,61.559C586.044,60.952 584.896,60.561 583.267,60.388L577.502,59.737L576.964,59.411C575.466,59.411 574.269,58.999 573.373,58.174C572.477,57.349 572.029,56.264 572.029,54.919C572.029,53.617 572.518,52.38 573.495,51.208C574.472,50.036 575.808,49.081 577.502,48.343L578.234,49.515C577.778,49.906 577.428,50.296 577.184,50.687C576.94,51.078 576.818,51.468 576.818,51.859C576.818,52.38 576.964,52.803 577.257,53.128C577.55,53.454 577.974,53.66 578.528,53.747L585.563,54.658C587.974,54.962 589.773,55.787 590.962,57.132C592.151,58.478 592.746,60.279 592.746,62.536C592.746,64.533 592.224,66.355 591.182,68.005C590.14,69.654 588.723,70.956 586.931,71.911C585.14,72.866 583.104,73.343 580.824,73.343ZM581.117,50.687C579.228,50.687 577.567,50.253 576.134,49.385C574.7,48.517 573.585,47.312 572.787,45.772C571.989,44.231 571.59,42.462 571.59,40.466C571.59,38.339 572.013,36.462 572.86,34.834C573.707,33.207 574.855,31.915 576.305,30.96C577.754,30.006 579.391,29.528 581.215,29.528C583.006,29.528 584.602,30.006 586.003,30.96C587.404,31.915 588.511,33.196 589.325,34.802C590.14,36.408 590.547,38.23 590.547,40.27C590.547,42.267 590.14,44.057 589.325,45.641C588.511,47.226 587.396,48.463 585.979,49.352C584.562,50.242 582.941,50.687 581.117,50.687ZM581.459,47.302C582.567,47.302 583.446,46.694 584.098,45.479C584.749,44.263 585.075,42.614 585.075,40.531C585.075,38.23 584.716,36.386 584,34.997C583.283,33.608 582.339,32.914 581.166,32.914C580.059,32.914 579.163,33.565 578.479,34.867C577.795,36.169 577.453,37.883 577.453,40.01C577.453,42.18 577.819,43.938 578.552,45.283C579.285,46.629 580.254,47.302 581.459,47.302ZM593.332,35.127L586.98,34.346L585.172,31.481L593.332,30.244L593.332,35.127Z"/>
    </g>
    <g transform="matrix(1,0,0,0.840909,-13.3751,9.15028)">
        <path d="M24.352,94.674C24.688,95.117 24.936,95.603 25.096,96.131C25.257,96.659 25.337,97.273 25.337,97.974C25.337,99.642 24.819,101.017 23.782,102.099C22.745,103.181 21.458,103.722 19.921,103.722C19.212,103.722 18.504,103.592 17.795,103.33C17.086,103.068 16.475,102.751 15.96,102.379L15.479,103.35L14.584,103.35L14.427,96.883L15.333,96.883C15.52,97.681 15.738,98.402 15.988,99.045C16.238,99.688 16.568,100.289 16.978,100.848C17.366,101.372 17.819,101.789 18.338,102.099C18.856,102.41 19.459,102.565 20.145,102.565C20.66,102.565 21.109,102.485 21.493,102.325C21.877,102.165 22.189,101.939 22.428,101.645C22.666,101.352 22.844,101.008 22.959,100.613C23.075,100.217 23.133,99.762 23.133,99.247C23.133,98.492 22.954,97.788 22.596,97.135C22.237,96.482 21.704,95.987 20.995,95.649C20.51,95.42 19.955,95.166 19.328,94.887C18.701,94.609 18.161,94.346 17.706,94.099C16.81,93.62 16.115,92.992 15.619,92.216C15.123,91.44 14.875,90.427 14.875,89.177C14.875,88.458 14.998,87.789 15.244,87.168C15.49,86.547 15.841,85.993 16.296,85.505C16.728,85.044 17.239,84.683 17.829,84.421C18.418,84.159 19.033,84.028 19.675,84.028C20.406,84.028 21.061,84.162 21.639,84.428C22.217,84.694 22.745,85.004 23.222,85.359L23.681,84.454L24.576,84.454L24.666,90.722L23.759,90.722C23.595,90.003 23.41,89.316 23.205,88.659C23,88.003 22.734,87.408 22.405,86.876C22.085,86.362 21.693,85.951 21.23,85.645C20.768,85.339 20.201,85.186 19.53,85.186C18.821,85.186 18.217,85.457 17.717,85.998C17.217,86.539 16.967,87.2 16.967,87.981C16.967,88.797 17.127,89.473 17.448,90.01C17.769,90.547 18.235,90.988 18.847,91.334C19.392,91.644 19.927,91.913 20.453,92.139C20.979,92.365 21.488,92.607 21.98,92.864C22.428,93.095 22.858,93.357 23.272,93.649C23.687,93.942 24.046,94.284 24.352,94.674Z"/>
    </g>
    <g transform="matrix(1,0,0,0.840909,-13.3751,9.15028)">
        <path d="M37.947,103.097C37.597,103.248 37.289,103.37 37.024,103.463C36.759,103.556 36.459,103.603 36.124,103.603C35.542,103.603 35.077,103.441 34.73,103.117C34.383,102.793 34.162,102.321 34.065,101.7L33.997,101.7C33.513,102.339 32.992,102.826 32.436,103.164C31.881,103.501 31.211,103.669 30.428,103.669C29.6,103.669 28.919,103.368 28.386,102.764C27.852,102.161 27.586,101.372 27.586,100.396C27.586,99.89 27.645,99.438 27.765,99.039C27.884,98.639 28.063,98.28 28.302,97.961C28.488,97.695 28.735,97.457 29.04,97.249C29.346,97.04 29.633,96.874 29.902,96.75C30.238,96.599 30.918,96.319 31.944,95.911C32.97,95.503 33.662,95.184 34.02,94.953L34.02,93.636C34.02,93.521 33.999,93.299 33.958,92.971C33.917,92.642 33.83,92.332 33.695,92.039C33.546,91.711 33.335,91.425 33.063,91.181C32.791,90.937 32.405,90.815 31.905,90.815C31.562,90.815 31.243,90.884 30.948,91.021C30.654,91.159 30.447,91.303 30.327,91.454C30.327,91.631 30.363,91.893 30.434,92.239C30.504,92.585 30.54,92.904 30.54,93.197C30.54,93.507 30.422,93.791 30.187,94.048C29.952,94.306 29.626,94.434 29.208,94.434C28.835,94.434 28.561,94.277 28.386,93.962C28.21,93.647 28.123,93.294 28.123,92.904C28.123,92.496 28.244,92.106 28.486,91.733C28.729,91.361 29.044,91.028 29.432,90.735C29.768,90.487 30.174,90.276 30.652,90.103C31.129,89.93 31.595,89.844 32.05,89.844C32.677,89.844 33.223,89.895 33.69,89.997C34.156,90.099 34.579,90.318 34.96,90.655C35.34,90.983 35.629,91.429 35.827,91.993C36.025,92.556 36.124,93.281 36.124,94.168C36.124,95.437 36.112,96.561 36.09,97.541C36.068,98.522 36.056,99.593 36.056,100.755C36.056,101.101 36.107,101.376 36.207,101.58C36.308,101.784 36.463,101.957 36.672,102.099C36.784,102.179 36.961,102.223 37.203,102.232C37.446,102.241 37.694,102.245 37.947,102.245L37.947,103.097ZM34.042,96.071C33.408,96.293 32.852,96.511 32.375,96.724C31.897,96.938 31.454,97.205 31.043,97.525C30.67,97.827 30.376,98.185 30.159,98.598C29.943,99.012 29.835,99.503 29.835,100.072C29.835,100.81 29.997,101.352 30.322,101.699C30.646,102.045 31.058,102.219 31.558,102.219C32.088,102.219 32.554,102.065 32.957,101.759C33.36,101.452 33.699,101.09 33.975,100.672L34.042,96.071Z"/>
    </g>
    <g transform="matrix(1,0,0,0.840909,-13.3751,9.15028)">
        <path d="M58.38,103.337L53.008,103.337L53.008,102.458C53.18,102.441 53.353,102.423 53.529,102.405C53.704,102.387 53.859,102.352 53.993,102.299C54.202,102.219 54.357,102.079 54.458,101.88C54.558,101.68 54.609,101.42 54.609,101.101L54.609,94.328C54.609,93.405 54.431,92.693 54.077,92.192C53.723,91.691 53.281,91.44 52.751,91.44C52.386,91.44 52.042,91.507 51.722,91.64C51.401,91.773 51.106,91.959 50.838,92.199C50.621,92.394 50.44,92.605 50.295,92.831C50.149,93.057 50.039,93.246 49.965,93.396L49.965,100.968C49.965,101.278 50.01,101.534 50.099,101.733C50.189,101.933 50.342,102.086 50.558,102.192C50.729,102.272 50.884,102.332 51.022,102.372C51.16,102.412 51.341,102.441 51.565,102.458L51.565,103.337L46.306,103.337L46.306,102.458C46.477,102.441 46.643,102.423 46.804,102.405C46.964,102.387 47.111,102.352 47.246,102.299C47.455,102.219 47.609,102.079 47.71,101.88C47.811,101.68 47.861,101.42 47.861,101.101L47.861,94.328C47.861,93.405 47.684,92.693 47.328,92.192C46.973,91.691 46.53,91.44 45.999,91.44C45.633,91.44 45.289,91.509 44.967,91.647C44.646,91.784 44.35,91.973 44.081,92.212C43.864,92.407 43.681,92.627 43.532,92.871C43.382,93.115 43.27,93.299 43.195,93.423L43.195,100.941C43.195,101.243 43.247,101.496 43.352,101.7C43.456,101.904 43.613,102.059 43.822,102.166C43.978,102.254 44.139,102.321 44.303,102.365C44.467,102.41 44.65,102.441 44.851,102.458L44.851,103.337L39.491,103.337L39.491,102.458C39.663,102.441 39.84,102.423 40.023,102.405C40.205,102.387 40.364,102.352 40.498,102.299C40.707,102.219 40.862,102.08 40.963,101.88C41.063,101.681 41.114,101.422 41.114,101.103L41.114,92.955C41.114,92.672 41.06,92.417 40.951,92.191C40.843,91.965 40.692,91.772 40.498,91.613C40.357,91.507 40.181,91.42 39.972,91.354C39.763,91.287 39.547,91.245 39.323,91.227L39.323,90.349L43.016,90.056L43.173,90.243L43.173,92.119L43.251,92.119C43.437,91.897 43.665,91.636 43.934,91.334C44.202,91.032 44.452,90.788 44.683,90.602C44.944,90.389 45.271,90.212 45.662,90.07C46.054,89.928 46.477,89.857 46.932,89.857C47.649,89.857 48.264,90.085 48.779,90.542C49.293,90.999 49.663,91.551 49.886,92.199C50.155,91.888 50.391,91.616 50.596,91.38C50.801,91.145 51.071,90.895 51.406,90.629C51.689,90.398 52.022,90.212 52.406,90.07C52.789,89.928 53.216,89.857 53.685,89.857C54.616,89.857 55.353,90.221 55.897,90.948C56.44,91.675 56.712,92.793 56.712,94.301L56.712,100.968C56.712,101.278 56.757,101.534 56.847,101.733C56.936,101.933 57.089,102.086 57.305,102.192C57.477,102.272 57.647,102.332 57.814,102.372C57.982,102.412 58.171,102.441 58.38,102.458L58.38,103.337Z"/>
    </g>
    <g transform="matrix(1,0,0,0.840909,-13.3751,9.15028)">
        <path d="M70.229,91.773C70.669,92.394 71.01,93.115 71.253,93.935C71.495,94.756 71.617,95.694 71.617,96.75C71.617,97.788 71.471,98.735 71.18,99.591C70.889,100.447 70.505,101.176 70.028,101.78C69.528,102.392 68.972,102.862 68.36,103.19C67.749,103.518 67.1,103.683 66.413,103.683C65.749,103.683 65.205,103.594 64.78,103.416C64.354,103.239 64.008,103.031 63.739,102.791L63.649,102.791L63.649,106.739C63.649,107.059 63.702,107.326 63.806,107.54C63.911,107.753 64.071,107.909 64.287,108.006C64.466,108.086 64.722,108.164 65.054,108.24C65.386,108.315 65.66,108.358 65.876,108.367L65.876,109.245L59.711,109.245L59.711,108.367C59.942,108.349 60.166,108.327 60.382,108.3C60.598,108.273 60.792,108.229 60.964,108.167C61.188,108.078 61.344,107.923 61.434,107.701C61.523,107.479 61.568,107.218 61.568,106.916L61.568,92.957C61.568,92.691 61.512,92.434 61.4,92.186C61.288,91.937 61.143,91.738 60.964,91.587C60.83,91.48 60.643,91.398 60.404,91.341C60.166,91.283 59.934,91.245 59.711,91.227L59.711,90.349L63.47,90.056L63.627,90.216L63.627,91.693L63.717,91.72C64.105,91.188 64.586,90.744 65.16,90.389C65.734,90.034 66.305,89.857 66.872,89.857C67.558,89.857 68.187,90.03 68.758,90.376C69.328,90.722 69.819,91.188 70.229,91.773ZM68.405,101.208C68.704,100.657 68.924,100.019 69.065,99.291C69.207,98.564 69.278,97.752 69.278,96.856C69.278,96.2 69.218,95.53 69.099,94.847C68.98,94.164 68.793,93.569 68.539,93.064C68.286,92.549 67.954,92.132 67.544,91.813C67.133,91.494 66.641,91.334 66.066,91.334C65.514,91.334 65.044,91.478 64.657,91.766C64.269,92.055 63.933,92.398 63.649,92.798L63.649,100.555C63.717,100.795 63.827,101.043 63.98,101.301C64.132,101.558 64.302,101.78 64.489,101.966C64.72,102.188 64.97,102.367 65.238,102.505C65.507,102.642 65.835,102.711 66.223,102.711C66.641,102.711 67.044,102.58 67.432,102.319C67.82,102.057 68.144,101.687 68.405,101.208Z"/>
    </g>
    <g transform="matrix(1,0,0,0.840909,-13.3751,9.15028)">
        <path d="M78.867,103.337L73.485,103.337L73.485,102.458C73.656,102.441 73.839,102.421 74.033,102.398C74.227,102.376 74.387,102.343 74.514,102.298C74.723,102.219 74.88,102.079 74.984,101.879C75.089,101.679 75.141,101.42 75.141,101.1L75.141,85.893C75.141,85.573 75.083,85.274 74.967,84.994C74.852,84.714 74.701,84.495 74.514,84.335C74.38,84.228 74.134,84.131 73.776,84.042C73.418,83.953 73.13,83.9 72.914,83.882L72.914,83.03L77.066,82.738L77.222,82.937L77.222,100.941C77.222,101.252 77.271,101.507 77.368,101.707C77.465,101.906 77.621,102.059 77.838,102.166C78.002,102.254 78.164,102.321 78.324,102.365C78.485,102.41 78.666,102.441 78.867,102.458L78.867,103.337Z"/>
    </g>
    <g transform="matrix(1,0,0,0.840909,-13.3751,9.15028)">
        <path d="M90.515,100.249C90.053,101.296 89.434,102.13 88.658,102.751C87.882,103.372 86.99,103.683 85.983,103.683C85.096,103.683 84.318,103.496 83.65,103.124C82.983,102.751 82.432,102.245 82,101.607C81.567,100.968 81.244,100.223 81.032,99.371C80.819,98.52 80.713,97.619 80.713,96.67C80.713,95.818 80.827,94.982 81.054,94.162C81.282,93.341 81.616,92.602 82.056,91.946C82.481,91.316 83.009,90.808 83.639,90.422C84.269,90.036 84.976,89.844 85.76,89.844C86.565,89.844 87.255,89.994 87.83,90.296C88.404,90.598 88.87,91.01 89.228,91.533C89.572,92.03 89.827,92.616 89.995,93.29C90.163,93.964 90.247,94.696 90.247,95.486L90.247,96.364L82.94,96.364C82.94,97.226 83.009,98.009 83.147,98.711C83.285,99.414 83.503,100.032 83.801,100.565C84.092,101.081 84.473,101.487 84.943,101.785C85.413,102.083 85.972,102.232 86.621,102.232C87.285,102.232 87.858,102.047 88.339,101.677C88.82,101.307 89.284,100.64 89.732,99.677L90.515,100.249ZM88.042,95.246C88.042,94.751 88.007,94.22 87.936,93.654C87.865,93.088 87.751,92.615 87.595,92.235C87.423,91.828 87.188,91.496 86.89,91.24C86.591,90.983 86.207,90.855 85.737,90.855C84.954,90.855 84.303,91.242 83.785,92.016C83.266,92.79 82.985,93.866 82.94,95.246L88.042,95.246Z"/>
    </g>
    <g transform="matrix(1,0,0,0.840909,-13.3751,9.15028)">
        <path d="M105.05,102.764C104.565,103.004 104.106,103.206 103.674,103.37C103.241,103.534 102.711,103.616 102.085,103.616C101.16,103.616 100.509,103.339 100.132,102.784C99.755,102.23 99.567,101.447 99.567,100.436L99.567,91.547L97.575,91.547L97.575,90.269L99.612,90.269L99.612,86.184L101.648,86.184L101.648,90.269L104.815,90.269L104.815,91.547L101.671,91.547L101.671,98.879C101.671,99.429 101.687,99.888 101.721,100.256C101.754,100.624 101.835,100.946 101.961,101.221C102.081,101.478 102.26,101.673 102.499,101.806C102.737,101.939 103.058,102.006 103.461,102.006C103.647,102.006 103.922,101.986 104.283,101.946C104.645,101.906 104.901,101.855 105.05,101.793L105.05,102.764Z"/>
    </g>
    <g transform="matrix(1,0,0,0.840909,-13.3751,9.15028)">
        <path d="M116.407,100.249C115.945,101.296 115.325,102.13 114.55,102.751C113.774,103.372 112.882,103.683 111.875,103.683C110.987,103.683 110.21,103.496 109.542,103.124C108.874,102.751 108.324,102.245 107.892,101.607C107.459,100.968 107.136,100.223 106.924,99.371C106.711,98.52 106.605,97.619 106.605,96.67C106.605,95.818 106.719,94.982 106.946,94.162C107.174,93.341 107.507,92.602 107.948,91.946C108.373,91.316 108.901,90.808 109.531,90.422C110.161,90.036 110.868,89.844 111.651,89.844C112.457,89.844 113.147,89.994 113.721,90.296C114.296,90.598 114.762,91.01 115.12,91.533C115.463,92.03 115.719,92.616 115.887,93.29C116.055,93.964 116.138,94.696 116.138,95.486L116.138,96.364L108.832,96.364C108.832,97.226 108.901,98.009 109.039,98.711C109.177,99.414 109.395,100.032 109.693,100.565C109.984,101.081 110.365,101.487 110.835,101.785C111.304,102.083 111.864,102.232 112.513,102.232C113.177,102.232 113.749,102.047 114.231,101.677C114.712,101.307 115.176,100.64 115.624,99.677L116.407,100.249ZM113.934,95.246C113.934,94.751 113.899,94.22 113.828,93.654C113.757,93.088 113.643,92.615 113.486,92.235C113.315,91.828 113.08,91.496 112.782,91.24C112.483,90.983 112.099,90.855 111.629,90.855C110.846,90.855 110.195,91.242 109.676,92.016C109.158,92.79 108.876,93.866 108.832,95.246L113.934,95.246Z"/>
    </g>
    <g transform="matrix(1,0,0,0.840909,-13.3751,9.15028)">
        <path d="M128.771,103.337L123.714,103.337L123.714,102.458C124.051,102.414 124.337,102.37 124.573,102.325C124.808,102.281 124.926,102.166 124.926,101.979C124.926,101.899 124.889,101.775 124.814,101.607C124.74,101.438 124.665,101.283 124.59,101.141C124.403,100.795 124.148,100.331 123.823,99.749C123.497,99.168 123.1,98.474 122.629,97.666C122.24,98.243 121.882,98.804 121.553,99.35C121.224,99.896 120.88,100.475 120.522,101.088C120.469,101.176 120.415,101.287 120.359,101.42C120.303,101.553 120.275,101.66 120.275,101.74C120.275,101.935 120.382,102.097 120.595,102.225C120.808,102.354 121.128,102.441 121.554,102.485L121.554,103.337L117.47,103.337L117.47,102.512C117.977,102.334 118.385,102.119 118.695,101.866C119.004,101.613 119.289,101.301 119.55,100.928C119.782,100.572 120.105,100.082 120.52,99.459C120.934,98.835 121.47,97.989 122.128,96.921C121.747,96.275 121.283,95.486 120.734,94.553C120.186,93.62 119.733,92.844 119.374,92.225C119.18,91.888 118.958,91.616 118.708,91.407C118.457,91.199 118.104,91.094 117.649,91.094L117.649,90.216L122.449,90.216L122.449,91.094C122.211,91.094 121.977,91.112 121.746,91.148C121.515,91.183 121.4,91.263 121.4,91.387C121.4,91.467 121.422,91.556 121.467,91.653C121.512,91.751 121.568,91.857 121.635,91.973C121.799,92.274 122.054,92.74 122.4,93.369C122.746,93.999 123.121,94.664 123.523,95.365C123.785,94.939 124.089,94.443 124.437,93.875C124.785,93.307 125.104,92.766 125.396,92.252C125.426,92.19 125.456,92.112 125.485,92.019C125.515,91.926 125.53,91.835 125.53,91.746C125.53,91.56 125.401,91.412 125.143,91.301C124.885,91.19 124.639,91.112 124.407,91.068L124.407,90.216L128.48,90.216L128.48,91.041C127.906,91.219 127.458,91.429 127.138,91.673C126.817,91.917 126.545,92.199 126.321,92.518C126.075,92.882 125.782,93.33 125.443,93.863C125.104,94.395 124.629,95.14 124.017,96.099C124.696,97.234 125.248,98.165 125.673,98.893C126.097,99.62 126.526,100.369 126.959,101.141C127.175,101.531 127.415,101.84 127.68,102.066C127.945,102.292 128.309,102.423 128.771,102.458L128.771,103.337Z"/>
    </g>
    <g transform="matrix(1,0,0,0.840909,-13.3751,9.15028)">
        <path d="M136.984,102.764C136.499,103.004 136.04,103.206 135.608,103.37C135.175,103.534 134.645,103.616 134.019,103.616C133.094,103.616 132.443,103.339 132.066,102.784C131.69,102.23 131.501,101.447 131.501,100.436L131.501,91.547L129.509,91.547L129.509,90.269L131.546,90.269L131.546,86.184L133.582,86.184L133.582,90.269L136.749,90.269L136.749,91.547L133.605,91.547L133.605,98.879C133.605,99.429 133.622,99.888 133.655,100.256C133.689,100.624 133.769,100.946 133.896,101.221C134.015,101.478 134.194,101.673 134.433,101.806C134.672,101.939 134.992,102.006 135.395,102.006C135.582,102.006 135.856,101.986 136.218,101.946C136.579,101.906 136.835,101.855 136.984,101.793L136.984,102.764Z"/>
    </g>
    <g transform="matrix(1,0,0,0.840909,-13.3751,9.15028)">
        <path d="M152.738,84.335C152.738,84.734 152.649,85.071 152.47,85.346C152.291,85.621 152.019,85.758 151.653,85.758C151.422,85.758 151.219,85.701 151.043,85.585C150.868,85.47 150.706,85.315 150.556,85.12C150.407,84.924 150.269,84.703 150.142,84.454C150.016,84.206 149.907,84.006 149.818,83.855C149.318,83.882 148.932,84.296 148.66,85.097C148.387,85.898 148.251,87.175 148.251,88.928L148.251,90.269L151.094,90.269L151.094,91.547L148.251,91.547L148.251,100.968C148.251,101.278 148.302,101.531 148.402,101.726C148.503,101.922 148.662,102.068 148.878,102.166C149.057,102.245 149.296,102.31 149.594,102.359C149.893,102.407 150.15,102.441 150.366,102.458L150.366,103.337L144.548,103.337L144.548,102.458C144.719,102.441 144.896,102.423 145.079,102.405C145.262,102.387 145.42,102.352 145.555,102.299C145.763,102.219 145.918,102.079 146.019,101.88C146.12,101.68 146.17,101.42 146.17,101.101L146.17,91.547L143.988,91.547L143.988,90.269L146.17,90.269L146.17,89.432C146.17,87.44 146.605,85.826 147.474,84.591C148.343,83.355 149.43,82.738 150.735,82.738C151.399,82.738 151.899,82.893 152.235,83.203C152.571,83.514 152.738,83.891 152.738,84.335Z"/>
    </g>
    <g transform="matrix(1,0,0,0.840909,-13.3751,9.15028)">
        <path d="M163.2,96.643C163.2,97.566 163.077,98.473 162.831,99.365C162.584,100.256 162.233,101.012 161.778,101.633C161.263,102.343 160.665,102.871 159.986,103.217C159.306,103.563 158.544,103.736 157.7,103.736C156.999,103.736 156.33,103.578 155.696,103.263C155.061,102.948 154.497,102.489 154.004,101.886C153.519,101.292 153.132,100.567 152.845,99.71C152.557,98.854 152.414,97.894 152.414,96.83C152.414,94.78 152.916,93.104 153.92,91.8C154.924,90.496 156.241,89.844 157.869,89.844C159.414,89.844 160.689,90.462 161.694,91.7C162.698,92.937 163.2,94.585 163.2,96.643ZM160.884,96.67C160.884,96.005 160.828,95.302 160.716,94.561C160.604,93.82 160.436,93.192 160.212,92.678C159.972,92.128 159.658,91.687 159.27,91.354C158.881,91.021 158.407,90.855 157.846,90.855C157.271,90.855 156.779,91.023 156.372,91.361C155.965,91.698 155.634,92.159 155.38,92.744C155.141,93.286 154.973,93.902 154.876,94.594C154.778,95.286 154.73,95.956 154.73,96.603C154.73,97.455 154.788,98.242 154.904,98.965C155.019,99.688 155.204,100.334 155.459,100.901C155.713,101.469 156.032,101.915 156.417,102.239C156.802,102.563 157.278,102.724 157.846,102.724C158.78,102.724 159.52,102.188 160.066,101.114C160.611,100.041 160.884,98.559 160.884,96.67Z"/>
    </g>
    <g transform="matrix(1,0,0,0.840909,-13.3751,9.15028)">
        <path d="M173.696,91.906C173.696,92.359 173.603,92.76 173.416,93.11C173.23,93.461 172.943,93.636 172.555,93.636C172.137,93.636 171.818,93.507 171.598,93.25C171.378,92.993 171.268,92.709 171.268,92.398C171.268,92.203 171.281,92.026 171.307,91.866C171.333,91.706 171.357,91.547 171.38,91.387C171.029,91.387 170.619,91.556 170.149,91.893C169.679,92.23 169.28,92.709 168.952,93.33L168.952,100.968C168.952,101.278 169.002,101.531 169.103,101.726C169.203,101.922 169.362,102.068 169.578,102.166C169.765,102.254 170.005,102.321 170.3,102.365C170.595,102.41 170.85,102.441 171.066,102.458L171.066,103.337L165.248,103.337L165.248,102.458C165.419,102.441 165.596,102.423 165.779,102.405C165.962,102.387 166.121,102.352 166.255,102.299C166.464,102.219 166.618,102.08 166.719,101.88C166.82,101.681 166.87,101.422 166.87,101.103L166.87,93.008C166.87,92.734 166.816,92.463 166.708,92.198C166.6,91.932 166.449,91.719 166.255,91.56C166.113,91.453 165.945,91.376 165.751,91.327C165.557,91.278 165.348,91.245 165.125,91.227L165.125,90.349L168.795,90.056L168.952,90.243L168.952,92.092L169.007,92.092C169.47,91.374 169.985,90.828 170.552,90.456C171.119,90.083 171.637,89.897 172.107,89.897C172.577,89.897 172.959,90.079 173.254,90.442C173.549,90.806 173.696,91.294 173.696,91.906Z"/>
    </g>
    <g transform="matrix(1,0,0,0.840909,-13.3751,9.15028)">
        <path d="M187.895,102.764C187.41,103.004 186.951,103.206 186.519,103.37C186.086,103.534 185.556,103.616 184.93,103.616C184.005,103.616 183.354,103.339 182.977,102.784C182.6,102.23 182.412,101.447 182.412,100.436L182.412,91.547L180.42,91.547L180.42,90.269L182.457,90.269L182.457,86.184L184.493,86.184L184.493,90.269L187.66,90.269L187.66,91.547L184.516,91.547L184.516,98.879C184.516,99.429 184.532,99.888 184.566,100.256C184.6,100.624 184.68,100.946 184.807,101.221C184.926,101.478 185.105,101.673 185.344,101.806C185.582,101.939 185.903,102.006 186.306,102.006C186.492,102.006 186.767,101.986 187.128,101.946C187.49,101.906 187.746,101.855 187.895,101.793L187.895,102.764Z"/>
    </g>
    <g transform="matrix(1,0,0,0.840909,-13.3751,9.15028)">
        <path d="M201.457,103.337L196.029,103.337L196.029,102.458C196.201,102.441 196.391,102.423 196.6,102.405C196.809,102.387 196.981,102.352 197.115,102.299C197.324,102.219 197.479,102.079 197.579,101.88C197.68,101.68 197.73,101.42 197.73,101.101L197.73,94.355C197.73,93.423 197.545,92.704 197.175,92.199C196.805,91.693 196.354,91.44 195.824,91.44C195.435,91.44 195.074,91.514 194.741,91.66C194.408,91.806 194.111,91.986 193.85,92.199C193.595,92.421 193.401,92.642 193.266,92.864C193.132,93.086 193.027,93.272 192.952,93.423L192.952,100.968C192.952,101.27 193.003,101.518 193.103,101.713C193.204,101.908 193.359,102.059 193.568,102.166C193.732,102.254 193.902,102.321 194.077,102.365C194.252,102.41 194.444,102.441 194.653,102.458L194.653,103.337L189.248,103.337L189.248,102.458C189.419,102.441 189.597,102.421 189.782,102.398C189.967,102.376 190.123,102.343 190.249,102.298C190.456,102.219 190.612,102.079 190.715,101.879C190.819,101.679 190.871,101.42 190.871,101.1L190.871,85.813C190.871,85.511 190.813,85.209 190.698,84.907C190.582,84.606 190.431,84.379 190.244,84.228C190.11,84.113 189.873,84.031 189.534,83.982C189.194,83.933 188.92,83.9 188.711,83.882L188.711,83.03L192.796,82.738L192.952,82.937L192.952,92.092L192.997,92.092C193.244,91.8 193.468,91.54 193.67,91.314C193.871,91.088 194.137,90.85 194.465,90.602C194.749,90.389 195.084,90.212 195.468,90.07C195.853,89.928 196.285,89.857 196.763,89.857C197.749,89.857 198.508,90.227 199.038,90.968C199.569,91.709 199.834,92.775 199.834,94.168L199.834,100.995C199.834,101.305 199.881,101.556 199.975,101.746C200.069,101.937 200.225,102.086 200.442,102.192C200.615,102.272 200.771,102.332 200.91,102.372C201.049,102.412 201.231,102.441 201.457,102.458L201.457,103.337Z"/>
    </g>
    <g transform="matrix(1,0,0,0.840909,-13.3751,9.15028)">
        <path d="M213.049,100.249C212.586,101.296 211.967,102.13 211.191,102.751C210.415,103.372 209.524,103.683 208.517,103.683C207.629,103.683 206.851,103.496 206.184,103.124C205.516,102.751 204.966,102.245 204.533,101.607C204.101,100.968 203.778,100.223 203.565,99.371C203.353,98.52 203.246,97.619 203.246,96.67C203.246,95.818 203.36,94.982 203.588,94.162C203.815,93.341 204.149,92.602 204.589,91.946C205.014,91.316 205.542,90.808 206.173,90.422C206.803,90.036 207.51,89.844 208.293,89.844C209.099,89.844 209.789,89.994 210.363,90.296C210.938,90.598 211.404,91.01 211.762,91.533C212.105,92.03 212.361,92.616 212.528,93.29C212.696,93.964 212.78,94.696 212.78,95.486L212.78,96.364L205.473,96.364C205.473,97.226 205.542,98.009 205.68,98.711C205.818,99.414 206.036,100.032 206.335,100.565C206.626,101.081 207.006,101.487 207.476,101.785C207.946,102.083 208.506,102.232 209.155,102.232C209.819,102.232 210.391,102.047 210.872,101.677C211.353,101.307 211.818,100.64 212.265,99.677L213.049,100.249ZM210.576,95.246C210.576,94.751 210.54,94.22 210.469,93.654C210.399,93.088 210.285,92.615 210.128,92.235C209.957,91.828 209.722,91.496 209.423,91.24C209.125,90.983 208.741,90.855 208.271,90.855C207.487,90.855 206.836,91.242 206.318,92.016C205.8,92.79 205.518,93.866 205.473,95.246L210.576,95.246Z"/>
    </g>
    <g transform="matrix(1,0,0,0.840909,-13.3751,9.15028)">
        <path d="M230.94,94.674C231.276,95.117 231.524,95.603 231.684,96.131C231.845,96.659 231.925,97.273 231.925,97.974C231.925,99.642 231.406,101.017 230.37,102.099C229.333,103.181 228.046,103.722 226.509,103.722C225.8,103.722 225.092,103.592 224.383,103.33C223.674,103.068 223.063,102.751 222.548,102.379L222.067,103.35L221.172,103.35L221.015,96.883L221.921,96.883C222.108,97.681 222.326,98.402 222.576,99.045C222.826,99.688 223.156,100.289 223.566,100.848C223.954,101.372 224.407,101.789 224.926,102.099C225.444,102.41 226.047,102.565 226.733,102.565C227.248,102.565 227.697,102.485 228.081,102.325C228.465,102.165 228.777,101.939 229.016,101.645C229.254,101.352 229.431,101.008 229.547,100.613C229.663,100.217 229.721,99.762 229.721,99.247C229.721,98.492 229.542,97.788 229.183,97.135C228.825,96.482 228.292,95.987 227.583,95.649C227.098,95.42 226.543,95.166 225.916,94.887C225.289,94.609 224.749,94.346 224.294,94.099C223.398,93.62 222.703,92.992 222.207,92.216C221.711,91.44 221.462,90.427 221.462,89.177C221.462,88.458 221.586,87.789 221.832,87.168C222.078,86.547 222.429,85.993 222.884,85.505C223.316,85.044 223.827,84.683 224.417,84.421C225.006,84.159 225.621,84.028 226.263,84.028C226.994,84.028 227.649,84.162 228.227,84.428C228.805,84.694 229.333,85.004 229.81,85.359L230.269,84.454L231.164,84.454L231.254,90.722L230.347,90.722C230.183,90.003 229.998,89.316 229.793,88.659C229.588,88.003 229.321,87.408 228.993,86.876C228.672,86.362 228.281,85.951 227.818,85.645C227.356,85.339 226.789,85.186 226.117,85.186C225.409,85.186 224.805,85.457 224.305,85.998C223.805,86.539 223.555,87.2 223.555,87.981C223.555,88.797 223.715,89.473 224.036,90.01C224.357,90.547 224.823,90.988 225.435,91.334C225.979,91.644 226.515,91.913 227.041,92.139C227.567,92.365 228.076,92.607 228.568,92.864C229.016,93.095 229.446,93.357 229.86,93.649C230.274,93.942 230.634,94.284 230.94,94.674Z"/>
    </g>
    <g transform="matrix(1,0,0,0.840909,-13.3751,9.15028)">
        <path d="M243.886,100.249C243.424,101.296 242.805,102.13 242.029,102.751C241.253,103.372 240.362,103.683 239.355,103.683C238.467,103.683 237.689,103.496 237.021,103.124C236.354,102.751 235.804,102.245 235.371,101.607C234.938,100.968 234.616,100.223 234.403,99.371C234.19,98.52 234.084,97.619 234.084,96.67C234.084,95.818 234.198,94.982 234.425,94.162C234.653,93.341 234.987,92.602 235.427,91.946C235.852,91.316 236.38,90.808 237.01,90.422C237.641,90.036 238.347,89.844 239.131,89.844C239.936,89.844 240.626,89.994 241.201,90.296C241.775,90.598 242.241,91.01 242.6,91.533C242.943,92.03 243.198,92.616 243.366,93.29C243.534,93.964 243.618,94.696 243.618,95.486L243.618,96.364L236.311,96.364C236.311,97.226 236.38,98.009 236.518,98.711C236.656,99.414 236.874,100.032 237.172,100.565C237.463,101.081 237.844,101.487 238.314,101.785C238.784,102.083 239.343,102.232 239.992,102.232C240.656,102.232 241.229,102.047 241.71,101.677C242.191,101.307 242.655,100.64 243.103,99.677L243.886,100.249ZM241.413,95.246C241.413,94.751 241.378,94.22 241.307,93.654C241.236,93.088 241.122,92.615 240.966,92.235C240.794,91.828 240.559,91.496 240.261,91.24C239.962,90.983 239.578,90.855 239.108,90.855C238.325,90.855 237.674,91.242 237.156,92.016C236.637,92.79 236.356,93.866 236.311,95.246L241.413,95.246Z"/>
    </g>
    <g transform="matrix(1,0,0,0.840909,-13.3751,9.15028)">
        <path d="M254.069,91.906C254.069,92.359 253.975,92.76 253.789,93.11C253.602,93.461 253.315,93.636 252.927,93.636C252.51,93.636 252.191,93.507 251.971,93.25C251.75,92.993 251.64,92.709 251.64,92.398C251.64,92.203 251.653,92.026 251.68,91.866C251.706,91.706 251.73,91.547 251.752,91.387C251.402,91.387 250.991,91.556 250.521,91.893C250.051,92.23 249.652,92.709 249.324,93.33L249.324,100.968C249.324,101.278 249.374,101.531 249.475,101.726C249.576,101.922 249.734,102.068 249.951,102.166C250.137,102.254 250.378,102.321 250.673,102.365C250.967,102.41 251.223,102.441 251.439,102.458L251.439,103.337L245.62,103.337L245.62,102.458C245.792,102.441 245.969,102.423 246.152,102.405C246.335,102.387 246.493,102.352 246.627,102.299C246.836,102.219 246.991,102.08 247.092,101.88C247.192,101.681 247.243,101.422 247.243,101.103L247.243,93.008C247.243,92.734 247.189,92.463 247.081,92.198C246.972,91.932 246.821,91.719 246.627,91.56C246.486,91.453 246.318,91.376 246.124,91.327C245.93,91.278 245.721,91.245 245.497,91.227L245.497,90.349L249.167,90.056L249.324,90.243L249.324,92.092L249.38,92.092C249.843,91.374 250.357,90.828 250.924,90.456C251.491,90.083 252.01,89.897 252.48,89.897C252.95,89.897 253.332,90.079 253.627,90.442C253.921,90.806 254.069,91.294 254.069,91.906Z"/>
    </g>
    <g transform="matrix(1,0,0,0.840909,-13.3751,9.15028)">
        <path d="M260.816,103.337L255.489,103.337L255.489,102.458C255.661,102.441 255.838,102.423 256.021,102.405C256.204,102.387 256.362,102.352 256.496,102.299C256.705,102.219 256.86,102.08 256.961,101.88C257.061,101.681 257.112,101.422 257.112,101.103L257.112,93.008C257.112,92.725 257.058,92.466 256.95,92.231C256.841,91.996 256.69,91.799 256.496,91.64C256.355,91.533 256.149,91.442 255.881,91.367C255.612,91.292 255.366,91.245 255.142,91.227L255.142,90.349L259.036,90.056L259.193,90.243L259.193,100.941C259.193,101.252 259.243,101.509 259.343,101.713C259.443,101.917 259.601,102.068 259.815,102.166C259.978,102.245 260.138,102.31 260.293,102.359C260.449,102.407 260.623,102.441 260.816,102.458L260.816,103.337ZM259.417,84.88C259.417,85.386 259.277,85.827 258.997,86.204C258.718,86.581 258.372,86.77 257.962,86.77C257.582,86.77 257.252,86.59 256.972,86.231C256.692,85.871 256.552,85.461 256.552,85C256.552,84.512 256.692,84.086 256.972,83.722C257.252,83.359 257.582,83.177 257.962,83.177C258.387,83.177 258.736,83.348 259.008,83.689C259.281,84.031 259.417,84.428 259.417,84.88Z"/>
    </g>
    <g transform="matrix(1,0,0,0.840909,-13.3751,9.15028)">
        <path d="M270.852,84.335C270.852,84.734 270.763,85.071 270.584,85.346C270.405,85.621 270.133,85.758 269.767,85.758C269.536,85.758 269.332,85.701 269.157,85.585C268.982,85.47 268.82,85.315 268.67,85.12C268.521,84.924 268.383,84.703 268.256,84.454C268.13,84.206 268.021,84.006 267.932,83.855C267.432,83.882 267.046,84.296 266.774,85.097C266.501,85.898 266.365,87.175 266.365,88.928L266.365,90.269L269.207,90.269L269.207,91.547L266.365,91.547L266.365,100.968C266.365,101.278 266.416,101.531 266.516,101.726C266.617,101.922 266.776,102.068 266.992,102.166C267.171,102.245 267.41,102.31 267.708,102.359C268.006,102.407 268.264,102.441 268.48,102.458L268.48,103.337L262.661,103.337L262.661,102.458C262.833,102.441 263.01,102.423 263.193,102.405C263.376,102.387 263.534,102.352 263.669,102.299C263.877,102.219 264.032,102.079 264.133,101.88C264.234,101.68 264.284,101.42 264.284,101.101L264.284,91.547L262.102,91.547L262.102,90.269L264.284,90.269L264.284,89.432C264.284,87.44 264.719,85.826 265.588,84.591C266.457,83.355 267.544,82.738 268.849,82.738C269.513,82.738 270.013,82.893 270.349,83.203C270.685,83.514 270.852,83.891 270.852,84.335Z"/>
    </g>
    <g transform="matrix(1,0,0,0.840909,-13.3751,9.15028)">
        <path d="M284.749,84.335C284.749,84.734 284.66,85.071 284.481,85.346C284.302,85.621 284.029,85.758 283.664,85.758C283.433,85.758 283.229,85.701 283.054,85.585C282.879,85.47 282.716,85.315 282.567,85.12C282.418,84.924 282.28,84.703 282.153,84.454C282.026,84.206 281.918,84.006 281.829,83.855C281.329,83.882 280.943,84.296 280.671,85.097C280.398,85.898 280.262,87.175 280.262,88.928L280.262,90.269L283.104,90.269L283.104,91.547L280.262,91.547L280.262,100.968C280.262,101.278 280.312,101.531 280.413,101.726C280.514,101.922 280.672,102.068 280.889,102.166C281.068,102.245 281.306,102.31 281.605,102.359C281.903,102.407 282.161,102.441 282.377,102.458L282.377,103.337L276.558,103.337L276.558,102.458C276.73,102.441 276.907,102.423 277.09,102.405C277.273,102.387 277.431,102.352 277.565,102.299C277.774,102.219 277.929,102.079 278.03,101.88C278.13,101.68 278.181,101.42 278.181,101.101L278.181,91.547L275.999,91.547L275.999,90.269L278.181,90.269L278.181,89.432C278.181,87.44 278.615,85.826 279.484,84.591C280.353,83.355 281.441,82.738 282.746,82.738C283.41,82.738 283.91,82.893 284.246,83.203C284.581,83.514 284.749,83.891 284.749,84.335Z"/>
    </g>
    <g transform="matrix(1,0,0,0.840909,-13.3751,9.15028)">
        <path d="M295.211,96.643C295.211,97.566 295.088,98.473 294.842,99.365C294.595,100.256 294.244,101.012 293.789,101.633C293.273,102.343 292.676,102.871 291.996,103.217C291.317,103.563 290.555,103.736 289.711,103.736C289.009,103.736 288.341,103.578 287.706,103.263C287.072,102.948 286.508,102.489 286.015,101.886C285.529,101.292 285.143,100.567 284.855,99.71C284.568,98.854 284.424,97.894 284.424,96.83C284.424,94.78 284.926,93.104 285.931,91.8C286.935,90.496 288.251,89.844 289.879,89.844C291.425,89.844 292.7,90.462 293.705,91.7C294.709,92.937 295.211,94.585 295.211,96.643ZM292.895,96.67C292.895,96.005 292.839,95.302 292.727,94.561C292.615,93.82 292.447,93.192 292.222,92.678C291.983,92.128 291.669,91.687 291.281,91.354C290.892,91.021 290.417,90.855 289.857,90.855C289.281,90.855 288.79,91.023 288.383,91.361C287.976,91.698 287.645,92.159 287.391,92.744C287.152,93.286 286.983,93.902 286.886,94.594C286.789,95.286 286.741,95.956 286.741,96.603C286.741,97.455 286.798,98.242 286.914,98.965C287.03,99.688 287.215,100.334 287.469,100.901C287.723,101.469 288.043,101.915 288.428,102.239C288.813,102.563 289.289,102.724 289.857,102.724C290.791,102.724 291.531,102.188 292.077,101.114C292.622,100.041 292.895,98.559 292.895,96.67Z"/>
    </g>
    <g transform="matrix(1,0,0,0.840909,-13.3751,9.15028)">
        <path d="M309.444,103.337L304.051,103.337L304.051,102.458C304.222,102.441 304.411,102.423 304.616,102.405C304.821,102.387 304.991,102.352 305.125,102.299C305.334,102.219 305.489,102.079 305.589,101.88C305.69,101.68 305.74,101.42 305.74,101.101L305.74,94.355C305.74,93.423 305.555,92.704 305.185,92.199C304.815,91.693 304.364,91.44 303.834,91.44C303.437,91.44 303.075,91.514 302.746,91.66C302.417,91.806 302.125,91.986 301.871,92.199C301.624,92.403 301.428,92.622 301.282,92.858C301.136,93.093 301.03,93.281 300.962,93.423L300.962,100.968C300.962,101.27 301.015,101.518 301.119,101.713C301.223,101.908 301.38,102.059 301.589,102.166C301.746,102.254 301.915,102.321 302.098,102.365C302.281,102.41 302.469,102.441 302.663,102.458L302.663,103.337L297.258,103.337L297.258,102.458C297.43,102.441 297.607,102.423 297.79,102.405C297.973,102.387 298.131,102.352 298.266,102.299C298.474,102.219 298.629,102.08 298.73,101.88C298.831,101.681 298.881,101.422 298.881,101.103L298.881,93.008C298.881,92.707 298.827,92.43 298.719,92.178C298.611,91.925 298.46,91.719 298.266,91.56C298.124,91.453 297.956,91.376 297.762,91.327C297.568,91.278 297.359,91.245 297.135,91.227L297.135,90.349L300.806,90.056L300.962,90.243L300.962,92.092L301.018,92.092C301.197,91.879 301.421,91.624 301.69,91.327C301.958,91.03 302.212,90.788 302.451,90.602C302.727,90.389 303.055,90.212 303.435,90.07C303.816,89.928 304.245,89.857 304.722,89.857C305.781,89.857 306.567,90.249 307.078,91.034C307.589,91.82 307.844,92.864 307.844,94.168L307.844,100.995C307.844,101.305 307.889,101.556 307.978,101.746C308.068,101.937 308.221,102.086 308.437,102.192C308.616,102.281 308.771,102.343 308.901,102.379C309.032,102.414 309.213,102.441 309.444,102.458L309.444,103.337Z"/>
    </g>
    <g transform="matrix(1,0,0,0.840909,-13.3751,9.15028)">
        <path d="M318.071,102.764C317.586,103.004 317.127,103.206 316.695,103.37C316.262,103.534 315.732,103.616 315.106,103.616C314.181,103.616 313.53,103.339 313.153,102.784C312.776,102.23 312.588,101.447 312.588,100.436L312.588,91.547L310.596,91.547L310.596,90.269L312.633,90.269L312.633,86.184L314.669,86.184L314.669,90.269L317.836,90.269L317.836,91.547L314.692,91.547L314.692,98.879C314.692,99.429 314.708,99.888 314.742,100.256C314.776,100.624 314.856,100.946 314.983,101.221C315.102,101.478 315.281,101.673 315.52,101.806C315.758,101.939 316.079,102.006 316.482,102.006C316.669,102.006 316.943,101.986 317.305,101.946C317.666,101.906 317.922,101.855 318.071,101.793L318.071,102.764Z"/>
    </g>
    <g transform="matrix(1,0,0,0.840909,-13.3751,9.15028)">
        <path d="M332.897,96.909C333.202,97.229 333.437,97.597 333.602,98.014C333.766,98.431 333.848,98.941 333.848,99.544C333.848,100.76 333.465,101.753 332.701,102.525C331.936,103.297 330.946,103.683 329.73,103.683C329.088,103.683 328.497,103.545 327.956,103.27C327.415,102.995 327.029,102.742 326.798,102.512L326.574,103.377L325.735,103.377L325.623,98.812L326.395,98.812C326.455,99.16 326.582,99.565 326.776,100.027C326.97,100.49 327.205,100.909 327.481,101.283C327.772,101.674 328.12,102.004 328.527,102.271C328.934,102.538 329.39,102.671 329.898,102.671C330.614,102.671 331.166,102.477 331.554,102.089C331.942,101.701 332.136,101.145 332.136,100.422C332.136,100.05 332.074,99.728 331.951,99.458C331.828,99.187 331.647,98.95 331.408,98.746C331.162,98.542 330.86,98.358 330.502,98.194C330.144,98.029 329.745,97.868 329.305,97.708C328.954,97.584 328.564,97.413 328.135,97.196C327.706,96.978 327.339,96.723 327.033,96.43C326.705,96.12 326.436,95.738 326.227,95.286C326.019,94.834 325.914,94.301 325.914,93.689C325.914,92.616 326.25,91.706 326.921,90.961C327.593,90.216 328.492,89.844 329.618,89.844C330.051,89.844 330.493,89.91 330.944,90.043C331.395,90.176 331.763,90.336 332.046,90.522L332.304,89.83L333.109,89.83L333.277,94.048L332.505,94.048C332.348,93.104 332.011,92.336 331.492,91.743C330.974,91.151 330.342,90.855 329.596,90.855C328.984,90.855 328.503,91.038 328.152,91.404C327.801,91.771 327.626,92.213 327.626,92.731C327.626,93.13 327.684,93.463 327.8,93.729C327.915,93.995 328.089,94.221 328.32,94.408C328.544,94.585 328.825,94.752 329.165,94.907C329.504,95.062 329.924,95.237 330.424,95.432C330.916,95.619 331.38,95.836 331.817,96.084C332.253,96.333 332.613,96.608 332.897,96.909Z"/>
    </g>
    <g transform="matrix(1,0,0,0.840909,-13.3751,9.15028)">
        <path d="M341.076,103.683C339.479,103.683 338.23,103.053 337.327,101.793C336.425,100.533 335.973,98.843 335.973,96.723C335.973,95.801 336.095,94.938 336.337,94.135C336.579,93.332 336.932,92.602 337.394,91.946C337.835,91.316 338.387,90.808 339.051,90.422C339.714,90.036 340.438,89.844 341.221,89.844C342.303,89.844 343.183,90.152 343.862,90.768C344.541,91.385 344.88,92.225 344.88,93.29C344.88,93.734 344.791,94.126 344.612,94.468C344.433,94.809 344.138,94.98 343.728,94.98C343.288,94.98 342.946,94.847 342.704,94.582C342.462,94.317 342.34,94.02 342.34,93.693C342.34,93.295 342.385,92.886 342.475,92.466C342.564,92.046 342.616,91.739 342.631,91.545C342.497,91.27 342.298,91.087 342.034,90.994C341.77,90.901 341.485,90.855 341.18,90.855C340.823,90.855 340.483,90.946 340.159,91.128C339.835,91.309 339.521,91.644 339.216,92.132C338.941,92.576 338.717,93.175 338.546,93.929C338.375,94.683 338.29,95.583 338.29,96.63C338.29,98.28 338.597,99.626 339.211,100.669C339.826,101.711 340.632,102.232 341.63,102.232C342.353,102.232 342.958,102.023 343.446,101.603C343.934,101.184 344.386,100.555 344.803,99.717L345.518,100.276C345.026,101.323 344.377,102.152 343.571,102.764C342.766,103.377 341.934,103.683 341.076,103.683Z"/>
    </g>
    <g transform="matrix(1,0,0,0.840909,-13.3751,9.15028)">
        <path d="M358.845,103.337L353.418,103.337L353.418,102.458C353.589,102.441 353.78,102.423 353.988,102.405C354.197,102.387 354.369,102.352 354.503,102.299C354.712,102.219 354.867,102.079 354.968,101.88C355.068,101.68 355.119,101.42 355.119,101.101L355.119,94.355C355.119,93.423 354.934,92.704 354.563,92.199C354.193,91.693 353.743,91.44 353.212,91.44C352.823,91.44 352.462,91.514 352.13,91.66C351.797,91.806 351.5,91.986 351.238,92.199C350.984,92.421 350.789,92.642 350.655,92.864C350.52,93.086 350.415,93.272 350.341,93.423L350.341,100.968C350.341,101.27 350.391,101.518 350.492,101.713C350.592,101.908 350.747,102.059 350.956,102.166C351.12,102.254 351.29,102.321 351.465,102.365C351.64,102.41 351.833,102.441 352.041,102.458L352.041,103.337L346.637,103.337L346.637,102.458C346.807,102.441 346.985,102.421 347.17,102.398C347.355,102.376 347.511,102.343 347.637,102.298C347.844,102.219 348,102.079 348.104,101.879C348.207,101.679 348.259,101.42 348.259,101.1L348.259,85.813C348.259,85.511 348.201,85.209 348.086,84.907C347.97,84.606 347.819,84.379 347.633,84.228C347.498,84.113 347.261,84.031 346.922,83.982C346.583,83.933 346.308,83.9 346.1,83.882L346.1,83.03L350.184,82.738L350.341,82.937L350.341,92.092L350.385,92.092C350.632,91.8 350.856,91.54 351.058,91.314C351.26,91.088 351.525,90.85 351.854,90.602C352.138,90.389 352.472,90.212 352.857,90.07C353.242,89.928 353.673,89.857 354.151,89.857C355.138,89.857 355.896,90.227 356.426,90.968C356.957,91.709 357.222,92.775 357.222,94.168L357.222,100.995C357.222,101.305 357.269,101.556 357.363,101.746C357.457,101.937 357.613,102.086 357.831,102.192C358.003,102.272 358.159,102.332 358.298,102.372C358.437,102.412 358.619,102.441 358.845,102.458L358.845,103.337Z"/>
    </g>
    <g transform="matrix(1,0,0,0.840909,-13.3751,9.15028)">
        <path d="M370.437,100.249C369.974,101.296 369.355,102.13 368.579,102.751C367.804,103.372 366.912,103.683 365.905,103.683C365.017,103.683 364.24,103.496 363.572,103.124C362.904,102.751 362.354,102.245 361.922,101.607C361.489,100.968 361.166,100.223 360.954,99.371C360.741,98.52 360.635,97.619 360.635,96.67C360.635,95.818 360.748,94.982 360.976,94.162C361.204,93.341 361.537,92.602 361.977,91.946C362.403,91.316 362.93,90.808 363.561,90.422C364.191,90.036 364.898,89.844 365.681,89.844C366.487,89.844 367.177,89.994 367.751,90.296C368.326,90.598 368.792,91.01 369.15,91.533C369.493,92.03 369.749,92.616 369.917,93.29C370.084,93.964 370.168,94.696 370.168,95.486L370.168,96.364L362.861,96.364C362.861,97.226 362.93,98.009 363.068,98.711C363.206,99.414 363.425,100.032 363.723,100.565C364.014,101.081 364.394,101.487 364.864,101.785C365.334,102.083 365.894,102.232 366.543,102.232C367.207,102.232 367.779,102.047 368.261,101.677C368.742,101.307 369.206,100.64 369.654,99.677L370.437,100.249ZM367.964,95.246C367.964,94.751 367.929,94.22 367.858,93.654C367.787,93.088 367.673,92.615 367.516,92.235C367.345,91.828 367.11,91.496 366.811,91.24C366.513,90.983 366.129,90.855 365.659,90.855C364.876,90.855 364.225,91.242 363.706,92.016C363.188,92.79 362.906,93.866 362.861,95.246L367.964,95.246Z"/>
    </g>
    <g transform="matrix(1,0,0,0.840909,-13.3751,9.15028)">
        <path d="M391.048,103.337L385.677,103.337L385.677,102.458C385.849,102.441 386.022,102.423 386.197,102.405C386.373,102.387 386.527,102.352 386.662,102.299C386.871,102.219 387.025,102.079 387.126,101.88C387.227,101.68 387.277,101.42 387.277,101.101L387.277,94.328C387.277,93.405 387.1,92.693 386.746,92.192C386.391,91.691 385.949,91.44 385.42,91.44C385.054,91.44 384.711,91.507 384.39,91.64C384.069,91.773 383.775,91.959 383.506,92.199C383.29,92.394 383.109,92.605 382.963,92.831C382.818,93.057 382.708,93.246 382.633,93.396L382.633,100.968C382.633,101.278 382.678,101.534 382.768,101.733C382.857,101.933 383.01,102.086 383.226,102.192C383.398,102.272 383.553,102.332 383.691,102.372C383.829,102.412 384.01,102.441 384.233,102.458L384.233,103.337L378.974,103.337L378.974,102.458C379.146,102.441 379.312,102.423 379.472,102.405C379.633,102.387 379.78,102.352 379.914,102.299C380.123,102.219 380.278,102.079 380.379,101.88C380.479,101.68 380.53,101.42 380.53,101.101L380.53,94.328C380.53,93.405 380.352,92.693 379.997,92.192C379.642,91.691 379.199,91.44 378.668,91.44C378.301,91.44 377.957,91.509 377.636,91.647C377.314,91.784 377.019,91.973 376.75,92.212C376.533,92.407 376.35,92.627 376.2,92.871C376.051,93.115 375.938,93.299 375.864,93.423L375.864,100.941C375.864,101.243 375.916,101.496 376.02,101.7C376.125,101.904 376.281,102.059 376.49,102.166C376.647,102.254 376.807,102.321 376.971,102.365C377.135,102.41 377.318,102.441 377.52,102.458L377.52,103.337L372.16,103.337L372.16,102.458C372.331,102.441 372.508,102.423 372.691,102.405C372.874,102.387 373.033,102.352 373.167,102.299C373.376,102.219 373.53,102.08 373.631,101.88C373.732,101.681 373.782,101.422 373.782,101.103L373.782,92.955C373.782,92.672 373.728,92.417 373.62,92.191C373.512,91.965 373.361,91.772 373.167,91.613C373.025,91.507 372.85,91.42 372.641,91.354C372.432,91.287 372.216,91.245 371.992,91.227L371.992,90.349L375.684,90.056L375.841,90.243L375.841,92.119L375.919,92.119C376.106,91.897 376.334,91.636 376.602,91.334C376.871,91.032 377.121,90.788 377.352,90.602C377.613,90.389 377.939,90.212 378.331,90.07C378.723,89.928 379.146,89.857 379.601,89.857C380.317,89.857 380.933,90.085 381.447,90.542C381.962,90.999 382.331,91.551 382.555,92.199C382.823,91.888 383.06,91.616 383.264,91.38C383.469,91.145 383.739,90.895 384.074,90.629C384.357,90.398 384.691,90.212 385.074,90.07C385.458,89.928 385.884,89.857 386.353,89.857C387.284,89.857 388.022,90.221 388.565,90.948C389.109,91.675 389.381,92.793 389.381,94.301L389.381,100.968C389.381,101.278 389.426,101.534 389.515,101.733C389.605,101.933 389.758,102.086 389.974,102.192C390.145,102.272 390.315,102.332 390.483,102.372C390.651,102.412 390.839,102.441 391.048,102.458L391.048,103.337Z"/>
    </g>
    <g transform="matrix(1,0,0,0.840909,-13.3751,9.15028)">
        <path d="M402.618,100.249C402.155,101.296 401.536,102.13 400.76,102.751C399.985,103.372 399.093,103.683 398.086,103.683C397.198,103.683 396.421,103.496 395.753,103.124C395.085,102.751 394.535,102.245 394.102,101.607C393.67,100.968 393.347,100.223 393.135,99.371C392.922,98.52 392.816,97.619 392.816,96.67C392.816,95.818 392.929,94.982 393.157,94.162C393.384,93.341 393.718,92.602 394.158,91.946C394.584,91.316 395.111,90.808 395.742,90.422C396.372,90.036 397.079,89.844 397.862,89.844C398.668,89.844 399.358,89.994 399.932,90.296C400.507,90.598 400.973,91.01 401.331,91.533C401.674,92.03 401.93,92.616 402.098,93.29C402.265,93.964 402.349,94.696 402.349,95.486L402.349,96.364L395.042,96.364C395.042,97.226 395.111,98.009 395.249,98.711C395.387,99.414 395.606,100.032 395.904,100.565C396.195,101.081 396.575,101.487 397.045,101.785C397.515,102.083 398.075,102.232 398.724,102.232C399.388,102.232 399.96,102.047 400.441,101.677C400.923,101.307 401.387,100.64 401.835,99.677L402.618,100.249ZM400.145,95.246C400.145,94.751 400.109,94.22 400.039,93.654C399.968,93.088 399.854,92.615 399.697,92.235C399.526,91.828 399.291,91.496 398.992,91.24C398.694,90.983 398.31,90.855 397.84,90.855C397.057,90.855 396.406,91.242 395.887,92.016C395.369,92.79 395.087,93.866 395.042,95.246L400.145,95.246Z"/>
    </g>
    <g transform="matrix(1,0,0,0.840909,-13.3751,9.15028)">
        <path d="M408.19,101.806C408.19,102.303 408.039,102.727 407.737,103.077C407.435,103.428 407.075,103.603 406.657,103.603C406.239,103.603 405.879,103.428 405.577,103.077C405.275,102.727 405.124,102.303 405.124,101.806C405.124,101.31 405.275,100.881 405.577,100.522C405.879,100.163 406.239,99.983 406.657,99.983C407.075,99.983 407.435,100.163 407.737,100.522C408.039,100.881 408.19,101.31 408.19,101.806Z"/>
    </g>
</svg>
