<svg width="100%" height="100%" viewBox="0 0 640 120" xmlns="http://www.w3.org/2000/svg">
    <g transform="matrix(1,0,0,0.613317,-6.0188,22.9)">
        <path d="M21.569,61.306C18.835,61.306 16.219,60.667 13.719,59.39C11.219,58.113 9.235,56.469 7.769,54.458L10.019,46.224C11.419,48.018 13.152,49.512 15.219,50.708C17.285,51.904 19.402,52.501 21.569,52.501C23.402,52.501 24.885,52.175 26.019,51.523C27.152,50.871 27.985,49.988 28.519,48.874C29.052,47.759 29.319,46.496 29.319,45.083C29.319,43.344 28.935,41.944 28.169,40.884C27.402,39.824 26.41,38.982 25.194,38.357C23.977,37.732 22.627,37.148 21.144,36.604C19.66,36.061 18.177,35.422 16.694,34.688C15.21,33.955 13.86,33.004 12.644,31.835C11.427,30.667 10.435,29.104 9.669,27.147C8.902,25.191 8.519,22.691 8.519,19.647C8.519,16.549 9.027,13.71 10.044,11.128C11.06,8.546 12.61,6.481 14.694,4.932C16.777,3.383 19.419,2.609 22.619,2.609C24.719,2.609 26.802,3.044 28.869,3.913C30.935,4.783 32.735,6.033 34.269,7.663L32.219,15.897C30.652,14.375 29.035,13.248 27.369,12.514C25.702,11.78 24.102,11.413 22.569,11.413C20.769,11.413 19.31,11.767 18.194,12.473C17.077,13.18 16.26,14.104 15.744,15.245C15.227,16.386 14.969,17.691 14.969,19.158C14.969,20.897 15.344,22.297 16.094,23.357C16.844,24.416 17.827,25.245 19.044,25.843C20.26,26.441 21.619,27.025 23.119,27.596C24.619,28.167 26.11,28.805 27.594,29.512C29.077,30.218 30.427,31.142 31.644,32.283C32.86,33.425 33.844,34.974 34.594,36.93C35.344,38.887 35.719,41.36 35.719,44.349C35.719,47.393 35.21,50.205 34.194,52.787C33.177,55.368 31.619,57.434 29.519,58.983C27.419,60.532 24.769,61.306 21.569,61.306Z"/>
    </g>
    <g transform="matrix(1,0,0,0.613317,-6.0188,22.9)">
        <path d="M57.519,60.491L57.519,51.686L57.169,49.811L57.169,34.403C57.169,31.414 56.619,29.09 55.519,27.433C54.419,25.775 52.752,24.946 50.519,24.946C49.019,24.946 47.544,25.327 46.094,26.088C44.644,26.849 43.419,27.908 42.419,29.267L39.969,21.848C41.402,20.055 43.11,18.71 45.094,17.813C47.077,16.916 49.135,16.468 51.269,16.468C55.135,16.468 58.127,17.976 60.244,20.992C62.36,24.009 63.419,28.669 63.419,34.974L63.419,60.491L57.519,60.491ZM49.119,61.061C47.119,61.061 45.369,60.504 43.869,59.39C42.369,58.276 41.21,56.727 40.394,54.743C39.577,52.76 39.169,50.518 39.169,48.018C39.169,45.572 39.527,43.371 40.244,41.414C40.96,39.458 42.135,37.909 43.769,36.767C45.402,35.626 47.569,35.055 50.269,35.055L58.019,35.055L58.019,41.822L50.719,41.822C48.585,41.822 47.152,42.379 46.419,43.493C45.685,44.607 45.319,45.979 45.319,47.61C45.319,49.458 45.769,50.925 46.669,52.012C47.569,53.099 48.819,53.643 50.419,53.643C51.952,53.643 53.327,53.072 54.544,51.931C55.76,50.789 56.635,49.105 57.169,46.876L58.219,52.991C57.619,55.545 56.544,57.529 54.994,58.942C53.444,60.355 51.485,61.061 49.119,61.061Z"/>
    </g>
    <g transform="matrix(1,0,0,0.613317,-6.0188,22.9)">
        <path d="M104.619,16.468C106.752,16.468 108.644,17.147 110.294,18.506C111.944,19.865 113.235,21.944 114.169,24.743C115.102,27.541 115.569,31.142 115.569,35.544L115.569,60.491L109.319,60.491L109.319,36.849C109.319,32.99 108.802,30.11 107.769,28.207C106.735,26.305 105.252,25.354 103.319,25.354C101.952,25.354 100.744,25.843 99.694,26.821C98.644,27.8 97.827,29.24 97.244,31.142C96.66,33.044 96.369,35.463 96.369,38.398L96.369,60.491L90.119,60.491L90.119,36.849C90.119,32.99 89.602,30.11 88.569,28.207C87.535,26.305 86.052,25.354 84.119,25.354C82.752,25.354 81.544,25.843 80.494,26.821C79.444,27.8 78.627,29.24 78.044,31.142C77.46,33.044 77.169,35.463 77.169,38.398L77.169,60.491L70.919,60.491L70.919,16.957L76.869,16.957L76.869,28.533L75.819,25.109C76.719,22.283 78.027,20.136 79.744,18.669C81.46,17.202 83.419,16.468 85.619,16.468C88.119,16.468 90.294,17.473 92.144,19.484C93.994,21.495 95.219,24.539 95.819,28.615L93.369,27.229C94.235,23.968 95.669,21.359 97.669,19.403C99.669,17.446 101.985,16.468 104.619,16.468Z"/>
    </g>
    <g transform="matrix(1,0,0,0.613317,-6.0188,22.9)">
        <path d="M137.869,61.061C135.702,61.061 133.727,60.246 131.944,58.616C130.16,56.985 128.744,54.526 127.694,51.238C126.644,47.95 126.119,43.778 126.119,38.724C126.119,33.615 126.627,29.43 127.644,26.169C128.66,22.908 130.052,20.476 131.819,18.873C133.585,17.269 135.602,16.468 137.869,16.468C140.502,16.468 142.827,17.392 144.844,19.24C146.86,21.088 148.46,23.669 149.644,26.984C150.827,30.3 151.419,34.213 151.419,38.724C151.419,43.235 150.827,47.162 149.644,50.504C148.46,53.847 146.86,56.442 144.844,58.29C142.827,60.137 140.502,61.061 137.869,61.061ZM123.069,76.306L123.069,16.957L129.019,16.957L129.019,27.229L128.819,38.805L129.319,50.382L129.319,76.306L123.069,76.306ZM137.169,52.338C138.669,52.338 140.01,51.795 141.194,50.708C142.377,49.621 143.319,48.045 144.019,45.979C144.719,43.914 145.069,41.496 145.069,38.724C145.069,35.898 144.719,33.466 144.019,31.427C143.319,29.389 142.377,27.827 141.194,26.74C140.01,25.653 138.669,25.109 137.169,25.109C135.669,25.109 134.319,25.653 133.119,26.74C131.919,27.827 130.969,29.389 130.269,31.427C129.569,33.466 129.219,35.898 129.219,38.724C129.219,41.496 129.569,43.914 130.269,45.979C130.969,48.045 131.919,49.621 133.119,50.708C134.319,51.795 135.669,52.338 137.169,52.338Z"/>
    </g>
    <g transform="matrix(1,0,0,0.613317,-6.0188,22.9)">
        <rect x="156.869" y="0" width="6.25" height="60.491"/>
    </g>
    <g transform="matrix(1,0,0,0.613317,-6.0188,22.9)">
        <path d="M183.369,61.061C180.402,61.061 177.81,60.097 175.594,58.167C173.377,56.238 171.66,53.588 170.444,50.219C169.227,46.849 168.619,43.017 168.619,38.724C168.619,34.376 169.21,30.531 170.394,27.188C171.577,23.846 173.21,21.223 175.294,19.321C177.377,17.419 179.752,16.468 182.419,16.468C185.019,16.468 187.335,17.392 189.369,19.24C191.402,21.088 193.002,23.696 194.169,27.066C195.335,30.436 195.919,34.403 195.919,38.968C195.919,39.403 195.91,39.892 195.894,40.436C195.877,40.979 195.852,41.496 195.819,41.985L173.569,41.985L173.569,35.218L192.519,35.218L190.069,37.338C190.102,34.838 189.785,32.637 189.119,30.735C188.452,28.832 187.544,27.338 186.394,26.251C185.244,25.164 183.919,24.62 182.419,24.62C180.885,24.62 179.544,25.164 178.394,26.251C177.244,27.338 176.344,28.846 175.694,30.775C175.044,32.705 174.719,34.974 174.719,37.583L174.719,39.213C174.719,41.822 175.085,44.132 175.819,46.143C176.552,48.153 177.585,49.702 178.919,50.789C180.252,51.876 181.785,52.42 183.519,52.42C185.019,52.42 186.369,52.039 187.569,51.279C188.769,50.518 189.835,49.322 190.769,47.691L194.119,53.969C192.919,56.252 191.41,58.004 189.594,59.227C187.777,60.45 185.702,61.061 183.369,61.061Z"/>
    </g>
    <g transform="matrix(1,0,0,0.613317,-6.0188,22.9)">
        <path d="M239.919,3.424L246.419,3.424L246.419,60.491L239.919,60.491L239.919,3.424ZM221.819,60.491L215.319,60.491L215.319,3.424L221.819,3.424L221.819,60.491ZM240.419,36.034L221.269,36.034L221.269,26.984L240.419,26.984L240.419,36.034Z"/>
    </g>
    <g transform="matrix(1,0,0,0.613317,-6.0188,22.9)">
        <path d="M267.269,61.061C264.302,61.061 261.71,60.097 259.494,58.167C257.277,56.238 255.56,53.588 254.344,50.219C253.127,46.849 252.519,43.017 252.519,38.724C252.519,34.376 253.11,30.531 254.294,27.188C255.477,23.846 257.11,21.223 259.194,19.321C261.277,17.419 263.652,16.468 266.319,16.468C268.919,16.468 271.235,17.392 273.269,19.24C275.302,21.088 276.902,23.696 278.069,27.066C279.235,30.436 279.819,34.403 279.819,38.968C279.819,39.403 279.81,39.892 279.794,40.436C279.777,40.979 279.752,41.496 279.719,41.985L257.469,41.985L257.469,35.218L276.419,35.218L273.969,37.338C274.002,34.838 273.685,32.637 273.019,30.735C272.352,28.832 271.444,27.338 270.294,26.251C269.144,25.164 267.819,24.62 266.319,24.62C264.785,24.62 263.444,25.164 262.294,26.251C261.144,27.338 260.244,28.846 259.594,30.775C258.944,32.705 258.619,34.974 258.619,37.583L258.619,39.213C258.619,41.822 258.985,44.132 259.719,46.143C260.452,48.153 261.485,49.702 262.819,50.789C264.152,51.876 265.685,52.42 267.419,52.42C268.919,52.42 270.269,52.039 271.469,51.279C272.669,50.518 273.735,49.322 274.669,47.691L278.019,53.969C276.819,56.252 275.31,58.004 273.494,59.227C271.677,60.45 269.602,61.061 267.269,61.061Z"/>
    </g>
    <g transform="matrix(1,0,0,0.613317,-6.0188,22.9)">
        <path d="M301.019,60.491L301.019,51.686L300.669,49.811L300.669,34.403C300.669,31.414 300.119,29.09 299.019,27.433C297.919,25.775 296.252,24.946 294.019,24.946C292.519,24.946 291.044,25.327 289.594,26.088C288.144,26.849 286.919,27.908 285.919,29.267L283.469,21.848C284.902,20.055 286.61,18.71 288.594,17.813C290.577,16.916 292.635,16.468 294.769,16.468C298.635,16.468 301.627,17.976 303.744,20.992C305.86,24.009 306.919,28.669 306.919,34.974L306.919,60.491L301.019,60.491ZM292.619,61.061C290.619,61.061 288.869,60.504 287.369,59.39C285.869,58.276 284.71,56.727 283.894,54.743C283.077,52.76 282.669,50.518 282.669,48.018C282.669,45.572 283.027,43.371 283.744,41.414C284.46,39.458 285.635,37.909 287.269,36.767C288.902,35.626 291.069,35.055 293.769,35.055L301.519,35.055L301.519,41.822L294.219,41.822C292.085,41.822 290.652,42.379 289.919,43.493C289.185,44.607 288.819,45.979 288.819,47.61C288.819,49.458 289.269,50.925 290.169,52.012C291.069,53.099 292.319,53.643 293.919,53.643C295.452,53.643 296.827,53.072 298.044,51.931C299.26,50.789 300.135,49.105 300.669,46.876L301.719,52.991C301.119,55.545 300.044,57.529 298.494,58.942C296.944,60.355 294.985,61.061 292.619,61.061Z"/>
    </g>
    <g transform="matrix(1,0,0,0.613317,-6.0188,22.9)">
        <path d="M325.769,61.061C323.202,61.061 320.894,60.124 318.844,58.249C316.794,56.374 315.185,53.779 314.019,50.463C312.852,47.148 312.269,43.235 312.269,38.724C312.269,34.213 312.852,30.3 314.019,26.984C315.185,23.669 316.794,21.088 318.844,19.24C320.894,17.392 323.202,16.468 325.769,16.468C328.002,16.468 330.002,17.269 331.769,18.873C333.535,20.476 334.935,22.908 335.969,26.169C337.002,29.43 337.519,33.615 337.519,38.724C337.519,43.778 337.019,47.95 336.019,51.238C335.019,54.526 333.635,56.985 331.869,58.616C330.102,60.246 328.069,61.061 325.769,61.061ZM326.519,52.338C328.019,52.338 329.36,51.795 330.544,50.708C331.727,49.621 332.677,48.045 333.394,45.979C334.11,43.914 334.469,41.496 334.469,38.724C334.469,35.898 334.11,33.466 333.394,31.427C332.677,29.389 331.727,27.827 330.544,26.74C329.36,25.653 328.019,25.109 326.519,25.109C325.019,25.109 323.677,25.653 322.494,26.74C321.31,27.827 320.36,29.389 319.644,31.427C318.927,33.466 318.569,35.898 318.569,38.724C318.569,41.496 318.927,43.914 319.644,45.979C320.36,48.045 321.31,49.621 322.494,50.708C323.677,51.795 325.019,52.338 326.519,52.338ZM334.619,60.491L334.619,50.219L334.869,38.642L334.369,27.066L334.369,0L340.569,0L340.569,60.491L334.619,60.491Z"/>
    </g>
    <g transform="matrix(1,0,0,0.613317,-6.0188,22.9)">
        <path d="M348.319,60.491L348.319,16.957L354.569,16.957L354.569,60.491L348.319,60.491ZM351.469,9.783C350.302,9.783 349.344,9.185 348.594,7.989C347.844,6.794 347.469,5.353 347.469,3.669C347.469,1.929 347.844,0.476 348.594,-0.693C349.344,-1.861 350.302,-2.446 351.469,-2.446C352.635,-2.446 353.594,-1.889 354.344,-0.774C355.094,0.34 355.469,1.739 355.469,3.424C355.469,5.218 355.102,6.726 354.369,7.949C353.635,9.171 352.669,9.783 351.469,9.783Z"/>
    </g>
    <g transform="matrix(1,0,0,0.613317,-6.0188,22.9)">
        <path d="M377.419,16.468C379.552,16.468 381.46,17.147 383.144,18.506C384.827,19.865 386.152,21.944 387.119,24.743C388.085,27.541 388.569,31.142 388.569,35.544L388.569,60.491L382.319,60.491L382.319,36.849C382.319,32.99 381.76,30.11 380.644,28.207C379.527,26.305 377.969,25.354 375.969,25.354C374.502,25.354 373.202,25.843 372.069,26.821C370.935,27.8 370.06,29.254 369.444,31.183C368.827,33.112 368.519,35.544 368.519,38.479L368.519,60.491L362.269,60.491L362.269,16.957L368.219,16.957L368.219,28.696L367.169,25.109C368.102,22.338 369.46,20.204 371.244,18.71C373.027,17.215 375.085,16.468 377.419,16.468Z"/>
    </g>
    <g transform="matrix(1,0,0,0.613317,-6.0188,22.9)">
        <path d="M408.169,76.877C405.702,76.877 403.294,76.347 400.944,75.287C398.594,74.228 396.669,72.692 395.169,70.681L397.969,63.018C399.135,64.594 400.61,65.858 402.394,66.809C404.177,67.76 405.985,68.236 407.819,68.236C410.752,68.236 412.902,67.135 414.269,64.934C415.635,62.733 416.319,59.431 416.319,55.029L416.319,47.284L416.819,37.419L416.619,27.555L416.619,16.957L422.569,16.957L422.569,53.887C422.569,61.768 421.335,67.57 418.869,71.293C416.402,75.016 412.835,76.877 408.169,76.877ZM407.369,58.534C404.835,58.534 402.544,57.651 400.494,55.885C398.444,54.118 396.827,51.659 395.644,48.507C394.46,45.354 393.869,41.659 393.869,37.419C393.869,33.235 394.46,29.566 395.644,26.414C396.827,23.261 398.444,20.816 400.494,19.077C402.544,17.337 404.835,16.468 407.369,16.468C409.635,16.468 411.669,17.202 413.469,18.669C415.269,20.136 416.71,22.419 417.794,25.517C418.877,28.615 419.419,32.582 419.419,37.419C419.419,42.257 418.877,46.238 417.794,49.363C416.71,52.488 415.269,54.798 413.469,56.292C411.669,57.787 409.635,58.534 407.369,58.534ZM408.319,49.893C409.885,49.893 411.285,49.363 412.519,48.303C413.752,47.243 414.71,45.776 415.394,43.901C416.077,42.026 416.419,39.865 416.419,37.419C416.419,34.974 416.077,32.813 415.394,30.938C414.71,29.063 413.752,27.623 412.519,26.618C411.285,25.612 409.885,25.109 408.319,25.109C406.752,25.109 405.344,25.612 404.094,26.618C402.844,27.623 401.877,29.063 401.194,30.938C400.51,32.813 400.169,34.974 400.169,37.419C400.169,39.865 400.51,42.026 401.194,43.901C401.877,45.776 402.844,47.243 404.094,48.303C405.344,49.363 406.752,49.893 408.319,49.893Z"/>
    </g>
    <g transform="matrix(0.738505,0,0,1,-5.92656,-1.84399)">
        <path d="M17.8,98.431C16.083,98.431 14.531,98.267 13.145,97.939C11.759,97.61 10.559,97.133 9.546,96.506L10.446,94.994C11.501,95.59 12.607,96.033 13.766,96.323C14.924,96.613 16.269,96.759 17.8,96.759C19.662,96.759 21.043,96.503 21.943,95.991C22.842,95.479 23.292,94.803 23.292,93.963C23.292,93.29 22.967,92.756 22.315,92.359C21.663,91.961 20.572,91.648 19.041,91.419L15.814,90.938C13.869,90.632 12.416,90.132 11.454,89.437C10.492,88.742 10.011,87.813 10.011,86.652C10.011,85.69 10.347,84.85 11.02,84.131C11.692,83.413 12.628,82.856 13.828,82.459C15.028,82.061 16.414,81.863 17.986,81.863C19.455,81.863 20.82,82.035 22.082,82.378C23.344,82.722 24.41,83.215 25.278,83.856L24.378,85.323C23.448,84.697 22.465,84.242 21.431,83.96C20.396,83.677 19.238,83.536 17.955,83.536C16.321,83.536 15.017,83.814 14.045,84.372C13.073,84.93 12.587,85.667 12.587,86.584C12.587,87.317 12.892,87.897 13.502,88.325C14.112,88.753 15.111,89.066 16.497,89.265L19.724,89.769C21.813,90.09 23.36,90.575 24.363,91.224C25.366,91.873 25.868,92.756 25.868,93.871C25.868,94.772 25.542,95.567 24.891,96.254C24.239,96.942 23.308,97.477 22.098,97.859C20.887,98.24 19.455,98.431 17.8,98.431Z"/>
    </g>
    <g transform="matrix(0.738505,0,0,1,-5.92656,-1.84399)">
        <path d="M34.215,98.431C33.181,98.431 32.255,98.283 31.438,97.985C30.621,97.687 29.974,97.278 29.499,96.759C29.023,96.239 28.785,95.659 28.785,95.017C28.785,94.207 29.069,93.565 29.638,93.092C30.207,92.618 31.148,92.278 32.462,92.072C33.776,91.866 35.57,91.763 37.846,91.763L38.839,91.763L38.839,91.052C38.839,90.105 38.575,89.421 38.048,89.001C37.52,88.581 36.677,88.371 35.519,88.371C34.608,88.371 33.729,88.467 32.881,88.658C32.033,88.848 31.164,89.158 30.274,89.586L29.406,88.234C30.192,87.821 31.148,87.493 32.276,87.248C33.403,87.004 34.484,86.881 35.519,86.881C37.463,86.881 38.906,87.233 39.848,87.936C40.789,88.638 41.259,89.731 41.259,91.213L41.259,98.225L38.901,98.225L38.901,96.3C38.508,96.957 37.903,97.477 37.086,97.859C36.269,98.24 35.312,98.431 34.215,98.431ZM34.619,97.034C35.86,97.034 36.874,96.717 37.66,96.083C38.446,95.448 38.839,94.643 38.839,93.665L38.839,92.977L37.877,92.977C36.201,92.977 34.883,93.035 33.921,93.149C32.959,93.264 32.286,93.462 31.904,93.745C31.521,94.028 31.329,94.413 31.329,94.902C31.329,95.529 31.624,96.04 32.214,96.438C32.803,96.835 33.605,97.034 34.619,97.034Z"/>
    </g>
    <g transform="matrix(0.738505,0,0,1,-5.92656,-1.84399)">
        <path d="M45.976,98.225L45.976,87.088L48.428,87.088L48.428,88.967C48.883,88.295 49.514,87.779 50.321,87.42C51.127,87.061 52.069,86.881 53.144,86.881C55.503,86.881 57.013,87.638 57.675,89.15C58.13,88.447 58.802,87.894 59.692,87.489C60.582,87.084 61.606,86.881 62.764,86.881C66.115,86.881 67.791,88.348 67.791,91.281L67.791,98.225L65.278,98.225L65.278,91.373C65.278,90.35 65.034,89.597 64.548,89.116C64.062,88.635 63.261,88.394 62.143,88.394C60.923,88.394 59.951,88.715 59.226,89.356C58.502,89.998 58.14,90.854 58.14,91.923L58.14,98.225L55.627,98.225L55.627,91.373C55.627,90.35 55.384,89.597 54.898,89.116C54.411,88.635 53.61,88.394 52.493,88.394C51.251,88.394 50.274,88.715 49.56,89.356C48.847,89.998 48.49,90.854 48.49,91.923L48.49,98.225L45.976,98.225Z"/>
    </g>
    <g transform="matrix(0.738505,0,0,1,-5.92656,-1.84399)">
        <path d="M72.477,102.35L72.477,87.088L74.928,87.088L74.928,89.081C75.383,88.394 76.061,87.855 76.961,87.466C77.861,87.076 78.911,86.881 80.11,86.881C81.455,86.881 82.629,87.114 83.633,87.58C84.636,88.046 85.412,88.711 85.96,89.574C86.508,90.437 86.782,91.465 86.782,92.656C86.782,93.833 86.508,94.853 85.96,95.716C85.412,96.579 84.636,97.247 83.633,97.721C82.629,98.195 81.455,98.431 80.11,98.431C78.952,98.431 77.918,98.24 77.007,97.859C76.097,97.477 75.425,96.95 74.99,96.277L74.99,102.35L72.477,102.35ZM79.583,96.942C80.99,96.942 82.117,96.571 82.965,95.83C83.814,95.089 84.238,94.031 84.238,92.656C84.238,91.266 83.814,90.204 82.965,89.471C82.117,88.738 80.99,88.371 79.583,88.371C78.176,88.371 77.049,88.738 76.201,89.471C75.352,90.204 74.928,91.266 74.928,92.656C74.928,94.031 75.352,95.089 76.201,95.83C77.049,96.571 78.176,96.942 79.583,96.942Z"/>
    </g>
    <g transform="matrix(0.738505,0,0,1,-5.92656,-1.84399)">
        <path d="M95.192,98.431C93.661,98.431 92.507,98.099 91.732,97.435C90.956,96.77 90.568,95.804 90.568,94.536L90.568,82.069L93.081,82.069L93.081,94.398C93.081,96.033 93.961,96.85 95.719,96.85C96.236,96.85 96.702,96.804 97.116,96.713L97.053,98.271C96.412,98.378 95.792,98.431 95.192,98.431Z"/>
    </g>
    <g transform="matrix(0.738505,0,0,1,-5.92656,-1.84399)">
        <path d="M106.394,98.431C104.015,98.431 102.132,97.916 100.746,96.885C99.36,95.853 98.667,94.452 98.667,92.679C98.667,91.534 98.977,90.521 99.598,89.643C100.219,88.764 101.072,88.085 102.158,87.603C103.244,87.122 104.501,86.881 105.928,86.881C107.976,86.881 109.58,87.367 110.738,88.337C111.897,89.307 112.476,90.64 112.476,92.336L112.476,93.046L101.119,93.046C101.201,94.314 101.698,95.28 102.608,95.945C103.518,96.61 104.78,96.942 106.394,96.942C107.304,96.942 108.173,96.839 109,96.633C109.828,96.426 110.614,96.086 111.359,95.613L112.228,96.919C111.545,97.393 110.676,97.763 109.621,98.03C108.566,98.298 107.49,98.431 106.394,98.431ZM105.99,88.256C104.563,88.256 103.436,88.585 102.608,89.242C101.781,89.899 101.294,90.762 101.15,91.831L110.304,91.831C110.242,90.701 109.843,89.822 109.109,89.196C108.375,88.57 107.335,88.256 105.99,88.256Z"/>
    </g>
    <g transform="matrix(0.738505,0,0,1,-5.92656,-1.84399)">
        <path d="M130.133,98.431C128.354,98.431 127.019,98.084 126.13,97.389C125.24,96.694 124.795,95.689 124.795,94.375L124.795,88.531L121.847,88.531L121.847,87.088L124.795,87.088L124.795,83.673L127.309,83.673L127.309,87.088L132.088,87.088L132.088,88.531L127.309,88.531L127.309,94.192C127.309,95.063 127.557,95.723 128.054,96.174C128.55,96.625 129.357,96.85 130.474,96.85C130.805,96.85 131.136,96.82 131.467,96.759C131.798,96.697 132.098,96.636 132.367,96.575L132.801,97.996C132.532,98.103 132.139,98.202 131.622,98.294C131.105,98.386 130.609,98.431 130.133,98.431Z"/>
    </g>
    <g transform="matrix(0.738505,0,0,1,-5.92656,-1.84399)">
        <path d="M141.583,98.431C139.204,98.431 137.322,97.916 135.936,96.885C134.549,95.853 133.856,94.452 133.856,92.679C133.856,91.534 134.167,90.521 134.787,89.643C135.408,88.764 136.261,88.085 137.347,87.603C138.434,87.122 139.69,86.881 141.118,86.881C143.166,86.881 144.769,87.367 145.928,88.337C147.086,89.307 147.665,90.64 147.665,92.336L147.665,93.046L136.308,93.046C136.391,94.314 136.887,95.28 137.797,95.945C138.708,96.61 139.97,96.942 141.583,96.942C142.493,96.942 143.362,96.839 144.19,96.633C145.017,96.426 145.803,96.086 146.548,95.613L147.417,96.919C146.734,97.393 145.866,97.763 144.81,98.03C143.755,98.298 142.68,98.431 141.583,98.431ZM141.18,88.256C139.752,88.256 138.625,88.585 137.797,89.242C136.97,89.899 136.484,90.762 136.339,91.831L145.493,91.831C145.431,90.701 145.033,89.822 144.298,89.196C143.564,88.57 142.524,88.256 141.18,88.256Z"/>
    </g>
    <g transform="matrix(0.738505,0,0,1,-5.92656,-1.84399)">
        <path d="M149.248,98.225L155.516,92.473L149.62,87.088L152.599,87.088L156.975,91.19L161.381,87.088L164.329,87.088L158.433,92.473L164.701,98.225L161.722,98.225L156.944,93.802L152.227,98.225L149.248,98.225Z"/>
    </g>
    <g transform="matrix(0.738505,0,0,1,-5.92656,-1.84399)">
        <path d="M173.514,98.431C171.735,98.431 170.401,98.084 169.511,97.389C168.622,96.694 168.177,95.689 168.177,94.375L168.177,88.531L165.229,88.531L165.229,87.088L168.177,87.088L168.177,83.673L170.69,83.673L170.69,87.088L175.469,87.088L175.469,88.531L170.69,88.531L170.69,94.192C170.69,95.063 170.939,95.723 171.435,96.174C171.932,96.625 172.738,96.85 173.856,96.85C174.187,96.85 174.518,96.82 174.849,96.759C175.18,96.697 175.48,96.636 175.749,96.575L176.183,97.996C175.914,98.103 175.521,98.202 175.004,98.294C174.487,98.386 173.99,98.431 173.514,98.431Z"/>
    </g>
    <g transform="matrix(0.738505,0,0,1,-5.92656,-1.84399)">
        <path d="M187.106,98.225L187.106,88.531L184.127,88.531L184.127,87.088L187.106,87.088L187.106,86.698C187.106,85.216 187.608,84.093 188.611,83.329C189.614,82.565 191.161,82.138 193.25,82.046L194.46,82L194.678,83.421L193.25,83.49C191.967,83.566 191.042,83.849 190.473,84.338C189.904,84.827 189.619,85.537 189.619,86.469L189.619,87.088L193.964,87.088L193.964,88.531L189.619,88.531L189.619,98.225L187.106,98.225Z"/>
    </g>
    <g transform="matrix(0.738505,0,0,1,-5.92656,-1.84399)">
        <path d="M202.466,98.431C200.998,98.431 199.725,98.195 198.65,97.721C197.574,97.247 196.741,96.579 196.152,95.716C195.562,94.853 195.267,93.833 195.267,92.656C195.267,91.48 195.562,90.46 196.152,89.597C196.741,88.734 197.574,88.065 198.65,87.592C199.725,87.118 200.998,86.881 202.466,86.881C203.914,86.881 205.182,87.118 206.268,87.592C207.354,88.065 208.192,88.734 208.781,89.597C209.371,90.46 209.666,91.48 209.666,92.656C209.666,93.833 209.371,94.853 208.781,95.716C208.192,96.579 207.354,97.247 206.268,97.721C205.182,98.195 203.914,98.431 202.466,98.431ZM202.466,96.942C203.873,96.942 205.001,96.571 205.849,95.83C206.697,95.089 207.121,94.031 207.121,92.656C207.121,91.266 206.697,90.204 205.849,89.471C205.001,88.738 203.873,88.371 202.466,88.371C201.039,88.371 199.906,88.738 199.068,89.471C198.231,90.204 197.812,91.266 197.812,92.656C197.812,94.031 198.231,95.089 199.068,95.83C199.906,96.571 201.039,96.942 202.466,96.942Z"/>
    </g>
    <g transform="matrix(0.738505,0,0,1,-5.92656,-1.84399)">
        <path d="M213.451,98.225L213.451,87.088L215.903,87.088L215.903,89.081C216.71,87.737 218.365,86.996 220.868,86.859L221.768,86.79L221.954,88.394L220.371,88.531C218.944,88.623 217.858,88.955 217.113,89.528C216.368,90.101 215.996,90.884 215.996,91.877L215.996,98.225L213.451,98.225Z"/>
    </g>
    <g transform="matrix(0.738505,0,0,1,-5.92656,-1.84399)">
        <path d="M238.587,98.431C236.808,98.431 235.473,98.084 234.584,97.389C233.694,96.694 233.249,95.689 233.249,94.375L233.249,88.531L230.301,88.531L230.301,87.088L233.249,87.088L233.249,83.673L235.763,83.673L235.763,87.088L240.542,87.088L240.542,88.531L235.763,88.531L235.763,94.192C235.763,95.063 236.011,95.723 236.508,96.174C237.004,96.625 237.811,96.85 238.928,96.85C239.259,96.85 239.59,96.82 239.921,96.759C240.252,96.697 240.552,96.636 240.821,96.575L241.255,97.996C240.986,98.103 240.593,98.202 240.076,98.294C239.559,98.386 239.062,98.431 238.587,98.431Z"/>
    </g>
    <g transform="matrix(0.738505,0,0,1,-5.92656,-1.84399)">
        <path d="M243.396,98.225L243.396,82.069L245.91,82.069L245.91,88.921C246.406,88.249 247.105,87.741 248.005,87.397C248.904,87.053 249.913,86.881 251.03,86.881C254.609,86.881 256.399,88.348 256.399,91.281L256.399,98.225L253.885,98.225L253.885,91.396C253.885,90.357 253.611,89.597 253.063,89.116C252.514,88.635 251.64,88.394 250.441,88.394C249.054,88.394 247.953,88.711 247.136,89.345C246.319,89.979 245.91,90.823 245.91,91.877L245.91,98.225L243.396,98.225Z"/>
    </g>
    <g transform="matrix(0.738505,0,0,1,-5.92656,-1.84399)">
        <path d="M267.818,98.431C265.439,98.431 263.556,97.916 262.17,96.885C260.784,95.853 260.091,94.452 260.091,92.679C260.091,91.534 260.402,90.521 261.022,89.643C261.643,88.764 262.496,88.085 263.582,87.603C264.668,87.122 265.925,86.881 267.353,86.881C269.401,86.881 271.004,87.367 272.162,88.337C273.321,89.307 273.9,90.64 273.9,92.336L273.9,93.046L262.543,93.046C262.625,94.314 263.122,95.28 264.032,95.945C264.942,96.61 266.204,96.942 267.818,96.942C268.728,96.942 269.597,96.839 270.425,96.633C271.252,96.426 272.038,96.086 272.783,95.613L273.652,96.919C272.969,97.393 272.1,97.763 271.045,98.03C269.99,98.298 268.914,98.431 267.818,98.431ZM267.415,88.256C265.987,88.256 264.86,88.585 264.032,89.242C263.205,89.899 262.719,90.762 262.574,91.831L271.728,91.831C271.666,90.701 271.268,89.822 270.533,89.196C269.799,88.57 268.759,88.256 267.415,88.256Z"/>
    </g>
    <g transform="matrix(0.738505,0,0,1,-5.92656,-1.84399)">
        <path d="M285.909,98.225L285.909,82.069L288.05,82.069L296.46,93.734L304.807,82.069L306.948,82.069L306.948,98.225L304.59,98.225L304.59,85.598L297.298,95.727L295.622,95.727L288.236,85.621L288.236,98.225L285.909,98.225Z"/>
    </g>
    <g transform="matrix(0.738505,0,0,1,-5.92656,-1.84399)">
        <path d="M318.306,98.431C316.837,98.431 315.565,98.195 314.489,97.721C313.413,97.247 312.58,96.579 311.991,95.716C311.401,94.853 311.106,93.833 311.106,92.656C311.106,91.48 311.401,90.46 311.991,89.597C312.58,88.734 313.413,88.065 314.489,87.592C315.565,87.118 316.837,86.881 318.306,86.881C319.754,86.881 321.021,87.118 322.107,87.592C323.193,88.065 324.031,88.734 324.621,89.597C325.21,90.46 325.505,91.48 325.505,92.656C325.505,93.833 325.21,94.853 324.621,95.716C324.031,96.579 323.193,97.247 322.107,97.721C321.021,98.195 319.754,98.431 318.306,98.431ZM318.306,96.942C319.712,96.942 320.84,96.571 321.688,95.83C322.536,95.089 322.96,94.031 322.96,92.656C322.96,91.266 322.536,90.204 321.688,89.471C320.84,88.738 319.712,88.371 318.306,88.371C316.878,88.371 315.746,88.738 314.908,89.471C314.07,90.204 313.651,91.266 313.651,92.656C313.651,94.031 314.07,95.089 314.908,95.83C315.746,96.571 316.878,96.942 318.306,96.942Z"/>
    </g>
    <g transform="matrix(0.738505,0,0,1,-5.92656,-1.84399)">
        <path d="M335.031,98.431C333.687,98.431 332.513,98.195 331.509,97.721C330.506,97.247 329.73,96.579 329.182,95.716C328.634,94.853 328.36,93.833 328.36,92.656C328.36,91.465 328.634,90.437 329.182,89.574C329.73,88.711 330.506,88.046 331.509,87.58C332.513,87.114 333.687,86.881 335.031,86.881C336.211,86.881 337.25,87.072 338.15,87.454C339.05,87.836 339.717,88.363 340.152,89.036L340.152,82.069L342.665,82.069L342.665,98.225L340.214,98.225L340.214,96.186C339.779,96.888 339.107,97.438 338.197,97.836C337.286,98.233 336.231,98.431 335.031,98.431ZM335.559,96.942C336.966,96.942 338.093,96.571 338.941,95.83C339.79,95.089 340.214,94.031 340.214,92.656C340.214,91.266 339.79,90.204 338.941,89.471C338.093,88.738 336.966,88.371 335.559,88.371C334.132,88.371 332.999,88.738 332.161,89.471C331.323,90.204 330.904,91.266 330.904,92.656C330.904,94.031 331.323,95.089 332.161,95.83C332.999,96.571 334.132,96.942 335.559,96.942Z"/>
    </g>
    <g transform="matrix(0.738505,0,0,1,-5.92656,-1.84399)">
        <path d="M354.178,98.431C351.799,98.431 349.916,97.916 348.53,96.885C347.144,95.853 346.451,94.452 346.451,92.679C346.451,91.534 346.761,90.521 347.382,89.643C348.003,88.764 348.856,88.085 349.942,87.603C351.028,87.122 352.285,86.881 353.712,86.881C355.76,86.881 357.364,87.367 358.522,88.337C359.681,89.307 360.26,90.64 360.26,92.336L360.26,93.046L348.902,93.046C348.985,94.314 349.482,95.28 350.392,95.945C351.302,96.61 352.564,96.942 354.178,96.942C355.088,96.942 355.957,96.839 356.784,96.633C357.612,96.426 358.398,96.086 359.143,95.613L360.012,96.919C359.329,97.393 358.46,97.763 357.405,98.03C356.35,98.298 355.274,98.431 354.178,98.431ZM353.774,88.256C352.347,88.256 351.219,88.585 350.392,89.242C349.564,89.899 349.078,90.762 348.933,91.831L358.088,91.831C358.026,90.701 357.627,89.822 356.893,89.196C356.159,88.57 355.119,88.256 353.774,88.256Z"/>
    </g>
    <g transform="matrix(0.738505,0,0,1,-5.92656,-1.84399)">
        <path d="M363.89,98.225L363.89,87.088L366.342,87.088L366.342,89.081C367.149,87.737 368.804,86.996 371.307,86.859L372.207,86.79L372.393,88.394L370.81,88.531C369.383,88.623 368.297,88.955 367.552,89.528C366.807,90.101 366.435,90.884 366.435,91.877L366.435,98.225L363.89,98.225Z"/>
    </g>
    <g transform="matrix(0.738505,0,0,1,-5.92656,-1.84399)">
        <path d="M375,98.225L375,87.088L377.451,87.088L377.451,88.99C377.948,88.287 378.651,87.76 379.561,87.409C380.471,87.057 381.495,86.881 382.633,86.881C386.212,86.881 388.002,88.348 388.002,91.281L388.002,98.225L385.488,98.225L385.488,91.396C385.488,90.357 385.214,89.597 384.666,89.116C384.118,88.635 383.244,88.394 382.044,88.394C380.658,88.394 379.556,88.711 378.739,89.345C377.922,89.979 377.513,90.823 377.513,91.877L377.513,98.225L375,98.225Z"/>
    </g>
    <g transform="matrix(0.738505,0,0,1,-5.92656,-1.84399)">
        <path d="M401.407,98.225L401.407,88.531L398.428,88.531L398.428,87.088L401.407,87.088L401.407,86.698C401.407,85.216 401.909,84.093 402.912,83.329C403.916,82.565 405.462,82.138 407.551,82.046L408.762,82L408.979,83.421L407.551,83.49C406.269,83.566 405.343,83.849 404.774,84.338C404.205,84.827 403.921,85.537 403.921,86.469L403.921,87.088L408.265,87.088L408.265,88.531L403.921,88.531L403.921,98.225L401.407,98.225Z"/>
    </g>
    <g transform="matrix(0.738505,0,0,1,-5.92656,-1.84399)">
        <path d="M416.768,98.431C415.299,98.431 414.026,98.195 412.951,97.721C411.875,97.247 411.042,96.579 410.453,95.716C409.863,94.853 409.568,93.833 409.568,92.656C409.568,91.48 409.863,90.46 410.453,89.597C411.042,88.734 411.875,88.065 412.951,87.592C414.026,87.118 415.299,86.881 416.768,86.881C418.216,86.881 419.483,87.118 420.569,87.592C421.655,88.065 422.493,88.734 423.082,89.597C423.672,90.46 423.967,91.48 423.967,92.656C423.967,93.833 423.672,94.853 423.082,95.716C422.493,96.579 421.655,97.247 420.569,97.721C419.483,98.195 418.216,98.431 416.768,98.431ZM416.768,96.942C418.174,96.942 419.302,96.571 420.15,95.83C420.998,95.089 421.422,94.031 421.422,92.656C421.422,91.266 420.998,90.204 420.15,89.471C419.302,88.738 418.174,88.371 416.768,88.371C415.34,88.371 414.208,88.738 413.37,89.471C412.532,90.204 412.113,91.266 412.113,92.656C412.113,94.031 412.532,95.089 413.37,95.83C414.208,96.571 415.34,96.942 416.768,96.942Z"/>
    </g>
    <g transform="matrix(0.738505,0,0,1,-5.92656,-1.84399)">
        <path d="M427.753,98.225L427.753,87.088L430.204,87.088L430.204,88.99C430.701,88.287 431.404,87.76 432.314,87.409C433.224,87.057 434.248,86.881 435.386,86.881C438.965,86.881 440.755,88.348 440.755,91.281L440.755,98.225L438.241,98.225L438.241,91.396C438.241,90.357 437.967,89.597 437.419,89.116C436.871,88.635 435.997,88.394 434.797,88.394C433.411,88.394 432.309,88.711 431.492,89.345C430.675,89.979 430.266,90.823 430.266,91.877L430.266,98.225L427.753,98.225Z"/>
    </g>
    <g transform="matrix(0.738505,0,0,1,-5.92656,-1.84399)">
        <path d="M451.429,98.431C449.65,98.431 448.316,98.084 447.426,97.389C446.537,96.694 446.092,95.689 446.092,94.375L446.092,88.531L443.144,88.531L443.144,87.088L446.092,87.088L446.092,83.673L448.606,83.673L448.606,87.088L453.384,87.088L453.384,88.531L448.606,88.531L448.606,94.192C448.606,95.063 448.854,95.723 449.35,96.174C449.847,96.625 450.654,96.85 451.771,96.85C452.102,96.85 452.433,96.82 452.764,96.759C453.095,96.697 453.395,96.636 453.664,96.575L454.098,97.996C453.829,98.103 453.436,98.202 452.919,98.294C452.402,98.386 451.905,98.431 451.429,98.431Z"/>
    </g>
    <g transform="matrix(0.738505,0,0,1,-5.92656,-1.84399)">
        <path d="M469.303,98.431C468.124,98.431 467.007,98.309 465.952,98.065C464.897,97.82 464.028,97.477 463.345,97.034L464.152,95.727C464.897,96.17 465.719,96.495 466.619,96.701C467.519,96.908 468.434,97.011 469.365,97.011C470.545,97.011 471.434,96.85 472.034,96.529C472.634,96.209 472.934,95.773 472.934,95.223C472.934,94.795 472.737,94.455 472.344,94.203C471.951,93.951 471.331,93.756 470.483,93.619L467.659,93.161C465.093,92.748 463.811,91.77 463.811,90.227C463.811,89.219 464.354,88.409 465.44,87.798C466.526,87.187 467.948,86.881 469.707,86.881C470.741,86.881 471.729,87 472.67,87.237C473.611,87.473 474.392,87.821 475.013,88.279L474.175,89.586C473.575,89.173 472.877,88.856 472.081,88.635C471.284,88.413 470.493,88.302 469.707,88.302C468.548,88.302 467.669,88.47 467.069,88.806C466.469,89.143 466.169,89.586 466.169,90.136C466.169,90.991 466.935,91.541 468.465,91.786L471.289,92.221C472.613,92.435 473.617,92.775 474.299,93.241C474.982,93.707 475.323,94.337 475.323,95.131C475.323,96.155 474.775,96.961 473.679,97.549C472.582,98.137 471.124,98.431 469.303,98.431Z"/>
    </g>
    <g transform="matrix(0.738505,0,0,1,-5.92656,-1.84399)">
        <path d="M485.533,98.431C484.022,98.431 482.719,98.191 481.623,97.71C480.526,97.228 479.683,96.548 479.094,95.67C478.504,94.792 478.209,93.764 478.209,92.588C478.209,90.815 478.861,89.421 480.164,88.405C481.468,87.389 483.257,86.881 485.533,86.881C486.464,86.881 487.384,87.004 488.294,87.248C489.205,87.493 489.96,87.836 490.56,88.279L489.691,89.631C489.091,89.204 488.434,88.89 487.72,88.692C487.007,88.493 486.329,88.394 485.688,88.394C484.116,88.394 482.905,88.757 482.057,89.483C481.209,90.208 480.785,91.251 480.785,92.611C480.785,93.94 481.209,94.99 482.057,95.762C482.905,96.533 484.116,96.919 485.688,96.919C486.329,96.919 487.007,96.82 487.72,96.621C488.434,96.422 489.091,96.102 489.691,95.659L490.56,97.011C489.96,97.454 489.199,97.801 488.279,98.053C487.358,98.305 486.443,98.431 485.533,98.431Z"/>
    </g>
    <g transform="matrix(0.738505,0,0,1,-5.92656,-1.84399)">
        <path d="M493.508,98.225L493.508,82.069L496.021,82.069L496.021,88.921C496.518,88.249 497.216,87.741 498.116,87.397C499.016,87.053 500.024,86.881 501.141,86.881C504.72,86.881 506.51,88.348 506.51,91.281L506.51,98.225L503.996,98.225L503.996,91.396C503.996,90.357 503.722,89.597 503.174,89.116C502.626,88.635 501.752,88.394 500.552,88.394C499.166,88.394 498.064,88.711 497.247,89.345C496.43,89.979 496.021,90.823 496.021,91.877L496.021,98.225L493.508,98.225Z"/>
    </g>
    <g transform="matrix(0.738505,0,0,1,-5.92656,-1.84399)">
        <path d="M517.929,98.431C515.55,98.431 513.668,97.916 512.282,96.885C510.895,95.853 510.202,94.452 510.202,92.679C510.202,91.534 510.513,90.521 511.133,89.643C511.754,88.764 512.607,88.085 513.693,87.603C514.78,87.122 516.036,86.881 517.464,86.881C519.512,86.881 521.115,87.367 522.274,88.337C523.432,89.307 524.011,90.64 524.011,92.336L524.011,93.046L512.654,93.046C512.737,94.314 513.233,95.28 514.143,95.945C515.054,96.61 516.316,96.942 517.929,96.942C518.839,96.942 519.708,96.839 520.536,96.633C521.363,96.426 522.149,96.086 522.894,95.613L523.763,96.919C523.08,97.393 522.211,97.763 521.156,98.03C520.101,98.298 519.026,98.431 517.929,98.431ZM517.526,88.256C516.098,88.256 514.971,88.585 514.143,89.242C513.316,89.899 512.83,90.762 512.685,91.831L521.839,91.831C521.777,90.701 521.379,89.822 520.644,89.196C519.91,88.57 518.87,88.256 517.526,88.256Z"/>
    </g>
    <g transform="matrix(0.738505,0,0,1,-5.92656,-1.84399)">
        <path d="M527.704,98.225L527.704,87.088L530.155,87.088L530.155,88.967C530.611,88.295 531.242,87.779 532.048,87.42C532.855,87.061 533.796,86.881 534.872,86.881C537.231,86.881 538.741,87.638 539.403,89.15C539.858,88.447 540.53,87.894 541.42,87.489C542.309,87.084 543.333,86.881 544.492,86.881C547.843,86.881 549.519,88.348 549.519,91.281L549.519,98.225L547.005,98.225L547.005,91.373C547.005,90.35 546.762,89.597 546.276,89.116C545.79,88.635 544.988,88.394 543.871,88.394C542.651,88.394 541.678,88.715 540.954,89.356C540.23,89.998 539.868,90.854 539.868,91.923L539.868,98.225L537.355,98.225L537.355,91.373C537.355,90.35 537.112,89.597 536.625,89.116C536.139,88.635 535.338,88.394 534.221,88.394C532.979,88.394 532.002,88.715 531.288,89.356C530.574,89.998 530.218,90.854 530.218,91.923L530.218,98.225L527.704,98.225Z"/>
    </g>
    <g transform="matrix(0.738505,0,0,1,-5.92656,-1.84399)">
        <path d="M561,98.431C558.621,98.431 556.739,97.916 555.353,96.885C553.967,95.853 553.274,94.452 553.274,92.679C553.274,91.534 553.584,90.521 554.205,89.643C554.825,88.764 555.679,88.085 556.765,87.603C557.851,87.122 559.108,86.881 560.535,86.881C562.583,86.881 564.186,87.367 565.345,88.337C566.503,89.307 567.083,90.64 567.083,92.336L567.083,93.046L555.725,93.046C555.808,94.314 556.304,95.28 557.215,95.945C558.125,96.61 559.387,96.942 561,96.942C561.911,96.942 562.78,96.839 563.607,96.633C564.435,96.426 565.221,96.086 565.965,95.613L566.834,96.919C566.152,97.393 565.283,97.763 564.228,98.03C563.173,98.298 562.097,98.431 561,98.431ZM560.597,88.256C559.17,88.256 558.042,88.585 557.215,89.242C556.387,89.899 555.901,90.762 555.756,91.831L564.91,91.831C564.848,90.701 564.45,89.822 563.716,89.196C562.981,88.57 561.942,88.256 560.597,88.256Z"/>
    </g>
    <g transform="matrix(0.738505,0,0,1,-5.92656,-1.84399)">
        <rect x="570.31" y="95.888" width="3.165" height="2.338"/>
    </g>
</svg>
