<svg id="font-preview-code" width="100%" height="100%" viewBox="0 0 640 120" xmlns="http://www.w3.org/2000/svg"><g transform="matrix(1,0,0,0.566434,-6.68756,16.5647)"><path d="M23.45,77.874C20.975,77.874 18.528,77.079 16.109,75.49C13.691,73.902 11.488,71.584 9.5,68.539L14.281,58.509C15.669,60.495 17.197,62.117 18.866,63.375C20.534,64.633 22.25,65.262 24.013,65.262C25.775,65.262 27.078,64.732 27.922,63.673C28.766,62.614 29.188,61.257 29.188,59.602C29.188,58.079 28.963,56.871 28.513,55.977C28.063,55.083 27.406,54.289 26.544,53.594C25.681,52.898 24.669,52.121 23.506,51.26L18.781,47.685C17.431,46.758 16.156,45.517 14.956,43.961C13.756,42.405 12.791,40.485 12.059,38.201C11.328,35.917 10.963,33.186 10.963,30.009C10.963,26.434 11.534,23.206 12.678,20.326C13.822,17.446 15.397,15.129 17.403,13.375C19.409,11.62 21.744,10.743 24.406,10.743C26.619,10.743 28.794,11.471 30.931,12.928C33.069,14.384 34.963,16.503 36.613,19.284L32.394,28.519C31.119,26.864 29.844,25.589 28.569,24.696C27.294,23.802 25.756,23.355 23.956,23.355C22.606,23.355 21.5,23.852 20.638,24.845C19.775,25.838 19.344,27.294 19.344,29.214C19.344,30.472 19.606,31.531 20.131,32.392C20.656,33.252 21.369,34.014 22.269,34.676C23.169,35.338 24.2,36.066 25.363,36.861L29.806,40.237C31.456,41.296 32.863,42.604 34.025,44.16C35.188,45.715 36.088,47.619 36.725,49.87C37.363,52.121 37.681,54.769 37.681,57.814C37.681,61.389 37.128,64.699 36.022,67.745C34.916,70.79 33.303,73.24 31.184,75.093C29.066,76.947 26.488,77.874 23.45,77.874Z"/></g><g transform="matrix(1,0,0,0.566434,-8.02507,16.5647)"><path d="M51.913,77.874C50.038,77.874 48.416,77.212 47.047,75.888C45.678,74.564 44.619,72.776 43.869,70.525C43.119,68.274 42.744,65.759 42.744,62.978C42.744,57.483 44.159,53.279 46.991,50.366C49.822,47.453 54.538,45.666 61.138,45.004C61.025,43.481 60.744,42.19 60.294,41.131C59.844,40.071 59.197,39.26 58.353,38.698C57.509,38.135 56.45,37.854 55.175,37.854C54.275,37.854 53.375,38.036 52.475,38.4C51.575,38.764 50.647,39.294 49.691,39.989C48.734,40.684 47.731,41.495 46.681,42.422L43.756,32.888C45.031,31.564 46.372,30.406 47.778,29.413C49.184,28.42 50.647,27.642 52.166,27.079C53.684,26.516 55.231,26.235 56.806,26.235C59.431,26.235 61.681,27.046 63.556,28.668C65.431,30.29 66.875,32.739 67.888,36.016C68.9,39.294 69.406,43.448 69.406,48.479L69.406,76.682L62.656,76.682L62.038,71.121L61.813,71.121C60.425,72.975 58.888,74.564 57.2,75.888C55.513,77.212 53.75,77.874 51.913,77.874ZM54.556,66.553C55.794,66.553 56.956,66.106 58.044,65.212C59.131,64.319 60.163,63.21 61.138,61.886L61.138,53.743C58.4,54.007 56.272,54.504 54.753,55.232C53.234,55.96 52.175,56.887 51.575,58.013C50.975,59.138 50.675,60.429 50.675,61.886C50.675,62.879 50.834,63.739 51.153,64.468C51.472,65.196 51.922,65.725 52.503,66.056C53.084,66.387 53.769,66.553 54.556,66.553Z"/></g><g transform="matrix(1,0,0,0.566434,-6.68756,16.5647)"><path d="M73.906,76.682L73.906,27.427L80.15,27.427L80.713,33.484L80.938,33.484C81.463,31.498 82.194,29.793 83.131,28.37C84.069,26.947 85.344,26.235 86.956,26.235C88.156,26.235 89.188,26.913 90.05,28.271C90.913,29.628 91.494,31.631 91.794,34.279C92.319,32.028 93.078,30.124 94.072,28.569C95.066,27.013 96.369,26.235 97.981,26.235C99.969,26.235 101.506,27.658 102.594,30.505C103.681,33.352 104.225,37.225 104.225,42.124L104.225,76.682L96.35,76.682L96.35,43.117C96.35,40.138 95.844,38.648 94.831,38.648C94.306,38.648 93.847,39.029 93.453,39.79C93.059,40.551 92.675,41.76 92.3,43.415L92.3,76.682L85.831,76.682L85.831,43.117C85.831,41.594 85.7,40.469 85.438,39.74C85.175,39.012 84.781,38.648 84.256,38.648C83.731,38.648 83.281,39.029 82.906,39.79C82.531,40.551 82.156,41.76 81.781,43.415L81.781,76.682L73.906,76.682Z"/></g><g transform="matrix(1,0,0,0.566434,-6.68756,16.5647)"><path d="M108.613,94.954L108.613,27.427L115.363,27.427L115.981,32.392L116.15,32.392C117.313,30.604 118.616,29.131 120.059,27.973C121.503,26.814 122.975,26.235 124.475,26.235C126.8,26.235 128.797,27.261 130.466,29.313C132.134,31.366 133.419,34.279 134.319,38.052C135.219,41.826 135.669,46.228 135.669,51.26C135.669,56.887 135.097,61.687 133.953,65.659C132.809,69.631 131.319,72.66 129.481,74.746C127.644,76.831 125.675,77.874 123.575,77.874C122.338,77.874 121.128,77.41 119.947,76.484C118.766,75.557 117.688,74.233 116.713,72.511L116.488,72.511L116.881,80.555L116.881,94.954L108.613,94.954ZM121.663,65.957C122.713,65.957 123.65,65.461 124.475,64.468C125.3,63.474 125.956,61.902 126.444,59.751C126.931,57.599 127.175,54.835 127.175,51.459C127.175,48.479 126.988,46.013 126.613,44.06C126.238,42.107 125.684,40.634 124.953,39.641C124.222,38.648 123.256,38.152 122.056,38.152C121.156,38.152 120.284,38.499 119.441,39.194C118.597,39.889 117.744,41.065 116.881,42.72L116.881,62.68C117.669,63.806 118.484,64.633 119.328,65.163C120.172,65.692 120.95,65.957 121.663,65.957Z"/></g><g transform="matrix(1,0,0,0.566434,-12.7064,16.5647)"><path d="M159.406,77.874C155.919,77.874 153.275,76.02 151.475,72.313C149.675,68.605 148.775,63.64 148.775,57.417L148.775,18.588L140.056,18.588L140.056,7.168L157.044,7.168L157.044,58.013C157.044,61.058 157.513,63.16 158.45,64.319C159.388,65.477 160.419,66.056 161.544,66.056C162.219,66.056 162.903,65.924 163.597,65.659C164.291,65.394 165.069,64.997 165.931,64.468L167.731,75.193C166.306,75.987 165.003,76.632 163.822,77.129C162.641,77.626 161.169,77.874 159.406,77.874Z"/></g><g transform="matrix(1,0,0,0.566434,-16.7189,16.5647)"><path d="M188.375,77.874C185.488,77.874 182.872,76.864 180.528,74.845C178.184,72.826 176.328,69.88 174.959,66.007C173.591,62.134 172.906,57.483 172.906,52.054C172.906,46.692 173.6,42.074 174.988,38.201C176.375,34.328 178.175,31.366 180.388,29.313C182.6,27.261 184.944,26.235 187.419,26.235C190.306,26.235 192.725,27.278 194.675,29.363C196.625,31.448 198.097,34.262 199.091,37.804C200.084,41.346 200.581,45.368 200.581,49.87C200.581,51.194 200.534,52.468 200.441,53.693C200.347,54.918 200.263,55.828 200.188,56.424L179.038,56.424L179.038,46.593L194.619,46.593L193.325,49.373C193.325,45.401 192.847,42.405 191.891,40.386C190.934,38.367 189.538,37.357 187.7,37.357C186.35,37.357 185.169,37.887 184.156,38.946C183.144,40.005 182.356,41.627 181.794,43.812C181.231,45.997 180.95,48.744 180.95,52.054C180.95,55.431 181.288,58.195 181.963,60.346C182.638,62.498 183.613,64.103 184.888,65.163C186.163,66.222 187.7,66.752 189.5,66.752C190.775,66.752 191.984,66.454 193.128,65.858C194.272,65.262 195.463,64.401 196.7,63.276L199.456,72.114C197.844,73.902 196.063,75.308 194.113,76.335C192.163,77.361 190.25,77.874 188.375,77.874Z"/></g><g transform="matrix(1,0,0,0.566434,-18.7252,16.5647)"><path d="M238.663,76.682L238.663,11.935L246.931,11.935L246.931,36.96L256.944,36.96L256.944,11.935L265.213,11.935L265.213,76.682L256.944,76.682L256.944,49.671L246.931,49.671L246.931,76.682L238.663,76.682Z"/></g><g transform="matrix(1,0,0,0.566434,-18.7252,16.5647)"><path d="M286.25,77.874C283.363,77.874 280.747,76.864 278.403,74.845C276.059,72.826 274.203,69.88 272.834,66.007C271.466,62.134 270.781,57.483 270.781,52.054C270.781,46.692 271.475,42.074 272.863,38.201C274.25,34.328 276.05,31.366 278.263,29.313C280.475,27.261 282.819,26.235 285.294,26.235C288.181,26.235 290.6,27.278 292.55,29.363C294.5,31.448 295.972,34.262 296.966,37.804C297.959,41.346 298.456,45.368 298.456,49.87C298.456,51.194 298.409,52.468 298.316,53.693C298.222,54.918 298.138,55.828 298.063,56.424L276.913,56.424L276.913,46.593L292.494,46.593L291.2,49.373C291.2,45.401 290.722,42.405 289.766,40.386C288.809,38.367 287.413,37.357 285.575,37.357C284.225,37.357 283.044,37.887 282.031,38.946C281.019,40.005 280.231,41.627 279.669,43.812C279.106,45.997 278.825,48.744 278.825,52.054C278.825,55.431 279.163,58.195 279.838,60.346C280.513,62.498 281.488,64.103 282.763,65.163C284.038,66.222 285.575,66.752 287.375,66.752C288.65,66.752 289.859,66.454 291.003,65.858C292.147,65.262 293.338,64.401 294.575,63.276L297.331,72.114C295.719,73.902 293.938,75.308 291.988,76.335C290.038,77.361 288.125,77.874 286.25,77.874Z"/></g><g transform="matrix(1,0,0,0.566434,-18.7252,16.5647)"><path d="M312.913,77.874C311.038,77.874 309.416,77.212 308.047,75.888C306.678,74.564 305.619,72.776 304.869,70.525C304.119,68.274 303.744,65.759 303.744,62.978C303.744,57.483 305.159,53.279 307.991,50.366C310.822,47.453 315.538,45.666 322.138,45.004C322.025,43.481 321.744,42.19 321.294,41.131C320.844,40.071 320.197,39.26 319.353,38.698C318.509,38.135 317.45,37.854 316.175,37.854C315.275,37.854 314.375,38.036 313.475,38.4C312.575,38.764 311.647,39.294 310.691,39.989C309.734,40.684 308.731,41.495 307.681,42.422L304.756,32.888C306.031,31.564 307.372,30.406 308.778,29.413C310.184,28.42 311.647,27.642 313.166,27.079C314.684,26.516 316.231,26.235 317.806,26.235C320.431,26.235 322.681,27.046 324.556,28.668C326.431,30.29 327.875,32.739 328.888,36.016C329.9,39.294 330.406,43.448 330.406,48.479L330.406,76.682L323.656,76.682L323.038,71.121L322.813,71.121C321.425,72.975 319.888,74.564 318.2,75.888C316.513,77.212 314.75,77.874 312.913,77.874ZM315.556,66.553C316.794,66.553 317.956,66.106 319.044,65.212C320.131,64.319 321.163,63.21 322.138,61.886L322.138,53.743C319.4,54.007 317.272,54.504 315.753,55.232C314.234,55.96 313.175,56.887 312.575,58.013C311.975,59.138 311.675,60.429 311.675,61.886C311.675,62.879 311.834,63.739 312.153,64.468C312.472,65.196 312.922,65.725 313.503,66.056C314.084,66.387 314.769,66.553 315.556,66.553Z"/></g><g transform="matrix(1,0,0,0.566434,-18.7252,16.5647)"><path d="M347.338,77.874C343.813,77.874 340.972,75.573 338.816,70.972C336.659,66.371 335.581,60.065 335.581,52.054C335.581,46.692 336.153,42.091 337.297,38.251C338.441,34.411 339.931,31.448 341.769,29.363C343.606,27.278 345.519,26.235 347.506,26.235C349.044,26.235 350.375,26.698 351.5,27.625C352.625,28.552 353.638,29.843 354.538,31.498L354.763,31.498L354.369,23.852L354.369,7.069L362.638,7.069L362.638,76.682L355.888,76.682L355.269,71.618L355.1,71.618C354.088,73.405 352.897,74.895 351.528,76.086C350.159,77.278 348.763,77.874 347.338,77.874ZM349.475,65.957C350.413,65.957 351.284,65.61 352.091,64.914C352.897,64.219 353.656,63.044 354.369,61.389L354.369,41.429C353.619,40.237 352.859,39.393 352.091,38.896C351.322,38.4 350.525,38.152 349.7,38.152C348.688,38.152 347.75,38.648 346.888,39.641C346.025,40.634 345.341,42.14 344.834,44.16C344.328,46.179 344.075,48.744 344.075,51.856C344.075,56.689 344.544,60.247 345.481,62.531C346.419,64.815 347.75,65.957 349.475,65.957Z"/></g><g transform="matrix(1,0,0,0.566434,-18.7252,16.5647)"><path d="M381.2,76.682L381.2,38.847L369.95,38.847L369.95,27.427L389.469,27.427L389.469,76.682L381.2,76.682ZM384.969,19.681C383.394,19.681 382.081,18.87 381.031,17.248C379.981,15.626 379.456,13.491 379.456,10.843C379.456,8.128 379.981,5.927 381.031,4.239C382.081,2.551 383.394,1.706 384.969,1.706C386.581,1.706 387.903,2.551 388.934,4.239C389.966,5.927 390.481,8.128 390.481,10.843C390.481,13.491 389.966,15.626 388.934,17.248C387.903,18.87 386.581,19.681 384.969,19.681Z"/></g><g transform="matrix(1,0,0,0.566434,-18.7252,16.5647)"><path d="M402.238,76.682L402.238,27.427L408.988,27.427L409.606,33.981L409.831,33.981C411.031,31.862 412.409,30.042 413.966,28.519C415.522,26.996 417.35,26.235 419.45,26.235C422.6,26.235 424.906,28.022 426.369,31.597C427.831,35.172 428.563,40.071 428.563,46.295L428.563,76.682L420.294,76.682L420.294,48.181C420.294,44.871 419.984,42.455 419.366,40.932C418.747,39.409 417.688,38.648 416.188,38.648C415.063,38.648 414.078,39.095 413.234,39.989C412.391,40.882 411.481,42.157 410.506,43.812L410.506,76.682L402.238,76.682Z"/></g><g transform="matrix(1,0,0,0.566434,-18.7252,16.5647)"><path d="M446.394,97.636C443.956,97.636 441.791,97.189 439.897,96.295C438.003,95.401 436.503,94.027 435.397,92.174C434.291,90.32 433.738,87.937 433.738,85.024C433.738,83.038 434.103,81.217 434.834,79.562C435.566,77.907 436.644,76.45 438.069,75.193L438.069,74.795C437.281,73.868 436.616,72.743 436.072,71.419C435.528,70.095 435.256,68.407 435.256,66.354C435.256,64.699 435.566,63.044 436.184,61.389C436.803,59.734 437.6,58.311 438.575,57.119L438.575,56.722C437.563,55.53 436.7,53.842 435.988,51.657C435.275,49.472 434.919,46.957 434.919,44.11C434.919,40.138 435.472,36.827 436.578,34.179C437.684,31.531 439.147,29.545 440.966,28.221C442.784,26.897 444.744,26.235 446.844,26.235C448.569,26.235 450.106,26.632 451.456,27.427L462.763,27.427L462.763,38.152L457.138,38.152C457.475,38.88 457.766,39.823 458.009,40.982C458.253,42.14 458.375,43.349 458.375,44.606C458.375,48.38 457.859,51.475 456.828,53.891C455.797,56.308 454.419,58.112 452.694,59.304C450.969,60.495 449.019,61.091 446.844,61.091C446.319,61.091 445.719,61.008 445.044,60.843C444.369,60.677 443.694,60.429 443.019,60.098C442.569,60.628 442.25,61.157 442.063,61.687C441.875,62.217 441.781,62.912 441.781,63.772C441.781,65.03 442.166,65.957 442.934,66.553C443.703,67.149 444.894,67.447 446.506,67.447L451.681,67.447C455.356,67.447 458.159,68.407 460.091,70.327C462.022,72.246 462.988,75.424 462.988,79.86C462.988,83.302 462.313,86.364 460.963,89.046C459.613,91.727 457.691,93.829 455.197,95.352C452.703,96.874 449.769,97.636 446.394,97.636ZM446.844,52.253C447.631,52.253 448.344,51.955 448.981,51.359C449.619,50.763 450.125,49.853 450.5,48.628C450.875,47.404 451.063,45.897 451.063,44.11C451.063,42.389 450.875,40.932 450.5,39.74C450.125,38.549 449.619,37.638 448.981,37.01C448.344,36.381 447.631,36.066 446.844,36.066C446.094,36.066 445.4,36.381 444.763,37.01C444.125,37.638 443.619,38.549 443.244,39.74C442.869,40.932 442.681,42.389 442.681,44.11C442.681,45.897 442.869,47.404 443.244,48.628C443.619,49.853 444.125,50.763 444.763,51.359C445.4,51.955 446.094,52.253 446.844,52.253ZM447.575,88.4C449.075,88.4 450.388,88.135 451.513,87.606C452.638,87.076 453.519,86.364 454.156,85.471C454.794,84.577 455.113,83.567 455.113,82.442C455.113,80.787 454.7,79.744 453.875,79.314C453.05,78.883 451.831,78.668 450.219,78.668L446.731,78.668C445.719,78.668 444.884,78.602 444.228,78.47C443.572,78.337 442.981,78.172 442.456,77.973C441.744,78.768 441.238,79.545 440.938,80.307C440.638,81.068 440.488,81.912 440.488,82.839C440.488,84.627 441.125,86 442.4,86.96C443.675,87.92 445.4,88.4 447.575,88.4Z"/></g><g transform="matrix(1,0,0,0.694779,-9.36259,28.624)"><path d="M16.352,100.133C15.252,100.133 14.24,99.842 13.316,99.259C12.391,98.676 11.586,97.901 10.898,96.934L12.044,95.021C12.609,95.834 13.27,96.488 14.026,96.983C14.782,97.478 15.588,97.725 16.444,97.725C17.483,97.725 18.289,97.406 18.862,96.769C19.434,96.131 19.721,95.306 19.721,94.295C19.721,93.525 19.603,92.91 19.366,92.448C19.129,91.986 18.808,91.601 18.403,91.293C17.998,90.986 17.536,90.678 17.017,90.37L14.863,89.017C14.358,88.71 13.858,88.325 13.362,87.863C12.865,87.401 12.449,86.813 12.113,86.098C11.776,85.384 11.608,84.499 11.608,83.443C11.608,82.344 11.818,81.36 12.239,80.491C12.659,79.622 13.243,78.941 13.992,78.446C14.74,77.951 15.588,77.704 16.536,77.704C17.483,77.704 18.354,77.951 19.148,78.446C19.942,78.941 20.615,79.584 21.165,80.376L20.156,82.157C19.667,81.519 19.125,81.019 18.529,80.656C17.933,80.293 17.246,80.112 16.467,80.112C15.596,80.112 14.893,80.392 14.358,80.953C13.824,81.514 13.556,82.289 13.556,83.278C13.556,83.96 13.69,84.521 13.957,84.96C14.225,85.4 14.565,85.763 14.977,86.049C15.39,86.335 15.81,86.61 16.238,86.874L18.346,88.193C18.972,88.545 19.538,88.968 20.042,89.463C20.546,89.958 20.943,90.568 21.233,91.293C21.524,92.019 21.669,92.91 21.669,93.965C21.669,95.109 21.455,96.148 21.027,97.082C20.599,98.017 19.988,98.759 19.194,99.309C18.399,99.858 17.452,100.133 16.352,100.133Z"/></g><g transform="matrix(1,0,0,0.694779,-9.36259,28.624)"><path d="M28.75,100.133C28.063,100.133 27.429,99.952 26.848,99.589C26.267,99.226 25.809,98.704 25.473,98.022C25.137,97.34 24.969,96.527 24.969,95.581C24.969,93.778 25.595,92.409 26.848,91.475C28.101,90.54 30.163,89.908 33.036,89.578C33.02,88.853 32.917,88.182 32.726,87.566C32.535,86.95 32.226,86.461 31.798,86.098C31.37,85.736 30.797,85.554 30.079,85.554C29.606,85.554 29.136,85.648 28.67,85.835C28.204,86.021 27.761,86.263 27.341,86.56C26.921,86.857 26.535,87.159 26.183,87.467L25.45,85.62C25.817,85.268 26.264,84.911 26.791,84.548C27.318,84.185 27.887,83.888 28.498,83.658C29.109,83.427 29.743,83.311 30.4,83.311C31.424,83.311 32.268,83.586 32.932,84.136C33.597,84.686 34.093,85.45 34.422,86.428C34.75,87.407 34.915,88.567 34.915,89.908L34.915,99.737L33.379,99.737L33.219,97.56L33.15,97.56C32.539,98.264 31.851,98.869 31.088,99.374C30.324,99.88 29.545,100.133 28.75,100.133ZM29.254,97.956C29.896,97.956 30.53,97.747 31.156,97.329C31.783,96.912 32.409,96.329 33.036,95.581L33.036,91.359C31.447,91.557 30.198,91.832 29.289,92.184C28.38,92.536 27.738,92.981 27.364,93.52C26.989,94.059 26.802,94.68 26.802,95.383C26.802,95.977 26.917,96.466 27.146,96.851C27.375,97.236 27.677,97.516 28.051,97.692C28.425,97.868 28.826,97.956 29.254,97.956Z"/></g><g transform="matrix(1,0,0,0.694779,-9.36259,28.624)"><path d="M38.192,99.737L38.192,83.707L39.704,83.707L39.865,85.818L39.911,85.818C40.201,85.07 40.537,84.466 40.919,84.004C41.301,83.542 41.813,83.311 42.454,83.311C43.004,83.311 43.455,83.542 43.806,84.004C44.158,84.466 44.41,85.158 44.563,86.082C44.883,85.224 45.239,84.548 45.628,84.053C46.018,83.559 46.533,83.311 47.175,83.311C47.954,83.311 48.562,83.735 48.997,84.581C49.432,85.428 49.65,86.654 49.65,88.259L49.65,99.737L47.771,99.737L47.771,88.457C47.771,86.588 47.374,85.653 46.579,85.653C46.197,85.653 45.88,85.856 45.628,86.263C45.376,86.67 45.097,87.291 44.792,88.127L44.792,99.737L43.05,99.737L43.05,88.457C43.05,87.533 42.962,86.835 42.787,86.362C42.611,85.889 42.317,85.653 41.904,85.653C41.522,85.653 41.19,85.856 40.907,86.263C40.625,86.67 40.346,87.291 40.071,88.127L40.071,99.737L38.192,99.737Z"/></g><g transform="matrix(1,0,0,0.694779,-9.36259,28.624)"><path d="M52.744,106.499L52.744,83.707L54.302,83.707L54.463,85.752L54.531,85.752C55.051,85.048 55.65,84.466 56.33,84.004C57.01,83.542 57.694,83.311 58.381,83.311C59.39,83.311 60.234,83.647 60.914,84.317C61.593,84.988 62.109,85.933 62.461,87.154C62.812,88.374 62.988,89.82 62.988,91.491C62.988,93.294 62.751,94.845 62.277,96.142C61.804,97.439 61.185,98.429 60.421,99.111C59.657,99.792 58.824,100.133 57.923,100.133C57.419,100.133 56.865,99.952 56.262,99.589C55.658,99.226 55.104,98.715 54.6,98.055L54.531,98.055L54.623,101.09L54.623,106.499L52.744,106.499ZM57.602,97.857C58.259,97.857 58.847,97.604 59.367,97.099C59.886,96.593 60.295,95.862 60.593,94.905C60.891,93.949 61.04,92.811 61.04,91.491C61.04,90.326 60.933,89.298 60.719,88.407C60.505,87.517 60.169,86.824 59.711,86.329C59.252,85.835 58.649,85.587 57.9,85.587C57.396,85.587 56.865,85.78 56.307,86.164C55.75,86.549 55.188,87.159 54.623,87.995L54.623,95.977C55.158,96.659 55.696,97.143 56.239,97.428C56.781,97.714 57.236,97.857 57.602,97.857Z"/></g><g transform="matrix(1,0,0,0.694779,-9.36259,28.624)"><path d="M73.667,100.133C72.49,100.133 71.589,99.644 70.963,98.665C70.336,97.687 70.023,96.252 70.023,94.361L70.023,78.463L66.219,78.463L66.219,76.253L71.902,76.253L71.902,94.559C71.902,95.724 72.101,96.571 72.498,97.099C72.895,97.626 73.422,97.89 74.079,97.89C74.4,97.89 74.729,97.83 75.065,97.709C75.401,97.588 75.775,97.395 76.188,97.132L76.669,99.177C76.165,99.44 75.691,99.666 75.248,99.853C74.805,100.04 74.278,100.133 73.667,100.133Z"/></g><g transform="matrix(1,0,0,0.694779,-9.36259,28.624)"><path d="M85.675,100.133C84.56,100.133 83.548,99.803 82.639,99.144C81.73,98.484 81.008,97.522 80.473,96.257C79.938,94.993 79.671,93.47 79.671,91.689C79.671,89.952 79.938,88.457 80.473,87.203C81.008,85.95 81.707,84.988 82.57,84.317C83.433,83.647 84.361,83.311 85.354,83.311C86.424,83.311 87.337,83.625 88.093,84.251C88.849,84.878 89.43,85.752 89.834,86.874C90.239,87.995 90.442,89.314 90.442,90.832C90.442,91.139 90.434,91.436 90.419,91.722C90.404,92.008 90.381,92.261 90.35,92.481L80.931,92.481L80.931,90.37L89.227,90.37L88.746,91.128C88.746,89.237 88.444,87.819 87.841,86.874C87.237,85.928 86.424,85.455 85.4,85.455C84.713,85.455 84.075,85.697 83.487,86.181C82.898,86.665 82.429,87.368 82.077,88.292C81.726,89.215 81.55,90.348 81.55,91.689C81.55,93.075 81.741,94.229 82.123,95.153C82.505,96.076 83.024,96.774 83.681,97.247C84.338,97.72 85.079,97.956 85.904,97.956C86.576,97.956 87.184,97.819 87.726,97.544C88.268,97.269 88.792,96.901 89.296,96.439L89.983,98.22C89.433,98.748 88.803,99.199 88.093,99.572C87.382,99.946 86.576,100.133 85.675,100.133Z"/></g><g transform="matrix(1,0,0,0.694779,-9.36259,28.624)"><path d="M114.642,100.133C113.557,100.133 112.701,99.853 112.075,99.292C111.449,98.731 111.002,97.956 110.734,96.967C110.467,95.977 110.333,94.823 110.333,93.503L110.333,85.917L107.194,85.917L107.194,83.872L110.402,83.707L110.654,78.562L112.213,78.562L112.213,83.707L117.69,83.707L117.69,85.917L112.213,85.917L112.213,93.536C112.213,94.482 112.297,95.284 112.465,95.944C112.633,96.604 112.923,97.099 113.336,97.428C113.748,97.758 114.313,97.923 115.031,97.923C115.566,97.923 116.047,97.857 116.475,97.725C116.903,97.593 117.315,97.417 117.713,97.198L118.125,99.177C117.621,99.44 117.09,99.666 116.532,99.853C115.975,100.04 115.345,100.133 114.642,100.133Z"/></g><g transform="matrix(1,0,0,0.694779,-9.36259,28.624)"><path d="M126.925,100.133C125.81,100.133 124.798,99.803 123.889,99.144C122.98,98.484 122.258,97.522 121.723,96.257C121.188,94.993 120.921,93.47 120.921,91.689C120.921,89.952 121.188,88.457 121.723,87.203C122.258,85.95 122.957,84.988 123.82,84.317C124.683,83.647 125.611,83.311 126.604,83.311C127.674,83.311 128.587,83.625 129.343,84.251C130.099,84.878 130.68,85.752 131.084,86.874C131.489,87.995 131.692,89.314 131.692,90.832C131.692,91.139 131.684,91.436 131.669,91.722C131.654,92.008 131.631,92.261 131.6,92.481L122.181,92.481L122.181,90.37L130.477,90.37L129.996,91.128C129.996,89.237 129.694,87.819 129.091,86.874C128.487,85.928 127.674,85.455 126.65,85.455C125.963,85.455 125.325,85.697 124.737,86.181C124.148,86.665 123.679,87.368 123.327,88.292C122.976,89.215 122.8,90.348 122.8,91.689C122.8,93.075 122.991,94.229 123.373,95.153C123.755,96.076 124.274,96.774 124.931,97.247C125.588,97.72 126.329,97.956 127.154,97.956C127.826,97.956 128.434,97.819 128.976,97.544C129.518,97.269 130.042,96.901 130.546,96.439L131.233,98.22C130.683,98.748 130.053,99.199 129.343,99.572C128.632,99.946 127.826,100.133 126.925,100.133Z"/></g><g transform="matrix(1,0,0,0.694779,-9.36259,28.624)"><path d="M134.579,99.737L138.819,91.425L134.9,83.707L136.986,83.707L138.75,87.236C138.949,87.654 139.163,88.094 139.392,88.556C139.621,89.017 139.842,89.479 140.056,89.941L140.148,89.941C140.347,89.479 140.557,89.012 140.778,88.539C141,88.066 141.21,87.61 141.408,87.17L143.081,83.707L145.075,83.707L141.111,91.656L145.373,99.737L143.311,99.737L141.363,96.043C141.133,95.581 140.893,95.098 140.641,94.592C140.389,94.086 140.14,93.602 139.896,93.14L139.804,93.14C139.575,93.602 139.346,94.075 139.117,94.559C138.888,95.043 138.658,95.537 138.429,96.043L136.596,99.737L134.579,99.737Z"/></g><g transform="matrix(1,0,0,0.694779,-9.36259,28.624)"><path d="M155.892,100.133C154.807,100.133 153.951,99.853 153.325,99.292C152.699,98.731 152.252,97.956 151.984,96.967C151.717,95.977 151.583,94.823 151.583,93.503L151.583,85.917L148.444,85.917L148.444,83.872L151.652,83.707L151.904,78.562L153.463,78.562L153.463,83.707L158.94,83.707L158.94,85.917L153.463,85.917L153.463,93.536C153.463,94.482 153.547,95.284 153.715,95.944C153.883,96.604 154.173,97.099 154.586,97.428C154.998,97.758 155.563,97.923 156.281,97.923C156.816,97.923 157.297,97.857 157.725,97.725C158.153,97.593 158.565,97.417 158.963,97.198L159.375,99.177C158.871,99.44 158.34,99.666 157.782,99.853C157.225,100.04 156.595,100.133 155.892,100.133Z"/></g><g transform="matrix(1,0,0,0.694779,-9.36259,28.624)"><path d="M179.908,99.737L179.908,82.355C179.908,81.057 180.073,79.919 180.401,78.941C180.73,77.962 181.222,77.204 181.879,76.665C182.536,76.126 183.376,75.857 184.4,75.857C184.95,75.857 185.489,75.928 186.016,76.071C186.543,76.214 187.074,76.451 187.608,76.78L187.173,78.825C186.715,78.518 186.291,78.314 185.901,78.215C185.512,78.116 185.072,78.067 184.583,78.067C183.59,78.067 182.872,78.441 182.429,79.188C181.986,79.936 181.765,80.958 181.765,82.256L181.765,99.737L179.908,99.737ZM176.723,85.917L176.723,83.872L179.977,83.707L186.44,83.707L186.44,85.917L176.723,85.917Z"/></g><g transform="matrix(1,0,0,0.694779,-9.36259,28.624)"><path d="M194.988,100.133C194.01,100.133 193.105,99.803 192.272,99.144C191.439,98.484 190.767,97.527 190.255,96.274C189.743,95.021 189.488,93.514 189.488,91.755C189.488,89.952 189.743,88.424 190.255,87.17C190.767,85.917 191.439,84.96 192.272,84.301C193.105,83.641 194.01,83.311 194.988,83.311C195.965,83.311 196.871,83.641 197.703,84.301C198.536,84.96 199.208,85.917 199.72,87.17C200.232,88.424 200.488,89.952 200.488,91.755C200.488,93.514 200.232,95.021 199.72,96.274C199.208,97.527 198.536,98.484 197.703,99.144C196.871,99.803 195.965,100.133 194.988,100.133ZM194.988,97.89C195.706,97.89 196.332,97.632 196.867,97.115C197.401,96.598 197.814,95.878 198.104,94.955C198.395,94.031 198.54,92.965 198.54,91.755C198.54,90.524 198.395,89.441 198.104,88.506C197.814,87.572 197.401,86.846 196.867,86.329C196.332,85.813 195.706,85.554 194.988,85.554C194.27,85.554 193.647,85.813 193.12,86.329C192.593,86.846 192.18,87.572 191.882,88.506C191.584,89.441 191.436,90.524 191.436,91.755C191.436,92.965 191.584,94.031 191.882,94.955C192.18,95.878 192.593,96.598 193.12,97.115C193.647,97.632 194.27,97.89 194.988,97.89Z"/></g><g transform="matrix(1,0,0,0.694779,-9.36259,28.624)"><path d="M205.208,99.737L205.208,83.707L206.767,83.707L206.927,87.5L206.996,87.5C207.576,86.203 208.295,85.18 209.15,84.433C210.006,83.685 210.945,83.311 211.969,83.311C212.381,83.311 212.767,83.361 213.126,83.46C213.485,83.559 213.833,83.729 214.169,83.971L213.733,86.313C213.351,86.115 213.023,85.972 212.748,85.884C212.473,85.796 212.114,85.752 211.671,85.752C210.831,85.752 210.025,86.098 209.253,86.791C208.482,87.484 207.76,88.666 207.088,90.337L207.088,99.737L205.208,99.737Z"/></g><g transform="matrix(1,0,0,0.694779,-9.36259,28.624)"><path d="M238.392,100.133C237.307,100.133 236.451,99.853 235.825,99.292C235.199,98.731 234.752,97.956 234.484,96.967C234.217,95.977 234.083,94.823 234.083,93.503L234.083,85.917L230.944,85.917L230.944,83.872L234.152,83.707L234.404,78.562L235.963,78.562L235.963,83.707L241.44,83.707L241.44,85.917L235.963,85.917L235.963,93.536C235.963,94.482 236.047,95.284 236.215,95.944C236.383,96.604 236.673,97.099 237.086,97.428C237.498,97.758 238.063,97.923 238.781,97.923C239.316,97.923 239.797,97.857 240.225,97.725C240.653,97.593 241.065,97.417 241.463,97.198L241.875,99.177C241.371,99.44 240.84,99.666 240.282,99.853C239.725,100.04 239.095,100.133 238.392,100.133Z"/></g><g transform="matrix(1,0,0,0.694779,-9.36259,28.624)"><path d="M245.244,99.737L245.244,76.253L247.123,76.253L247.123,82.652L247.008,86.445L247.077,86.445C247.642,85.565 248.261,84.823 248.933,84.218C249.606,83.614 250.377,83.311 251.248,83.311C252.562,83.311 253.532,83.861 254.158,84.96C254.785,86.06 255.098,87.665 255.098,89.776L255.098,99.737L253.219,99.737L253.219,90.139C253.219,88.622 253.02,87.495 252.623,86.758C252.226,86.021 251.569,85.653 250.652,85.653C249.995,85.653 249.407,85.895 248.888,86.379C248.368,86.863 247.78,87.588 247.123,88.556L247.123,99.737L245.244,99.737Z"/></g><g transform="matrix(1,0,0,0.694779,-9.36259,28.624)"><path d="M264.425,100.133C263.31,100.133 262.298,99.803 261.389,99.144C260.48,98.484 259.758,97.522 259.223,96.257C258.688,94.993 258.421,93.47 258.421,91.689C258.421,89.952 258.688,88.457 259.223,87.203C259.758,85.95 260.457,84.988 261.32,84.317C262.183,83.647 263.111,83.311 264.104,83.311C265.174,83.311 266.087,83.625 266.843,84.251C267.599,84.878 268.18,85.752 268.584,86.874C268.989,87.995 269.192,89.314 269.192,90.832C269.192,91.139 269.184,91.436 269.169,91.722C269.154,92.008 269.131,92.261 269.1,92.481L259.681,92.481L259.681,90.37L267.977,90.37L267.496,91.128C267.496,89.237 267.194,87.819 266.591,86.874C265.987,85.928 265.174,85.455 264.15,85.455C263.463,85.455 262.825,85.697 262.237,86.181C261.648,86.665 261.179,87.368 260.827,88.292C260.476,89.215 260.3,90.348 260.3,91.689C260.3,93.075 260.491,94.229 260.873,95.153C261.255,96.076 261.774,96.774 262.431,97.247C263.088,97.72 263.829,97.956 264.654,97.956C265.326,97.956 265.934,97.819 266.476,97.544C267.018,97.269 267.542,96.901 268.046,96.439L268.733,98.22C268.183,98.748 267.553,99.199 266.843,99.572C266.132,99.946 265.326,100.133 264.425,100.133Z"/></g><g transform="matrix(1,0,0,0.694779,-9.36259,28.624)"><path d="M292.406,100.133C291.474,100.133 290.611,99.88 289.817,99.374C289.022,98.869 288.327,98.138 287.731,97.181C287.136,96.225 286.673,95.048 286.345,93.652C286.016,92.255 285.852,90.678 285.852,88.919C285.852,86.61 286.142,84.614 286.723,82.932C287.304,81.25 288.098,79.958 289.106,79.056C290.115,78.155 291.276,77.704 292.59,77.704C293.491,77.704 294.293,77.973 294.996,78.512C295.699,79.051 296.264,79.661 296.692,80.343L295.615,82.091C295.233,81.475 294.79,80.991 294.286,80.64C293.781,80.288 293.216,80.112 292.59,80.112C291.627,80.112 290.791,80.469 290.08,81.184C289.37,81.898 288.816,82.904 288.419,84.202C288.022,85.499 287.823,87.049 287.823,88.853C287.823,90.678 288.022,92.25 288.419,93.569C288.816,94.889 289.37,95.911 290.08,96.637C290.791,97.362 291.627,97.725 292.59,97.725C293.277,97.725 293.896,97.516 294.446,97.099C294.996,96.681 295.508,96.087 295.981,95.317L297.058,97C296.478,97.989 295.806,98.759 295.042,99.309C294.278,99.858 293.399,100.133 292.406,100.133Z"/></g><g transform="matrix(1,0,0,0.694779,-9.36259,28.624)"><path d="M304.988,100.133C304.01,100.133 303.105,99.803 302.272,99.144C301.439,98.484 300.767,97.527 300.255,96.274C299.743,95.021 299.488,93.514 299.488,91.755C299.488,89.952 299.743,88.424 300.255,87.17C300.767,85.917 301.439,84.96 302.272,84.301C303.105,83.641 304.01,83.311 304.988,83.311C305.965,83.311 306.871,83.641 307.703,84.301C308.536,84.96 309.208,85.917 309.72,87.17C310.232,88.424 310.488,89.952 310.488,91.755C310.488,93.514 310.232,95.021 309.72,96.274C309.208,97.527 308.536,98.484 307.703,99.144C306.871,99.803 305.965,100.133 304.988,100.133ZM304.988,97.89C305.706,97.89 306.332,97.632 306.867,97.115C307.401,96.598 307.814,95.878 308.104,94.955C308.395,94.031 308.54,92.965 308.54,91.755C308.54,90.524 308.395,89.441 308.104,88.506C307.814,87.572 307.401,86.846 306.867,86.329C306.332,85.813 305.706,85.554 304.988,85.554C304.27,85.554 303.647,85.813 303.12,86.329C302.593,86.846 302.18,87.572 301.882,88.506C301.584,89.441 301.436,90.524 301.436,91.755C301.436,92.965 301.584,94.031 301.882,94.955C302.18,95.878 302.593,96.598 303.12,97.115C303.647,97.632 304.27,97.89 304.988,97.89Z"/></g><g transform="matrix(1,0,0,0.694779,-9.36259,28.624)"><path d="M318.073,100.133C316.622,100.133 315.453,99.402 314.567,97.94C313.681,96.477 313.238,94.416 313.238,91.755C313.238,90.018 313.478,88.517 313.959,87.253C314.441,85.988 315.067,85.015 315.839,84.334C316.61,83.652 317.431,83.311 318.302,83.311C318.959,83.311 319.559,83.493 320.101,83.855C320.643,84.218 321.151,84.73 321.625,85.389L321.694,85.389L321.602,82.421L321.602,76.253L323.481,76.253L323.481,99.737L321.923,99.737L321.763,97.626L321.694,97.626C321.251,98.308 320.712,98.896 320.078,99.391C319.444,99.886 318.776,100.133 318.073,100.133ZM318.463,97.857C319.013,97.857 319.547,97.654 320.067,97.247C320.586,96.84 321.098,96.241 321.602,95.449L321.602,87.467C321.098,86.786 320.605,86.302 320.124,86.016C319.643,85.73 319.158,85.587 318.669,85.587C318.027,85.587 317.443,85.845 316.916,86.362C316.389,86.879 315.968,87.594 315.655,88.506C315.342,89.419 315.186,90.491 315.186,91.722C315.186,93.635 315.476,95.136 316.056,96.225C316.637,97.313 317.439,97.857 318.463,97.857Z"/></g><g transform="matrix(1,0,0,0.694779,-9.36259,28.624)"><path d="M333.175,100.133C332.06,100.133 331.048,99.803 330.139,99.144C329.23,98.484 328.508,97.522 327.973,96.257C327.438,94.993 327.171,93.47 327.171,91.689C327.171,89.952 327.438,88.457 327.973,87.203C328.508,85.95 329.207,84.988 330.07,84.317C330.933,83.647 331.861,83.311 332.854,83.311C333.924,83.311 334.837,83.625 335.593,84.251C336.349,84.878 336.93,85.752 337.334,86.874C337.739,87.995 337.942,89.314 337.942,90.832C337.942,91.139 337.934,91.436 337.919,91.722C337.904,92.008 337.881,92.261 337.85,92.481L328.431,92.481L328.431,90.37L336.727,90.37L336.246,91.128C336.246,89.237 335.944,87.819 335.341,86.874C334.737,85.928 333.924,85.455 332.9,85.455C332.213,85.455 331.575,85.697 330.987,86.181C330.398,86.665 329.929,87.368 329.577,88.292C329.226,89.215 329.05,90.348 329.05,91.689C329.05,93.075 329.241,94.229 329.623,95.153C330.005,96.076 330.524,96.774 331.181,97.247C331.838,97.72 332.579,97.956 333.404,97.956C334.076,97.956 334.684,97.819 335.226,97.544C335.768,97.269 336.292,96.901 336.796,96.439L337.483,98.22C336.933,98.748 336.303,99.199 335.593,99.572C334.882,99.946 334.076,100.133 333.175,100.133Z"/></g><g transform="matrix(1,0,0,0.694779,-9.36259,28.624)"><path d="M358.658,99.737L358.658,82.355C358.658,81.057 358.823,79.919 359.151,78.941C359.48,77.962 359.972,77.204 360.629,76.665C361.286,76.126 362.126,75.857 363.15,75.857C363.7,75.857 364.239,75.928 364.766,76.071C365.293,76.214 365.824,76.451 366.358,76.78L365.923,78.825C365.465,78.518 365.041,78.314 364.651,78.215C364.262,78.116 363.822,78.067 363.333,78.067C362.34,78.067 361.622,78.441 361.179,79.188C360.736,79.936 360.515,80.958 360.515,82.256L360.515,99.737L358.658,99.737ZM355.473,85.917L355.473,83.872L358.727,83.707L365.19,83.707L365.19,85.917L355.473,85.917Z"/></g><g transform="matrix(1,0,0,0.694779,-9.36259,28.624)"><path d="M373.738,100.133C372.76,100.133 371.855,99.803 371.022,99.144C370.189,98.484 369.517,97.527 369.005,96.274C368.493,95.021 368.238,93.514 368.238,91.755C368.238,89.952 368.493,88.424 369.005,87.17C369.517,85.917 370.189,84.96 371.022,84.301C371.855,83.641 372.76,83.311 373.738,83.311C374.715,83.311 375.621,83.641 376.453,84.301C377.286,84.96 377.958,85.917 378.47,87.17C378.982,88.424 379.238,89.952 379.238,91.755C379.238,93.514 378.982,95.021 378.47,96.274C377.958,97.527 377.286,98.484 376.453,99.144C375.621,99.803 374.715,100.133 373.738,100.133ZM373.738,97.89C374.456,97.89 375.082,97.632 375.617,97.115C376.151,96.598 376.564,95.878 376.854,94.955C377.145,94.031 377.29,92.965 377.29,91.755C377.29,90.524 377.145,89.441 376.854,88.506C376.564,87.572 376.151,86.846 375.617,86.329C375.082,85.813 374.456,85.554 373.738,85.554C373.02,85.554 372.397,85.813 371.87,86.329C371.343,86.846 370.93,87.572 370.632,88.506C370.334,89.441 370.186,90.524 370.186,91.755C370.186,92.965 370.334,94.031 370.632,94.955C370.93,95.878 371.343,96.598 371.87,97.115C372.397,97.632 373.02,97.89 373.738,97.89Z"/></g><g transform="matrix(1,0,0,0.694779,-9.36259,28.624)"><path d="M382.744,99.737L382.744,83.707L384.302,83.707L384.463,86.445L384.554,86.445C385.135,85.543 385.761,84.796 386.433,84.202C387.106,83.608 387.877,83.311 388.748,83.311C390.062,83.311 391.032,83.861 391.658,84.96C392.285,86.06 392.598,87.665 392.598,89.776L392.598,99.737L390.719,99.737L390.719,90.139C390.719,88.622 390.52,87.495 390.123,86.758C389.726,86.021 389.069,85.653 388.152,85.653C387.495,85.653 386.907,85.895 386.388,86.379C385.868,86.863 385.28,87.588 384.623,88.556L384.623,99.737L382.744,99.737Z"/></g><g transform="matrix(1,0,0,0.694779,-9.36259,28.624)"><path d="M403.392,100.133C402.307,100.133 401.451,99.853 400.825,99.292C400.199,98.731 399.752,97.956 399.484,96.967C399.217,95.977 399.083,94.823 399.083,93.503L399.083,85.917L395.944,85.917L395.944,83.872L399.152,83.707L399.404,78.562L400.963,78.562L400.963,83.707L406.44,83.707L406.44,85.917L400.963,85.917L400.963,93.536C400.963,94.482 401.047,95.284 401.215,95.944C401.383,96.604 401.673,97.099 402.086,97.428C402.498,97.758 403.063,97.923 403.781,97.923C404.316,97.923 404.797,97.857 405.225,97.725C405.653,97.593 406.065,97.417 406.463,97.198L406.875,99.177C406.371,99.44 405.84,99.666 405.282,99.853C404.725,100.04 404.095,100.133 403.392,100.133Z"/></g><g transform="matrix(1,0,0,0.694779,-9.36259,28.624)"><path d="M428.967,100.133C427.882,100.133 426.866,99.88 425.919,99.374C424.972,98.869 424.162,98.286 423.49,97.626L424.361,95.845C425.002,96.505 425.713,97.033 426.492,97.428C427.271,97.824 428.172,98.022 429.196,98.022C430.143,98.022 430.85,97.769 431.316,97.264C431.782,96.758 432.015,96.175 432.015,95.515C432.015,95.207 431.973,94.922 431.889,94.658C431.805,94.394 431.644,94.141 431.407,93.899C431.171,93.657 430.823,93.426 430.365,93.206C429.906,92.987 429.295,92.767 428.531,92.547C427.08,92.107 425.991,91.513 425.266,90.766C424.54,90.018 424.177,89.05 424.177,87.863C424.177,86.566 424.567,85.483 425.346,84.614C426.125,83.746 427.279,83.311 428.806,83.311C429.662,83.311 430.487,83.515 431.281,83.921C432.076,84.328 432.748,84.806 433.298,85.356L432.381,87.104C431.877,86.577 431.304,86.164 430.663,85.867C430.021,85.571 429.349,85.422 428.646,85.422C428.004,85.422 427.496,85.527 427.122,85.736C426.748,85.944 426.48,86.225 426.32,86.577C426.159,86.928 426.079,87.313 426.079,87.731C426.079,88.413 426.335,88.946 426.847,89.331C427.359,89.716 428.18,90.073 429.311,90.403C430.548,90.777 431.499,91.194 432.164,91.656C432.828,92.118 433.287,92.646 433.539,93.239C433.791,93.833 433.917,94.537 433.917,95.35C433.917,96.23 433.726,97.027 433.344,97.742C432.962,98.456 432.404,99.034 431.671,99.473C430.938,99.913 430.036,100.133 428.967,100.133Z"/></g><g transform="matrix(1,0,0,0.694779,-9.36259,28.624)"><path d="M443.542,100.133C442.381,100.133 441.338,99.803 440.414,99.144C439.489,98.484 438.764,97.527 438.237,96.274C437.709,95.021 437.446,93.514 437.446,91.755C437.446,89.952 437.729,88.424 438.294,87.17C438.859,85.917 439.612,84.96 440.551,84.301C441.491,83.641 442.526,83.311 443.656,83.311C444.573,83.311 445.364,83.542 446.028,84.004C446.693,84.466 447.254,85.015 447.713,85.653L446.773,87.401C446.315,86.83 445.841,86.379 445.352,86.049C444.863,85.719 444.321,85.554 443.725,85.554C442.87,85.554 442.113,85.813 441.456,86.329C440.799,86.846 440.291,87.572 439.932,88.506C439.573,89.441 439.394,90.524 439.394,91.755C439.394,92.965 439.57,94.031 439.921,94.955C440.272,95.878 440.773,96.598 441.422,97.115C442.071,97.632 442.824,97.89 443.679,97.89C444.367,97.89 444.997,97.692 445.57,97.296C446.143,96.901 446.658,96.428 447.117,95.878L447.965,97.626C447.354,98.418 446.67,99.034 445.914,99.473C445.157,99.913 444.367,100.133 443.542,100.133Z"/></g><g transform="matrix(1,0,0,0.694779,-9.36259,28.624)"><path d="M451.494,99.737L451.494,76.253L453.373,76.253L453.373,82.652L453.258,86.445L453.327,86.445C453.892,85.565 454.511,84.823 455.183,84.218C455.856,83.614 456.627,83.311 457.498,83.311C458.812,83.311 459.782,83.861 460.408,84.96C461.035,86.06 461.348,87.665 461.348,89.776L461.348,99.737L459.469,99.737L459.469,90.139C459.469,88.622 459.27,87.495 458.873,86.758C458.476,86.021 457.819,85.653 456.902,85.653C456.245,85.653 455.657,85.895 455.138,86.379C454.618,86.863 454.03,87.588 453.373,88.556L453.373,99.737L451.494,99.737Z"/></g><g transform="matrix(1,0,0,0.694779,-9.36259,28.624)"><path d="M470.675,100.133C469.56,100.133 468.548,99.803 467.639,99.144C466.73,98.484 466.008,97.522 465.473,96.257C464.938,94.993 464.671,93.47 464.671,91.689C464.671,89.952 464.938,88.457 465.473,87.203C466.008,85.95 466.707,84.988 467.57,84.317C468.433,83.647 469.361,83.311 470.354,83.311C471.424,83.311 472.337,83.625 473.093,84.251C473.849,84.878 474.43,85.752 474.834,86.874C475.239,87.995 475.442,89.314 475.442,90.832C475.442,91.139 475.434,91.436 475.419,91.722C475.404,92.008 475.381,92.261 475.35,92.481L465.931,92.481L465.931,90.37L474.227,90.37L473.746,91.128C473.746,89.237 473.444,87.819 472.841,86.874C472.237,85.928 471.424,85.455 470.4,85.455C469.713,85.455 469.075,85.697 468.487,86.181C467.898,86.665 467.429,87.368 467.077,88.292C466.726,89.215 466.55,90.348 466.55,91.689C466.55,93.075 466.741,94.229 467.123,95.153C467.505,96.076 468.024,96.774 468.681,97.247C469.338,97.72 470.079,97.956 470.904,97.956C471.576,97.956 472.184,97.819 472.726,97.544C473.268,97.269 473.792,96.901 474.296,96.439L474.983,98.22C474.433,98.748 473.803,99.199 473.093,99.572C472.382,99.946 471.576,100.133 470.675,100.133Z"/></g><g transform="matrix(1,0,0,0.694779,-9.36259,28.624)"><path d="M478.192,99.737L478.192,83.707L479.704,83.707L479.865,85.818L479.911,85.818C480.201,85.07 480.537,84.466 480.919,84.004C481.301,83.542 481.813,83.311 482.454,83.311C483.004,83.311 483.455,83.542 483.806,84.004C484.158,84.466 484.41,85.158 484.563,86.082C484.883,85.224 485.239,84.548 485.628,84.053C486.018,83.559 486.533,83.311 487.175,83.311C487.954,83.311 488.562,83.735 488.997,84.581C489.432,85.428 489.65,86.654 489.65,88.259L489.65,99.737L487.771,99.737L487.771,88.457C487.771,86.588 487.374,85.653 486.579,85.653C486.197,85.653 485.88,85.856 485.628,86.263C485.376,86.67 485.097,87.291 484.792,88.127L484.792,99.737L483.05,99.737L483.05,88.457C483.05,87.533 482.962,86.835 482.787,86.362C482.611,85.889 482.317,85.653 481.904,85.653C481.522,85.653 481.19,85.856 480.907,86.263C480.625,86.67 480.346,87.291 480.071,88.127L480.071,99.737L478.192,99.737Z"/></g><g transform="matrix(1,0,0,0.694779,-9.36259,28.624)"><path d="M498.175,100.133C497.06,100.133 496.048,99.803 495.139,99.144C494.23,98.484 493.508,97.522 492.973,96.257C492.438,94.993 492.171,93.47 492.171,91.689C492.171,89.952 492.438,88.457 492.973,87.203C493.508,85.95 494.207,84.988 495.07,84.317C495.933,83.647 496.861,83.311 497.854,83.311C498.924,83.311 499.837,83.625 500.593,84.251C501.349,84.878 501.93,85.752 502.334,86.874C502.739,87.995 502.942,89.314 502.942,90.832C502.942,91.139 502.934,91.436 502.919,91.722C502.904,92.008 502.881,92.261 502.85,92.481L493.431,92.481L493.431,90.37L501.727,90.37L501.246,91.128C501.246,89.237 500.944,87.819 500.341,86.874C499.737,85.928 498.924,85.455 497.9,85.455C497.213,85.455 496.575,85.697 495.987,86.181C495.398,86.665 494.929,87.368 494.577,88.292C494.226,89.215 494.05,90.348 494.05,91.689C494.05,93.075 494.241,94.229 494.623,95.153C495.005,96.076 495.524,96.774 496.181,97.247C496.838,97.72 497.579,97.956 498.404,97.956C499.076,97.956 499.684,97.819 500.226,97.544C500.768,97.269 501.292,96.901 501.796,96.439L502.483,98.22C501.933,98.748 501.303,99.199 500.593,99.572C499.882,99.946 499.076,100.133 498.175,100.133Z"/></g><g transform="matrix(1,0,0,0.694779,-9.36259,28.624)"><path d="M511.238,100.133C510.733,100.133 510.298,99.875 509.931,99.358C509.565,98.841 509.381,98.176 509.381,97.362C509.381,96.527 509.565,95.851 509.931,95.334C510.298,94.817 510.733,94.559 511.238,94.559C511.757,94.559 512.196,94.817 512.555,95.334C512.914,95.851 513.094,96.527 513.094,97.362C513.094,98.176 512.914,98.841 512.555,99.358C512.196,99.875 511.757,100.133 511.238,100.133Z"/></g></svg>