<svg width="100%" height="100%" viewBox="0 0 640 120" xmlns="http://www.w3.org/2000/svg">
    <g transform="matrix(1,0,0,0.669355,-10.0313,9.65596)">
        <path d="M24.873,16.948C26.895,16.948 28.448,17.271 29.531,17.919C30.615,18.566 31.554,19.268 32.348,20.023C32.781,20.4 33.133,20.684 33.404,20.873C33.675,21.061 33.937,21.156 34.19,21.156C34.551,21.156 34.813,20.859 34.975,20.266C35.138,19.672 35.273,18.782 35.381,17.595L36.627,17.595C36.591,18.62 36.546,19.807 36.492,21.156C36.438,22.504 36.401,24.298 36.383,26.537C36.365,28.776 36.356,31.73 36.356,35.398L35.111,35.398C35.002,32.647 34.596,30.003 33.892,27.468C33.188,24.932 32.195,22.842 30.913,21.196C29.631,19.551 27.997,18.728 26.011,18.728C24.241,18.728 22.77,19.51 21.596,21.075C20.422,22.639 19.836,24.743 19.836,27.387C19.836,29.653 20.215,31.554 20.973,33.092C21.731,34.63 22.806,36.113 24.196,37.543C25.586,38.972 27.238,40.604 29.152,42.439C30.922,44.165 32.511,45.878 33.919,47.577C35.327,49.277 36.438,51.151 37.25,53.202C38.063,55.252 38.469,57.76 38.469,60.727C38.469,64.234 37.891,67.147 36.736,69.467C35.58,71.787 34.027,73.513 32.077,74.646C30.127,75.779 27.997,76.346 25.686,76.346C23.555,76.346 21.867,76.022 20.621,75.375C19.375,74.727 18.301,74.053 17.398,73.352C16.604,72.596 15.99,72.219 15.556,72.219C15.195,72.219 14.933,72.515 14.771,73.109C14.608,73.702 14.473,74.592 14.365,75.779L13.119,75.779C13.191,74.538 13.236,73.082 13.254,71.409C13.272,69.737 13.29,67.565 13.308,64.895C13.326,62.225 13.336,58.839 13.336,54.739L14.581,54.739C14.726,58.192 15.132,61.415 15.8,64.409C16.468,67.404 17.497,69.818 18.888,71.652C20.278,73.486 22.129,74.404 24.44,74.404C25.704,74.404 26.85,74.066 27.879,73.392C28.908,72.718 29.73,71.666 30.344,70.236C30.958,68.806 31.265,66.986 31.265,64.774C31.265,62.562 30.922,60.62 30.236,58.947C29.549,57.275 28.592,55.71 27.365,54.254C26.137,52.797 24.692,51.313 23.031,49.803C21.334,48.184 19.745,46.539 18.265,44.866C16.784,43.194 15.601,41.292 14.717,39.161C13.832,37.03 13.39,34.454 13.39,31.433C13.39,28.088 13.931,25.35 15.015,23.219C16.098,21.088 17.515,19.51 19.267,18.485C21.018,17.46 22.887,16.948 24.873,16.948Z"/>
    </g>
    <g transform="matrix(1,0,0,0.669355,-10.0313,9.65596)">
        <path d="M48.706,75.779C47.154,75.779 45.836,75.334 44.752,74.444C43.669,73.554 42.856,72.34 42.315,70.802C41.773,69.265 41.502,67.552 41.502,65.664C41.502,63.344 41.863,61.442 42.586,59.959C43.308,58.475 44.238,57.288 45.375,56.398C46.513,55.508 47.713,54.753 48.977,54.132C50.241,53.512 51.433,52.918 52.552,52.352C53.672,51.785 54.592,51.124 55.315,50.369C56.037,49.614 56.398,48.616 56.398,47.375L56.398,41.468C56.398,39.741 56.226,38.325 55.883,37.219C55.54,36.113 55.035,35.277 54.367,34.71C53.699,34.144 52.859,33.861 51.848,33.861C51.09,33.861 50.295,34.023 49.465,34.346C48.634,34.67 47.948,35.29 47.406,36.208C48.345,36.585 49.076,37.287 49.6,38.312C50.124,39.337 50.386,40.577 50.386,42.034C50.386,43.706 50.015,45.015 49.275,45.959C48.535,46.903 47.605,47.375 46.486,47.375C45.294,47.375 44.391,46.809 43.777,45.676C43.163,44.543 42.856,43.221 42.856,41.71C42.856,40.2 43.109,38.945 43.615,37.947C44.12,36.949 44.824,36.046 45.727,35.236C46.63,34.319 47.786,33.591 49.194,33.052C50.602,32.512 52.137,32.242 53.798,32.242C55.387,32.242 56.795,32.499 58.023,33.011C59.251,33.524 60.298,34.427 61.165,35.722C62.031,36.963 62.591,38.5 62.844,40.335C63.097,42.169 63.223,44.408 63.223,47.051L63.223,69.224C63.223,70.573 63.331,71.531 63.548,72.097C63.765,72.664 64.108,72.947 64.577,72.947C64.938,72.947 65.281,72.812 65.606,72.542C65.931,72.273 66.292,71.895 66.69,71.409L67.286,72.785C66.491,73.702 65.661,74.431 64.794,74.97C63.927,75.51 62.88,75.779 61.652,75.779C60.388,75.779 59.386,75.51 58.646,74.97C57.906,74.431 57.364,73.648 57.021,72.623C56.678,71.598 56.488,70.384 56.452,68.982C55.586,71.14 54.52,72.812 53.256,73.999C51.992,75.186 50.476,75.779 48.706,75.779ZM51.956,71.248C52.823,71.248 53.626,70.897 54.367,70.196C55.107,69.494 55.784,68.442 56.398,67.039L56.398,50.693C56.037,51.502 55.522,52.23 54.854,52.878C54.186,53.525 53.473,54.173 52.715,54.82C51.956,55.467 51.243,56.209 50.575,57.045C49.907,57.882 49.347,58.907 48.896,60.121C48.445,61.334 48.219,62.885 48.219,64.774C48.219,66.878 48.562,68.483 49.248,69.589C49.934,70.695 50.837,71.248 51.956,71.248Z"/>
    </g>
    <g transform="matrix(1,0,0,0.669355,-10.0313,9.65596)">
        <path d="M86.84,32.242C88.248,32.242 89.431,32.539 90.388,33.132C91.345,33.726 92.094,34.481 92.636,35.398C93.286,36.423 93.737,37.786 93.99,39.485C94.242,41.184 94.369,43.329 94.369,45.918L94.369,67.687C94.369,69.953 94.631,71.49 95.154,72.3C95.678,73.109 96.572,73.513 97.836,73.513L97.836,75.213C97.186,75.159 96.211,75.091 94.911,75.01C93.611,74.93 92.347,74.889 91.119,74.889C89.819,74.889 88.564,74.93 87.354,75.01C86.145,75.091 85.233,75.159 84.619,75.213L84.619,73.513C85.666,73.513 86.415,73.109 86.867,72.3C87.318,71.49 87.544,69.953 87.544,67.687L87.544,43.167C87.544,41.71 87.472,40.402 87.327,39.242C87.183,38.082 86.876,37.165 86.406,36.491C85.937,35.816 85.215,35.479 84.24,35.479C83.12,35.479 82.109,35.965 81.206,36.936C80.304,37.907 79.59,39.242 79.067,40.942C78.543,42.641 78.281,44.543 78.281,46.647L78.281,67.687C78.281,69.953 78.498,71.49 78.931,72.3C79.365,73.109 80.123,73.513 81.206,73.513L81.206,75.213C80.592,75.159 79.699,75.091 78.525,75.01C77.351,74.93 76.151,74.889 74.923,74.889C73.587,74.889 72.233,74.93 70.861,75.01C69.488,75.091 68.459,75.159 67.773,75.213L67.773,73.513C69.109,73.513 70.057,73.109 70.617,72.3C71.176,71.49 71.456,69.953 71.456,67.687L71.456,42.196C71.456,39.768 71.195,37.974 70.671,36.814C70.147,35.655 69.181,35.075 67.773,35.075L67.773,33.375C68.929,33.537 70.048,33.618 71.131,33.618C72.467,33.618 73.74,33.524 74.95,33.335C76.16,33.146 77.27,32.863 78.281,32.485L78.281,40.577C79.184,37.61 80.394,35.479 81.911,34.184C83.427,32.89 85.07,32.242 86.84,32.242ZM103.144,32.242C104.552,32.242 105.735,32.539 106.692,33.132C107.649,33.726 108.398,34.481 108.94,35.398C109.59,36.423 110.041,37.786 110.294,39.485C110.547,41.184 110.673,43.329 110.673,45.918L110.673,67.687C110.673,69.953 110.953,71.49 111.513,72.3C112.072,73.109 113.02,73.513 114.356,73.513L114.356,75.213C113.706,75.159 112.704,75.091 111.35,75.01C109.996,74.93 108.687,74.889 107.423,74.889C106.123,74.889 104.868,74.93 103.658,75.01C102.449,75.091 101.537,75.159 100.923,75.213L100.923,73.513C101.97,73.513 102.72,73.109 103.171,72.3C103.622,71.49 103.848,69.953 103.848,67.687L103.848,43.167C103.848,41.71 103.767,40.402 103.604,39.242C103.442,38.082 103.108,37.165 102.602,36.491C102.097,35.816 101.338,35.479 100.327,35.479C99.208,35.479 98.197,35.992 97.294,37.017C96.391,38.042 95.678,39.404 95.154,41.103C94.631,42.803 94.351,44.705 94.315,46.809L94.044,40.982C95.019,37.637 96.319,35.344 97.944,34.104C99.569,32.863 101.302,32.242 103.144,32.242Z"/>
    </g>
    <g transform="matrix(1,0,0,0.669355,-10.0313,9.65596)">
        <path d="M125.569,32.566L125.569,82.01C125.569,84.438 126.011,86.07 126.896,86.906C127.781,87.742 128.999,88.161 130.552,88.161L130.552,89.86C129.686,89.806 128.467,89.739 126.896,89.658C125.325,89.577 123.655,89.536 121.886,89.536C120.658,89.536 119.43,89.577 118.202,89.658C116.974,89.739 116.036,89.806 115.386,89.86L115.386,88.161C116.613,88.161 117.48,87.783 117.986,87.028C118.491,86.272 118.744,84.87 118.744,82.82L118.744,42.277C118.744,39.849 118.491,38.055 117.986,36.895C117.48,35.736 116.505,35.156 115.061,35.156L115.061,33.456C116.216,33.618 117.336,33.699 118.419,33.699C119.791,33.699 121.073,33.605 122.265,33.416C123.456,33.227 124.558,32.944 125.569,32.566ZM134.073,32.242C135.951,32.242 137.63,33.011 139.111,34.549C140.591,36.086 141.756,38.339 142.604,41.306C143.453,44.273 143.877,47.995 143.877,52.473C143.877,56.034 143.606,59.284 143.065,62.225C142.523,65.165 141.72,67.687 140.654,69.791C139.589,71.895 138.28,73.513 136.727,74.646C135.174,75.779 133.405,76.346 131.419,76.346C129.902,76.346 128.548,75.914 127.356,75.051C126.165,74.188 125.298,73.028 124.756,71.571L125.298,70.438C125.731,71.571 126.327,72.488 127.086,73.19C127.844,73.891 128.747,74.242 129.794,74.242C131.527,74.242 132.899,73.392 133.911,71.693C134.922,69.993 135.635,67.606 136.05,64.531C136.465,61.456 136.673,57.895 136.673,53.849C136.673,49.371 136.474,45.784 136.077,43.086C135.68,40.389 135.084,38.433 134.29,37.219C133.495,36.005 132.556,35.398 131.473,35.398C129.992,35.398 128.665,36.275 127.492,38.028C126.318,39.782 125.605,42.331 125.352,45.676L124.973,43.41C125.551,39.849 126.652,37.098 128.277,35.156C129.902,33.213 131.834,32.242 134.073,32.242Z"/>
    </g>
    <g transform="matrix(1,0,0,0.669355,-10.0313,9.65596)">
        <path d="M156.606,11.85L156.606,67.687C156.606,69.953 156.886,71.49 157.446,72.3C158.006,73.109 158.954,73.513 160.29,73.513L160.29,75.213C159.64,75.159 158.656,75.091 157.338,75.01C156.02,74.93 154.674,74.889 153.302,74.889C151.966,74.889 150.603,74.93 149.213,75.01C147.822,75.091 146.784,75.159 146.098,75.213L146.098,73.513C147.434,73.513 148.382,73.109 148.942,72.3C149.501,71.49 149.781,69.953 149.781,67.687L149.781,21.56C149.781,19.133 149.529,17.339 149.023,16.179C148.517,15.019 147.542,14.439 146.098,14.439L146.098,12.74C147.254,12.902 148.373,12.982 149.456,12.982C150.829,12.982 152.111,12.888 153.302,12.699C154.494,12.51 155.595,12.227 156.606,11.85Z"/>
    </g>
    <g transform="matrix(1,0,0,0.669355,-10.0313,9.65596)">
        <path d="M174.861,32.242C178.038,32.242 180.53,33.672 182.336,36.531C184.141,39.391 185.044,43.949 185.044,50.207L166.79,50.207L166.736,48.67L178.761,48.67C178.833,46.026 178.724,43.585 178.436,41.346C178.147,39.107 177.686,37.314 177.054,35.965C176.422,34.616 175.601,33.942 174.59,33.942C173.217,33.942 172.026,35.142 171.015,37.543C170.004,39.944 169.372,43.868 169.119,49.317L169.336,49.803C169.263,50.504 169.218,51.259 169.2,52.069C169.182,52.878 169.173,53.687 169.173,54.496C169.173,58.219 169.534,61.294 170.256,63.722C170.979,66.149 171.917,67.93 173.073,69.063C174.229,70.196 175.42,70.762 176.648,70.762C177.479,70.762 178.327,70.573 179.194,70.196C180.061,69.818 180.909,69.117 181.74,68.091C182.57,67.066 183.329,65.61 184.015,63.722L185.044,64.369C184.647,66.257 183.988,68.132 183.067,69.993C182.146,71.854 180.963,73.379 179.519,74.565C178.074,75.752 176.377,76.346 174.427,76.346C171.972,76.346 169.805,75.536 167.927,73.918C166.049,72.3 164.587,69.885 163.54,66.675C162.492,63.465 161.969,59.541 161.969,54.901C161.969,49.992 162.52,45.864 163.621,42.52C164.722,39.175 166.248,36.626 168.198,34.872C170.148,33.119 172.369,32.242 174.861,32.242Z"/>
    </g>
    <g transform="matrix(1,0,0,0.669355,-10.0313,9.65596)">
        <path d="M222.744,75.213L222.744,73.594C223.936,73.486 224.829,73.271 225.425,72.947C226.021,72.623 226.418,71.976 226.617,71.005C226.815,70.034 226.915,68.577 226.915,66.635L226.915,26.497C226.915,24.501 226.815,23.03 226.617,22.086C226.418,21.142 226.021,20.495 225.425,20.144C224.829,19.794 223.936,19.591 222.744,19.537L222.744,17.919C223.719,17.973 224.929,18.027 226.373,18.081C227.817,18.135 229.262,18.162 230.706,18.162C232.295,18.162 233.785,18.135 235.175,18.081C236.565,18.027 237.676,17.973 238.506,17.919L238.506,19.537C237.351,19.591 236.475,19.794 235.879,20.144C235.283,20.495 234.877,21.142 234.661,22.086C234.444,23.03 234.336,24.501 234.336,26.497L234.336,66.635C234.336,68.577 234.444,70.034 234.661,71.005C234.877,71.976 235.283,72.623 235.879,72.947C236.475,73.271 237.351,73.486 238.506,73.594L238.506,75.213C237.676,75.105 236.565,75.037 235.175,75.01C233.785,74.983 232.295,74.97 230.706,74.97C229.262,74.97 227.817,74.983 226.373,75.01C224.929,75.037 223.719,75.105 222.744,75.213ZM199.886,75.213L199.886,73.594C201.077,73.486 201.971,73.271 202.567,72.947C203.163,72.623 203.56,71.976 203.758,71.005C203.957,70.034 204.056,68.577 204.056,66.635L204.056,26.497C204.056,24.501 203.957,23.03 203.758,22.086C203.56,21.142 203.163,20.495 202.567,20.144C201.971,19.794 201.077,19.591 199.886,19.537L199.886,17.919C200.788,17.973 201.944,18.027 203.352,18.081C204.761,18.135 206.277,18.162 207.902,18.162C209.347,18.162 210.773,18.135 212.181,18.081C213.59,18.027 214.745,17.973 215.648,17.919L215.648,19.537C214.492,19.591 213.617,19.794 213.021,20.144C212.425,20.495 212.019,21.142 211.802,22.086C211.586,23.03 211.477,24.501 211.477,26.497L211.477,66.635C211.477,68.577 211.586,70.034 211.802,71.005C212.019,71.976 212.425,72.623 213.021,72.947C213.617,73.271 214.492,73.486 215.648,73.594L215.648,75.213C214.745,75.105 213.59,75.037 212.181,75.01C210.773,74.983 209.347,74.97 207.902,74.97C206.277,74.97 204.761,74.983 203.352,75.01C201.944,75.037 200.788,75.105 199.886,75.213ZM208.498,47.213L208.498,45.595L229.894,45.595L229.894,47.213L208.498,47.213Z"/>
    </g>
    <g transform="matrix(1,0,0,0.669355,-10.0313,9.65596)">
        <path d="M253.456,32.242C256.634,32.242 259.126,33.672 260.931,36.531C262.737,39.391 263.64,43.949 263.64,50.207L245.386,50.207L245.331,48.67L257.356,48.67C257.429,46.026 257.32,43.585 257.031,41.346C256.742,39.107 256.282,37.314 255.65,35.965C255.018,34.616 254.197,33.942 253.186,33.942C251.813,33.942 250.622,35.142 249.611,37.543C248.599,39.944 247.967,43.868 247.715,49.317L247.931,49.803C247.859,50.504 247.814,51.259 247.796,52.069C247.778,52.878 247.769,53.687 247.769,54.496C247.769,58.219 248.13,61.294 248.852,63.722C249.574,66.149 250.513,67.93 251.669,69.063C252.824,70.196 254.016,70.762 255.244,70.762C256.074,70.762 256.923,70.573 257.79,70.196C258.656,69.818 259.505,69.117 260.336,68.091C261.166,67.066 261.924,65.61 262.611,63.722L263.64,64.369C263.242,66.257 262.583,68.132 261.663,69.993C260.742,71.854 259.559,73.379 258.115,74.565C256.67,75.752 254.973,76.346 253.023,76.346C250.567,76.346 248.401,75.536 246.523,73.918C244.645,72.3 243.183,69.885 242.136,66.675C241.088,63.465 240.565,59.541 240.565,54.901C240.565,49.992 241.115,45.864 242.217,42.52C243.318,39.175 244.844,36.626 246.794,34.872C248.744,33.119 250.965,32.242 253.456,32.242Z"/>
    </g>
    <g transform="matrix(1,0,0,0.669355,-10.0313,9.65596)">
        <path d="M273.606,75.779C272.054,75.779 270.736,75.334 269.652,74.444C268.569,73.554 267.756,72.34 267.215,70.802C266.673,69.265 266.402,67.552 266.402,65.664C266.402,63.344 266.763,61.442 267.486,59.959C268.208,58.475 269.138,57.288 270.275,56.398C271.413,55.508 272.613,54.753 273.877,54.132C275.141,53.512 276.333,52.918 277.452,52.352C278.572,51.785 279.492,51.124 280.215,50.369C280.937,49.614 281.298,48.616 281.298,47.375L281.298,41.468C281.298,39.741 281.126,38.325 280.783,37.219C280.44,36.113 279.935,35.277 279.267,34.71C278.599,34.144 277.759,33.861 276.748,33.861C275.99,33.861 275.195,34.023 274.365,34.346C273.534,34.67 272.848,35.29 272.306,36.208C273.245,36.585 273.976,37.287 274.5,38.312C275.024,39.337 275.286,40.577 275.286,42.034C275.286,43.706 274.915,45.015 274.175,45.959C273.435,46.903 272.505,47.375 271.386,47.375C270.194,47.375 269.291,46.809 268.677,45.676C268.063,44.543 267.756,43.221 267.756,41.71C267.756,40.2 268.009,38.945 268.515,37.947C269.02,36.949 269.724,36.046 270.627,35.236C271.53,34.319 272.686,33.591 274.094,33.052C275.502,32.512 277.037,32.242 278.698,32.242C280.287,32.242 281.695,32.499 282.923,33.011C284.151,33.524 285.198,34.427 286.065,35.722C286.931,36.963 287.491,38.5 287.744,40.335C287.997,42.169 288.123,44.408 288.123,47.051L288.123,69.224C288.123,70.573 288.231,71.531 288.448,72.097C288.665,72.664 289.008,72.947 289.477,72.947C289.838,72.947 290.181,72.812 290.506,72.542C290.831,72.273 291.192,71.895 291.59,71.409L292.186,72.785C291.391,73.702 290.561,74.431 289.694,74.97C288.827,75.51 287.78,75.779 286.552,75.779C285.288,75.779 284.286,75.51 283.546,74.97C282.806,74.431 282.264,73.648 281.921,72.623C281.578,71.598 281.388,70.384 281.352,68.982C280.486,71.14 279.42,72.812 278.156,73.999C276.892,75.186 275.376,75.779 273.606,75.779ZM276.856,71.248C277.723,71.248 278.526,70.897 279.267,70.196C280.007,69.494 280.684,68.442 281.298,67.039L281.298,50.693C280.937,51.502 280.422,52.23 279.754,52.878C279.086,53.525 278.373,54.173 277.615,54.82C276.856,55.467 276.143,56.209 275.475,57.045C274.807,57.882 274.247,58.907 273.796,60.121C273.345,61.334 273.119,62.885 273.119,64.774C273.119,66.878 273.462,68.483 274.148,69.589C274.834,70.695 275.737,71.248 276.856,71.248Z"/>
    </g>
    <g transform="matrix(1,0,0,0.669355,-10.0313,9.65596)">
        <path d="M318.619,11.85L318.619,66.392C318.619,68.82 318.89,70.614 319.431,71.774C319.973,72.933 320.93,73.513 322.302,73.513L322.302,75.213C321.183,75.051 320.063,74.97 318.944,74.97C317.608,74.97 316.344,75.051 315.152,75.213C313.961,75.375 312.841,75.671 311.794,76.103L311.794,21.56C311.794,19.133 311.532,17.339 311.008,16.179C310.485,15.019 309.519,14.439 308.111,14.439L308.111,12.74C309.266,12.902 310.386,12.982 311.469,12.982C312.841,12.982 314.123,12.888 315.315,12.699C316.506,12.51 317.608,12.227 318.619,11.85ZM305.673,32.242C307.262,32.242 308.688,32.701 309.952,33.618C311.216,34.535 312.155,36.073 312.769,38.231L312.119,39.04C311.613,37.475 310.927,36.315 310.061,35.56C309.194,34.805 308.219,34.427 307.136,34.427C305.186,34.427 303.624,36.059 302.45,39.323C301.276,42.587 300.69,47.591 300.69,54.334C300.69,58.866 300.924,62.521 301.394,65.3C301.863,68.078 302.54,70.088 303.425,71.328C304.31,72.569 305.366,73.19 306.594,73.19C307.894,73.19 309.067,72.394 310.115,70.802C311.162,69.211 311.776,66.932 311.956,63.964L312.336,66.23C311.866,69.521 310.981,72.03 309.681,73.756C308.381,75.483 306.666,76.346 304.536,76.346C302.369,76.346 300.446,75.55 298.767,73.958C297.088,72.367 295.788,69.939 294.867,66.675C293.946,63.411 293.486,59.271 293.486,54.254C293.486,49.344 294.027,45.258 295.111,41.994C296.194,38.73 297.656,36.288 299.498,34.67C301.34,33.052 303.398,32.242 305.673,32.242Z"/>
    </g>
    <g transform="matrix(1,0,0,0.669355,-10.0313,9.65596)">
        <path d="M330.373,12.74C331.673,12.74 332.738,13.279 333.569,14.358C334.399,15.437 334.815,16.867 334.815,18.647C334.815,20.427 334.399,21.857 333.569,22.936C332.738,24.015 331.673,24.555 330.373,24.555C329.073,24.555 328.008,24.015 327.177,22.936C326.347,21.857 325.931,20.427 325.931,18.647C325.931,16.867 326.347,15.437 327.177,14.358C328.008,13.279 329.073,12.74 330.373,12.74ZM334.165,32.485L334.165,67.687C334.165,69.953 334.445,71.49 335.004,72.3C335.564,73.109 336.512,73.513 337.848,73.513L337.848,75.213C337.198,75.159 336.205,75.091 334.869,75.01C333.533,74.93 332.179,74.889 330.806,74.889C329.47,74.889 328.116,74.93 326.744,75.01C325.372,75.091 324.342,75.159 323.656,75.213L323.656,73.513C324.992,73.513 325.94,73.109 326.5,72.3C327.06,71.49 327.34,69.953 327.34,67.687L327.34,42.277C327.34,39.795 327.078,37.974 326.554,36.814C326.031,35.655 325.065,35.075 323.656,35.075L323.656,33.375C324.812,33.537 325.931,33.618 327.015,33.618C328.351,33.618 329.624,33.524 330.833,33.335C332.043,33.146 333.154,32.863 334.165,32.485Z"/>
    </g>
    <g transform="matrix(1,0,0,0.669355,-10.0313,9.65596)">
        <path d="M358.702,32.242C360.219,32.242 361.438,32.539 362.358,33.132C363.279,33.726 364.029,34.481 364.606,35.398C365.256,36.423 365.717,37.745 365.988,39.364C366.258,40.982 366.394,43.167 366.394,45.918L366.394,67.687C366.394,69.953 366.674,71.49 367.233,72.3C367.793,73.109 368.741,73.513 370.077,73.513L370.077,75.213C369.427,75.159 368.425,75.091 367.071,75.01C365.717,74.93 364.408,74.889 363.144,74.889C361.808,74.889 360.508,74.93 359.244,75.01C357.98,75.091 357.041,75.159 356.427,75.213L356.427,73.513C357.583,73.513 358.395,73.109 358.865,72.3C359.334,71.49 359.569,69.953 359.569,67.687L359.569,43.167C359.569,41.71 359.479,40.402 359.298,39.242C359.117,38.082 358.756,37.165 358.215,36.491C357.673,35.816 356.897,35.479 355.886,35.479C354.694,35.479 353.638,35.965 352.717,36.936C351.796,37.907 351.074,39.242 350.55,40.942C350.026,42.641 349.765,44.543 349.765,46.647L349.765,67.687C349.765,69.953 349.999,71.49 350.469,72.3C350.938,73.109 351.751,73.513 352.906,73.513L352.906,75.213C352.292,75.159 351.372,75.091 350.144,75.01C348.916,74.93 347.67,74.889 346.406,74.889C345.07,74.889 343.716,74.93 342.344,75.01C340.972,75.091 339.942,75.159 339.256,75.213L339.256,73.513C340.592,73.513 341.54,73.109 342.1,72.3C342.66,71.49 342.94,69.953 342.94,67.687L342.94,42.196C342.94,39.768 342.678,37.974 342.154,36.814C341.631,35.655 340.665,35.075 339.256,35.075L339.256,33.375C340.412,33.537 341.531,33.618 342.615,33.618C343.951,33.618 345.224,33.524 346.433,33.335C347.643,33.146 348.754,32.863 349.765,32.485L349.765,40.577C350.667,37.502 351.913,35.344 353.502,34.104C355.091,32.863 356.824,32.242 358.702,32.242Z"/>
    </g>
    <g transform="matrix(1,0,0,0.669355,-10.0313,9.65596)">
        <path d="M380.965,90.426C378.834,90.426 376.902,90.13 375.169,89.536C373.436,88.943 372.063,88.066 371.052,86.906C370.041,85.746 369.536,84.276 369.536,82.496C369.536,80.77 370.041,79.232 371.052,77.883C372.063,76.535 373.544,75.51 375.494,74.808L375.873,76.103C375.187,76.696 374.663,77.506 374.302,78.531C373.941,79.556 373.761,80.635 373.761,81.768C373.761,84.087 374.474,85.881 375.9,87.149C377.326,88.417 379.231,89.051 381.615,89.051C383.24,89.051 384.738,88.727 386.111,88.08C387.483,87.432 388.584,86.434 389.415,85.085C390.245,83.737 390.661,82.064 390.661,80.068C390.661,78.396 390.254,76.993 389.442,75.86C388.629,74.727 387.013,74.161 384.594,74.161L381.019,74.161C379.683,74.161 378.464,73.945 377.363,73.513C376.261,73.082 375.386,72.38 374.736,71.409C374.086,70.438 373.761,69.09 373.761,67.363C373.761,65.259 374.338,63.357 375.494,61.658C376.649,59.959 378.455,58.3 380.911,56.681L381.506,57.41C380.604,58.111 379.8,58.866 379.096,59.675C378.392,60.485 378.04,61.51 378.04,62.751C378.04,64.477 378.834,65.34 380.423,65.34L386.544,65.34C388.422,65.34 390.092,65.691 391.554,66.392C393.017,67.093 394.181,68.199 395.048,69.71C395.915,71.221 396.348,73.217 396.348,75.698C396.348,78.288 395.788,80.702 394.669,82.941C393.549,85.18 391.861,86.987 389.604,88.363C387.347,89.739 384.467,90.426 380.965,90.426ZM381.452,57.976C379.502,57.976 377.742,57.531 376.171,56.641C374.6,55.751 373.363,54.348 372.461,52.433C371.558,50.518 371.106,48.076 371.106,45.109C371.106,42.142 371.558,39.714 372.461,37.826C373.363,35.938 374.6,34.535 376.171,33.618C377.742,32.701 379.502,32.242 381.452,32.242C383.438,32.242 385.208,32.701 386.761,33.618C388.313,34.535 389.541,35.938 390.444,37.826C391.347,39.714 391.798,42.142 391.798,45.109C391.798,48.076 391.347,50.518 390.444,52.433C389.541,54.348 388.313,55.751 386.761,56.641C385.208,57.531 383.438,57.976 381.452,57.976ZM381.452,56.519C382.536,56.519 383.393,55.697 384.025,54.051C384.657,52.406 384.973,49.425 384.973,45.109C384.973,40.793 384.657,37.813 384.025,36.167C383.393,34.522 382.536,33.699 381.452,33.699C380.369,33.699 379.511,34.522 378.879,36.167C378.247,37.813 377.931,40.793 377.931,45.109C377.931,49.425 378.247,52.406 378.879,54.051C379.511,55.697 380.369,56.519 381.452,56.519ZM389.631,39.121L388.602,38.554C389.144,36.558 390.029,34.872 391.256,33.497C392.484,32.121 393.784,31.433 395.156,31.433C396.204,31.433 397.025,31.865 397.621,32.728C398.217,33.591 398.515,34.805 398.515,36.369C398.515,37.988 398.226,39.175 397.648,39.93C397.07,40.685 396.438,41.063 395.752,41.063C395.138,41.063 394.579,40.753 394.073,40.132C393.567,39.512 393.279,38.541 393.206,37.219C393.134,35.897 393.423,34.238 394.073,32.242L394.615,32.566C393.206,33.375 392.159,34.265 391.473,35.236C390.787,36.208 390.173,37.502 389.631,39.121Z"/>
    </g>
    <g transform="matrix(1,0,0,0.643857,-12.7064,32.544)">
        <path d="M23.165,81.825C22.998,81.523 22.776,81.232 22.498,80.951C22.22,80.671 21.908,80.418 21.561,80.191C21.213,79.965 20.835,79.781 20.425,79.641C20.015,79.501 19.588,79.431 19.144,79.431C18.005,79.431 17.165,79.764 16.623,80.431C16.081,81.097 15.811,82.011 15.811,83.173C15.811,83.99 15.949,84.635 16.227,85.108C16.505,85.581 16.932,85.968 17.508,86.269C18.085,86.57 18.817,86.882 19.706,87.205C20.734,87.549 21.623,87.968 22.373,88.463C23.123,88.957 23.699,89.618 24.102,90.446C24.505,91.274 24.706,92.376 24.706,93.752C24.706,94.849 24.571,95.801 24.3,96.607C24.029,97.413 23.651,98.08 23.165,98.607C22.679,99.134 22.109,99.521 21.456,99.768C20.804,100.016 20.095,100.139 19.331,100.139C18.581,100.139 17.849,100.015 17.133,99.767C16.418,99.519 15.741,99.158 15.102,98.683C14.463,98.209 13.866,97.615 13.311,96.904L14.206,94.444C14.429,94.811 14.717,95.172 15.071,95.528C15.425,95.884 15.828,96.213 16.279,96.515C16.731,96.817 17.22,97.06 17.748,97.243C18.276,97.427 18.817,97.518 19.373,97.518C20.429,97.518 21.248,97.223 21.831,96.633C22.415,96.042 22.706,95.179 22.706,94.041C22.706,93.18 22.543,92.492 22.217,91.976C21.89,91.46 21.408,91.029 20.769,90.685C20.13,90.341 19.352,89.997 18.436,89.653C17.436,89.265 16.595,88.84 15.915,88.378C15.234,87.916 14.724,87.308 14.383,86.555C14.043,85.802 13.873,84.823 13.873,83.618C13.873,82.156 14.102,80.919 14.561,79.908C15.019,78.897 15.651,78.133 16.456,77.617C17.262,77.1 18.172,76.842 19.186,76.842C19.852,76.842 20.474,76.95 21.05,77.166C21.627,77.381 22.165,77.683 22.665,78.072C23.165,78.46 23.623,78.924 24.04,79.463L23.165,81.825Z"/>
    </g>
    <g transform="matrix(1,0,0,0.643857,-12.7064,32.544)">
        <path d="M26.019,95.124C26.019,94.052 26.217,93.124 26.613,92.342C27.008,91.559 27.554,90.954 28.248,90.525C28.942,90.096 29.748,89.882 30.665,89.882C31.151,89.882 31.665,89.941 32.206,90.06C32.748,90.179 33.227,90.357 33.644,90.594L33.644,89.371C33.644,88.095 33.394,87.09 32.894,86.356C32.394,85.622 31.686,85.255 30.769,85.255C30.172,85.255 29.599,85.422 29.05,85.757C28.502,86.091 27.922,86.571 27.311,87.196L26.644,85.19C27.352,84.435 28.061,83.869 28.769,83.492C29.477,83.114 30.213,82.925 30.977,82.925C32.366,82.925 33.463,83.519 34.269,84.706C35.074,85.893 35.477,87.545 35.477,89.662L35.477,96.751C35.477,97.093 35.522,97.344 35.613,97.505C35.703,97.665 35.852,97.756 36.061,97.777L36.061,99.977C35.88,100.021 35.724,100.053 35.592,100.075C35.46,100.096 35.352,100.107 35.269,100.107C34.838,100.107 34.515,99.924 34.3,99.557C34.085,99.19 33.963,98.802 33.936,98.392L33.894,97.324C33.422,98.273 32.804,99.007 32.04,99.524C31.276,100.042 30.519,100.301 29.769,100.301C29.047,100.301 28.401,100.071 27.831,99.61C27.262,99.149 26.817,98.527 26.498,97.745C26.179,96.962 26.019,96.089 26.019,95.124ZM33.102,96.307C33.269,96.008 33.401,95.704 33.498,95.394C33.595,95.085 33.644,94.823 33.644,94.61L33.644,92.527C33.213,92.271 32.762,92.074 32.29,91.935C31.817,91.796 31.352,91.726 30.894,91.726C29.963,91.726 29.21,92.009 28.633,92.575C28.057,93.141 27.769,93.915 27.769,94.898C27.769,95.432 27.863,95.95 28.05,96.452C28.238,96.953 28.515,97.365 28.883,97.685C29.252,98.005 29.706,98.165 30.248,98.165C30.817,98.165 31.359,97.989 31.873,97.637C32.387,97.284 32.797,96.841 33.102,96.307Z"/>
    </g>
    <g transform="matrix(1,0,0,0.643857,-12.7064,32.544)">
        <path d="M54.811,99.977L52.977,99.977L52.977,90.613C52.977,88.86 52.793,87.566 52.425,86.732C52.057,85.898 51.512,85.481 50.79,85.481C50.054,85.481 49.387,85.893 48.79,86.716C48.192,87.539 47.769,88.603 47.519,89.907L47.519,99.977L45.686,99.977L45.686,90.613C45.686,88.838 45.505,87.539 45.144,86.716C44.783,85.893 44.241,85.481 43.519,85.481C42.797,85.481 42.133,85.881 41.529,86.68C40.925,87.48 40.498,88.54 40.248,89.862L40.248,99.977L38.415,99.977L38.415,83.184L40.081,83.184L40.081,86.811C40.526,85.569 41.102,84.611 41.811,83.937C42.519,83.263 43.317,82.925 44.206,82.925C45.109,82.925 45.831,83.305 46.373,84.065C46.915,84.825 47.248,85.805 47.373,87.004C47.859,85.676 48.449,84.665 49.144,83.969C49.838,83.273 50.63,82.925 51.519,82.925C52.144,82.925 52.668,83.102 53.092,83.455C53.515,83.808 53.852,84.301 54.102,84.932C54.352,85.564 54.533,86.308 54.644,87.164C54.755,88.021 54.811,88.952 54.811,89.958L54.811,99.977Z"/>
    </g>
    <g transform="matrix(1,0,0,0.643857,-12.7064,32.544)">
        <path d="M63.519,100.301C62.63,100.301 61.838,99.958 61.144,99.273C60.449,98.588 59.901,97.721 59.498,96.671L59.498,106.87L57.665,106.87L57.665,83.184L59.29,83.184L59.29,86.362C59.72,85.334 60.283,84.504 60.977,83.873C61.672,83.241 62.429,82.925 63.248,82.925C63.998,82.925 64.686,83.161 65.311,83.632C65.936,84.103 66.477,84.745 66.936,85.559C67.394,86.372 67.752,87.299 68.008,88.337C68.265,89.375 68.394,90.462 68.394,91.597C68.394,93.181 68.189,94.638 67.779,95.965C67.37,97.293 66.797,98.347 66.061,99.129C65.324,99.91 64.477,100.301 63.519,100.301ZM62.956,97.842C63.498,97.842 63.988,97.666 64.425,97.314C64.863,96.961 65.238,96.492 65.55,95.905C65.863,95.317 66.102,94.65 66.269,93.903C66.436,93.156 66.519,92.387 66.519,91.597C66.519,90.764 66.425,89.975 66.238,89.227C66.05,88.48 65.786,87.818 65.446,87.242C65.106,86.666 64.71,86.212 64.258,85.881C63.807,85.55 63.317,85.384 62.79,85.384C62.456,85.384 62.113,85.48 61.758,85.672C61.404,85.864 61.067,86.136 60.748,86.487C60.429,86.839 60.158,87.238 59.936,87.686C59.713,88.133 59.567,88.613 59.498,89.124L59.498,93.91C59.706,94.634 59.984,95.295 60.331,95.892C60.679,96.488 61.081,96.963 61.54,97.314C61.998,97.666 62.47,97.842 62.956,97.842Z"/>
    </g>
    <g transform="matrix(1,0,0,0.643857,-12.7064,32.544)">
        <path d="M70.686,76.357L72.519,76.357L72.519,95.697C72.519,96.629 72.602,97.203 72.769,97.42C72.936,97.636 73.137,97.745 73.373,97.745C73.665,97.745 73.942,97.696 74.206,97.599C74.47,97.502 74.692,97.4 74.873,97.292L75.165,99.622C74.859,99.816 74.498,99.977 74.081,100.107C73.665,100.236 73.297,100.301 72.977,100.301C72.269,100.301 71.71,99.987 71.3,99.359C70.89,98.731 70.686,97.854 70.686,96.727L70.686,76.357Z"/>
    </g>
    <g transform="matrix(1,0,0,0.643857,-12.7064,32.544)">
        <path d="M81.415,100.301C80.595,100.301 79.849,100.071 79.175,99.61C78.502,99.15 77.918,98.518 77.425,97.716C76.932,96.913 76.55,95.987 76.279,94.937C76.008,93.888 75.873,92.775 75.873,91.597C75.873,90.012 76.109,88.567 76.581,87.261C77.054,85.955 77.71,84.906 78.55,84.114C79.39,83.321 80.352,82.925 81.436,82.925C82.533,82.925 83.488,83.327 84.3,84.131C85.113,84.934 85.745,85.984 86.196,87.28C86.647,88.577 86.873,89.975 86.873,91.475C86.873,91.689 86.87,91.898 86.863,92.102C86.856,92.305 86.845,92.461 86.831,92.568L77.811,92.568C77.866,93.655 78.064,94.62 78.404,95.463C78.745,96.305 79.186,96.966 79.727,97.446C80.269,97.926 80.852,98.165 81.477,98.165C82.144,98.165 82.772,97.907 83.363,97.389C83.953,96.871 84.359,96.192 84.581,95.35L86.165,96.03C85.929,96.85 85.578,97.583 85.113,98.23C84.647,98.877 84.099,99.384 83.467,99.751C82.835,100.118 82.151,100.301 81.415,100.301ZM77.748,90.594L85.165,90.594C85.109,89.507 84.908,88.547 84.561,87.715C84.213,86.884 83.769,86.233 83.227,85.764C82.686,85.295 82.088,85.061 81.436,85.061C80.797,85.061 80.206,85.295 79.665,85.764C79.123,86.233 78.682,86.884 78.342,87.715C78.002,88.547 77.804,89.507 77.748,90.594Z"/>
    </g>
    <g transform="matrix(1,0,0,0.643857,-12.7064,32.544)">
        <path d="M99.811,99.233C99.658,99.341 99.449,99.481 99.186,99.654C98.922,99.826 98.616,99.977 98.269,100.107C97.922,100.236 97.554,100.301 97.165,100.301C96.72,100.301 96.311,100.177 95.936,99.929C95.561,99.681 95.262,99.293 95.04,98.764C94.817,98.236 94.706,97.572 94.706,96.774L94.706,85.417L93.227,85.417L93.227,83.184L94.706,83.184L94.706,77.554L96.54,77.554L96.54,83.184L98.977,83.184L98.977,85.417L96.54,85.417L96.54,95.9C96.567,96.504 96.699,96.952 96.936,97.243C97.172,97.535 97.449,97.68 97.769,97.68C98.13,97.68 98.463,97.583 98.769,97.389C99.074,97.195 99.276,97.055 99.373,96.968L99.811,99.233Z"/>
    </g>
    <g transform="matrix(1,0,0,0.643857,-12.7064,32.544)">
        <path d="M106.186,100.301C105.366,100.301 104.62,100.071 103.946,99.61C103.272,99.15 102.689,98.518 102.196,97.716C101.703,96.913 101.321,95.987 101.05,94.937C100.779,93.888 100.644,92.775 100.644,91.597C100.644,90.012 100.88,88.567 101.352,87.261C101.824,85.955 102.481,84.906 103.321,84.114C104.161,83.321 105.123,82.925 106.206,82.925C107.304,82.925 108.258,83.327 109.071,84.131C109.883,84.934 110.515,85.984 110.967,87.28C111.418,88.577 111.644,89.975 111.644,91.475C111.644,91.689 111.64,91.898 111.633,92.102C111.627,92.305 111.616,92.461 111.602,92.568L102.581,92.568C102.637,93.655 102.835,94.62 103.175,95.463C103.515,96.305 103.956,96.966 104.498,97.446C105.04,97.926 105.623,98.165 106.248,98.165C106.915,98.165 107.543,97.907 108.133,97.389C108.724,96.871 109.13,96.192 109.352,95.35L110.936,96.03C110.699,96.85 110.349,97.583 109.883,98.23C109.418,98.877 108.87,99.384 108.238,99.751C107.606,100.118 106.922,100.301 106.186,100.301ZM102.519,90.594L109.936,90.594C109.88,89.507 109.679,88.547 109.331,87.715C108.984,86.884 108.54,86.233 107.998,85.764C107.456,85.295 106.859,85.061 106.206,85.061C105.567,85.061 104.977,85.295 104.436,85.764C103.894,86.233 103.453,86.884 103.113,87.715C102.772,88.547 102.574,89.507 102.519,90.594Z"/>
    </g>
    <g transform="matrix(1,0,0,0.643857,-12.7064,32.544)">
        <path d="M114.081,83.184L116.956,89.361L117.123,89.875L117.311,89.361L120.165,83.184L122.206,83.184L118.186,91.613L122.227,99.977L120.186,99.977L117.311,93.833L117.123,93.35L116.956,93.833L114.081,99.977L112.04,99.977L116.081,91.613L112.061,83.184L114.081,83.184Z"/>
    </g>
    <g transform="matrix(1,0,0,0.643857,-12.7064,32.544)">
        <path d="M129.581,99.233C129.429,99.341 129.22,99.481 128.956,99.654C128.692,99.826 128.387,99.977 128.04,100.107C127.692,100.236 127.324,100.301 126.936,100.301C126.491,100.301 126.081,100.177 125.706,99.929C125.331,99.681 125.033,99.293 124.811,98.764C124.588,98.236 124.477,97.572 124.477,96.774L124.477,85.417L122.998,85.417L122.998,83.184L124.477,83.184L124.477,77.554L126.311,77.554L126.311,83.184L128.748,83.184L128.748,85.417L126.311,85.417L126.311,95.9C126.338,96.504 126.47,96.952 126.706,97.243C126.942,97.535 127.22,97.68 127.54,97.68C127.901,97.68 128.234,97.583 128.54,97.389C128.845,97.195 129.047,97.055 129.144,96.968L129.581,99.233Z"/>
    </g>
    <g transform="matrix(1,0,0,0.643857,-12.7064,32.544)">
        <path d="M137.144,99.977L137.144,85.32L135.665,85.32L135.665,83.087L137.144,83.087L137.144,82.731C137.144,81.351 137.279,80.159 137.55,79.156C137.821,78.153 138.206,77.381 138.706,76.842C139.206,76.303 139.797,76.033 140.477,76.033C140.908,76.033 141.331,76.125 141.748,76.308C142.165,76.492 142.54,76.745 142.873,77.069L142.415,79.172C142.22,78.956 141.981,78.784 141.696,78.654C141.411,78.525 141.13,78.46 140.852,78.46C140.255,78.46 139.793,78.821 139.467,79.544C139.14,80.267 138.977,81.297 138.977,82.634L138.977,83.087L141.873,83.087L141.873,85.32L138.977,85.32L138.977,99.977L137.144,99.977Z"/>
    </g>
    <g transform="matrix(1,0,0,0.643857,-12.7064,32.544)">
        <path d="M148.206,100.301C147.387,100.301 146.644,100.071 145.977,99.61C145.311,99.15 144.734,98.518 144.248,97.716C143.762,96.913 143.387,95.987 143.123,94.937C142.859,93.888 142.727,92.785 142.727,91.629C142.727,90.452 142.859,89.338 143.123,88.289C143.387,87.24 143.762,86.314 144.248,85.511C144.734,84.708 145.314,84.076 145.988,83.616C146.661,83.155 147.408,82.925 148.227,82.925C149.033,82.925 149.769,83.155 150.436,83.616C151.102,84.076 151.682,84.708 152.175,85.511C152.668,86.314 153.047,87.24 153.311,88.289C153.574,89.338 153.706,90.452 153.706,91.629C153.706,92.785 153.574,93.888 153.311,94.937C153.047,95.987 152.672,96.913 152.186,97.716C151.699,98.518 151.12,99.15 150.446,99.61C149.772,100.071 149.026,100.301 148.206,100.301ZM144.602,91.661C144.602,92.814 144.765,93.86 145.092,94.8C145.418,95.739 145.852,96.481 146.394,97.025C146.936,97.57 147.54,97.842 148.206,97.842C148.873,97.842 149.481,97.564 150.029,97.009C150.578,96.454 151.015,95.702 151.342,94.752C151.668,93.802 151.831,92.75 151.831,91.597C151.831,90.444 151.668,89.398 151.342,88.459C151.015,87.519 150.578,86.772 150.029,86.217C149.481,85.662 148.873,85.384 148.206,85.384C147.54,85.384 146.936,85.667 146.394,86.233C145.852,86.799 145.418,87.551 145.092,88.491C144.765,89.43 144.602,90.487 144.602,91.661Z"/>
    </g>
    <g transform="matrix(1,0,0,0.643857,-12.7064,32.544)">
        <path d="M161.686,85.579C160.769,85.6 159.96,85.961 159.258,86.663C158.557,87.364 158.061,88.329 157.769,89.558L157.769,99.977L155.936,99.977L155.936,83.184L157.644,83.184L157.644,87.002C158.019,85.837 158.515,84.894 159.133,84.171C159.752,83.448 160.401,83.044 161.081,82.958L161.436,82.958C161.533,82.958 161.616,82.968 161.686,82.99L161.686,85.579Z"/>
    </g>
    <g transform="matrix(1,0,0,0.643857,-12.7064,32.544)">
        <path d="M173.915,99.233C173.762,99.341 173.554,99.481 173.29,99.654C173.026,99.826 172.72,99.977 172.373,100.107C172.026,100.236 171.658,100.301 171.269,100.301C170.824,100.301 170.415,100.177 170.04,99.929C169.665,99.681 169.366,99.293 169.144,98.764C168.922,98.236 168.811,97.572 168.811,96.774L168.811,85.417L167.331,85.417L167.331,83.184L168.811,83.184L168.811,77.554L170.644,77.554L170.644,83.184L173.081,83.184L173.081,85.417L170.644,85.417L170.644,95.9C170.672,96.504 170.804,96.952 171.04,97.243C171.276,97.535 171.554,97.68 171.873,97.68C172.234,97.68 172.567,97.583 172.873,97.389C173.179,97.195 173.38,97.055 173.477,96.968L173.915,99.233Z"/>
    </g>
    <g transform="matrix(1,0,0,0.643857,-12.7064,32.544)">
        <path d="M185.061,99.977L183.227,99.977L183.227,90.613C183.227,88.902 183.029,87.62 182.633,86.764C182.238,85.909 181.672,85.481 180.936,85.481C180.463,85.481 179.988,85.673 179.508,86.057C179.029,86.441 178.609,86.958 178.248,87.608C177.887,88.258 177.623,89.009 177.456,89.862L177.456,99.977L175.623,99.977L175.623,76.357L177.456,76.357L177.456,86.811C177.887,85.612 178.474,84.665 179.217,83.969C179.96,83.273 180.762,82.925 181.623,82.925C182.276,82.925 182.821,83.102 183.258,83.455C183.696,83.808 184.047,84.306 184.311,84.948C184.574,85.591 184.765,86.335 184.883,87.18C185.002,88.026 185.061,88.952 185.061,89.958L185.061,99.977Z"/>
    </g>
    <g transform="matrix(1,0,0,0.643857,-12.7064,32.544)">
        <path d="M192.727,100.301C191.908,100.301 191.161,100.071 190.488,99.61C189.814,99.15 189.231,98.518 188.738,97.716C188.245,96.913 187.863,95.987 187.592,94.937C187.321,93.888 187.186,92.775 187.186,91.597C187.186,90.012 187.422,88.567 187.894,87.261C188.366,85.955 189.022,84.906 189.863,84.114C190.703,83.321 191.665,82.925 192.748,82.925C193.845,82.925 194.8,83.327 195.613,84.131C196.425,84.934 197.057,85.984 197.508,87.28C197.96,88.577 198.186,89.975 198.186,91.475C198.186,91.689 198.182,91.898 198.175,92.102C198.168,92.305 198.158,92.461 198.144,92.568L189.123,92.568C189.179,93.655 189.377,94.62 189.717,95.463C190.057,96.305 190.498,96.966 191.04,97.446C191.581,97.926 192.165,98.165 192.79,98.165C193.456,98.165 194.085,97.907 194.675,97.389C195.265,96.871 195.672,96.192 195.894,95.35L197.477,96.03C197.241,96.85 196.89,97.583 196.425,98.23C195.96,98.877 195.411,99.384 194.779,99.751C194.147,100.118 193.463,100.301 192.727,100.301ZM189.061,90.594L196.477,90.594C196.422,89.507 196.22,88.547 195.873,87.715C195.526,86.884 195.081,86.233 194.54,85.764C193.998,85.295 193.401,85.061 192.748,85.061C192.109,85.061 191.519,85.295 190.977,85.764C190.436,86.233 189.995,86.884 189.654,87.715C189.314,88.547 189.116,89.507 189.061,90.594Z"/>
    </g>
    <g transform="matrix(1,0,0,0.643857,-12.7064,32.544)">
        <path d="M204.831,88.297C204.831,86.894 204.988,85.519 205.3,84.171C205.613,82.823 206.071,81.593 206.675,80.482C207.279,79.371 208.019,78.487 208.894,77.829C209.769,77.171 210.762,76.842 211.873,76.842C213.192,76.842 214.324,77.311 215.269,78.25C216.213,79.188 216.915,80.391 217.373,81.857L215.894,83.346C215.602,82.375 215.231,81.604 214.779,81.032C214.328,80.461 213.842,80.056 213.321,79.819C212.8,79.582 212.29,79.463 211.79,79.463C210.97,79.463 210.245,79.722 209.613,80.24C208.981,80.757 208.449,81.448 208.019,82.31C207.588,83.173 207.265,84.139 207.05,85.206C206.835,86.274 206.727,87.347 206.727,88.426C206.727,89.612 206.856,90.756 207.113,91.856C207.37,92.956 207.727,93.927 208.186,94.768C208.644,95.609 209.186,96.278 209.811,96.774C210.436,97.27 211.116,97.518 211.852,97.518C212.366,97.518 212.894,97.378 213.436,97.098C213.977,96.817 214.484,96.38 214.956,95.787C215.429,95.194 215.804,94.423 216.081,93.474L217.644,94.8C217.338,95.944 216.866,96.914 216.227,97.712C215.588,98.511 214.877,99.115 214.092,99.524C213.307,99.934 212.533,100.139 211.769,100.139C210.755,100.139 209.824,99.8 208.977,99.12C208.13,98.441 207.397,97.535 206.779,96.402C206.161,95.27 205.682,93.997 205.342,92.584C205.002,91.171 204.831,89.742 204.831,88.297Z"/>
    </g>
    <g transform="matrix(1,0,0,0.643857,-12.7064,32.544)">
        <path d="M224.456,100.301C223.637,100.301 222.894,100.071 222.227,99.61C221.561,99.15 220.984,98.518 220.498,97.716C220.012,96.913 219.637,95.987 219.373,94.937C219.109,93.888 218.977,92.785 218.977,91.629C218.977,90.452 219.109,89.338 219.373,88.289C219.637,87.24 220.012,86.314 220.498,85.511C220.984,84.708 221.564,84.076 222.238,83.616C222.911,83.155 223.658,82.925 224.477,82.925C225.283,82.925 226.019,83.155 226.686,83.616C227.352,84.076 227.932,84.708 228.425,85.511C228.918,86.314 229.297,87.24 229.561,88.289C229.824,89.338 229.956,90.452 229.956,91.629C229.956,92.785 229.824,93.888 229.561,94.937C229.297,95.987 228.922,96.913 228.436,97.716C227.949,98.518 227.37,99.15 226.696,99.61C226.022,100.071 225.276,100.301 224.456,100.301ZM220.852,91.661C220.852,92.814 221.015,93.86 221.342,94.8C221.668,95.739 222.102,96.481 222.644,97.025C223.186,97.57 223.79,97.842 224.456,97.842C225.123,97.842 225.731,97.564 226.279,97.009C226.828,96.454 227.265,95.702 227.592,94.752C227.918,93.802 228.081,92.75 228.081,91.597C228.081,90.444 227.918,89.398 227.592,88.459C227.265,87.519 226.828,86.772 226.279,86.217C225.731,85.662 225.123,85.384 224.456,85.384C223.79,85.384 223.186,85.667 222.644,86.233C222.102,86.799 221.668,87.551 221.342,88.491C221.015,89.43 220.852,90.487 220.852,91.661Z"/>
    </g>
    <g transform="matrix(1,0,0,0.643857,-12.7064,32.544)">
        <path d="M235.915,100.301C235.012,100.301 234.165,100.069 233.373,99.605C232.581,99.142 231.901,98.446 231.331,97.518L232.04,95.512C232.665,96.418 233.29,97.065 233.915,97.454C234.54,97.842 235.179,98.036 235.831,98.036C236.581,98.036 237.192,97.818 237.665,97.382C238.137,96.946 238.373,96.302 238.373,95.451C238.373,94.83 238.252,94.37 238.008,94.07C237.765,93.77 237.422,93.519 236.977,93.315C236.533,93.112 236.005,92.882 235.394,92.625C234.644,92.282 234.012,91.918 233.498,91.533C232.984,91.148 232.595,90.666 232.331,90.088C232.067,89.509 231.936,88.781 231.936,87.904C231.936,86.833 232.116,85.929 232.477,85.19C232.838,84.451 233.335,83.889 233.967,83.503C234.599,83.118 235.317,82.925 236.123,82.925C236.929,82.925 237.658,83.119 238.311,83.508C238.963,83.896 239.526,84.468 239.998,85.223L239.165,87.196C238.734,86.506 238.262,85.994 237.748,85.659C237.234,85.325 236.658,85.158 236.019,85.158C235.644,85.158 235.276,85.227 234.915,85.366C234.554,85.506 234.255,85.751 234.019,86.104C233.783,86.457 233.665,86.955 233.665,87.596C233.665,88.131 233.758,88.553 233.946,88.863C234.133,89.173 234.411,89.435 234.779,89.649C235.147,89.864 235.595,90.099 236.123,90.355C236.942,90.719 237.654,91.083 238.258,91.446C238.863,91.81 239.331,92.28 239.665,92.858C239.998,93.435 240.165,94.237 240.165,95.264C240.165,96.847 239.776,98.082 238.998,98.97C238.22,99.857 237.192,100.301 235.915,100.301Z"/>
    </g>
    <g transform="matrix(1,0,0,0.643857,-12.7064,32.544)">
        <path d="M258.748,99.977L256.915,99.977L256.915,90.613C256.915,88.86 256.731,87.566 256.363,86.732C255.995,85.898 255.449,85.481 254.727,85.481C253.991,85.481 253.324,85.893 252.727,86.716C252.13,87.539 251.706,88.603 251.456,89.907L251.456,99.977L249.623,99.977L249.623,90.613C249.623,88.838 249.442,87.539 249.081,86.716C248.72,85.893 248.179,85.481 247.456,85.481C246.734,85.481 246.071,85.881 245.467,86.68C244.863,87.48 244.436,88.54 244.186,89.862L244.186,99.977L242.352,99.977L242.352,83.184L244.019,83.184L244.019,86.811C244.463,85.569 245.04,84.611 245.748,83.937C246.456,83.263 247.255,82.925 248.144,82.925C249.047,82.925 249.769,83.305 250.311,84.065C250.852,84.825 251.186,85.805 251.311,87.004C251.797,85.676 252.387,84.665 253.081,83.969C253.776,83.273 254.567,82.925 255.456,82.925C256.081,82.925 256.606,83.102 257.029,83.455C257.453,83.808 257.79,84.301 258.04,84.932C258.29,85.564 258.47,86.308 258.581,87.164C258.692,88.021 258.748,88.952 258.748,89.958L258.748,99.977Z"/>
    </g>
    <g transform="matrix(1,0,0,0.643857,-12.7064,32.544)">
        <path d="M266.352,100.301C265.533,100.301 264.79,100.071 264.123,99.61C263.456,99.15 262.88,98.518 262.394,97.716C261.908,96.913 261.533,95.987 261.269,94.937C261.005,93.888 260.873,92.785 260.873,91.629C260.873,90.452 261.005,89.338 261.269,88.289C261.533,87.24 261.908,86.314 262.394,85.511C262.88,84.708 263.46,84.076 264.133,83.616C264.807,83.155 265.554,82.925 266.373,82.925C267.179,82.925 267.915,83.155 268.581,83.616C269.248,84.076 269.828,84.708 270.321,85.511C270.814,86.314 271.192,87.24 271.456,88.289C271.72,89.338 271.852,90.452 271.852,91.629C271.852,92.785 271.72,93.888 271.456,94.937C271.192,95.987 270.817,96.913 270.331,97.716C269.845,98.518 269.265,99.15 268.592,99.61C267.918,100.071 267.172,100.301 266.352,100.301ZM262.748,91.661C262.748,92.814 262.911,93.86 263.238,94.8C263.564,95.739 263.998,96.481 264.54,97.025C265.081,97.57 265.686,97.842 266.352,97.842C267.019,97.842 267.627,97.564 268.175,97.009C268.724,96.454 269.161,95.702 269.488,94.752C269.814,93.802 269.977,92.75 269.977,91.597C269.977,90.444 269.814,89.398 269.488,88.459C269.161,87.519 268.724,86.772 268.175,86.217C267.627,85.662 267.019,85.384 266.352,85.384C265.686,85.384 265.081,85.667 264.54,86.233C263.998,86.799 263.564,87.551 263.238,88.491C262.911,89.43 262.748,90.487 262.748,91.661Z"/>
    </g>
    <g transform="matrix(1,0,0,0.643857,-12.7064,32.544)">
        <path d="M279.936,100.301C279.047,100.301 278.255,99.958 277.561,99.273C276.866,98.588 276.317,97.721 275.915,96.671L275.915,106.87L274.081,106.87L274.081,83.184L275.706,83.184L275.706,86.362C276.137,85.334 276.699,84.504 277.394,83.873C278.088,83.241 278.845,82.925 279.665,82.925C280.415,82.925 281.102,83.161 281.727,83.632C282.352,84.103 282.894,84.745 283.352,85.559C283.811,86.372 284.168,87.299 284.425,88.337C284.682,89.375 284.811,90.462 284.811,91.597C284.811,93.181 284.606,94.638 284.196,95.965C283.786,97.293 283.213,98.347 282.477,99.129C281.741,99.91 280.894,100.301 279.936,100.301ZM279.373,97.842C279.915,97.842 280.404,97.666 280.842,97.314C281.279,96.961 281.654,96.492 281.967,95.905C282.279,95.317 282.519,94.65 282.686,93.903C282.852,93.156 282.936,92.387 282.936,91.597C282.936,90.764 282.842,89.975 282.654,89.227C282.467,88.48 282.203,87.818 281.863,87.242C281.522,86.666 281.127,86.212 280.675,85.881C280.224,85.55 279.734,85.384 279.206,85.384C278.873,85.384 278.529,85.48 278.175,85.672C277.821,85.864 277.484,86.136 277.165,86.487C276.845,86.839 276.574,87.238 276.352,87.686C276.13,88.133 275.984,88.613 275.915,89.124L275.915,93.91C276.123,94.634 276.401,95.295 276.748,95.892C277.095,96.488 277.498,96.963 277.956,97.314C278.415,97.666 278.887,97.842 279.373,97.842Z"/>
    </g>
    <g transform="matrix(1,0,0,0.643857,-12.7064,32.544)">
        <path d="M291.811,100.301C290.991,100.301 290.248,100.071 289.581,99.61C288.915,99.15 288.338,98.518 287.852,97.716C287.366,96.913 286.991,95.987 286.727,94.937C286.463,93.888 286.331,92.785 286.331,91.629C286.331,90.452 286.463,89.338 286.727,88.289C286.991,87.24 287.366,86.314 287.852,85.511C288.338,84.708 288.918,84.076 289.592,83.616C290.265,83.155 291.012,82.925 291.831,82.925C292.637,82.925 293.373,83.155 294.04,83.616C294.706,84.076 295.286,84.708 295.779,85.511C296.272,86.314 296.651,87.24 296.915,88.289C297.179,89.338 297.311,90.452 297.311,91.629C297.311,92.785 297.179,93.888 296.915,94.937C296.651,95.987 296.276,96.913 295.79,97.716C295.304,98.518 294.724,99.15 294.05,99.61C293.377,100.071 292.63,100.301 291.811,100.301ZM288.206,91.661C288.206,92.814 288.37,93.86 288.696,94.8C289.022,95.739 289.456,96.481 289.998,97.025C290.54,97.57 291.144,97.842 291.811,97.842C292.477,97.842 293.085,97.564 293.633,97.009C294.182,96.454 294.62,95.702 294.946,94.752C295.272,93.802 295.436,92.75 295.436,91.597C295.436,90.444 295.272,89.398 294.946,88.459C294.62,87.519 294.182,86.772 293.633,86.217C293.085,85.662 292.477,85.384 291.811,85.384C291.144,85.384 290.54,85.667 289.998,86.233C289.456,86.799 289.022,87.551 288.696,88.491C288.37,89.43 288.206,90.487 288.206,91.661Z"/>
    </g>
    <g transform="matrix(1,0,0,0.643857,-12.7064,32.544)">
        <path d="M299.581,76.357L301.415,76.357L301.415,95.697C301.415,96.629 301.498,97.203 301.665,97.42C301.831,97.636 302.033,97.745 302.269,97.745C302.561,97.745 302.838,97.696 303.102,97.599C303.366,97.502 303.588,97.4 303.769,97.292L304.061,99.622C303.755,99.816 303.394,99.977 302.977,100.107C302.561,100.236 302.192,100.301 301.873,100.301C301.165,100.301 300.606,99.987 300.196,99.359C299.786,98.731 299.581,97.854 299.581,96.727L299.581,76.357Z"/>
    </g>
    <g transform="matrix(1,0,0,0.643857,-12.7064,32.544)">
        <path d="M305.498,99.977L305.498,83.087L307.331,83.087L307.331,99.977L305.498,99.977ZM305.498,79.916L305.498,76.357L307.331,76.357L307.331,79.916L305.498,79.916Z"/>
    </g>
    <g transform="matrix(1,0,0,0.643857,-12.7064,32.544)">
        <path d="M315.915,99.233C315.762,99.341 315.554,99.481 315.29,99.654C315.026,99.826 314.72,99.977 314.373,100.107C314.026,100.236 313.658,100.301 313.269,100.301C312.824,100.301 312.415,100.177 312.04,99.929C311.665,99.681 311.366,99.293 311.144,98.764C310.922,98.236 310.811,97.572 310.811,96.774L310.811,85.417L309.331,85.417L309.331,83.184L310.811,83.184L310.811,77.554L312.644,77.554L312.644,83.184L315.081,83.184L315.081,85.417L312.644,85.417L312.644,95.9C312.672,96.504 312.804,96.952 313.04,97.243C313.276,97.535 313.554,97.68 313.873,97.68C314.234,97.68 314.567,97.583 314.873,97.389C315.179,97.195 315.38,97.055 315.477,96.968L315.915,99.233Z"/>
    </g>
    <g transform="matrix(1,0,0,0.643857,-12.7064,32.544)">
        <path d="M316.769,95.124C316.769,94.052 316.967,93.124 317.363,92.342C317.758,91.559 318.304,90.954 318.998,90.525C319.692,90.096 320.498,89.882 321.415,89.882C321.901,89.882 322.415,89.941 322.956,90.06C323.498,90.179 323.977,90.357 324.394,90.594L324.394,89.371C324.394,88.095 324.144,87.09 323.644,86.356C323.144,85.622 322.436,85.255 321.519,85.255C320.922,85.255 320.349,85.422 319.8,85.757C319.252,86.091 318.672,86.571 318.061,87.196L317.394,85.19C318.102,84.435 318.811,83.869 319.519,83.492C320.227,83.114 320.963,82.925 321.727,82.925C323.116,82.925 324.213,83.519 325.019,84.706C325.824,85.893 326.227,87.545 326.227,89.662L326.227,96.751C326.227,97.093 326.272,97.344 326.363,97.505C326.453,97.665 326.602,97.756 326.811,97.777L326.811,99.977C326.63,100.021 326.474,100.053 326.342,100.075C326.21,100.096 326.102,100.107 326.019,100.107C325.588,100.107 325.265,99.924 325.05,99.557C324.835,99.19 324.713,98.802 324.686,98.392L324.644,97.324C324.172,98.273 323.554,99.007 322.79,99.524C322.026,100.042 321.269,100.301 320.519,100.301C319.797,100.301 319.151,100.071 318.581,99.61C318.012,99.149 317.567,98.527 317.248,97.745C316.929,96.962 316.769,96.089 316.769,95.124ZM323.852,96.307C324.019,96.008 324.151,95.704 324.248,95.394C324.345,95.085 324.394,94.823 324.394,94.61L324.394,92.527C323.963,92.271 323.512,92.074 323.04,91.935C322.567,91.796 322.102,91.726 321.644,91.726C320.713,91.726 319.96,92.009 319.383,92.575C318.807,93.141 318.519,93.915 318.519,94.898C318.519,95.432 318.613,95.95 318.8,96.452C318.988,96.953 319.265,97.365 319.633,97.685C320.002,98.005 320.456,98.165 320.998,98.165C321.567,98.165 322.109,97.989 322.623,97.637C323.137,97.284 323.547,96.841 323.852,96.307Z"/>
    </g>
    <g transform="matrix(1,0,0,0.643857,-12.7064,32.544)">
        <path d="M338.602,99.977L336.769,99.977L336.769,90.613C336.769,88.838 336.592,87.539 336.238,86.716C335.883,85.893 335.345,85.481 334.623,85.481C334.123,85.481 333.627,85.673 333.133,86.057C332.64,86.441 332.203,86.958 331.821,87.608C331.439,88.258 331.165,89.009 330.998,89.862L330.998,99.977L329.165,99.977L329.165,83.184L330.831,83.184L330.831,86.811C331.123,86.019 331.498,85.334 331.956,84.756C332.415,84.178 332.936,83.728 333.519,83.407C334.102,83.086 334.713,82.925 335.352,82.925C335.977,82.925 336.502,83.102 336.925,83.455C337.349,83.808 337.682,84.301 337.925,84.932C338.168,85.564 338.342,86.308 338.446,87.164C338.55,88.021 338.602,88.952 338.602,89.958L338.602,99.977Z"/>
    </g>
    <g transform="matrix(1,0,0,0.643857,-12.7064,32.544)">
        <path d="M347.311,99.977L347.311,85.32L345.831,85.32L345.831,83.087L347.311,83.087L347.311,82.731C347.311,81.351 347.446,80.159 347.717,79.156C347.988,78.153 348.373,77.381 348.873,76.842C349.373,76.303 349.963,76.033 350.644,76.033C351.074,76.033 351.498,76.125 351.915,76.308C352.331,76.492 352.706,76.745 353.04,77.069L352.581,79.172C352.387,78.956 352.147,78.784 351.863,78.654C351.578,78.525 351.297,78.46 351.019,78.46C350.422,78.46 349.96,78.821 349.633,79.544C349.307,80.267 349.144,81.297 349.144,82.634L349.144,83.087L352.04,83.087L352.04,85.32L349.144,85.32L349.144,99.977L347.311,99.977Z"/>
    </g>
    <g transform="matrix(1,0,0,0.643857,-12.7064,32.544)">
        <path d="M358.373,100.301C357.554,100.301 356.811,100.071 356.144,99.61C355.477,99.15 354.901,98.518 354.415,97.716C353.929,96.913 353.554,95.987 353.29,94.937C353.026,93.888 352.894,92.785 352.894,91.629C352.894,90.452 353.026,89.338 353.29,88.289C353.554,87.24 353.929,86.314 354.415,85.511C354.901,84.708 355.481,84.076 356.154,83.616C356.828,83.155 357.574,82.925 358.394,82.925C359.199,82.925 359.936,83.155 360.602,83.616C361.269,84.076 361.849,84.708 362.342,85.511C362.835,86.314 363.213,87.24 363.477,88.289C363.741,89.338 363.873,90.452 363.873,91.629C363.873,92.785 363.741,93.888 363.477,94.937C363.213,95.987 362.838,96.913 362.352,97.716C361.866,98.518 361.286,99.15 360.613,99.61C359.939,100.071 359.192,100.301 358.373,100.301ZM354.769,91.661C354.769,92.814 354.932,93.86 355.258,94.8C355.585,95.739 356.019,96.481 356.561,97.025C357.102,97.57 357.706,97.842 358.373,97.842C359.04,97.842 359.647,97.564 360.196,97.009C360.745,96.454 361.182,95.702 361.508,94.752C361.835,93.802 361.998,92.75 361.998,91.597C361.998,90.444 361.835,89.398 361.508,88.459C361.182,87.519 360.745,86.772 360.196,86.217C359.647,85.662 359.04,85.384 358.373,85.384C357.706,85.384 357.102,85.667 356.561,86.233C356.019,86.799 355.585,87.551 355.258,88.491C354.932,89.43 354.769,90.487 354.769,91.661Z"/>
    </g>
    <g transform="matrix(1,0,0,0.643857,-12.7064,32.544)">
        <path d="M375.54,99.977L373.706,99.977L373.706,90.613C373.706,88.838 373.529,87.539 373.175,86.716C372.821,85.893 372.283,85.481 371.561,85.481C371.061,85.481 370.564,85.673 370.071,86.057C369.578,86.441 369.14,86.958 368.758,87.608C368.377,88.258 368.102,89.009 367.936,89.862L367.936,99.977L366.102,99.977L366.102,83.184L367.769,83.184L367.769,86.811C368.061,86.019 368.436,85.334 368.894,84.756C369.352,84.178 369.873,83.728 370.456,83.407C371.04,83.086 371.651,82.925 372.29,82.925C372.915,82.925 373.439,83.102 373.863,83.455C374.286,83.808 374.62,84.301 374.863,84.932C375.106,85.564 375.279,86.308 375.383,87.164C375.488,88.021 375.54,88.952 375.54,89.958L375.54,99.977Z"/>
    </g>
    <g transform="matrix(1,0,0,0.643857,-12.7064,32.544)">
        <path d="M383.915,99.233C383.762,99.341 383.554,99.481 383.29,99.654C383.026,99.826 382.72,99.977 382.373,100.107C382.026,100.236 381.658,100.301 381.269,100.301C380.824,100.301 380.415,100.177 380.04,99.929C379.665,99.681 379.366,99.293 379.144,98.764C378.922,98.236 378.811,97.572 378.811,96.774L378.811,85.417L377.331,85.417L377.331,83.184L378.811,83.184L378.811,77.554L380.644,77.554L380.644,83.184L383.081,83.184L383.081,85.417L380.644,85.417L380.644,95.9C380.672,96.504 380.804,96.952 381.04,97.243C381.276,97.535 381.554,97.68 381.873,97.68C382.234,97.68 382.567,97.583 382.873,97.389C383.179,97.195 383.38,97.055 383.477,96.968L383.915,99.233Z"/>
    </g>
    <g transform="matrix(1,0,0,0.643857,-12.7064,32.544)">
        <path d="M394.623,100.301C393.72,100.301 392.873,100.069 392.081,99.605C391.29,99.142 390.609,98.446 390.04,97.518L390.748,95.512C391.373,96.418 391.998,97.065 392.623,97.454C393.248,97.842 393.887,98.036 394.54,98.036C395.29,98.036 395.901,97.818 396.373,97.382C396.845,96.946 397.081,96.302 397.081,95.451C397.081,94.83 396.96,94.37 396.717,94.07C396.474,93.77 396.13,93.519 395.686,93.315C395.241,93.112 394.713,92.882 394.102,92.625C393.352,92.282 392.72,91.918 392.206,91.533C391.692,91.148 391.304,90.666 391.04,90.088C390.776,89.509 390.644,88.781 390.644,87.904C390.644,86.833 390.824,85.929 391.186,85.19C391.547,84.451 392.043,83.889 392.675,83.503C393.307,83.118 394.026,82.925 394.831,82.925C395.637,82.925 396.366,83.119 397.019,83.508C397.672,83.896 398.234,84.468 398.706,85.223L397.873,87.196C397.442,86.506 396.97,85.994 396.456,85.659C395.942,85.325 395.366,85.158 394.727,85.158C394.352,85.158 393.984,85.227 393.623,85.366C393.262,85.506 392.963,85.751 392.727,86.104C392.491,86.457 392.373,86.955 392.373,87.596C392.373,88.131 392.467,88.553 392.654,88.863C392.842,89.173 393.12,89.435 393.488,89.649C393.856,89.864 394.304,90.099 394.831,90.355C395.651,90.719 396.363,91.083 396.967,91.446C397.571,91.81 398.04,92.28 398.373,92.858C398.706,93.435 398.873,94.237 398.873,95.264C398.873,96.847 398.484,98.082 397.706,98.97C396.929,99.857 395.901,100.301 394.623,100.301Z"/>
    </g>
    <g transform="matrix(1,0,0,0.643857,-12.7064,32.544)">
        <path d="M405.873,100.301C405.054,100.301 404.307,100.071 403.633,99.61C402.96,99.15 402.377,98.513 401.883,97.699C401.39,96.886 401.008,95.954 400.738,94.905C400.467,93.856 400.331,92.743 400.331,91.565C400.331,89.981 400.561,88.535 401.019,87.229C401.477,85.923 402.123,84.879 402.956,84.097C403.79,83.316 404.755,82.925 405.852,82.925C406.922,82.925 407.856,83.297 408.654,84.042C409.453,84.786 410.047,85.783 410.436,87.035L408.644,87.908C408.366,87.11 407.977,86.49 407.477,86.048C406.977,85.606 406.422,85.384 405.811,85.384C405.144,85.384 404.536,85.651 403.988,86.185C403.439,86.719 403.005,87.45 402.686,88.379C402.366,89.307 402.206,90.37 402.206,91.565C402.206,92.739 402.37,93.802 402.696,94.752C403.022,95.702 403.46,96.454 404.008,97.009C404.557,97.564 405.165,97.842 405.831,97.842C406.262,97.842 406.675,97.723 407.071,97.486C407.467,97.249 407.814,96.931 408.113,96.531C408.411,96.132 408.616,95.696 408.727,95.221L410.519,96.062C410.297,96.882 409.96,97.61 409.508,98.246C409.057,98.883 408.522,99.384 407.904,99.751C407.286,100.118 406.609,100.301 405.873,100.301Z"/>
    </g>
    <g transform="matrix(1,0,0,0.643857,-12.7064,32.544)">
        <path d="M422.04,99.977L420.206,99.977L420.206,90.613C420.206,88.902 420.008,87.62 419.613,86.764C419.217,85.909 418.651,85.481 417.915,85.481C417.442,85.481 416.967,85.673 416.488,86.057C416.008,86.441 415.588,86.958 415.227,87.608C414.866,88.258 414.602,89.009 414.436,89.862L414.436,99.977L412.602,99.977L412.602,76.357L414.436,76.357L414.436,86.811C414.866,85.612 415.453,84.665 416.196,83.969C416.939,83.273 417.741,82.925 418.602,82.925C419.255,82.925 419.8,83.102 420.238,83.455C420.675,83.808 421.026,84.306 421.29,84.948C421.554,85.591 421.745,86.335 421.863,87.18C421.981,88.026 422.04,88.952 422.04,89.958L422.04,99.977Z"/>
    </g>
    <g transform="matrix(1,0,0,0.643857,-12.7064,32.544)">
        <path d="M429.706,100.301C428.887,100.301 428.14,100.071 427.467,99.61C426.793,99.15 426.21,98.518 425.717,97.716C425.224,96.913 424.842,95.987 424.571,94.937C424.3,93.888 424.165,92.775 424.165,91.597C424.165,90.012 424.401,88.567 424.873,87.261C425.345,85.955 426.002,84.906 426.842,84.114C427.682,83.321 428.644,82.925 429.727,82.925C430.824,82.925 431.779,83.327 432.592,84.131C433.404,84.934 434.036,85.984 434.488,87.28C434.939,88.577 435.165,89.975 435.165,91.475C435.165,91.689 435.161,91.898 435.154,92.102C435.147,92.305 435.137,92.461 435.123,92.568L426.102,92.568C426.158,93.655 426.356,94.62 426.696,95.463C427.036,96.305 427.477,96.966 428.019,97.446C428.561,97.926 429.144,98.165 429.769,98.165C430.436,98.165 431.064,97.907 431.654,97.389C432.245,96.871 432.651,96.192 432.873,95.35L434.456,96.03C434.22,96.85 433.87,97.583 433.404,98.23C432.939,98.877 432.39,99.384 431.758,99.751C431.127,100.118 430.442,100.301 429.706,100.301ZM426.04,90.594L433.456,90.594C433.401,89.507 433.199,88.547 432.852,87.715C432.505,86.884 432.061,86.233 431.519,85.764C430.977,85.295 430.38,85.061 429.727,85.061C429.088,85.061 428.498,85.295 427.956,85.764C427.415,86.233 426.974,86.884 426.633,87.715C426.293,88.547 426.095,89.507 426.04,90.594Z"/>
    </g>
    <g transform="matrix(1,0,0,0.643857,-12.7064,32.544)">
        <path d="M453.602,99.977L451.769,99.977L451.769,90.613C451.769,88.86 451.585,87.566 451.217,86.732C450.849,85.898 450.304,85.481 449.581,85.481C448.845,85.481 448.179,85.893 447.581,86.716C446.984,87.539 446.561,88.603 446.311,89.907L446.311,99.977L444.477,99.977L444.477,90.613C444.477,88.838 444.297,87.539 443.936,86.716C443.574,85.893 443.033,85.481 442.311,85.481C441.588,85.481 440.925,85.881 440.321,86.68C439.717,87.48 439.29,88.54 439.04,89.862L439.04,99.977L437.206,99.977L437.206,83.184L438.873,83.184L438.873,86.811C439.317,85.569 439.894,84.611 440.602,83.937C441.311,83.263 442.109,82.925 442.998,82.925C443.901,82.925 444.623,83.305 445.165,84.065C445.706,84.825 446.04,85.805 446.165,87.004C446.651,85.676 447.241,84.665 447.936,83.969C448.63,83.273 449.422,82.925 450.311,82.925C450.936,82.925 451.46,83.102 451.883,83.455C452.307,83.808 452.644,84.301 452.894,84.932C453.144,85.564 453.324,86.308 453.436,87.164C453.547,88.021 453.602,88.952 453.602,89.958L453.602,99.977Z"/>
    </g>
    <g transform="matrix(1,0,0,0.643857,-12.7064,32.544)">
        <path d="M461.269,100.301C460.449,100.301 459.703,100.071 459.029,99.61C458.356,99.15 457.772,98.518 457.279,97.716C456.786,96.913 456.404,95.987 456.133,94.937C455.863,93.888 455.727,92.775 455.727,91.597C455.727,90.012 455.963,88.567 456.436,87.261C456.908,85.955 457.564,84.906 458.404,84.114C459.245,83.321 460.206,82.925 461.29,82.925C462.387,82.925 463.342,83.327 464.154,84.131C464.967,84.934 465.599,85.984 466.05,87.28C466.502,88.577 466.727,89.975 466.727,91.475C466.727,91.689 466.724,91.898 466.717,92.102C466.71,92.305 466.699,92.461 466.686,92.568L457.665,92.568C457.72,93.655 457.918,94.62 458.258,95.463C458.599,96.305 459.04,96.966 459.581,97.446C460.123,97.926 460.706,98.165 461.331,98.165C461.998,98.165 462.627,97.907 463.217,97.389C463.807,96.871 464.213,96.192 464.436,95.35L466.019,96.03C465.783,96.85 465.432,97.583 464.967,98.23C464.502,98.877 463.953,99.384 463.321,99.751C462.689,100.118 462.005,100.301 461.269,100.301ZM457.602,90.594L465.019,90.594C464.963,89.507 464.762,88.547 464.415,87.715C464.067,86.884 463.623,86.233 463.081,85.764C462.54,85.295 461.942,85.061 461.29,85.061C460.651,85.061 460.061,85.295 459.519,85.764C458.977,86.233 458.536,86.884 458.196,87.715C457.856,88.547 457.658,89.507 457.602,90.594Z"/>
    </g>
    <g transform="matrix(1,0,0,0.643857,-12.7064,32.544)">
        <rect x="468.623" y="96.353" width="1.542" height="3.624"/>
    </g>
</svg>
